<svg xmlns="http://www.w3.org/2000/svg" viewBox="0 0 2278 127" preserveAspectRatio="none" lang="en" style="color-scheme: dark light;">
		<title>Player count by leaderboard</title>
		<style>
			svg {
				background: var(--canvas-background);
				fill: var(--canvas-background);
				stroke: var(--canvas-foreground);
				stroke-linejoin: round;
				stroke-linecap: round;
			}
			g &gt; path[tabindex] {
				vector-effect: non-scaling-stroke;
				fill: none;
				stroke: hsl(calc(var(--index) / var(--count) * 360), 50%, 50%);
				cursor: help;
			}
			g:is(:hover, :focus-within) &gt; path[tabindex] {
				stroke: var(--canvas-foreground);
			}
			g &gt; path[tabindex]:is(:hover, :focus-within) {
				outline: 0;
			}
			g &gt; path[tabindex]:first-of-type {
				stroke-width: 2;
			}
			g &gt; path[tabindex]:first-of-type:is(:hover, :focus-within) {
				stroke-width: 4;
			}
			g &gt; path[tabindex]:first-of-type:not(:last-of-type) {
				stroke-dasharray: 4 8;
			}
			g &gt; rect {
				vector-effect: non-scaling-stroke;
				fill: none;
				stroke: none;
				pointer-events: none;
			}
			g &gt; path[tabindex]:first-of-type:is(:hover, :focus-within) + rect {
				fill: var(--highlighted);
			}
			g &gt; path[tabindex]:first-of-type ~ path[tabindex] {
				stroke-width: 8;
			}
			g &gt; path[tabindex]:first-of-type ~ path[tabindex]:is(:hover, :focus-within) {
				stroke-width: 16;
			}
			g &gt; line {
				vector-effect: non-scaling-stroke;
				fill: none;
				stroke: none;
				stroke-width: 2;
				stroke-dasharray: 4 8;
				pointer-events: none;
			}
			g &gt; path[tabindex]:first-of-type:is(:hover, :focus-within) + rect + path[tabindex] + line,
			g &gt; path[tabindex]:first-of-type:is(:hover, :focus-within) + rect + path[tabindex] + line + line,
			g &gt; path[tabindex]:first-of-type:is(:hover, :focus-within) ~ path[tabindex]:last-of-type + line,
			g &gt; path[tabindex]:first-of-type:is(:hover, :focus-within) ~ path[tabindex]:last-of-type + line + line,
			g &gt; path[tabindex]:first-of-type ~ path[tabindex]:is(:hover, :focus-within) + line,
			g &gt; path[tabindex]:first-of-type ~ path[tabindex]:is(:hover, :focus-within) + line + line {
				stroke: var(--faded);
			}
			@media (prefers-color-scheme: dark) {
				:root {
					--canvas-background: #000;
					--canvas-foreground: #ccc;
					--highlighted: #6663;
					--faded: #9993;
				}
			}
			@media (prefers-color-scheme: light) {
				:root {
					--canvas-background: #fff;
					--canvas-foreground: #333;
					--highlighted: #9993;
					--faded: #6663;
				}
			}
		</style>
		<g style="--count: 105;">
		<g style="--index: 0;">
			<path d="M0,127L0,127L0,126L1,126L1,124L5,124L5,123L14,123L14,123L71,123L71,122L104,122L104,121L595,121L595,120L870,120L870,119L965,119L965,119L1029,119L1029,118L1047,118L1047,116L1054,116L1054,115L1077,115L1077,115L1104,115L1104,115L1140,115L1140,114L1143,114L1143,114L1144,114L1144,114L1145,114L1145,114L1147,114L1147,114L1148,114L1148,114L1151,114L1151,114L1173,114L1173,114L1182,114L1182,114L1478,114L1478,114L1479,114L1479,114L1516,114L1516,113L1548,113L1548,112L1574,112L1574,111L1601,111L1601,110L1602,110L1602,110L1643,110L1643,109L1661,109L1661,108L1663,108L1663,107L1667,107L1667,106L1669,106L1669,105L1701,105L1701,104L1702,104L1702,104L1705,104L1705,104L1731,104L1731,103L1778,103L1778,102L1785,102L1785,101L1797,101L1797,100L1849,100L1849,99L1861,99L1861,98L1902,98L1902,97L1908,97L1908,96L1911,96L1911,95L1914,95L1914,95L1918,95L1918,94L1927,94L1927,93L1940,93L1940,92L1969,92L1969,91L1981,91L1981,90L2050,90L2050,89L2074,89L2074,88L2083,88L2083,87L2106,87L2106,87L2119,87L2119,86L2122,86L2122,85L2124,85L2124,84L2165,84L2165,83L2247,83L2247,82L2274,82L2274,81L2276,81L2276,80L2278,80" tabindex="0">
				<title>l_o9xo3rp9-9d8eewld-7896y468.013856dq</title>
			</path>
		</g>
		<g style="--index: 1;">
			<path d="M0,127L1,127L1,126L95,126L95,125L106,125L106,124L865,124L865,123L923,123L923,122L925,122L925,122L959,122L959,122L963,122L963,122L1040,122L1040,121L1047,121L1047,120L1050,120L1050,119L1072,119L1072,118L1076,118L1076,117L1098,117L1098,117L1103,117L1103,117L1149,117L1149,116L1174,116L1174,116L1182,116L1182,116L1260,116L1260,115L1542,115L1542,114L1606,114L1606,113L1607,113L1607,112L1608,112L1608,112L1634,112L1634,110L1636,110L1636,110L1641,110L1641,110L1643,110L1643,109L1648,109L1648,108L1739,108L1739,107L1744,107L1744,106L1798,106L1798,105L1800,105L1800,104L1805,104L1805,103L1913,103L1913,102L1939,102L1939,101L1944,101L1944,100L1976,100L1976,99L2113,99L2113,98L2134,98L2134,97L2185,97L2185,96L2195,96L2195,96L2247,96L2247,95L2278,95" tabindex="0">
				<title>l_o9xo3rp9-9d8eewld-7896y468.81wp50oq</title>
			</path>
		</g>
		<g style="--index: 2;">
			<path d="M0,127L1,127L1,126L5,126L5,125L9,125L9,124L11,124L11,123L18,123L18,122L27,122L27,122L30,122L30,122L73,122L73,120L94,120L94,119L101,119L101,118L583,118L583,117L643,117L643,116L714,116L714,116L843,116L843,115L857,115L857,114L894,114L894,113L919,113L919,112L959,112L959,112L1034,112L1034,111L1050,111L1050,110L1051,110L1051,109L1055,109L1055,109L1057,109L1057,109L1111,109L1111,108L1118,108L1118,107L1119,107L1119,107L1125,107L1125,106L1126,106L1126,105L1130,105L1130,104L1131,104L1131,104L1132,104L1132,104L1134,104L1134,104L1140,104L1140,103L1149,103L1149,102L1166,102L1166,101L1167,101L1167,101L1186,101L1186,100L1194,100L1194,99L1197,99L1197,98L1207,98L1207,97L1209,97L1209,96L1363,96L1363,95L1395,95L1395,94L1466,94L1466,93L1471,93L1471,92L1473,92L1473,92L1481,92L1481,91L1482,91L1482,90L1502,90L1502,89L1518,89L1518,87L1522,87L1522,86L1523,86L1523,86L1524,86L1524,85L1573,85L1573,84L1604,84L1604,83L1632,83L1632,82L1639,82L1639,81L1643,81L1643,80L1644,80L1644,79L1662,79L1662,78L1675,78L1675,77L1687,77L1687,76L1691,76L1691,75L1700,75L1700,75L1702,75L1702,74L1703,74L1703,73L1737,73L1737,72L1756,72L1756,71L1759,71L1759,70L1805,70L1805,69L1828,69L1828,69L1829,69L1829,69L1846,69L1846,68L1894,68L1894,67L1898,67L1898,66L1909,66L1909,65L1938,65L1938,63L1945,63L1945,62L1952,62L1952,61L1987,61L1987,60L1999,60L1999,59L2044,59L2044,58L2050,58L2050,57L2161,57L2161,56L2168,56L2168,55L2198,55L2198,54L2220,54L2220,54L2278,54" tabindex="0">
				<title>l_r9gn1qpd-9d8eewld-0nwoqwkl.xqkjmxnl</title>
			</path>
		</g>
		<g style="--index: 3;">
			<path d="M0,127L1,127L1,126L5,126L5,125L31,125L31,125L73,125L73,124L103,124L103,123L595,123L595,122L840,122L840,121L842,121L842,120L846,120L846,119L847,119L847,119L860,119L860,118L870,118L870,118L951,118L951,117L965,117L965,117L977,117L977,116L1027,116L1027,115L1045,115L1045,114L1047,114L1047,113L1052,113L1052,112L1054,112L1054,111L1071,111L1071,111L1072,111L1072,111L1103,111L1103,110L1112,110L1112,110L1150,110L1150,109L1182,109L1182,109L1274,109L1274,109L1394,109L1394,108L1421,108L1421,108L1452,108L1452,107L1637,107L1637,106L1643,106L1643,105L1663,105L1663,104L1693,104L1693,103L1715,103L1715,102L1717,102L1717,101L1731,101L1731,100L1797,100L1797,99L1828,99L1828,98L1830,98L1830,97L1878,97L1878,97L1914,97L1914,96L1939,96L1939,95L1982,95L1982,95L2059,95L2059,94L2076,94L2076,93L2119,93L2119,92L2173,92L2173,91L2247,91L2247,90L2278,90" tabindex="0">
				<title>l_o9xo3rp9-9d8eewld-7896y468.jq60ze3q</title>
			</path>
		</g>
		<g style="--index: 4;">
			<path d="M0,127L1,127L1,126L5,126L5,125L7,125L7,125L9,125L9,124L10,124L10,123L11,123L11,123L14,123L14,123L16,123L16,123L18,123L18,122L19,122L19,122L28,122L28,122L30,122L30,122L70,122L70,120L83,120L83,119L94,119L94,119L95,119L95,119L101,119L101,118L415,118L415,117L416,117L416,117L582,117L582,116L642,116L642,115L644,115L644,115L645,115L645,115L854,115L854,114L871,114L871,114L872,114L872,113L967,113L967,113L1034,113L1034,112L1047,112L1047,111L1056,111L1056,110L1073,110L1073,109L1097,109L1097,109L1106,109L1106,108L1107,108L1107,108L1108,108L1108,108L1112,108L1112,107L1114,107L1114,107L1115,107L1115,107L1141,107L1141,106L1144,106L1144,106L1149,106L1149,105L1186,105L1186,105L1200,105L1200,104L1203,104L1203,103L1288,103L1288,103L1369,103L1369,103L1400,103L1400,102L1426,102L1426,101L1429,101L1429,100L1430,100L1430,99L1455,99L1455,98L1485,98L1485,97L1486,97L1486,96L1514,96L1514,95L1519,95L1519,94L1538,94L1538,93L1539,93L1539,93L1554,93L1554,92L1574,92L1574,91L1579,91L1579,90L1581,90L1581,90L1583,90L1583,89L1601,89L1601,88L1603,88L1603,87L1615,87L1615,86L1642,86L1642,85L1662,85L1662,84L1667,84L1667,83L1684,83L1684,82L1705,82L1705,81L1707,81L1707,80L1711,80L1711,79L1773,79L1773,78L1779,78L1779,77L1808,77L1808,77L1843,77L1843,76L1866,76L1866,76L1888,76L1888,75L1893,75L1893,74L1896,74L1896,73L1898,73L1898,72L1909,72L1909,69L1938,69L1938,68L1947,68L1947,67L1949,67L1949,66L1951,66L1951,66L1952,66L1952,65L1966,65L1966,63L1972,63L1972,62L1980,62L1980,61L1982,61L1982,61L1984,61L1984,61L1991,61L1991,60L2005,60L2005,60L2010,60L2010,59L2018,59L2018,58L2022,58L2022,56L2035,56L2035,55L2038,55L2038,54L2044,54L2044,53L2050,53L2050,52L2055,52L2055,51L2085,51L2085,50L2098,50L2098,49L2099,49L2099,48L2102,48L2102,47L2108,47L2108,46L2161,46L2161,45L2165,45L2165,44L2216,44L2216,43L2217,43L2217,42L2219,42L2219,41L2220,41L2220,40L2221,40L2221,40L2240,40L2240,39L2262,39L2262,38L2268,38L2268,37L2274,37L2274,36L2278,36" tabindex="0">
				<title>l_r9gn1qpd-9d8eewld-0nwoqwkl.81ppdgg1</title>
			</path>
		</g>
		<g style="--index: 5;">
			<path d="M0,127L1,127L1,126L10,126L10,125L59,125L59,125L73,125L73,124L99,124L99,123L583,123L583,122L844,122L844,122L864,122L864,121L930,121L930,121L1027,121L1027,120L1050,120L1050,119L1373,119L1373,118L1523,118L1523,117L1551,117L1551,116L1566,116L1566,115L1578,115L1578,115L1593,115L1593,115L1612,115L1612,114L1621,114L1621,113L1641,113L1641,112L1662,112L1662,111L1674,111L1674,110L1675,110L1675,110L1678,110L1678,110L1688,110L1688,109L1716,109L1716,108L1794,108L1794,107L1843,107L1843,106L1863,106L1863,106L1893,106L1893,105L1898,105L1898,104L1952,104L1952,103L2010,103L2010,102L2044,102L2044,101L2050,101L2050,100L2085,100L2085,98L2099,98L2099,98L2161,98L2161,97L2167,97L2167,96L2173,96L2173,96L2220,96L2220,96L2262,96L2262,95L2278,95" tabindex="0">
				<title>l_r9gn1qpd-9d8eewld-0nwoqwkl.21g82pnl</title>
			</path>
		</g>
		<g style="--index: 6;">
			<path d="M0,127L5,127L5,126L6,126L6,126L9,126L9,125L10,125L10,124L25,124L25,123L30,123L30,123L60,123L60,123L69,123L69,122L99,122L99,121L187,121L187,121L253,121L253,121L434,121L434,120L435,120L435,120L523,120L523,119L524,119L524,118L583,118L583,117L773,117L773,116L854,116L854,115L872,115L872,113L957,113L957,113L1023,113L1023,113L1027,113L1027,112L1031,112L1031,111L1035,111L1035,110L1047,110L1047,109L1050,109L1050,108L1051,108L1051,107L1052,107L1052,107L1053,107L1053,107L1054,107L1054,106L1056,106L1056,106L1059,106L1059,106L1070,106L1070,105L1091,105L1091,104L1096,104L1096,104L1118,104L1118,103L1127,103L1127,102L1131,102L1131,101L1145,101L1145,101L1146,101L1146,101L1147,101L1147,101L1153,101L1153,101L1160,101L1160,100L1167,100L1167,99L1170,99L1170,98L1182,98L1182,97L1184,97L1184,96L1186,96L1186,96L1230,96L1230,95L1253,95L1253,95L1287,95L1287,95L1295,95L1295,94L1377,94L1377,94L1379,94L1379,93L1438,93L1438,93L1458,93L1458,92L1465,92L1465,91L1478,91L1478,90L1518,90L1518,89L1524,89L1524,87L1527,87L1527,86L1529,86L1529,85L1537,85L1537,84L1550,84L1550,83L1558,83L1558,82L1566,82L1566,82L1574,82L1574,81L1578,81L1578,81L1579,81L1579,79L1582,79L1582,78L1606,78L1606,78L1608,78L1608,77L1630,77L1630,76L1635,76L1635,75L1637,75L1637,74L1640,74L1640,73L1641,73L1641,73L1643,73L1643,72L1650,72L1650,71L1658,71L1658,70L1662,70L1662,69L1663,69L1663,68L1674,68L1674,67L1678,67L1678,66L1681,66L1681,65L1684,65L1684,64L1685,64L1685,63L1687,63L1687,62L1689,62L1689,61L1690,61L1690,60L1699,60L1699,60L1746,60L1746,60L1748,60L1748,59L1752,59L1752,58L1762,58L1762,57L1764,57L1764,57L1768,57L1768,56L1775,56L1775,56L1783,56L1783,55L1790,55L1790,54L1798,54L1798,53L1824,53L1824,52L1828,52L1828,51L1830,51L1830,50L1843,50L1843,49L1845,49L1845,48L1878,48L1878,48L1889,48L1889,47L1893,47L1893,47L1894,47L1894,46L1895,46L1895,45L1896,45L1896,44L1902,44L1902,43L1908,43L1908,43L1910,43L1910,42L1912,42L1912,41L1914,41L1914,40L1918,40L1918,39L1919,39L1919,39L1921,39L1921,39L1922,39L1922,38L1925,38L1925,37L1930,37L1930,36L1932,36L1932,35L1935,35L1935,34L1951,34L1951,33L1952,33L1952,31L1958,31L1958,29L1960,29L1960,29L1962,29L1962,28L1963,28L1963,27L1987,27L1987,25L1989,25L1989,25L2001,25L2001,24L2013,24L2013,23L2015,23L2015,22L2017,22L2017,21L2041,21L2041,20L2044,20L2044,19L2051,19L2051,17L2054,17L2054,17L2059,17L2059,16L2088,16L2088,15L2099,15L2099,14L2106,14L2106,13L2108,13L2108,12L2124,12L2124,11L2125,11L2125,10L2139,10L2139,9L2151,9L2151,8L2154,8L2154,6L2192,6L2192,6L2218,6L2218,5L2219,5L2219,3L2220,3L2220,3L2243,3L2243,2L2262,2L2262,1L2276,1L2276,0L2278,0" tabindex="0">
				<title>l_r9gn1qpd-9d8eewld-0nwoqwkl.jqzpx3gl</title>
			</path>
		</g>
		<g style="--index: 7;">
			<path d="M0,127L7,127L7,125L8,125L8,125L16,125L16,125L25,125L25,125L57,125L57,125L66,125L66,125L73,125L73,124L94,124L94,123L95,123L95,123L97,123L97,123L103,123L103,122L107,122L107,122L175,122L175,122L180,122L180,122L181,122L181,122L356,122L356,121L583,121L583,120L737,120L737,119L758,119L758,118L868,118L868,117L893,117L893,116L962,116L962,116L976,116L976,115L1005,115L1005,115L1033,115L1033,114L1034,114L1034,113L1035,113L1035,112L1036,112L1036,112L1049,112L1049,111L1052,111L1052,110L1054,110L1054,109L1055,109L1055,108L1056,108L1056,107L1069,107L1069,106L1071,106L1071,105L1074,105L1074,104L1075,104L1075,104L1076,104L1076,104L1104,104L1104,104L1106,104L1106,104L1115,104L1115,103L1129,103L1129,102L1130,102L1130,102L1146,102L1146,101L1149,101L1149,100L1150,100L1150,100L1181,100L1181,100L1184,100L1184,99L1188,99L1188,98L1192,98L1192,97L1206,97L1206,96L1212,96L1212,95L1218,95L1218,94L1242,94L1242,93L1256,93L1256,92L1261,92L1261,91L1269,91L1269,90L1287,90L1287,90L1290,90L1290,89L1291,89L1291,89L1296,89L1296,89L1306,89L1306,89L1312,89L1312,89L1368,89L1368,89L1369,89L1369,88L1378,88L1378,87L1389,87L1389,86L1390,86L1390,86L1392,86L1392,84L1413,84L1413,83L1421,83L1421,83L1425,83L1425,82L1428,82L1428,81L1429,81L1429,80L1431,80L1431,80L1432,80L1432,80L1444,80L1444,79L1463,79L1463,78L1467,78L1467,77L1468,77L1468,76L1479,76L1479,75L1482,75L1482,74L1494,74L1494,73L1497,73L1497,72L1502,72L1502,71L1509,71L1509,70L1511,70L1511,69L1512,69L1512,69L1513,69L1513,69L1518,69L1518,68L1520,68L1520,67L1525,67L1525,66L1527,66L1527,65L1528,65L1528,64L1532,64L1532,63L1535,63L1535,62L1550,62L1550,61L1553,61L1553,61L1565,61L1565,60L1568,60L1568,60L1573,60L1573,58L1604,58L1604,57L1605,57L1605,56L1606,56L1606,55L1607,55L1607,55L1608,55L1608,55L1609,55L1609,54L1611,54L1611,53L1639,53L1639,52L1641,52L1641,51L1642,51L1642,51L1643,51L1643,50L1647,50L1647,48L1650,48L1650,47L1651,47L1651,46L1652,46L1652,45L1662,45L1662,43L1680,43L1680,42L1682,42L1682,41L1685,41L1685,40L1687,40L1687,38L1689,38L1689,37L1691,37L1691,37L1692,37L1692,35L1694,35L1694,34L1695,34L1695,34L1696,34L1696,34L1699,34L1699,32L1706,32L1706,32L1707,32L1707,31L1708,31L1708,30L1709,30L1709,30L1712,30L1712,29L1715,29L1715,28L1717,28L1717,28L1718,28L1718,27L1723,27L1723,26L1733,26L1733,25L1735,25L1735,24L1737,24L1737,23L1738,23L1738,22L1740,22L1740,21L1741,21L1741,20L1757,20L1757,20L1763,20L1763,19L2190,19L2190,18L2278,18" tabindex="0">
				<title>l_r9gn1qpd-9d8eewld-0nwoqwkl.p12dx87q</title>
			</path>
		</g>
		<g style="--index: 8;">
			<path d="M0,127L7,127L7,126L17,126L17,126L57,126L57,126L73,126L73,125L186,125L186,124L595,124L595,123L758,123L758,122L888,122L888,121L995,121L995,121L1034,121L1034,120L1047,120L1047,119L1059,119L1059,118L1073,118L1073,117L1106,117L1106,117L1116,117L1116,116L1150,116L1150,115L1183,115L1183,114L1256,114L1256,113L1376,113L1376,112L1391,112L1391,111L1521,111L1521,110L1523,110L1523,109L1583,109L1583,108L1637,108L1637,107L1681,107L1681,106L1716,106L1716,105L1771,105L1771,104L2175,104L2175,103L2278,103" tabindex="0">
				<title>l_o9xo3rp9-9d8eewld-7896y468.810zwdwq</title>
			</path>
		</g>
		<g style="--index: 9;">
			<path d="M0,127L7,127L7,126L9,126L9,125L73,125L73,124L106,124L106,123L741,123L741,122L867,122L867,121L869,121L869,121L1013,121L1013,121L1040,121L1040,120L1054,120L1054,118L1087,118L1087,117L1089,117L1089,117L1145,117L1145,116L1148,116L1148,115L1155,115L1155,115L1173,115L1173,115L1174,115L1174,115L1480,115L1480,115L1483,115L1483,115L1485,115L1485,114L1539,114L1539,113L1540,113L1540,113L1543,113L1543,113L1600,113L1600,113L1607,113L1607,112L1625,112L1625,111L1643,111L1643,110L1644,110L1644,109L1665,109L1665,108L1671,108L1671,107L1701,107L1701,106L1706,106L1706,105L1774,105L1774,104L1780,104L1780,103L1887,103L1887,102L1939,102L1939,101L2014,101L2014,100L2054,100L2054,100L2208,100L2208,99L2247,99L2247,98L2278,98" tabindex="0">
				<title>l_o9xo3rp9-9d8eewld-7896y468.rqvpey7q</title>
			</path>
		</g>
		<g style="--index: 10;">
			<path d="M0,127L9,127L9,126L11,126L11,126L23,126L23,126L25,126L25,125L26,125L26,125L69,125L69,124L99,124L99,123L105,123L105,123L583,123L583,122L868,122L868,121L965,121L965,120L974,120L974,120L996,120L996,120L1050,120L1050,119L1059,119L1059,119L1090,119L1090,118L1099,118L1099,117L1100,117L1100,117L1125,117L1125,116L1131,116L1131,116L1132,116L1132,116L1133,116L1133,116L1148,116L1148,116L1149,116L1149,116L1199,116L1199,115L1476,115L1476,115L1639,115L1639,114L1643,114L1643,113L1662,113L1662,112L1674,112L1674,111L1688,111L1688,110L1692,110L1692,109L1699,109L1699,109L1703,109L1703,108L1706,108L1706,107L1768,107L1768,106L1795,106L1795,105L1807,105L1807,104L1843,104L1843,103L1860,103L1860,102L1884,102L1884,101L1896,101L1896,99L1910,99L1910,98L1964,98L1964,97L1993,97L1993,96L2006,96L2006,95L2011,95L2011,94L2013,94L2013,94L2154,94L2154,93L2161,93L2161,92L2164,92L2164,91L2186,91L2186,90L2200,90L2200,90L2225,90L2225,89L2228,89L2228,88L2238,88L2238,88L2278,88" tabindex="0">
				<title>l_r9gn1qpd-9d8eewld-0nwoqwkl.klrpy2jq</title>
			</path>
		</g>
		<g style="--index: 11;">
			<path d="M0,127L9,127L9,126L11,126L11,126L23,126L23,125L24,125L24,125L25,125L25,125L73,125L73,124L99,124L99,123L105,123L105,123L181,123L181,121L251,121L251,121L372,121L372,120L582,120L582,119L862,119L862,118L965,118L965,117L967,117L967,117L996,117L996,117L1036,117L1036,117L1050,117L1050,116L1058,116L1058,116L1076,116L1076,115L1082,115L1082,114L1090,114L1090,114L1099,114L1099,113L1101,113L1101,113L1102,113L1102,113L1125,113L1125,112L1146,112L1146,112L1148,112L1148,112L1160,112L1160,112L1174,112L1174,112L1178,112L1178,112L1194,112L1194,111L1195,111L1195,111L1200,111L1200,109L1363,109L1363,108L1429,108L1429,107L1461,107L1461,106L1525,106L1525,105L1553,105L1553,104L1581,104L1581,103L1643,103L1643,102L1653,102L1653,101L1662,101L1662,100L1675,100L1675,99L1678,99L1678,98L1688,98L1688,97L1690,97L1690,96L1705,96L1705,95L1714,95L1714,94L1762,94L1762,93L1763,93L1763,92L1764,92L1764,92L1769,92L1769,91L1774,91L1774,90L1787,90L1787,90L1836,90L1836,89L1843,89L1843,88L1854,88L1854,88L1857,88L1857,87L1858,87L1858,87L1869,87L1869,86L1896,86L1896,84L1910,84L1910,83L1933,83L1933,82L1978,82L1978,81L1985,81L1985,80L1994,80L1994,78L2010,78L2010,77L2043,77L2043,76L2058,76L2058,75L2071,75L2071,75L2120,75L2120,74L2161,74L2161,73L2163,73L2163,72L2196,72L2196,71L2218,71L2218,70L2219,70L2219,70L2222,70L2222,70L2226,70L2226,69L2227,69L2227,69L2278,69" tabindex="0">
				<title>l_r9gn1qpd-9d8eewld-0nwoqwkl.21dz3e4l</title>
			</path>
		</g>
		<g style="--index: 12;">
			<path d="M0,127L9,127L9,126L188,126L188,125L1030,125L1030,124L1094,124L1094,123L1097,123L1097,122L1098,122L1098,121L1111,121L1111,121L1140,121L1140,121L1182,121L1182,121L1183,121L1183,121L1956,121L1956,120L2278,120" tabindex="0">
				<title>l_o9xo3rp9-xd144xzd-38dz6v1n.814y45w1</title>
			</path>
		</g>
		<g style="--index: 13;">
			<path d="M0,127L9,127L9,126L10,126L10,126L19,126L19,125L25,125L25,125L186,125L186,124L1009,124L1009,123L1030,123L1030,122L1054,122L1054,122L1095,122L1095,120L1098,120L1098,120L1215,120L1215,119L1227,119L1227,118L1377,118L1377,117L1397,117L1397,116L1692,116L1692,115L2278,115" tabindex="0">
				<title>l_r9gn1qpd-xd144xzd-38dz6v1n.814y45w1</title>
			</path>
		</g>
		<g style="--index: 14;">
			<path d="M0,127L28,127L28,126L31,126L31,125L101,125L101,124L418,124L418,124L583,124L583,123L758,123L758,122L759,122L759,122L766,122L766,122L769,122L769,122L777,122L777,122L823,122L823,122L873,122L873,121L896,121L896,121L901,121L901,120L966,120L966,119L1050,119L1050,118L1078,118L1078,117L1079,117L1079,117L1099,117L1099,116L1101,116L1101,116L1102,116L1102,116L1118,116L1118,115L1140,115L1140,114L1146,114L1146,114L1817,114L1817,113L1919,113L1919,112L2007,112L2007,111L2161,111L2161,110L2175,110L2175,110L2184,110L2184,110L2278,110" tabindex="0">
				<title>l_r9gn1qpd-9d8eewld-0nwoqwkl.gq7jrxvq</title>
			</path>
		</g>
		<g style="--index: 15;">
			<path d="M0,127L32,127L32,126L187,126L187,125L1059,125L1059,124L1079,124L1079,123L1090,123L1090,123L1091,123L1091,123L1112,123L1112,123L1125,123L1125,122L1520,122L1520,121L1980,121L1980,121L2163,121L2163,120L2222,120L2222,120L2235,120L2235,120L2278,120" tabindex="0">
				<title>l_r9gn1qpd-xd144xzd-38dz6v1n.z19md2jl</title>
			</path>
		</g>
		<g style="--index: 16;">
			<path d="M0,127L57,127L57,126L73,126L73,125L104,125L104,124L418,124L418,124L842,124L842,123L868,123L868,122L965,122L965,122L968,122L968,122L970,122L970,122L1030,122L1030,121L1047,121L1047,120L1052,120L1052,119L1077,119L1077,118L1104,118L1104,117L1106,117L1106,117L1108,117L1108,117L1111,117L1111,117L1138,117L1138,117L1158,117L1158,116L1173,116L1173,116L1174,116L1174,116L1182,116L1182,116L1338,116L1338,115L1347,115L1347,115L1576,115L1576,115L1641,115L1641,115L1643,115L1643,114L1702,114L1702,113L1729,113L1729,112L1735,112L1735,112L1791,112L1791,112L1798,112L1798,111L1800,111L1800,111L1826,111L1826,111L1893,111L1893,111L1900,111L1900,111L1909,111L1909,110L1950,110L1950,110L1965,110L1965,109L1983,109L1983,108L2050,108L2050,107L2062,107L2062,107L2089,107L2089,106L2247,106L2247,105L2278,105" tabindex="0">
				<title>l_o9xo3rp9-9d8eewld-7896y468.9qj0x8el</title>
			</path>
		</g>
		<g style="--index: 17;">
			<path d="M0,127L60,127L60,126L71,126L71,125L93,125L93,125L95,125L95,125L106,125L106,124L846,124L846,124L864,124L864,123L865,123L865,122L911,122L911,121L1025,121L1025,121L1027,121L1027,120L1045,120L1045,119L1047,119L1047,118L1054,118L1054,117L1069,117L1069,117L1073,117L1073,116L1074,116L1074,116L1078,116L1078,116L1148,116L1148,115L1155,115L1155,115L1514,115L1514,115L1619,115L1619,114L1643,114L1643,113L1685,113L1685,112L1791,112L1791,111L1794,111L1794,111L1798,111L1798,110L1800,110L1800,110L1857,110L1857,109L1907,109L1907,109L1915,109L1915,108L1939,108L1939,107L2050,107L2050,106L2097,106L2097,105L2119,105L2119,104L2247,104L2247,103L2278,103" tabindex="0">
				<title>l_o9xo3rp9-9d8eewld-7896y468.5lermx5q</title>
			</path>
		</g>
		<g style="--index: 18;">
			<path d="M0,127L91,127L91,126L100,126L100,125L862,125L862,124L864,124L864,123L1050,123L1050,121L1051,121L1051,121L1064,121L1064,121L1080,121L1080,120L1145,120L1145,119L1146,119L1146,119L1186,119L1186,119L1247,119L1247,118L1605,118L1605,117L1766,117L1766,116L2278,116" tabindex="0">
				<title>l_495zlx39-9d8eewld-2lgr793n.gq7jzvvq</title>
			</path>
		</g>
		<g style="--index: 19;">
			<path d="M0,127L91,127L91,126L183,126L183,125L864,125L864,124L949,124L949,124L1019,124L1019,124L1047,124L1047,123L1050,123L1050,122L1070,122L1070,121L1074,121L1074,120L1078,120L1078,120L1079,120L1079,119L1089,119L1089,119L1104,119L1104,119L1107,119L1107,119L1112,119L1112,119L1516,119L1516,119L1527,119L1527,118L1598,118L1598,117L1599,117L1599,117L1600,117L1600,117L1607,117L1607,116L1608,116L1608,116L1629,116L1629,116L1631,116L1631,116L1672,116L1672,115L1797,115L1797,114L1798,114L1798,113L1801,113L1801,112L1805,112L1805,111L1892,111L1892,110L1899,110L1899,109L2045,109L2045,108L2162,108L2162,107L2278,107" tabindex="0">
				<title>l_495zlx39-9d8eewld-2lgr793n.z19m8p0l</title>
			</path>
		</g>
		<g style="--index: 20;">
			<path d="M0,127L91,127L91,126L93,126L93,125L94,125L94,125L95,125L95,125L181,125L181,124L182,124L182,123L863,123L863,122L1047,122L1047,121L1055,121L1055,120L1070,120L1070,119L1087,119L1087,119L1107,119L1107,119L1145,119L1145,118L1763,118L1763,116L2278,116" tabindex="0">
				<title>l_495zlx39-9d8eewld-2lgr793n.81ppd5g1</title>
			</path>
		</g>
		<g style="--index: 21;">
			<path d="M0,127L92,127L92,126L178,126L178,125L183,125L183,124L853,124L853,123L911,123L911,122L965,122L965,121L974,121L974,121L1023,121L1023,120L1048,120L1048,119L1050,119L1050,118L1054,118L1054,117L1055,117L1055,116L1056,116L1056,116L1057,116L1057,115L1058,115L1058,115L1063,115L1063,115L1065,115L1065,115L1070,115L1070,115L1071,115L1071,115L1080,115L1080,115L1083,115L1083,115L1137,115L1137,114L1151,114L1151,114L1199,114L1199,113L1286,113L1286,113L1287,113L1287,113L1412,113L1412,113L1500,113L1500,112L1512,112L1512,112L1515,112L1515,112L1528,112L1528,111L1538,111L1538,110L1541,110L1541,109L1566,109L1566,108L1592,108L1592,108L1594,108L1594,108L1597,108L1597,108L1599,108L1599,108L1600,108L1600,108L1602,108L1602,108L1612,108L1612,107L1628,107L1628,107L1643,107L1643,107L1647,107L1647,106L1785,106L1785,105L1796,105L1796,105L1798,105L1798,104L1847,104L1847,104L1859,104L1859,103L1910,103L1910,102L2051,102L2051,101L2118,101L2118,100L2120,100L2120,100L2278,100" tabindex="0">
				<title>l_495zlx39-9d8eewld-2lgr793n.21g8ownl</title>
			</path>
		</g>
		<g style="--index: 22;">
			<path d="M0,127L93,127L93,126L100,126L100,125L252,125L252,125L853,125L853,124L961,124L961,123L1015,123L1015,123L1048,123L1048,122L1076,122L1076,121L1082,121L1082,121L1091,121L1091,121L1092,121L1092,121L1099,121L1099,120L1199,120L1199,119L1797,119L1797,118L1798,118L1798,117L1877,117L1877,116L1948,116L1948,114L2077,114L2077,114L2215,114L2215,113L2278,113" tabindex="0">
				<title>l_495zlx39-9d8eewld-2lgr793n.xqkjmnnl</title>
			</path>
		</g>
		<g style="--index: 23;">
			<path d="M0,127L93,127L93,126L101,126L101,125L181,125L181,124L182,124L182,124L857,124L857,123L865,123L865,122L963,122L963,122L1048,122L1048,120L1051,120L1051,119L1052,119L1052,118L1054,118L1054,117L1059,117L1059,117L1073,117L1073,116L1078,116L1078,116L1079,116L1079,116L1154,116L1154,116L1256,116L1256,115L1527,115L1527,114L1619,114L1619,113L1620,113L1620,113L1630,113L1630,113L1702,113L1702,112L1797,112L1797,111L1798,111L1798,110L1842,110L1842,109L1893,109L1893,109L1902,109L1902,109L1913,109L1913,108L2214,108L2214,107L2278,107" tabindex="0">
				<title>l_495zlx39-9d8eewld-2lgr793n.814y7w01</title>
			</path>
		</g>
		<g style="--index: 24;">
			<path d="M0,127L94,127L94,126L183,126L183,125L263,125L263,125L869,125L869,124L1048,124L1048,123L1099,123L1099,122L1114,122L1114,122L1115,122L1115,121L1141,121L1141,121L1312,121L1312,120L1395,120L1395,119L1548,119L1548,118L1621,118L1621,117L1622,117L1622,116L1623,116L1623,116L1646,116L1646,116L1664,116L1664,116L2175,116L2175,115L2278,115" tabindex="0">
				<title>l_495zlx39-9d8eewld-2lgr793n.4lxpe62q</title>
			</path>
		</g>
		<g style="--index: 25;">
			<path d="M0,127L94,127L94,126L183,126L183,125L255,125L255,125L260,125L260,125L389,125L389,125L875,125L875,124L1028,124L1028,123L1047,123L1047,122L1048,122L1048,122L1085,122L1085,122L1086,122L1086,122L1087,122L1087,122L1099,122L1099,121L1155,121L1155,121L1594,121L1594,120L1818,120L1818,119L1987,119L1987,119L2278,119" tabindex="0">
				<title>l_495zlx39-9d8eewld-2lgr793n.p12dx07q</title>
			</path>
		</g>
		<g style="--index: 26;">
			<path d="M0,127L186,127L186,126L253,126L253,126L875,126L875,125L963,125L963,124L1028,124L1028,123L1054,123L1054,122L1083,122L1083,121L1091,121L1091,120L1095,120L1095,120L1097,120L1097,120L1105,120L1105,120L1112,120L1112,120L1156,120L1156,119L1640,119L1640,118L1643,118L1643,117L2009,117L2009,117L2178,117L2178,116L2246,116L2246,115L2278,115" tabindex="0">
				<title>l_o9xo3rp9-9d8eewld-7896y468.5lmkgmjq</title>
			</path>
		</g>
		<g style="--index: 27;">
			<path d="M0,127L235,127L235,125L238,125L238,125L248,125L248,124L250,124L250,124L1099,124L1099,123L1116,123L1116,122L1215,122L1215,121L1230,121L1230,120L1252,120L1252,119L1285,119L1285,119L1305,119L1305,118L1355,118L1355,117L1647,117L1647,117L1684,117L1684,116L1691,116L1691,116L1703,116L1703,116L1958,116L1958,115L1960,115L1960,115L1962,115L1962,114L1963,114L1963,114L2002,114L2002,113L2054,113L2054,112L2113,112L2113,111L2278,111" tabindex="0">
				<title>l_ldykv1zw-rkl3znrk-wl3059ol.4qypgj4q</title>
			</path>
		</g>
		<g style="--index: 28;">
			<path d="M0,127L265,127L265,126L374,126L374,125L464,125L464,124L527,124L527,123L556,123L556,123L558,123L558,123L1054,123L1054,123L1314,123L1314,122L1316,122L1316,121L2278,121" tabindex="0">
				<title>xd17x94d-9l71pv4l.81wrgm5l</title>
			</path>
		</g>
		<g style="--index: 29;">
			<path d="M0,127L416,127L416,126L417,126L417,126L895,126L895,125L1054,125L1054,124L1090,124L1090,123L1106,123L1106,122L1116,122L1116,121L1190,121L1190,120L1931,120L1931,119L1980,119L1980,119L2072,119L2072,118L2117,118L2117,117L2163,117L2163,116L2224,116L2224,116L2261,116L2261,116L2271,116L2271,115L2278,115" tabindex="0">
				<title>l_r9gn1qpd-xd144xwd</title>
			</path>
		</g>
		<g style="--index: 30;">
			<path d="M0,127L418,127L418,126L995,126L995,125L1054,125L1054,124L1094,124L1094,123L1095,123L1095,122L1116,122L1116,121L2278,121" tabindex="0">
				<title>l_o9xo3rp9-9kv66g32-onv7r45n.9qj08g7l</title>
			</path>
		</g>
		<g style="--index: 31;">
			<path d="M0,127L574,127L574,126L871,126L871,125L959,125L959,125L1048,125L1048,124L1094,124L1094,123L1110,123L1110,123L1113,123L1113,123L1141,123L1141,122L1182,122L1182,122L1515,122L1515,121L1930,121L1930,120L2278,120" tabindex="0">
				<title>l_rdqo542w-9d8eewld-wl30kw9l.klrp6ejq</title>
			</path>
		</g>
		<g style="--index: 32;">
			<path d="M0,127L574,127L574,126L854,126L854,125L925,125L925,124L931,124L931,124L971,124L971,124L987,124L987,124L1045,124L1045,123L1046,123L1046,123L1047,123L1047,123L1066,123L1066,123L1146,123L1146,122L1155,122L1155,122L1608,122L1608,121L1609,121L1609,121L1615,121L1615,120L1629,120L1629,120L1636,120L1636,120L1640,120L1640,120L1642,120L1642,119L1940,119L1940,118L1953,118L1953,118L2113,118L2113,117L2278,117" tabindex="0">
				<title>l_rdqo542w-9d8eewld-wl30kw9l.jqzpyr4l</title>
			</path>
		</g>
		<g style="--index: 33;">
			<path d="M0,127L574,127L574,126L850,126L850,125L871,125L871,125L1048,125L1048,124L1052,124L1052,123L1061,123L1061,122L1066,122L1066,122L1088,122L1088,122L1155,122L1155,121L1515,121L1515,120L1627,120L1627,119L1636,119L1636,119L1637,119L1637,119L1925,119L1925,118L2278,118" tabindex="0">
				<title>l_rdqo542w-9d8eewld-wl30kw9l.21dzoj3l</title>
			</path>
		</g>
		<g style="--index: 34;">
			<path d="M0,127L578,127L578,126L875,126L875,125L1028,125L1028,124L1047,124L1047,123L1061,123L1061,123L1071,123L1071,123L1093,123L1093,122L1146,122L1146,122L1164,122L1164,121L1166,121L1166,121L1608,121L1608,121L2207,121L2207,120L2278,120" tabindex="0">
				<title>l_rdqo542w-9d8eewld-wl30kw9l.21g8owxl</title>
			</path>
		</g>
		<g style="--index: 35;">
			<path d="M0,127L742,127L742,126L839,126L839,126L843,126L843,125L877,125L877,125L888,125L888,125L890,125L890,124L893,124L893,124L894,124L894,124L897,124L897,124L906,124L906,124L963,124L963,123L964,123L964,123L966,123L966,123L997,123L997,123L1024,123L1024,123L1025,123L1025,122L1028,122L1028,122L1052,122L1052,122L1058,122L1058,122L1060,122L1060,122L1066,122L1066,121L1070,121L1070,120L1084,120L1084,119L1087,119L1087,118L1091,118L1091,117L1096,117L1096,117L1101,117L1101,116L1103,116L1103,116L1109,116L1109,116L1113,116L1113,115L1141,115L1141,115L1142,115L1142,115L1143,115L1143,115L1147,115L1147,114L1157,114L1157,114L1176,114L1176,114L1180,114L1180,114L1183,114L1183,114L1193,114L1193,114L1224,114L1224,113L1258,113L1258,112L1259,112L1259,112L1260,112L1260,111L1270,111L1270,111L1272,111L1272,111L1276,111L1276,111L1277,111L1277,111L1291,111L1291,111L1367,111L1367,110L1448,110L1448,108L1450,108L1450,108L1477,108L1477,107L1480,107L1480,106L1542,106L1542,105L1579,105L1579,104L1611,104L1611,103L1635,103L1635,102L1638,102L1638,102L1647,102L1647,101L1654,101L1654,100L1664,100L1664,99L1673,99L1673,99L1687,99L1687,98L1691,98L1691,98L1693,98L1693,97L1695,97L1695,96L1702,96L1702,96L1716,96L1716,96L1737,96L1737,96L1743,96L1743,96L1756,96L1756,96L1766,96L1766,96L1922,96L1922,96L2278,96" tabindex="0">
				<title>xd17x94d-9l71pv4l.zqo20y2l</title>
			</path>
		</g>
		<g style="--index: 36;">
			<path d="M0,127L846,127L846,125L1104,125L1104,124L1128,124L1128,122L1129,122L1129,120L1140,120L1140,120L1142,120L1142,120L1180,120L1180,119L1207,119L1207,118L1211,118L1211,117L1289,117L1289,116L1290,116L1290,116L1310,116L1310,115L1340,115L1340,114L1399,114L1399,113L1536,113L1536,112L1573,112L1573,111L1589,111L1589,110L1592,110L1592,110L1593,110L1593,110L1610,110L1610,110L1639,110L1639,109L1694,109L1694,108L1709,108L1709,108L1759,108L1759,108L1797,108L1797,107L1907,107L1907,106L2023,106L2023,105L2031,105L2031,104L2278,104" tabindex="0">
				<title>9kv6l5e2-ql6rezjl.jq6d86v1</title>
			</path>
		</g>
		<g style="--index: 37;">
			<path d="M0,127L855,127L855,126L1033,126L1033,124L1047,124L1047,123L1048,123L1048,122L1052,122L1052,121L1088,121L1088,120L1105,120L1105,120L1145,120L1145,120L1155,120L1155,119L1514,119L1514,119L1632,119L1632,118L1914,118L1914,117L1931,117L1931,117L1962,117L1962,116L2278,116" tabindex="0">
				<title>l_rdqo542w-9d8eewld-wl30kw9l.5q86rxr1</title>
			</path>
		</g>
		<g style="--index: 38;">
			<path d="M0,127L855,127L855,126L1037,126L1037,125L1050,125L1050,124L1082,124L1082,124L1097,124L1097,123L1186,123L1186,122L1255,122L1255,121L1642,121L1642,120L1679,120L1679,119L2176,119L2176,118L2278,118" tabindex="0">
				<title>l_rdqo542w-9d8eewld-wl30kw9l.jqzpyrgl</title>
			</path>
		</g>
		<g style="--index: 39;">
			<path d="M0,127L869,127L869,126L922,126L922,125L966,125L966,125L1048,125L1048,123L1061,123L1061,123L1090,123L1090,123L1091,123L1091,123L1133,123L1133,122L1155,122L1155,122L1477,122L1477,121L1908,121L1908,120L2278,120" tabindex="0">
				<title>l_rdqo542w-9d8eewld-wl30kw9l.klrp6e0q</title>
			</path>
		</g>
		<g style="--index: 40;">
			<path d="M0,127L870,127L870,126L1036,126L1036,125L1080,125L1080,124L2278,124" tabindex="0">
				<title>l_rdqo542w-9kv66g32-onv7r45n.9qj08g7l</title>
			</path>
		</g>
		<g style="--index: 41;">
			<path d="M0,127L871,127L871,126L965,126L965,125L1023,125L1023,124L1036,124L1036,124L1042,124L1042,124L1047,124L1047,123L1048,123L1048,123L1049,123L1049,123L1060,123L1060,123L1077,123L1077,123L1103,123L1103,123L1133,123L1133,122L1608,122L1608,122L1797,122L1797,121L1914,121L1914,120L1931,120L1931,120L1949,120L1949,120L2012,120L2012,120L2113,120L2113,119L2278,119" tabindex="0">
				<title>l_rdqo542w-9d8eewld-wl30kw9l.gq7jzvnq</title>
			</path>
		</g>
		<g style="--index: 42;">
			<path d="M0,127L892,127L892,126L1091,126L1091,125L1116,125L1116,124L1156,124L1156,123L1191,123L1191,122L2278,122" tabindex="0">
				<title>l_o9xo3rp9-xd144xwd</title>
			</path>
		</g>
		<g style="--index: 43;">
			<path d="M0,127L895,127L895,126L901,126L901,125L961,125L961,124L1036,124L1036,123L1054,123L1054,122L1094,122L1094,121L1100,121L1100,120L1116,120L1116,119L1371,119L1371,119L1707,119L1707,118L1727,118L1727,118L1979,118L1979,118L2163,118L2163,117L2261,117L2261,117L2278,117" tabindex="0">
				<title>l_r9gn1qpd-9kv66g32-onv7r45n.9qj08g7l</title>
			</path>
		</g>
		<g style="--index: 44;">
			<path d="M0,127L922,127L922,126L1032,126L1032,125L1099,125L1099,124L1116,124L1116,123L1121,123L1121,122L1274,122L1274,122L1286,122L1286,121L1703,121L1703,120L1959,120L1959,120L2119,120L2119,119L2278,119" tabindex="0">
				<title>l_ldykv1zw-rkl3znrk-wl3059ol.810zkwwq</title>
			</path>
		</g>
		<g style="--index: 45;">
			<path d="M0,127L994,127L994,126L1085,126L1085,125L1096,125L1096,124L1615,124L1615,123L2278,123" tabindex="0">
				<title>l_495zlx39-9kv66g32-onv7r45n.9qj08g7l</title>
			</path>
		</g>
		<g style="--index: 46;">
			<path d="M0,127L998,127L998,126L1121,126L1121,124L1122,124L1122,124L1251,124L1251,124L1262,124L1262,123L1305,123L1305,122L1647,122L1647,122L1691,122L1691,122L2122,122L2122,121L2278,121" tabindex="0">
				<title>l_ldykv1zw-rkl3znrk-wl3059ol.9qj0kxel</title>
			</path>
		</g>
		<g style="--index: 47;">
			<path d="M0,127L1009,127L1009,126L1096,126L1096,125L1097,125L1097,124L1098,124L1098,124L1149,124L1149,124L1173,124L1173,123L1617,123L1617,122L1650,122L1650,121L2278,121" tabindex="0">
				<title>l_495zlx39-xd144xzd-38dz6v1n.814y45w1</title>
			</path>
		</g>
		<g style="--index: 48;">
			<path d="M0,127L1010,127L1010,126L1085,126L1085,125L1086,125L1086,125L1125,125L1125,125L1131,125L1131,125L1686,125L1686,124L1691,124L1691,123L2278,123" tabindex="0">
				<title>l_o9xo3rp9-xd144xzd-38dz6v1n.z19md2jl</title>
			</path>
		</g>
		<g style="--index: 49;">
			<path d="M0,127L1023,127L1023,126L1074,126L1074,125L1084,125L1084,124L1108,124L1108,123L1119,123L1119,122L1130,122L1130,122L1581,122L1581,121L1728,121L1728,120L1735,120L1735,120L2278,120" tabindex="0">
				<title>l_r9gnozkd-rkl3znrk-wledz9en.81wpx5oq</title>
			</path>
		</g>
		<g style="--index: 50;">
			<path d="M0,127L1024,127L1024,126L1047,126L1047,125L1110,125L1110,124L1143,124L1143,124L1307,124L1307,123L1340,123L1340,122L1924,122L1924,121L2161,121L2161,120L2278,120" tabindex="0">
				<title>l_r9gnozkd-rkl3znrk-wledz9en.zqop6rp1</title>
			</path>
		</g>
		<g style="--index: 51;">
			<path d="M0,127L1025,127L1025,126L1047,126L1047,125L1055,125L1055,124L1066,124L1066,123L1090,123L1090,122L1133,122L1133,122L1143,122L1143,122L1341,122L1341,122L1764,122L1764,121L1814,121L1814,121L1925,121L1925,121L2161,121L2161,120L2278,120" tabindex="0">
				<title>l_r9gnozkd-rkl3znrk-wledz9en.0138n5dq</title>
			</path>
		</g>
		<g style="--index: 52;">
			<path d="M0,127L1026,127L1026,125L1034,125L1034,124L1046,124L1046,123L1048,123L1048,123L1056,123L1056,123L1061,123L1061,123L1067,123L1067,122L1077,122L1077,122L1086,122L1086,122L1111,122L1111,122L1112,122L1112,122L1144,122L1144,121L1145,121L1145,121L1805,121L1805,120L1963,120L1963,119L2110,119L2110,118L2145,118L2145,117L2167,117L2167,117L2278,117" tabindex="0">
				<title>l_r9gnozkd-rkl3znrk-wledz9en.rqvp5e7q</title>
			</path>
		</g>
		<g style="--index: 53;">
			<path d="M0,127L1027,127L1027,126L1068,126L1068,125L1108,125L1108,124L1365,124L1365,123L1730,123L1730,122L2013,122L2013,122L2278,122" tabindex="0">
				<title>l_r9gnozkd-rkl3znrk-wledz9en.5ler7m5q</title>
			</path>
		</g>
		<g style="--index: 54;">
			<path d="M0,127L1028,127L1028,126L1034,126L1034,125L1058,125L1058,124L1090,124L1090,124L1146,124L1146,123L1147,123L1147,123L1168,123L1168,123L2278,123" tabindex="0">
				<title>l_r9gnozkd-rkl3znrk-wledz9en.0q5njgmq</title>
			</path>
		</g>
		<g style="--index: 55;">
			<path d="M0,127L1029,127L1029,126L1034,126L1034,125L1040,125L1040,125L1070,125L1070,124L1312,124L1312,124L1576,124L1576,123L1587,123L1587,123L1588,123L1588,123L1719,123L1719,123L1829,123L1829,123L1831,123L1831,123L2278,123" tabindex="0">
				<title>l_r9gnozkd-rkl3znrk-wledz9en.4lxp7e2q</title>
			</path>
		</g>
		<g style="--index: 56;">
			<path d="M0,127L1030,127L1030,126L1097,126L1097,125L1098,125L1098,125L1100,125L1100,124L1615,124L1615,123L2278,123" tabindex="0">
				<title>l_rdqo542w-xd144xzd-38dz6v1n.814y45w1</title>
			</path>
		</g>
		<g style="--index: 57;">
			<path d="M0,127L1030,127L1030,126L1047,126L1047,125L1060,125L1060,124L1090,124L1090,123L1104,123L1104,123L1148,123L1148,122L1347,122L1347,122L1632,122L1632,122L1709,122L1709,121L1797,121L1797,120L1896,120L1896,119L1923,119L1923,118L2278,118" tabindex="0">
				<title>l_r9gnozkd-rkl3znrk-wledz9en.814y0701</title>
			</path>
		</g>
		<g style="--index: 58;">
			<path d="M0,127L1031,127L1031,126L1128,126L1128,125L1523,125L1523,124L1624,124L1624,123L2278,123" tabindex="0">
				<title>l_495zlx39-xd144xzd-38dz6v1n.z19md2jl</title>
			</path>
		</g>
		<g style="--index: 59;">
			<path d="M0,127L1031,127L1031,126L1034,126L1034,125L1041,125L1041,124L1047,124L1047,123L1061,123L1061,123L1092,123L1092,122L1117,122L1117,122L1150,122L1150,121L1183,121L1183,121L1186,121L1186,121L1238,121L1238,121L2101,121L2101,120L2278,120" tabindex="0">
				<title>l_r9gnozkd-rkl3znrk-wledz9en.jq606z3q</title>
			</path>
		</g>
		<g style="--index: 60;">
			<path d="M0,127L1032,127L1032,126L1035,126L1035,125L1122,125L1122,124L1149,124L1149,123L1259,123L1259,122L1608,122L1608,122L1611,122L1611,121L1755,121L1755,120L1756,120L1756,120L1757,120L1757,120L2163,120L2163,119L2278,119" tabindex="0">
				<title>l_r9gnozkd-rkl3znrk-wledz9en.z19mo80l</title>
			</path>
		</g>
		<g style="--index: 61;">
			<path d="M0,127L1032,127L1032,126L1099,126L1099,125L1121,125L1121,123L1251,123L1251,122L1270,122L1270,122L1286,122L1286,121L1691,121L1691,121L1964,121L1964,120L2054,120L2054,119L2113,119L2113,118L2278,118" tabindex="0">
				<title>l_ldykv1zw-rkl3znrk-wl3059ol.mlnwjz0l</title>
			</path>
		</g>
		<g style="--index: 62;">
			<path d="M0,127L1038,127L1038,126L1086,126L1086,125L1194,125L1194,125L1273,125L1273,125L2278,125" tabindex="0">
				<title>7dg65oxk-r8r1zm0n.gq7dw7vq</title>
			</path>
		</g>
		<g style="--index: 63;">
			<path d="M0,127L1041,127L1041,126L1085,126L1085,125L1270,125L1270,124L1278,124L1278,124L2278,124" tabindex="0">
				<title>xd1v018d-68k7x44l.zqo74r41</title>
			</path>
		</g>
		<g style="--index: 64;">
			<path d="M0,127L1048,127L1048,126L1197,126L1197,125L2137,125L2137,124L2278,124" tabindex="0">
				<title>l_rdqo542w-xd144xwd</title>
			</path>
		</g>
		<g style="--index: 65;">
			<path d="M0,127L1048,127L1048,126L1121,126L1121,125L1693,125L1693,124L2278,124" tabindex="0">
				<title>l_rdqo542w-xd144xzd-38dz6v1n.z19md2jl</title>
			</path>
		</g>
		<g style="--index: 66;">
			<path d="M0,127L1049,127L1049,126L1194,126L1194,125L2278,125" tabindex="0">
				<title>l_495zlx39-xd144xwd</title>
			</path>
		</g>
		<g style="--index: 67;">
			<path d="M0,127L1055,127L1055,126L1434,126L1434,125L2278,125" tabindex="0">
				<title>7dg65oxk-r8r1zm0n.xqk0drn1</title>
			</path>
		</g>
		<g style="--index: 68;">
			<path d="M0,127L1110,127L1110,126L1115,126L1115,125L1118,125L1118,122L1119,122L1119,122L1173,122L1173,122L1186,122L1186,122L1591,122L1591,121L2278,121" tabindex="0">
				<title>l_r9gnozkd-rkl3znrk-wledz9en.5lmk0gjq</title>
			</path>
		</g>
		<g style="--index: 69;">
			<path d="M0,127L1123,127L1123,126L1131,126L1131,125L1144,125L1144,124L1893,124L1893,123L1980,123L1980,123L1987,123L1987,123L2161,123L2161,122L2225,122L2225,122L2257,122L2257,122L2261,122L2261,122L2278,122" tabindex="0">
				<title>l_r9gn1qpd-9kv66g32-onv7r45n.810zdxoq</title>
			</path>
		</g>
		<g style="--index: 70;">
			<path d="M0,127L1123,127L1123,126L1963,126L1963,125L2278,125" tabindex="0">
				<title>l_o9xo3rp9-9kv66g32-onv7r45n.810zdxoq</title>
			</path>
		</g>
		<g style="--index: 71;">
			<path d="M0,127L1123,127L1123,126L1595,126L1595,125L2278,125" tabindex="0">
				<title>l_495zlx39-9kv66g32-onv7r45n.810zdxoq</title>
			</path>
		</g>
		<g style="--index: 72;">
			<path d="M0,127L1123,127L1123,126L2278,126" tabindex="0">
				<title>l_rdqo542w-9kv66g32-onv7r45n.810zdxoq</title>
			</path>
		</g>
		<g style="--index: 73;">
			<path d="M0,127L1177,127L1177,125L1178,125L1178,122L1208,122L1208,121L1310,121L1310,120L1763,120L1763,118L1896,118L1896,117L2051,117L2051,116L2278,116" tabindex="0">
				<title>rkl9qwrk-6njkg4el.z19p2o8l</title>
			</path>
		</g>
		<g style="--index: 74;">
			<path d="M0,127L1211,127L1211,126L1216,126L1216,125L1300,125L1300,124L1384,124L1384,123L1435,123L1435,122L1632,122L1632,121L2091,121L2091,120L2278,120" tabindex="0">
				<title>l_r9gn1qpd-xd144xzd-38dz6v1n.5leogx5q</title>
			</path>
		</g>
		<g style="--index: 75;">
			<path d="M0,127L1213,127L1213,126L2163,126L2163,125L2278,125" tabindex="0">
				<title>l_o9xo3rp9-xd144xzd-38dz6v1n.5leogx5q</title>
			</path>
		</g>
		<g style="--index: 76;">
			<path d="M0,127L1223,127L1223,125L1623,125L1623,124L2122,124L2122,123L2278,123" tabindex="0">
				<title>l_495zlx39-xd144xzd-38dz6v1n.5leogx5q</title>
			</path>
		</g>
		<g style="--index: 77;">
			<path d="M0,127L1233,127L1233,126L2149,126L2149,125L2278,125" tabindex="0">
				<title>l_rdqo542w-xd144xzd-38dz6v1n.5leogx5q</title>
			</path>
		</g>
		<g style="--index: 78;">
			<path d="M0,127L1436,127L1436,126L1729,126L1729,125L2278,125" tabindex="0">
				<title>9kv6l5e2-ql6rezjl.9qj3pk7l</title>
			</path>
		</g>
		<g style="--index: 79;">
			<path d="M0,127L1528,127L1528,126L1538,126L1538,125L1703,125L1703,124L1799,124L1799,123L1801,123L1801,123L1842,123L1842,122L1852,122L1852,121L1870,121L1870,120L1878,120L1878,118L2055,118L2055,117L2078,117L2078,116L2086,116L2086,116L2124,116L2124,115L2188,115L2188,114L2213,114L2213,113L2214,113L2214,113L2229,113L2229,113L2230,113L2230,113L2231,113L2231,113L2232,113L2232,113L2278,113" tabindex="0">
				<title>l_495zlx39-9d8eewld-2lgr793n.jqz35pg1</title>
			</path>
		</g>
		<g style="--index: 80;">
			<path d="M0,127L1597,127L1597,126L1672,126L1672,126L1697,126L1697,125L2278,125" tabindex="0">
				<title>mke75px2-yn2mz5d8.4lx6574l</title>
			</path>
		</g>
		<g style="--index: 81;">
			<path d="M0,127L1769,127L1769,126L1770,126L1770,125L1771,125L1771,124L1784,124L1784,123L1789,123L1789,122L1790,122L1790,121L1791,121L1791,121L1793,121L1793,121L1794,121L1794,120L1796,120L1796,119L1797,119L1797,118L1798,118L1798,117L1801,117L1801,116L1806,116L1806,115L1807,115L1807,115L1837,115L1837,114L1839,114L1839,113L1840,113L1840,113L1841,113L1841,112L1842,112L1842,111L1843,111L1843,111L1847,111L1847,110L1879,110L1879,110L1884,110L1884,110L1890,110L1890,109L1891,109L1891,108L1894,108L1894,107L1900,107L1900,106L1901,106L1901,106L1904,106L1904,105L1908,105L1908,104L1909,104L1909,104L1918,104L1918,103L1920,103L1920,102L1927,102L1927,101L1930,101L1930,101L1931,101L1931,100L1932,100L1932,100L1933,100L1933,100L1934,100L1934,100L1938,100L1938,99L1944,99L1944,98L1950,98L1950,98L1953,98L1953,98L1967,98L1967,97L1973,97L1973,96L1977,96L1977,95L1980,95L1980,95L1985,95L1985,94L1987,94L1987,93L1989,93L1989,93L1991,93L1991,92L1994,92L1994,91L2000,91L2000,90L2005,90L2005,88L2018,88L2018,87L2019,87L2019,87L2024,87L2024,86L2025,86L2025,85L2030,85L2030,84L2031,84L2031,84L2032,84L2032,84L2036,84L2036,83L2038,83L2038,82L2039,82L2039,82L2042,82L2042,82L2045,82L2045,81L2052,81L2052,80L2088,80L2088,79L2092,79L2092,77L2095,77L2095,77L2097,77L2097,76L2099,76L2099,75L2102,75L2102,75L2106,75L2106,74L2109,74L2109,74L2112,74L2112,73L2118,73L2118,72L2125,72L2125,72L2126,72L2126,72L2134,72L2134,71L2139,71L2139,70L2147,70L2147,69L2154,69L2154,68L2160,68L2160,67L2164,67L2164,67L2203,67L2203,66L2248,66L2248,65L2256,65L2256,65L2265,65L2265,64L2266,64L2266,62L2267,62L2267,62L2270,62L2270,61L2278,61" tabindex="0">
				<title>xd17x94d-9l71pv4l.21gpn081</title>
			</path>
		</g>
		<g style="--index: 82;">
			<path d="M0,127L1770,127L1770,126L1787,126L1787,125L1791,125L1791,124L1795,124L1795,123L1799,123L1799,122L1805,122L1805,121L1818,121L1818,120L1823,120L1823,118L1828,118L1828,117L1836,117L1836,116L1837,116L1837,115L1842,115L1842,114L1855,114L1855,113L1860,113L1860,112L1861,112L1861,112L1862,112L1862,110L1866,110L1866,108L1867,108L1867,107L1876,107L1876,106L1884,106L1884,105L1885,105L1885,105L1887,105L1887,105L1889,105L1889,104L1894,104L1894,103L1898,103L1898,102L1909,102L1909,101L1910,101L1910,100L1914,100L1914,99L1918,99L1918,98L1920,98L1920,97L1923,97L1923,96L1924,96L1924,95L1935,95L1935,95L1943,95L1943,95L1944,95L1944,94L1945,94L1945,93L1952,93L1952,92L1954,92L1954,91L1959,91L1959,90L1966,90L1966,89L1967,89L1967,88L1969,88L1969,87L1979,87L1979,86L1980,86L1980,85L1987,85L1987,85L1993,85L1993,84L2000,84L2000,83L2003,83L2003,82L2023,82L2023,81L2024,81L2024,81L2026,81L2026,81L2034,81L2034,80L2075,80L2075,79L2086,79L2086,78L2087,78L2087,78L2093,78L2093,77L2108,77L2108,76L2114,76L2114,75L2120,75L2120,73L2126,73L2126,72L2134,72L2134,71L2161,71L2161,70L2177,70L2177,70L2190,70L2190,69L2215,69L2215,68L2254,68L2254,67L2257,67L2257,66L2258,66L2258,65L2278,65L2278,64L2278,64" tabindex="0">
				<title>l_r9gn1qpd-9d8eewld-0nwoqwkl.klr25nj1</title>
			</path>
		</g>
		<g style="--index: 83;">
			<path d="M0,127L1807,127L1807,126L1814,126L1814,125L1869,125L1869,124L1874,124L1874,123L1875,123L1875,122L1876,122L1876,121L1877,121L1877,121L1878,121L1878,120L1898,120L1898,119L1904,119L1904,118L1914,118L1914,117L1915,117L1915,116L1939,116L1939,115L1940,115L1940,114L1960,114L1960,114L1964,114L1964,113L1973,113L1973,112L1974,112L1974,112L1980,112L1980,111L1987,111L1987,110L1988,110L1988,110L2015,110L2015,109L2049,109L2049,108L2094,108L2094,107L2162,107L2162,106L2246,106L2246,105L2259,105L2259,104L2278,104" tabindex="0">
				<title>l_o9xo3rp9-9d8eewld-7896y468.4qywn341</title>
			</path>
		</g>
		<g style="--index: 84;">
			<path d="M0,127L1807,127L1807,126L1851,126L1851,125L1925,125L1925,124L1926,124L1926,123L1957,123L1957,122L2120,122L2120,121L2227,121L2227,121L2230,121L2230,121L2272,121L2272,120L2278,120" tabindex="0">
				<title>l_495zlx39-9d8eewld-2lgr793n.21gp48n1</title>
			</path>
		</g>
		<g style="--index: 85;">
			<path d="M0,127L1808,127L1808,126L1837,126L1837,125L1840,125L1840,125L1888,125L1888,125L1929,125L1929,125L2029,125L2029,124L2167,124L2167,123L2234,123L2234,123L2278,123" tabindex="0">
				<title>7dg65oxk-r8r1zm0n.5q89kv31</title>
			</path>
		</g>
		<g style="--index: 86;">
			<path d="M0,127L1813,127L1813,126L1861,126L1861,125L1869,125L1869,124L1870,124L1870,124L1877,124L1877,123L1891,123L1891,123L1907,123L1907,122L1908,122L1908,122L1980,122L1980,121L2157,121L2157,120L2278,120" tabindex="0">
				<title>l_rdqo542w-9d8eewld-wl30kw9l.810dx3wl</title>
			</path>
		</g>
		<g style="--index: 87;">
			<path d="M0,127L1832,127L1832,126L1838,126L1838,126L1932,126L1932,126L2053,126L2053,125L2058,125L2058,124L2220,124L2220,124L2278,124" tabindex="0">
				<title>xd1v018d-68k7x44l.mlno8vjq</title>
			</path>
		</g>
		<g style="--index: 88;">
			<path d="M0,127L1847,127L1847,126L1866,126L1866,125L1869,125L1869,124L1963,124L1963,123L1974,123L1974,122L1980,122L1980,121L1984,121L1984,120L1987,120L1987,120L1993,120L1993,120L2014,120L2014,119L2084,119L2084,118L2278,118" tabindex="0">
				<title>l_495zlx39-9d8eewld-2lgr793n.mlno5r0q</title>
			</path>
		</g>
		<g style="--index: 89;">
			<path d="M0,127L1859,127L1859,126L2278,126" tabindex="0">
				<title>rkl9qwrk-6njkg4el.81p5ym8l</title>
			</path>
		</g>
		<g style="--index: 90;">
			<path d="M0,127L1896,127L1896,126L1979,126L1979,125L2163,125L2163,124L2195,124L2195,123L2221,123L2221,123L2222,123L2222,123L2269,123L2269,122L2278,122" tabindex="0">
				<title>l_r9gn1qpd-xd144xzd-38dz6v1n.q755eky1</title>
			</path>
		</g>
		<g style="--index: 91;">
			<path d="M0,127L1921,127L1921,126L2014,126L2014,125L2017,125L2017,124L2046,124L2046,124L2278,124" tabindex="0">
				<title>l_o9xo3rp9-xd144xzd-38dz6v1n.q755eky1</title>
			</path>
		</g>
		<g style="--index: 92;">
			<path d="M0,127L1979,127L1979,125L1981,125L1981,124L2007,124L2007,123L2062,123L2062,122L2166,122L2166,122L2168,122L2168,122L2169,122L2169,122L2278,122" tabindex="0">
				<title>l_gdr5onk9-rkl3znrk-rn1g06dn.qj77o50q</title>
			</path>
		</g>
		<g style="--index: 93;">
			<path d="M0,127L2004,127L2004,126L2015,126L2015,125L2016,125L2016,124L2017,124L2017,123L2022,123L2022,122L2024,122L2024,121L2025,121L2025,121L2029,121L2029,120L2030,120L2030,120L2031,120L2031,119L2039,119L2039,118L2041,118L2041,117L2042,117L2042,116L2047,116L2047,115L2049,115L2049,115L2055,115L2055,114L2091,114L2091,113L2096,113L2096,112L2097,112L2097,112L2098,112L2098,111L2152,111L2152,110L2162,110L2162,110L2165,110L2165,110L2177,110L2177,110L2180,110L2180,110L2211,110L2211,110L2214,110L2214,110L2278,110" tabindex="0">
				<title>9kv6l5e2-ql6rezjl.1dk62o3l</title>
			</path>
		</g>
		<g style="--index: 94;">
			<path d="M0,127L2018,127L2018,126L2021,126L2021,125L2025,125L2025,124L2028,124L2028,123L2030,123L2030,123L2031,123L2031,122L2047,122L2047,121L2049,121L2049,121L2050,121L2050,121L2055,121L2055,120L2062,120L2062,120L2115,120L2115,119L2132,119L2132,118L2241,118L2241,117L2278,117" tabindex="0">
				<title>rkl9qwrk-6njkg4el.lr3x560l</title>
			</path>
		</g>
		<g style="--index: 95;">
			<path d="M0,127L2055,127L2055,126L2061,126L2061,125L2062,125L2062,123L2080,123L2080,123L2120,123L2120,122L2278,122" tabindex="0">
				<title>l_xd0mnpjw-rkl3znrk-wley4prn.192xe54q</title>
			</path>
		</g>
		<g style="--index: 96;">
			<path d="M0,127L2068,127L2068,125L2130,125L2130,125L2278,125" tabindex="0">
				<title>l_495zlx39-xd144xzd-38dz6v1n.q755eky1</title>
			</path>
		</g>
		<g style="--index: 97;">
			<path d="M0,127L2077,127L2077,126L2278,126" tabindex="0">
				<title>l_rdqo542w-xd144xzd-38dz6v1n.q755eky1</title>
			</path>
		</g>
		<g style="--index: 98;">
			<path d="M0,127L2101,127L2101,126L2164,126L2164,126L2165,126L2165,126L2168,126L2168,126L2278,126" tabindex="0">
				<title>l_gdr5onk9-rkl3znrk-rn1g06dn.lmooe9y1</title>
			</path>
		</g>
		<g style="--index: 99;">
			<path d="M0,127L2101,127L2101,126L2165,126L2165,126L2168,126L2168,126L2278,126" tabindex="0">
				<title>l_gdr5onk9-rkl3znrk-rn1g06dn.q655wjnl</title>
			</path>
		</g>
		<g style="--index: 100;">
			<path d="M0,127L2133,127L2133,126L2278,126" tabindex="0">
				<title>l_495zlx39-9d8eewld-2lgr793n.qj7zdm3q</title>
			</path>
		</g>
		<g style="--index: 101;">
			<path d="M0,127L2164,127L2164,126L2167,126L2167,125L2189,125L2189,125L2191,125L2191,125L2260,125L2260,124L2278,124" tabindex="0">
				<title>l_ldykv1zw-rkl3znrk-wl3059ol.lx5xe821</title>
			</path>
		</g>
		<g style="--index: 102;">
			<path d="M0,127L2166,127L2166,126L2185,126L2185,125L2186,125L2186,124L2189,124L2189,124L2216,124L2216,123L2278,123" tabindex="0">
				<title>l_ldykv1zw-rkl3znrk-wl3059ol.qvv4er7q</title>
			</path>
		</g>
		<g style="--index: 103;">
			<path d="M0,127L2167,127L2167,126L2189,126L2189,126L2278,126L2278,125L2278,125" tabindex="0">
				<title>l_ldykv1zw-rkl3znrk-wl3059ol.le2km45l</title>
			</path>
		</g>
		<g style="--index: 104;">
			<path d="M0,127L2167,127L2167,126L2189,126L2189,126L2258,126L2258,125L2278,125" tabindex="0">
				<title>l_ldykv1zw-rkl3znrk-wl3059ol.q5vog5ml</title>
			</path>
		</g>
	</g>
</svg>
