<svg xmlns="http://www.w3.org/2000/svg" viewBox="0 0 2278 185" preserveAspectRatio="none" lang="en" style="color-scheme: dark light;">
		<title>Run count by leaderboard</title>
		<style>
			svg {
				background: var(--canvas-background);
				fill: var(--canvas-background);
				stroke: var(--canvas-foreground);
				stroke-linejoin: round;
				stroke-linecap: round;
			}
			g &gt; path[tabindex] {
				vector-effect: non-scaling-stroke;
				fill: none;
				stroke: hsl(calc(var(--index) / var(--count) * 360), 50%, 50%);
				cursor: help;
			}
			g:is(:hover, :focus-within) &gt; path[tabindex] {
				stroke: var(--canvas-foreground);
			}
			g &gt; path[tabindex]:is(:hover, :focus-within) {
				outline: 0;
			}
			g &gt; path[tabindex]:first-of-type {
				stroke-width: 2;
			}
			g &gt; path[tabindex]:first-of-type:is(:hover, :focus-within) {
				stroke-width: 4;
			}
			g &gt; path[tabindex]:first-of-type:not(:last-of-type) {
				stroke-dasharray: 4 8;
			}
			g &gt; rect {
				vector-effect: non-scaling-stroke;
				fill: none;
				stroke: none;
				pointer-events: none;
			}
			g &gt; path[tabindex]:first-of-type:is(:hover, :focus-within) + rect {
				fill: var(--highlighted);
			}
			g &gt; path[tabindex]:first-of-type ~ path[tabindex] {
				stroke-width: 8;
			}
			g &gt; path[tabindex]:first-of-type ~ path[tabindex]:is(:hover, :focus-within) {
				stroke-width: 16;
			}
			g &gt; line {
				vector-effect: non-scaling-stroke;
				fill: none;
				stroke: none;
				stroke-width: 2;
				stroke-dasharray: 4 8;
				pointer-events: none;
			}
			g &gt; path[tabindex]:first-of-type:is(:hover, :focus-within) + rect + path[tabindex] + line,
			g &gt; path[tabindex]:first-of-type:is(:hover, :focus-within) + rect + path[tabindex] + line + line,
			g &gt; path[tabindex]:first-of-type:is(:hover, :focus-within) ~ path[tabindex]:last-of-type + line,
			g &gt; path[tabindex]:first-of-type:is(:hover, :focus-within) ~ path[tabindex]:last-of-type + line + line,
			g &gt; path[tabindex]:first-of-type ~ path[tabindex]:is(:hover, :focus-within) + line,
			g &gt; path[tabindex]:first-of-type ~ path[tabindex]:is(:hover, :focus-within) + line + line {
				stroke: var(--faded);
			}
			@media (prefers-color-scheme: dark) {
				:root {
					--canvas-background: #000;
					--canvas-foreground: #ccc;
					--highlighted: #6663;
					--faded: #9993;
				}
			}
			@media (prefers-color-scheme: light) {
				:root {
					--canvas-background: #fff;
					--canvas-foreground: #333;
					--highlighted: #9993;
					--faded: #6663;
				}
			}
		</style>
		<g style="--count: 105;">
		<g style="--index: 0;">
			<path d="M0,185L0,185L0,183L1,183L1,181L5,181L5,180L14,180L14,179L71,179L71,178L104,178L104,177L595,177L595,176L870,176L870,175L965,175L965,174L1029,174L1029,173L1047,173L1047,171L1054,171L1054,170L1077,170L1077,169L1104,169L1104,168L1140,168L1140,167L1143,167L1143,165L1144,165L1144,163L1145,163L1145,162L1147,162L1147,161L1148,161L1148,160L1151,160L1151,159L1173,159L1173,157L1182,157L1182,156L1478,156L1478,155L1479,155L1479,154L1516,154L1516,153L1548,153L1548,152L1574,152L1574,151L1601,151L1601,150L1602,150L1602,149L1643,149L1643,148L1661,148L1661,147L1663,147L1663,146L1667,146L1667,145L1669,145L1669,144L1701,144L1701,143L1702,143L1702,142L1705,142L1705,141L1731,141L1731,139L1778,139L1778,138L1785,138L1785,137L1797,137L1797,136L1849,136L1849,135L1861,135L1861,134L1902,134L1902,133L1908,133L1908,132L1911,132L1911,131L1914,131L1914,130L1918,130L1918,129L1927,129L1927,128L1940,128L1940,127L1969,127L1969,126L1981,126L1981,125L2050,125L2050,124L2074,124L2074,123L2083,123L2083,122L2106,122L2106,121L2119,121L2119,120L2122,120L2122,119L2124,119L2124,118L2165,118L2165,117L2247,117L2247,116L2274,116L2274,115L2276,115L2276,114L2278,114" tabindex="0">
				<title>l_o9xo3rp9-9d8eewld-7896y468.013856dq</title>
			</path>
		</g>
		<g style="--index: 1;">
			<path d="M0,185L1,185L1,184L95,184L95,183L106,183L106,182L865,182L865,181L923,181L923,179L925,179L925,178L959,178L959,177L963,177L963,176L1040,176L1040,175L1047,175L1047,174L1050,174L1050,173L1072,173L1072,172L1076,172L1076,171L1098,171L1098,170L1103,170L1103,169L1149,169L1149,168L1174,168L1174,167L1182,167L1182,166L1260,166L1260,165L1542,165L1542,164L1606,164L1606,163L1607,163L1607,162L1608,162L1608,161L1634,161L1634,158L1636,158L1636,157L1641,157L1641,156L1643,156L1643,155L1648,155L1648,154L1739,154L1739,153L1744,153L1744,152L1798,152L1798,151L1800,151L1800,150L1805,150L1805,149L1913,149L1913,148L1939,148L1939,147L1944,147L1944,146L1976,146L1976,145L2113,145L2113,144L2134,144L2134,143L2185,143L2185,142L2195,142L2195,141L2247,141L2247,140L2278,140" tabindex="0">
				<title>l_o9xo3rp9-9d8eewld-7896y468.81wp50oq</title>
			</path>
		</g>
		<g style="--index: 2;">
			<path d="M0,185L1,185L1,184L5,184L5,183L9,183L9,182L11,182L11,180L18,180L18,178L27,178L27,177L30,177L30,176L73,176L73,174L94,174L94,173L101,173L101,172L583,172L583,171L643,171L643,170L714,170L714,169L843,169L843,168L857,168L857,167L894,167L894,166L919,166L919,165L959,165L959,164L1034,164L1034,163L1050,163L1050,162L1051,162L1051,161L1055,161L1055,160L1057,160L1057,159L1111,159L1111,157L1118,157L1118,156L1119,156L1119,154L1125,154L1125,152L1126,152L1126,151L1130,151L1130,150L1131,150L1131,149L1132,149L1132,148L1134,148L1134,147L1140,147L1140,146L1149,146L1149,145L1166,145L1166,144L1167,144L1167,143L1186,143L1186,141L1194,141L1194,140L1197,140L1197,139L1207,139L1207,138L1209,138L1209,137L1363,137L1363,136L1395,136L1395,135L1466,135L1466,134L1471,134L1471,133L1473,133L1473,132L1481,132L1481,131L1482,131L1482,130L1502,130L1502,129L1518,129L1518,127L1522,127L1522,126L1523,126L1523,125L1524,125L1524,124L1573,124L1573,123L1604,123L1604,122L1632,122L1632,121L1639,121L1639,120L1643,120L1643,119L1644,119L1644,118L1662,118L1662,117L1675,117L1675,116L1687,116L1687,115L1691,115L1691,114L1700,114L1700,113L1702,113L1702,112L1703,112L1703,111L1737,111L1737,110L1756,110L1756,109L1759,109L1759,108L1805,108L1805,107L1828,107L1828,106L1829,106L1829,104L1846,104L1846,103L1894,103L1894,102L1898,102L1898,101L1909,101L1909,100L1938,100L1938,97L1945,97L1945,96L1952,96L1952,95L1987,95L1987,94L1999,94L1999,93L2044,93L2044,92L2050,92L2050,91L2161,91L2161,90L2168,90L2168,89L2198,89L2198,88L2220,88L2220,87L2278,87" tabindex="0">
				<title>l_r9gn1qpd-9d8eewld-0nwoqwkl.xqkjmxnl</title>
			</path>
		</g>
		<g style="--index: 3;">
			<path d="M0,185L1,185L1,184L5,184L5,183L31,183L31,182L73,182L73,181L103,181L103,180L595,180L595,179L840,179L840,178L842,178L842,177L846,177L846,176L847,176L847,175L860,175L860,174L870,174L870,173L951,173L951,172L965,172L965,171L977,171L977,170L1027,170L1027,169L1045,169L1045,168L1047,168L1047,167L1052,167L1052,166L1054,166L1054,165L1071,165L1071,164L1072,164L1072,163L1103,163L1103,162L1112,162L1112,161L1150,161L1150,160L1182,160L1182,159L1274,159L1274,158L1394,158L1394,157L1421,157L1421,156L1452,156L1452,155L1637,155L1637,154L1643,154L1643,153L1663,153L1663,152L1693,152L1693,151L1715,151L1715,150L1717,150L1717,149L1731,149L1731,148L1797,148L1797,147L1828,147L1828,146L1830,146L1830,145L1878,145L1878,144L1914,144L1914,143L1939,143L1939,142L1982,142L1982,141L2059,141L2059,140L2076,140L2076,139L2119,139L2119,138L2173,138L2173,137L2247,137L2247,136L2278,136" tabindex="0">
				<title>l_o9xo3rp9-9d8eewld-7896y468.jq60ze3q</title>
			</path>
		</g>
		<g style="--index: 4;">
			<path d="M0,185L1,185L1,184L5,184L5,183L7,183L7,182L9,182L9,181L10,181L10,180L11,180L11,179L14,179L14,178L16,178L16,177L18,177L18,175L19,175L19,173L28,173L28,172L30,172L30,171L70,171L70,169L83,169L83,168L94,168L94,167L95,167L95,166L101,166L101,165L415,165L415,164L416,164L416,163L582,163L582,162L642,162L642,161L644,161L644,160L645,160L645,159L854,159L854,158L871,158L871,157L872,157L872,156L967,156L967,155L1034,155L1034,154L1047,154L1047,153L1056,153L1056,152L1073,152L1073,151L1097,151L1097,150L1106,150L1106,149L1107,149L1107,148L1108,148L1108,147L1112,147L1112,146L1114,146L1114,144L1115,144L1115,143L1141,143L1141,142L1144,142L1144,141L1149,141L1149,140L1186,140L1186,139L1200,139L1200,138L1203,138L1203,137L1288,137L1288,136L1369,136L1369,135L1400,135L1400,134L1426,134L1426,132L1429,132L1429,131L1430,131L1430,130L1455,130L1455,129L1485,129L1485,128L1486,128L1486,127L1514,127L1514,126L1519,126L1519,125L1538,125L1538,124L1539,124L1539,123L1554,123L1554,122L1574,122L1574,121L1579,121L1579,120L1581,120L1581,119L1583,119L1583,118L1601,118L1601,117L1603,117L1603,115L1615,115L1615,114L1642,114L1642,113L1662,113L1662,112L1667,112L1667,111L1684,111L1684,110L1705,110L1705,109L1707,109L1707,108L1711,108L1711,107L1773,107L1773,106L1779,106L1779,105L1808,105L1808,104L1843,104L1843,103L1866,103L1866,102L1888,102L1888,101L1893,101L1893,100L1896,100L1896,99L1898,99L1898,98L1909,98L1909,94L1938,94L1938,93L1947,93L1947,92L1949,92L1949,90L1951,90L1951,89L1952,89L1952,88L1966,88L1966,86L1972,86L1972,85L1980,85L1980,84L1982,84L1982,83L1984,83L1984,82L1991,82L1991,81L2005,81L2005,80L2010,80L2010,79L2018,79L2018,78L2022,78L2022,76L2035,76L2035,75L2038,75L2038,74L2044,74L2044,73L2050,73L2050,72L2055,72L2055,71L2085,71L2085,70L2098,70L2098,69L2099,69L2099,68L2102,68L2102,67L2108,67L2108,66L2161,66L2161,65L2165,65L2165,64L2216,64L2216,63L2217,63L2217,62L2219,62L2219,61L2220,61L2220,60L2221,60L2221,59L2240,59L2240,58L2262,58L2262,57L2268,57L2268,56L2274,56L2274,55L2278,55" tabindex="0">
				<title>l_r9gn1qpd-9d8eewld-0nwoqwkl.81ppdgg1</title>
			</path>
		</g>
		<g style="--index: 5;">
			<path d="M0,185L1,185L1,184L10,184L10,183L59,183L59,182L73,182L73,181L99,181L99,180L583,180L583,179L844,179L844,178L864,178L864,177L930,177L930,176L1027,176L1027,175L1050,175L1050,174L1373,174L1373,173L1523,173L1523,172L1551,172L1551,171L1566,171L1566,170L1578,170L1578,169L1593,169L1593,167L1612,167L1612,166L1621,166L1621,165L1641,165L1641,164L1662,164L1662,163L1674,163L1674,162L1675,162L1675,161L1678,161L1678,160L1688,160L1688,159L1716,159L1716,158L1794,158L1794,157L1843,157L1843,156L1863,156L1863,155L1893,155L1893,154L1898,154L1898,153L1952,153L1952,152L2010,152L2010,151L2044,151L2044,150L2050,150L2050,149L2085,149L2085,147L2099,147L2099,146L2161,146L2161,145L2167,145L2167,144L2173,144L2173,143L2220,143L2220,142L2262,142L2262,141L2278,141" tabindex="0">
				<title>l_r9gn1qpd-9d8eewld-0nwoqwkl.21g82pnl</title>
			</path>
		</g>
		<g style="--index: 6;">
			<path d="M0,185L5,185L5,184L6,184L6,183L9,183L9,182L10,182L10,181L25,181L25,180L30,180L30,179L60,179L60,178L69,178L69,177L99,177L99,176L187,176L187,175L253,175L253,174L434,174L434,173L435,173L435,172L523,172L523,170L524,170L524,167L583,167L583,166L773,166L773,165L854,165L854,164L872,164L872,162L957,162L957,161L1023,161L1023,160L1027,160L1027,159L1031,159L1031,158L1035,158L1035,157L1047,157L1047,156L1050,156L1050,155L1051,155L1051,154L1052,154L1052,152L1053,152L1053,150L1054,150L1054,147L1056,147L1056,146L1059,146L1059,145L1070,145L1070,144L1091,144L1091,143L1096,143L1096,142L1118,142L1118,141L1127,141L1127,140L1131,140L1131,139L1145,139L1145,138L1146,138L1146,137L1147,137L1147,136L1153,136L1153,135L1160,135L1160,134L1167,134L1167,133L1170,133L1170,132L1182,132L1182,131L1184,131L1184,130L1186,130L1186,129L1230,129L1230,128L1253,128L1253,127L1287,127L1287,126L1295,126L1295,125L1377,125L1377,124L1379,124L1379,123L1438,123L1438,122L1458,122L1458,121L1465,121L1465,120L1478,120L1478,119L1518,119L1518,118L1524,118L1524,116L1527,116L1527,115L1529,115L1529,114L1537,114L1537,113L1550,113L1550,112L1558,112L1558,111L1566,111L1566,110L1574,110L1574,109L1578,109L1578,108L1579,108L1579,106L1582,106L1582,105L1606,105L1606,104L1608,104L1608,102L1630,102L1630,101L1635,101L1635,100L1637,100L1637,99L1640,99L1640,98L1641,98L1641,97L1643,97L1643,96L1650,96L1650,94L1658,94L1658,93L1662,93L1662,92L1663,92L1663,91L1674,91L1674,90L1678,90L1678,89L1681,89L1681,88L1684,88L1684,87L1685,87L1685,86L1687,86L1687,85L1689,85L1689,83L1690,83L1690,82L1699,82L1699,81L1746,81L1746,80L1748,80L1748,79L1752,79L1752,78L1762,78L1762,77L1764,77L1764,76L1768,76L1768,75L1775,75L1775,74L1783,74L1783,73L1790,73L1790,72L1798,72L1798,71L1824,71L1824,70L1828,70L1828,69L1830,69L1830,67L1843,67L1843,66L1845,66L1845,65L1878,65L1878,64L1889,64L1889,63L1893,63L1893,62L1894,62L1894,60L1895,60L1895,59L1896,59L1896,58L1902,58L1902,57L1908,57L1908,56L1910,56L1910,55L1912,55L1912,54L1914,54L1914,52L1918,52L1918,51L1919,51L1919,50L1921,50L1921,49L1922,49L1922,47L1925,47L1925,46L1930,46L1930,45L1932,45L1932,44L1935,44L1935,43L1951,43L1951,41L1952,41L1952,39L1958,39L1958,35L1960,35L1960,34L1962,34L1962,33L1963,33L1963,32L1987,32L1987,30L1989,30L1989,29L2001,29L2001,28L2013,28L2013,27L2015,27L2015,26L2017,26L2017,25L2041,25L2041,24L2044,24L2044,23L2051,23L2051,21L2054,21L2054,20L2059,20L2059,19L2088,19L2088,18L2099,18L2099,17L2106,17L2106,16L2108,16L2108,15L2124,15L2124,14L2125,14L2125,13L2139,13L2139,12L2151,12L2151,11L2154,11L2154,9L2192,9L2192,8L2218,8L2218,7L2219,7L2219,5L2220,5L2220,4L2243,4L2243,3L2262,3L2262,2L2276,2L2276,0L2278,0" tabindex="0">
				<title>l_r9gn1qpd-9d8eewld-0nwoqwkl.jqzpx3gl</title>
			</path>
		</g>
		<g style="--index: 7;">
			<path d="M0,185L7,185L7,183L8,183L8,182L16,182L16,180L25,180L25,179L57,179L57,178L66,178L66,177L73,177L73,176L94,176L94,174L95,174L95,173L97,173L97,172L103,172L103,171L107,171L107,170L175,170L175,169L180,169L180,168L181,168L181,167L356,167L356,166L583,166L583,165L737,165L737,164L758,164L758,163L868,163L868,162L893,162L893,161L962,161L962,160L976,160L976,159L1005,159L1005,158L1033,158L1033,157L1034,157L1034,156L1035,156L1035,155L1036,155L1036,154L1049,154L1049,153L1052,153L1052,152L1054,152L1054,151L1055,151L1055,149L1056,149L1056,147L1069,147L1069,146L1071,146L1071,145L1074,145L1074,144L1075,144L1075,143L1076,143L1076,142L1104,142L1104,141L1106,141L1106,140L1115,140L1115,139L1129,139L1129,138L1130,138L1130,137L1146,137L1146,136L1149,136L1149,135L1150,135L1150,134L1181,134L1181,133L1184,133L1184,132L1188,132L1188,131L1192,131L1192,130L1206,130L1206,129L1212,129L1212,128L1218,128L1218,127L1242,127L1242,126L1256,126L1256,124L1261,124L1261,123L1269,123L1269,122L1287,122L1287,121L1290,121L1290,120L1291,120L1291,119L1296,119L1296,118L1306,118L1306,117L1312,117L1312,116L1368,116L1368,115L1369,115L1369,114L1378,114L1378,113L1389,113L1389,112L1390,112L1390,111L1392,111L1392,109L1413,109L1413,108L1421,108L1421,107L1425,107L1425,106L1428,106L1428,105L1429,105L1429,104L1431,104L1431,103L1432,103L1432,102L1444,102L1444,101L1463,101L1463,100L1467,100L1467,99L1468,99L1468,98L1479,98L1479,97L1482,97L1482,96L1494,96L1494,95L1497,95L1497,94L1502,94L1502,93L1509,93L1509,92L1511,92L1511,90L1512,90L1512,89L1513,89L1513,88L1518,88L1518,87L1520,87L1520,85L1525,85L1525,84L1527,84L1527,83L1528,83L1528,82L1532,82L1532,81L1535,81L1535,79L1550,79L1550,78L1553,78L1553,77L1565,77L1565,76L1568,76L1568,75L1573,75L1573,73L1604,73L1604,72L1605,72L1605,71L1606,71L1606,70L1607,70L1607,69L1608,69L1608,68L1609,68L1609,67L1611,67L1611,66L1639,66L1639,65L1641,65L1641,64L1642,64L1642,63L1643,63L1643,62L1647,62L1647,60L1650,60L1650,59L1651,59L1651,58L1652,58L1652,57L1662,57L1662,55L1680,55L1680,54L1682,54L1682,53L1685,53L1685,52L1687,52L1687,49L1689,49L1689,46L1691,46L1691,45L1692,45L1692,43L1694,43L1694,41L1695,41L1695,40L1696,40L1696,39L1699,39L1699,37L1706,37L1706,36L1707,36L1707,35L1708,35L1708,34L1709,34L1709,33L1712,33L1712,32L1715,32L1715,31L1717,31L1717,30L1718,30L1718,29L1723,29L1723,28L1733,28L1733,27L1735,27L1735,26L1737,26L1737,25L1738,25L1738,24L1740,24L1740,23L1741,23L1741,22L1757,22L1757,21L1763,21L1763,20L2190,20L2190,19L2278,19" tabindex="0">
				<title>l_r9gn1qpd-9d8eewld-0nwoqwkl.p12dx87q</title>
			</path>
		</g>
		<g style="--index: 8;">
			<path d="M0,185L7,185L7,184L17,184L17,183L57,183L57,182L73,182L73,181L186,181L186,180L595,180L595,179L758,179L758,178L888,178L888,177L995,177L995,176L1034,176L1034,175L1047,175L1047,174L1059,174L1059,173L1073,173L1073,172L1106,172L1106,171L1116,171L1116,170L1150,170L1150,169L1183,169L1183,168L1256,168L1256,167L1376,167L1376,166L1391,166L1391,165L1521,165L1521,164L1523,164L1523,163L1583,163L1583,162L1637,162L1637,161L1681,161L1681,160L1716,160L1716,159L1771,159L1771,158L2175,158L2175,157L2278,157" tabindex="0">
				<title>l_o9xo3rp9-9d8eewld-7896y468.810zwdwq</title>
			</path>
		</g>
		<g style="--index: 9;">
			<path d="M0,185L7,185L7,184L9,184L9,183L73,183L73,182L106,182L106,181L741,181L741,180L867,180L867,179L869,179L869,178L1013,178L1013,177L1040,177L1040,176L1054,176L1054,174L1087,174L1087,171L1089,171L1089,170L1145,170L1145,169L1148,169L1148,168L1155,168L1155,167L1173,167L1173,165L1174,165L1174,164L1480,164L1480,163L1483,163L1483,162L1485,162L1485,161L1539,161L1539,160L1540,160L1540,159L1543,159L1543,158L1600,158L1600,157L1607,157L1607,156L1625,156L1625,155L1643,155L1643,154L1644,154L1644,153L1665,153L1665,152L1671,152L1671,151L1701,151L1701,150L1706,150L1706,149L1774,149L1774,148L1780,148L1780,147L1887,147L1887,146L1939,146L1939,145L2014,145L2014,144L2054,144L2054,143L2208,143L2208,142L2247,142L2247,141L2278,141" tabindex="0">
				<title>l_o9xo3rp9-9d8eewld-7896y468.rqvpey7q</title>
			</path>
		</g>
		<g style="--index: 10;">
			<path d="M0,185L9,185L9,184L11,184L11,183L23,183L23,182L25,182L25,180L26,180L26,179L69,179L69,178L99,178L99,177L105,177L105,176L583,176L583,175L868,175L868,174L965,174L965,173L974,173L974,172L996,172L996,171L1050,171L1050,170L1059,170L1059,169L1090,169L1090,168L1099,168L1099,167L1100,167L1100,166L1125,166L1125,165L1131,165L1131,164L1132,164L1132,162L1133,162L1133,161L1148,161L1148,160L1149,160L1149,159L1199,159L1199,157L1476,157L1476,156L1639,156L1639,155L1643,155L1643,154L1662,154L1662,153L1674,153L1674,152L1688,152L1688,151L1692,151L1692,150L1699,150L1699,149L1703,149L1703,148L1706,148L1706,147L1768,147L1768,146L1795,146L1795,145L1807,145L1807,144L1843,144L1843,143L1860,143L1860,142L1884,142L1884,141L1896,141L1896,139L1910,139L1910,138L1964,138L1964,137L1993,137L1993,136L2006,136L2006,135L2011,135L2011,134L2013,134L2013,133L2154,133L2154,132L2161,132L2161,131L2164,131L2164,130L2186,130L2186,129L2200,129L2200,128L2225,128L2225,127L2228,127L2228,126L2238,126L2238,125L2278,125" tabindex="0">
				<title>l_r9gn1qpd-9d8eewld-0nwoqwkl.klrpy2jq</title>
			</path>
		</g>
		<g style="--index: 11;">
			<path d="M0,185L9,185L9,184L11,184L11,183L23,183L23,181L24,181L24,180L25,180L25,178L73,178L73,177L99,177L99,176L105,176L105,175L181,175L181,172L251,172L251,171L372,171L372,170L582,170L582,169L862,169L862,168L965,168L965,165L967,165L967,164L996,164L996,163L1036,163L1036,162L1050,162L1050,161L1058,161L1058,160L1076,160L1076,159L1082,159L1082,158L1090,158L1090,157L1099,157L1099,156L1101,156L1101,155L1102,155L1102,154L1125,154L1125,153L1146,153L1146,152L1148,152L1148,151L1160,151L1160,150L1174,150L1174,149L1178,149L1178,148L1194,148L1194,146L1195,146L1195,145L1200,145L1200,143L1363,143L1363,142L1429,142L1429,141L1461,141L1461,140L1525,140L1525,139L1553,139L1553,138L1581,138L1581,137L1643,137L1643,136L1653,136L1653,135L1662,135L1662,134L1675,134L1675,133L1678,133L1678,132L1688,132L1688,131L1690,131L1690,130L1705,130L1705,128L1714,128L1714,127L1762,127L1762,126L1763,126L1763,125L1764,125L1764,124L1769,124L1769,123L1774,123L1774,122L1787,122L1787,121L1836,121L1836,120L1843,120L1843,119L1854,119L1854,118L1857,118L1857,117L1858,117L1858,116L1869,116L1869,115L1896,115L1896,113L1910,113L1910,112L1933,112L1933,111L1978,111L1978,110L1985,110L1985,109L1994,109L1994,107L2010,107L2010,106L2043,106L2043,105L2058,105L2058,104L2071,104L2071,103L2120,103L2120,102L2161,102L2161,101L2163,101L2163,99L2196,99L2196,98L2218,98L2218,97L2219,97L2219,96L2222,96L2222,95L2226,95L2226,94L2227,94L2227,93L2278,93" tabindex="0">
				<title>l_r9gn1qpd-9d8eewld-0nwoqwkl.21dz3e4l</title>
			</path>
		</g>
		<g style="--index: 12;">
			<path d="M0,185L9,185L9,184L188,184L188,183L1030,183L1030,181L1094,181L1094,180L1097,180L1097,179L1098,179L1098,177L1111,177L1111,176L1140,176L1140,175L1182,175L1182,174L1183,174L1183,173L1956,173L1956,172L2278,172" tabindex="0">
				<title>l_o9xo3rp9-xd144xzd-38dz6v1n.814y45w1</title>
			</path>
		</g>
		<g style="--index: 13;">
			<path d="M0,185L9,185L9,184L10,184L10,183L19,183L19,181L25,181L25,180L186,180L186,179L1009,179L1009,178L1030,178L1030,176L1054,176L1054,175L1095,175L1095,173L1098,173L1098,172L1215,172L1215,171L1227,171L1227,170L1377,170L1377,169L1397,169L1397,168L1692,168L1692,167L2278,167" tabindex="0">
				<title>l_r9gn1qpd-xd144xzd-38dz6v1n.814y45w1</title>
			</path>
		</g>
		<g style="--index: 14;">
			<path d="M0,185L28,185L28,184L31,184L31,183L101,183L101,182L418,182L418,181L583,181L583,180L758,180L758,179L759,179L759,178L766,178L766,177L769,177L769,176L777,176L777,175L823,175L823,173L873,173L873,172L896,172L896,171L901,171L901,170L966,170L966,169L1050,169L1050,168L1078,168L1078,167L1079,167L1079,166L1099,166L1099,164L1101,164L1101,163L1102,163L1102,162L1118,162L1118,161L1140,161L1140,160L1146,160L1146,159L1817,159L1817,158L1919,158L1919,157L2007,157L2007,156L2161,156L2161,155L2175,155L2175,154L2184,154L2184,153L2278,153" tabindex="0">
				<title>l_r9gn1qpd-9d8eewld-0nwoqwkl.gq7jrxvq</title>
			</path>
		</g>
		<g style="--index: 15;">
			<path d="M0,185L32,185L32,184L187,184L187,183L1059,183L1059,182L1079,182L1079,181L1090,181L1090,180L1091,180L1091,178L1112,178L1112,177L1125,177L1125,176L1520,176L1520,175L1980,175L1980,174L2163,174L2163,173L2222,173L2222,172L2235,172L2235,171L2278,171" tabindex="0">
				<title>l_r9gn1qpd-xd144xzd-38dz6v1n.z19md2jl</title>
			</path>
		</g>
		<g style="--index: 16;">
			<path d="M0,185L57,185L57,184L73,184L73,183L104,183L104,182L418,182L418,181L842,181L842,180L868,180L868,179L965,179L965,178L968,178L968,177L970,177L970,176L1030,176L1030,175L1047,175L1047,174L1052,174L1052,173L1077,173L1077,172L1104,172L1104,170L1106,170L1106,169L1108,169L1108,167L1111,167L1111,166L1138,166L1138,165L1158,165L1158,164L1173,164L1173,162L1174,162L1174,160L1182,160L1182,159L1338,159L1338,158L1347,158L1347,157L1576,157L1576,156L1641,156L1641,155L1643,155L1643,154L1702,154L1702,151L1729,151L1729,150L1735,150L1735,148L1791,148L1791,147L1798,147L1798,146L1800,146L1800,145L1826,145L1826,144L1893,144L1893,143L1900,143L1900,142L1909,142L1909,140L1950,140L1950,139L1965,139L1965,138L1983,138L1983,137L2050,137L2050,136L2062,136L2062,135L2089,135L2089,134L2247,134L2247,133L2278,133" tabindex="0">
				<title>l_o9xo3rp9-9d8eewld-7896y468.9qj0x8el</title>
			</path>
		</g>
		<g style="--index: 17;">
			<path d="M0,185L60,185L60,184L71,184L71,183L93,183L93,182L95,182L95,181L106,181L106,180L846,180L846,179L864,179L864,178L865,178L865,177L911,177L911,176L1025,176L1025,175L1027,175L1027,174L1045,174L1045,173L1047,173L1047,172L1054,172L1054,171L1069,171L1069,170L1073,170L1073,167L1074,167L1074,163L1078,163L1078,161L1148,161L1148,159L1155,159L1155,158L1514,158L1514,157L1619,157L1619,156L1643,156L1643,155L1685,155L1685,154L1791,154L1791,152L1794,152L1794,151L1798,151L1798,150L1800,150L1800,149L1857,149L1857,148L1907,148L1907,147L1915,147L1915,146L1939,146L1939,145L2050,145L2050,144L2097,144L2097,143L2119,143L2119,142L2247,142L2247,141L2278,141" tabindex="0">
				<title>l_o9xo3rp9-9d8eewld-7896y468.5lermx5q</title>
			</path>
		</g>
		<g style="--index: 18;">
			<path d="M0,185L91,185L91,184L100,184L100,183L862,183L862,182L864,182L864,181L1050,181L1050,179L1051,179L1051,178L1064,178L1064,177L1080,177L1080,176L1145,176L1145,175L1146,175L1146,174L1186,174L1186,173L1247,173L1247,172L1605,172L1605,171L1766,171L1766,170L2278,170" tabindex="0">
				<title>l_495zlx39-9d8eewld-2lgr793n.gq7jzvvq</title>
			</path>
		</g>
		<g style="--index: 19;">
			<path d="M0,185L91,185L91,184L183,184L183,183L864,183L864,182L949,182L949,181L1019,181L1019,180L1047,180L1047,179L1050,179L1050,178L1070,178L1070,177L1074,177L1074,176L1078,176L1078,175L1079,175L1079,172L1089,172L1089,171L1104,171L1104,169L1107,169L1107,168L1112,168L1112,167L1516,167L1516,166L1527,166L1527,165L1598,165L1598,164L1599,164L1599,163L1600,163L1600,162L1607,162L1607,161L1608,161L1608,160L1629,160L1629,159L1631,159L1631,158L1672,158L1672,157L1797,157L1797,156L1798,156L1798,155L1801,155L1801,154L1805,154L1805,153L1892,153L1892,151L1899,151L1899,150L2045,150L2045,149L2162,149L2162,148L2278,148" tabindex="0">
				<title>l_495zlx39-9d8eewld-2lgr793n.z19m8p0l</title>
			</path>
		</g>
		<g style="--index: 20;">
			<path d="M0,185L91,185L91,184L93,184L93,180L94,180L94,179L95,179L95,178L181,178L181,177L182,177L182,176L863,176L863,175L1047,175L1047,174L1055,174L1055,173L1070,173L1070,172L1087,172L1087,171L1107,171L1107,170L1145,170L1145,168L1763,168L1763,165L2278,165" tabindex="0">
				<title>l_495zlx39-9d8eewld-2lgr793n.81ppd5g1</title>
			</path>
		</g>
		<g style="--index: 21;">
			<path d="M0,185L92,185L92,184L178,184L178,183L183,183L183,182L853,182L853,181L911,181L911,180L965,180L965,179L974,179L974,178L1023,178L1023,177L1048,177L1048,176L1050,176L1050,175L1054,175L1054,172L1055,172L1055,169L1056,169L1056,168L1057,168L1057,167L1058,167L1058,166L1063,166L1063,165L1065,165L1065,164L1070,164L1070,163L1071,163L1071,162L1080,162L1080,161L1083,161L1083,159L1137,159L1137,158L1151,158L1151,157L1199,157L1199,156L1286,156L1286,155L1287,155L1287,154L1412,154L1412,150L1500,150L1500,149L1512,149L1512,148L1515,148L1515,147L1528,147L1528,146L1538,146L1538,145L1541,145L1541,144L1566,144L1566,143L1592,143L1592,142L1594,142L1594,141L1597,141L1597,140L1599,140L1599,139L1600,139L1600,138L1602,138L1602,137L1612,137L1612,136L1628,136L1628,135L1643,135L1643,134L1647,134L1647,133L1785,133L1785,132L1796,132L1796,131L1798,131L1798,130L1847,130L1847,129L1859,129L1859,128L1910,128L1910,127L2051,127L2051,126L2118,126L2118,125L2120,125L2120,124L2278,124" tabindex="0">
				<title>l_495zlx39-9d8eewld-2lgr793n.21g8ownl</title>
			</path>
		</g>
		<g style="--index: 22;">
			<path d="M0,185L93,185L93,184L100,184L100,183L252,183L252,182L853,182L853,181L961,181L961,180L1015,180L1015,179L1048,179L1048,178L1076,178L1076,177L1082,177L1082,176L1091,176L1091,175L1092,175L1092,174L1099,174L1099,173L1199,173L1199,172L1797,172L1797,171L1798,171L1798,170L1877,170L1877,169L1948,169L1948,167L2077,167L2077,166L2215,166L2215,165L2278,165" tabindex="0">
				<title>l_495zlx39-9d8eewld-2lgr793n.xqkjmnnl</title>
			</path>
		</g>
		<g style="--index: 23;">
			<path d="M0,185L93,185L93,184L101,184L101,183L181,183L181,182L182,182L182,181L857,181L857,180L865,180L865,179L963,179L963,178L1048,178L1048,176L1051,176L1051,174L1052,174L1052,173L1054,173L1054,171L1059,171L1059,170L1073,170L1073,169L1078,169L1078,168L1079,168L1079,167L1154,167L1154,166L1256,166L1256,165L1527,165L1527,164L1619,164L1619,163L1620,163L1620,162L1630,162L1630,161L1702,161L1702,160L1797,160L1797,159L1798,159L1798,158L1842,158L1842,157L1893,157L1893,156L1902,156L1902,155L1913,155L1913,154L2214,154L2214,153L2278,153" tabindex="0">
				<title>l_495zlx39-9d8eewld-2lgr793n.814y7w01</title>
			</path>
		</g>
		<g style="--index: 24;">
			<path d="M0,185L94,185L94,184L183,184L183,183L263,183L263,182L869,182L869,181L1048,181L1048,180L1099,180L1099,179L1114,179L1114,178L1115,178L1115,177L1141,177L1141,176L1312,176L1312,175L1395,175L1395,174L1548,174L1548,173L1621,173L1621,172L1622,172L1622,171L1623,171L1623,170L1646,170L1646,169L1664,169L1664,168L2175,168L2175,167L2278,167" tabindex="0">
				<title>l_495zlx39-9d8eewld-2lgr793n.4lxpe62q</title>
			</path>
		</g>
		<g style="--index: 25;">
			<path d="M0,185L94,185L94,184L183,184L183,183L255,183L255,182L260,182L260,181L389,181L389,180L875,180L875,179L1028,179L1028,178L1047,178L1047,177L1048,177L1048,176L1085,176L1085,175L1086,175L1086,173L1087,173L1087,172L1099,172L1099,171L1155,171L1155,170L1594,170L1594,169L1818,169L1818,168L1987,168L1987,167L2278,167" tabindex="0">
				<title>l_495zlx39-9d8eewld-2lgr793n.p12dx07q</title>
			</path>
		</g>
		<g style="--index: 26;">
			<path d="M0,185L186,185L186,184L253,184L253,183L875,183L875,182L963,182L963,181L1028,181L1028,180L1054,180L1054,179L1083,179L1083,178L1091,178L1091,177L1095,177L1095,176L1097,176L1097,175L1105,175L1105,174L1112,174L1112,173L1156,173L1156,172L1640,172L1640,171L1643,171L1643,170L2009,170L2009,169L2178,169L2178,168L2246,168L2246,167L2278,167" tabindex="0">
				<title>l_o9xo3rp9-9d8eewld-7896y468.5lmkgmjq</title>
			</path>
		</g>
		<g style="--index: 27;">
			<path d="M0,185L235,185L235,183L238,183L238,182L248,182L248,181L250,181L250,180L1099,180L1099,179L1116,179L1116,178L1215,178L1215,177L1230,177L1230,176L1252,176L1252,174L1285,174L1285,173L1305,173L1305,172L1355,172L1355,171L1647,171L1647,170L1684,170L1684,169L1691,169L1691,168L1703,168L1703,167L1958,167L1958,166L1960,166L1960,165L1962,165L1962,163L1963,163L1963,162L2002,162L2002,161L2054,161L2054,160L2113,160L2113,159L2278,159" tabindex="0">
				<title>l_ldykv1zw-rkl3znrk-wl3059ol.4qypgj4q</title>
			</path>
		</g>
		<g style="--index: 28;">
			<path d="M0,185L265,185L265,184L374,184L374,183L464,183L464,182L527,182L527,181L556,181L556,180L558,180L558,179L1054,179L1054,178L1314,178L1314,176L1316,176L1316,175L2278,175" tabindex="0">
				<title>xd17x94d-9l71pv4l.81wrgm5l</title>
			</path>
		</g>
		<g style="--index: 29;">
			<path d="M0,185L416,185L416,184L417,184L417,183L895,183L895,182L1054,182L1054,181L1090,181L1090,180L1106,180L1106,179L1116,179L1116,178L1190,178L1190,177L1931,177L1931,176L1980,176L1980,175L2072,175L2072,174L2117,174L2117,173L2163,173L2163,172L2224,172L2224,171L2261,171L2261,170L2271,170L2271,169L2278,169" tabindex="0">
				<title>l_r9gn1qpd-xd144xwd</title>
			</path>
		</g>
		<g style="--index: 30;">
			<path d="M0,185L418,185L418,184L995,184L995,183L1054,183L1054,182L1094,182L1094,181L1095,181L1095,180L1116,180L1116,179L2278,179" tabindex="0">
				<title>l_o9xo3rp9-9kv66g32-onv7r45n.9qj08g7l</title>
			</path>
		</g>
		<g style="--index: 31;">
			<path d="M0,185L574,185L574,184L871,184L871,183L959,183L959,182L1048,182L1048,181L1094,181L1094,180L1110,180L1110,179L1113,179L1113,178L1141,178L1141,177L1182,177L1182,176L1515,176L1515,175L1930,175L1930,174L2278,174" tabindex="0">
				<title>l_rdqo542w-9d8eewld-wl30kw9l.klrp6ejq</title>
			</path>
		</g>
		<g style="--index: 32;">
			<path d="M0,185L574,185L574,184L854,184L854,183L925,183L925,182L931,182L931,180L971,180L971,179L987,179L987,178L1045,178L1045,177L1046,177L1046,175L1047,175L1047,174L1066,174L1066,173L1146,173L1146,172L1155,172L1155,171L1608,171L1608,170L1609,170L1609,169L1615,169L1615,168L1629,168L1629,167L1636,167L1636,165L1640,165L1640,163L1642,163L1642,162L1940,162L1940,161L1953,161L1953,159L2113,159L2113,158L2278,158" tabindex="0">
				<title>l_rdqo542w-9d8eewld-wl30kw9l.jqzpyr4l</title>
			</path>
		</g>
		<g style="--index: 33;">
			<path d="M0,185L574,185L574,184L850,184L850,183L871,183L871,182L1048,182L1048,181L1052,181L1052,180L1061,180L1061,179L1066,179L1066,178L1088,178L1088,177L1155,177L1155,176L1515,176L1515,175L1627,175L1627,174L1636,174L1636,173L1637,173L1637,172L1925,172L1925,171L2278,171" tabindex="0">
				<title>l_rdqo542w-9d8eewld-wl30kw9l.21dzoj3l</title>
			</path>
		</g>
		<g style="--index: 34;">
			<path d="M0,185L578,185L578,184L875,184L875,183L1028,183L1028,182L1047,182L1047,181L1061,181L1061,180L1071,180L1071,179L1093,179L1093,178L1146,178L1146,177L1164,177L1164,176L1166,176L1166,175L1608,175L1608,174L2207,174L2207,173L2278,173" tabindex="0">
				<title>l_rdqo542w-9d8eewld-wl30kw9l.21g8owxl</title>
			</path>
		</g>
		<g style="--index: 35;">
			<path d="M0,185L742,185L742,184L839,184L839,183L843,183L843,182L877,182L877,181L888,181L888,179L890,179L890,177L893,177L893,176L894,176L894,175L897,175L897,174L906,174L906,173L963,173L963,172L964,172L964,170L966,170L966,169L997,169L997,167L1024,167L1024,166L1025,166L1025,164L1028,164L1028,162L1052,162L1052,160L1058,160L1058,159L1060,159L1060,158L1066,158L1066,157L1070,157L1070,156L1084,156L1084,155L1087,155L1087,154L1091,154L1091,153L1096,153L1096,152L1101,152L1101,151L1103,151L1103,150L1109,150L1109,149L1113,149L1113,148L1141,148L1141,147L1142,147L1142,146L1143,146L1143,145L1147,145L1147,144L1157,144L1157,143L1176,143L1176,142L1180,142L1180,141L1183,141L1183,139L1193,139L1193,138L1224,138L1224,137L1258,137L1258,135L1259,135L1259,134L1260,134L1260,132L1270,132L1270,131L1272,131L1272,130L1276,130L1276,129L1277,129L1277,128L1291,128L1291,127L1367,127L1367,126L1448,126L1448,124L1450,124L1450,123L1477,123L1477,122L1480,122L1480,121L1542,121L1542,120L1579,120L1579,119L1611,119L1611,118L1635,118L1635,117L1638,117L1638,116L1647,116L1647,115L1654,115L1654,114L1664,114L1664,113L1673,113L1673,112L1687,112L1687,111L1691,111L1691,110L1693,110L1693,109L1695,109L1695,108L1702,108L1702,107L1716,107L1716,106L1737,106L1737,105L1743,105L1743,103L1756,103L1756,102L1766,102L1766,101L1922,101L1922,100L2278,100" tabindex="0">
				<title>xd17x94d-9l71pv4l.zqo20y2l</title>
			</path>
		</g>
		<g style="--index: 36;">
			<path d="M0,185L846,185L846,183L1104,183L1104,182L1128,182L1128,180L1129,180L1129,177L1140,177L1140,176L1142,176L1142,174L1180,174L1180,173L1207,173L1207,172L1211,172L1211,171L1289,171L1289,170L1290,170L1290,169L1310,169L1310,168L1340,168L1340,167L1399,167L1399,166L1536,166L1536,165L1573,165L1573,164L1589,164L1589,163L1592,163L1592,162L1593,162L1593,161L1610,161L1610,160L1639,160L1639,159L1694,159L1694,158L1709,158L1709,157L1759,157L1759,156L1797,156L1797,155L1907,155L1907,153L2023,153L2023,152L2031,152L2031,151L2278,151" tabindex="0">
				<title>9kv6l5e2-ql6rezjl.jq6d86v1</title>
			</path>
		</g>
		<g style="--index: 37;">
			<path d="M0,185L855,185L855,184L1033,184L1033,182L1047,182L1047,181L1048,181L1048,180L1052,180L1052,179L1088,179L1088,178L1105,178L1105,177L1145,177L1145,176L1155,176L1155,175L1514,175L1514,174L1632,174L1632,173L1914,173L1914,172L1931,172L1931,171L1962,171L1962,170L2278,170" tabindex="0">
				<title>l_rdqo542w-9d8eewld-wl30kw9l.5q86rxr1</title>
			</path>
		</g>
		<g style="--index: 38;">
			<path d="M0,185L855,185L855,184L1037,184L1037,183L1050,183L1050,182L1082,182L1082,181L1097,181L1097,180L1186,180L1186,179L1255,179L1255,178L1642,178L1642,177L1679,177L1679,176L2176,176L2176,175L2278,175" tabindex="0">
				<title>l_rdqo542w-9d8eewld-wl30kw9l.jqzpyrgl</title>
			</path>
		</g>
		<g style="--index: 39;">
			<path d="M0,185L869,185L869,184L922,184L922,183L966,183L966,182L1048,182L1048,179L1061,179L1061,177L1090,177L1090,176L1091,176L1091,175L1133,175L1133,174L1155,174L1155,173L1477,173L1477,172L1908,172L1908,171L2278,171" tabindex="0">
				<title>l_rdqo542w-9d8eewld-wl30kw9l.klrp6e0q</title>
			</path>
		</g>
		<g style="--index: 40;">
			<path d="M0,185L870,185L870,184L1036,184L1036,183L1080,183L1080,182L2278,182" tabindex="0">
				<title>l_rdqo542w-9kv66g32-onv7r45n.9qj08g7l</title>
			</path>
		</g>
		<g style="--index: 41;">
			<path d="M0,185L871,185L871,184L965,184L965,182L1023,182L1023,181L1036,181L1036,180L1042,180L1042,179L1047,179L1047,178L1048,178L1048,177L1049,177L1049,176L1060,176L1060,175L1077,175L1077,174L1103,174L1103,173L1133,173L1133,172L1608,172L1608,171L1797,171L1797,170L1914,170L1914,169L1931,169L1931,168L1949,168L1949,167L2012,167L2012,166L2113,166L2113,165L2278,165" tabindex="0">
				<title>l_rdqo542w-9d8eewld-wl30kw9l.gq7jzvnq</title>
			</path>
		</g>
		<g style="--index: 42;">
			<path d="M0,185L892,185L892,184L1091,184L1091,183L1116,183L1116,182L1156,182L1156,181L1191,181L1191,180L2278,180" tabindex="0">
				<title>l_o9xo3rp9-xd144xwd</title>
			</path>
		</g>
		<g style="--index: 43;">
			<path d="M0,185L895,185L895,184L901,184L901,183L961,183L961,182L1036,182L1036,181L1054,181L1054,180L1094,180L1094,179L1100,179L1100,178L1116,178L1116,177L1371,177L1371,176L1707,176L1707,175L1727,175L1727,174L1979,174L1979,173L2163,173L2163,172L2261,172L2261,171L2278,171" tabindex="0">
				<title>l_r9gn1qpd-9kv66g32-onv7r45n.9qj08g7l</title>
			</path>
		</g>
		<g style="--index: 44;">
			<path d="M0,185L922,185L922,184L1032,184L1032,183L1099,183L1099,182L1116,182L1116,181L1121,181L1121,180L1274,180L1274,179L1286,179L1286,178L1703,178L1703,177L1959,177L1959,176L2119,176L2119,175L2278,175" tabindex="0">
				<title>l_ldykv1zw-rkl3znrk-wl3059ol.810zkwwq</title>
			</path>
		</g>
		<g style="--index: 45;">
			<path d="M0,185L994,185L994,184L1085,184L1085,183L1096,183L1096,182L1615,182L1615,181L2278,181" tabindex="0">
				<title>l_495zlx39-9kv66g32-onv7r45n.9qj08g7l</title>
			</path>
		</g>
		<g style="--index: 46;">
			<path d="M0,185L998,185L998,184L1121,184L1121,182L1122,182L1122,181L1251,181L1251,180L1262,180L1262,179L1305,179L1305,178L1647,178L1647,177L1691,177L1691,176L2122,176L2122,175L2278,175" tabindex="0">
				<title>l_ldykv1zw-rkl3znrk-wl3059ol.9qj0kxel</title>
			</path>
		</g>
		<g style="--index: 47;">
			<path d="M0,185L1009,185L1009,184L1096,184L1096,183L1097,183L1097,181L1098,181L1098,180L1149,180L1149,179L1173,179L1173,178L1617,178L1617,177L1650,177L1650,176L2278,176" tabindex="0">
				<title>l_495zlx39-xd144xzd-38dz6v1n.814y45w1</title>
			</path>
		</g>
		<g style="--index: 48;">
			<path d="M0,185L1010,185L1010,184L1085,184L1085,183L1086,183L1086,182L1125,182L1125,181L1131,181L1131,180L1686,180L1686,179L1691,179L1691,178L2278,178" tabindex="0">
				<title>l_o9xo3rp9-xd144xzd-38dz6v1n.z19md2jl</title>
			</path>
		</g>
		<g style="--index: 49;">
			<path d="M0,185L1023,185L1023,184L1074,184L1074,183L1084,183L1084,182L1108,182L1108,181L1119,181L1119,179L1130,179L1130,178L1581,178L1581,177L1728,177L1728,176L1735,176L1735,174L2278,174" tabindex="0">
				<title>l_r9gnozkd-rkl3znrk-wledz9en.81wpx5oq</title>
			</path>
		</g>
		<g style="--index: 50;">
			<path d="M0,185L1024,185L1024,184L1047,184L1047,183L1110,183L1110,182L1143,182L1143,181L1307,181L1307,180L1340,180L1340,179L1924,179L1924,178L2161,178L2161,177L2278,177" tabindex="0">
				<title>l_r9gnozkd-rkl3znrk-wledz9en.zqop6rp1</title>
			</path>
		</g>
		<g style="--index: 51;">
			<path d="M0,185L1025,185L1025,184L1047,184L1047,183L1055,183L1055,182L1066,182L1066,181L1090,181L1090,180L1133,180L1133,179L1143,179L1143,178L1341,178L1341,177L1764,177L1764,176L1814,176L1814,175L1925,175L1925,174L2161,174L2161,173L2278,173" tabindex="0">
				<title>l_r9gnozkd-rkl3znrk-wledz9en.0138n5dq</title>
			</path>
		</g>
		<g style="--index: 52;">
			<path d="M0,185L1026,185L1026,183L1034,183L1034,182L1046,182L1046,181L1048,181L1048,180L1056,180L1056,179L1061,179L1061,178L1067,178L1067,177L1077,177L1077,175L1086,175L1086,173L1111,173L1111,172L1112,172L1112,171L1144,171L1144,170L1145,170L1145,169L1805,169L1805,168L1963,168L1963,167L2110,167L2110,166L2145,166L2145,165L2167,165L2167,164L2278,164" tabindex="0">
				<title>l_r9gnozkd-rkl3znrk-wledz9en.rqvp5e7q</title>
			</path>
		</g>
		<g style="--index: 53;">
			<path d="M0,185L1027,185L1027,184L1068,184L1068,183L1108,183L1108,182L1365,182L1365,180L1730,180L1730,179L2013,179L2013,178L2278,178" tabindex="0">
				<title>l_r9gnozkd-rkl3znrk-wledz9en.5ler7m5q</title>
			</path>
		</g>
		<g style="--index: 54;">
			<path d="M0,185L1028,185L1028,184L1034,184L1034,183L1058,183L1058,182L1090,182L1090,181L1146,181L1146,178L1147,178L1147,177L1168,177L1168,176L2278,176" tabindex="0">
				<title>l_r9gnozkd-rkl3znrk-wledz9en.0q5njgmq</title>
			</path>
		</g>
		<g style="--index: 55;">
			<path d="M0,185L1029,185L1029,184L1034,184L1034,183L1040,183L1040,182L1070,182L1070,181L1312,181L1312,179L1576,179L1576,178L1587,178L1587,177L1588,177L1588,176L1719,176L1719,175L1829,175L1829,173L1831,173L1831,172L2278,172" tabindex="0">
				<title>l_r9gnozkd-rkl3znrk-wledz9en.4lxp7e2q</title>
			</path>
		</g>
		<g style="--index: 56;">
			<path d="M0,185L1030,185L1030,183L1097,183L1097,182L1098,182L1098,181L1100,181L1100,180L1615,180L1615,179L2278,179" tabindex="0">
				<title>l_rdqo542w-xd144xzd-38dz6v1n.814y45w1</title>
			</path>
		</g>
		<g style="--index: 57;">
			<path d="M0,185L1030,185L1030,184L1047,184L1047,183L1060,183L1060,182L1090,182L1090,181L1104,181L1104,180L1148,180L1148,178L1347,178L1347,177L1632,177L1632,176L1709,176L1709,175L1797,175L1797,174L1896,174L1896,173L1923,173L1923,172L2278,172" tabindex="0">
				<title>l_r9gnozkd-rkl3znrk-wledz9en.814y0701</title>
			</path>
		</g>
		<g style="--index: 58;">
			<path d="M0,185L1031,185L1031,184L1128,184L1128,183L1523,183L1523,182L1624,182L1624,181L2278,181" tabindex="0">
				<title>l_495zlx39-xd144xzd-38dz6v1n.z19md2jl</title>
			</path>
		</g>
		<g style="--index: 59;">
			<path d="M0,185L1031,185L1031,184L1034,184L1034,183L1041,183L1041,182L1047,182L1047,181L1061,181L1061,177L1092,177L1092,176L1117,176L1117,174L1150,174L1150,173L1183,173L1183,172L1186,172L1186,171L1238,171L1238,170L2101,170L2101,169L2278,169" tabindex="0">
				<title>l_r9gnozkd-rkl3znrk-wledz9en.jq606z3q</title>
			</path>
		</g>
		<g style="--index: 60;">
			<path d="M0,185L1032,185L1032,184L1035,184L1035,183L1122,183L1122,182L1149,182L1149,181L1259,181L1259,180L1608,180L1608,179L1611,179L1611,178L1755,178L1755,177L1756,177L1756,176L1757,176L1757,175L2163,175L2163,174L2278,174" tabindex="0">
				<title>l_r9gnozkd-rkl3znrk-wledz9en.z19mo80l</title>
			</path>
		</g>
		<g style="--index: 61;">
			<path d="M0,185L1032,185L1032,184L1099,184L1099,183L1121,183L1121,181L1251,181L1251,179L1270,179L1270,178L1286,178L1286,177L1691,177L1691,176L1964,176L1964,175L2054,175L2054,174L2113,174L2113,173L2278,173" tabindex="0">
				<title>l_ldykv1zw-rkl3znrk-wl3059ol.mlnwjz0l</title>
			</path>
		</g>
		<g style="--index: 62;">
			<path d="M0,185L1038,185L1038,184L1086,184L1086,183L1194,183L1194,182L1273,182L1273,181L2278,181" tabindex="0">
				<title>7dg65oxk-r8r1zm0n.gq7dw7vq</title>
			</path>
		</g>
		<g style="--index: 63;">
			<path d="M0,185L1041,185L1041,184L1085,184L1085,183L1270,183L1270,182L1278,182L1278,181L2278,181" tabindex="0">
				<title>xd1v018d-68k7x44l.zqo74r41</title>
			</path>
		</g>
		<g style="--index: 64;">
			<path d="M0,185L1048,185L1048,184L1197,184L1197,183L2137,183L2137,182L2278,182" tabindex="0">
				<title>l_rdqo542w-xd144xwd</title>
			</path>
		</g>
		<g style="--index: 65;">
			<path d="M0,185L1048,185L1048,184L1121,184L1121,183L1693,183L1693,182L2278,182" tabindex="0">
				<title>l_rdqo542w-xd144xzd-38dz6v1n.z19md2jl</title>
			</path>
		</g>
		<g style="--index: 66;">
			<path d="M0,185L1049,185L1049,184L1194,184L1194,183L2278,183" tabindex="0">
				<title>l_495zlx39-xd144xwd</title>
			</path>
		</g>
		<g style="--index: 67;">
			<path d="M0,185L1055,185L1055,184L1434,184L1434,183L2278,183" tabindex="0">
				<title>7dg65oxk-r8r1zm0n.xqk0drn1</title>
			</path>
		</g>
		<g style="--index: 68;">
			<path d="M0,185L1110,185L1110,184L1115,184L1115,183L1118,183L1118,179L1119,179L1119,178L1173,178L1173,177L1186,177L1186,176L1591,176L1591,175L2278,175" tabindex="0">
				<title>l_r9gnozkd-rkl3znrk-wledz9en.5lmk0gjq</title>
			</path>
		</g>
		<g style="--index: 69;">
			<path d="M0,185L1123,185L1123,184L1131,184L1131,183L1144,183L1144,182L1893,182L1893,181L1980,181L1980,180L1987,180L1987,179L2161,179L2161,178L2225,178L2225,177L2257,177L2257,176L2261,176L2261,175L2278,175" tabindex="0">
				<title>l_r9gn1qpd-9kv66g32-onv7r45n.810zdxoq</title>
			</path>
		</g>
		<g style="--index: 70;">
			<path d="M0,185L1123,185L1123,184L1963,184L1963,183L2278,183" tabindex="0">
				<title>l_o9xo3rp9-9kv66g32-onv7r45n.810zdxoq</title>
			</path>
		</g>
		<g style="--index: 71;">
			<path d="M0,185L1123,185L1123,184L1595,184L1595,183L2278,183" tabindex="0">
				<title>l_495zlx39-9kv66g32-onv7r45n.810zdxoq</title>
			</path>
		</g>
		<g style="--index: 72;">
			<path d="M0,185L1123,185L1123,184L2278,184" tabindex="0">
				<title>l_rdqo542w-9kv66g32-onv7r45n.810zdxoq</title>
			</path>
		</g>
		<g style="--index: 73;">
			<path d="M0,185L1177,185L1177,183L1178,183L1178,180L1208,180L1208,179L1310,179L1310,178L1763,178L1763,176L1896,176L1896,175L2051,175L2051,174L2278,174" tabindex="0">
				<title>rkl9qwrk-6njkg4el.z19p2o8l</title>
			</path>
		</g>
		<g style="--index: 74;">
			<path d="M0,185L1211,185L1211,184L1216,184L1216,183L1300,183L1300,182L1384,182L1384,181L1435,181L1435,180L1632,180L1632,179L2091,179L2091,178L2278,178" tabindex="0">
				<title>l_r9gn1qpd-xd144xzd-38dz6v1n.5leogx5q</title>
			</path>
		</g>
		<g style="--index: 75;">
			<path d="M0,185L1213,185L1213,184L2163,184L2163,183L2278,183" tabindex="0">
				<title>l_o9xo3rp9-xd144xzd-38dz6v1n.5leogx5q</title>
			</path>
		</g>
		<g style="--index: 76;">
			<path d="M0,185L1223,185L1223,183L1623,183L1623,182L2122,182L2122,181L2278,181" tabindex="0">
				<title>l_495zlx39-xd144xzd-38dz6v1n.5leogx5q</title>
			</path>
		</g>
		<g style="--index: 77;">
			<path d="M0,185L1233,185L1233,184L2149,184L2149,183L2278,183" tabindex="0">
				<title>l_rdqo542w-xd144xzd-38dz6v1n.5leogx5q</title>
			</path>
		</g>
		<g style="--index: 78;">
			<path d="M0,185L1436,185L1436,184L1729,184L1729,183L2278,183" tabindex="0">
				<title>9kv6l5e2-ql6rezjl.9qj3pk7l</title>
			</path>
		</g>
		<g style="--index: 79;">
			<path d="M0,185L1528,185L1528,184L1538,184L1538,183L1703,183L1703,182L1799,182L1799,181L1801,181L1801,180L1842,180L1842,178L1852,178L1852,177L1870,177L1870,176L1878,176L1878,174L2055,174L2055,173L2078,173L2078,172L2086,172L2086,171L2124,171L2124,170L2188,170L2188,169L2213,169L2213,168L2214,168L2214,167L2229,167L2229,166L2230,166L2230,165L2231,165L2231,164L2232,164L2232,163L2278,163" tabindex="0">
				<title>l_495zlx39-9d8eewld-2lgr793n.jqz35pg1</title>
			</path>
		</g>
		<g style="--index: 80;">
			<path d="M0,185L1597,185L1597,184L1672,184L1672,183L1697,183L1697,182L2278,182" tabindex="0">
				<title>mke75px2-yn2mz5d8.4lx6574l</title>
			</path>
		</g>
		<g style="--index: 81;">
			<path d="M0,185L1769,185L1769,184L1770,184L1770,183L1771,183L1771,182L1784,182L1784,181L1789,181L1789,180L1790,180L1790,179L1791,179L1791,178L1793,178L1793,177L1794,177L1794,176L1796,176L1796,175L1797,175L1797,173L1798,173L1798,172L1801,172L1801,171L1806,171L1806,170L1807,170L1807,169L1837,169L1837,168L1839,168L1839,167L1840,167L1840,166L1841,166L1841,165L1842,165L1842,164L1843,164L1843,163L1847,163L1847,161L1879,161L1879,160L1884,160L1884,159L1890,159L1890,158L1891,158L1891,157L1894,157L1894,156L1900,156L1900,155L1901,155L1901,154L1904,154L1904,153L1908,153L1908,152L1909,152L1909,151L1918,151L1918,149L1920,149L1920,148L1927,148L1927,147L1930,147L1930,146L1931,146L1931,145L1932,145L1932,144L1933,144L1933,142L1934,142L1934,141L1938,141L1938,140L1944,140L1944,139L1950,139L1950,138L1953,138L1953,137L1967,137L1967,136L1973,136L1973,135L1977,135L1977,134L1980,134L1980,133L1985,133L1985,132L1987,132L1987,131L1989,131L1989,130L1991,130L1991,129L1994,129L1994,128L2000,128L2000,127L2005,127L2005,125L2018,125L2018,123L2019,123L2019,122L2024,122L2024,121L2025,121L2025,120L2030,120L2030,119L2031,119L2031,118L2032,118L2032,117L2036,117L2036,116L2038,116L2038,115L2039,115L2039,114L2042,114L2042,113L2045,113L2045,112L2052,112L2052,111L2088,111L2088,110L2092,110L2092,108L2095,108L2095,107L2097,107L2097,106L2099,106L2099,105L2102,105L2102,104L2106,104L2106,103L2109,103L2109,102L2112,102L2112,101L2118,101L2118,100L2125,100L2125,99L2126,99L2126,98L2134,98L2134,97L2139,97L2139,96L2147,96L2147,95L2154,95L2154,94L2160,94L2160,93L2164,93L2164,91L2203,91L2203,90L2248,90L2248,89L2256,89L2256,88L2265,88L2265,87L2266,87L2266,85L2267,85L2267,84L2270,84L2270,83L2278,83" tabindex="0">
				<title>xd17x94d-9l71pv4l.21gpn081</title>
			</path>
		</g>
		<g style="--index: 82;">
			<path d="M0,185L1770,185L1770,184L1787,184L1787,183L1791,183L1791,182L1795,182L1795,181L1799,181L1799,180L1805,180L1805,179L1818,179L1818,178L1823,178L1823,176L1828,176L1828,175L1836,175L1836,174L1837,174L1837,172L1842,172L1842,171L1855,171L1855,170L1860,170L1860,169L1861,169L1861,168L1862,168L1862,166L1866,166L1866,164L1867,164L1867,163L1876,163L1876,162L1884,162L1884,161L1885,161L1885,160L1887,160L1887,159L1889,159L1889,158L1894,158L1894,156L1898,156L1898,155L1909,155L1909,154L1910,154L1910,152L1914,152L1914,151L1918,151L1918,150L1920,150L1920,149L1923,149L1923,148L1924,148L1924,147L1935,147L1935,146L1943,146L1943,145L1944,145L1944,144L1945,144L1945,143L1952,143L1952,142L1954,142L1954,141L1959,141L1959,140L1966,140L1966,139L1967,139L1967,138L1969,138L1969,137L1979,137L1979,136L1980,136L1980,135L1987,135L1987,134L1993,134L1993,133L2000,133L2000,132L2003,132L2003,131L2023,131L2023,130L2024,130L2024,128L2026,128L2026,127L2034,127L2034,126L2075,126L2075,125L2086,125L2086,124L2087,124L2087,123L2093,123L2093,122L2108,122L2108,121L2114,121L2114,120L2120,120L2120,118L2126,118L2126,117L2134,117L2134,116L2161,116L2161,115L2177,115L2177,114L2190,114L2190,113L2215,113L2215,112L2254,112L2254,111L2257,111L2257,110L2258,110L2258,109L2278,109L2278,108L2278,108" tabindex="0">
				<title>l_r9gn1qpd-9d8eewld-0nwoqwkl.klr25nj1</title>
			</path>
		</g>
		<g style="--index: 83;">
			<path d="M0,185L1807,185L1807,184L1814,184L1814,183L1869,183L1869,182L1874,182L1874,181L1875,181L1875,180L1876,180L1876,179L1877,179L1877,177L1878,177L1878,175L1898,175L1898,174L1904,174L1904,173L1914,173L1914,172L1915,172L1915,171L1939,171L1939,169L1940,169L1940,168L1960,168L1960,167L1964,167L1964,165L1973,165L1973,164L1974,164L1974,163L1980,163L1980,162L1987,162L1987,161L1988,161L1988,160L2015,160L2015,159L2049,159L2049,158L2094,158L2094,157L2162,157L2162,156L2246,156L2246,155L2259,155L2259,154L2278,154" tabindex="0">
				<title>l_o9xo3rp9-9d8eewld-7896y468.4qywn341</title>
			</path>
		</g>
		<g style="--index: 84;">
			<path d="M0,185L1807,185L1807,184L1851,184L1851,183L1925,183L1925,182L1926,182L1926,181L1957,181L1957,180L2120,180L2120,179L2227,179L2227,178L2230,178L2230,177L2272,177L2272,176L2278,176" tabindex="0">
				<title>l_495zlx39-9d8eewld-2lgr793n.21gp48n1</title>
			</path>
		</g>
		<g style="--index: 85;">
			<path d="M0,185L1808,185L1808,184L1837,184L1837,183L1840,183L1840,182L1888,182L1888,181L1929,181L1929,180L2029,180L2029,179L2167,179L2167,178L2234,178L2234,177L2278,177" tabindex="0">
				<title>7dg65oxk-r8r1zm0n.5q89kv31</title>
			</path>
		</g>
		<g style="--index: 86;">
			<path d="M0,185L1813,185L1813,184L1861,184L1861,183L1869,183L1869,182L1870,182L1870,181L1877,181L1877,180L1891,180L1891,179L1907,179L1907,178L1908,178L1908,177L1980,177L1980,176L2157,176L2157,175L2278,175" tabindex="0">
				<title>l_rdqo542w-9d8eewld-wl30kw9l.810dx3wl</title>
			</path>
		</g>
		<g style="--index: 87;">
			<path d="M0,185L1832,185L1832,184L1838,184L1838,183L1932,183L1932,182L2053,182L2053,181L2058,181L2058,180L2220,180L2220,179L2278,179" tabindex="0">
				<title>xd1v018d-68k7x44l.mlno8vjq</title>
			</path>
		</g>
		<g style="--index: 88;">
			<path d="M0,185L1847,185L1847,184L1866,184L1866,183L1869,183L1869,181L1963,181L1963,180L1974,180L1974,179L1980,179L1980,178L1984,178L1984,177L1987,177L1987,176L1993,176L1993,175L2014,175L2014,174L2084,174L2084,173L2278,173" tabindex="0">
				<title>l_495zlx39-9d8eewld-2lgr793n.mlno5r0q</title>
			</path>
		</g>
		<g style="--index: 89;">
			<path d="M0,185L1859,185L1859,184L2278,184" tabindex="0">
				<title>rkl9qwrk-6njkg4el.81p5ym8l</title>
			</path>
		</g>
		<g style="--index: 90;">
			<path d="M0,185L1896,185L1896,184L1979,184L1979,183L2163,183L2163,182L2195,182L2195,181L2221,181L2221,180L2222,180L2222,179L2269,179L2269,178L2278,178" tabindex="0">
				<title>l_r9gn1qpd-xd144xzd-38dz6v1n.q755eky1</title>
			</path>
		</g>
		<g style="--index: 91;">
			<path d="M0,185L1921,185L1921,184L2014,184L2014,183L2017,183L2017,182L2046,182L2046,181L2278,181" tabindex="0">
				<title>l_o9xo3rp9-xd144xzd-38dz6v1n.q755eky1</title>
			</path>
		</g>
		<g style="--index: 92;">
			<path d="M0,185L1979,185L1979,183L1981,183L1981,182L2007,182L2007,181L2062,181L2062,180L2166,180L2166,179L2168,179L2168,178L2169,178L2169,177L2278,177" tabindex="0">
				<title>l_gdr5onk9-rkl3znrk-rn1g06dn.qj77o50q</title>
			</path>
		</g>
		<g style="--index: 93;">
			<path d="M0,185L2004,185L2004,184L2015,184L2015,183L2016,183L2016,182L2017,182L2017,180L2022,180L2022,179L2024,179L2024,178L2025,178L2025,177L2029,177L2029,176L2030,176L2030,175L2031,175L2031,174L2039,174L2039,173L2041,173L2041,172L2042,172L2042,171L2047,171L2047,170L2049,170L2049,169L2055,169L2055,168L2091,168L2091,167L2096,167L2096,166L2097,166L2097,165L2098,165L2098,164L2152,164L2152,163L2162,163L2162,162L2165,162L2165,161L2177,161L2177,160L2180,160L2180,159L2211,159L2211,158L2214,158L2214,157L2278,157" tabindex="0">
				<title>9kv6l5e2-ql6rezjl.1dk62o3l</title>
			</path>
		</g>
		<g style="--index: 94;">
			<path d="M0,185L2018,185L2018,184L2021,184L2021,183L2025,183L2025,182L2028,182L2028,181L2030,181L2030,180L2031,180L2031,179L2047,179L2047,178L2049,178L2049,177L2050,177L2050,176L2055,176L2055,175L2062,175L2062,174L2115,174L2115,173L2132,173L2132,172L2241,172L2241,171L2278,171" tabindex="0">
				<title>rkl9qwrk-6njkg4el.lr3x560l</title>
			</path>
		</g>
		<g style="--index: 95;">
			<path d="M0,185L2055,185L2055,184L2061,184L2061,183L2062,183L2062,181L2080,181L2080,180L2120,180L2120,179L2278,179" tabindex="0">
				<title>l_xd0mnpjw-rkl3znrk-wley4prn.192xe54q</title>
			</path>
		</g>
		<g style="--index: 96;">
			<path d="M0,185L2068,185L2068,183L2130,183L2130,182L2278,182" tabindex="0">
				<title>l_495zlx39-xd144xzd-38dz6v1n.q755eky1</title>
			</path>
		</g>
		<g style="--index: 97;">
			<path d="M0,185L2077,185L2077,184L2278,184" tabindex="0">
				<title>l_rdqo542w-xd144xzd-38dz6v1n.q755eky1</title>
			</path>
		</g>
		<g style="--index: 98;">
			<path d="M0,185L2101,185L2101,184L2164,184L2164,183L2165,183L2165,182L2168,182L2168,181L2278,181" tabindex="0">
				<title>l_gdr5onk9-rkl3znrk-rn1g06dn.lmooe9y1</title>
			</path>
		</g>
		<g style="--index: 99;">
			<path d="M0,185L2101,185L2101,184L2165,184L2165,183L2168,183L2168,182L2278,182" tabindex="0">
				<title>l_gdr5onk9-rkl3znrk-rn1g06dn.q655wjnl</title>
			</path>
		</g>
		<g style="--index: 100;">
			<path d="M0,185L2133,185L2133,184L2278,184" tabindex="0">
				<title>l_495zlx39-9d8eewld-2lgr793n.qj7zdm3q</title>
			</path>
		</g>
		<g style="--index: 101;">
			<path d="M0,185L2164,185L2164,184L2167,184L2167,183L2189,183L2189,182L2191,182L2191,181L2260,181L2260,180L2278,180" tabindex="0">
				<title>l_ldykv1zw-rkl3znrk-wl3059ol.lx5xe821</title>
			</path>
		</g>
		<g style="--index: 102;">
			<path d="M0,185L2166,185L2166,184L2185,184L2185,183L2186,183L2186,182L2189,182L2189,181L2216,181L2216,180L2278,180" tabindex="0">
				<title>l_ldykv1zw-rkl3znrk-wl3059ol.qvv4er7q</title>
			</path>
		</g>
		<g style="--index: 103;">
			<path d="M0,185L2167,185L2167,184L2189,184L2189,183L2278,183L2278,182L2278,182" tabindex="0">
				<title>l_ldykv1zw-rkl3znrk-wl3059ol.le2km45l</title>
			</path>
		</g>
		<g style="--index: 104;">
			<path d="M0,185L2167,185L2167,184L2189,184L2189,183L2258,183L2258,182L2278,182" tabindex="0">
				<title>l_ldykv1zw-rkl3znrk-wl3059ol.q5vog5ml</title>
			</path>
		</g>
	</g>
</svg>
