<svg xmlns="http://www.w3.org/2000/svg" viewBox="0 0 2278 52" preserveAspectRatio="none" lang="en" style="color-scheme: dark light;">
		<title>Record count by player</title>
		<style>
			svg {
				background: var(--canvas-background);
				fill: var(--canvas-background);
				stroke: var(--canvas-foreground);
				stroke-linejoin: round;
				stroke-linecap: round;
			}
			g &gt; path[tabindex] {
				vector-effect: non-scaling-stroke;
				fill: none;
				stroke: hsl(calc(var(--index) / var(--count) * 360), 50%, 50%);
				cursor: help;
			}
			g:is(:hover, :focus-within) &gt; path[tabindex] {
				stroke: var(--canvas-foreground);
			}
			g &gt; path[tabindex]:is(:hover, :focus-within) {
				outline: 0;
			}
			g &gt; path[tabindex]:first-of-type {
				stroke-width: 2;
			}
			g &gt; path[tabindex]:first-of-type:is(:hover, :focus-within) {
				stroke-width: 4;
			}
			g &gt; path[tabindex]:first-of-type:not(:last-of-type) {
				stroke-dasharray: 4 8;
			}
			g &gt; rect {
				vector-effect: non-scaling-stroke;
				fill: none;
				stroke: none;
				pointer-events: none;
			}
			g &gt; path[tabindex]:first-of-type:is(:hover, :focus-within) + rect {
				fill: var(--highlighted);
			}
			g &gt; path[tabindex]:first-of-type ~ path[tabindex] {
				stroke-width: 8;
			}
			g &gt; path[tabindex]:first-of-type ~ path[tabindex]:is(:hover, :focus-within) {
				stroke-width: 16;
			}
			g &gt; line {
				vector-effect: non-scaling-stroke;
				fill: none;
				stroke: none;
				stroke-width: 2;
				stroke-dasharray: 4 8;
				pointer-events: none;
			}
			g &gt; path[tabindex]:first-of-type:is(:hover, :focus-within) + rect + path[tabindex] + line,
			g &gt; path[tabindex]:first-of-type:is(:hover, :focus-within) + rect + path[tabindex] + line + line,
			g &gt; path[tabindex]:first-of-type:is(:hover, :focus-within) ~ path[tabindex]:last-of-type + line,
			g &gt; path[tabindex]:first-of-type:is(:hover, :focus-within) ~ path[tabindex]:last-of-type + line + line,
			g &gt; path[tabindex]:first-of-type ~ path[tabindex]:is(:hover, :focus-within) + line,
			g &gt; path[tabindex]:first-of-type ~ path[tabindex]:is(:hover, :focus-within) + line + line {
				stroke: var(--faded);
			}
			@media (prefers-color-scheme: dark) {
				:root {
					--canvas-background: #000;
					--canvas-foreground: #ccc;
					--highlighted: #6663;
					--faded: #9993;
				}
			}
			@media (prefers-color-scheme: light) {
				:root {
					--canvas-background: #fff;
					--canvas-foreground: #333;
					--highlighted: #9993;
					--faded: #6663;
				}
			}
		</style>
		<g style="--count: 65;">
		<g style="--index: 0;">
			<path d="M0,52L0,52L0,51L1,51L1,48L5,48L5,51L7,51L7,49L9,49L9,44L10,44L10,47L11,47L11,46L14,46L14,47L16,47L16,46L17,46L17,46L18,46L18,46L19,46L19,46L23,46L23,46L24,46L24,47L25,47L25,47L26,47L26,48L28,48L28,49L30,49L30,47L31,47L31,45L32,45L32,44L57,44L57,42L59,42L59,41L60,41L60,39L66,39L66,40L69,40L69,41L70,41L70,42L71,42L71,43L93,43L93,42L94,42L94,43L95,43L95,44L99,44L99,45L101,45L101,46L103,46L103,47L104,47L104,48L178,48L178,47L181,47L181,45L182,45L182,47L183,47L183,48L186,48L186,50L187,50L187,51L188,51L188,52L416,52L416,51L417,51L417,51L418,51L418,48L464,48L464,47L556,47L556,48L759,48L759,49L842,49L842,50L895,50L895,51L995,51L995,52L2278,52" tabindex="0">
				<title>qj2pq1p8</title>
			</path>
		</g>
		<g style="--index: 1;">
			<path d="M0,52L1,52L1,51L5,51L5,52L83,52L83,51L94,51L94,51L95,51L95,49L97,49L97,50L101,50L101,52L175,52L175,51L180,51L180,52L2278,52" tabindex="0">
				<title>e8e935oj</title>
			</path>
		</g>
		<g style="--index: 2;">
			<path d="M0,52L1,52L1,51L106,51L106,52L2278,52" tabindex="0">
				<title>7j47r25j</title>
			</path>
		</g>
		<g style="--index: 3;">
			<path d="M0,52L5,52L5,47L6,47L6,47L7,47L7,47L9,47L9,48L11,48L11,49L14,49L14,48L16,48L16,49L31,49L31,50L104,50L104,51L106,51L106,52L2278,52" tabindex="0">
				<title>5j5gggn8</title>
			</path>
		</g>
		<g style="--index: 4;">
			<path d="M0,52L7,52L7,51L8,51L8,51L16,51L16,51L18,51L18,50L27,50L27,51L57,51L57,52L66,52L66,51L91,51L91,50L93,50L93,50L94,50L94,52L95,52L95,51L181,51L181,52L235,52L235,52L238,52L238,51L248,51L248,52L2278,52" tabindex="0">
				<title>48grel1x</title>
			</path>
		</g>
		<g style="--index: 5;">
			<path d="M0,52L10,52L10,49L11,49L11,49L18,49L18,50L25,50L25,51L59,51L59,52L2278,52" tabindex="0">
				<title>0jm3onz8</title>
			</path>
		</g>
		<g style="--index: 6;">
			<path d="M0,52L24,52L24,51L25,51L25,50L26,50L26,49L27,49L27,48L28,48L28,46L30,46L30,48L31,48L31,49L60,49L60,50L99,50L99,52L2278,52" tabindex="0">
				<title>kj9kz6r8</title>
			</path>
		</g>
		<g style="--index: 7;">
			<path d="M0,52L69,52L69,51L70,51L70,50L71,50L71,49L83,49L83,50L91,50L91,48L92,48L92,47L93,47L93,46L94,46L94,41L95,41L95,43L97,43L97,42L99,42L99,43L100,43L100,45L101,45L101,46L103,46L103,47L106,47L106,48L178,48L178,49L183,49L183,52L235,52L235,51L238,51L238,52L265,52L265,51L374,51L374,52L2278,52" tabindex="0">
				<title>18qg9ndx</title>
			</path>
		</g>
		<g style="--index: 8;">
			<path d="M0,52L99,52L99,48L100,48L100,46L101,46L101,42L103,42L103,40L104,40L104,38L105,38L105,38L106,38L106,35L107,35L107,35L175,35L175,36L180,36L180,35L181,35L181,36L182,36L182,34L183,34L183,30L186,30L186,27L187,27L187,26L188,26L188,25L248,25L248,24L250,24L250,24L251,24L251,24L252,24L252,24L253,24L253,24L255,24L255,24L260,24L260,24L263,24L263,24L374,24L374,23L389,23L389,23L416,23L416,24L418,24L418,26L434,26L434,27L464,27L464,28L574,28L574,25L578,25L578,24L643,24L643,25L840,25L840,26L844,26L844,26L846,26L846,25L853,25L853,27L854,27L854,28L857,28L857,29L862,29L862,30L863,30L863,31L869,31L869,32L870,32L870,33L871,33L871,35L875,35L875,38L888,38L888,39L923,39L923,40L957,40L957,39L959,39L959,37L961,37L961,36L963,36L963,33L964,33L964,34L965,34L965,33L966,33L966,32L967,32L967,30L968,30L968,31L970,31L970,30L996,30L996,31L997,31L997,32L1005,32L1005,33L1013,33L1013,34L1019,34L1019,35L1023,35L1023,36L1027,36L1027,37L1030,37L1030,38L1047,38L1047,41L1048,41L1048,42L1054,42L1054,44L1055,44L1055,44L1056,44L1056,45L1058,45L1058,44L1059,44L1059,44L1078,44L1078,45L1094,45L1094,46L1103,46L1103,47L1104,47L1104,49L1111,49L1111,50L1143,50L1143,49L1146,49L1146,48L1151,48L1151,49L1182,49L1182,50L1252,50L1252,51L1373,51L1373,52L2278,52" tabindex="0">
				<title>y8dgoe98</title>
			</path>
		</g>
		<g style="--index: 9;">
			<path d="M0,52L416,52L416,51L854,51L854,52L2278,52" tabindex="0">
				<title>1xye35n8</title>
			</path>
		</g>
		<g style="--index: 10;">
			<path d="M0,52L434,52L434,51L435,51L435,51L524,51L524,52L2278,52" tabindex="0">
				<title>dx3k6eej</title>
			</path>
		</g>
		<g style="--index: 11;">
			<path d="M0,52L524,52L524,51L556,51L556,50L558,50L558,50L742,50L742,49L839,49L839,49L872,49L872,50L877,50L877,50L888,50L888,50L890,50L890,51L997,51L997,50L1024,50L1024,50L1041,50L1041,49L1052,49L1052,50L1053,50L1053,49L1054,49L1054,46L1055,46L1055,45L1056,45L1056,44L1073,44L1073,43L1074,43L1074,43L1078,43L1078,43L1085,43L1085,44L1094,44L1094,45L1095,45L1095,46L1103,46L1103,45L1106,45L1106,46L1112,46L1112,47L1141,47L1141,48L1142,48L1142,47L1143,47L1143,48L1145,48L1145,49L1154,49L1154,50L1176,50L1176,49L1177,49L1177,48L1178,48L1178,49L1180,49L1180,50L1276,50L1276,49L1316,49L1316,50L1434,50L1434,51L1771,51L1771,50L1904,50L1904,51L1922,51L1922,52L1950,52L1950,51L1953,51L1953,51L1956,51L1956,50L1989,50L1989,51L2085,51L2085,50L2099,50L2099,51L2167,51L2167,50L2278,50" tabindex="0">
				<title>0jmw6wex</title>
			</path>
		</g>
		<g style="--index: 12;">
			<path d="M0,52L643,52L643,51L714,51L714,51L857,51L857,52L2278,52" tabindex="0">
				<title>7j4y0zmj</title>
			</path>
		</g>
		<g style="--index: 13;">
			<path d="M0,52L759,52L759,51L766,51L766,51L769,51L769,51L777,51L777,51L823,51L823,51L842,51L842,50L862,50L862,49L864,49L864,50L868,50L868,51L870,51L870,50L873,50L873,51L892,51L892,50L894,50L894,49L895,49L895,48L896,48L896,47L897,47L897,47L901,47L901,49L906,49L906,49L963,49L963,50L968,50L968,49L970,49L970,50L1036,50L1036,51L1091,51L1091,52L2278,52" tabindex="0">
				<title>8146r4r8</title>
			</path>
		</g>
		<g style="--index: 14;">
			<path d="M0,52L840,52L840,51L853,51L853,49L854,49L854,47L855,47L855,45L857,45L857,43L863,43L863,42L864,42L864,41L865,41L865,42L868,42L868,41L869,41L869,39L870,39L870,38L871,38L871,35L872,35L872,36L873,36L873,35L875,35L875,32L888,32L888,31L890,31L890,30L894,30L894,32L896,32L896,33L922,33L922,34L923,34L923,33L925,33L925,34L931,34L931,35L959,35L959,36L964,36L964,35L965,35L965,39L966,39L966,40L974,40L974,40L994,40L994,39L995,39L995,38L998,38L998,37L1005,37L1005,36L1013,36L1013,35L1015,35L1015,35L1019,35L1019,34L1023,34L1023,33L1024,33L1024,32L1025,32L1025,31L1027,31L1027,30L1028,30L1028,32L1029,32L1029,31L1030,31L1030,30L1031,30L1031,29L1032,29L1032,28L1033,28L1033,29L1036,29L1036,27L1037,27L1037,28L1038,28L1038,27L1040,27L1040,28L1041,28L1041,29L1042,29L1042,30L1047,30L1047,36L1050,36L1050,37L1051,37L1051,36L1054,36L1054,37L1055,37L1055,38L1058,38L1058,39L1059,39L1059,40L1061,40L1061,41L1068,41L1068,42L1076,42L1076,43L1080,43L1080,45L1084,45L1084,46L1085,46L1085,47L1086,47L1086,48L1095,48L1095,47L1097,47L1097,44L1098,44L1098,48L1099,48L1099,46L1104,46L1104,47L1115,47L1115,48L1118,48L1118,48L1121,48L1121,51L1122,51L1122,52L1123,52L1123,48L1131,48L1131,49L1190,49L1190,48L1191,48L1191,47L1194,47L1194,45L1197,45L1197,44L1251,44L1251,42L1252,42L1252,41L1262,41L1262,42L1270,42L1270,42L1273,42L1273,42L1274,42L1274,41L1278,41L1278,41L1285,41L1285,42L1286,42L1286,43L1316,43L1316,42L1434,42L1434,41L1436,41L1436,40L1520,40L1520,39L1523,39L1523,38L1595,38L1595,39L1597,39L1597,38L1672,38L1672,38L1686,38L1686,37L1693,37L1693,36L1697,36L1697,37L1729,37L1729,38L1769,38L1769,37L1771,37L1771,38L1808,38L1808,37L1859,37L1859,36L1888,36L1888,37L1980,37L1980,39L2053,39L2053,38L2091,38L2091,37L2122,37L2122,36L2149,36L2149,35L2278,35" tabindex="0">
				<title>x356nrej</title>
			</path>
		</g>
		<g style="--index: 15;">
			<path d="M0,52L865,52L865,51L963,51L963,52L2278,52" tabindex="0">
				<title>8rp1o2qj</title>
			</path>
		</g>
		<g style="--index: 16;">
			<path d="M0,52L872,52L872,50L957,50L957,51L967,51L967,52L2278,52" tabindex="0">
				<title>xz9mo9n8</title>
			</path>
		</g>
		<g style="--index: 17;">
			<path d="M0,52L894,52L894,51L895,51L895,50L901,50L901,48L959,48L959,49L961,49L961,50L1054,50L1054,51L1099,51L1099,52L2278,52" tabindex="0">
				<title>qjo6dp0j</title>
			</path>
		</g>
		<g style="--index: 18;">
			<path d="M0,52L922,52L922,50L925,50L925,49L963,49L963,50L966,50L966,50L1032,50L1032,51L1048,51L1048,52L2278,52" tabindex="0">
				<title>18vm2258</title>
			</path>
		</g>
		<g style="--index: 19;">
			<path d="M0,52L931,52L931,51L971,51L971,51L987,51L987,51L1009,51L1009,50L1010,50L1010,49L1023,49L1023,47L1027,47L1027,46L1028,46L1028,43L1030,43L1030,41L1031,41L1031,40L1036,40L1036,41L1037,41L1037,40L1041,40L1041,39L1042,39L1042,38L1045,38L1045,39L1046,39L1046,38L1047,38L1047,41L1048,41L1048,39L1049,39L1049,37L1052,37L1052,36L1054,36L1054,33L1055,33L1055,32L1056,32L1056,31L1058,31L1058,32L1059,32L1059,31L1060,31L1060,31L1061,31L1061,30L1063,30L1063,30L1066,30L1066,31L1070,31L1070,32L1071,32L1071,29L1074,29L1074,29L1076,29L1076,27L1077,27L1077,27L1078,27L1078,26L1079,26L1079,25L1080,25L1080,23L1082,23L1082,22L1083,22L1083,22L1085,22L1085,22L1086,22L1086,20L1087,20L1087,19L1088,19L1088,17L1089,17L1089,17L1090,17L1090,18L1091,18L1091,18L1092,18L1092,17L1094,17L1094,16L1095,16L1095,18L1096,18L1096,19L1097,19L1097,20L1098,20L1098,17L1103,17L1103,18L1104,18L1104,18L1105,18L1105,19L1111,19L1111,15L1112,15L1112,11L1114,11L1114,12L1115,12L1115,10L1116,10L1116,5L1117,5L1117,4L1118,4L1118,4L1119,4L1119,3L1125,3L1125,6L1130,6L1130,5L1131,5L1131,1L1132,1L1132,3L1133,3L1133,2L1134,2L1134,1L1138,1L1138,2L1140,2L1140,4L1141,4L1141,3L1142,3L1142,4L1143,4L1143,5L1144,5L1144,6L1145,6L1145,9L1146,9L1146,10L1150,10L1150,11L1151,11L1151,12L1156,12L1156,13L1164,13L1164,14L1173,14L1173,15L1174,15L1174,14L1176,14L1176,15L1178,15L1178,15L1180,15L1180,14L1182,14L1182,15L1183,15L1183,17L1186,17L1186,19L1190,19L1190,20L1191,20L1191,21L1194,21L1194,23L1197,23L1197,24L1199,24L1199,26L1270,26L1270,27L1276,27L1276,28L1287,28L1287,25L1288,25L1288,24L1306,24L1306,25L1312,25L1312,26L1369,26L1369,27L1371,27L1371,28L1377,28L1377,29L1412,29L1412,30L1438,30L1438,31L1477,31L1477,32L1514,32L1514,33L1515,33L1515,35L1516,35L1516,36L1520,36L1520,37L1523,37L1523,38L1594,38L1594,39L1600,39L1600,40L1608,40L1608,42L1609,42L1609,41L1615,41L1615,43L1629,43L1629,44L1686,44L1686,45L1693,45L1693,46L1728,46L1728,47L1763,47L1763,48L1953,48L1953,48L1979,48L1979,45L1980,45L1980,38L1981,38L1981,39L1984,39L1984,40L1987,40L1987,42L1993,42L1993,43L2031,43L2031,41L2055,41L2055,40L2061,40L2061,41L2098,41L2098,42L2157,42L2157,43L2177,43L2177,42L2180,42L2180,43L2278,43" tabindex="0">
				<title>xkon93k8</title>
			</path>
		</g>
		<g style="--index: 20;">
			<path d="M0,52L965,52L965,49L967,49L967,50L996,50L996,49L1023,49L1023,50L1047,50L1047,39L1048,39L1048,37L1049,37L1049,38L1052,38L1052,38L1053,38L1053,39L1054,39L1054,41L1055,41L1055,42L1061,42L1061,42L1071,42L1071,43L1073,43L1073,44L1076,44L1076,45L1078,45L1078,46L1082,46L1082,47L1088,47L1088,48L1090,48L1090,49L1092,49L1092,50L1140,50L1140,49L1141,49L1141,48L1143,48L1143,47L1144,47L1144,45L1145,45L1145,41L1146,41L1146,40L1147,40L1147,41L1151,41L1151,39L1154,39L1154,38L1156,38L1156,37L1158,37L1158,36L1164,36L1164,35L1166,35L1166,36L1168,36L1168,35L1173,35L1173,35L1174,35L1174,36L1178,36L1178,35L1182,35L1182,34L1186,34L1186,32L1199,32L1199,30L1211,30L1211,29L1213,29L1213,28L1223,28L1223,27L1233,27L1233,26L1238,26L1238,25L1286,25L1286,24L1288,24L1288,25L1305,25L1305,23L1312,23L1312,22L1347,22L1347,23L1369,23L1369,22L1384,22L1384,23L1438,23L1438,22L1476,22L1476,22L1477,22L1477,21L1514,21L1514,20L1515,20L1515,17L1516,17L1516,16L1591,16L1591,15L1594,15L1594,16L1599,16L1599,17L1600,17L1600,14L1601,14L1601,15L1602,15L1602,15L1608,15L1608,12L1609,12L1609,13L1611,13L1611,12L1619,12L1619,13L1620,13L1620,12L1622,12L1622,13L1623,13L1623,13L1628,13L1628,12L1629,12L1629,12L1631,12L1631,11L1632,11L1632,10L1634,10L1634,10L1636,10L1636,12L1637,12L1637,11L1640,11L1640,12L1641,12L1641,10L1647,10L1647,12L1691,12L1691,10L1703,10L1703,11L1705,11L1705,11L1755,11L1755,12L1756,12L1756,11L1757,11L1757,12L1764,12L1764,13L1766,13L1766,14L1775,14L1775,15L1787,15L1787,16L1791,16L1791,18L1807,18L1807,19L1817,19L1817,20L1828,20L1828,21L1893,21L1893,25L1894,25L1894,26L1899,26L1899,27L1908,27L1908,28L1911,28L1911,29L1913,29L1913,30L1914,30L1914,32L1923,32L1923,33L1924,33L1924,34L1925,34L1925,35L1930,35L1930,36L1940,36L1940,37L1948,37L1948,38L1959,38L1959,39L1963,39L1963,40L1964,40L1964,41L2054,41L2054,42L2118,42L2118,43L2149,43L2149,44L2175,44L2175,45L2176,45L2176,46L2207,46L2207,47L2278,47" tabindex="0">
				<title>j2yr9lp8</title>
			</path>
		</g>
		<g style="--index: 21;">
			<path d="M0,52L1026,52L1026,51L1032,51L1032,49L1033,49L1033,48L1046,48L1046,49L1047,49L1047,50L1048,50L1048,49L1061,49L1061,49L1077,49L1077,49L1086,49L1086,49L1099,49L1099,51L1110,51L1110,50L1111,50L1111,51L1112,51L1112,50L1118,50L1118,51L1144,51L1144,52L2278,52" tabindex="0">
				<title>8e94kq6j</title>
			</path>
		</g>
		<g style="--index: 22;">
			<path d="M0,52L1040,52L1040,51L1050,51L1050,50L1051,50L1051,51L1070,51L1070,51L1071,51L1071,52L1085,52L1085,51L1086,51L1086,52L1096,52L1096,51L1097,51L1097,52L1125,52L1125,51L1131,51L1131,52L1186,52L1186,51L1286,51L1286,50L1287,50L1287,51L1591,51L1591,52L2278,52" tabindex="0">
				<title>j0np7or8</title>
			</path>
		</g>
		<g style="--index: 23;">
			<path d="M0,52L1045,52L1045,51L1046,51L1046,51L1047,51L1047,49L1048,49L1048,50L1058,50L1058,49L1061,49L1061,49L1066,49L1066,48L1068,48L1068,47L1070,47L1070,46L1071,46L1071,47L1078,47L1078,46L1079,46L1079,47L1084,47L1084,46L1085,46L1085,45L1086,45L1086,45L1087,45L1087,46L1088,46L1088,47L1090,47L1090,46L1091,46L1091,46L1092,46L1092,46L1095,46L1095,45L1097,45L1097,46L1101,46L1101,45L1102,45L1102,46L1106,46L1106,45L1108,45L1108,46L1116,46L1116,47L1117,47L1117,48L1118,48L1118,47L1119,47L1119,47L1130,47L1130,48L1146,48L1146,49L1147,49L1147,48L1166,48L1166,47L1168,47L1168,48L1173,48L1173,47L1183,47L1183,46L1186,46L1186,47L1238,47L1238,48L1312,48L1312,48L1347,48L1347,47L1576,47L1576,48L1608,48L1608,49L1617,49L1617,50L1632,50L1632,51L1697,51L1697,50L1730,50L1730,51L2278,51" tabindex="0">
				<title>x7q00668</title>
			</path>
		</g>
		<g style="--index: 24;">
			<path d="M0,52L1055,52L1055,51L1056,51L1056,52L1412,52L1412,51L1512,51L1512,51L1515,51L1515,52L1594,52L1594,51L1599,51L1599,51L1600,51L1600,52L1602,52L1602,51L1628,51L1628,52L2278,52" tabindex="0">
				<title>8e9kl5dj</title>
			</path>
		</g>
		<g style="--index: 25;">
			<path d="M0,52L1090,52L1090,51L1091,51L1091,50L1094,50L1094,49L1095,49L1095,48L1098,48L1098,47L1099,47L1099,46L1101,46L1101,47L1102,47L1102,46L1103,46L1103,45L1104,45L1104,42L1105,42L1105,41L1106,41L1106,41L1108,41L1108,40L1111,40L1111,42L1112,42L1112,46L1115,46L1115,47L1116,47L1116,51L1118,51L1118,52L1138,52L1138,51L1140,51L1140,50L1150,50L1150,49L1158,49L1158,50L1182,50L1182,49L1183,49L1183,48L1253,48L1253,48L1287,48L1287,50L1306,50L1306,49L1371,49L1371,48L1373,48L1373,47L1377,47L1377,46L1384,46L1384,45L1593,45L1593,46L1642,46L1642,47L1956,47L1956,48L1979,48L1979,49L2091,49L2091,50L2175,50L2175,51L2278,51" tabindex="0">
				<title>814zn7l8</title>
			</path>
		</g>
		<g style="--index: 26;">
			<path d="M0,52L1114,52L1114,51L1118,51L1118,50L1119,50L1119,51L1125,51L1125,49L1131,49L1131,51L1132,51L1132,49L1133,49L1133,50L1134,50L1134,51L1141,51L1141,52L2278,52" tabindex="0">
				<title>jnzg27dj</title>
			</path>
		</g>
		<g style="--index: 27;">
			<path d="M0,52L1121,52L1121,49L1122,49L1122,48L1251,48L1251,50L1259,50L1259,51L1274,51L1274,52L2278,52" tabindex="0">
				<title>jnz1zy2j</title>
			</path>
		</g>
		<g style="--index: 28;">
			<path d="M0,52L1177,52L1177,52L2278,52" tabindex="0">
				<title>j42m66lx</title>
			</path>
		</g>
		<g style="--index: 29;">
			<path d="M0,52L1251,52L1251,52L1259,52L1259,51L1262,51L1262,50L1270,50L1270,49L1285,49L1285,48L1286,48L1286,49L1305,49L1305,51L1608,51L1608,51L1611,51L1611,52L1647,52L1647,50L1691,50L1691,52L1703,52L1703,51L1729,51L1729,50L1958,50L1958,51L1960,51L1960,50L1962,50L1962,51L2278,51" tabindex="0">
				<title>jnzen32j</title>
			</path>
		</g>
		<g style="--index: 30;">
			<path d="M0,52L1528,52L1528,51L1801,51L1801,52L2278,52" tabindex="0">
				<title>jpo31408</title>
			</path>
		</g>
		<g style="--index: 31;">
			<path d="M0,52L1576,52L1576,51L1587,51L1587,51L1588,51L1588,51L1719,51L1719,51L1829,51L1829,51L1831,51L1831,51L1837,51L1837,50L1842,50L1842,50L1870,50L1870,51L2278,51" tabindex="0">
				<title>x3m3kle8</title>
			</path>
		</g>
		<g style="--index: 32;">
			<path d="M0,52L1593,52L1593,51L1594,51L1594,50L1595,50L1595,49L1599,49L1599,48L1600,48L1600,49L1601,49L1601,48L1602,48L1602,49L1615,49L1615,47L1617,47L1617,46L1619,46L1619,45L1620,45L1620,46L1622,46L1622,45L1623,45L1623,45L1629,45L1629,44L1631,44L1631,45L1634,45L1634,45L1636,45L1636,43L1637,43L1637,44L1640,44L1640,43L1641,43L1641,45L1642,45L1642,44L1818,44L1818,45L2009,45L2009,46L2122,46L2122,47L2190,47L2190,48L2278,48" tabindex="0">
				<title>xk3m6d68</title>
			</path>
		</g>
		<g style="--index: 33;">
			<path d="M0,52L1728,52L1728,51L1730,51L1730,50L1735,50L1735,50L1755,50L1755,49L1756,49L1756,50L1757,50L1757,49L1763,49L1763,48L1764,48L1764,47L1766,47L1766,46L1775,46L1775,45L1787,45L1787,44L1791,44L1791,42L1794,42L1794,43L1800,43L1800,42L1807,42L1807,40L1817,40L1817,39L1818,39L1818,38L1826,38L1826,38L1828,38L1828,37L1842,37L1842,36L1854,36L1854,36L1878,36L1878,35L1893,35L1893,31L1894,31L1894,30L1899,30L1899,29L1900,29L1900,29L1902,29L1902,29L1904,29L1904,28L1907,28L1907,28L1908,28L1908,27L1909,27L1909,27L1911,27L1911,26L1913,26L1913,25L1914,25L1914,23L1918,23L1918,23L1922,23L1922,22L1923,22L1923,21L1924,21L1924,20L1925,20L1925,19L1930,19L1930,18L1931,18L1931,18L1933,18L1933,19L1934,19L1934,18L1940,18L1940,17L1948,17L1948,16L1949,16L1949,16L1950,16L1950,17L1951,17L1951,17L1953,17L1953,17L1963,17L1963,16L1980,16L1980,18L1981,18L1981,17L1982,17L1982,17L1984,17L1984,17L1987,17L1987,14L1989,14L1989,13L2007,13L2007,14L2012,14L2012,14L2013,14L2013,14L2054,14L2054,13L2061,13L2061,12L2062,12L2062,12L2077,12L2077,12L2080,12L2080,12L2084,12L2084,11L2085,11L2085,12L2098,12L2098,11L2099,11L2099,10L2118,10L2118,9L2133,9L2133,8L2157,8L2157,7L2175,7L2175,5L2176,5L2176,4L2177,4L2177,5L2178,5L2178,4L2180,4L2180,3L2184,3L2184,2L2190,2L2190,1L2207,1L2207,0L2214,0L2214,1L2227,1L2227,1L2229,1L2229,0L2230,0L2230,0L2278,0" tabindex="0">
				<title>jn2m23wj</title>
			</path>
		</g>
		<g style="--index: 34;">
			<path d="M0,52L1770,52L1770,51L1787,51L1787,52L2278,52" tabindex="0">
				<title>jmzygrox</title>
			</path>
		</g>
		<g style="--index: 35;">
			<path d="M0,52L1787,52L1787,51L1791,51L1791,52L2278,52" tabindex="0">
				<title>jp6k1558</title>
			</path>
		</g>
		<g style="--index: 36;">
			<path d="M0,52L1791,52L1791,51L1805,51L1805,52L2278,52" tabindex="0">
				<title>x76omlvj</title>
			</path>
		</g>
		<g style="--index: 37;">
			<path d="M0,52L1794,52L1794,51L1800,51L1800,52L1805,52L1805,51L1823,51L1823,52L1904,52L1904,51L1964,51L1964,52L2007,52L2007,51L2009,51L2009,50L2017,50L2017,49L2046,49L2046,50L2178,50L2178,51L2184,51L2184,52L2278,52" tabindex="0">
				<title>j4235d5x</title>
			</path>
		</g>
		<g style="--index: 38;">
			<path d="M0,52L1801,52L1801,51L1842,51L1842,52L2278,52" tabindex="0">
				<title>8w02m0vj</title>
			</path>
		</g>
		<g style="--index: 39;">
			<path d="M0,52L1807,52L1807,51L1869,51L1869,52L2278,52" tabindex="0">
				<title>8qoz5eoj</title>
			</path>
		</g>
		<g style="--index: 40;">
			<path d="M0,52L1813,52L1813,51L1861,51L1861,52L2278,52" tabindex="0">
				<title>jm3y0go8</title>
			</path>
		</g>
		<g style="--index: 41;">
			<path d="M0,52L1823,52L1823,51L1837,51L1837,52L2278,52" tabindex="0">
				<title>jmzpr4yx</title>
			</path>
		</g>
		<g style="--index: 42;">
			<path d="M0,52L1832,52L1832,51L1838,51L1838,51L1888,51L1888,50L1929,50L1929,50L1932,50L1932,50L2053,50L2053,51L2167,51L2167,52L2278,52" tabindex="0">
				<title>810y31qx</title>
			</path>
		</g>
		<g style="--index: 43;">
			<path d="M0,52L1847,52L1847,51L1980,51L1980,52L2278,52" tabindex="0">
				<title>j5vg1ez8</title>
			</path>
		</g>
		<g style="--index: 44;">
			<path d="M0,52L1861,52L1861,51L1877,51L1877,52L1891,52L1891,51L1907,51L1907,52L2278,52" tabindex="0">
				<title>joovynnj</title>
			</path>
		</g>
		<g style="--index: 45;">
			<path d="M0,52L1869,52L1869,51L1876,51L1876,52L1877,52L1877,51L1878,51L1878,52L1964,52L1964,51L1980,51L1980,52L2278,52" tabindex="0">
				<title>8640og3j</title>
			</path>
		</g>
		<g style="--index: 46;">
			<path d="M0,52L1870,52L1870,51L1878,51L1878,52L2278,52" tabindex="0">
				<title>jongn6l8</title>
			</path>
		</g>
		<g style="--index: 47;">
			<path d="M0,52L1876,52L1876,51L1877,51L1877,52L2278,52" tabindex="0">
				<title>j9p3ykox</title>
			</path>
		</g>
		<g style="--index: 48;">
			<path d="M0,52L1877,52L1877,51L1878,51L1878,50L1891,50L1891,51L1904,51L1904,52L2278,52" tabindex="0">
				<title>8q6k30oj</title>
			</path>
		</g>
		<g style="--index: 49;">
			<path d="M0,52L1896,52L1896,51L1979,51L1979,52L2278,52" tabindex="0">
				<title>x7w44nr8</title>
			</path>
		</g>
		<g style="--index: 50;">
			<path d="M0,52L1907,52L1907,51L1908,51L1908,51L1980,51L1980,52L2278,52" tabindex="0">
				<title>8wlq9g3j</title>
			</path>
		</g>
		<g style="--index: 51;">
			<path d="M0,52L1921,52L1921,51L2014,51L2014,52L2278,52" tabindex="0">
				<title>8g0d51rx</title>
			</path>
		</g>
		<g style="--index: 52;">
			<path d="M0,52L1933,52L1933,51L1934,51L1934,52L2278,52" tabindex="0">
				<title>8ek6z678</title>
			</path>
		</g>
		<g style="--index: 53;">
			<path d="M0,52L1958,52L1958,51L1959,51L1959,50L1960,50L1960,51L1962,51L1962,50L1963,50L1963,50L1964,50L1964,49L2278,49" tabindex="0">
				<title>jmz3rlox</title>
			</path>
		</g>
		<g style="--index: 54;">
			<path d="M0,52L1984,52L1984,51L1987,51L1987,52L1993,52L1993,51L2084,51L2084,52L2278,52" tabindex="0">
				<title>8g0ppzrx</title>
			</path>
		</g>
		<g style="--index: 55;">
			<path d="M0,52L2004,52L2004,51L2015,51L2015,52L2018,52L2018,51L2021,51L2021,52L2278,52" tabindex="0">
				<title>xz1nv0ej</title>
			</path>
		</g>
		<g style="--index: 56;">
			<path d="M0,52L2014,52L2014,51L2015,51L2015,50L2016,50L2016,51L2017,51L2017,52L2021,52L2021,51L2025,51L2025,52L2030,52L2030,50L2031,50L2031,52L2046,52L2046,51L2068,51L2068,50L2077,50L2077,49L2130,49L2130,49L2164,49L2164,48L2185,48L2185,47L2189,47L2189,48L2191,48L2191,47L2216,47L2216,48L2260,48L2260,49L2278,49" tabindex="0">
				<title>x3wdlvkj</title>
			</path>
		</g>
		<g style="--index: 57;">
			<path d="M0,52L2016,52L2016,51L2017,51L2017,52L2278,52" tabindex="0">
				<title>j9k252w8</title>
			</path>
		</g>
		<g style="--index: 58;">
			<path d="M0,52L2017,52L2017,51L2025,51L2025,50L2030,50L2030,52L2278,52" tabindex="0">
				<title>8v23g7yj</title>
			</path>
		</g>
		<g style="--index: 59;">
			<path d="M0,52L2068,52L2068,52L2278,52" tabindex="0">
				<title>j40p60d8</title>
			</path>
		</g>
		<g style="--index: 60;">
			<path d="M0,52L2101,52L2101,50L2164,50L2164,50L2165,50L2165,50L2166,50L2166,49L2167,49L2167,47L2168,47L2168,47L2185,47L2185,48L2189,48L2189,47L2191,47L2191,48L2258,48L2258,49L2278,49L2278,50L2278,50" tabindex="0">
				<title>8w3l21qj</title>
			</path>
		</g>
		<g style="--index: 61;">
			<path d="M0,52L2214,52L2214,51L2229,51L2229,52L2278,52" tabindex="0">
				<title>jokvnml8</title>
			</path>
		</g>
		<g style="--index: 62;">
			<path d="M0,52L2216,52L2216,51L2278,51" tabindex="0">
				<title>8lpv0drj</title>
			</path>
		</g>
		<g style="--index: 63;">
			<path d="M0,52L2258,52L2258,51L2260,51L2260,50L2278,50" tabindex="0">
				<title>8rme6wwj</title>
			</path>
		</g>
		<g style="--index: 64;">
			<path d="M0,52L2278,52L2278,51L2278,51" tabindex="0">
				<title>x3q6432j</title>
			</path>
		</g>
	</g>
</svg>
