<svg xmlns="http://www.w3.org/2000/svg" viewBox="0 0 1644 284014" preserveAspectRatio="none" lang="en" style="color-scheme: dark light;">
		<title>Time by leaderboard for player 0jmw6wex</title>
		<style>
			svg {
				background: var(--canvas-background);
				fill: var(--canvas-background);
				stroke: var(--canvas-foreground);
				stroke-linejoin: round;
				stroke-linecap: round;
			}
			g &gt; path[tabindex] {
				vector-effect: non-scaling-stroke;
				fill: none;
				stroke: hsl(calc(var(--index) / var(--count) * 360), 50%, 50%);
				cursor: help;
			}
			g:is(:hover, :focus-within) &gt; path[tabindex] {
				stroke: var(--canvas-foreground);
			}
			g &gt; path[tabindex]:is(:hover, :focus-within) {
				outline: 0;
			}
			g &gt; path[tabindex]:first-of-type {
				stroke-width: 2;
			}
			g &gt; path[tabindex]:first-of-type:is(:hover, :focus-within) {
				stroke-width: 4;
			}
			g &gt; path[tabindex]:first-of-type:not(:last-of-type) {
				stroke-dasharray: 4 8;
			}
			g &gt; rect {
				vector-effect: non-scaling-stroke;
				fill: none;
				stroke: none;
				pointer-events: none;
			}
			g &gt; path[tabindex]:first-of-type:is(:hover, :focus-within) + rect {
				fill: var(--highlighted);
			}
			g &gt; path[tabindex]:first-of-type ~ path[tabindex] {
				stroke-width: 8;
			}
			g &gt; path[tabindex]:first-of-type ~ path[tabindex]:is(:hover, :focus-within) {
				stroke-width: 16;
			}
			g &gt; line {
				vector-effect: non-scaling-stroke;
				fill: none;
				stroke: none;
				stroke-width: 2;
				stroke-dasharray: 4 8;
				pointer-events: none;
			}
			g &gt; path[tabindex]:first-of-type:is(:hover, :focus-within) + rect + path[tabindex] + line,
			g &gt; path[tabindex]:first-of-type:is(:hover, :focus-within) + rect + path[tabindex] + line + line,
			g &gt; path[tabindex]:first-of-type:is(:hover, :focus-within) ~ path[tabindex]:last-of-type + line,
			g &gt; path[tabindex]:first-of-type:is(:hover, :focus-within) ~ path[tabindex]:last-of-type + line + line,
			g &gt; path[tabindex]:first-of-type ~ path[tabindex]:is(:hover, :focus-within) + line,
			g &gt; path[tabindex]:first-of-type ~ path[tabindex]:is(:hover, :focus-within) + line + line {
				stroke: var(--faded);
			}
			@media (prefers-color-scheme: dark) {
				:root {
					--canvas-background: #000;
					--canvas-foreground: #ccc;
					--highlighted: #6663;
					--faded: #9993;
				}
			}
			@media (prefers-color-scheme: light) {
				:root {
					--canvas-background: #fff;
					--canvas-foreground: #333;
					--highlighted: #9993;
					--faded: #6663;
				}
			}
		</style>
		<g transform="scale(1 -1)" transform-origin="center center" style="--count: 18;">
		<g style="--index: 0;">
			<path d="M0,977L1,977L1,935L529,935L529,906L530,906L530,892L531,892L531,890" tabindex="0">
				<title>l_r9gn1qpd-9d8eewld-0nwoqwkl.jqzpx3gl</title>
			</path>
			<rect x="0" y="890" width="531" height="87"/>
			<path d="M0,977L0,977" tabindex="0">
				<title>00:09.77 on 2019-06-15</title>
			</path>
			<line x1="0" y1="977" x2="1644" y2="977"/>
			<line x1="0" y1="0" x2="0" y2="284014"/>
			<path d="M1,935L1,935" tabindex="0">
				<title>00:09.35 on 2019-06-16</title>
			</path>
			<line x1="0" y1="935" x2="1644" y2="935"/>
			<line x1="1" y1="0" x2="1" y2="284014"/>
			<path d="M529,906L529,906" tabindex="0">
				<title>00:09.06 on 2020-11-25</title>
			</path>
			<line x1="0" y1="906" x2="1644" y2="906"/>
			<line x1="529" y1="0" x2="529" y2="284014"/>
			<path d="M530,892L530,892" tabindex="0">
				<title>00:08.92 on 2020-11-26</title>
			</path>
			<line x1="0" y1="892" x2="1644" y2="892"/>
			<line x1="530" y1="0" x2="530" y2="284014"/>
			<path d="M531,890L531,890" tabindex="0">
				<title>00:08.90 on 2020-11-27</title>
			</path>
			<line x1="0" y1="890" x2="1644" y2="890"/>
			<line x1="531" y1="0" x2="531" y2="284014"/>
		</g>
		<g style="--index: 1;">
			<path d="M4,116069L33,116069L33,107952L35,107952L35,101016L531,101016L531,84633" tabindex="0">
				<title>xd17x94d-9l71pv4l.81wrgm5l</title>
			</path>
			<rect x="4" y="84633" width="527" height="31436"/>
			<path d="M4,116069L4,116069" tabindex="0">
				<title>19:20.69 on 2019-06-19</title>
			</path>
			<line x1="0" y1="116069" x2="1644" y2="116069"/>
			<line x1="4" y1="0" x2="4" y2="284014"/>
			<path d="M33,107952L33,107952" tabindex="0">
				<title>17:59.52 on 2019-07-18</title>
			</path>
			<line x1="0" y1="107952" x2="1644" y2="107952"/>
			<line x1="33" y1="0" x2="33" y2="284014"/>
			<path d="M35,101016L35,101016" tabindex="0">
				<title>16:50.16 on 2019-07-20</title>
			</path>
			<line x1="0" y1="101016" x2="1644" y2="101016"/>
			<line x1="35" y1="0" x2="35" y2="284014"/>
			<path d="M531,84633L531,84633" tabindex="0">
				<title>14:06.33 on 2020-11-27</title>
			</path>
			<line x1="0" y1="84633" x2="1644" y2="84633"/>
			<line x1="531" y1="0" x2="531" y2="284014"/>
		</g>
		<g style="--index: 2;">
			<path d="M219,168869L316,168869L316,150366L354,150366L354,144282L365,144282L365,134079L441,134079L441,125604L474,125604L474,111454L501,111454L501,105509L529,105509L529,101724L580,101724L580,94992L619,94992L619,93558L653,93558L653,92740L735,92740L735,91135L753,91135L753,89874" tabindex="0">
				<title>xd17x94d-9l71pv4l.zqo20y2l</title>
			</path>
			<rect x="219" y="89874" width="534" height="78995"/>
			<path d="M219,168869L219,168869" tabindex="0">
				<title>28:08.69 on 2020-01-20</title>
			</path>
			<line x1="0" y1="168869" x2="1644" y2="168869"/>
			<line x1="219" y1="0" x2="219" y2="284014"/>
			<path d="M316,150366L316,150366" tabindex="0">
				<title>25:03.66 on 2020-04-26</title>
			</path>
			<line x1="0" y1="150366" x2="1644" y2="150366"/>
			<line x1="316" y1="0" x2="316" y2="284014"/>
			<path d="M354,144282L354,144282" tabindex="0">
				<title>24:02.82 on 2020-06-03</title>
			</path>
			<line x1="0" y1="144282" x2="1644" y2="144282"/>
			<line x1="354" y1="0" x2="354" y2="284014"/>
			<path d="M365,134079L365,134079" tabindex="0">
				<title>22:20.79 on 2020-06-14</title>
			</path>
			<line x1="0" y1="134079" x2="1644" y2="134079"/>
			<line x1="365" y1="0" x2="365" y2="284014"/>
			<path d="M441,125604L441,125604" tabindex="0">
				<title>20:56.04 on 2020-08-29</title>
			</path>
			<line x1="0" y1="125604" x2="1644" y2="125604"/>
			<line x1="441" y1="0" x2="441" y2="284014"/>
			<path d="M474,111454L474,111454" tabindex="0">
				<title>18:34.54 on 2020-10-01</title>
			</path>
			<line x1="0" y1="111454" x2="1644" y2="111454"/>
			<line x1="474" y1="0" x2="474" y2="284014"/>
			<path d="M501,105509L501,105509" tabindex="0">
				<title>17:35.09 on 2020-10-28</title>
			</path>
			<line x1="0" y1="105509" x2="1644" y2="105509"/>
			<line x1="501" y1="0" x2="501" y2="284014"/>
			<path d="M529,101724L529,101724" tabindex="0">
				<title>16:57.24 on 2020-11-25</title>
			</path>
			<line x1="0" y1="101724" x2="1644" y2="101724"/>
			<line x1="529" y1="0" x2="529" y2="284014"/>
			<path d="M580,94992L580,94992" tabindex="0">
				<title>15:49.92 on 2021-01-15</title>
			</path>
			<line x1="0" y1="94992" x2="1644" y2="94992"/>
			<line x1="580" y1="0" x2="580" y2="284014"/>
			<path d="M619,93558L619,93558" tabindex="0">
				<title>15:35.58 on 2021-02-23</title>
			</path>
			<line x1="0" y1="93558" x2="1644" y2="93558"/>
			<line x1="619" y1="0" x2="619" y2="284014"/>
			<path d="M653,92740L653,92740" tabindex="0">
				<title>15:27.40 on 2021-03-29</title>
			</path>
			<line x1="0" y1="92740" x2="1644" y2="92740"/>
			<line x1="653" y1="0" x2="653" y2="284014"/>
			<path d="M735,91135L735,91135" tabindex="0">
				<title>15:11.35 on 2021-06-19</title>
			</path>
			<line x1="0" y1="91135" x2="1644" y2="91135"/>
			<line x1="735" y1="0" x2="735" y2="284014"/>
			<path d="M753,89874L753,89874" tabindex="0">
				<title>14:58.74 on 2021-07-07</title>
			</path>
			<line x1="0" y1="89874" x2="1644" y2="89874"/>
			<line x1="753" y1="0" x2="753" y2="284014"/>
		</g>
		<g style="--index: 3;">
			<path d="M323,1819L1384,1819L1384,1459" tabindex="0">
				<title>9kv6l5e2-ql6rezjl.jq6d86v1</title>
			</path>
			<rect x="323" y="1459" width="1061" height="360"/>
			<path d="M323,1819L323,1819" tabindex="0">
				<title>00:18.19 on 2020-05-03</title>
			</path>
			<line x1="0" y1="1819" x2="1644" y2="1819"/>
			<line x1="323" y1="0" x2="323" y2="284014"/>
			<path d="M1384,1459L1384,1459" tabindex="0">
				<title>00:14.59 on 2023-03-30</title>
			</path>
			<line x1="0" y1="1459" x2="1644" y2="1459"/>
			<line x1="1384" y1="0" x2="1384" y2="284014"/>
		</g>
		<g style="--index: 4;">
			<path d="M518,284014" tabindex="0">
				<title>xd1v018d-68k7x44l.zqo74r41</title>
			</path>
			<rect x="518" y="284014" width="0" height="0"/>
			<path d="M518,284014L518,284014" tabindex="0">
				<title>47:20.14 on 2020-11-14</title>
			</path>
			<line x1="0" y1="284014" x2="1644" y2="284014"/>
			<line x1="518" y1="0" x2="518" y2="284014"/>
		</g>
		<g style="--index: 5;">
			<path d="M531,12728" tabindex="0">
				<title>l_r9gn1qpd-9kv66g32-onv7r45n.9qj08g7l</title>
			</path>
			<rect x="531" y="12728" width="0" height="0"/>
			<path d="M531,12728L531,12728" tabindex="0">
				<title>02:07.28 on 2020-11-27</title>
			</path>
			<line x1="0" y1="12728" x2="1644" y2="12728"/>
			<line x1="531" y1="0" x2="531" y2="284014"/>
		</g>
		<g style="--index: 6;">
			<path d="M531,25152" tabindex="0">
				<title>l_r9gn1qpd-xd144xwd</title>
			</path>
			<rect x="531" y="25152" width="0" height="0"/>
			<path d="M531,25152L531,25152" tabindex="0">
				<title>04:11.52 on 2020-11-27</title>
			</path>
			<line x1="0" y1="25152" x2="1644" y2="25152"/>
			<line x1="531" y1="0" x2="531" y2="284014"/>
		</g>
		<g style="--index: 7;">
			<path d="M531,17206" tabindex="0">
				<title>l_o9xo3rp9-9kv66g32-onv7r45n.9qj08g7l</title>
			</path>
			<rect x="531" y="17206" width="0" height="0"/>
			<path d="M531,17206L531,17206" tabindex="0">
				<title>02:52.06 on 2020-11-27</title>
			</path>
			<line x1="0" y1="17206" x2="1644" y2="17206"/>
			<line x1="531" y1="0" x2="531" y2="284014"/>
		</g>
		<g style="--index: 8;">
			<path d="M532,200640" tabindex="0">
				<title>7dg65oxk-r8r1zm0n.xqk0drn1</title>
			</path>
			<rect x="532" y="200640" width="0" height="0"/>
			<path d="M532,200640L532,200640" tabindex="0">
				<title>33:26.40 on 2020-11-28</title>
			</path>
			<line x1="0" y1="200640" x2="1644" y2="200640"/>
			<line x1="532" y1="0" x2="532" y2="284014"/>
		</g>
		<g style="--index: 9;">
			<path d="M533,919" tabindex="0">
				<title>l_r9gn1qpd-9d8eewld-0nwoqwkl.81ppdgg1</title>
			</path>
			<rect x="533" y="919" width="0" height="0"/>
			<path d="M533,919L533,919" tabindex="0">
				<title>00:09.19 on 2020-11-29</title>
			</path>
			<line x1="0" y1="919" x2="1644" y2="919"/>
			<line x1="533" y1="0" x2="533" y2="284014"/>
		</g>
		<g style="--index: 10;">
			<path d="M550,1762L551,1762L551,1660" tabindex="0">
				<title>l_o9xo3rp9-9d8eewld-7896y468.5lermx5q</title>
			</path>
			<rect x="550" y="1660" width="1" height="102"/>
			<path d="M550,1762L550,1762" tabindex="0">
				<title>00:17.62 on 2020-12-16</title>
			</path>
			<line x1="0" y1="1762" x2="1644" y2="1762"/>
			<line x1="550" y1="0" x2="550" y2="284014"/>
			<path d="M551,1660L551,1660" tabindex="0">
				<title>00:16.60 on 2020-12-17</title>
			</path>
			<line x1="0" y1="1660" x2="1644" y2="1660"/>
			<line x1="551" y1="0" x2="551" y2="284014"/>
		</g>
		<g style="--index: 11;">
			<path d="M550,1414L555,1414L555,1370" tabindex="0">
				<title>l_495zlx39-9d8eewld-2lgr793n.814y7w01</title>
			</path>
			<rect x="550" y="1370" width="5" height="44"/>
			<path d="M550,1414L550,1414" tabindex="0">
				<title>00:14.14 on 2020-12-16</title>
			</path>
			<line x1="0" y1="1414" x2="1644" y2="1414"/>
			<line x1="550" y1="0" x2="550" y2="284014"/>
			<path d="M555,1370L555,1370" tabindex="0">
				<title>00:13.70 on 2020-12-21</title>
			</path>
			<line x1="0" y1="1370" x2="1644" y2="1370"/>
			<line x1="555" y1="0" x2="555" y2="284014"/>
		</g>
		<g style="--index: 12;">
			<path d="M654,3514" tabindex="0">
				<title>rkl9qwrk-6njkg4el.z19p2o8l</title>
			</path>
			<rect x="654" y="3514" width="0" height="0"/>
			<path d="M654,3514L654,3514" tabindex="0">
				<title>00:35.14 on 2021-03-30</title>
			</path>
			<line x1="0" y1="3514" x2="1644" y2="3514"/>
			<line x1="654" y1="0" x2="654" y2="284014"/>
		</g>
		<g style="--index: 13;">
			<path d="M1240,2020" tabindex="0">
				<title>l_495zlx39-9d8eewld-2lgr793n.81ppd5g1</title>
			</path>
			<rect x="1240" y="2020" width="0" height="0"/>
			<path d="M1240,2020L1240,2020" tabindex="0">
				<title>00:20.20 on 2022-11-06</title>
			</path>
			<line x1="0" y1="2020" x2="1644" y2="2020"/>
			<line x1="1240" y1="0" x2="1240" y2="284014"/>
		</g>
		<g style="--index: 14;">
			<path d="M1248,71093L1427,71093L1427,66676L1430,66676L1430,65502" tabindex="0">
				<title>xd17x94d-9l71pv4l.21gpn081</title>
			</path>
			<rect x="1248" y="65502" width="182" height="5591"/>
			<path d="M1248,71093L1248,71093" tabindex="0">
				<title>11:50.93 on 2022-11-14</title>
			</path>
			<line x1="0" y1="71093" x2="1644" y2="71093"/>
			<line x1="1248" y1="0" x2="1248" y2="284014"/>
			<path d="M1427,66676L1427,66676" tabindex="0">
				<title>11:06.76 on 2023-05-12</title>
			</path>
			<line x1="0" y1="66676" x2="1644" y2="66676"/>
			<line x1="1427" y1="0" x2="1427" y2="284014"/>
			<path d="M1430,65502L1430,65502" tabindex="0">
				<title>10:55.02 on 2023-05-15</title>
			</path>
			<line x1="0" y1="65502" x2="1644" y2="65502"/>
			<line x1="1430" y1="0" x2="1430" y2="284014"/>
		</g>
		<g style="--index: 15;">
			<path d="M1433,14118" tabindex="0">
				<title>l_o9xo3rp9-xd144xzd-38dz6v1n.814y45w1</title>
			</path>
			<rect x="1433" y="14118" width="0" height="0"/>
			<path d="M1433,14118L1433,14118" tabindex="0">
				<title>02:21.18 on 2023-05-18</title>
			</path>
			<line x1="0" y1="14118" x2="1644" y2="14118"/>
			<line x1="1433" y1="0" x2="1433" y2="284014"/>
		</g>
		<g style="--index: 16;">
			<path d="M1562,1039" tabindex="0">
				<title>l_r9gn1qpd-9d8eewld-0nwoqwkl.21g82pnl</title>
			</path>
			<rect x="1562" y="1039" width="0" height="0"/>
			<path d="M1562,1039L1562,1039" tabindex="0">
				<title>00:10.39 on 2023-09-24</title>
			</path>
			<line x1="0" y1="1039" x2="1644" y2="1039"/>
			<line x1="1562" y1="0" x2="1562" y2="284014"/>
		</g>
		<g style="--index: 17;">
			<path d="M1644,172749" tabindex="0">
				<title>7dg65oxk-r8r1zm0n.5q89kv31</title>
			</path>
			<rect x="1644" y="172749" width="0" height="0"/>
			<path d="M1644,172749L1644,172749" tabindex="0">
				<title>28:47.49 on 2023-12-15</title>
			</path>
			<line x1="0" y1="172749" x2="1644" y2="172749"/>
			<line x1="1644" y1="0" x2="1644" y2="284014"/>
		</g>
	</g>
</svg>
