<svg xmlns="http://www.w3.org/2000/svg" viewBox="0 0 1644 284014" preserveAspectRatio="none" lang="en" style="color-scheme: dark light;">
		<title>Time by leaderboard for player 0jmw6wex</title>
		<style>
			svg {
				background: var(--canvas-background);
				fill: var(--canvas-background);
				stroke: var(--canvas-foreground);
				stroke-linejoin: round;
				stroke-linecap: round;
			}
			g &gt; path[tabindex] {
				vector-effect: non-scaling-stroke;
				fill: none;
				stroke: hsl(calc(var(--index) / var(--count) * 360), 50%, 50%);
				cursor: help;
			}
			g:is(:hover, :focus-within) &gt; path[tabindex] {
				stroke: var(--canvas-foreground);
			}
			g &gt; path[tabindex]:is(:hover, :focus-within) {
				outline: 0;
			}
			g &gt; path[tabindex]:first-of-type {
				stroke-width: 2;
			}
			g &gt; path[tabindex]:first-of-type:is(:hover, :focus-within) {
				stroke-width: 4;
			}
			g &gt; path[tabindex]:first-of-type:not(:last-of-type) {
				stroke-dasharray: 4 8;
			}
			g &gt; rect {
				vector-effect: non-scaling-stroke;
				fill: none;
				stroke: none;
				pointer-events: none;
			}
			g &gt; path[tabindex]:first-of-type:is(:hover, :focus-within) + rect {
				fill: var(--highlighted);
			}
			g &gt; path[tabindex]:first-of-type ~ path[tabindex] {
				stroke-width: 8;
			}
			g &gt; path[tabindex]:first-of-type ~ path[tabindex]:is(:hover, :focus-within) {
				stroke-width: 16;
			}
			g &gt; line {
				vector-effect: non-scaling-stroke;
				fill: none;
				stroke: none;
				stroke-width: 2;
				stroke-dasharray: 4 8;
				pointer-events: none;
			}
			g &gt; path[tabindex]:first-of-type:is(:hover, :focus-within) + rect + path[tabindex] + line,
			g &gt; path[tabindex]:first-of-type:is(:hover, :focus-within) + rect + path[tabindex] + line + line,
			g &gt; path[tabindex]:first-of-type:is(:hover, :focus-within) ~ path[tabindex]:last-of-type + line,
			g &gt; path[tabindex]:first-of-type:is(:hover, :focus-within) ~ path[tabindex]:last-of-type + line + line,
			g &gt; path[tabindex]:first-of-type ~ path[tabindex]:is(:hover, :focus-within) + line,
			g &gt; path[tabindex]:first-of-type ~ path[tabindex]:is(:hover, :focus-within) + line + line {
				stroke: var(--faded);
			}
			@media (prefers-color-scheme: dark) {
				:root {
					--canvas-background: #000;
					--canvas-foreground: #ccc;
					--highlighted: #6663;
					--faded: #9993;
				}
			}
			@media (prefers-color-scheme: light) {
				:root {
					--canvas-background: #fff;
					--canvas-foreground: #333;
					--highlighted: #9993;
					--faded: #6663;
				}
			}
		</style>
		<g style="--count: 18;">
		<g style="--index: 0;">
			<path d="M0,283037L1,283037L1,283079L529,283079L529,283108L530,283108L530,283122L531,283122L531,283124" tabindex="0">
				<title>l_r9gn1qpd-9d8eewld-0nwoqwkl.jqzpx3gl</title>
			</path>
			<rect x="0" y="283037" width="531" height="87"/>
			<path d="M0,283037L0,283037" tabindex="0">
				<title>00:09.77 on 2019-06-15</title>
			</path>
			<line x1="0" y1="283037" x2="1644" y2="283037"/>
			<line x1="0" y1="284014" x2="0" y2="0"/>
			<path d="M1,283079L1,283079" tabindex="0">
				<title>00:09.35 on 2019-06-16</title>
			</path>
			<line x1="0" y1="283079" x2="1644" y2="283079"/>
			<line x1="1" y1="284014" x2="1" y2="0"/>
			<path d="M529,283108L529,283108" tabindex="0">
				<title>00:09.06 on 2020-11-25</title>
			</path>
			<line x1="0" y1="283108" x2="1644" y2="283108"/>
			<line x1="529" y1="284014" x2="529" y2="0"/>
			<path d="M530,283122L530,283122" tabindex="0">
				<title>00:08.92 on 2020-11-26</title>
			</path>
			<line x1="0" y1="283122" x2="1644" y2="283122"/>
			<line x1="530" y1="284014" x2="530" y2="0"/>
			<path d="M531,283124L531,283124" tabindex="0">
				<title>00:08.90 on 2020-11-27</title>
			</path>
			<line x1="0" y1="283124" x2="1644" y2="283124"/>
			<line x1="531" y1="284014" x2="531" y2="0"/>
		</g>
		<g style="--index: 1;">
			<path d="M4,167945L33,167945L33,176062L35,176062L35,182998L531,182998L531,199381" tabindex="0">
				<title>xd17x94d-9l71pv4l.81wrgm5l</title>
			</path>
			<rect x="4" y="167945" width="527" height="31436"/>
			<path d="M4,167945L4,167945" tabindex="0">
				<title>19:20.69 on 2019-06-19</title>
			</path>
			<line x1="0" y1="167945" x2="1644" y2="167945"/>
			<line x1="4" y1="284014" x2="4" y2="0"/>
			<path d="M33,176062L33,176062" tabindex="0">
				<title>17:59.52 on 2019-07-18</title>
			</path>
			<line x1="0" y1="176062" x2="1644" y2="176062"/>
			<line x1="33" y1="284014" x2="33" y2="0"/>
			<path d="M35,182998L35,182998" tabindex="0">
				<title>16:50.16 on 2019-07-20</title>
			</path>
			<line x1="0" y1="182998" x2="1644" y2="182998"/>
			<line x1="35" y1="284014" x2="35" y2="0"/>
			<path d="M531,199381L531,199381" tabindex="0">
				<title>14:06.33 on 2020-11-27</title>
			</path>
			<line x1="0" y1="199381" x2="1644" y2="199381"/>
			<line x1="531" y1="284014" x2="531" y2="0"/>
		</g>
		<g style="--index: 2;">
			<path d="M219,115145L316,115145L316,133648L354,133648L354,139732L365,139732L365,149935L441,149935L441,158410L474,158410L474,172560L501,172560L501,178505L529,178505L529,182290L580,182290L580,189022L619,189022L619,190456L653,190456L653,191274L735,191274L735,192879L753,192879L753,194140" tabindex="0">
				<title>xd17x94d-9l71pv4l.zqo20y2l</title>
			</path>
			<rect x="219" y="115145" width="534" height="78995"/>
			<path d="M219,115145L219,115145" tabindex="0">
				<title>28:08.69 on 2020-01-20</title>
			</path>
			<line x1="0" y1="115145" x2="1644" y2="115145"/>
			<line x1="219" y1="284014" x2="219" y2="0"/>
			<path d="M316,133648L316,133648" tabindex="0">
				<title>25:03.66 on 2020-04-26</title>
			</path>
			<line x1="0" y1="133648" x2="1644" y2="133648"/>
			<line x1="316" y1="284014" x2="316" y2="0"/>
			<path d="M354,139732L354,139732" tabindex="0">
				<title>24:02.82 on 2020-06-03</title>
			</path>
			<line x1="0" y1="139732" x2="1644" y2="139732"/>
			<line x1="354" y1="284014" x2="354" y2="0"/>
			<path d="M365,149935L365,149935" tabindex="0">
				<title>22:20.79 on 2020-06-14</title>
			</path>
			<line x1="0" y1="149935" x2="1644" y2="149935"/>
			<line x1="365" y1="284014" x2="365" y2="0"/>
			<path d="M441,158410L441,158410" tabindex="0">
				<title>20:56.04 on 2020-08-29</title>
			</path>
			<line x1="0" y1="158410" x2="1644" y2="158410"/>
			<line x1="441" y1="284014" x2="441" y2="0"/>
			<path d="M474,172560L474,172560" tabindex="0">
				<title>18:34.54 on 2020-10-01</title>
			</path>
			<line x1="0" y1="172560" x2="1644" y2="172560"/>
			<line x1="474" y1="284014" x2="474" y2="0"/>
			<path d="M501,178505L501,178505" tabindex="0">
				<title>17:35.09 on 2020-10-28</title>
			</path>
			<line x1="0" y1="178505" x2="1644" y2="178505"/>
			<line x1="501" y1="284014" x2="501" y2="0"/>
			<path d="M529,182290L529,182290" tabindex="0">
				<title>16:57.24 on 2020-11-25</title>
			</path>
			<line x1="0" y1="182290" x2="1644" y2="182290"/>
			<line x1="529" y1="284014" x2="529" y2="0"/>
			<path d="M580,189022L580,189022" tabindex="0">
				<title>15:49.92 on 2021-01-15</title>
			</path>
			<line x1="0" y1="189022" x2="1644" y2="189022"/>
			<line x1="580" y1="284014" x2="580" y2="0"/>
			<path d="M619,190456L619,190456" tabindex="0">
				<title>15:35.58 on 2021-02-23</title>
			</path>
			<line x1="0" y1="190456" x2="1644" y2="190456"/>
			<line x1="619" y1="284014" x2="619" y2="0"/>
			<path d="M653,191274L653,191274" tabindex="0">
				<title>15:27.40 on 2021-03-29</title>
			</path>
			<line x1="0" y1="191274" x2="1644" y2="191274"/>
			<line x1="653" y1="284014" x2="653" y2="0"/>
			<path d="M735,192879L735,192879" tabindex="0">
				<title>15:11.35 on 2021-06-19</title>
			</path>
			<line x1="0" y1="192879" x2="1644" y2="192879"/>
			<line x1="735" y1="284014" x2="735" y2="0"/>
			<path d="M753,194140L753,194140" tabindex="0">
				<title>14:58.74 on 2021-07-07</title>
			</path>
			<line x1="0" y1="194140" x2="1644" y2="194140"/>
			<line x1="753" y1="284014" x2="753" y2="0"/>
		</g>
		<g style="--index: 3;">
			<path d="M323,282195L1384,282195L1384,282555" tabindex="0">
				<title>9kv6l5e2-ql6rezjl.jq6d86v1</title>
			</path>
			<rect x="323" y="282195" width="1061" height="360"/>
			<path d="M323,282195L323,282195" tabindex="0">
				<title>00:18.19 on 2020-05-03</title>
			</path>
			<line x1="0" y1="282195" x2="1644" y2="282195"/>
			<line x1="323" y1="284014" x2="323" y2="0"/>
			<path d="M1384,282555L1384,282555" tabindex="0">
				<title>00:14.59 on 2023-03-30</title>
			</path>
			<line x1="0" y1="282555" x2="1644" y2="282555"/>
			<line x1="1384" y1="284014" x2="1384" y2="0"/>
		</g>
		<g style="--index: 4;">
			<path d="M518,0" tabindex="0">
				<title>xd1v018d-68k7x44l.zqo74r41</title>
			</path>
			<rect x="518" y="0" width="0" height="0"/>
			<path d="M518,0L518,0" tabindex="0">
				<title>47:20.14 on 2020-11-14</title>
			</path>
			<line x1="0" y1="0" x2="1644" y2="0"/>
			<line x1="518" y1="284014" x2="518" y2="0"/>
		</g>
		<g style="--index: 5;">
			<path d="M531,271286" tabindex="0">
				<title>l_r9gn1qpd-9kv66g32-onv7r45n.9qj08g7l</title>
			</path>
			<rect x="531" y="271286" width="0" height="0"/>
			<path d="M531,271286L531,271286" tabindex="0">
				<title>02:07.28 on 2020-11-27</title>
			</path>
			<line x1="0" y1="271286" x2="1644" y2="271286"/>
			<line x1="531" y1="284014" x2="531" y2="0"/>
		</g>
		<g style="--index: 6;">
			<path d="M531,258862" tabindex="0">
				<title>l_r9gn1qpd-xd144xwd</title>
			</path>
			<rect x="531" y="258862" width="0" height="0"/>
			<path d="M531,258862L531,258862" tabindex="0">
				<title>04:11.52 on 2020-11-27</title>
			</path>
			<line x1="0" y1="258862" x2="1644" y2="258862"/>
			<line x1="531" y1="284014" x2="531" y2="0"/>
		</g>
		<g style="--index: 7;">
			<path d="M531,266808" tabindex="0">
				<title>l_o9xo3rp9-9kv66g32-onv7r45n.9qj08g7l</title>
			</path>
			<rect x="531" y="266808" width="0" height="0"/>
			<path d="M531,266808L531,266808" tabindex="0">
				<title>02:52.06 on 2020-11-27</title>
			</path>
			<line x1="0" y1="266808" x2="1644" y2="266808"/>
			<line x1="531" y1="284014" x2="531" y2="0"/>
		</g>
		<g style="--index: 8;">
			<path d="M532,83374" tabindex="0">
				<title>7dg65oxk-r8r1zm0n.xqk0drn1</title>
			</path>
			<rect x="532" y="83374" width="0" height="0"/>
			<path d="M532,83374L532,83374" tabindex="0">
				<title>33:26.40 on 2020-11-28</title>
			</path>
			<line x1="0" y1="83374" x2="1644" y2="83374"/>
			<line x1="532" y1="284014" x2="532" y2="0"/>
		</g>
		<g style="--index: 9;">
			<path d="M533,283095" tabindex="0">
				<title>l_r9gn1qpd-9d8eewld-0nwoqwkl.81ppdgg1</title>
			</path>
			<rect x="533" y="283095" width="0" height="0"/>
			<path d="M533,283095L533,283095" tabindex="0">
				<title>00:09.19 on 2020-11-29</title>
			</path>
			<line x1="0" y1="283095" x2="1644" y2="283095"/>
			<line x1="533" y1="284014" x2="533" y2="0"/>
		</g>
		<g style="--index: 10;">
			<path d="M550,282252L551,282252L551,282354" tabindex="0">
				<title>l_o9xo3rp9-9d8eewld-7896y468.5lermx5q</title>
			</path>
			<rect x="550" y="282252" width="1" height="102"/>
			<path d="M550,282252L550,282252" tabindex="0">
				<title>00:17.62 on 2020-12-16</title>
			</path>
			<line x1="0" y1="282252" x2="1644" y2="282252"/>
			<line x1="550" y1="284014" x2="550" y2="0"/>
			<path d="M551,282354L551,282354" tabindex="0">
				<title>00:16.60 on 2020-12-17</title>
			</path>
			<line x1="0" y1="282354" x2="1644" y2="282354"/>
			<line x1="551" y1="284014" x2="551" y2="0"/>
		</g>
		<g style="--index: 11;">
			<path d="M550,282600L555,282600L555,282644" tabindex="0">
				<title>l_495zlx39-9d8eewld-2lgr793n.814y7w01</title>
			</path>
			<rect x="550" y="282600" width="5" height="44"/>
			<path d="M550,282600L550,282600" tabindex="0">
				<title>00:14.14 on 2020-12-16</title>
			</path>
			<line x1="0" y1="282600" x2="1644" y2="282600"/>
			<line x1="550" y1="284014" x2="550" y2="0"/>
			<path d="M555,282644L555,282644" tabindex="0">
				<title>00:13.70 on 2020-12-21</title>
			</path>
			<line x1="0" y1="282644" x2="1644" y2="282644"/>
			<line x1="555" y1="284014" x2="555" y2="0"/>
		</g>
		<g style="--index: 12;">
			<path d="M654,280500" tabindex="0">
				<title>rkl9qwrk-6njkg4el.z19p2o8l</title>
			</path>
			<rect x="654" y="280500" width="0" height="0"/>
			<path d="M654,280500L654,280500" tabindex="0">
				<title>00:35.14 on 2021-03-30</title>
			</path>
			<line x1="0" y1="280500" x2="1644" y2="280500"/>
			<line x1="654" y1="284014" x2="654" y2="0"/>
		</g>
		<g style="--index: 13;">
			<path d="M1240,281994" tabindex="0">
				<title>l_495zlx39-9d8eewld-2lgr793n.81ppd5g1</title>
			</path>
			<rect x="1240" y="281994" width="0" height="0"/>
			<path d="M1240,281994L1240,281994" tabindex="0">
				<title>00:20.20 on 2022-11-06</title>
			</path>
			<line x1="0" y1="281994" x2="1644" y2="281994"/>
			<line x1="1240" y1="284014" x2="1240" y2="0"/>
		</g>
		<g style="--index: 14;">
			<path d="M1248,212921L1427,212921L1427,217338L1430,217338L1430,218512" tabindex="0">
				<title>xd17x94d-9l71pv4l.21gpn081</title>
			</path>
			<rect x="1248" y="212921" width="182" height="5591"/>
			<path d="M1248,212921L1248,212921" tabindex="0">
				<title>11:50.93 on 2022-11-14</title>
			</path>
			<line x1="0" y1="212921" x2="1644" y2="212921"/>
			<line x1="1248" y1="284014" x2="1248" y2="0"/>
			<path d="M1427,217338L1427,217338" tabindex="0">
				<title>11:06.76 on 2023-05-12</title>
			</path>
			<line x1="0" y1="217338" x2="1644" y2="217338"/>
			<line x1="1427" y1="284014" x2="1427" y2="0"/>
			<path d="M1430,218512L1430,218512" tabindex="0">
				<title>10:55.02 on 2023-05-15</title>
			</path>
			<line x1="0" y1="218512" x2="1644" y2="218512"/>
			<line x1="1430" y1="284014" x2="1430" y2="0"/>
		</g>
		<g style="--index: 15;">
			<path d="M1433,269896" tabindex="0">
				<title>l_o9xo3rp9-xd144xzd-38dz6v1n.814y45w1</title>
			</path>
			<rect x="1433" y="269896" width="0" height="0"/>
			<path d="M1433,269896L1433,269896" tabindex="0">
				<title>02:21.18 on 2023-05-18</title>
			</path>
			<line x1="0" y1="269896" x2="1644" y2="269896"/>
			<line x1="1433" y1="284014" x2="1433" y2="0"/>
		</g>
		<g style="--index: 16;">
			<path d="M1562,282975" tabindex="0">
				<title>l_r9gn1qpd-9d8eewld-0nwoqwkl.21g82pnl</title>
			</path>
			<rect x="1562" y="282975" width="0" height="0"/>
			<path d="M1562,282975L1562,282975" tabindex="0">
				<title>00:10.39 on 2023-09-24</title>
			</path>
			<line x1="0" y1="282975" x2="1644" y2="282975"/>
			<line x1="1562" y1="284014" x2="1562" y2="0"/>
		</g>
		<g style="--index: 17;">
			<path d="M1644,111265" tabindex="0">
				<title>7dg65oxk-r8r1zm0n.5q89kv31</title>
			</path>
			<rect x="1644" y="111265" width="0" height="0"/>
			<path d="M1644,111265L1644,111265" tabindex="0">
				<title>28:47.49 on 2023-12-15</title>
			</path>
			<line x1="0" y1="111265" x2="1644" y2="111265"/>
			<line x1="1644" y1="284014" x2="1644" y2="0"/>
		</g>
	</g>
</svg>
