<svg xmlns="http://www.w3.org/2000/svg" viewBox="0 0 196 145349" preserveAspectRatio="none" lang="en" style="color-scheme: dark light;">
		<title>Time by leaderboard for player 18qg9ndx</title>
		<style>
			svg {
				background: var(--canvas-background);
				fill: var(--canvas-background);
				stroke: var(--canvas-foreground);
				stroke-linejoin: round;
				stroke-linecap: round;
			}
			g &gt; path[tabindex] {
				vector-effect: non-scaling-stroke;
				fill: none;
				stroke: hsl(calc(var(--index) / var(--count) * 360), 50%, 50%);
				cursor: help;
			}
			g:is(:hover, :focus-within) &gt; path[tabindex] {
				stroke: var(--canvas-foreground);
			}
			g &gt; path[tabindex]:is(:hover, :focus-within) {
				outline: 0;
			}
			g &gt; path[tabindex]:first-of-type {
				stroke-width: 2;
			}
			g &gt; path[tabindex]:first-of-type:is(:hover, :focus-within) {
				stroke-width: 4;
			}
			g &gt; path[tabindex]:first-of-type:not(:last-of-type) {
				stroke-dasharray: 4 8;
			}
			g &gt; rect {
				vector-effect: non-scaling-stroke;
				fill: none;
				stroke: none;
				pointer-events: none;
			}
			g &gt; path[tabindex]:first-of-type:is(:hover, :focus-within) + rect {
				fill: var(--highlighted);
			}
			g &gt; path[tabindex]:first-of-type ~ path[tabindex] {
				stroke-width: 8;
			}
			g &gt; path[tabindex]:first-of-type ~ path[tabindex]:is(:hover, :focus-within) {
				stroke-width: 16;
			}
			g &gt; line {
				vector-effect: non-scaling-stroke;
				fill: none;
				stroke: none;
				stroke-width: 2;
				stroke-dasharray: 4 8;
				pointer-events: none;
			}
			g &gt; path[tabindex]:first-of-type:is(:hover, :focus-within) + rect + path[tabindex] + line,
			g &gt; path[tabindex]:first-of-type:is(:hover, :focus-within) + rect + path[tabindex] + line + line,
			g &gt; path[tabindex]:first-of-type:is(:hover, :focus-within) ~ path[tabindex]:last-of-type + line,
			g &gt; path[tabindex]:first-of-type:is(:hover, :focus-within) ~ path[tabindex]:last-of-type + line + line,
			g &gt; path[tabindex]:first-of-type ~ path[tabindex]:is(:hover, :focus-within) + line,
			g &gt; path[tabindex]:first-of-type ~ path[tabindex]:is(:hover, :focus-within) + line + line {
				stroke: var(--faded);
			}
			@media (prefers-color-scheme: dark) {
				:root {
					--canvas-background: #000;
					--canvas-foreground: #ccc;
					--highlighted: #6663;
					--faded: #9993;
				}
			}
			@media (prefers-color-scheme: light) {
				:root {
					--canvas-background: #fff;
					--canvas-foreground: #333;
					--highlighted: #9993;
					--faded: #6663;
				}
			}
		</style>
		<g style="--count: 24;">
		<g style="--index: 0;">
			<path d="M0,143290" tabindex="0">
				<title>l_r9gn1qpd-9d8eewld-0nwoqwkl.klrpy2jq</title>
			</path>
			<rect x="0" y="143290" width="0" height="0"/>
			<path d="M0,143290L0,143290" tabindex="0">
				<title>00:20.59 on 2018-03-18</title>
			</path>
			<line x1="0" y1="143290" x2="196" y2="143290"/>
			<line x1="0" y1="145349" x2="0" y2="0"/>
		</g>
		<g style="--index: 1;">
			<path d="M0,144070" tabindex="0">
				<title>l_r9gn1qpd-9d8eewld-0nwoqwkl.jqzpx3gl</title>
			</path>
			<rect x="0" y="144070" width="0" height="0"/>
			<path d="M0,144070L0,144070" tabindex="0">
				<title>00:12.79 on 2018-03-18</title>
			</path>
			<line x1="0" y1="144070" x2="196" y2="144070"/>
			<line x1="0" y1="145349" x2="0" y2="0"/>
		</g>
		<g style="--index: 2;">
			<path d="M1,144306L25,144306L25,144331" tabindex="0">
				<title>l_r9gn1qpd-9d8eewld-0nwoqwkl.81ppdgg1</title>
			</path>
			<rect x="1" y="144306" width="24" height="25"/>
			<path d="M1,144306L1,144306" tabindex="0">
				<title>00:10.43 on 2018-03-19</title>
			</path>
			<line x1="0" y1="144306" x2="196" y2="144306"/>
			<line x1="1" y1="145349" x2="1" y2="0"/>
			<path d="M25,144331L25,144331" tabindex="0">
				<title>00:10.18 on 2018-04-12</title>
			</path>
			<line x1="0" y1="144331" x2="196" y2="144331"/>
			<line x1="25" y1="145349" x2="25" y2="0"/>
		</g>
		<g style="--index: 3;">
			<path d="M2,144380" tabindex="0">
				<title>l_o9xo3rp9-9d8eewld-7896y468.013856dq</title>
			</path>
			<rect x="2" y="144380" width="0" height="0"/>
			<path d="M2,144380L2,144380" tabindex="0">
				<title>00:09.69 on 2018-03-20</title>
			</path>
			<line x1="0" y1="144380" x2="196" y2="144380"/>
			<line x1="2" y1="145349" x2="2" y2="0"/>
		</g>
		<g style="--index: 4;">
			<path d="M2,142147L26,142147L26,142271" tabindex="0">
				<title>l_o9xo3rp9-9d8eewld-7896y468.5lermx5q</title>
			</path>
			<rect x="2" y="142147" width="24" height="124"/>
			<path d="M2,142147L2,142147" tabindex="0">
				<title>00:32.02 on 2018-03-20</title>
			</path>
			<line x1="0" y1="142147" x2="196" y2="142147"/>
			<line x1="2" y1="145349" x2="2" y2="0"/>
			<path d="M26,142271L26,142271" tabindex="0">
				<title>00:30.78 on 2018-04-13</title>
			</path>
			<line x1="0" y1="142271" x2="196" y2="142271"/>
			<line x1="26" y1="145349" x2="26" y2="0"/>
		</g>
		<g style="--index: 5;">
			<path d="M4,143485" tabindex="0">
				<title>l_o9xo3rp9-9d8eewld-7896y468.jq60ze3q</title>
			</path>
			<rect x="4" y="143485" width="0" height="0"/>
			<path d="M4,143485L4,143485" tabindex="0">
				<title>00:18.64 on 2018-03-22</title>
			</path>
			<line x1="0" y1="143485" x2="196" y2="143485"/>
			<line x1="4" y1="145349" x2="4" y2="0"/>
		</g>
		<g style="--index: 6;">
			<path d="M4,143142" tabindex="0">
				<title>l_o9xo3rp9-9d8eewld-7896y468.rqvpey7q</title>
			</path>
			<rect x="4" y="143142" width="0" height="0"/>
			<path d="M4,143142L4,143142" tabindex="0">
				<title>00:22.07 on 2018-03-22</title>
			</path>
			<line x1="0" y1="143142" x2="196" y2="143142"/>
			<line x1="4" y1="145349" x2="4" y2="0"/>
		</g>
		<g style="--index: 7;">
			<path d="M4,143034" tabindex="0">
				<title>l_r9gn1qpd-9d8eewld-0nwoqwkl.21g82pnl</title>
			</path>
			<rect x="4" y="143034" width="0" height="0"/>
			<path d="M4,143034L4,143034" tabindex="0">
				<title>00:23.15 on 2018-03-22</title>
			</path>
			<line x1="0" y1="143034" x2="196" y2="143034"/>
			<line x1="4" y1="145349" x2="4" y2="0"/>
		</g>
		<g style="--index: 8;">
			<path d="M4,143108" tabindex="0">
				<title>l_r9gn1qpd-9d8eewld-0nwoqwkl.21dz3e4l</title>
			</path>
			<rect x="4" y="143108" width="0" height="0"/>
			<path d="M4,143108L4,143108" tabindex="0">
				<title>00:22.41 on 2018-03-22</title>
			</path>
			<line x1="0" y1="143108" x2="196" y2="143108"/>
			<line x1="4" y1="145349" x2="4" y2="0"/>
		</g>
		<g style="--index: 9;">
			<path d="M4,138536L25,138536L25,139957L28,139957L28,140168" tabindex="0">
				<title>l_r9gn1qpd-9d8eewld-0nwoqwkl.p12dx87q</title>
			</path>
			<rect x="4" y="138536" width="24" height="1632"/>
			<path d="M4,138536L4,138536" tabindex="0">
				<title>01:08.13 on 2018-03-22</title>
			</path>
			<line x1="0" y1="138536" x2="196" y2="138536"/>
			<line x1="4" y1="145349" x2="4" y2="0"/>
			<path d="M25,139957L25,139957" tabindex="0">
				<title>00:53.92 on 2018-04-12</title>
			</path>
			<line x1="0" y1="139957" x2="196" y2="139957"/>
			<line x1="25" y1="145349" x2="25" y2="0"/>
			<path d="M28,140168L28,140168" tabindex="0">
				<title>00:51.81 on 2018-04-15</title>
			</path>
			<line x1="0" y1="140168" x2="196" y2="140168"/>
			<line x1="28" y1="145349" x2="28" y2="0"/>
		</g>
		<g style="--index: 10;">
			<path d="M4,135253" tabindex="0">
				<title>l_o9xo3rp9-9d8eewld-7896y468.810zwdwq</title>
			</path>
			<rect x="4" y="135253" width="0" height="0"/>
			<path d="M4,135253L4,135253" tabindex="0">
				<title>01:40.96 on 2018-03-22</title>
			</path>
			<line x1="0" y1="135253" x2="196" y2="135253"/>
			<line x1="4" y1="145349" x2="4" y2="0"/>
		</g>
		<g style="--index: 11;">
			<path d="M4,143145" tabindex="0">
				<title>l_r9gn1qpd-9d8eewld-0nwoqwkl.xqkjmxnl</title>
			</path>
			<rect x="4" y="143145" width="0" height="0"/>
			<path d="M4,143145L4,143145" tabindex="0">
				<title>00:22.04 on 2018-03-22</title>
			</path>
			<line x1="0" y1="143145" x2="196" y2="143145"/>
			<line x1="4" y1="145349" x2="4" y2="0"/>
		</g>
		<g style="--index: 12;">
			<path d="M4,142405" tabindex="0">
				<title>l_o9xo3rp9-9d8eewld-7896y468.9qj0x8el</title>
			</path>
			<rect x="4" y="142405" width="0" height="0"/>
			<path d="M4,142405L4,142405" tabindex="0">
				<title>00:29.44 on 2018-03-22</title>
			</path>
			<line x1="0" y1="142405" x2="196" y2="142405"/>
			<line x1="4" y1="145349" x2="4" y2="0"/>
		</g>
		<g style="--index: 13;">
			<path d="M22,142856" tabindex="0">
				<title>l_495zlx39-9d8eewld-2lgr793n.gq7jzvvq</title>
			</path>
			<rect x="22" y="142856" width="0" height="0"/>
			<path d="M22,142856L22,142856" tabindex="0">
				<title>00:24.93 on 2018-04-09</title>
			</path>
			<line x1="0" y1="142856" x2="196" y2="142856"/>
			<line x1="22" y1="145349" x2="22" y2="0"/>
		</g>
		<g style="--index: 14;">
			<path d="M22,141898" tabindex="0">
				<title>l_495zlx39-9d8eewld-2lgr793n.z19m8p0l</title>
			</path>
			<rect x="22" y="141898" width="0" height="0"/>
			<path d="M22,141898L22,141898" tabindex="0">
				<title>00:34.51 on 2018-04-09</title>
			</path>
			<line x1="0" y1="141898" x2="196" y2="141898"/>
			<line x1="22" y1="145349" x2="22" y2="0"/>
		</g>
		<g style="--index: 15;">
			<path d="M23,140406" tabindex="0">
				<title>l_495zlx39-9d8eewld-2lgr793n.21g8ownl</title>
			</path>
			<rect x="23" y="140406" width="0" height="0"/>
			<path d="M23,140406L23,140406" tabindex="0">
				<title>00:49.43 on 2018-04-10</title>
			</path>
			<line x1="0" y1="140406" x2="196" y2="140406"/>
			<line x1="23" y1="145349" x2="23" y2="0"/>
		</g>
		<g style="--index: 16;">
			<path d="M24,142002" tabindex="0">
				<title>l_495zlx39-9d8eewld-2lgr793n.814y7w01</title>
			</path>
			<rect x="24" y="142002" width="0" height="0"/>
			<path d="M24,142002L24,142002" tabindex="0">
				<title>00:33.47 on 2018-04-11</title>
			</path>
			<line x1="0" y1="142002" x2="196" y2="142002"/>
			<line x1="24" y1="145349" x2="24" y2="0"/>
		</g>
		<g style="--index: 17;">
			<path d="M24,141945" tabindex="0">
				<title>l_495zlx39-9d8eewld-2lgr793n.xqkjmnnl</title>
			</path>
			<rect x="24" y="141945" width="0" height="0"/>
			<path d="M24,141945L24,141945" tabindex="0">
				<title>00:34.04 on 2018-04-11</title>
			</path>
			<line x1="0" y1="141945" x2="196" y2="141945"/>
			<line x1="24" y1="145349" x2="24" y2="0"/>
		</g>
		<g style="--index: 18;">
			<path d="M24,141298L25,141298L25,141452" tabindex="0">
				<title>l_495zlx39-9d8eewld-2lgr793n.81ppd5g1</title>
			</path>
			<rect x="24" y="141298" width="1" height="154"/>
			<path d="M24,141298L24,141298" tabindex="0">
				<title>00:40.51 on 2018-04-11</title>
			</path>
			<line x1="0" y1="141298" x2="196" y2="141298"/>
			<line x1="24" y1="145349" x2="24" y2="0"/>
			<path d="M25,141452L25,141452" tabindex="0">
				<title>00:38.97 on 2018-04-12</title>
			</path>
			<line x1="0" y1="141452" x2="196" y2="141452"/>
			<line x1="25" y1="145349" x2="25" y2="0"/>
		</g>
		<g style="--index: 19;">
			<path d="M25,131148" tabindex="0">
				<title>l_495zlx39-9d8eewld-2lgr793n.4lxpe62q</title>
			</path>
			<rect x="25" y="131148" width="0" height="0"/>
			<path d="M25,131148L25,131148" tabindex="0">
				<title>02:22.01 on 2018-04-12</title>
			</path>
			<line x1="0" y1="131148" x2="196" y2="131148"/>
			<line x1="25" y1="145349" x2="25" y2="0"/>
		</g>
		<g style="--index: 20;">
			<path d="M25,78588" tabindex="0">
				<title>l_495zlx39-9d8eewld-2lgr793n.p12dx07q</title>
			</path>
			<rect x="25" y="78588" width="0" height="0"/>
			<path d="M25,78588L25,78588" tabindex="0">
				<title>11:07.61 on 2018-04-12</title>
			</path>
			<line x1="0" y1="78588" x2="196" y2="78588"/>
			<line x1="25" y1="145349" x2="25" y2="0"/>
		</g>
		<g style="--index: 21;">
			<path d="M26,142313" tabindex="0">
				<title>l_o9xo3rp9-9d8eewld-7896y468.81wp50oq</title>
			</path>
			<rect x="26" y="142313" width="0" height="0"/>
			<path d="M26,142313L26,142313" tabindex="0">
				<title>00:30.36 on 2018-04-13</title>
			</path>
			<line x1="0" y1="142313" x2="196" y2="142313"/>
			<line x1="26" y1="145349" x2="26" y2="0"/>
		</g>
		<g style="--index: 22;">
			<path d="M166,142619" tabindex="0">
				<title>l_ldykv1zw-rkl3znrk-wl3059ol.4qypgj4q</title>
			</path>
			<rect x="166" y="142619" width="0" height="0"/>
			<path d="M166,142619L166,142619" tabindex="0">
				<title>00:27.30 on 2018-08-31</title>
			</path>
			<line x1="0" y1="142619" x2="196" y2="142619"/>
			<line x1="166" y1="145349" x2="166" y2="0"/>
		</g>
		<g style="--index: 23;">
			<path d="M196,0" tabindex="0">
				<title>xd17x94d-9l71pv4l.81wrgm5l</title>
			</path>
			<rect x="196" y="0" width="0" height="0"/>
			<path d="M196,0L196,0" tabindex="0">
				<title>24:13.49 on 2018-09-30</title>
			</path>
			<line x1="0" y1="0" x2="196" y2="0"/>
			<line x1="196" y1="145349" x2="196" y2="0"/>
		</g>
	</g>
</svg>
