<svg xmlns="http://www.w3.org/2000/svg" viewBox="0 0 196 145349" preserveAspectRatio="none" lang="en" style="color-scheme: dark light;">
	<title>Time by leaderboard for player 18qg9ndx</title>
	<style>
		svg {
			background: var(--canvas-background);
			fill: var(--canvas-background);
			stroke: var(--canvas-foreground);
			stroke-linejoin: round;
			stroke-linecap: round;
		}
		g &gt; path[tabindex] {
			vector-effect: non-scaling-stroke;
			fill: none;
			stroke: hsl(calc(var(--index) / var(--count) * 360), 50%, 50%);
			cursor: help;
		}
		g:is(:hover, :focus-within) &gt; path[tabindex] {
			stroke: var(--canvas-foreground);
		}
		g &gt; path[tabindex]:is(:hover, :focus-within) {
			outline: 0;
		}
		g &gt; path[tabindex]:first-of-type {
			stroke-width: 2;
		}
		g &gt; path[tabindex]:first-of-type:is(:hover, :focus-within) {
			stroke-width: 4;
		}
		g &gt; path[tabindex]:first-of-type:not(:last-of-type) {
			stroke-dasharray: 4 8;
		}
		g &gt; rect {
			vector-effect: non-scaling-stroke;
			fill: none;
			stroke: none;
			pointer-events: none;
		}
		g &gt; path[tabindex]:first-of-type:is(:hover, :focus-within) + rect {
			fill: var(--highlighted);
		}
		g &gt; path[tabindex]:first-of-type ~ path[tabindex] {
			stroke-width: 8;
		}
		g &gt; path[tabindex]:first-of-type ~ path[tabindex]:is(:hover, :focus-within) {
			stroke-width: 16;
		}
		g &gt; line {
			vector-effect: non-scaling-stroke;
			fill: none;
			stroke: none;
			stroke-width: 2;
			stroke-dasharray: 4 8;
			pointer-events: none;
		}
		g &gt; path[tabindex]:first-of-type:is(:hover, :focus-within) + rect + path[tabindex] + line,
		g &gt; path[tabindex]:first-of-type:is(:hover, :focus-within) + rect + path[tabindex] + line + line,
		g &gt; path[tabindex]:first-of-type:is(:hover, :focus-within) ~ path[tabindex]:last-of-type + line,
		g &gt; path[tabindex]:first-of-type:is(:hover, :focus-within) ~ path[tabindex]:last-of-type + line + line,
		g &gt; path[tabindex]:first-of-type ~ path[tabindex]:is(:hover, :focus-within) + line,
		g &gt; path[tabindex]:first-of-type ~ path[tabindex]:is(:hover, :focus-within) + line + line {
			stroke: var(--faded);
		}
		@media (prefers-color-scheme: dark) {
			:root {
				--canvas-background: #000;
				--canvas-foreground: #ccc;
				--highlighted: #6663;
				--faded: #9993;
			}
		}
		@media (prefers-color-scheme: light) {
			:root {
				--canvas-background: #fff;
				--canvas-foreground: #333;
				--highlighted: #9993;
				--faded: #6663;
			}
		}
	</style>
	<g transform="scale(1 -1)" transform-origin="center center" style="--count: 24;">
		<g style="--index: 0;">
			<path d="M0,2059" tabindex="0">
				<title>l_r9gn1qpd-9d8eewld-0nwoqwkl.klrpy2jq</title>
			</path>
			<rect x="0" y="2059" width="0" height="0"/>
			<path d="M0,2059L0,2059" tabindex="0">
				<title>00:20.59 on 2018-03-18</title>
			</path>
			<line x1="0" y1="2059" x2="196" y2="2059"/>
			<line x1="0" y1="0" x2="0" y2="145349"/>
		</g>
		<g style="--index: 1;">
			<path d="M0,1279" tabindex="0">
				<title>l_r9gn1qpd-9d8eewld-0nwoqwkl.jqzpx3gl</title>
			</path>
			<rect x="0" y="1279" width="0" height="0"/>
			<path d="M0,1279L0,1279" tabindex="0">
				<title>00:12.79 on 2018-03-18</title>
			</path>
			<line x1="0" y1="1279" x2="196" y2="1279"/>
			<line x1="0" y1="0" x2="0" y2="145349"/>
		</g>
		<g style="--index: 2;">
			<path d="M1,1043L25,1043L25,1018" tabindex="0">
				<title>l_r9gn1qpd-9d8eewld-0nwoqwkl.81ppdgg1</title>
			</path>
			<rect x="1" y="1018" width="24" height="25"/>
			<path d="M1,1043L1,1043" tabindex="0">
				<title>00:10.43 on 2018-03-19</title>
			</path>
			<line x1="0" y1="1043" x2="196" y2="1043"/>
			<line x1="1" y1="0" x2="1" y2="145349"/>
			<path d="M25,1018L25,1018" tabindex="0">
				<title>00:10.18 on 2018-04-12</title>
			</path>
			<line x1="0" y1="1018" x2="196" y2="1018"/>
			<line x1="25" y1="0" x2="25" y2="145349"/>
		</g>
		<g style="--index: 3;">
			<path d="M2,969" tabindex="0">
				<title>l_o9xo3rp9-9d8eewld-7896y468.013856dq</title>
			</path>
			<rect x="2" y="969" width="0" height="0"/>
			<path d="M2,969L2,969" tabindex="0">
				<title>00:09.69 on 2018-03-20</title>
			</path>
			<line x1="0" y1="969" x2="196" y2="969"/>
			<line x1="2" y1="0" x2="2" y2="145349"/>
		</g>
		<g style="--index: 4;">
			<path d="M2,3202L26,3202L26,3078" tabindex="0">
				<title>l_o9xo3rp9-9d8eewld-7896y468.5lermx5q</title>
			</path>
			<rect x="2" y="3078" width="24" height="124"/>
			<path d="M2,3202L2,3202" tabindex="0">
				<title>00:32.02 on 2018-03-20</title>
			</path>
			<line x1="0" y1="3202" x2="196" y2="3202"/>
			<line x1="2" y1="0" x2="2" y2="145349"/>
			<path d="M26,3078L26,3078" tabindex="0">
				<title>00:30.78 on 2018-04-13</title>
			</path>
			<line x1="0" y1="3078" x2="196" y2="3078"/>
			<line x1="26" y1="0" x2="26" y2="145349"/>
		</g>
		<g style="--index: 5;">
			<path d="M4,1864" tabindex="0">
				<title>l_o9xo3rp9-9d8eewld-7896y468.jq60ze3q</title>
			</path>
			<rect x="4" y="1864" width="0" height="0"/>
			<path d="M4,1864L4,1864" tabindex="0">
				<title>00:18.64 on 2018-03-22</title>
			</path>
			<line x1="0" y1="1864" x2="196" y2="1864"/>
			<line x1="4" y1="0" x2="4" y2="145349"/>
		</g>
		<g style="--index: 6;">
			<path d="M4,2207" tabindex="0">
				<title>l_o9xo3rp9-9d8eewld-7896y468.rqvpey7q</title>
			</path>
			<rect x="4" y="2207" width="0" height="0"/>
			<path d="M4,2207L4,2207" tabindex="0">
				<title>00:22.07 on 2018-03-22</title>
			</path>
			<line x1="0" y1="2207" x2="196" y2="2207"/>
			<line x1="4" y1="0" x2="4" y2="145349"/>
		</g>
		<g style="--index: 7;">
			<path d="M4,2315" tabindex="0">
				<title>l_r9gn1qpd-9d8eewld-0nwoqwkl.21g82pnl</title>
			</path>
			<rect x="4" y="2315" width="0" height="0"/>
			<path d="M4,2315L4,2315" tabindex="0">
				<title>00:23.15 on 2018-03-22</title>
			</path>
			<line x1="0" y1="2315" x2="196" y2="2315"/>
			<line x1="4" y1="0" x2="4" y2="145349"/>
		</g>
		<g style="--index: 8;">
			<path d="M4,2241" tabindex="0">
				<title>l_r9gn1qpd-9d8eewld-0nwoqwkl.21dz3e4l</title>
			</path>
			<rect x="4" y="2241" width="0" height="0"/>
			<path d="M4,2241L4,2241" tabindex="0">
				<title>00:22.41 on 2018-03-22</title>
			</path>
			<line x1="0" y1="2241" x2="196" y2="2241"/>
			<line x1="4" y1="0" x2="4" y2="145349"/>
		</g>
		<g style="--index: 9;">
			<path d="M4,6813L25,6813L25,5392L28,5392L28,5181" tabindex="0">
				<title>l_r9gn1qpd-9d8eewld-0nwoqwkl.p12dx87q</title>
			</path>
			<rect x="4" y="5181" width="24" height="1632"/>
			<path d="M4,6813L4,6813" tabindex="0">
				<title>01:08.13 on 2018-03-22</title>
			</path>
			<line x1="0" y1="6813" x2="196" y2="6813"/>
			<line x1="4" y1="0" x2="4" y2="145349"/>
			<path d="M25,5392L25,5392" tabindex="0">
				<title>00:53.92 on 2018-04-12</title>
			</path>
			<line x1="0" y1="5392" x2="196" y2="5392"/>
			<line x1="25" y1="0" x2="25" y2="145349"/>
			<path d="M28,5181L28,5181" tabindex="0">
				<title>00:51.81 on 2018-04-15</title>
			</path>
			<line x1="0" y1="5181" x2="196" y2="5181"/>
			<line x1="28" y1="0" x2="28" y2="145349"/>
		</g>
		<g style="--index: 10;">
			<path d="M4,10096" tabindex="0">
				<title>l_o9xo3rp9-9d8eewld-7896y468.810zwdwq</title>
			</path>
			<rect x="4" y="10096" width="0" height="0"/>
			<path d="M4,10096L4,10096" tabindex="0">
				<title>01:40.96 on 2018-03-22</title>
			</path>
			<line x1="0" y1="10096" x2="196" y2="10096"/>
			<line x1="4" y1="0" x2="4" y2="145349"/>
		</g>
		<g style="--index: 11;">
			<path d="M4,2204" tabindex="0">
				<title>l_r9gn1qpd-9d8eewld-0nwoqwkl.xqkjmxnl</title>
			</path>
			<rect x="4" y="2204" width="0" height="0"/>
			<path d="M4,2204L4,2204" tabindex="0">
				<title>00:22.04 on 2018-03-22</title>
			</path>
			<line x1="0" y1="2204" x2="196" y2="2204"/>
			<line x1="4" y1="0" x2="4" y2="145349"/>
		</g>
		<g style="--index: 12;">
			<path d="M4,2944" tabindex="0">
				<title>l_o9xo3rp9-9d8eewld-7896y468.9qj0x8el</title>
			</path>
			<rect x="4" y="2944" width="0" height="0"/>
			<path d="M4,2944L4,2944" tabindex="0">
				<title>00:29.44 on 2018-03-22</title>
			</path>
			<line x1="0" y1="2944" x2="196" y2="2944"/>
			<line x1="4" y1="0" x2="4" y2="145349"/>
		</g>
		<g style="--index: 13;">
			<path d="M22,2493" tabindex="0">
				<title>l_495zlx39-9d8eewld-2lgr793n.gq7jzvvq</title>
			</path>
			<rect x="22" y="2493" width="0" height="0"/>
			<path d="M22,2493L22,2493" tabindex="0">
				<title>00:24.93 on 2018-04-09</title>
			</path>
			<line x1="0" y1="2493" x2="196" y2="2493"/>
			<line x1="22" y1="0" x2="22" y2="145349"/>
		</g>
		<g style="--index: 14;">
			<path d="M22,3451" tabindex="0">
				<title>l_495zlx39-9d8eewld-2lgr793n.z19m8p0l</title>
			</path>
			<rect x="22" y="3451" width="0" height="0"/>
			<path d="M22,3451L22,3451" tabindex="0">
				<title>00:34.51 on 2018-04-09</title>
			</path>
			<line x1="0" y1="3451" x2="196" y2="3451"/>
			<line x1="22" y1="0" x2="22" y2="145349"/>
		</g>
		<g style="--index: 15;">
			<path d="M23,4943" tabindex="0">
				<title>l_495zlx39-9d8eewld-2lgr793n.21g8ownl</title>
			</path>
			<rect x="23" y="4943" width="0" height="0"/>
			<path d="M23,4943L23,4943" tabindex="0">
				<title>00:49.43 on 2018-04-10</title>
			</path>
			<line x1="0" y1="4943" x2="196" y2="4943"/>
			<line x1="23" y1="0" x2="23" y2="145349"/>
		</g>
		<g style="--index: 16;">
			<path d="M24,3347" tabindex="0">
				<title>l_495zlx39-9d8eewld-2lgr793n.814y7w01</title>
			</path>
			<rect x="24" y="3347" width="0" height="0"/>
			<path d="M24,3347L24,3347" tabindex="0">
				<title>00:33.47 on 2018-04-11</title>
			</path>
			<line x1="0" y1="3347" x2="196" y2="3347"/>
			<line x1="24" y1="0" x2="24" y2="145349"/>
		</g>
		<g style="--index: 17;">
			<path d="M24,3404" tabindex="0">
				<title>l_495zlx39-9d8eewld-2lgr793n.xqkjmnnl</title>
			</path>
			<rect x="24" y="3404" width="0" height="0"/>
			<path d="M24,3404L24,3404" tabindex="0">
				<title>00:34.04 on 2018-04-11</title>
			</path>
			<line x1="0" y1="3404" x2="196" y2="3404"/>
			<line x1="24" y1="0" x2="24" y2="145349"/>
		</g>
		<g style="--index: 18;">
			<path d="M24,4051L25,4051L25,3897" tabindex="0">
				<title>l_495zlx39-9d8eewld-2lgr793n.81ppd5g1</title>
			</path>
			<rect x="24" y="3897" width="1" height="154"/>
			<path d="M24,4051L24,4051" tabindex="0">
				<title>00:40.51 on 2018-04-11</title>
			</path>
			<line x1="0" y1="4051" x2="196" y2="4051"/>
			<line x1="24" y1="0" x2="24" y2="145349"/>
			<path d="M25,3897L25,3897" tabindex="0">
				<title>00:38.97 on 2018-04-12</title>
			</path>
			<line x1="0" y1="3897" x2="196" y2="3897"/>
			<line x1="25" y1="0" x2="25" y2="145349"/>
		</g>
		<g style="--index: 19;">
			<path d="M25,14201" tabindex="0">
				<title>l_495zlx39-9d8eewld-2lgr793n.4lxpe62q</title>
			</path>
			<rect x="25" y="14201" width="0" height="0"/>
			<path d="M25,14201L25,14201" tabindex="0">
				<title>02:22.01 on 2018-04-12</title>
			</path>
			<line x1="0" y1="14201" x2="196" y2="14201"/>
			<line x1="25" y1="0" x2="25" y2="145349"/>
		</g>
		<g style="--index: 20;">
			<path d="M25,66761" tabindex="0">
				<title>l_495zlx39-9d8eewld-2lgr793n.p12dx07q</title>
			</path>
			<rect x="25" y="66761" width="0" height="0"/>
			<path d="M25,66761L25,66761" tabindex="0">
				<title>11:07.61 on 2018-04-12</title>
			</path>
			<line x1="0" y1="66761" x2="196" y2="66761"/>
			<line x1="25" y1="0" x2="25" y2="145349"/>
		</g>
		<g style="--index: 21;">
			<path d="M26,3036" tabindex="0">
				<title>l_o9xo3rp9-9d8eewld-7896y468.81wp50oq</title>
			</path>
			<rect x="26" y="3036" width="0" height="0"/>
			<path d="M26,3036L26,3036" tabindex="0">
				<title>00:30.36 on 2018-04-13</title>
			</path>
			<line x1="0" y1="3036" x2="196" y2="3036"/>
			<line x1="26" y1="0" x2="26" y2="145349"/>
		</g>
		<g style="--index: 22;">
			<path d="M166,2730" tabindex="0">
				<title>l_ldykv1zw-rkl3znrk-wl3059ol.4qypgj4q</title>
			</path>
			<rect x="166" y="2730" width="0" height="0"/>
			<path d="M166,2730L166,2730" tabindex="0">
				<title>00:27.30 on 2018-08-31</title>
			</path>
			<line x1="0" y1="2730" x2="196" y2="2730"/>
			<line x1="166" y1="0" x2="166" y2="145349"/>
		</g>
		<g style="--index: 23;">
			<path d="M196,145349" tabindex="0">
				<title>xd17x94d-9l71pv4l.81wrgm5l</title>
			</path>
			<rect x="196" y="145349" width="0" height="0"/>
			<path d="M196,145349L196,145349" tabindex="0">
				<title>24:13.49 on 2018-09-30</title>
			</path>
			<line x1="0" y1="145349" x2="196" y2="145349"/>
			<line x1="196" y1="0" x2="196" y2="145349"/>
		</g>
	</g>
</svg>
