<svg xmlns="http://www.w3.org/2000/svg" viewBox="0 0 231 9601" preserveAspectRatio="none" lang="en" style="color-scheme: dark light;">
		<title>Time by leaderboard for player 48grel1x</title>
		<style>
			svg {
				background: var(--canvas-background);
				fill: var(--canvas-background);
				stroke: var(--canvas-foreground);
				stroke-linejoin: round;
				stroke-linecap: round;
			}
			g &gt; path[tabindex] {
				vector-effect: non-scaling-stroke;
				fill: none;
				stroke: hsl(calc(var(--index) / var(--count) * 360), 50%, 50%);
				cursor: help;
			}
			g:is(:hover, :focus-within) &gt; path[tabindex] {
				stroke: var(--canvas-foreground);
			}
			g &gt; path[tabindex]:is(:hover, :focus-within) {
				outline: 0;
			}
			g &gt; path[tabindex]:first-of-type {
				stroke-width: 2;
			}
			g &gt; path[tabindex]:first-of-type:is(:hover, :focus-within) {
				stroke-width: 4;
			}
			g &gt; path[tabindex]:first-of-type:not(:last-of-type) {
				stroke-dasharray: 4 8;
			}
			g &gt; rect {
				vector-effect: non-scaling-stroke;
				fill: none;
				stroke: none;
				pointer-events: none;
			}
			g &gt; path[tabindex]:first-of-type:is(:hover, :focus-within) + rect {
				fill: var(--highlighted);
			}
			g &gt; path[tabindex]:first-of-type ~ path[tabindex] {
				stroke-width: 8;
			}
			g &gt; path[tabindex]:first-of-type ~ path[tabindex]:is(:hover, :focus-within) {
				stroke-width: 16;
			}
			g &gt; line {
				vector-effect: non-scaling-stroke;
				fill: none;
				stroke: none;
				stroke-width: 2;
				stroke-dasharray: 4 8;
				pointer-events: none;
			}
			g &gt; path[tabindex]:first-of-type:is(:hover, :focus-within) + rect + path[tabindex] + line,
			g &gt; path[tabindex]:first-of-type:is(:hover, :focus-within) + rect + path[tabindex] + line + line,
			g &gt; path[tabindex]:first-of-type:is(:hover, :focus-within) ~ path[tabindex]:last-of-type + line,
			g &gt; path[tabindex]:first-of-type:is(:hover, :focus-within) ~ path[tabindex]:last-of-type + line + line,
			g &gt; path[tabindex]:first-of-type ~ path[tabindex]:is(:hover, :focus-within) + line,
			g &gt; path[tabindex]:first-of-type ~ path[tabindex]:is(:hover, :focus-within) + line + line {
				stroke: var(--faded);
			}
			@media (prefers-color-scheme: dark) {
				:root {
					--canvas-background: #000;
					--canvas-foreground: #ccc;
					--highlighted: #6663;
					--faded: #9993;
				}
			}
			@media (prefers-color-scheme: light) {
				:root {
					--canvas-background: #fff;
					--canvas-foreground: #333;
					--highlighted: #9993;
					--faded: #6663;
				}
			}
		</style>
		<g transform="scale(1 -1)" transform-origin="center center" style="--count: 6;">
		<g style="--index: 0;">
			<path d="M0,6305L1,6305L1,5966L9,5966L9,5789L59,5789L59,5428" tabindex="0">
				<title>l_r9gn1qpd-9d8eewld-0nwoqwkl.p12dx87q</title>
			</path>
			<rect x="0" y="5428" width="59" height="877"/>
			<path d="M0,6305L0,6305" tabindex="0">
				<title>01:03.05 on 2018-01-15</title>
			</path>
			<line x1="0" y1="6305" x2="231" y2="6305"/>
			<line x1="0" y1="0" x2="0" y2="9601"/>
			<path d="M1,5966L1,5966" tabindex="0">
				<title>00:59.66 on 2018-01-16</title>
			</path>
			<line x1="0" y1="5966" x2="231" y2="5966"/>
			<line x1="1" y1="0" x2="1" y2="9601"/>
			<path d="M9,5789L9,5789" tabindex="0">
				<title>00:57.89 on 2018-01-24</title>
			</path>
			<line x1="0" y1="5789" x2="231" y2="5789"/>
			<line x1="9" y1="0" x2="9" y2="9601"/>
			<path d="M59,5428L59,5428" tabindex="0">
				<title>00:54.28 on 2018-03-15</title>
			</path>
			<line x1="0" y1="5428" x2="231" y2="5428"/>
			<line x1="59" y1="0" x2="59" y2="9601"/>
		</g>
		<g style="--index: 1;">
			<path d="M11,2101" tabindex="0">
				<title>l_r9gn1qpd-9d8eewld-0nwoqwkl.xqkjmxnl</title>
			</path>
			<rect x="11" y="2101" width="0" height="0"/>
			<path d="M11,2101L11,2101" tabindex="0">
				<title>00:21.01 on 2018-01-26</title>
			</path>
			<line x1="0" y1="2101" x2="231" y2="2101"/>
			<line x1="11" y1="0" x2="11" y2="9601"/>
		</g>
		<g style="--index: 2;">
			<path d="M11,1073L12,1073L12,1052" tabindex="0">
				<title>l_r9gn1qpd-9d8eewld-0nwoqwkl.81ppdgg1</title>
			</path>
			<rect x="11" y="1052" width="1" height="21"/>
			<path d="M11,1073L11,1073" tabindex="0">
				<title>00:10.73 on 2018-01-26</title>
			</path>
			<line x1="0" y1="1073" x2="231" y2="1073"/>
			<line x1="11" y1="0" x2="11" y2="9601"/>
			<path d="M12,1052L12,1052" tabindex="0">
				<title>00:10.52 on 2018-01-27</title>
			</path>
			<line x1="0" y1="1052" x2="231" y2="1052"/>
			<line x1="12" y1="0" x2="12" y2="9601"/>
		</g>
		<g style="--index: 3;">
			<path d="M12,9601" tabindex="0">
				<title>l_r9gn1qpd-xd144xzd-38dz6v1n.814y45w1</title>
			</path>
			<rect x="12" y="9601" width="0" height="0"/>
			<path d="M12,9601L12,9601" tabindex="0">
				<title>01:36.01 on 2018-01-27</title>
			</path>
			<line x1="0" y1="9601" x2="231" y2="9601"/>
			<line x1="12" y1="0" x2="12" y2="9601"/>
		</g>
		<g style="--index: 4;">
			<path d="M84,4892L86,4892L86,4000L88,4000L88,3847" tabindex="0">
				<title>l_495zlx39-9d8eewld-2lgr793n.81ppd5g1</title>
			</path>
			<rect x="84" y="3847" width="4" height="1045"/>
			<path d="M84,4892L84,4892" tabindex="0">
				<title>00:48.92 on 2018-04-09</title>
			</path>
			<line x1="0" y1="4892" x2="231" y2="4892"/>
			<line x1="84" y1="0" x2="84" y2="9601"/>
			<path d="M86,4000L86,4000" tabindex="0">
				<title>00:40.00 on 2018-04-11</title>
			</path>
			<line x1="0" y1="4000" x2="231" y2="4000"/>
			<line x1="86" y1="0" x2="86" y2="9601"/>
			<path d="M88,3847L88,3847" tabindex="0">
				<title>00:38.47 on 2018-04-13</title>
			</path>
			<line x1="0" y1="3847" x2="231" y2="3847"/>
			<line x1="88" y1="0" x2="88" y2="9601"/>
		</g>
		<g style="--index: 5;">
			<path d="M228,2737L231,2737L231,2714" tabindex="0">
				<title>l_ldykv1zw-rkl3znrk-wl3059ol.4qypgj4q</title>
			</path>
			<rect x="228" y="2714" width="3" height="23"/>
			<path d="M228,2737L228,2737" tabindex="0">
				<title>00:27.37 on 2018-08-31</title>
			</path>
			<line x1="0" y1="2737" x2="231" y2="2737"/>
			<line x1="228" y1="0" x2="228" y2="9601"/>
			<path d="M231,2714L231,2714" tabindex="0">
				<title>00:27.14 on 2018-09-03</title>
			</path>
			<line x1="0" y1="2714" x2="231" y2="2714"/>
			<line x1="231" y1="0" x2="231" y2="9601"/>
		</g>
	</g>
</svg>
