<svg xmlns="http://www.w3.org/2000/svg" viewBox="0 0 231 9601" preserveAspectRatio="none" lang="en" style="color-scheme: dark light;">
		<title>Time by leaderboard for player 48grel1x</title>
		<style>
			svg {
				background: var(--canvas-background);
				fill: var(--canvas-background);
				stroke: var(--canvas-foreground);
				stroke-linejoin: round;
				stroke-linecap: round;
			}
			g &gt; path[tabindex] {
				vector-effect: non-scaling-stroke;
				fill: none;
				stroke: hsl(calc(var(--index) / var(--count) * 360), 50%, 50%);
				cursor: help;
			}
			g:is(:hover, :focus-within) &gt; path[tabindex] {
				stroke: var(--canvas-foreground);
			}
			g &gt; path[tabindex]:is(:hover, :focus-within) {
				outline: 0;
			}
			g &gt; path[tabindex]:first-of-type {
				stroke-width: 2;
			}
			g &gt; path[tabindex]:first-of-type:is(:hover, :focus-within) {
				stroke-width: 4;
			}
			g &gt; path[tabindex]:first-of-type:not(:last-of-type) {
				stroke-dasharray: 4 8;
			}
			g &gt; rect {
				vector-effect: non-scaling-stroke;
				fill: none;
				stroke: none;
				pointer-events: none;
			}
			g &gt; path[tabindex]:first-of-type:is(:hover, :focus-within) + rect {
				fill: var(--highlighted);
			}
			g &gt; path[tabindex]:first-of-type ~ path[tabindex] {
				stroke-width: 8;
			}
			g &gt; path[tabindex]:first-of-type ~ path[tabindex]:is(:hover, :focus-within) {
				stroke-width: 16;
			}
			g &gt; line {
				vector-effect: non-scaling-stroke;
				fill: none;
				stroke: none;
				stroke-width: 2;
				stroke-dasharray: 4 8;
				pointer-events: none;
			}
			g &gt; path[tabindex]:first-of-type:is(:hover, :focus-within) + rect + path[tabindex] + line,
			g &gt; path[tabindex]:first-of-type:is(:hover, :focus-within) + rect + path[tabindex] + line + line,
			g &gt; path[tabindex]:first-of-type:is(:hover, :focus-within) ~ path[tabindex]:last-of-type + line,
			g &gt; path[tabindex]:first-of-type:is(:hover, :focus-within) ~ path[tabindex]:last-of-type + line + line,
			g &gt; path[tabindex]:first-of-type ~ path[tabindex]:is(:hover, :focus-within) + line,
			g &gt; path[tabindex]:first-of-type ~ path[tabindex]:is(:hover, :focus-within) + line + line {
				stroke: var(--faded);
			}
			@media (prefers-color-scheme: dark) {
				:root {
					--canvas-background: #000;
					--canvas-foreground: #ccc;
					--highlighted: #6663;
					--faded: #9993;
				}
			}
			@media (prefers-color-scheme: light) {
				:root {
					--canvas-background: #fff;
					--canvas-foreground: #333;
					--highlighted: #9993;
					--faded: #6663;
				}
			}
		</style>
		<g style="--count: 6;">
		<g style="--index: 0;">
			<path d="M0,3296L1,3296L1,3635L9,3635L9,3812L59,3812L59,4173" tabindex="0">
				<title>l_r9gn1qpd-9d8eewld-0nwoqwkl.p12dx87q</title>
			</path>
			<rect x="0" y="3296" width="59" height="877"/>
			<path d="M0,3296L0,3296" tabindex="0">
				<title>01:03.05 on 2018-01-15</title>
			</path>
			<line x1="0" y1="3296" x2="231" y2="3296"/>
			<line x1="0" y1="9601" x2="0" y2="0"/>
			<path d="M1,3635L1,3635" tabindex="0">
				<title>00:59.66 on 2018-01-16</title>
			</path>
			<line x1="0" y1="3635" x2="231" y2="3635"/>
			<line x1="1" y1="9601" x2="1" y2="0"/>
			<path d="M9,3812L9,3812" tabindex="0">
				<title>00:57.89 on 2018-01-24</title>
			</path>
			<line x1="0" y1="3812" x2="231" y2="3812"/>
			<line x1="9" y1="9601" x2="9" y2="0"/>
			<path d="M59,4173L59,4173" tabindex="0">
				<title>00:54.28 on 2018-03-15</title>
			</path>
			<line x1="0" y1="4173" x2="231" y2="4173"/>
			<line x1="59" y1="9601" x2="59" y2="0"/>
		</g>
		<g style="--index: 1;">
			<path d="M11,7500" tabindex="0">
				<title>l_r9gn1qpd-9d8eewld-0nwoqwkl.xqkjmxnl</title>
			</path>
			<rect x="11" y="7500" width="0" height="0"/>
			<path d="M11,7500L11,7500" tabindex="0">
				<title>00:21.01 on 2018-01-26</title>
			</path>
			<line x1="0" y1="7500" x2="231" y2="7500"/>
			<line x1="11" y1="9601" x2="11" y2="0"/>
		</g>
		<g style="--index: 2;">
			<path d="M11,8528L12,8528L12,8549" tabindex="0">
				<title>l_r9gn1qpd-9d8eewld-0nwoqwkl.81ppdgg1</title>
			</path>
			<rect x="11" y="8528" width="1" height="21"/>
			<path d="M11,8528L11,8528" tabindex="0">
				<title>00:10.73 on 2018-01-26</title>
			</path>
			<line x1="0" y1="8528" x2="231" y2="8528"/>
			<line x1="11" y1="9601" x2="11" y2="0"/>
			<path d="M12,8549L12,8549" tabindex="0">
				<title>00:10.52 on 2018-01-27</title>
			</path>
			<line x1="0" y1="8549" x2="231" y2="8549"/>
			<line x1="12" y1="9601" x2="12" y2="0"/>
		</g>
		<g style="--index: 3;">
			<path d="M12,0" tabindex="0">
				<title>l_r9gn1qpd-xd144xzd-38dz6v1n.814y45w1</title>
			</path>
			<rect x="12" y="0" width="0" height="0"/>
			<path d="M12,0L12,0" tabindex="0">
				<title>01:36.01 on 2018-01-27</title>
			</path>
			<line x1="0" y1="0" x2="231" y2="0"/>
			<line x1="12" y1="9601" x2="12" y2="0"/>
		</g>
		<g style="--index: 4;">
			<path d="M84,4709L86,4709L86,5601L88,5601L88,5754" tabindex="0">
				<title>l_495zlx39-9d8eewld-2lgr793n.81ppd5g1</title>
			</path>
			<rect x="84" y="4709" width="4" height="1045"/>
			<path d="M84,4709L84,4709" tabindex="0">
				<title>00:48.92 on 2018-04-09</title>
			</path>
			<line x1="0" y1="4709" x2="231" y2="4709"/>
			<line x1="84" y1="9601" x2="84" y2="0"/>
			<path d="M86,5601L86,5601" tabindex="0">
				<title>00:40.00 on 2018-04-11</title>
			</path>
			<line x1="0" y1="5601" x2="231" y2="5601"/>
			<line x1="86" y1="9601" x2="86" y2="0"/>
			<path d="M88,5754L88,5754" tabindex="0">
				<title>00:38.47 on 2018-04-13</title>
			</path>
			<line x1="0" y1="5754" x2="231" y2="5754"/>
			<line x1="88" y1="9601" x2="88" y2="0"/>
		</g>
		<g style="--index: 5;">
			<path d="M228,6864L231,6864L231,6887" tabindex="0">
				<title>l_ldykv1zw-rkl3znrk-wl3059ol.4qypgj4q</title>
			</path>
			<rect x="228" y="6864" width="3" height="23"/>
			<path d="M228,6864L228,6864" tabindex="0">
				<title>00:27.37 on 2018-08-31</title>
			</path>
			<line x1="0" y1="6864" x2="231" y2="6864"/>
			<line x1="228" y1="9601" x2="228" y2="0"/>
			<path d="M231,6887L231,6887" tabindex="0">
				<title>00:27.14 on 2018-09-03</title>
			</path>
			<line x1="0" y1="6887" x2="231" y2="6887"/>
			<line x1="231" y1="9601" x2="231" y2="0"/>
		</g>
	</g>
</svg>
