<svg xmlns="http://www.w3.org/2000/svg" viewBox="0 0 9 2366" preserveAspectRatio="none" lang="en" style="color-scheme: dark light;">
		<title>Time by leaderboard for player 5j5gggn8</title>
		<style>
			svg {
				background: var(--canvas-background);
				fill: var(--canvas-background);
				stroke: var(--canvas-foreground);
				stroke-linejoin: round;
				stroke-linecap: round;
			}
			g &gt; path[tabindex] {
				vector-effect: non-scaling-stroke;
				fill: none;
				stroke: hsl(calc(var(--index) / var(--count) * 360), 50%, 50%);
				cursor: help;
			}
			g:is(:hover, :focus-within) &gt; path[tabindex] {
				stroke: var(--canvas-foreground);
			}
			g &gt; path[tabindex]:is(:hover, :focus-within) {
				outline: 0;
			}
			g &gt; path[tabindex]:first-of-type {
				stroke-width: 2;
			}
			g &gt; path[tabindex]:first-of-type:is(:hover, :focus-within) {
				stroke-width: 4;
			}
			g &gt; path[tabindex]:first-of-type:not(:last-of-type) {
				stroke-dasharray: 4 8;
			}
			g &gt; rect {
				vector-effect: non-scaling-stroke;
				fill: none;
				stroke: none;
				pointer-events: none;
			}
			g &gt; path[tabindex]:first-of-type:is(:hover, :focus-within) + rect {
				fill: var(--highlighted);
			}
			g &gt; path[tabindex]:first-of-type ~ path[tabindex] {
				stroke-width: 8;
			}
			g &gt; path[tabindex]:first-of-type ~ path[tabindex]:is(:hover, :focus-within) {
				stroke-width: 16;
			}
			g &gt; line {
				vector-effect: non-scaling-stroke;
				fill: none;
				stroke: none;
				stroke-width: 2;
				stroke-dasharray: 4 8;
				pointer-events: none;
			}
			g &gt; path[tabindex]:first-of-type:is(:hover, :focus-within) + rect + path[tabindex] + line,
			g &gt; path[tabindex]:first-of-type:is(:hover, :focus-within) + rect + path[tabindex] + line + line,
			g &gt; path[tabindex]:first-of-type:is(:hover, :focus-within) ~ path[tabindex]:last-of-type + line,
			g &gt; path[tabindex]:first-of-type:is(:hover, :focus-within) ~ path[tabindex]:last-of-type + line + line,
			g &gt; path[tabindex]:first-of-type ~ path[tabindex]:is(:hover, :focus-within) + line,
			g &gt; path[tabindex]:first-of-type ~ path[tabindex]:is(:hover, :focus-within) + line + line {
				stroke: var(--faded);
			}
			@media (prefers-color-scheme: dark) {
				:root {
					--canvas-background: #000;
					--canvas-foreground: #ccc;
					--highlighted: #6663;
					--faded: #9993;
				}
			}
			@media (prefers-color-scheme: light) {
				:root {
					--canvas-background: #fff;
					--canvas-foreground: #333;
					--highlighted: #9993;
					--faded: #6663;
				}
			}
		</style>
		<g style="--count: 6;">
		<g style="--index: 0;">
			<path d="M0,513" tabindex="0">
				<title>l_o9xo3rp9-9d8eewld-7896y468.jq60ze3q</title>
			</path>
			<rect x="0" y="513" width="0" height="0"/>
			<path d="M0,513L0,513" tabindex="0">
				<title>00:18.53 on 2018-01-13</title>
			</path>
			<line x1="0" y1="513" x2="9" y2="513"/>
			<line x1="0" y1="2366" x2="0" y2="0"/>
		</g>
		<g style="--index: 1;">
			<path d="M0,208L1,208L1,664" tabindex="0">
				<title>l_r9gn1qpd-9d8eewld-0nwoqwkl.jqzpx3gl</title>
			</path>
			<rect x="0" y="208" width="1" height="456"/>
			<path d="M0,208L0,208" tabindex="0">
				<title>00:21.58 on 2018-01-13</title>
			</path>
			<line x1="0" y1="208" x2="9" y2="208"/>
			<line x1="0" y1="2366" x2="0" y2="0"/>
			<path d="M1,664L1,664" tabindex="0">
				<title>00:17.02 on 2018-01-14</title>
			</path>
			<line x1="0" y1="664" x2="9" y2="664"/>
			<line x1="1" y1="2366" x2="1" y2="0"/>
		</g>
		<g style="--index: 2;">
			<path d="M0,0" tabindex="0">
				<title>l_r9gn1qpd-9d8eewld-0nwoqwkl.xqkjmxnl</title>
			</path>
			<rect x="0" y="0" width="0" height="0"/>
			<path d="M0,0L0,0" tabindex="0">
				<title>00:23.66 on 2018-01-13</title>
			</path>
			<line x1="0" y1="0" x2="9" y2="0"/>
			<line x1="0" y1="2366" x2="0" y2="0"/>
		</g>
		<g style="--index: 3;">
			<path d="M0,860L9,860L9,1285" tabindex="0">
				<title>l_r9gn1qpd-9d8eewld-0nwoqwkl.81ppdgg1</title>
			</path>
			<rect x="0" y="860" width="9" height="425"/>
			<path d="M0,860L0,860" tabindex="0">
				<title>00:15.06 on 2018-01-13</title>
			</path>
			<line x1="0" y1="860" x2="9" y2="860"/>
			<line x1="0" y1="2366" x2="0" y2="0"/>
			<path d="M9,1285L9,1285" tabindex="0">
				<title>00:10.81 on 2018-01-22</title>
			</path>
			<line x1="0" y1="1285" x2="9" y2="1285"/>
			<line x1="9" y1="2366" x2="9" y2="0"/>
		</g>
		<g style="--index: 4;">
			<path d="M0,1438L9,1438L9,1469" tabindex="0">
				<title>l_o9xo3rp9-9d8eewld-7896y468.013856dq</title>
			</path>
			<rect x="0" y="1438" width="9" height="31"/>
			<path d="M0,1438L0,1438" tabindex="0">
				<title>00:09.28 on 2018-01-13</title>
			</path>
			<line x1="0" y1="1438" x2="9" y2="1438"/>
			<line x1="0" y1="2366" x2="0" y2="0"/>
			<path d="M9,1469L9,1469" tabindex="0">
				<title>00:08.97 on 2018-01-22</title>
			</path>
			<line x1="0" y1="1469" x2="9" y2="1469"/>
			<line x1="9" y1="2366" x2="9" y2="0"/>
		</g>
		<g style="--index: 5;">
			<path d="M2,520" tabindex="0">
				<title>l_o9xo3rp9-9d8eewld-7896y468.rqvpey7q</title>
			</path>
			<rect x="2" y="520" width="0" height="0"/>
			<path d="M2,520L2,520" tabindex="0">
				<title>00:18.46 on 2018-01-15</title>
			</path>
			<line x1="0" y1="520" x2="9" y2="520"/>
			<line x1="2" y1="2366" x2="2" y2="0"/>
		</g>
	</g>
</svg>
