<svg xmlns="http://www.w3.org/2000/svg" viewBox="0 0 9 2366" preserveAspectRatio="none" lang="en" style="color-scheme: dark light;">
	<title>Time by leaderboard for player 5j5gggn8</title>
	<style>
		svg {
			background: var(--canvas-background);
			fill: var(--canvas-background);
			stroke: var(--canvas-foreground);
			stroke-linejoin: round;
			stroke-linecap: round;
		}
		g &gt; path[tabindex] {
			vector-effect: non-scaling-stroke;
			fill: none;
			stroke: hsl(calc(var(--index) / var(--count) * 360), 50%, 50%);
			cursor: help;
		}
		g:is(:hover, :focus-within) &gt; path[tabindex] {
			stroke: var(--canvas-foreground);
		}
		g &gt; path[tabindex]:is(:hover, :focus-within) {
			outline: 0;
		}
		g &gt; path[tabindex]:first-of-type {
			stroke-width: 2;
		}
		g &gt; path[tabindex]:first-of-type:is(:hover, :focus-within) {
			stroke-width: 4;
		}
		g &gt; path[tabindex]:first-of-type:not(:last-of-type) {
			stroke-dasharray: 4 8;
		}
		g &gt; rect {
			vector-effect: non-scaling-stroke;
			fill: none;
			stroke: none;
			pointer-events: none;
		}
		g &gt; path[tabindex]:first-of-type:is(:hover, :focus-within) + rect {
			fill: var(--highlighted);
		}
		g &gt; path[tabindex]:first-of-type ~ path[tabindex] {
			stroke-width: 8;
		}
		g &gt; path[tabindex]:first-of-type ~ path[tabindex]:is(:hover, :focus-within) {
			stroke-width: 16;
		}
		g &gt; line {
			vector-effect: non-scaling-stroke;
			fill: none;
			stroke: none;
			stroke-width: 2;
			stroke-dasharray: 4 8;
			pointer-events: none;
		}
		g &gt; path[tabindex]:first-of-type:is(:hover, :focus-within) + rect + path[tabindex] + line,
		g &gt; path[tabindex]:first-of-type:is(:hover, :focus-within) + rect + path[tabindex] + line + line,
		g &gt; path[tabindex]:first-of-type:is(:hover, :focus-within) ~ path[tabindex]:last-of-type + line,
		g &gt; path[tabindex]:first-of-type:is(:hover, :focus-within) ~ path[tabindex]:last-of-type + line + line,
		g &gt; path[tabindex]:first-of-type ~ path[tabindex]:is(:hover, :focus-within) + line,
		g &gt; path[tabindex]:first-of-type ~ path[tabindex]:is(:hover, :focus-within) + line + line {
			stroke: var(--faded);
		}
		@media (prefers-color-scheme: dark) {
			:root {
				--canvas-background: #000;
				--canvas-foreground: #ccc;
				--highlighted: #6663;
				--faded: #9993;
			}
		}
		@media (prefers-color-scheme: light) {
			:root {
				--canvas-background: #fff;
				--canvas-foreground: #333;
				--highlighted: #9993;
				--faded: #6663;
			}
		}
	</style>
	<g transform="scale(1 -1)" transform-origin="center center" style="--count: 6;">
		<g style="--index: 0;">
			<path d="M0,1853" tabindex="0">
				<title>l_o9xo3rp9-9d8eewld-7896y468.jq60ze3q</title>
			</path>
			<rect x="0" y="1853" width="0" height="0"/>
			<path d="M0,1853L0,1853" tabindex="0">
				<title>00:18.53 on 2018-01-13</title>
			</path>
			<line x1="0" y1="1853" x2="9" y2="1853"/>
			<line x1="0" y1="0" x2="0" y2="2366"/>
		</g>
		<g style="--index: 1;">
			<path d="M0,2158L1,2158L1,1702" tabindex="0">
				<title>l_r9gn1qpd-9d8eewld-0nwoqwkl.jqzpx3gl</title>
			</path>
			<rect x="0" y="1702" width="1" height="456"/>
			<path d="M0,2158L0,2158" tabindex="0">
				<title>00:21.58 on 2018-01-13</title>
			</path>
			<line x1="0" y1="2158" x2="9" y2="2158"/>
			<line x1="0" y1="0" x2="0" y2="2366"/>
			<path d="M1,1702L1,1702" tabindex="0">
				<title>00:17.02 on 2018-01-14</title>
			</path>
			<line x1="0" y1="1702" x2="9" y2="1702"/>
			<line x1="1" y1="0" x2="1" y2="2366"/>
		</g>
		<g style="--index: 2;">
			<path d="M0,2366" tabindex="0">
				<title>l_r9gn1qpd-9d8eewld-0nwoqwkl.xqkjmxnl</title>
			</path>
			<rect x="0" y="2366" width="0" height="0"/>
			<path d="M0,2366L0,2366" tabindex="0">
				<title>00:23.66 on 2018-01-13</title>
			</path>
			<line x1="0" y1="2366" x2="9" y2="2366"/>
			<line x1="0" y1="0" x2="0" y2="2366"/>
		</g>
		<g style="--index: 3;">
			<path d="M0,1506L9,1506L9,1081" tabindex="0">
				<title>l_r9gn1qpd-9d8eewld-0nwoqwkl.81ppdgg1</title>
			</path>
			<rect x="0" y="1081" width="9" height="425"/>
			<path d="M0,1506L0,1506" tabindex="0">
				<title>00:15.06 on 2018-01-13</title>
			</path>
			<line x1="0" y1="1506" x2="9" y2="1506"/>
			<line x1="0" y1="0" x2="0" y2="2366"/>
			<path d="M9,1081L9,1081" tabindex="0">
				<title>00:10.81 on 2018-01-22</title>
			</path>
			<line x1="0" y1="1081" x2="9" y2="1081"/>
			<line x1="9" y1="0" x2="9" y2="2366"/>
		</g>
		<g style="--index: 4;">
			<path d="M0,928L9,928L9,897" tabindex="0">
				<title>l_o9xo3rp9-9d8eewld-7896y468.013856dq</title>
			</path>
			<rect x="0" y="897" width="9" height="31"/>
			<path d="M0,928L0,928" tabindex="0">
				<title>00:09.28 on 2018-01-13</title>
			</path>
			<line x1="0" y1="928" x2="9" y2="928"/>
			<line x1="0" y1="0" x2="0" y2="2366"/>
			<path d="M9,897L9,897" tabindex="0">
				<title>00:08.97 on 2018-01-22</title>
			</path>
			<line x1="0" y1="897" x2="9" y2="897"/>
			<line x1="9" y1="0" x2="9" y2="2366"/>
		</g>
		<g style="--index: 5;">
			<path d="M2,1846" tabindex="0">
				<title>l_o9xo3rp9-9d8eewld-7896y468.rqvpey7q</title>
			</path>
			<rect x="2" y="1846" width="0" height="0"/>
			<path d="M2,1846L2,1846" tabindex="0">
				<title>00:18.46 on 2018-01-15</title>
			</path>
			<line x1="0" y1="1846" x2="9" y2="1846"/>
			<line x1="2" y1="0" x2="2" y2="2366"/>
		</g>
	</g>
</svg>
