<svg xmlns="http://www.w3.org/2000/svg" viewBox="0 0 100 340172" preserveAspectRatio="none" lang="en" style="color-scheme: dark light;">
		<title>Time by leaderboard for player 810y31qx</title>
		<style>
			svg {
				background: var(--canvas-background);
				fill: var(--canvas-background);
				stroke: var(--canvas-foreground);
				stroke-linejoin: round;
				stroke-linecap: round;
			}
			g &gt; path[tabindex] {
				vector-effect: non-scaling-stroke;
				fill: none;
				stroke: hsl(calc(var(--index) / var(--count) * 360), 50%, 50%);
				cursor: help;
			}
			g:is(:hover, :focus-within) &gt; path[tabindex] {
				stroke: var(--canvas-foreground);
			}
			g &gt; path[tabindex]:is(:hover, :focus-within) {
				outline: 0;
			}
			g &gt; path[tabindex]:first-of-type {
				stroke-width: 2;
			}
			g &gt; path[tabindex]:first-of-type:is(:hover, :focus-within) {
				stroke-width: 4;
			}
			g &gt; path[tabindex]:first-of-type:not(:last-of-type) {
				stroke-dasharray: 4 8;
			}
			g &gt; rect {
				vector-effect: non-scaling-stroke;
				fill: none;
				stroke: none;
				pointer-events: none;
			}
			g &gt; path[tabindex]:first-of-type:is(:hover, :focus-within) + rect {
				fill: var(--highlighted);
			}
			g &gt; path[tabindex]:first-of-type ~ path[tabindex] {
				stroke-width: 8;
			}
			g &gt; path[tabindex]:first-of-type ~ path[tabindex]:is(:hover, :focus-within) {
				stroke-width: 16;
			}
			g &gt; line {
				vector-effect: non-scaling-stroke;
				fill: none;
				stroke: none;
				stroke-width: 2;
				stroke-dasharray: 4 8;
				pointer-events: none;
			}
			g &gt; path[tabindex]:first-of-type:is(:hover, :focus-within) + rect + path[tabindex] + line,
			g &gt; path[tabindex]:first-of-type:is(:hover, :focus-within) + rect + path[tabindex] + line + line,
			g &gt; path[tabindex]:first-of-type:is(:hover, :focus-within) ~ path[tabindex]:last-of-type + line,
			g &gt; path[tabindex]:first-of-type:is(:hover, :focus-within) ~ path[tabindex]:last-of-type + line + line,
			g &gt; path[tabindex]:first-of-type ~ path[tabindex]:is(:hover, :focus-within) + line,
			g &gt; path[tabindex]:first-of-type ~ path[tabindex]:is(:hover, :focus-within) + line + line {
				stroke: var(--faded);
			}
			@media (prefers-color-scheme: dark) {
				:root {
					--canvas-background: #000;
					--canvas-foreground: #ccc;
					--highlighted: #6663;
					--faded: #9993;
				}
			}
			@media (prefers-color-scheme: light) {
				:root {
					--canvas-background: #fff;
					--canvas-foreground: #333;
					--highlighted: #9993;
					--faded: #6663;
				}
			}
		</style>
		<g style="--count: 3;">
		<g style="--index: 0;">
			<path d="M0,0L6,0L6,60408L100,60408L100,103692" tabindex="0">
				<title>xd1v018d-68k7x44l.mlno8vjq</title>
			</path>
			<rect x="0" y="0" width="100" height="103692"/>
			<path d="M0,0L0,0" tabindex="0">
				<title>56:41.72 on 2023-01-14</title>
			</path>
			<line x1="0" y1="0" x2="100" y2="0"/>
			<line x1="0" y1="340172" x2="0" y2="0"/>
			<path d="M6,60408L6,60408" tabindex="0">
				<title>46:37.64 on 2023-01-20</title>
			</path>
			<line x1="0" y1="60408" x2="100" y2="60408"/>
			<line x1="6" y1="340172" x2="6" y2="0"/>
			<path d="M100,103692L100,103692" tabindex="0">
				<title>39:24.80 on 2023-04-24</title>
			</path>
			<line x1="0" y1="103692" x2="100" y2="103692"/>
			<line x1="100" y1="340172" x2="100" y2="0"/>
		</g>
		<g style="--index: 1;">
			<path d="M5,59464L8,59464L8,115658L56,115658L56,122683L97,122683L97,135886" tabindex="0">
				<title>7dg65oxk-r8r1zm0n.5q89kv31</title>
			</path>
			<rect x="5" y="59464" width="92" height="76422"/>
			<path d="M5,59464L5,59464" tabindex="0">
				<title>46:47.08 on 2023-01-19</title>
			</path>
			<line x1="0" y1="59464" x2="100" y2="59464"/>
			<line x1="5" y1="340172" x2="5" y2="0"/>
			<path d="M8,115658L8,115658" tabindex="0">
				<title>37:25.14 on 2023-01-22</title>
			</path>
			<line x1="0" y1="115658" x2="100" y2="115658"/>
			<line x1="8" y1="340172" x2="8" y2="0"/>
			<path d="M56,122683L56,122683" tabindex="0">
				<title>36:14.89 on 2023-03-11</title>
			</path>
			<line x1="0" y1="122683" x2="100" y2="122683"/>
			<line x1="56" y1="340172" x2="56" y2="0"/>
			<path d="M97,135886L97,135886" tabindex="0">
				<title>34:02.86 on 2023-04-21</title>
			</path>
			<line x1="0" y1="135886" x2="100" y2="135886"/>
			<line x1="97" y1="340172" x2="97" y2="0"/>
		</g>
		<g style="--index: 2;">
			<path d="M7,105342L8,105342L8,191484L15,191484L15,255048L47,255048L47,256843L52,256843L52,257735L98,257735L98,261002" tabindex="0">
				<title>xd17x94d-9l71pv4l.21gpn081</title>
			</path>
			<rect x="7" y="105342" width="91" height="155660"/>
			<path d="M7,105342L7,105342" tabindex="0">
				<title>39:08.30 on 2023-01-21</title>
			</path>
			<line x1="0" y1="105342" x2="100" y2="105342"/>
			<line x1="7" y1="340172" x2="7" y2="0"/>
			<path d="M8,191484L8,191484" tabindex="0">
				<title>24:46.88 on 2023-01-22</title>
			</path>
			<line x1="0" y1="191484" x2="100" y2="191484"/>
			<line x1="8" y1="340172" x2="8" y2="0"/>
			<path d="M15,255048L15,255048" tabindex="0">
				<title>14:11.24 on 2023-01-29</title>
			</path>
			<line x1="0" y1="255048" x2="100" y2="255048"/>
			<line x1="15" y1="340172" x2="15" y2="0"/>
			<path d="M47,256843L47,256843" tabindex="0">
				<title>13:53.29 on 2023-03-02</title>
			</path>
			<line x1="0" y1="256843" x2="100" y2="256843"/>
			<line x1="47" y1="340172" x2="47" y2="0"/>
			<path d="M52,257735L52,257735" tabindex="0">
				<title>13:44.37 on 2023-03-07</title>
			</path>
			<line x1="0" y1="257735" x2="100" y2="257735"/>
			<line x1="52" y1="340172" x2="52" y2="0"/>
			<path d="M98,261002L98,261002" tabindex="0">
				<title>13:11.70 on 2023-04-22</title>
			</path>
			<line x1="0" y1="261002" x2="100" y2="261002"/>
			<line x1="98" y1="340172" x2="98" y2="0"/>
		</g>
	</g>
</svg>
