<svg xmlns="http://www.w3.org/2000/svg" viewBox="0 0 100 340172" preserveAspectRatio="none" lang="en" style="color-scheme: dark light;">
		<title>Time by leaderboard for player 810y31qx</title>
		<style>
			svg {
				background: var(--canvas-background);
				fill: var(--canvas-background);
				stroke: var(--canvas-foreground);
				stroke-linejoin: round;
				stroke-linecap: round;
			}
			g &gt; path[tabindex] {
				vector-effect: non-scaling-stroke;
				fill: none;
				stroke: hsl(calc(var(--index) / var(--count) * 360), 50%, 50%);
				cursor: help;
			}
			g:is(:hover, :focus-within) &gt; path[tabindex] {
				stroke: var(--canvas-foreground);
			}
			g &gt; path[tabindex]:is(:hover, :focus-within) {
				outline: 0;
			}
			g &gt; path[tabindex]:first-of-type {
				stroke-width: 2;
			}
			g &gt; path[tabindex]:first-of-type:is(:hover, :focus-within) {
				stroke-width: 4;
			}
			g &gt; path[tabindex]:first-of-type:not(:last-of-type) {
				stroke-dasharray: 4 8;
			}
			g &gt; rect {
				vector-effect: non-scaling-stroke;
				fill: none;
				stroke: none;
				pointer-events: none;
			}
			g &gt; path[tabindex]:first-of-type:is(:hover, :focus-within) + rect {
				fill: var(--highlighted);
			}
			g &gt; path[tabindex]:first-of-type ~ path[tabindex] {
				stroke-width: 8;
			}
			g &gt; path[tabindex]:first-of-type ~ path[tabindex]:is(:hover, :focus-within) {
				stroke-width: 16;
			}
			g &gt; line {
				vector-effect: non-scaling-stroke;
				fill: none;
				stroke: none;
				stroke-width: 2;
				stroke-dasharray: 4 8;
				pointer-events: none;
			}
			g &gt; path[tabindex]:first-of-type:is(:hover, :focus-within) + rect + path[tabindex] + line,
			g &gt; path[tabindex]:first-of-type:is(:hover, :focus-within) + rect + path[tabindex] + line + line,
			g &gt; path[tabindex]:first-of-type:is(:hover, :focus-within) ~ path[tabindex]:last-of-type + line,
			g &gt; path[tabindex]:first-of-type:is(:hover, :focus-within) ~ path[tabindex]:last-of-type + line + line,
			g &gt; path[tabindex]:first-of-type ~ path[tabindex]:is(:hover, :focus-within) + line,
			g &gt; path[tabindex]:first-of-type ~ path[tabindex]:is(:hover, :focus-within) + line + line {
				stroke: var(--faded);
			}
			@media (prefers-color-scheme: dark) {
				:root {
					--canvas-background: #000;
					--canvas-foreground: #ccc;
					--highlighted: #6663;
					--faded: #9993;
				}
			}
			@media (prefers-color-scheme: light) {
				:root {
					--canvas-background: #fff;
					--canvas-foreground: #333;
					--highlighted: #9993;
					--faded: #6663;
				}
			}
		</style>
		<g transform="scale(1 -1)" transform-origin="center center" style="--count: 3;">
		<g style="--index: 0;">
			<path d="M0,340172L6,340172L6,279764L100,279764L100,236480" tabindex="0">
				<title>xd1v018d-68k7x44l.mlno8vjq</title>
			</path>
			<rect x="0" y="236480" width="100" height="103692"/>
			<path d="M0,340172L0,340172" tabindex="0">
				<title>56:41.72 on 2023-01-14</title>
			</path>
			<line x1="0" y1="340172" x2="100" y2="340172"/>
			<line x1="0" y1="0" x2="0" y2="340172"/>
			<path d="M6,279764L6,279764" tabindex="0">
				<title>46:37.64 on 2023-01-20</title>
			</path>
			<line x1="0" y1="279764" x2="100" y2="279764"/>
			<line x1="6" y1="0" x2="6" y2="340172"/>
			<path d="M100,236480L100,236480" tabindex="0">
				<title>39:24.80 on 2023-04-24</title>
			</path>
			<line x1="0" y1="236480" x2="100" y2="236480"/>
			<line x1="100" y1="0" x2="100" y2="340172"/>
		</g>
		<g style="--index: 1;">
			<path d="M5,280708L8,280708L8,224514L56,224514L56,217489L97,217489L97,204286" tabindex="0">
				<title>7dg65oxk-r8r1zm0n.5q89kv31</title>
			</path>
			<rect x="5" y="204286" width="92" height="76422"/>
			<path d="M5,280708L5,280708" tabindex="0">
				<title>46:47.08 on 2023-01-19</title>
			</path>
			<line x1="0" y1="280708" x2="100" y2="280708"/>
			<line x1="5" y1="0" x2="5" y2="340172"/>
			<path d="M8,224514L8,224514" tabindex="0">
				<title>37:25.14 on 2023-01-22</title>
			</path>
			<line x1="0" y1="224514" x2="100" y2="224514"/>
			<line x1="8" y1="0" x2="8" y2="340172"/>
			<path d="M56,217489L56,217489" tabindex="0">
				<title>36:14.89 on 2023-03-11</title>
			</path>
			<line x1="0" y1="217489" x2="100" y2="217489"/>
			<line x1="56" y1="0" x2="56" y2="340172"/>
			<path d="M97,204286L97,204286" tabindex="0">
				<title>34:02.86 on 2023-04-21</title>
			</path>
			<line x1="0" y1="204286" x2="100" y2="204286"/>
			<line x1="97" y1="0" x2="97" y2="340172"/>
		</g>
		<g style="--index: 2;">
			<path d="M7,234830L8,234830L8,148688L15,148688L15,85124L47,85124L47,83329L52,83329L52,82437L98,82437L98,79170" tabindex="0">
				<title>xd17x94d-9l71pv4l.21gpn081</title>
			</path>
			<rect x="7" y="79170" width="91" height="155660"/>
			<path d="M7,234830L7,234830" tabindex="0">
				<title>39:08.30 on 2023-01-21</title>
			</path>
			<line x1="0" y1="234830" x2="100" y2="234830"/>
			<line x1="7" y1="0" x2="7" y2="340172"/>
			<path d="M8,148688L8,148688" tabindex="0">
				<title>24:46.88 on 2023-01-22</title>
			</path>
			<line x1="0" y1="148688" x2="100" y2="148688"/>
			<line x1="8" y1="0" x2="8" y2="340172"/>
			<path d="M15,85124L15,85124" tabindex="0">
				<title>14:11.24 on 2023-01-29</title>
			</path>
			<line x1="0" y1="85124" x2="100" y2="85124"/>
			<line x1="15" y1="0" x2="15" y2="340172"/>
			<path d="M47,83329L47,83329" tabindex="0">
				<title>13:53.29 on 2023-03-02</title>
			</path>
			<line x1="0" y1="83329" x2="100" y2="83329"/>
			<line x1="47" y1="0" x2="47" y2="340172"/>
			<path d="M52,82437L52,82437" tabindex="0">
				<title>13:44.37 on 2023-03-07</title>
			</path>
			<line x1="0" y1="82437" x2="100" y2="82437"/>
			<line x1="52" y1="0" x2="52" y2="340172"/>
			<path d="M98,79170L98,79170" tabindex="0">
				<title>13:11.70 on 2023-04-22</title>
			</path>
			<line x1="0" y1="79170" x2="100" y2="79170"/>
			<line x1="98" y1="0" x2="98" y2="340172"/>
		</g>
	</g>
</svg>
