<svg xmlns="http://www.w3.org/2000/svg" viewBox="0 0 351 137537" preserveAspectRatio="none" lang="en" style="color-scheme: dark light;">
	<title>Time by leaderboard for player 8146r4r8</title>
	<style>
		svg {
			background: var(--canvas-background);
			fill: var(--canvas-background);
			stroke: var(--canvas-foreground);
			stroke-linejoin: round;
			stroke-linecap: round;
		}
		g &gt; path[tabindex] {
			vector-effect: non-scaling-stroke;
			fill: none;
			stroke: hsl(calc(var(--index) / var(--count) * 360), 50%, 50%);
			cursor: help;
		}
		g:is(:hover, :focus-within) &gt; path[tabindex] {
			stroke: var(--canvas-foreground);
		}
		g &gt; path[tabindex]:is(:hover, :focus-within) {
			outline: 0;
		}
		g &gt; path[tabindex]:first-of-type {
			stroke-width: 2;
		}
		g &gt; path[tabindex]:first-of-type:is(:hover, :focus-within) {
			stroke-width: 4;
		}
		g &gt; path[tabindex]:first-of-type:not(:last-of-type) {
			stroke-dasharray: 4 8;
		}
		g &gt; rect {
			vector-effect: non-scaling-stroke;
			fill: none;
			stroke: none;
			pointer-events: none;
		}
		g &gt; path[tabindex]:first-of-type:is(:hover, :focus-within) + rect {
			fill: var(--highlighted);
		}
		g &gt; path[tabindex]:first-of-type ~ path[tabindex] {
			stroke-width: 8;
		}
		g &gt; path[tabindex]:first-of-type ~ path[tabindex]:is(:hover, :focus-within) {
			stroke-width: 16;
		}
		g &gt; line {
			vector-effect: non-scaling-stroke;
			fill: none;
			stroke: none;
			stroke-width: 2;
			stroke-dasharray: 4 8;
			pointer-events: none;
		}
		g &gt; path[tabindex]:first-of-type:is(:hover, :focus-within) + rect + path[tabindex] + line,
		g &gt; path[tabindex]:first-of-type:is(:hover, :focus-within) + rect + path[tabindex] + line + line,
		g &gt; path[tabindex]:first-of-type:is(:hover, :focus-within) ~ path[tabindex]:last-of-type + line,
		g &gt; path[tabindex]:first-of-type:is(:hover, :focus-within) ~ path[tabindex]:last-of-type + line + line,
		g &gt; path[tabindex]:first-of-type ~ path[tabindex]:is(:hover, :focus-within) + line,
		g &gt; path[tabindex]:first-of-type ~ path[tabindex]:is(:hover, :focus-within) + line + line {
			stroke: var(--faded);
		}
		@media (prefers-color-scheme: dark) {
			:root {
				--canvas-background: #000;
				--canvas-foreground: #ccc;
				--highlighted: #6663;
				--faded: #9993;
			}
		}
		@media (prefers-color-scheme: light) {
			:root {
				--canvas-background: #fff;
				--canvas-foreground: #333;
				--highlighted: #9993;
				--faded: #6663;
			}
		}
	</style>
	<g transform="scale(1 -1)" transform-origin="center center" style="--count: 12;">
		<g style="--index: 0;">
			<path d="M0,9831" tabindex="0">
				<title>l_o9xo3rp9-9d8eewld-7896y468.810zwdwq</title>
			</path>
			<rect x="0" y="9831" width="0" height="0"/>
			<path d="M0,9831L0,9831" tabindex="0">
				<title>01:38.31 on 2020-02-05</title>
			</path>
			<line x1="0" y1="9831" x2="351" y2="9831"/>
			<line x1="0" y1="0" x2="0" y2="137537"/>
		</g>
		<g style="--index: 1;">
			<path d="M0,31620L1,31620L1,26816L8,26816L8,23923L11,23923L11,22950L19,22950L19,22945L65,22945L65,22001L138,22001L138,16336" tabindex="0">
				<title>l_r9gn1qpd-9d8eewld-0nwoqwkl.gq7jrxvq</title>
			</path>
			<rect x="0" y="16336" width="138" height="15284"/>
			<path d="M0,31620L0,31620" tabindex="0">
				<title>05:16.20 on 2020-02-05</title>
			</path>
			<line x1="0" y1="31620" x2="351" y2="31620"/>
			<line x1="0" y1="0" x2="0" y2="137537"/>
			<path d="M1,26816L1,26816" tabindex="0">
				<title>04:28.16 on 2020-02-06</title>
			</path>
			<line x1="0" y1="26816" x2="351" y2="26816"/>
			<line x1="1" y1="0" x2="1" y2="137537"/>
			<path d="M8,23923L8,23923" tabindex="0">
				<title>03:59.23 on 2020-02-13</title>
			</path>
			<line x1="0" y1="23923" x2="351" y2="23923"/>
			<line x1="8" y1="0" x2="8" y2="137537"/>
			<path d="M11,22950L11,22950" tabindex="0">
				<title>03:49.50 on 2020-02-16</title>
			</path>
			<line x1="0" y1="22950" x2="351" y2="22950"/>
			<line x1="11" y1="0" x2="11" y2="137537"/>
			<path d="M19,22945L19,22945" tabindex="0">
				<title>03:49.45 on 2020-02-24</title>
			</path>
			<line x1="0" y1="22945" x2="351" y2="22945"/>
			<line x1="19" y1="0" x2="19" y2="137537"/>
			<path d="M65,22001L65,22001" tabindex="0">
				<title>03:40.01 on 2020-04-10</title>
			</path>
			<line x1="0" y1="22001" x2="351" y2="22001"/>
			<line x1="65" y1="0" x2="65" y2="137537"/>
			<path d="M138,16336L138,16336" tabindex="0">
				<title>02:43.36 on 2020-06-22</title>
			</path>
			<line x1="0" y1="16336" x2="351" y2="16336"/>
			<line x1="138" y1="0" x2="138" y2="137537"/>
		</g>
		<g style="--index: 2;">
			<path d="M0,6956" tabindex="0">
				<title>l_r9gn1qpd-9d8eewld-0nwoqwkl.p12dx87q</title>
			</path>
			<rect x="0" y="6956" width="0" height="0"/>
			<path d="M0,6956L0,6956" tabindex="0">
				<title>01:09.56 on 2020-02-05</title>
			</path>
			<line x1="0" y1="6956" x2="351" y2="6956"/>
			<line x1="0" y1="0" x2="0" y2="137537"/>
		</g>
		<g style="--index: 3;">
			<path d="M84,1936L210,1936L210,1623" tabindex="0">
				<title>l_o9xo3rp9-9d8eewld-7896y468.9qj0x8el</title>
			</path>
			<rect x="84" y="1623" width="126" height="313"/>
			<path d="M84,1936L84,1936" tabindex="0">
				<title>00:19.36 on 2020-04-29</title>
			</path>
			<line x1="0" y1="1936" x2="351" y2="1936"/>
			<line x1="84" y1="0" x2="84" y2="137537"/>
			<path d="M210,1623L210,1623" tabindex="0">
				<title>00:16.23 on 2020-09-02</title>
			</path>
			<line x1="0" y1="1623" x2="351" y2="1623"/>
			<line x1="210" y1="0" x2="210" y2="137537"/>
		</g>
		<g style="--index: 4;">
			<path d="M84,1630L89,1630L89,1481" tabindex="0">
				<title>l_o9xo3rp9-9d8eewld-7896y468.jq60ze3q</title>
			</path>
			<rect x="84" y="1481" width="5" height="149"/>
			<path d="M84,1630L84,1630" tabindex="0">
				<title>00:16.30 on 2020-04-29</title>
			</path>
			<line x1="0" y1="1630" x2="351" y2="1630"/>
			<line x1="84" y1="0" x2="84" y2="137537"/>
			<path d="M89,1481L89,1481" tabindex="0">
				<title>00:14.81 on 2020-05-04</title>
			</path>
			<line x1="0" y1="1481" x2="351" y2="1481"/>
			<line x1="89" y1="0" x2="89" y2="137537"/>
		</g>
		<g style="--index: 5;">
			<path d="M85,1573" tabindex="0">
				<title>l_r9gn1qpd-9d8eewld-0nwoqwkl.xqkjmxnl</title>
			</path>
			<rect x="85" y="1573" width="0" height="0"/>
			<path d="M85,1573L85,1573" tabindex="0">
				<title>00:15.73 on 2020-04-30</title>
			</path>
			<line x1="0" y1="1573" x2="351" y2="1573"/>
			<line x1="85" y1="0" x2="85" y2="137537"/>
		</g>
		<g style="--index: 6;">
			<path d="M104,1701" tabindex="0">
				<title>l_495zlx39-9d8eewld-2lgr793n.gq7jzvvq</title>
			</path>
			<rect x="104" y="1701" width="0" height="0"/>
			<path d="M104,1701L104,1701" tabindex="0">
				<title>00:17.01 on 2020-05-19</title>
			</path>
			<line x1="0" y1="1701" x2="351" y2="1701"/>
			<line x1="104" y1="0" x2="104" y2="137537"/>
		</g>
		<g style="--index: 7;">
			<path d="M112,50899" tabindex="0">
				<title>l_rdqo542w-9kv66g32-onv7r45n.9qj08g7l</title>
			</path>
			<rect x="112" y="50899" width="0" height="0"/>
			<path d="M112,50899L112,50899" tabindex="0">
				<title>08:28.99 on 2020-05-27</title>
			</path>
			<line x1="0" y1="50899" x2="351" y2="50899"/>
			<line x1="112" y1="0" x2="112" y2="137537"/>
		</g>
		<g style="--index: 8;">
			<path d="M132,137537L135,137537L135,133583L136,133583L136,124318L139,124318L139,123821L148,123821L148,122777L351,122777L351,105507" tabindex="0">
				<title>xd17x94d-9l71pv4l.zqo20y2l</title>
			</path>
			<rect x="132" y="105507" width="219" height="32030"/>
			<path d="M132,137537L132,137537" tabindex="0">
				<title>22:55.37 on 2020-06-16</title>
			</path>
			<line x1="0" y1="137537" x2="351" y2="137537"/>
			<line x1="132" y1="0" x2="132" y2="137537"/>
			<path d="M135,133583L135,133583" tabindex="0">
				<title>22:15.83 on 2020-06-19</title>
			</path>
			<line x1="0" y1="133583" x2="351" y2="133583"/>
			<line x1="135" y1="0" x2="135" y2="137537"/>
			<path d="M136,124318L136,124318" tabindex="0">
				<title>20:43.18 on 2020-06-20</title>
			</path>
			<line x1="0" y1="124318" x2="351" y2="124318"/>
			<line x1="136" y1="0" x2="136" y2="137537"/>
			<path d="M139,123821L139,123821" tabindex="0">
				<title>20:38.21 on 2020-06-23</title>
			</path>
			<line x1="0" y1="123821" x2="351" y2="123821"/>
			<line x1="139" y1="0" x2="139" y2="137537"/>
			<path d="M148,122777L148,122777" tabindex="0">
				<title>20:27.77 on 2020-07-02</title>
			</path>
			<line x1="0" y1="122777" x2="351" y2="122777"/>
			<line x1="148" y1="0" x2="148" y2="137537"/>
			<path d="M351,105507L351,105507" tabindex="0">
				<title>17:35.07 on 2021-01-21</title>
			</path>
			<line x1="0" y1="105507" x2="351" y2="105507"/>
			<line x1="351" y1="0" x2="351" y2="137537"/>
		</g>
		<g style="--index: 9;">
			<path d="M134,34878" tabindex="0">
				<title>l_o9xo3rp9-xd144xwd</title>
			</path>
			<rect x="134" y="34878" width="0" height="0"/>
			<path d="M134,34878L134,34878" tabindex="0">
				<title>05:48.78 on 2020-06-18</title>
			</path>
			<line x1="0" y1="34878" x2="351" y2="34878"/>
			<line x1="134" y1="0" x2="134" y2="137537"/>
		</g>
		<g style="--index: 10;">
			<path d="M137,13911" tabindex="0">
				<title>l_r9gn1qpd-9kv66g32-onv7r45n.9qj08g7l</title>
			</path>
			<rect x="137" y="13911" width="0" height="0"/>
			<path d="M137,13911L137,13911" tabindex="0">
				<title>02:19.11 on 2020-06-21</title>
			</path>
			<line x1="0" y1="13911" x2="351" y2="13911"/>
			<line x1="137" y1="0" x2="137" y2="137537"/>
		</g>
		<g style="--index: 11;">
			<path d="M153,2177" tabindex="0">
				<title>l_o9xo3rp9-9d8eewld-7896y468.5lermx5q</title>
			</path>
			<rect x="153" y="2177" width="0" height="0"/>
			<path d="M153,2177L153,2177" tabindex="0">
				<title>00:21.77 on 2020-07-07</title>
			</path>
			<line x1="0" y1="2177" x2="351" y2="2177"/>
			<line x1="153" y1="0" x2="153" y2="137537"/>
		</g>
	</g>
</svg>
