<svg xmlns="http://www.w3.org/2000/svg" viewBox="0 0 351 137537" preserveAspectRatio="none" lang="en" style="color-scheme: dark light;">
		<title>Time by leaderboard for player 8146r4r8</title>
		<style>
			svg {
				background: var(--canvas-background);
				fill: var(--canvas-background);
				stroke: var(--canvas-foreground);
				stroke-linejoin: round;
				stroke-linecap: round;
			}
			g &gt; path[tabindex] {
				vector-effect: non-scaling-stroke;
				fill: none;
				stroke: hsl(calc(var(--index) / var(--count) * 360), 50%, 50%);
				cursor: help;
			}
			g:is(:hover, :focus-within) &gt; path[tabindex] {
				stroke: var(--canvas-foreground);
			}
			g &gt; path[tabindex]:is(:hover, :focus-within) {
				outline: 0;
			}
			g &gt; path[tabindex]:first-of-type {
				stroke-width: 2;
			}
			g &gt; path[tabindex]:first-of-type:is(:hover, :focus-within) {
				stroke-width: 4;
			}
			g &gt; path[tabindex]:first-of-type:not(:last-of-type) {
				stroke-dasharray: 4 8;
			}
			g &gt; rect {
				vector-effect: non-scaling-stroke;
				fill: none;
				stroke: none;
				pointer-events: none;
			}
			g &gt; path[tabindex]:first-of-type:is(:hover, :focus-within) + rect {
				fill: var(--highlighted);
			}
			g &gt; path[tabindex]:first-of-type ~ path[tabindex] {
				stroke-width: 8;
			}
			g &gt; path[tabindex]:first-of-type ~ path[tabindex]:is(:hover, :focus-within) {
				stroke-width: 16;
			}
			g &gt; line {
				vector-effect: non-scaling-stroke;
				fill: none;
				stroke: none;
				stroke-width: 2;
				stroke-dasharray: 4 8;
				pointer-events: none;
			}
			g &gt; path[tabindex]:first-of-type:is(:hover, :focus-within) + rect + path[tabindex] + line,
			g &gt; path[tabindex]:first-of-type:is(:hover, :focus-within) + rect + path[tabindex] + line + line,
			g &gt; path[tabindex]:first-of-type:is(:hover, :focus-within) ~ path[tabindex]:last-of-type + line,
			g &gt; path[tabindex]:first-of-type:is(:hover, :focus-within) ~ path[tabindex]:last-of-type + line + line,
			g &gt; path[tabindex]:first-of-type ~ path[tabindex]:is(:hover, :focus-within) + line,
			g &gt; path[tabindex]:first-of-type ~ path[tabindex]:is(:hover, :focus-within) + line + line {
				stroke: var(--faded);
			}
			@media (prefers-color-scheme: dark) {
				:root {
					--canvas-background: #000;
					--canvas-foreground: #ccc;
					--highlighted: #6663;
					--faded: #9993;
				}
			}
			@media (prefers-color-scheme: light) {
				:root {
					--canvas-background: #fff;
					--canvas-foreground: #333;
					--highlighted: #9993;
					--faded: #6663;
				}
			}
		</style>
		<g style="--count: 12;">
		<g style="--index: 0;">
			<path d="M0,127706" tabindex="0">
				<title>l_o9xo3rp9-9d8eewld-7896y468.810zwdwq</title>
			</path>
			<rect x="0" y="127706" width="0" height="0"/>
			<path d="M0,127706L0,127706" tabindex="0">
				<title>01:38.31 on 2020-02-05</title>
			</path>
			<line x1="0" y1="127706" x2="351" y2="127706"/>
			<line x1="0" y1="137537" x2="0" y2="0"/>
		</g>
		<g style="--index: 1;">
			<path d="M0,105917L1,105917L1,110721L8,110721L8,113614L11,113614L11,114587L19,114587L19,114592L65,114592L65,115536L138,115536L138,121201" tabindex="0">
				<title>l_r9gn1qpd-9d8eewld-0nwoqwkl.gq7jrxvq</title>
			</path>
			<rect x="0" y="105917" width="138" height="15284"/>
			<path d="M0,105917L0,105917" tabindex="0">
				<title>05:16.20 on 2020-02-05</title>
			</path>
			<line x1="0" y1="105917" x2="351" y2="105917"/>
			<line x1="0" y1="137537" x2="0" y2="0"/>
			<path d="M1,110721L1,110721" tabindex="0">
				<title>04:28.16 on 2020-02-06</title>
			</path>
			<line x1="0" y1="110721" x2="351" y2="110721"/>
			<line x1="1" y1="137537" x2="1" y2="0"/>
			<path d="M8,113614L8,113614" tabindex="0">
				<title>03:59.23 on 2020-02-13</title>
			</path>
			<line x1="0" y1="113614" x2="351" y2="113614"/>
			<line x1="8" y1="137537" x2="8" y2="0"/>
			<path d="M11,114587L11,114587" tabindex="0">
				<title>03:49.50 on 2020-02-16</title>
			</path>
			<line x1="0" y1="114587" x2="351" y2="114587"/>
			<line x1="11" y1="137537" x2="11" y2="0"/>
			<path d="M19,114592L19,114592" tabindex="0">
				<title>03:49.45 on 2020-02-24</title>
			</path>
			<line x1="0" y1="114592" x2="351" y2="114592"/>
			<line x1="19" y1="137537" x2="19" y2="0"/>
			<path d="M65,115536L65,115536" tabindex="0">
				<title>03:40.01 on 2020-04-10</title>
			</path>
			<line x1="0" y1="115536" x2="351" y2="115536"/>
			<line x1="65" y1="137537" x2="65" y2="0"/>
			<path d="M138,121201L138,121201" tabindex="0">
				<title>02:43.36 on 2020-06-22</title>
			</path>
			<line x1="0" y1="121201" x2="351" y2="121201"/>
			<line x1="138" y1="137537" x2="138" y2="0"/>
		</g>
		<g style="--index: 2;">
			<path d="M0,130581" tabindex="0">
				<title>l_r9gn1qpd-9d8eewld-0nwoqwkl.p12dx87q</title>
			</path>
			<rect x="0" y="130581" width="0" height="0"/>
			<path d="M0,130581L0,130581" tabindex="0">
				<title>01:09.56 on 2020-02-05</title>
			</path>
			<line x1="0" y1="130581" x2="351" y2="130581"/>
			<line x1="0" y1="137537" x2="0" y2="0"/>
		</g>
		<g style="--index: 3;">
			<path d="M84,135601L210,135601L210,135914" tabindex="0">
				<title>l_o9xo3rp9-9d8eewld-7896y468.9qj0x8el</title>
			</path>
			<rect x="84" y="135601" width="126" height="313"/>
			<path d="M84,135601L84,135601" tabindex="0">
				<title>00:19.36 on 2020-04-29</title>
			</path>
			<line x1="0" y1="135601" x2="351" y2="135601"/>
			<line x1="84" y1="137537" x2="84" y2="0"/>
			<path d="M210,135914L210,135914" tabindex="0">
				<title>00:16.23 on 2020-09-02</title>
			</path>
			<line x1="0" y1="135914" x2="351" y2="135914"/>
			<line x1="210" y1="137537" x2="210" y2="0"/>
		</g>
		<g style="--index: 4;">
			<path d="M84,135907L89,135907L89,136056" tabindex="0">
				<title>l_o9xo3rp9-9d8eewld-7896y468.jq60ze3q</title>
			</path>
			<rect x="84" y="135907" width="5" height="149"/>
			<path d="M84,135907L84,135907" tabindex="0">
				<title>00:16.30 on 2020-04-29</title>
			</path>
			<line x1="0" y1="135907" x2="351" y2="135907"/>
			<line x1="84" y1="137537" x2="84" y2="0"/>
			<path d="M89,136056L89,136056" tabindex="0">
				<title>00:14.81 on 2020-05-04</title>
			</path>
			<line x1="0" y1="136056" x2="351" y2="136056"/>
			<line x1="89" y1="137537" x2="89" y2="0"/>
		</g>
		<g style="--index: 5;">
			<path d="M85,135964" tabindex="0">
				<title>l_r9gn1qpd-9d8eewld-0nwoqwkl.xqkjmxnl</title>
			</path>
			<rect x="85" y="135964" width="0" height="0"/>
			<path d="M85,135964L85,135964" tabindex="0">
				<title>00:15.73 on 2020-04-30</title>
			</path>
			<line x1="0" y1="135964" x2="351" y2="135964"/>
			<line x1="85" y1="137537" x2="85" y2="0"/>
		</g>
		<g style="--index: 6;">
			<path d="M104,135836" tabindex="0">
				<title>l_495zlx39-9d8eewld-2lgr793n.gq7jzvvq</title>
			</path>
			<rect x="104" y="135836" width="0" height="0"/>
			<path d="M104,135836L104,135836" tabindex="0">
				<title>00:17.01 on 2020-05-19</title>
			</path>
			<line x1="0" y1="135836" x2="351" y2="135836"/>
			<line x1="104" y1="137537" x2="104" y2="0"/>
		</g>
		<g style="--index: 7;">
			<path d="M112,86638" tabindex="0">
				<title>l_rdqo542w-9kv66g32-onv7r45n.9qj08g7l</title>
			</path>
			<rect x="112" y="86638" width="0" height="0"/>
			<path d="M112,86638L112,86638" tabindex="0">
				<title>08:28.99 on 2020-05-27</title>
			</path>
			<line x1="0" y1="86638" x2="351" y2="86638"/>
			<line x1="112" y1="137537" x2="112" y2="0"/>
		</g>
		<g style="--index: 8;">
			<path d="M132,0L135,0L135,3954L136,3954L136,13219L139,13219L139,13716L148,13716L148,14760L351,14760L351,32030" tabindex="0">
				<title>xd17x94d-9l71pv4l.zqo20y2l</title>
			</path>
			<rect x="132" y="0" width="219" height="32030"/>
			<path d="M132,0L132,0" tabindex="0">
				<title>22:55.37 on 2020-06-16</title>
			</path>
			<line x1="0" y1="0" x2="351" y2="0"/>
			<line x1="132" y1="137537" x2="132" y2="0"/>
			<path d="M135,3954L135,3954" tabindex="0">
				<title>22:15.83 on 2020-06-19</title>
			</path>
			<line x1="0" y1="3954" x2="351" y2="3954"/>
			<line x1="135" y1="137537" x2="135" y2="0"/>
			<path d="M136,13219L136,13219" tabindex="0">
				<title>20:43.18 on 2020-06-20</title>
			</path>
			<line x1="0" y1="13219" x2="351" y2="13219"/>
			<line x1="136" y1="137537" x2="136" y2="0"/>
			<path d="M139,13716L139,13716" tabindex="0">
				<title>20:38.21 on 2020-06-23</title>
			</path>
			<line x1="0" y1="13716" x2="351" y2="13716"/>
			<line x1="139" y1="137537" x2="139" y2="0"/>
			<path d="M148,14760L148,14760" tabindex="0">
				<title>20:27.77 on 2020-07-02</title>
			</path>
			<line x1="0" y1="14760" x2="351" y2="14760"/>
			<line x1="148" y1="137537" x2="148" y2="0"/>
			<path d="M351,32030L351,32030" tabindex="0">
				<title>17:35.07 on 2021-01-21</title>
			</path>
			<line x1="0" y1="32030" x2="351" y2="32030"/>
			<line x1="351" y1="137537" x2="351" y2="0"/>
		</g>
		<g style="--index: 9;">
			<path d="M134,102659" tabindex="0">
				<title>l_o9xo3rp9-xd144xwd</title>
			</path>
			<rect x="134" y="102659" width="0" height="0"/>
			<path d="M134,102659L134,102659" tabindex="0">
				<title>05:48.78 on 2020-06-18</title>
			</path>
			<line x1="0" y1="102659" x2="351" y2="102659"/>
			<line x1="134" y1="137537" x2="134" y2="0"/>
		</g>
		<g style="--index: 10;">
			<path d="M137,123626" tabindex="0">
				<title>l_r9gn1qpd-9kv66g32-onv7r45n.9qj08g7l</title>
			</path>
			<rect x="137" y="123626" width="0" height="0"/>
			<path d="M137,123626L137,123626" tabindex="0">
				<title>02:19.11 on 2020-06-21</title>
			</path>
			<line x1="0" y1="123626" x2="351" y2="123626"/>
			<line x1="137" y1="137537" x2="137" y2="0"/>
		</g>
		<g style="--index: 11;">
			<path d="M153,135360" tabindex="0">
				<title>l_o9xo3rp9-9d8eewld-7896y468.5lermx5q</title>
			</path>
			<rect x="153" y="135360" width="0" height="0"/>
			<path d="M153,135360L153,135360" tabindex="0">
				<title>00:21.77 on 2020-07-07</title>
			</path>
			<line x1="0" y1="135360" x2="351" y2="135360"/>
			<line x1="153" y1="137537" x2="153" y2="0"/>
		</g>
	</g>
</svg>
