<svg xmlns="http://www.w3.org/2000/svg" viewBox="0 0 310 110498" preserveAspectRatio="none" lang="en" style="color-scheme: dark light;">
		<title>Time by leaderboard for player 814zn7l8</title>
		<style>
			svg {
				background: var(--canvas-background);
				fill: var(--canvas-background);
				stroke: var(--canvas-foreground);
				stroke-linejoin: round;
				stroke-linecap: round;
			}
			g &gt; path[tabindex] {
				vector-effect: non-scaling-stroke;
				fill: none;
				stroke: hsl(calc(var(--index) / var(--count) * 360), 50%, 50%);
				cursor: help;
			}
			g:is(:hover, :focus-within) &gt; path[tabindex] {
				stroke: var(--canvas-foreground);
			}
			g &gt; path[tabindex]:is(:hover, :focus-within) {
				outline: 0;
			}
			g &gt; path[tabindex]:first-of-type {
				stroke-width: 2;
			}
			g &gt; path[tabindex]:first-of-type:is(:hover, :focus-within) {
				stroke-width: 4;
			}
			g &gt; path[tabindex]:first-of-type:not(:last-of-type) {
				stroke-dasharray: 4 8;
			}
			g &gt; rect {
				vector-effect: non-scaling-stroke;
				fill: none;
				stroke: none;
				pointer-events: none;
			}
			g &gt; path[tabindex]:first-of-type:is(:hover, :focus-within) + rect {
				fill: var(--highlighted);
			}
			g &gt; path[tabindex]:first-of-type ~ path[tabindex] {
				stroke-width: 8;
			}
			g &gt; path[tabindex]:first-of-type ~ path[tabindex]:is(:hover, :focus-within) {
				stroke-width: 16;
			}
			g &gt; line {
				vector-effect: non-scaling-stroke;
				fill: none;
				stroke: none;
				stroke-width: 2;
				stroke-dasharray: 4 8;
				pointer-events: none;
			}
			g &gt; path[tabindex]:first-of-type:is(:hover, :focus-within) + rect + path[tabindex] + line,
			g &gt; path[tabindex]:first-of-type:is(:hover, :focus-within) + rect + path[tabindex] + line + line,
			g &gt; path[tabindex]:first-of-type:is(:hover, :focus-within) ~ path[tabindex]:last-of-type + line,
			g &gt; path[tabindex]:first-of-type:is(:hover, :focus-within) ~ path[tabindex]:last-of-type + line + line,
			g &gt; path[tabindex]:first-of-type ~ path[tabindex]:is(:hover, :focus-within) + line,
			g &gt; path[tabindex]:first-of-type ~ path[tabindex]:is(:hover, :focus-within) + line + line {
				stroke: var(--faded);
			}
			@media (prefers-color-scheme: dark) {
				:root {
					--canvas-background: #000;
					--canvas-foreground: #ccc;
					--highlighted: #6663;
					--faded: #9993;
				}
			}
			@media (prefers-color-scheme: light) {
				:root {
					--canvas-background: #fff;
					--canvas-foreground: #333;
					--highlighted: #9993;
					--faded: #6663;
				}
			}
		</style>
		<g style="--count: 19;">
		<g style="--index: 0;">
			<path d="M0,105391L2,105391L2,105623L30,105623L30,105884L76,105884L76,106189L232,106189L232,106440" tabindex="0">
				<title>l_r9gn1qpd-9d8eewld-0nwoqwkl.p12dx87q</title>
			</path>
			<rect x="0" y="105391" width="232" height="1049"/>
			<path d="M0,105391L0,105391" tabindex="0">
				<title>00:51.07 on 2020-12-17</title>
			</path>
			<line x1="0" y1="105391" x2="310" y2="105391"/>
			<line x1="0" y1="110498" x2="0" y2="0"/>
			<path d="M2,105623L2,105623" tabindex="0">
				<title>00:48.75 on 2020-12-19</title>
			</path>
			<line x1="0" y1="105623" x2="310" y2="105623"/>
			<line x1="2" y1="110498" x2="2" y2="0"/>
			<path d="M30,105884L30,105884" tabindex="0">
				<title>00:46.14 on 2021-01-16</title>
			</path>
			<line x1="0" y1="105884" x2="310" y2="105884"/>
			<line x1="30" y1="110498" x2="30" y2="0"/>
			<path d="M76,106189L76,106189" tabindex="0">
				<title>00:43.09 on 2021-03-03</title>
			</path>
			<line x1="0" y1="106189" x2="310" y2="106189"/>
			<line x1="76" y1="110498" x2="76" y2="0"/>
			<path d="M232,106440L232,106440" tabindex="0">
				<title>00:40.58 on 2021-08-06</title>
			</path>
			<line x1="0" y1="106440" x2="310" y2="106440"/>
			<line x1="232" y1="110498" x2="232" y2="0"/>
		</g>
		<g style="--index: 1;">
			<path d="M0,108940L5,108940L5,109099L30,109099L30,109139" tabindex="0">
				<title>l_495zlx39-9d8eewld-2lgr793n.z19m8p0l</title>
			</path>
			<rect x="0" y="108940" width="30" height="199"/>
			<path d="M0,108940L0,108940" tabindex="0">
				<title>00:15.58 on 2020-12-17</title>
			</path>
			<line x1="0" y1="108940" x2="310" y2="108940"/>
			<line x1="0" y1="110498" x2="0" y2="0"/>
			<path d="M5,109099L5,109099" tabindex="0">
				<title>00:13.99 on 2020-12-22</title>
			</path>
			<line x1="0" y1="109099" x2="310" y2="109099"/>
			<line x1="5" y1="110498" x2="5" y2="0"/>
			<path d="M30,109139L30,109139" tabindex="0">
				<title>00:13.59 on 2021-01-16</title>
			</path>
			<line x1="0" y1="109139" x2="310" y2="109139"/>
			<line x1="30" y1="110498" x2="30" y2="0"/>
		</g>
		<g style="--index: 2;">
			<path d="M2,108881L28,108881L28,108976" tabindex="0">
				<title>l_r9gn1qpd-9d8eewld-0nwoqwkl.21dz3e4l</title>
			</path>
			<rect x="2" y="108881" width="26" height="95"/>
			<path d="M2,108881L2,108881" tabindex="0">
				<title>00:16.17 on 2020-12-19</title>
			</path>
			<line x1="0" y1="108881" x2="310" y2="108881"/>
			<line x1="2" y1="110498" x2="2" y2="0"/>
			<path d="M28,108976L28,108976" tabindex="0">
				<title>00:15.22 on 2021-01-14</title>
			</path>
			<line x1="0" y1="108976" x2="310" y2="108976"/>
			<line x1="28" y1="110498" x2="28" y2="0"/>
		</g>
		<g style="--index: 3;">
			<path d="M3,108916L30,108916L30,109050L34,109050L34,109094L64,109094L64,109113" tabindex="0">
				<title>l_o9xo3rp9-9d8eewld-7896y468.9qj0x8el</title>
			</path>
			<rect x="3" y="108916" width="61" height="197"/>
			<path d="M3,108916L3,108916" tabindex="0">
				<title>00:15.82 on 2020-12-20</title>
			</path>
			<line x1="0" y1="108916" x2="310" y2="108916"/>
			<line x1="3" y1="110498" x2="3" y2="0"/>
			<path d="M30,109050L30,109050" tabindex="0">
				<title>00:14.48 on 2021-01-16</title>
			</path>
			<line x1="0" y1="109050" x2="310" y2="109050"/>
			<line x1="30" y1="110498" x2="30" y2="0"/>
			<path d="M34,109094L34,109094" tabindex="0">
				<title>00:14.04 on 2021-01-20</title>
			</path>
			<line x1="0" y1="109094" x2="310" y2="109094"/>
			<line x1="34" y1="110498" x2="34" y2="0"/>
			<path d="M64,109113L64,109113" tabindex="0">
				<title>00:13.85 on 2021-02-19</title>
			</path>
			<line x1="0" y1="109113" x2="310" y2="109113"/>
			<line x1="64" y1="110498" x2="64" y2="0"/>
		</g>
		<g style="--index: 4;">
			<path d="M4,94349L5,94349L5,95424L25,95424L25,97226L28,97226L28,97477" tabindex="0">
				<title>l_r9gn1qpd-9d8eewld-0nwoqwkl.gq7jrxvq</title>
			</path>
			<rect x="4" y="94349" width="24" height="3128"/>
			<path d="M4,94349L4,94349" tabindex="0">
				<title>02:41.49 on 2020-12-21</title>
			</path>
			<line x1="0" y1="94349" x2="310" y2="94349"/>
			<line x1="4" y1="110498" x2="4" y2="0"/>
			<path d="M5,95424L5,95424" tabindex="0">
				<title>02:30.74 on 2020-12-22</title>
			</path>
			<line x1="0" y1="95424" x2="310" y2="95424"/>
			<line x1="5" y1="110498" x2="5" y2="0"/>
			<path d="M25,97226L25,97226" tabindex="0">
				<title>02:12.72 on 2021-01-11</title>
			</path>
			<line x1="0" y1="97226" x2="310" y2="97226"/>
			<line x1="25" y1="110498" x2="25" y2="0"/>
			<path d="M28,97477L28,97477" tabindex="0">
				<title>02:10.21 on 2021-01-14</title>
			</path>
			<line x1="0" y1="97477" x2="310" y2="97477"/>
			<line x1="28" y1="110498" x2="28" y2="0"/>
		</g>
		<g style="--index: 5;">
			<path d="M5,77940L16,77940L16,81525L17,81525L17,83232" tabindex="0">
				<title>l_r9gn1qpd-xd144xzd-38dz6v1n.z19md2jl</title>
			</path>
			<rect x="5" y="77940" width="12" height="5292"/>
			<path d="M5,77940L5,77940" tabindex="0">
				<title>05:25.58 on 2020-12-22</title>
			</path>
			<line x1="0" y1="77940" x2="310" y2="77940"/>
			<line x1="5" y1="110498" x2="5" y2="0"/>
			<path d="M16,81525L16,81525" tabindex="0">
				<title>04:49.73 on 2021-01-02</title>
			</path>
			<line x1="0" y1="81525" x2="310" y2="81525"/>
			<line x1="16" y1="110498" x2="16" y2="0"/>
			<path d="M17,83232L17,83232" tabindex="0">
				<title>04:32.66 on 2021-01-03</title>
			</path>
			<line x1="0" y1="83232" x2="310" y2="83232"/>
			<line x1="17" y1="110498" x2="17" y2="0"/>
		</g>
		<g style="--index: 6;">
			<path d="M9,91747L31,91747L31,96370" tabindex="0">
				<title>l_o9xo3rp9-9d8eewld-7896y468.5lmkgmjq</title>
			</path>
			<rect x="9" y="91747" width="22" height="4623"/>
			<path d="M9,91747L9,91747" tabindex="0">
				<title>03:07.51 on 2020-12-26</title>
			</path>
			<line x1="0" y1="91747" x2="310" y2="91747"/>
			<line x1="9" y1="110498" x2="9" y2="0"/>
			<path d="M31,96370L31,96370" tabindex="0">
				<title>02:21.28 on 2021-01-17</title>
			</path>
			<line x1="0" y1="96370" x2="310" y2="96370"/>
			<line x1="31" y1="110498" x2="31" y2="0"/>
		</g>
		<g style="--index: 7;">
			<path d="M10,0L22,0L22,8345" tabindex="0">
				<title>xd17x94d-9l71pv4l.zqo20y2l</title>
			</path>
			<rect x="10" y="0" width="12" height="8345"/>
			<path d="M10,0L10,0" tabindex="0">
				<title>18:24.98 on 2020-12-27</title>
			</path>
			<line x1="0" y1="0" x2="310" y2="0"/>
			<line x1="10" y1="110498" x2="10" y2="0"/>
			<path d="M22,8345L22,8345" tabindex="0">
				<title>17:01.53 on 2021-01-08</title>
			</path>
			<line x1="0" y1="8345" x2="310" y2="8345"/>
			<line x1="22" y1="110498" x2="22" y2="0"/>
		</g>
		<g style="--index: 8;">
			<path d="M17,79569" tabindex="0">
				<title>l_o9xo3rp9-xd144xwd</title>
			</path>
			<rect x="17" y="79569" width="0" height="0"/>
			<path d="M17,79569L17,79569" tabindex="0">
				<title>05:09.29 on 2021-01-03</title>
			</path>
			<line x1="0" y1="79569" x2="310" y2="79569"/>
			<line x1="17" y1="110498" x2="17" y2="0"/>
		</g>
		<g style="--index: 9;">
			<path d="M20,97960L297,97960L297,99192" tabindex="0">
				<title>l_r9gn1qpd-9kv66g32-onv7r45n.9qj08g7l</title>
			</path>
			<rect x="20" y="97960" width="277" height="1232"/>
			<path d="M20,97960L20,97960" tabindex="0">
				<title>02:05.38 on 2021-01-06</title>
			</path>
			<line x1="0" y1="97960" x2="310" y2="97960"/>
			<line x1="20" y1="110498" x2="20" y2="0"/>
			<path d="M297,99192L297,99192" tabindex="0">
				<title>01:53.06 on 2021-10-10</title>
			</path>
			<line x1="0" y1="99192" x2="310" y2="99192"/>
			<line x1="297" y1="110498" x2="297" y2="0"/>
		</g>
		<g style="--index: 10;">
			<path d="M21,93618" tabindex="0">
				<title>l_o9xo3rp9-9kv66g32-onv7r45n.9qj08g7l</title>
			</path>
			<rect x="21" y="93618" width="0" height="0"/>
			<path d="M21,93618L21,93618" tabindex="0">
				<title>02:48.80 on 2021-01-07</title>
			</path>
			<line x1="0" y1="93618" x2="310" y2="93618"/>
			<line x1="21" y1="110498" x2="21" y2="0"/>
		</g>
		<g style="--index: 11;">
			<path d="M24,95743L66,95743L66,96241L109,96241L109,96358" tabindex="0">
				<title>l_o9xo3rp9-xd144xzd-38dz6v1n.814y45w1</title>
			</path>
			<rect x="24" y="95743" width="85" height="615"/>
			<path d="M24,95743L24,95743" tabindex="0">
				<title>02:27.55 on 2021-01-10</title>
			</path>
			<line x1="0" y1="95743" x2="310" y2="95743"/>
			<line x1="24" y1="110498" x2="24" y2="0"/>
			<path d="M66,96241L66,96241" tabindex="0">
				<title>02:22.57 on 2021-02-21</title>
			</path>
			<line x1="0" y1="96241" x2="310" y2="96241"/>
			<line x1="66" y1="110498" x2="66" y2="0"/>
			<path d="M109,96358L109,96358" tabindex="0">
				<title>02:21.40 on 2021-04-05</title>
			</path>
			<line x1="0" y1="96358" x2="310" y2="96358"/>
			<line x1="109" y1="110498" x2="109" y2="0"/>
		</g>
		<g style="--index: 12;">
			<path d="M29,109634" tabindex="0">
				<title>l_o9xo3rp9-9d8eewld-7896y468.jq60ze3q</title>
			</path>
			<rect x="29" y="109634" width="0" height="0"/>
			<path d="M29,109634L29,109634" tabindex="0">
				<title>00:08.64 on 2021-01-15</title>
			</path>
			<line x1="0" y1="109634" x2="310" y2="109634"/>
			<line x1="29" y1="110498" x2="29" y2="0"/>
		</g>
		<g style="--index: 13;">
			<path d="M32,87452" tabindex="0">
				<title>l_r9gn1qpd-xd144xwd</title>
			</path>
			<rect x="32" y="87452" width="0" height="0"/>
			<path d="M32,87452L32,87452" tabindex="0">
				<title>03:50.46 on 2021-01-18</title>
			</path>
			<line x1="0" y1="87452" x2="310" y2="87452"/>
			<line x1="32" y1="110498" x2="32" y2="0"/>
		</g>
		<g style="--index: 14;">
			<path d="M108,109621L179,109621L179,109626L303,109626L303,109627" tabindex="0">
				<title>l_r9gn1qpd-9d8eewld-0nwoqwkl.jqzpx3gl</title>
			</path>
			<rect x="108" y="109621" width="195" height="6"/>
			<path d="M108,109621L108,109621" tabindex="0">
				<title>00:08.77 on 2021-04-04</title>
			</path>
			<line x1="0" y1="109621" x2="310" y2="109621"/>
			<line x1="108" y1="110498" x2="108" y2="0"/>
			<path d="M179,109626L179,109626" tabindex="0">
				<title>00:08.72 on 2021-06-14</title>
			</path>
			<line x1="0" y1="109626" x2="310" y2="109626"/>
			<line x1="179" y1="110498" x2="179" y2="0"/>
			<path d="M303,109627L303,109627" tabindex="0">
				<title>00:08.71 on 2021-10-16</title>
			</path>
			<line x1="0" y1="109627" x2="310" y2="109627"/>
			<line x1="303" y1="110498" x2="303" y2="0"/>
		</g>
		<g style="--index: 15;">
			<path d="M109,101309" tabindex="0">
				<title>l_o9xo3rp9-9d8eewld-7896y468.810zwdwq</title>
			</path>
			<rect x="109" y="101309" width="0" height="0"/>
			<path d="M109,101309L109,101309" tabindex="0">
				<title>01:31.89 on 2021-04-05</title>
			</path>
			<line x1="0" y1="101309" x2="310" y2="101309"/>
			<line x1="109" y1="110498" x2="109" y2="0"/>
		</g>
		<g style="--index: 16;">
			<path d="M299,109381" tabindex="0">
				<title>l_r9gn1qpd-9d8eewld-0nwoqwkl.21g82pnl</title>
			</path>
			<rect x="299" y="109381" width="0" height="0"/>
			<path d="M299,109381L299,109381" tabindex="0">
				<title>00:11.17 on 2021-10-12</title>
			</path>
			<line x1="0" y1="109381" x2="310" y2="109381"/>
			<line x1="299" y1="110498" x2="299" y2="0"/>
		</g>
		<g style="--index: 17;">
			<path d="M303,102982" tabindex="0">
				<title>l_r9gn1qpd-xd144xzd-38dz6v1n.814y45w1</title>
			</path>
			<rect x="303" y="102982" width="0" height="0"/>
			<path d="M303,102982L303,102982" tabindex="0">
				<title>01:15.16 on 2021-10-16</title>
			</path>
			<line x1="0" y1="102982" x2="310" y2="102982"/>
			<line x1="303" y1="110498" x2="303" y2="0"/>
		</g>
		<g style="--index: 18;">
			<path d="M310,103189" tabindex="0">
				<title>l_r9gn1qpd-xd144xzd-38dz6v1n.5leogx5q</title>
			</path>
			<rect x="310" y="103189" width="0" height="0"/>
			<path d="M310,103189L310,103189" tabindex="0">
				<title>01:13.09 on 2021-10-23</title>
			</path>
			<line x1="0" y1="103189" x2="310" y2="103189"/>
			<line x1="310" y1="110498" x2="310" y2="0"/>
		</g>
	</g>
</svg>
