<svg xmlns="http://www.w3.org/2000/svg" viewBox="0 0 95 37718" preserveAspectRatio="none" lang="en" style="color-scheme: dark light;">
		<title>Time by leaderboard for player 8640og3j</title>
		<style>
			svg {
				background: var(--canvas-background);
				fill: var(--canvas-background);
				stroke: var(--canvas-foreground);
				stroke-linejoin: round;
				stroke-linecap: round;
			}
			g &gt; path[tabindex] {
				vector-effect: non-scaling-stroke;
				fill: none;
				stroke: hsl(calc(var(--index) / var(--count) * 360), 50%, 50%);
				cursor: help;
			}
			g:is(:hover, :focus-within) &gt; path[tabindex] {
				stroke: var(--canvas-foreground);
			}
			g &gt; path[tabindex]:is(:hover, :focus-within) {
				outline: 0;
			}
			g &gt; path[tabindex]:first-of-type {
				stroke-width: 2;
			}
			g &gt; path[tabindex]:first-of-type:is(:hover, :focus-within) {
				stroke-width: 4;
			}
			g &gt; path[tabindex]:first-of-type:not(:last-of-type) {
				stroke-dasharray: 4 8;
			}
			g &gt; rect {
				vector-effect: non-scaling-stroke;
				fill: none;
				stroke: none;
				pointer-events: none;
			}
			g &gt; path[tabindex]:first-of-type:is(:hover, :focus-within) + rect {
				fill: var(--highlighted);
			}
			g &gt; path[tabindex]:first-of-type ~ path[tabindex] {
				stroke-width: 8;
			}
			g &gt; path[tabindex]:first-of-type ~ path[tabindex]:is(:hover, :focus-within) {
				stroke-width: 16;
			}
			g &gt; line {
				vector-effect: non-scaling-stroke;
				fill: none;
				stroke: none;
				stroke-width: 2;
				stroke-dasharray: 4 8;
				pointer-events: none;
			}
			g &gt; path[tabindex]:first-of-type:is(:hover, :focus-within) + rect + path[tabindex] + line,
			g &gt; path[tabindex]:first-of-type:is(:hover, :focus-within) + rect + path[tabindex] + line + line,
			g &gt; path[tabindex]:first-of-type:is(:hover, :focus-within) ~ path[tabindex]:last-of-type + line,
			g &gt; path[tabindex]:first-of-type:is(:hover, :focus-within) ~ path[tabindex]:last-of-type + line + line,
			g &gt; path[tabindex]:first-of-type ~ path[tabindex]:is(:hover, :focus-within) + line,
			g &gt; path[tabindex]:first-of-type ~ path[tabindex]:is(:hover, :focus-within) + line + line {
				stroke: var(--faded);
			}
			@media (prefers-color-scheme: dark) {
				:root {
					--canvas-background: #000;
					--canvas-foreground: #ccc;
					--highlighted: #6663;
					--faded: #9993;
				}
			}
			@media (prefers-color-scheme: light) {
				:root {
					--canvas-background: #fff;
					--canvas-foreground: #333;
					--highlighted: #9993;
					--faded: #6663;
				}
			}
		</style>
		<g style="--count: 4;">
		<g style="--index: 0;">
			<path d="M0,28761" tabindex="0">
				<title>l_495zlx39-9d8eewld-2lgr793n.mlno5r0q</title>
			</path>
			<rect x="0" y="28761" width="0" height="0"/>
			<path d="M0,28761L0,28761" tabindex="0">
				<title>01:29.57 on 2023-02-20</title>
			</path>
			<line x1="0" y1="28761" x2="95" y2="28761"/>
			<line x1="0" y1="37718" x2="0" y2="0"/>
		</g>
		<g style="--index: 1;">
			<path d="M0,18533L1,18533L1,18723" tabindex="0">
				<title>l_rdqo542w-9d8eewld-wl30kw9l.810dx3wl</title>
			</path>
			<rect x="0" y="18533" width="1" height="190"/>
			<path d="M0,18533L0,18533" tabindex="0">
				<title>03:11.85 on 2023-02-20</title>
			</path>
			<line x1="0" y1="18533" x2="95" y2="18533"/>
			<line x1="0" y1="37718" x2="0" y2="0"/>
			<path d="M1,18723L1,18723" tabindex="0">
				<title>03:09.95 on 2023-02-21</title>
			</path>
			<line x1="0" y1="18723" x2="95" y2="18723"/>
			<line x1="1" y1="37718" x2="1" y2="0"/>
		</g>
		<g style="--index: 2;">
			<path d="M0,26424L8,26424L8,26586L91,26586L91,26679L95,26679L95,26798" tabindex="0">
				<title>l_o9xo3rp9-9d8eewld-7896y468.4qywn341</title>
			</path>
			<rect x="0" y="26424" width="95" height="374"/>
			<path d="M0,26424L0,26424" tabindex="0">
				<title>01:52.94 on 2023-02-20</title>
			</path>
			<line x1="0" y1="26424" x2="95" y2="26424"/>
			<line x1="0" y1="37718" x2="0" y2="0"/>
			<path d="M8,26586L8,26586" tabindex="0">
				<title>01:51.32 on 2023-02-28</title>
			</path>
			<line x1="0" y1="26586" x2="95" y2="26586"/>
			<line x1="8" y1="37718" x2="8" y2="0"/>
			<path d="M91,26679L91,26679" tabindex="0">
				<title>01:50.39 on 2023-05-22</title>
			</path>
			<line x1="0" y1="26679" x2="95" y2="26679"/>
			<line x1="91" y1="37718" x2="91" y2="0"/>
			<path d="M95,26798L95,26798" tabindex="0">
				<title>01:49.20 on 2023-05-26</title>
			</path>
			<line x1="0" y1="26798" x2="95" y2="26798"/>
			<line x1="95" y1="37718" x2="95" y2="0"/>
		</g>
		<g style="--index: 3;">
			<path d="M94,0" tabindex="0">
				<title>l_o9xo3rp9-9kv66g32-onv7r45n.810zdxoq</title>
			</path>
			<rect x="94" y="0" width="0" height="0"/>
			<path d="M94,0L94,0" tabindex="0">
				<title>06:17.18 on 2023-05-25</title>
			</path>
			<line x1="0" y1="0" x2="95" y2="0"/>
			<line x1="94" y1="37718" x2="94" y2="0"/>
		</g>
	</g>
</svg>
