<svg xmlns="http://www.w3.org/2000/svg" viewBox="0 0 95 37718" preserveAspectRatio="none" lang="en" style="color-scheme: dark light;">
	<title>Time by leaderboard for player 8640og3j</title>
	<style>
		svg {
			background: var(--canvas-background);
			fill: var(--canvas-background);
			stroke: var(--canvas-foreground);
			stroke-linejoin: round;
			stroke-linecap: round;
		}
		g &gt; path[tabindex] {
			vector-effect: non-scaling-stroke;
			fill: none;
			stroke: hsl(calc(var(--index) / var(--count) * 360), 50%, 50%);
			cursor: help;
		}
		g:is(:hover, :focus-within) &gt; path[tabindex] {
			stroke: var(--canvas-foreground);
		}
		g &gt; path[tabindex]:is(:hover, :focus-within) {
			outline: 0;
		}
		g &gt; path[tabindex]:first-of-type {
			stroke-width: 2;
		}
		g &gt; path[tabindex]:first-of-type:is(:hover, :focus-within) {
			stroke-width: 4;
		}
		g &gt; path[tabindex]:first-of-type:not(:last-of-type) {
			stroke-dasharray: 4 8;
		}
		g &gt; rect {
			vector-effect: non-scaling-stroke;
			fill: none;
			stroke: none;
			pointer-events: none;
		}
		g &gt; path[tabindex]:first-of-type:is(:hover, :focus-within) + rect {
			fill: var(--highlighted);
		}
		g &gt; path[tabindex]:first-of-type ~ path[tabindex] {
			stroke-width: 8;
		}
		g &gt; path[tabindex]:first-of-type ~ path[tabindex]:is(:hover, :focus-within) {
			stroke-width: 16;
		}
		g &gt; line {
			vector-effect: non-scaling-stroke;
			fill: none;
			stroke: none;
			stroke-width: 2;
			stroke-dasharray: 4 8;
			pointer-events: none;
		}
		g &gt; path[tabindex]:first-of-type:is(:hover, :focus-within) + rect + path[tabindex] + line,
		g &gt; path[tabindex]:first-of-type:is(:hover, :focus-within) + rect + path[tabindex] + line + line,
		g &gt; path[tabindex]:first-of-type:is(:hover, :focus-within) ~ path[tabindex]:last-of-type + line,
		g &gt; path[tabindex]:first-of-type:is(:hover, :focus-within) ~ path[tabindex]:last-of-type + line + line,
		g &gt; path[tabindex]:first-of-type ~ path[tabindex]:is(:hover, :focus-within) + line,
		g &gt; path[tabindex]:first-of-type ~ path[tabindex]:is(:hover, :focus-within) + line + line {
			stroke: var(--faded);
		}
		@media (prefers-color-scheme: dark) {
			:root {
				--canvas-background: #000;
				--canvas-foreground: #ccc;
				--highlighted: #6663;
				--faded: #9993;
			}
		}
		@media (prefers-color-scheme: light) {
			:root {
				--canvas-background: #fff;
				--canvas-foreground: #333;
				--highlighted: #9993;
				--faded: #6663;
			}
		}
	</style>
	<g transform="scale(1 -1)" transform-origin="center center" style="--count: 4;">
		<g style="--index: 0;">
			<path d="M0,8957" tabindex="0">
				<title>l_495zlx39-9d8eewld-2lgr793n.mlno5r0q</title>
			</path>
			<rect x="0" y="8957" width="0" height="0"/>
			<path d="M0,8957L0,8957" tabindex="0">
				<title>01:29.57 on 2023-02-20</title>
			</path>
			<line x1="0" y1="8957" x2="95" y2="8957"/>
			<line x1="0" y1="0" x2="0" y2="37718"/>
		</g>
		<g style="--index: 1;">
			<path d="M0,19185L1,19185L1,18995" tabindex="0">
				<title>l_rdqo542w-9d8eewld-wl30kw9l.810dx3wl</title>
			</path>
			<rect x="0" y="18995" width="1" height="190"/>
			<path d="M0,19185L0,19185" tabindex="0">
				<title>03:11.85 on 2023-02-20</title>
			</path>
			<line x1="0" y1="19185" x2="95" y2="19185"/>
			<line x1="0" y1="0" x2="0" y2="37718"/>
			<path d="M1,18995L1,18995" tabindex="0">
				<title>03:09.95 on 2023-02-21</title>
			</path>
			<line x1="0" y1="18995" x2="95" y2="18995"/>
			<line x1="1" y1="0" x2="1" y2="37718"/>
		</g>
		<g style="--index: 2;">
			<path d="M0,11294L8,11294L8,11132L91,11132L91,11039L95,11039L95,10920" tabindex="0">
				<title>l_o9xo3rp9-9d8eewld-7896y468.4qywn341</title>
			</path>
			<rect x="0" y="10920" width="95" height="374"/>
			<path d="M0,11294L0,11294" tabindex="0">
				<title>01:52.94 on 2023-02-20</title>
			</path>
			<line x1="0" y1="11294" x2="95" y2="11294"/>
			<line x1="0" y1="0" x2="0" y2="37718"/>
			<path d="M8,11132L8,11132" tabindex="0">
				<title>01:51.32 on 2023-02-28</title>
			</path>
			<line x1="0" y1="11132" x2="95" y2="11132"/>
			<line x1="8" y1="0" x2="8" y2="37718"/>
			<path d="M91,11039L91,11039" tabindex="0">
				<title>01:50.39 on 2023-05-22</title>
			</path>
			<line x1="0" y1="11039" x2="95" y2="11039"/>
			<line x1="91" y1="0" x2="91" y2="37718"/>
			<path d="M95,10920L95,10920" tabindex="0">
				<title>01:49.20 on 2023-05-26</title>
			</path>
			<line x1="0" y1="10920" x2="95" y2="10920"/>
			<line x1="95" y1="0" x2="95" y2="37718"/>
		</g>
		<g style="--index: 3;">
			<path d="M94,37718" tabindex="0">
				<title>l_o9xo3rp9-9kv66g32-onv7r45n.810zdxoq</title>
			</path>
			<rect x="94" y="37718" width="0" height="0"/>
			<path d="M94,37718L94,37718" tabindex="0">
				<title>06:17.18 on 2023-05-25</title>
			</path>
			<line x1="0" y1="37718" x2="95" y2="37718"/>
			<line x1="94" y1="0" x2="94" y2="37718"/>
		</g>
	</g>
</svg>
