<svg xmlns="http://www.w3.org/2000/svg" lang="en">
	<title>Score by leaderboard for player 8dw6o3oj</title>
	<metadata>
		<meta xmlns="http://www.w3.org/1999/xhtml" charset="utf-8" />
		<meta xmlns="http://www.w3.org/1999/xhtml" name="viewport" content="width=device-width" />
		<meta xmlns="http://www.w3.org/1999/xhtml" name="color-scheme" content="dark light" />
	</metadata>
	<style>
		*,
		::before,
		::after {
			box-sizing: border-box;
		}
		:root {
			background: var(--canvas-background);
			color: var(--canvas-foreground);
			fill: var(--canvas-background);
			stroke: var(--canvas-foreground);
			stroke-linejoin: round;
			stroke-linecap: round;
		}
		foreignObject {
			pointer-events: none;
		}
		foreignObject::before,
		foreignObject::after {
			content: "";
			position: absolute;
			z-index: 1;
			left: 20px;
			bottom: 20px;
			pointer-events: auto;
		}
		foreignObject::before {
			width: calc(100% - 40px);
			height: calc(20px + var(--date-size) * 1px);
		}
		foreignObject::after {
			width: calc(20px + var(--value-size) * 1px);
			height: calc(100% - 40px);
		}
		foreignObject &gt; div {
			position: absolute;
			z-index: 4;
			right: 0;
			top: 0;
			margin: 20px;
			border: 1px solid var(--canvas-foreground);
			background: var(--highlighted);
			font: 16px / 1.25 serif;
			transition: opacity 1s;
			pointer-events: auto;
		}
		foreignObject:is(:hover, :focus-within) &gt; div:not(:hover, :focus-within) {
			opacity: 0;
			pointer-events: none;
		}
		foreignObject &gt; div &gt; p {
			margin: 0;
		}
		label {
			display: table;
			border-collapse: separate;
			border-spacing: 10px;
			direction: rtl;
		}
		progress,
		input[type="checkbox"] {
			display: table-cell;
			width: 16px;
			height: 16px;
			margin: 2px;
			accent-color: var(--canvas-foreground);
			vertical-align: top;
			direction: ltr;
		}
		progress + span,
		input[type="checkbox"] + span {
			display: table-cell;
			vertical-align: top;
			direction: ltr;
		}
		input[type="checkbox"]:not(:disabled):is(:hover, :focus-within) + span {
			text-decoration: underline;
		}
		foreignObject &gt; svg:first-of-type,
		foreignObject &gt; svg:first-of-type + svg,
		foreignObject &gt; svg:first-of-type + svg + svg,
		foreignObject &gt; svg:first-of-type + svg + svg + svg {
			position: absolute;
			z-index: 2;
			margin: 0;
			padding: 10px;
			background: var(--highlighted);
			font: 16px / 1.25 serif;
			font-weight: bold;
			pointer-events: auto;
		}
		foreignObject &gt; svg:first-of-type,
		foreignObject &gt; svg:first-of-type + svg + svg {
			border-top: 1px solid #0000;
			border-bottom: 1px solid var(--canvas-foreground);
		}
		foreignObject &gt; svg:first-of-type + svg,
		foreignObject &gt; svg:first-of-type + svg + svg + svg {
			border-top: 1px dashed var(--canvas-foreground);
			border-bottom: 1px dashed #0000;
		}
		foreignObject &gt; svg:first-of-type,
		foreignObject &gt; svg:first-of-type + svg {
			width: calc(20px + var(--date-size) * 1px);
			height: 42px;
			bottom: 20px;
		}
		foreignObject &gt; svg:first-of-type {
			left: calc(40px + var(--value-size) * 1px);
			transform: rotate(90deg) translate(-100%, 0);
			transform-origin: left bottom;
		}
		foreignObject &gt; svg:first-of-type + svg {
			right: 20px;
			transform: rotate(90deg) translate(0, 100%);
			transform-origin: right bottom;
		}
		foreignObject &gt; svg:first-of-type + svg + svg,
		foreignObject &gt; svg:first-of-type + svg + svg + svg {
			width: calc(20px + var(--value-size) * 1px);
			height: 42px;
			left: 20px;
		}
		foreignObject &gt; svg:first-of-type + svg + svg {
			bottom: calc(40px + var(--date-size) * 1px);
		}
		foreignObject &gt; svg:first-of-type + svg + svg + svg {
			top: 20px;
		}
		foreignObject &gt; svg:first-of-type &gt; text,
		foreignObject &gt; svg:first-of-type + svg &gt; text,
		foreignObject &gt; svg:first-of-type + svg + svg &gt; text,
		foreignObject &gt; svg:first-of-type + svg + svg + svg &gt; text {
			fill: var(--canvas-foreground);
			stroke: none;
		}
		foreignObject &gt; svg:first-of-type &gt; text,
		foreignObject &gt; svg:first-of-type + svg &gt; text {
			cursor: vertical-text;
		}
		foreignObject &gt; svg:first-of-type + svg + svg + svg + svg {
			position: relative;
			z-index: 3;
			width: calc(100% - 60px - var(--value-size) * 1px);
			height: calc(100% - 60px - var(--date-size) * 1px);
			margin: 20px 20px calc(40px + var(--date-size) * 1px) calc(40px + var(--value-size) * 1px);
			border-left: 1px solid var(--canvas-foreground);
			border-right: 1px dashed var(--canvas-foreground);
			border-top: 1px dashed var(--canvas-foreground);
			border-bottom: 1px solid var(--canvas-foreground);
			background: var(--canvas-background);
			pointer-events: auto;
		}
		g &gt; rect {
			vector-effect: non-scaling-stroke;
			fill: var(--highlighted);
			stroke: none;
		}
		g &gt; rect[tabindex] {
			fill: var(--tier, #0000);
			cursor: help;
		}
		g &gt; rect[tabindex][data-tier="diamond"] {
			--tier: var(--diamond);
		}
		g &gt; rect[tabindex][data-tier="gold"] {
			--tier: var(--gold);
		}
		g &gt; rect[tabindex][data-tier="silver"] {
			--tier: var(--silver);
		}
		g &gt; rect[tabindex][data-tier="bronze"] {
			--tier: var(--bronze);
		}
		g &gt; path[tabindex] {
			vector-effect: non-scaling-stroke;
			fill: none;
			stroke: hsl(calc(var(--index) / var(--count) * 360), 50%, 50%);
			cursor: help;
		}
		g:is(:hover, :focus-within) &gt; path[tabindex] {
			stroke: var(--canvas-foreground);
		}
		g &gt; path[tabindex]:is(:hover, :focus-within) {
			outline: 0;
		}
		g &gt; path[tabindex]:first-of-type {
			stroke-width: 2;
		}
		g &gt; path[tabindex]:first-of-type:is(:hover, :focus-within) {
			stroke-width: 4;
		}
		g &gt; path[tabindex]:first-of-type:not(:last-of-type) {
			stroke-dasharray: 4 8;
		}
		g &gt; path[tabindex]:first-of-type + rect {
			fill: none;
		}
		g &gt; path[tabindex]:first-of-type:is(:hover, :focus-within) + rect {
			fill: var(--highlighted);
			pointer-events: none;
		}
		g &gt; path[tabindex]:first-of-type ~ path[tabindex] {
			stroke-width: 8;
		}
		g &gt; path[tabindex]:first-of-type ~ path[tabindex]:is(:hover, :focus-within) {
			stroke-width: 16;
		}
		g &gt; path[tabindex]:first-of-type ~ path[tabindex] + line,
		g &gt; path[tabindex]:first-of-type ~ path[tabindex] + line + line {
			vector-effect: non-scaling-stroke;
			fill: none;
			stroke: none;
			stroke-width: 2;
			stroke-dasharray: 4 8;
			pointer-events: none;
		}
		g &gt; path[tabindex]:first-of-type:is(:hover, :focus-within) + rect + path[tabindex] + line,
		g &gt; path[tabindex]:first-of-type:is(:hover, :focus-within) + rect + path[tabindex] + line + line,
		g &gt; path[tabindex]:first-of-type:is(:hover, :focus-within) ~ path[tabindex]:last-of-type + line,
		g &gt; path[tabindex]:first-of-type:is(:hover, :focus-within) ~ path[tabindex]:last-of-type + line + line,
		g &gt; path[tabindex]:first-of-type ~ path[tabindex]:is(:hover, :focus-within) + line,
		g &gt; path[tabindex]:first-of-type ~ path[tabindex]:is(:hover, :focus-within) + line + line {
			stroke: var(--faded);
		}
		@media (prefers-color-scheme: dark) {
			:root {
				--canvas-background: #000;
				--canvas-foreground: #ccc;
				--diamond: #0363;
				--gold: #6303;
				--silver: #3633;
				--bronze: #6363;
				--highlighted: #6663;
				--faded: #9993;
			}
		}
		@media (prefers-color-scheme: light) {
			:root {
				--canvas-background: #fff;
				--canvas-foreground: #333;
				--diamond: #9cf3;
				--gold: #fc93;
				--silver: #9c93;
				--bronze: #c9c3;
				--highlighted: #9993;
				--faded: #6663;
			}
		}
	</style>
	<script>
		"use strict";
		{
			const script = document.currentScript;
			const documentUrl = location.href;
			const scope = new URL("../../", documentUrl).pathname;
			const playersKey = `${scope}#players`;
			const leaderboardsKey = `${scope}#leaderboards`;
			const sessionKey = `${scope}#session`;
			const lockKey = `${scope}#lock`;
			async function importDataScript(dataScriptUrl, signal) {
				signal.throwIfAborted();
				if (documentUrl.protocol !== "file:") {
					const response = await fetch(dataScriptUrl, {
						signal,
					});
					if (!response.ok) {
						throw new Error(response.statusText);
					}
					const data = await response.json();
					return data;
				}
				return await new Promise((resolve, reject) =&gt; {
					const name = `callback${Math.random() * 2 ** 53}`;
					let called = false;
					let data = null;
					function callback(value) {
						if (!called) {
							called = true;
							data = value;
						}
					}
					window[name] = callback;
					const dataScript = document.createElementNS("http://www.w3.org/2000/svg", "script");
					dataScript.href = `${dataScriptUrl}&amp;callback=${name}`;
					function handleAbort(event) {
						delete window[name];
						dataScript.removeEventListener("error", handleError);
						dataScript.removeEventListener("load", handleLoad);
						dataScript.remove();
						const reason = signal.reason;
						reject(reason);
					}
					function handleError(event) {
						delete window[name];
						signal.removeEventListener("abort", handleAbort);
						dataScript.removeEventListener("load", handleLoad);
						dataScript.remove();
						const error = event.error;
						reject(error);
					}
					function handleLoad(event) {
						delete window[name];
						signal.removeEventListener("abort", handleAbort);
						dataScript.removeEventListener("error", handleError);
						dataScript.remove();
						resolve(data);
					}
					signal.addEventListener("abort", handleAbort, {
						once: true,
					});
					dataScript.addEventListener("error", handleError, {
						once: true,
					});
					dataScript.addEventListener("load", handleLoad, {
						once: true,
					});
					script.after(dataScript);
				});
			}
			async function waitForTimeout(delay, signal) {
				signal.throwIfAborted();
				return await new Promise((resolve, reject) =&gt; {
					let timeout = null;
					function handleAbort() {
						clearTimeout(timeout);
						const reason = signal.reason;
						reject(reason);
					}
					function handleTimeout() {
						signal.removeEventListener("abort", handleAbort);
						resolve(delay);
					}
					signal.addEventListener("abort", handleAbort, {
						once: true,
					});
					timeout = setTimeout(handleTimeout, delay);
				});
			}
			window.addEventListener("pageshow", (event) =&gt; {
				if (event.persisted) {
					console.log(`Successfully restored page from cache`);
				} else {
					console.log(`Unsuccessfully restored page from cache`);
				}
			});
			window.addEventListener("pagehide", (event) =&gt; {
				if (event.persisted) {
					console.log(`Successfully saved page to cache`);
				} else {
					console.log(`Unsuccessfully saved page to cache`);
				}
			});
			window.addEventListener("pageshow", async (event) =&gt; {
				const rootTitleElement = document.querySelector("title");
				const rootTitleContent = rootTitleElement.textContent;
				const pathTitleElements = Array.from(document.querySelectorAll("g &gt; path[tabindex]:first-of-type &gt; title"));
				const pathTitleContents = pathTitleElements.map((pathTitleElement) =&gt; {
					const pathTitleContent = pathTitleElement.textContent;
					return pathTitleContent;
				});
				const foreignObject = document.querySelector("foreignObject");
				const div = document.createElementNS("http://www.w3.org/1999/xhtml", "div");
				div.dir = "ltr";
				const p = document.createElementNS("http://www.w3.org/1999/xhtml", "p");
				const label = document.createElementNS("http://www.w3.org/1999/xhtml", "label");
				const progress = document.createElementNS("http://www.w3.org/1999/xhtml", "progress");
				label.append(progress);
				const span = document.createElementNS("http://www.w3.org/1999/xhtml", "span");
				span.textContent = "Loading names";
				label.append(span);
				p.append(label);
				div.append(p);
				foreignObject.prepend(div);
				let lock = false;
				let session = null;
				const broadcastChannel = new BroadcastChannel(sessionKey);
				const abortController = new AbortController();
				const signal = abortController.signal;
				const abort = abortController.abort.bind(abortController);
				const {promise, resolve} = Promise.withResolvers();
				broadcastChannel.addEventListener("message", (event) =&gt; {
					const data = event.data;
					const type = data.type;
					switch (type) {
						case "request": {
							if (lock &amp;&amp; signal.aborted) {
								broadcastChannel.postMessage({
									type: "response",
									session,
								});
							}
							break;
						}
						case "response": {
							if (!signal.aborted) {
								session = data.session;
								if (session != null) {
									const {players, leaderboards} = session;
									try {
										const cachedPlayers = JSON.stringify(players);
										const cachedLeaderboards = JSON.stringify(leaderboards);
										sessionStorage.setItem(playersKey, cachedPlayers);
										sessionStorage.setItem(leaderboardsKey, cachedLeaderboards);
									} catch {}
									console.log(`Successfully loaded names from peer`);
									abort();
									resolve();
								} else {
									console.log(`Unsuccessfully loaded names from peer`);
									abort();
									resolve();
								}
							}
							break;
						}
					}
				});
				try {
					const cachedPlayers = sessionStorage.getItem(playersKey);
					const cachedLeaderboards = sessionStorage.getItem(leaderboardsKey);
					if (cachedPlayers == null || cachedLeaderboards == null) {
						throw new Error();
					}
					const players = JSON.parse(cachedPlayers);
					const leaderboards = JSON.parse(cachedLeaderboards);
					session = {players, leaderboards};
				} catch {}
				if (session != null) {
					broadcastChannel.postMessage({
						type: "response",
						session,
					});
					console.log(`Successfully loaded names from local`);
					abort();
					resolve();
				} else {
					broadcastChannel.postMessage({
						type: "request",
					});
					console.log(`Unsuccessfully loaded names from local`);
				}
				(async () =&gt; {
					for (;;) {
						await navigator.locks.request(lockKey, async () =&gt; {
							lock = true;
							console.log(`Acquired lock`);
							if (!signal.aborted) {
								try {
									const players = Object.create(null);
									const leaderboards = Object.create(null);
									const games = ["9d3rrxyd", "w6jl2ned"];
									for (const gameId of games) {
										const {data} = await importDataScript(`https://www.speedrun.com/api/v1/games/${gameId}?embed=categories,levels,variables`, signal);
										const versions = data.variables.data.find((variable) =&gt; {
											return variable.name === "Version";
										});
										const levels = Object.fromEntries(data.levels.data.map((level) =&gt; {
											return [level.id, level];
										}));
										const categories = Object.fromEntries(data.categories.data.map((category) =&gt; {
											return [category.id, category];
										}));
										const variables = Object.fromEntries(data.variables.data.map((variable) =&gt; {
											return [variable.id, variable];
										}));
										console.log(`Got game`);
										await waitForTimeout(800, signal);
										const slice = 200;
										for (let offset = 0;; offset += slice) {
											const {data, pagination} = await importDataScript(`https://www.speedrun.com/api/v1/runs?game=${gameId}&amp;orderby=date&amp;direction=asc&amp;embed=players&amp;offset=${offset}&amp;max=${slice}`, signal);
											const {size} = pagination;
											if (size === 0) {
												break;
											}
											for (const run of data) {
												const status = run.status.status;
												if (status == null || status === "new") {
													continue;
												}
												const player = run.players.data[0].rel === "user" ? run.players.data[0].id : "814p2558";
												const playerName = run.players.data[0].rel === "user" ? run.players.data[0].names.international : "anonymous";
												players[player] ??= playerName;
												const level = run.level;
												const category = run.category;
												const values = Object.entries(run.values).filter(([variable]) =&gt; {
													return variables[variable]?.["is-subcategory"] ?? false;
												}).map(([variable, value]) =&gt; {
													return `-${variable}.${value}`;
												});
												const leaderboard = `${level != null ? `l_${level}-` : ""}${category}${values.join("")}`;
												const levelName = run.level != null ? levels[run.level]?.name ?? null : null;
												const categoryName = categories[run.category]?.name ?? null;
												const valueNames = Object.entries(run.values).filter(([variable]) =&gt; {
													return variables[variable]?.["is-subcategory"] ?? false;
												}).map(([variable, value]) =&gt; {
													return variables[variable]?.values.values[value]?.label ?? null;
												}).filter((valueName) =&gt; {
													return valueName != null;
												});
												const leaderboardName = `${levelName != null ? `${levelName}: ` : ""}${categoryName ?? ""}${values.length !== 0 ? ` - ${valueNames.join(", ")}` : ""}`;
												leaderboards[leaderboard] ??= leaderboardName;
											}
											console.log(`Got runs ${offset}-${offset + size - 1}`);
											await waitForTimeout(800, signal);
										}
									}
									session = {players, leaderboards};
								} catch {}
								if (!signal.aborted) {
									if (session != null) {
										const {players, leaderboards} = session;
										try {
											const cachedPlayers = JSON.stringify(players);
											const cachedLeaderboards = JSON.stringify(leaderboards);
											sessionStorage.setItem(playersKey, cachedPlayers);
											sessionStorage.setItem(leaderboardsKey, cachedLeaderboards);
										} catch {}
										broadcastChannel.postMessage({
											type: "response",
											session,
										});
										console.log(`Successfully loaded names from remote`);
										abort();
										resolve();
									} else {
										broadcastChannel.postMessage({
											type: "response",
											session,
										});
										console.log(`Unsuccessfully loaded names from remote`);
										abort();
										resolve();
									}
								}
							}
							await new Promise((resolve) =&gt; {
								window.addEventListener("beforeunload", () =&gt; {
									resolve();
								}, {
									once: true,
								});
							});
						});
						lock = false;
						console.log(`Released lock`);
						await new Promise((resolve) =&gt; {
							window.addEventListener("pagehide", () =&gt; {
								resolve();
							}, {
								once: true,
							});
						});
						await new Promise((resolve) =&gt;{
							window.addEventListener("pageshow", () =&gt; {
								resolve();
							}, {
								once: true,
							});
						});
					}
				})();
				await promise;
				if (session == null) {
					const input = document.createElementNS("http://www.w3.org/1999/xhtml", "input");
					input.type = "checkbox";
					input.autocomplete = "off";
					input.disabled = true;
					input.indeterminate = true;
					progress.replaceWith(input);
					span.textContent = "Unavailable names";
					return;
				}
				const {players, leaderboards} = session;
				const hasPlayerRoot = rootTitleContent.includes(" for player");
				const hasLeaderboardRoot = rootTitleContent.includes(" for leaderboard");
				const rootTitle = {
					element: rootTitleElement,
					contentWithIds: rootTitleContent,
					contentWithNames: hasPlayerRoot ? rootTitleContent.replace(/ for player ([0-9_a-z]+)/, ($0, $1) =&gt; {
						return ` for player ${players[$1] ?? $1}`;
					}) : hasLeaderboardRoot ? rootTitleContent.replace(/ for leaderboard ((?:l_[0-9_a-z]+-)?[0-9_a-z]+(-[0-9_a-z]+\.[0-9_a-z]+)*)/, ($0, $1) =&gt; {
						return ` for leaderboard ${leaderboards[$1] ?? $1}`;
					}) : rootTitleContent,
				};
				const hasPlayerPaths = rootTitleContent.includes(" by player");
				const hasLeaderboardPaths = rootTitleContent.includes(" by leaderboard");
				const pathTitles = pathTitleElements.map((pathTitleElement, k) =&gt; {
					const pathTitleContent = pathTitleContents[k];
					const pathTitle = {
						element: pathTitleElement,
						contentWithIds: pathTitleContent,
						contentWithNames: hasPlayerPaths ? players[pathTitleContent] ?? pathTitleContent : hasLeaderboardPaths ? leaderboards[pathTitleContent] ?? pathTitleContent : pathTitleContent,
					};
					return pathTitle;
				});
				const input = document.createElementNS("http://www.w3.org/1999/xhtml", "input");
				input.type = "checkbox";
				input.autocomplete = "off";
				input.addEventListener("change", () =&gt; {
					input.disabled = true;
					if (input.checked) {
						rootTitle.element.textContent = rootTitle.contentWithNames;
						for (const pathTitle of pathTitles) {
							pathTitle.element.textContent = pathTitle.contentWithNames;
						}
					} else {
						rootTitle.element.textContent = rootTitle.contentWithIds;
						for (const pathTitle of pathTitles) {
							pathTitle.element.textContent = pathTitle.contentWithIds;
						}
					}
					input.disabled = false;
				});
				progress.replaceWith(input);
				span.textContent = "Reveal names";
			}, {
				once: true,
			});
		}
	</script>
	<script>
		"use strict";
		{
			document.addEventListener("DOMContentLoaded", (event) =&gt; {
				const minDateText = document.querySelector("foreignObject &gt; svg:first-of-type &gt; text");
				const maxDateText = document.querySelector("foreignObject &gt; svg:first-of-type + svg &gt; text");
				const startX = Math.round(Date.parse(minDateText.textContent) / 86400000);
				function xToDate(x) {
					const datetime = new Date((startX + x) * 86400000);
					const year = `${datetime.getUTCFullYear()}`.padStart(4, "0");
					const month = `${datetime.getUTCMonth() + 1}`.padStart(2, "0");
					const day = `${datetime.getUTCDate()}`.padStart(2, "0");
					const date = `${year}-${month}-${day}`;
					const size = date.length * 10;
					return {date, size};
				}
				function setMinDate(x) {
					const {date, size} = xToDate(Math.floor(x));
					minDateText.textLength.baseVal.value = size;
					minDateText.textContent = date;
				}
				function setMaxDate(x) {
					const {date, size} = xToDate(Math.ceil(x));
					maxDateText.textLength.baseVal.value = size;
					maxDateText.textContent = date;
				}
				const minValueText = document.querySelector("foreignObject &gt; svg:first-of-type + svg + svg &gt; text");
				const maxValueText = document.querySelector("foreignObject &gt; svg:first-of-type + svg + svg + svg &gt; text");
				const timed = minValueText.textContent.includes(":");
				function yToValue(y) {
					if (timed) {
						const minutes = `${(y - y % 6000) / 6000}`.padStart(2, "0");
						const seconds = `${(y - y % 100) / 100 % 60}`.padStart(2, "0");
						const centiseconds = `${y % 100}`.padStart(2, "0");
						const value = `${minutes}:${seconds}.${centiseconds}`;
						const size = value.length * 10;
						return {value, size};
					} else {
						const value = `${y}`;
						const size = value.length * 10;
						return {value, size};
					}
				}
				function setMinValue(y) {
					const {value, size} = yToValue(Math.floor(y));
					minValueText.textLength.baseVal.value = size;
					minValueText.textContent = value;
				}
				function setMaxValue(y) {
					const {value, size} = yToValue(Math.ceil(y));
					maxValueText.textLength.baseVal.value = size;
					maxValueText.textContent = value;
				}
				const svg = document.querySelector("foreignObject &gt; svg:first-of-type + svg + svg + svg + svg");
				svg.tabIndex = -1;
				svg.style.setProperty("outline", "0");
				if (CSS.supports("overflow-clip-margin", "8px")) {
					svg.style.setProperty("overflow", "clip");
					svg.style.setProperty("overflow-clip-margin", "8px");
				}
				svg.style.setProperty("touch-action", "none");
				const {x: baseX, y: baseY, width: baseWidth, height: baseHeight} = svg.viewBox.baseVal;
				let pointerCount = 0;
				const pointers = Object.create(null);
				const xPointerIds = [];
				const yPointerIds = [];
				let x = null;
				let y = null;
				let width = null;
				let height = null;
				svg.addEventListener("pointerdown", (event) =&gt; {
					const {pointerId} = event;
					if (pointerId in pointers) {
						return;
					}
					let {x: animX, y: animY, width: animWidth, height: animHeight} = svg.viewBox.baseVal;
					svg.setPointerCapture(pointerId);
					++pointerCount;
					const offsetX = event.offsetX;
					const offsetY = event.offsetY;
					pointers[pointerId] = {
						offsetX,
						offsetY,
					};
					xPointerIds.splice(xPointerIds.findLastIndex((pointerId) =&gt; {
						return pointers[pointerId].offsetX &lt;= offsetX;
					}) + 1, 0, pointerId);
					yPointerIds.splice(yPointerIds.findLastIndex((pointerId) =&gt; {
						return pointers[pointerId].offsetY &lt;= offsetY;
					}) + 1, 0, pointerId);
					const minOffsetX = pointers[xPointerIds[0]].offsetX;
					const minOffsetY = pointers[yPointerIds[0]].offsetY;
					const maxClientWidth = pointers[xPointerIds[pointerCount - 1]].offsetX - minOffsetX;
					const maxClientHeight = pointers[yPointerIds[pointerCount - 1]].offsetY - minOffsetY;
					width = Math.min(maxClientWidth / svg.clientWidth * animWidth, baseWidth);
					height = Math.min(maxClientHeight / svg.clientHeight * animHeight, baseHeight);
					x = Math.max(Math.min(animX + minOffsetX / svg.clientWidth * animWidth, baseX + baseWidth), baseX);
					y = Math.max(Math.min(animY + minOffsetY / svg.clientHeight * animHeight, baseY + baseHeight), baseY);
				});
				svg.addEventListener("pointerup", (event) =&gt; {
					const {pointerId} = event;
					if (!(pointerId in pointers)) {
						return;
					}
					let {x: animX, y: animY, width: animWidth, height: animHeight} = svg.viewBox.baseVal;
					svg.releasePointerCapture(pointerId);
					--pointerCount;
					delete pointers[pointerId];
					xPointerIds.splice(xPointerIds.lastIndexOf(pointerId), 1);
					yPointerIds.splice(yPointerIds.lastIndexOf(pointerId), 1);
					const minOffsetX = pointerCount !== 0 ? pointers[xPointerIds[0]].offsetX : null;
					const minOffsetY = pointerCount !== 0 ? pointers[yPointerIds[0]].offsetY : null;
					const maxClientWidth = pointerCount !== 0 ? pointers[xPointerIds[pointerCount - 1]].offsetX - minOffsetX : null;
					const maxClientHeight = pointerCount !== 0 ? pointers[yPointerIds[pointerCount - 1]].offsetY - minOffsetY : null;
					width = pointerCount !== 0 ? Math.min(maxClientWidth / svg.clientWidth * animWidth, baseWidth) : null;
					height = pointerCount !== 0 ? Math.min(maxClientHeight / svg.clientHeight * animHeight, baseHeight) : null;
					x = pointerCount !== 0 ? Math.max(Math.min(animX + minOffsetX / svg.clientWidth * animWidth, baseX + baseWidth), baseX) : null;
					y = pointerCount !== 0 ? Math.max(Math.min(animY + minOffsetY / svg.clientHeight * animHeight, baseY + baseHeight), baseY) : null;
				});
				svg.addEventListener("pointermove", (event) =&gt; {
					const {pointerId} = event;
					if (!(pointerId in pointers)) {
						return;
					}
					let {x: animX, y: animY, width: animWidth, height: animHeight} = svg.viewBox.baseVal;
					event.preventDefault();
					const offsetX = event.offsetX;
					const offsetY = event.offsetY;
					pointers[pointerId].offsetX = offsetX;
					pointers[pointerId].offsetY = offsetY;
					const oldXIndex = xPointerIds.lastIndexOf(pointerId);
					let newXIndex = oldXIndex;
					while (newXIndex &gt; 0 &amp;&amp; pointers[xPointerIds[newXIndex - 1]].offsetX &gt; offsetX) {
						--newXIndex;
					}
					xPointerIds.copyWithin(newXIndex + 1, newXIndex, oldXIndex);
					xPointerIds[newXIndex] = pointerId;
					while (newXIndex &lt; pointerCount - 1 &amp;&amp; pointers[xPointerIds[newXIndex + 1]].offsetX &lt; offsetX) {
						++newXIndex;
					}
					xPointerIds.copyWithin(oldXIndex, oldXIndex + 1, newXIndex + 1);
					xPointerIds[newXIndex] = pointerId;
					const oldYIndex = yPointerIds.lastIndexOf(pointerId);
					let newYIndex = oldYIndex;
					while (newYIndex &gt; 0 &amp;&amp; pointers[yPointerIds[newYIndex - 1]].offsetY &gt; offsetY) {
						--newYIndex;
					}
					yPointerIds.copyWithin(newYIndex + 1, newYIndex, oldYIndex);
					yPointerIds[newYIndex] = pointerId;
					while (newYIndex &lt; pointerCount - 1 &amp;&amp; pointers[yPointerIds[newYIndex + 1]].offsetY &lt; offsetY) {
						++newYIndex;
					}
					yPointerIds.copyWithin(oldYIndex, oldYIndex + 1, newYIndex + 1);
					yPointerIds[newYIndex] = pointerId;
					const minOffsetX = pointers[xPointerIds[0]].offsetX;
					const minOffsetY = pointers[yPointerIds[0]].offsetY;
					const maxClientWidth = pointers[xPointerIds[pointerCount - 1]].offsetX - minOffsetX;
					const maxClientHeight = pointers[yPointerIds[pointerCount - 1]].offsetY - minOffsetY;
					animWidth = width === 0 ? animWidth : maxClientWidth === 0 ? baseWidth : Math.min(svg.clientWidth / maxClientWidth * width, baseWidth);
					animHeight = height === 0 ? animHeight : maxClientHeight === 0 ? baseHeight : Math.min(svg.clientHeight / maxClientHeight * height, baseHeight);
					animX = Math.max(Math.min(x - minOffsetX / svg.clientWidth * animWidth, baseX + baseWidth - animWidth), baseX);
					animY = Math.max(Math.min(y - minOffsetY / svg.clientHeight * animHeight, baseY + baseHeight - animHeight), baseY);
					svg.viewBox.baseVal.x = animX;
					svg.viewBox.baseVal.y = animY;
					svg.viewBox.baseVal.width = animWidth;
					svg.viewBox.baseVal.height = animHeight;
					setMinDate(animX);
					setMaxDate(animX + animWidth);
					setMinValue(baseY * 2 + baseHeight - animHeight - animY);
					setMaxValue(baseY * 2 + baseHeight - animY);
				});
				const zoomIntensity = 1.25;
				svg.addEventListener("wheel", (event) =&gt; {
					let {x: animX, y: animY, width: animWidth, height: animHeight} = svg.viewBox.baseVal;
					const {ctrlKey, shiftKey} = event;
					event.preventDefault();
					if (pointerCount !== 0) {
						return;
					}
					if (!ctrlKey) {
						const vectorX = (shiftKey ? event.deltaY : event.deltaX) / svg.clientWidth * animWidth;
						const vectorY = (shiftKey ? 0 : event.deltaY) / svg.clientHeight * animHeight;
						animX = Math.max(Math.min(animX + vectorX, baseX + baseWidth - animWidth), baseX);
						animY = Math.max(Math.min(animY + vectorY, baseY + baseHeight - animHeight), baseY);
						svg.viewBox.baseVal.x = animX;
						svg.viewBox.baseVal.y = animY;
						setMinDate(animX);
						setMaxDate(animX + animWidth);
						setMinValue(baseY * 2 + baseHeight - animHeight - animY);
						setMaxValue(baseY * 2 + baseHeight - animY);
						return;
					}
					const ratioX = zoomIntensity ** Math.sign(shiftKey ? event.deltaY : event.deltaX);
					const ratioY = zoomIntensity ** Math.sign(shiftKey ? 0 : event.deltaY);
					const positionX = Math.max(0, Math.min(event.offsetX / svg.clientWidth, 1)) * animWidth;
					const positionY = Math.max(0, Math.min(event.offsetY / svg.clientHeight, 1)) * animHeight;
					animWidth = Math.min(animWidth * ratioX, baseWidth);
					animHeight = Math.min(animHeight * ratioY, baseHeight);
					animX = Math.max(Math.min(animX + positionX * (1 - ratioX), baseX + baseWidth - animWidth), baseX);
					animY = Math.max(Math.min(animY + positionY * (1 - ratioY), baseY + baseHeight - animHeight), baseY);
					svg.viewBox.baseVal.x = animX;
					svg.viewBox.baseVal.y = animY;
					svg.viewBox.baseVal.width = animWidth;
					svg.viewBox.baseVal.height = animHeight;
					setMinDate(animX);
					setMaxDate(animX + animWidth);
					setMinValue(baseY * 2 + baseHeight - animHeight - animY);
					setMaxValue(baseY * 2 + baseHeight - animY);
				}, {
					passive: false,
				});
				svg.addEventListener("keydown", (event) =&gt; {
					let {x: animX, y: animY, width: animWidth, height: animHeight} = svg.viewBox.baseVal;
					const {ctrlKey, shiftKey} = event;
					switch (event.code) {
						case "Space": {
							event.preventDefault();
							if (pointerCount !== 0) {
								return;
							}
							const vectorY = shiftKey ? -animHeight : animHeight;
							animY = Math.max(Math.min(animY + vectorY, baseY + baseHeight - animHeight), baseY);
							svg.viewBox.baseVal.y = animY;
							setMinValue(baseY * 2 + baseHeight - animHeight - animY);
							setMaxValue(baseY * 2 + baseHeight - animY);
							return;
						}
						case "Equal":
						case "NumpadAdd":
						case "Minus":
						case "NumpadSubtract": {
							event.preventDefault();
							if (pointerCount !== 0) {
								return;
							}
							const ratio = event.code === "Minus" || event.code === "NumpadSubtract" ? zoomIntensity : 1 / zoomIntensity;
							if (!shiftKey) {
								animHeight = Math.min(animHeight * ratio, baseHeight);
								animY = Math.max(Math.min(animY, baseY + baseHeight - animHeight), baseY);
								svg.viewBox.baseVal.y = animY;
								svg.viewBox.baseVal.height = animHeight;
								setMinValue(baseY * 2 + baseHeight - animHeight - animY);
								setMaxValue(baseY * 2 + baseHeight - animY);
								return;
							}
							animWidth = Math.min(animWidth * ratio, baseWidth);
							animX = Math.max(Math.min(animX, baseX + baseWidth - animWidth), baseX);
							svg.viewBox.baseVal.x = animX;
							svg.viewBox.baseVal.width = animWidth;
							setMinDate(animX);
							setMaxDate(animX + animWidth);
							return;
						}
						case "Digit0":
						case "Numpad0": {
							event.preventDefault();
							if (pointerCount !== 0) {
								return;
							}
							if (!shiftKey) {
								animY = baseY;
								animHeight = baseHeight;
								svg.viewBox.baseVal.y = animY;
								svg.viewBox.baseVal.height = animHeight;
								setMinValue(baseY * 2 + baseHeight - animHeight - animY);
								setMaxValue(baseY * 2 + baseHeight - animY);
								return;
							}
							animX = baseX;
							animWidth = baseWidth;
							svg.viewBox.baseVal.x = animX;
							svg.viewBox.baseVal.width = animWidth;
							setMinDate(animX);
							setMaxDate(animX + animWidth);
							return;
						}
					}
					switch (event.key) {
						case "ArrowRight": {
							event.preventDefault();
							if (pointerCount !== 0) {
								return;
							}
							const vectorX = 50 / svg.clientWidth * animWidth;
							animX = Math.max(Math.min(animX + vectorX, baseX + baseWidth - animWidth), baseX);
							svg.viewBox.baseVal.x = animX;
							setMinDate(animX);
							setMaxDate(animX + animWidth);
							return;
						}
						case "ArrowLeft": {
							event.preventDefault();
							if (pointerCount !== 0) {
								return;
							}
							const vectorX = -50 / svg.clientWidth * animWidth;
							animX = Math.max(Math.min(animX + vectorX, baseX + baseWidth - animWidth), baseX);
							svg.viewBox.baseVal.x = animX;
							setMinDate(animX);
							setMaxDate(animX + animWidth);
							return;
						}
						case "ArrowDown": {
							if (!ctrlKey) {
								event.preventDefault();
								if (pointerCount !== 0) {
									return;
								}
								const vectorY = 50 / svg.clientHeight * animHeight;
								animY = Math.max(Math.min(animY + vectorY, baseY + baseHeight - animHeight), baseY);
								svg.viewBox.baseVal.y = animY;
								setMinValue(baseY * 2 + baseHeight - animHeight - animY);
								setMaxValue(baseY * 2 + baseHeight - animY);
								return;
							}
						}
						case "End": {
							event.preventDefault();
							if (pointerCount !== 0) {
								return;
							}
							animY = baseY + baseHeight - animHeight;
							svg.viewBox.baseVal.y = animY;
							setMinValue(baseY * 2 + baseHeight - animHeight - animY);
							setMaxValue(baseY * 2 + baseHeight - animY);
							return;
						}
						case "ArrowUp": {
							if (!ctrlKey) {
								event.preventDefault();
								if (pointerCount !== 0) {
									return;
								}
								const vectorY = -50 / svg.clientHeight * animHeight;
								animY = Math.max(Math.min(animY + vectorY, baseY + baseHeight - animHeight), baseY);
								svg.viewBox.baseVal.y = animY;
								setMinValue(baseY * 2 + baseHeight - animHeight - animY);
								setMaxValue(baseY * 2 + baseHeight - animY);
								return;
							}
						}
						case "Home": {
							event.preventDefault();
							if (pointerCount !== 0) {
								return;
							}
							animY = baseY;
							svg.viewBox.baseVal.y = animY;
							setMinValue(baseY * 2 + baseHeight - animHeight - animY);
							setMaxValue(baseY * 2 + baseHeight - animY);
							return;
						}
						case "PageDown":
						case "PageUp":
						case " ": {
							event.preventDefault();
							if (pointerCount !== 0) {
								return;
							}
							const vectorY = event.key === "PageUp" || event.key === " " &amp;&amp; shiftKey ? -animHeight : animHeight;
							animY = Math.max(Math.min(animY + vectorY, baseY + baseHeight - animHeight), baseY);
							svg.viewBox.baseVal.y = animY;
							setMinValue(baseY * 2 + baseHeight - animHeight - animY);
							setMaxValue(baseY * 2 + baseHeight - animY);
							return;
						}
						case "+":
						case "-": {
							event.preventDefault();
							if (pointerCount !== 0) {
								return;
							}
							const ratio = event.key === "-" ? 1 / zoomIntensity : zoomIntensity;
							animWidth = Math.min(animWidth * ratio, baseWidth);
							animHeight = Math.min(animHeight * ratio, baseHeight);
							animX = Math.max(Math.min(animX, baseX + baseWidth - animWidth), baseX);
							animY = Math.max(Math.min(animY, baseY + baseHeight - animHeight), baseY);
							svg.viewBox.baseVal.x = animX;
							svg.viewBox.baseVal.y = animY;
							svg.viewBox.baseVal.width = animWidth;
							svg.viewBox.baseVal.height = animHeight;
							setMinDate(animX);
							setMaxDate(animX + animWidth);
							setMinValue(baseY * 2 + baseHeight - animHeight - animY);
							setMaxValue(baseY * 2 + baseHeight - animY);
							return;
						}
						case "0": {
							event.preventDefault();
							if (pointerCount !== 0) {
								return;
							}
							animX = baseX;
							animY = baseY;
							animWidth = baseWidth;
							animHeight = baseHeight;
							svg.viewBox.baseVal.x = animX;
							svg.viewBox.baseVal.y = animY;
							svg.viewBox.baseVal.width = animWidth;
							svg.viewBox.baseVal.height = animHeight;
							setMinDate(animX);
							setMaxDate(animX + animWidth);
							setMinValue(baseY * 2 + baseHeight - animHeight - animY);
							setMaxValue(baseY * 2 + baseHeight - animY);
							return;
						}
					}
				});
				svg.addEventListener("focusin", (event) =&gt; {
					if (!event.target.matches(":focus-visible")) {
						return;
					}
					event.preventDefault();
					if (pointerCount !== 0) {
						return;
					}
					let {x: animX, y: animY, width: animWidth, height: animHeight} = svg.viewBox.baseVal;
					let {x, y, width, height} = event.target.getBBox();
					width = Math.round(width);
					height = Math.round(height);
					x = Math.round(x);
					y = baseY * 2 + baseHeight - height - Math.round(y);
					if (x + width &lt; animX) {
						animX = x;
						if (width &gt; animWidth) {
							animX += (width - animWidth) / 2;
						}
					} else if (x &gt; animX + animWidth) {
						animX = x + width - animWidth;
						if (width &gt; animWidth) {
							animX -= (width - animWidth) / 2;
						}
					}
					if (y + height &lt; animY) {
						animY = y;
						if (height &gt; animHeight) {
							animY += (height - animHeight) / 2;
						}
					} else if (y &gt; animY + animHeight) {
						animY = y + height - animHeight;
						if (height &gt; animHeight) {
							animY -= (height - animHeight) / 2;
						}
					}
					svg.viewBox.baseVal.x = animX;
					svg.viewBox.baseVal.y = animY;
					setMinDate(animX);
					setMaxDate(animX + animWidth);
					setMinValue(baseY * 2 + baseHeight - animHeight - animY);
					setMaxValue(baseY * 2 + baseHeight - animY);
				});
			}, {
				once: true,
			});
		}
	</script>
	<foreignObject x="0" y="0" width="100%" height="100%" style="--date-size: 100; --value-size: 30;">
		<svg viewBox="0 0 100 20">
			<text x="50" y="10" dx="0" dy="2" textLength="100" lengthAdjust="spacingAndGlyphs" text-anchor="middle" dominant-baseline="middle">2020-11-24</text>
		</svg>
		<svg viewBox="0 0 100 20">
			<text x="50" y="10" dx="0" dy="2" textLength="100" lengthAdjust="spacingAndGlyphs" text-anchor="middle" dominant-baseline="middle">2026-02-27</text>
		</svg>
		<svg viewBox="0 0 30 20">
			<text x="15" y="10" dx="0" dy="2" textLength="10" lengthAdjust="spacingAndGlyphs" text-anchor="middle" dominant-baseline="middle">0</text>
		</svg>
		<svg viewBox="0 0 30 20">
			<text x="15" y="10" dx="0" dy="2" textLength="30" lengthAdjust="spacingAndGlyphs" text-anchor="middle" dominant-baseline="middle">356</text>
		</svg>
		<svg viewBox="0 0 1921 356" preserveAspectRatio="none" overflow="visible">
			<g transform="translate(0 356) scale(1 -1)" style="--count: 1;">
				<g>
					<rect x="0" y="0" width="1921" height="356"/>
				</g>
				<g style="--index: 0;">
					<path d="M0,0L0,0L0,13L3,13L3,14L8,14L8,17L19,17L19,18L40,18L40,18L67,18L67,18L76,18L76,19L80,19L80,20L109,20L109,21L116,21L116,22L119,22L119,23L131,23L131,23L133,23L133,24L179,24L179,25L244,25L244,26L328,26L328,27L407,27L407,28L414,28L414,29L427,29L427,30L467,30L467,31L473,31L473,33L476,33L476,34L478,34L478,35L486,35L486,36L499,36L499,37L507,37L507,38L523,38L523,39L527,39L527,38L528,38L528,40L531,40L531,41L557,41L557,41L579,41L579,42L584,42L584,43L586,43L586,44L589,44L589,45L592,45L592,46L599,46L599,47L607,47L607,48L611,48L611,49L612,49L612,50L623,50L623,51L627,51L627,52L630,52L630,53L633,53L633,54L634,54L634,54L636,54L636,55L638,55L638,56L639,56L639,57L697,57L697,58L701,58L701,59L711,59L711,60L717,60L717,61L732,61L732,62L739,62L739,63L747,63L747,64L773,64L773,65L777,65L777,66L779,66L779,67L792,67L792,68L794,68L794,69L838,69L838,70L843,70L843,70L844,70L844,71L845,71L845,72L851,72L851,73L857,73L857,72L859,72L859,72L861,72L861,73L863,73L863,74L867,74L867,75L871,75L871,76L874,76L874,77L879,77L879,78L881,78L881,79L884,79L884,79L900,79L900,80L901,80L901,82L907,82L907,84L911,84L911,85L912,85L912,86L936,86L936,88L950,88L950,89L962,89L962,90L964,90L964,91L966,91L966,92L990,92L990,93L993,93L993,94L1000,94L1000,95L1008,95L1008,96L1037,96L1037,96L1048,96L1048,97L1055,97L1055,98L1057,98L1057,99L1073,99L1073,100L1074,100L1074,101L1088,101L1088,102L1100,102L1100,103L1103,103L1103,105L1167,105L1167,106L1168,106L1168,107L1169,107L1169,106L1192,106L1192,107L1211,107L1211,108L1225,108L1225,109L1234,109L1234,110L1237,110L1237,111L1251,111L1251,112L1254,112L1254,112L1257,112L1257,113L1271,113L1271,114L1272,114L1272,116L1280,116L1280,117L1288,117L1288,116L1289,116L1289,118L1302,118L1302,119L1307,119L1307,120L1309,120L1309,121L1310,121L1310,122L1311,122L1311,123L1312,123L1312,123L1315,123L1315,124L1319,124L1319,125L1322,125L1322,126L1323,126L1323,127L1326,127L1326,129L1329,129L1329,130L1334,130L1334,131L1338,131L1338,132L1340,132L1340,133L1344,133L1344,134L1350,134L1350,135L1352,135L1352,136L1355,136L1355,137L1360,137L1360,138L1363,138L1363,139L1374,139L1374,140L1376,140L1376,142L1377,142L1377,141L1383,141L1383,142L1384,142L1384,144L1395,144L1395,145L1411,145L1411,144L1415,144L1415,145L1418,145L1418,146L1426,146L1426,146L1432,146L1432,147L1438,147L1438,148L1440,148L1440,147L1448,147L1448,147L1449,147L1449,148L1453,148L1453,149L1454,149L1454,150L1457,150L1457,151L1461,151L1461,151L1464,151L1464,153L1474,153L1474,154L1475,154L1475,155L1483,155L1483,156L1485,156L1485,157L1489,157L1489,158L1492,158L1492,159L1493,159L1493,161L1499,161L1499,161L1503,161L1503,162L1505,162L1505,164L1508,164L1508,165L1514,165L1514,167L1518,167L1518,168L1522,168L1522,169L1529,169L1529,171L1532,171L1532,172L1543,172L1543,173L1545,173L1545,174L1547,174L1547,175L1549,175L1549,176L1550,176L1550,177L1560,177L1560,178L1565,178L1565,179L1569,179L1569,178L1571,178L1571,179L1575,179L1575,179L1578,179L1578,180L1582,180L1582,181L1587,181L1587,182L1592,182L1592,183L1595,183L1595,184L1597,184L1597,185L1603,185L1603,186L1606,186L1606,187L1608,187L1608,188L1614,188L1614,189L1619,189L1619,190L1622,190L1622,191L1625,191L1625,192L1628,192L1628,194L1629,194L1629,195L1633,195L1633,196L1634,196L1634,197L1636,197L1636,197L1639,197L1639,196L1641,196L1641,197L1643,197L1643,198L1648,198L1648,197L1652,197L1652,199L1657,199L1657,200L1664,200L1664,201L1665,201L1665,203L1672,203L1672,205L1674,205L1674,205L1679,205L1679,206L1681,206L1681,206L1686,206L1686,207L1687,207L1687,208L1689,208L1689,209L1690,209L1690,210L1696,210L1696,211L1698,211L1698,212L1699,212L1699,213L1702,213L1702,214L1704,214L1704,215L1708,215L1708,216L1709,216L1709,218L1713,218L1713,219L1720,219L1720,222L1721,222L1721,223L1724,223L1724,224L1725,224L1725,226L1727,226L1727,227L1729,227L1729,226L1732,226L1732,227L1735,227L1735,228L1736,228L1736,229L1738,229L1738,231L1742,231L1742,231L1744,231L1744,232L1748,232L1748,233L1749,233L1749,234L1753,234L1753,235L1755,235L1755,236L1757,236L1757,237L1758,237L1758,239L1759,239L1759,241L1761,241L1761,240L1764,240L1764,241L1769,241L1769,241L1770,241L1770,242L1771,242L1771,243L1772,243L1772,243L1774,243L1774,244L1781,244L1781,245L1782,245L1782,247L1783,247L1783,251L1788,251L1788,252L1789,252L1789,255L1793,255L1793,256L1797,256L1797,257L1801,257L1801,259L1802,259L1802,260L1804,260L1804,262L1806,262L1806,263L1807,263L1807,264L1808,264L1808,266L1809,266L1809,268L1811,268L1811,269L1813,269L1813,273L1814,273L1814,275L1815,275L1815,276L1817,276L1817,278L1819,278L1819,279L1820,279L1820,280L1821,280L1821,282L1822,282L1822,282L1823,282L1823,283L1825,283L1825,284L1826,284L1826,285L1827,285L1827,286L1829,286L1829,287L1830,287L1830,288L1831,288L1831,289L1833,289L1833,291L1838,291L1838,292L1839,292L1839,292L1840,292L1840,294L1841,294L1841,295L1843,295L1843,296L1845,296L1845,297L1846,297L1846,298L1847,298L1847,299L1849,299L1849,301L1850,301L1850,302L1851,302L1851,303L1852,303L1852,304L1855,304L1855,305L1856,305L1856,306L1859,306L1859,308L1860,308L1860,310L1863,310L1863,309L1865,309L1865,310L1868,310L1868,312L1869,312L1869,313L1872,313L1872,314L1873,314L1873,315L1875,315L1875,315L1877,315L1877,316L1878,316L1878,318L1880,318L1880,320L1881,320L1881,322L1884,322L1884,323L1886,323L1886,324L1887,324L1887,326L1888,326L1888,327L1889,327L1889,329L1890,329L1890,328L1892,328L1892,329L1894,329L1894,330L1895,330L1895,334L1896,334L1896,335L1901,335L1901,338L1902,338L1902,339L1903,339L1903,340L1904,340L1904,340L1905,340L1905,343L1908,343L1908,344L1909,344L1909,347L1913,347L1913,348L1915,348L1915,350L1916,350L1916,353L1917,353L1917,354L1918,354L1918,356L1921,356L1921,356L1921,356" tabindex="0">
						<title>l_r9gn1qpd-9d8eewld-0nwoqwkl.jqzpx3gl</title>
					</path>
				</g>
			</g>
		</svg>
	</foreignObject>
</svg>
