<svg xmlns="http://www.w3.org/2000/svg" viewBox="0 0 86 4411" preserveAspectRatio="none" lang="en" style="color-scheme: dark light;">
		<title>Time by leaderboard for player 8e94kq6j</title>
		<style>
			svg {
				background: var(--canvas-background);
				fill: var(--canvas-background);
				stroke: var(--canvas-foreground);
				stroke-linejoin: round;
				stroke-linecap: round;
			}
			g &gt; path[tabindex] {
				vector-effect: non-scaling-stroke;
				fill: none;
				stroke: hsl(calc(var(--index) / var(--count) * 360), 50%, 50%);
				cursor: help;
			}
			g:is(:hover, :focus-within) &gt; path[tabindex] {
				stroke: var(--canvas-foreground);
			}
			g &gt; path[tabindex]:is(:hover, :focus-within) {
				outline: 0;
			}
			g &gt; path[tabindex]:first-of-type {
				stroke-width: 2;
			}
			g &gt; path[tabindex]:first-of-type:is(:hover, :focus-within) {
				stroke-width: 4;
			}
			g &gt; path[tabindex]:first-of-type:not(:last-of-type) {
				stroke-dasharray: 4 8;
			}
			g &gt; rect {
				vector-effect: non-scaling-stroke;
				fill: none;
				stroke: none;
				pointer-events: none;
			}
			g &gt; path[tabindex]:first-of-type:is(:hover, :focus-within) + rect {
				fill: var(--highlighted);
			}
			g &gt; path[tabindex]:first-of-type ~ path[tabindex] {
				stroke-width: 8;
			}
			g &gt; path[tabindex]:first-of-type ~ path[tabindex]:is(:hover, :focus-within) {
				stroke-width: 16;
			}
			g &gt; line {
				vector-effect: non-scaling-stroke;
				fill: none;
				stroke: none;
				stroke-width: 2;
				stroke-dasharray: 4 8;
				pointer-events: none;
			}
			g &gt; path[tabindex]:first-of-type:is(:hover, :focus-within) + rect + path[tabindex] + line,
			g &gt; path[tabindex]:first-of-type:is(:hover, :focus-within) + rect + path[tabindex] + line + line,
			g &gt; path[tabindex]:first-of-type:is(:hover, :focus-within) ~ path[tabindex]:last-of-type + line,
			g &gt; path[tabindex]:first-of-type:is(:hover, :focus-within) ~ path[tabindex]:last-of-type + line + line,
			g &gt; path[tabindex]:first-of-type ~ path[tabindex]:is(:hover, :focus-within) + line,
			g &gt; path[tabindex]:first-of-type ~ path[tabindex]:is(:hover, :focus-within) + line + line {
				stroke: var(--faded);
			}
			@media (prefers-color-scheme: dark) {
				:root {
					--canvas-background: #000;
					--canvas-foreground: #ccc;
					--highlighted: #6663;
					--faded: #9993;
				}
			}
			@media (prefers-color-scheme: light) {
				:root {
					--canvas-background: #fff;
					--canvas-foreground: #333;
					--highlighted: #9993;
					--faded: #6663;
				}
			}
		</style>
		<g transform="scale(1 -1)" transform-origin="center center" style="--count: 5;">
		<g style="--index: 0;">
			<path d="M0,1214L22,1214L22,1188L35,1188L35,1179L51,1179L51,1161L60,1161L60,1139L86,1139L86,1119" tabindex="0">
				<title>l_r9gnozkd-rkl3znrk-wledz9en.rqvp5e7q</title>
			</path>
			<rect x="0" y="1119" width="86" height="95"/>
			<path d="M0,1214L0,1214" tabindex="0">
				<title>00:12.14 on 2020-10-30</title>
			</path>
			<line x1="0" y1="1214" x2="86" y2="1214"/>
			<line x1="0" y1="0" x2="0" y2="4411"/>
			<path d="M22,1188L22,1188" tabindex="0">
				<title>00:11.88 on 2020-11-21</title>
			</path>
			<line x1="0" y1="1188" x2="86" y2="1188"/>
			<line x1="22" y1="0" x2="22" y2="4411"/>
			<path d="M35,1179L35,1179" tabindex="0">
				<title>00:11.79 on 2020-12-04</title>
			</path>
			<line x1="0" y1="1179" x2="86" y2="1179"/>
			<line x1="35" y1="0" x2="35" y2="4411"/>
			<path d="M51,1161L51,1161" tabindex="0">
				<title>00:11.61 on 2020-12-20</title>
			</path>
			<line x1="0" y1="1161" x2="86" y2="1161"/>
			<line x1="51" y1="0" x2="51" y2="4411"/>
			<path d="M60,1139L60,1139" tabindex="0">
				<title>00:11.39 on 2020-12-29</title>
			</path>
			<line x1="0" y1="1139" x2="86" y2="1139"/>
			<line x1="60" y1="0" x2="60" y2="4411"/>
			<path d="M86,1119L86,1119" tabindex="0">
				<title>00:11.19 on 2021-01-24</title>
			</path>
			<line x1="0" y1="1119" x2="86" y2="1119"/>
			<line x1="86" y1="0" x2="86" y2="4411"/>
		</g>
		<g style="--index: 1;">
			<path d="M6,3668" tabindex="0">
				<title>l_ldykv1zw-rkl3znrk-wl3059ol.mlnwjz0l</title>
			</path>
			<rect x="6" y="3668" width="0" height="0"/>
			<path d="M6,3668L6,3668" tabindex="0">
				<title>00:36.68 on 2020-11-05</title>
			</path>
			<line x1="0" y1="3668" x2="86" y2="3668"/>
			<line x1="6" y1="0" x2="6" y2="4411"/>
		</g>
		<g style="--index: 2;">
			<path d="M6,1440" tabindex="0">
				<title>l_ldykv1zw-rkl3znrk-wl3059ol.810zkwwq</title>
			</path>
			<rect x="6" y="1440" width="0" height="0"/>
			<path d="M6,1440L6,1440" tabindex="0">
				<title>00:14.40 on 2020-11-05</title>
			</path>
			<line x1="0" y1="1440" x2="86" y2="1440"/>
			<line x1="6" y1="0" x2="6" y2="4411"/>
		</g>
		<g style="--index: 3;">
			<path d="M7,2919" tabindex="0">
				<title>l_rdqo542w-9d8eewld-wl30kw9l.5q86rxr1</title>
			</path>
			<rect x="7" y="2919" width="0" height="0"/>
			<path d="M7,2919L7,2919" tabindex="0">
				<title>00:29.19 on 2020-11-06</title>
			</path>
			<line x1="0" y1="2919" x2="86" y2="2919"/>
			<line x1="7" y1="0" x2="7" y2="4411"/>
		</g>
		<g style="--index: 4;">
			<path d="M84,4411" tabindex="0">
				<title>l_r9gnozkd-rkl3znrk-wledz9en.5lmk0gjq</title>
			</path>
			<rect x="84" y="4411" width="0" height="0"/>
			<path d="M84,4411L84,4411" tabindex="0">
				<title>00:44.11 on 2021-01-22</title>
			</path>
			<line x1="0" y1="4411" x2="86" y2="4411"/>
			<line x1="84" y1="0" x2="84" y2="4411"/>
		</g>
	</g>
</svg>
