<svg xmlns="http://www.w3.org/2000/svg" viewBox="0 0 795 3361" preserveAspectRatio="none" lang="en" style="color-scheme: dark light;">
	<title>Time by leaderboard for player 8e9kl5dj</title>
	<style>
		svg {
			background: var(--canvas-background);
			fill: var(--canvas-background);
			stroke: var(--canvas-foreground);
			stroke-linejoin: round;
			stroke-linecap: round;
		}
		g &gt; path[tabindex] {
			vector-effect: non-scaling-stroke;
			fill: none;
			stroke: hsl(calc(var(--index) / var(--count) * 360), 50%, 50%);
			cursor: help;
		}
		g:is(:hover, :focus-within) &gt; path[tabindex] {
			stroke: var(--canvas-foreground);
		}
		g &gt; path[tabindex]:is(:hover, :focus-within) {
			outline: 0;
		}
		g &gt; path[tabindex]:first-of-type {
			stroke-width: 2;
		}
		g &gt; path[tabindex]:first-of-type:is(:hover, :focus-within) {
			stroke-width: 4;
		}
		g &gt; path[tabindex]:first-of-type:not(:last-of-type) {
			stroke-dasharray: 4 8;
		}
		g &gt; rect {
			vector-effect: non-scaling-stroke;
			fill: none;
			stroke: none;
			pointer-events: none;
		}
		g &gt; path[tabindex]:first-of-type:is(:hover, :focus-within) + rect {
			fill: var(--highlighted);
		}
		g &gt; path[tabindex]:first-of-type ~ path[tabindex] {
			stroke-width: 8;
		}
		g &gt; path[tabindex]:first-of-type ~ path[tabindex]:is(:hover, :focus-within) {
			stroke-width: 16;
		}
		g &gt; line {
			vector-effect: non-scaling-stroke;
			fill: none;
			stroke: none;
			stroke-width: 2;
			stroke-dasharray: 4 8;
			pointer-events: none;
		}
		g &gt; path[tabindex]:first-of-type:is(:hover, :focus-within) + rect + path[tabindex] + line,
		g &gt; path[tabindex]:first-of-type:is(:hover, :focus-within) + rect + path[tabindex] + line + line,
		g &gt; path[tabindex]:first-of-type:is(:hover, :focus-within) ~ path[tabindex]:last-of-type + line,
		g &gt; path[tabindex]:first-of-type:is(:hover, :focus-within) ~ path[tabindex]:last-of-type + line + line,
		g &gt; path[tabindex]:first-of-type ~ path[tabindex]:is(:hover, :focus-within) + line,
		g &gt; path[tabindex]:first-of-type ~ path[tabindex]:is(:hover, :focus-within) + line + line {
			stroke: var(--faded);
		}
		@media (prefers-color-scheme: dark) {
			:root {
				--canvas-background: #000;
				--canvas-foreground: #ccc;
				--highlighted: #6663;
				--faded: #9993;
			}
		}
		@media (prefers-color-scheme: light) {
			:root {
				--canvas-background: #fff;
				--canvas-foreground: #333;
				--highlighted: #9993;
				--faded: #6663;
			}
		}
	</style>
	<g transform="scale(1 -1)" transform-origin="center center" style="--count: 2;">
		<g style="--index: 0;">
			<path d="M0,3361L1,3361L1,2983L358,2983L358,2589L458,2589L458,2586L538,2586L538,2529L540,2529L540,2520L545,2520L545,2498L548,2498L548,2489L793,2489L793,2454" tabindex="0">
				<title>l_495zlx39-9d8eewld-2lgr793n.21g8ownl</title>
			</path>
			<rect x="0" y="2454" width="793" height="907"/>
			<path d="M0,3361L0,3361" tabindex="0">
				<title>00:33.61 on 2020-11-27</title>
			</path>
			<line x1="0" y1="3361" x2="795" y2="3361"/>
			<line x1="0" y1="0" x2="0" y2="3361"/>
			<path d="M1,2983L1,2983" tabindex="0">
				<title>00:29.83 on 2020-11-28</title>
			</path>
			<line x1="0" y1="2983" x2="795" y2="2983"/>
			<line x1="1" y1="0" x2="1" y2="3361"/>
			<path d="M358,2589L358,2589" tabindex="0">
				<title>00:25.89 on 2021-11-20</title>
			</path>
			<line x1="0" y1="2589" x2="795" y2="2589"/>
			<line x1="358" y1="0" x2="358" y2="3361"/>
			<path d="M458,2586L458,2586" tabindex="0">
				<title>00:25.86 on 2022-02-28</title>
			</path>
			<line x1="0" y1="2586" x2="795" y2="2586"/>
			<line x1="458" y1="0" x2="458" y2="3361"/>
			<path d="M538,2529L538,2529" tabindex="0">
				<title>00:25.29 on 2022-05-19</title>
			</path>
			<line x1="0" y1="2529" x2="795" y2="2529"/>
			<line x1="538" y1="0" x2="538" y2="3361"/>
			<path d="M540,2520L540,2520" tabindex="0">
				<title>00:25.20 on 2022-05-21</title>
			</path>
			<line x1="0" y1="2520" x2="795" y2="2520"/>
			<line x1="540" y1="0" x2="540" y2="3361"/>
			<path d="M545,2498L545,2498" tabindex="0">
				<title>00:24.98 on 2022-05-26</title>
			</path>
			<line x1="0" y1="2498" x2="795" y2="2498"/>
			<line x1="545" y1="0" x2="545" y2="3361"/>
			<path d="M548,2489L548,2489" tabindex="0">
				<title>00:24.89 on 2022-05-29</title>
			</path>
			<line x1="0" y1="2489" x2="795" y2="2489"/>
			<line x1="548" y1="0" x2="548" y2="3361"/>
			<path d="M793,2454L793,2454" tabindex="0">
				<title>00:24.54 on 2023-01-29</title>
			</path>
			<line x1="0" y1="2454" x2="795" y2="2454"/>
			<line x1="793" y1="0" x2="793" y2="3361"/>
		</g>
		<g style="--index: 1;">
			<path d="M795,846" tabindex="0">
				<title>l_o9xo3rp9-9d8eewld-7896y468.013856dq</title>
			</path>
			<rect x="795" y="846" width="0" height="0"/>
			<path d="M795,846L795,846" tabindex="0">
				<title>00:08.46 on 2023-01-31</title>
			</path>
			<line x1="0" y1="846" x2="795" y2="846"/>
			<line x1="795" y1="0" x2="795" y2="3361"/>
		</g>
	</g>
</svg>
