<svg xmlns="http://www.w3.org/2000/svg" viewBox="0 0 795 3361" preserveAspectRatio="none" lang="en" style="color-scheme: dark light;">
		<title>Time by leaderboard for player 8e9kl5dj</title>
		<style>
			svg {
				background: var(--canvas-background);
				fill: var(--canvas-background);
				stroke: var(--canvas-foreground);
				stroke-linejoin: round;
				stroke-linecap: round;
			}
			g &gt; path[tabindex] {
				vector-effect: non-scaling-stroke;
				fill: none;
				stroke: hsl(calc(var(--index) / var(--count) * 360), 50%, 50%);
				cursor: help;
			}
			g:is(:hover, :focus-within) &gt; path[tabindex] {
				stroke: var(--canvas-foreground);
			}
			g &gt; path[tabindex]:is(:hover, :focus-within) {
				outline: 0;
			}
			g &gt; path[tabindex]:first-of-type {
				stroke-width: 2;
			}
			g &gt; path[tabindex]:first-of-type:is(:hover, :focus-within) {
				stroke-width: 4;
			}
			g &gt; path[tabindex]:first-of-type:not(:last-of-type) {
				stroke-dasharray: 4 8;
			}
			g &gt; rect {
				vector-effect: non-scaling-stroke;
				fill: none;
				stroke: none;
				pointer-events: none;
			}
			g &gt; path[tabindex]:first-of-type:is(:hover, :focus-within) + rect {
				fill: var(--highlighted);
			}
			g &gt; path[tabindex]:first-of-type ~ path[tabindex] {
				stroke-width: 8;
			}
			g &gt; path[tabindex]:first-of-type ~ path[tabindex]:is(:hover, :focus-within) {
				stroke-width: 16;
			}
			g &gt; line {
				vector-effect: non-scaling-stroke;
				fill: none;
				stroke: none;
				stroke-width: 2;
				stroke-dasharray: 4 8;
				pointer-events: none;
			}
			g &gt; path[tabindex]:first-of-type:is(:hover, :focus-within) + rect + path[tabindex] + line,
			g &gt; path[tabindex]:first-of-type:is(:hover, :focus-within) + rect + path[tabindex] + line + line,
			g &gt; path[tabindex]:first-of-type:is(:hover, :focus-within) ~ path[tabindex]:last-of-type + line,
			g &gt; path[tabindex]:first-of-type:is(:hover, :focus-within) ~ path[tabindex]:last-of-type + line + line,
			g &gt; path[tabindex]:first-of-type ~ path[tabindex]:is(:hover, :focus-within) + line,
			g &gt; path[tabindex]:first-of-type ~ path[tabindex]:is(:hover, :focus-within) + line + line {
				stroke: var(--faded);
			}
			@media (prefers-color-scheme: dark) {
				:root {
					--canvas-background: #000;
					--canvas-foreground: #ccc;
					--highlighted: #6663;
					--faded: #9993;
				}
			}
			@media (prefers-color-scheme: light) {
				:root {
					--canvas-background: #fff;
					--canvas-foreground: #333;
					--highlighted: #9993;
					--faded: #6663;
				}
			}
		</style>
		<g style="--count: 2;">
		<g style="--index: 0;">
			<path d="M0,0L1,0L1,378L358,378L358,772L458,772L458,775L538,775L538,832L540,832L540,841L545,841L545,863L548,863L548,872L793,872L793,907" tabindex="0">
				<title>l_495zlx39-9d8eewld-2lgr793n.21g8ownl</title>
			</path>
			<rect x="0" y="0" width="793" height="907"/>
			<path d="M0,0L0,0" tabindex="0">
				<title>00:33.61 on 2020-11-27</title>
			</path>
			<line x1="0" y1="0" x2="795" y2="0"/>
			<line x1="0" y1="3361" x2="0" y2="0"/>
			<path d="M1,378L1,378" tabindex="0">
				<title>00:29.83 on 2020-11-28</title>
			</path>
			<line x1="0" y1="378" x2="795" y2="378"/>
			<line x1="1" y1="3361" x2="1" y2="0"/>
			<path d="M358,772L358,772" tabindex="0">
				<title>00:25.89 on 2021-11-20</title>
			</path>
			<line x1="0" y1="772" x2="795" y2="772"/>
			<line x1="358" y1="3361" x2="358" y2="0"/>
			<path d="M458,775L458,775" tabindex="0">
				<title>00:25.86 on 2022-02-28</title>
			</path>
			<line x1="0" y1="775" x2="795" y2="775"/>
			<line x1="458" y1="3361" x2="458" y2="0"/>
			<path d="M538,832L538,832" tabindex="0">
				<title>00:25.29 on 2022-05-19</title>
			</path>
			<line x1="0" y1="832" x2="795" y2="832"/>
			<line x1="538" y1="3361" x2="538" y2="0"/>
			<path d="M540,841L540,841" tabindex="0">
				<title>00:25.20 on 2022-05-21</title>
			</path>
			<line x1="0" y1="841" x2="795" y2="841"/>
			<line x1="540" y1="3361" x2="540" y2="0"/>
			<path d="M545,863L545,863" tabindex="0">
				<title>00:24.98 on 2022-05-26</title>
			</path>
			<line x1="0" y1="863" x2="795" y2="863"/>
			<line x1="545" y1="3361" x2="545" y2="0"/>
			<path d="M548,872L548,872" tabindex="0">
				<title>00:24.89 on 2022-05-29</title>
			</path>
			<line x1="0" y1="872" x2="795" y2="872"/>
			<line x1="548" y1="3361" x2="548" y2="0"/>
			<path d="M793,907L793,907" tabindex="0">
				<title>00:24.54 on 2023-01-29</title>
			</path>
			<line x1="0" y1="907" x2="795" y2="907"/>
			<line x1="793" y1="3361" x2="793" y2="0"/>
		</g>
		<g style="--index: 1;">
			<path d="M795,2515" tabindex="0">
				<title>l_o9xo3rp9-9d8eewld-7896y468.013856dq</title>
			</path>
			<rect x="795" y="2515" width="0" height="0"/>
			<path d="M795,2515L795,2515" tabindex="0">
				<title>00:08.46 on 2023-01-31</title>
			</path>
			<line x1="0" y1="2515" x2="795" y2="2515"/>
			<line x1="795" y1="3361" x2="795" y2="0"/>
		</g>
	</g>
</svg>
