<svg xmlns="http://www.w3.org/2000/svg" viewBox="0 0 134 5163" preserveAspectRatio="none" lang="en" style="color-scheme: dark light;">
		<title>Time by leaderboard for player 8ew371p8</title>
		<style>
			svg {
				background: var(--canvas-background);
				fill: var(--canvas-background);
				stroke: var(--canvas-foreground);
				stroke-linejoin: round;
				stroke-linecap: round;
			}
			g &gt; path[tabindex] {
				vector-effect: non-scaling-stroke;
				fill: none;
				stroke: hsl(calc(var(--index) / var(--count) * 360), 50%, 50%);
				cursor: help;
			}
			g:is(:hover, :focus-within) &gt; path[tabindex] {
				stroke: var(--canvas-foreground);
			}
			g &gt; path[tabindex]:is(:hover, :focus-within) {
				outline: 0;
			}
			g &gt; path[tabindex]:first-of-type {
				stroke-width: 2;
			}
			g &gt; path[tabindex]:first-of-type:is(:hover, :focus-within) {
				stroke-width: 4;
			}
			g &gt; path[tabindex]:first-of-type:not(:last-of-type) {
				stroke-dasharray: 4 8;
			}
			g &gt; rect {
				vector-effect: non-scaling-stroke;
				fill: none;
				stroke: none;
				pointer-events: none;
			}
			g &gt; path[tabindex]:first-of-type:is(:hover, :focus-within) + rect {
				fill: var(--highlighted);
			}
			g &gt; path[tabindex]:first-of-type ~ path[tabindex] {
				stroke-width: 8;
			}
			g &gt; path[tabindex]:first-of-type ~ path[tabindex]:is(:hover, :focus-within) {
				stroke-width: 16;
			}
			g &gt; line {
				vector-effect: non-scaling-stroke;
				fill: none;
				stroke: none;
				stroke-width: 2;
				stroke-dasharray: 4 8;
				pointer-events: none;
			}
			g &gt; path[tabindex]:first-of-type:is(:hover, :focus-within) + rect + path[tabindex] + line,
			g &gt; path[tabindex]:first-of-type:is(:hover, :focus-within) + rect + path[tabindex] + line + line,
			g &gt; path[tabindex]:first-of-type:is(:hover, :focus-within) ~ path[tabindex]:last-of-type + line,
			g &gt; path[tabindex]:first-of-type:is(:hover, :focus-within) ~ path[tabindex]:last-of-type + line + line,
			g &gt; path[tabindex]:first-of-type ~ path[tabindex]:is(:hover, :focus-within) + line,
			g &gt; path[tabindex]:first-of-type ~ path[tabindex]:is(:hover, :focus-within) + line + line {
				stroke: var(--faded);
			}
			@media (prefers-color-scheme: dark) {
				:root {
					--canvas-background: #000;
					--canvas-foreground: #ccc;
					--highlighted: #6663;
					--faded: #9993;
				}
			}
			@media (prefers-color-scheme: light) {
				:root {
					--canvas-background: #fff;
					--canvas-foreground: #333;
					--highlighted: #9993;
					--faded: #6663;
				}
			}
		</style>
		<g style="--count: 8;">
		<g style="--index: 0;">
			<path d="M0,3451" tabindex="0">
				<title>9kv6l5e2-ql6rezjl.jq6d86v1</title>
			</path>
			<rect x="0" y="3451" width="0" height="0"/>
			<path d="M0,3451L0,3451" tabindex="0">
				<title>00:17.12 on 2023-08-01</title>
			</path>
			<line x1="0" y1="3451" x2="134" y2="3451"/>
			<line x1="0" y1="5163" x2="0" y2="0"/>
		</g>
		<g style="--index: 1;">
			<path d="M16,4221L18,4221L18,4313L66,4313L66,4418L131,4418L131,4426L134,4426L134,4439" tabindex="0">
				<title>9kv6l5e2-ql6rezjl.1dk62o3l</title>
			</path>
			<rect x="16" y="4221" width="118" height="218"/>
			<path d="M16,4221L16,4221" tabindex="0">
				<title>00:09.42 on 2023-08-17</title>
			</path>
			<line x1="0" y1="4221" x2="134" y2="4221"/>
			<line x1="16" y1="5163" x2="16" y2="0"/>
			<path d="M18,4313L18,4313" tabindex="0">
				<title>00:08.50 on 2023-08-19</title>
			</path>
			<line x1="0" y1="4313" x2="134" y2="4313"/>
			<line x1="18" y1="5163" x2="18" y2="0"/>
			<path d="M66,4418L66,4418" tabindex="0">
				<title>00:07.45 on 2023-10-06</title>
			</path>
			<line x1="0" y1="4418" x2="134" y2="4418"/>
			<line x1="66" y1="5163" x2="66" y2="0"/>
			<path d="M131,4426L131,4426" tabindex="0">
				<title>00:07.37 on 2023-12-10</title>
			</path>
			<line x1="0" y1="4426" x2="134" y2="4426"/>
			<line x1="131" y1="5163" x2="131" y2="0"/>
			<path d="M134,4439L134,4439" tabindex="0">
				<title>00:07.24 on 2023-12-13</title>
			</path>
			<line x1="0" y1="4439" x2="134" y2="4439"/>
			<line x1="134" y1="5163" x2="134" y2="0"/>
		</g>
		<g style="--index: 2;">
			<path d="M16,1677L18,1677L18,1784L19,1784L19,2000" tabindex="0">
				<title>rkl9qwrk-6njkg4el.lr3x560l</title>
			</path>
			<rect x="16" y="1677" width="3" height="323"/>
			<path d="M16,1677L16,1677" tabindex="0">
				<title>00:34.86 on 2023-08-17</title>
			</path>
			<line x1="0" y1="1677" x2="134" y2="1677"/>
			<line x1="16" y1="5163" x2="16" y2="0"/>
			<path d="M18,1784L18,1784" tabindex="0">
				<title>00:33.79 on 2023-08-19</title>
			</path>
			<line x1="0" y1="1784" x2="134" y2="1784"/>
			<line x1="18" y1="5163" x2="18" y2="0"/>
			<path d="M19,2000L19,2000" tabindex="0">
				<title>00:31.63 on 2023-08-20</title>
			</path>
			<line x1="0" y1="2000" x2="134" y2="2000"/>
			<line x1="19" y1="5163" x2="19" y2="0"/>
		</g>
		<g style="--index: 3;">
			<path d="M19,2782" tabindex="0">
				<title>l_o9xo3rp9-9d8eewld-7896y468.5lermx5q</title>
			</path>
			<rect x="19" y="2782" width="0" height="0"/>
			<path d="M19,2782L19,2782" tabindex="0">
				<title>00:23.81 on 2023-08-20</title>
			</path>
			<line x1="0" y1="2782" x2="134" y2="2782"/>
			<line x1="19" y1="5163" x2="19" y2="0"/>
		</g>
		<g style="--index: 4;">
			<path d="M19,3158" tabindex="0">
				<title>l_r9gn1qpd-9d8eewld-0nwoqwkl.xqkjmxnl</title>
			</path>
			<rect x="19" y="3158" width="0" height="0"/>
			<path d="M19,3158L19,3158" tabindex="0">
				<title>00:20.05 on 2023-08-20</title>
			</path>
			<line x1="0" y1="3158" x2="134" y2="3158"/>
			<line x1="19" y1="5163" x2="19" y2="0"/>
		</g>
		<g style="--index: 5;">
			<path d="M20,733L89,733L89,2397" tabindex="0">
				<title>l_495zlx39-9d8eewld-2lgr793n.21g8ownl</title>
			</path>
			<rect x="20" y="733" width="69" height="1664"/>
			<path d="M20,733L20,733" tabindex="0">
				<title>00:44.30 on 2023-08-21</title>
			</path>
			<line x1="0" y1="733" x2="134" y2="733"/>
			<line x1="20" y1="5163" x2="20" y2="0"/>
			<path d="M89,2397L89,2397" tabindex="0">
				<title>00:27.66 on 2023-10-29</title>
			</path>
			<line x1="0" y1="2397" x2="134" y2="2397"/>
			<line x1="89" y1="5163" x2="89" y2="0"/>
		</g>
		<g style="--index: 6;">
			<path d="M75,4173" tabindex="0">
				<title>l_r9gn1qpd-9d8eewld-0nwoqwkl.jqzpx3gl</title>
			</path>
			<rect x="75" y="4173" width="0" height="0"/>
			<path d="M75,4173L75,4173" tabindex="0">
				<title>00:09.90 on 2023-10-15</title>
			</path>
			<line x1="0" y1="4173" x2="134" y2="4173"/>
			<line x1="75" y1="5163" x2="75" y2="0"/>
		</g>
		<g style="--index: 7;">
			<path d="M89,0" tabindex="0">
				<title>l_r9gn1qpd-9d8eewld-0nwoqwkl.klr25nj1</title>
			</path>
			<rect x="89" y="0" width="0" height="0"/>
			<path d="M89,0L89,0" tabindex="0">
				<title>00:51.63 on 2023-10-29</title>
			</path>
			<line x1="0" y1="0" x2="134" y2="0"/>
			<line x1="89" y1="5163" x2="89" y2="0"/>
		</g>
	</g>
</svg>
