<svg xmlns="http://www.w3.org/2000/svg" viewBox="0 0 134 5163" preserveAspectRatio="none" lang="en" style="color-scheme: dark light;">
		<title>Time by leaderboard for player 8ew371p8</title>
		<style>
			svg {
				background: var(--canvas-background);
				fill: var(--canvas-background);
				stroke: var(--canvas-foreground);
				stroke-linejoin: round;
				stroke-linecap: round;
			}
			g &gt; path[tabindex] {
				vector-effect: non-scaling-stroke;
				fill: none;
				stroke: hsl(calc(var(--index) / var(--count) * 360), 50%, 50%);
				cursor: help;
			}
			g:is(:hover, :focus-within) &gt; path[tabindex] {
				stroke: var(--canvas-foreground);
			}
			g &gt; path[tabindex]:is(:hover, :focus-within) {
				outline: 0;
			}
			g &gt; path[tabindex]:first-of-type {
				stroke-width: 2;
			}
			g &gt; path[tabindex]:first-of-type:is(:hover, :focus-within) {
				stroke-width: 4;
			}
			g &gt; path[tabindex]:first-of-type:not(:last-of-type) {
				stroke-dasharray: 4 8;
			}
			g &gt; rect {
				vector-effect: non-scaling-stroke;
				fill: none;
				stroke: none;
				pointer-events: none;
			}
			g &gt; path[tabindex]:first-of-type:is(:hover, :focus-within) + rect {
				fill: var(--highlighted);
			}
			g &gt; path[tabindex]:first-of-type ~ path[tabindex] {
				stroke-width: 8;
			}
			g &gt; path[tabindex]:first-of-type ~ path[tabindex]:is(:hover, :focus-within) {
				stroke-width: 16;
			}
			g &gt; line {
				vector-effect: non-scaling-stroke;
				fill: none;
				stroke: none;
				stroke-width: 2;
				stroke-dasharray: 4 8;
				pointer-events: none;
			}
			g &gt; path[tabindex]:first-of-type:is(:hover, :focus-within) + rect + path[tabindex] + line,
			g &gt; path[tabindex]:first-of-type:is(:hover, :focus-within) + rect + path[tabindex] + line + line,
			g &gt; path[tabindex]:first-of-type:is(:hover, :focus-within) ~ path[tabindex]:last-of-type + line,
			g &gt; path[tabindex]:first-of-type:is(:hover, :focus-within) ~ path[tabindex]:last-of-type + line + line,
			g &gt; path[tabindex]:first-of-type ~ path[tabindex]:is(:hover, :focus-within) + line,
			g &gt; path[tabindex]:first-of-type ~ path[tabindex]:is(:hover, :focus-within) + line + line {
				stroke: var(--faded);
			}
			@media (prefers-color-scheme: dark) {
				:root {
					--canvas-background: #000;
					--canvas-foreground: #ccc;
					--highlighted: #6663;
					--faded: #9993;
				}
			}
			@media (prefers-color-scheme: light) {
				:root {
					--canvas-background: #fff;
					--canvas-foreground: #333;
					--highlighted: #9993;
					--faded: #6663;
				}
			}
		</style>
		<g transform="scale(1 -1)" transform-origin="center center" style="--count: 8;">
		<g style="--index: 0;">
			<path d="M0,1712" tabindex="0">
				<title>9kv6l5e2-ql6rezjl.jq6d86v1</title>
			</path>
			<rect x="0" y="1712" width="0" height="0"/>
			<path d="M0,1712L0,1712" tabindex="0">
				<title>00:17.12 on 2023-08-01</title>
			</path>
			<line x1="0" y1="1712" x2="134" y2="1712"/>
			<line x1="0" y1="0" x2="0" y2="5163"/>
		</g>
		<g style="--index: 1;">
			<path d="M16,942L18,942L18,850L66,850L66,745L131,745L131,737L134,737L134,724" tabindex="0">
				<title>9kv6l5e2-ql6rezjl.1dk62o3l</title>
			</path>
			<rect x="16" y="724" width="118" height="218"/>
			<path d="M16,942L16,942" tabindex="0">
				<title>00:09.42 on 2023-08-17</title>
			</path>
			<line x1="0" y1="942" x2="134" y2="942"/>
			<line x1="16" y1="0" x2="16" y2="5163"/>
			<path d="M18,850L18,850" tabindex="0">
				<title>00:08.50 on 2023-08-19</title>
			</path>
			<line x1="0" y1="850" x2="134" y2="850"/>
			<line x1="18" y1="0" x2="18" y2="5163"/>
			<path d="M66,745L66,745" tabindex="0">
				<title>00:07.45 on 2023-10-06</title>
			</path>
			<line x1="0" y1="745" x2="134" y2="745"/>
			<line x1="66" y1="0" x2="66" y2="5163"/>
			<path d="M131,737L131,737" tabindex="0">
				<title>00:07.37 on 2023-12-10</title>
			</path>
			<line x1="0" y1="737" x2="134" y2="737"/>
			<line x1="131" y1="0" x2="131" y2="5163"/>
			<path d="M134,724L134,724" tabindex="0">
				<title>00:07.24 on 2023-12-13</title>
			</path>
			<line x1="0" y1="724" x2="134" y2="724"/>
			<line x1="134" y1="0" x2="134" y2="5163"/>
		</g>
		<g style="--index: 2;">
			<path d="M16,3486L18,3486L18,3379L19,3379L19,3163" tabindex="0">
				<title>rkl9qwrk-6njkg4el.lr3x560l</title>
			</path>
			<rect x="16" y="3163" width="3" height="323"/>
			<path d="M16,3486L16,3486" tabindex="0">
				<title>00:34.86 on 2023-08-17</title>
			</path>
			<line x1="0" y1="3486" x2="134" y2="3486"/>
			<line x1="16" y1="0" x2="16" y2="5163"/>
			<path d="M18,3379L18,3379" tabindex="0">
				<title>00:33.79 on 2023-08-19</title>
			</path>
			<line x1="0" y1="3379" x2="134" y2="3379"/>
			<line x1="18" y1="0" x2="18" y2="5163"/>
			<path d="M19,3163L19,3163" tabindex="0">
				<title>00:31.63 on 2023-08-20</title>
			</path>
			<line x1="0" y1="3163" x2="134" y2="3163"/>
			<line x1="19" y1="0" x2="19" y2="5163"/>
		</g>
		<g style="--index: 3;">
			<path d="M19,2381" tabindex="0">
				<title>l_o9xo3rp9-9d8eewld-7896y468.5lermx5q</title>
			</path>
			<rect x="19" y="2381" width="0" height="0"/>
			<path d="M19,2381L19,2381" tabindex="0">
				<title>00:23.81 on 2023-08-20</title>
			</path>
			<line x1="0" y1="2381" x2="134" y2="2381"/>
			<line x1="19" y1="0" x2="19" y2="5163"/>
		</g>
		<g style="--index: 4;">
			<path d="M19,2005" tabindex="0">
				<title>l_r9gn1qpd-9d8eewld-0nwoqwkl.xqkjmxnl</title>
			</path>
			<rect x="19" y="2005" width="0" height="0"/>
			<path d="M19,2005L19,2005" tabindex="0">
				<title>00:20.05 on 2023-08-20</title>
			</path>
			<line x1="0" y1="2005" x2="134" y2="2005"/>
			<line x1="19" y1="0" x2="19" y2="5163"/>
		</g>
		<g style="--index: 5;">
			<path d="M20,4430L89,4430L89,2766" tabindex="0">
				<title>l_495zlx39-9d8eewld-2lgr793n.21g8ownl</title>
			</path>
			<rect x="20" y="2766" width="69" height="1664"/>
			<path d="M20,4430L20,4430" tabindex="0">
				<title>00:44.30 on 2023-08-21</title>
			</path>
			<line x1="0" y1="4430" x2="134" y2="4430"/>
			<line x1="20" y1="0" x2="20" y2="5163"/>
			<path d="M89,2766L89,2766" tabindex="0">
				<title>00:27.66 on 2023-10-29</title>
			</path>
			<line x1="0" y1="2766" x2="134" y2="2766"/>
			<line x1="89" y1="0" x2="89" y2="5163"/>
		</g>
		<g style="--index: 6;">
			<path d="M75,990" tabindex="0">
				<title>l_r9gn1qpd-9d8eewld-0nwoqwkl.jqzpx3gl</title>
			</path>
			<rect x="75" y="990" width="0" height="0"/>
			<path d="M75,990L75,990" tabindex="0">
				<title>00:09.90 on 2023-10-15</title>
			</path>
			<line x1="0" y1="990" x2="134" y2="990"/>
			<line x1="75" y1="0" x2="75" y2="5163"/>
		</g>
		<g style="--index: 7;">
			<path d="M89,5163" tabindex="0">
				<title>l_r9gn1qpd-9d8eewld-0nwoqwkl.klr25nj1</title>
			</path>
			<rect x="89" y="5163" width="0" height="0"/>
			<path d="M89,5163L89,5163" tabindex="0">
				<title>00:51.63 on 2023-10-29</title>
			</path>
			<line x1="0" y1="5163" x2="134" y2="5163"/>
			<line x1="89" y1="0" x2="89" y2="5163"/>
		</g>
	</g>
</svg>
