<svg xmlns="http://www.w3.org/2000/svg" viewBox="0 0 107 5885" preserveAspectRatio="none" lang="en" style="color-scheme: dark light;">
		<title>Time by leaderboard for player 8g0ezgyx</title>
		<style>
			svg {
				background: var(--canvas-background);
				fill: var(--canvas-background);
				stroke: var(--canvas-foreground);
				stroke-linejoin: round;
				stroke-linecap: round;
			}
			g &gt; path[tabindex] {
				vector-effect: non-scaling-stroke;
				fill: none;
				stroke: hsl(calc(var(--index) / var(--count) * 360), 50%, 50%);
				cursor: help;
			}
			g:is(:hover, :focus-within) &gt; path[tabindex] {
				stroke: var(--canvas-foreground);
			}
			g &gt; path[tabindex]:is(:hover, :focus-within) {
				outline: 0;
			}
			g &gt; path[tabindex]:first-of-type {
				stroke-width: 2;
			}
			g &gt; path[tabindex]:first-of-type:is(:hover, :focus-within) {
				stroke-width: 4;
			}
			g &gt; path[tabindex]:first-of-type:not(:last-of-type) {
				stroke-dasharray: 4 8;
			}
			g &gt; rect {
				vector-effect: non-scaling-stroke;
				fill: none;
				stroke: none;
				pointer-events: none;
			}
			g &gt; path[tabindex]:first-of-type:is(:hover, :focus-within) + rect {
				fill: var(--highlighted);
			}
			g &gt; path[tabindex]:first-of-type ~ path[tabindex] {
				stroke-width: 8;
			}
			g &gt; path[tabindex]:first-of-type ~ path[tabindex]:is(:hover, :focus-within) {
				stroke-width: 16;
			}
			g &gt; line {
				vector-effect: non-scaling-stroke;
				fill: none;
				stroke: none;
				stroke-width: 2;
				stroke-dasharray: 4 8;
				pointer-events: none;
			}
			g &gt; path[tabindex]:first-of-type:is(:hover, :focus-within) + rect + path[tabindex] + line,
			g &gt; path[tabindex]:first-of-type:is(:hover, :focus-within) + rect + path[tabindex] + line + line,
			g &gt; path[tabindex]:first-of-type:is(:hover, :focus-within) ~ path[tabindex]:last-of-type + line,
			g &gt; path[tabindex]:first-of-type:is(:hover, :focus-within) ~ path[tabindex]:last-of-type + line + line,
			g &gt; path[tabindex]:first-of-type ~ path[tabindex]:is(:hover, :focus-within) + line,
			g &gt; path[tabindex]:first-of-type ~ path[tabindex]:is(:hover, :focus-within) + line + line {
				stroke: var(--faded);
			}
			@media (prefers-color-scheme: dark) {
				:root {
					--canvas-background: #000;
					--canvas-foreground: #ccc;
					--highlighted: #6663;
					--faded: #9993;
				}
			}
			@media (prefers-color-scheme: light) {
				:root {
					--canvas-background: #fff;
					--canvas-foreground: #333;
					--highlighted: #9993;
					--faded: #6663;
				}
			}
		</style>
		<g transform="scale(1 -1)" transform-origin="center center" style="--count: 11;">
		<g style="--index: 0;">
			<path d="M0,1725" tabindex="0">
				<title>l_r9gn1qpd-9d8eewld-0nwoqwkl.jqzpx3gl</title>
			</path>
			<rect x="0" y="1725" width="0" height="0"/>
			<path d="M0,1725L0,1725" tabindex="0">
				<title>00:17.25 on 2022-08-25</title>
			</path>
			<line x1="0" y1="1725" x2="107" y2="1725"/>
			<line x1="0" y1="0" x2="0" y2="5885"/>
		</g>
		<g style="--index: 1;">
			<path d="M105,5885" tabindex="0">
				<title>l_r9gn1qpd-9d8eewld-0nwoqwkl.klr25nj1</title>
			</path>
			<rect x="105" y="5885" width="0" height="0"/>
			<path d="M105,5885L105,5885" tabindex="0">
				<title>00:58.85 on 2022-12-08</title>
			</path>
			<line x1="0" y1="5885" x2="107" y2="5885"/>
			<line x1="105" y1="0" x2="105" y2="5885"/>
		</g>
		<g style="--index: 2;">
			<path d="M105,2117" tabindex="0">
				<title>l_r9gn1qpd-9d8eewld-0nwoqwkl.klrpy2jq</title>
			</path>
			<rect x="105" y="2117" width="0" height="0"/>
			<path d="M105,2117L105,2117" tabindex="0">
				<title>00:21.17 on 2022-12-08</title>
			</path>
			<line x1="0" y1="2117" x2="107" y2="2117"/>
			<line x1="105" y1="0" x2="105" y2="5885"/>
		</g>
		<g style="--index: 3;">
			<path d="M107,1002" tabindex="0">
				<title>l_o9xo3rp9-9d8eewld-7896y468.013856dq</title>
			</path>
			<rect x="107" y="1002" width="0" height="0"/>
			<path d="M107,1002L107,1002" tabindex="0">
				<title>00:10.02 on 2022-12-10</title>
			</path>
			<line x1="0" y1="1002" x2="107" y2="1002"/>
			<line x1="107" y1="0" x2="107" y2="5885"/>
		</g>
		<g style="--index: 4;">
			<path d="M107,2130" tabindex="0">
				<title>l_495zlx39-9d8eewld-2lgr793n.z19m8p0l</title>
			</path>
			<rect x="107" y="2130" width="0" height="0"/>
			<path d="M107,2130L107,2130" tabindex="0">
				<title>00:21.30 on 2022-12-10</title>
			</path>
			<line x1="0" y1="2130" x2="107" y2="2130"/>
			<line x1="107" y1="0" x2="107" y2="5885"/>
		</g>
		<g style="--index: 5;">
			<path d="M107,1763" tabindex="0">
				<title>l_495zlx39-9d8eewld-2lgr793n.814y7w01</title>
			</path>
			<rect x="107" y="1763" width="0" height="0"/>
			<path d="M107,1763L107,1763" tabindex="0">
				<title>00:17.63 on 2022-12-10</title>
			</path>
			<line x1="0" y1="1763" x2="107" y2="1763"/>
			<line x1="107" y1="0" x2="107" y2="5885"/>
		</g>
		<g style="--index: 6;">
			<path d="M107,3089" tabindex="0">
				<title>l_495zlx39-9d8eewld-2lgr793n.xqkjmnnl</title>
			</path>
			<rect x="107" y="3089" width="0" height="0"/>
			<path d="M107,3089L107,3089" tabindex="0">
				<title>00:30.89 on 2022-12-10</title>
			</path>
			<line x1="0" y1="3089" x2="107" y2="3089"/>
			<line x1="107" y1="0" x2="107" y2="5885"/>
		</g>
		<g style="--index: 7;">
			<path d="M107,1175" tabindex="0">
				<title>l_o9xo3rp9-9d8eewld-7896y468.jq60ze3q</title>
			</path>
			<rect x="107" y="1175" width="0" height="0"/>
			<path d="M107,1175L107,1175" tabindex="0">
				<title>00:11.75 on 2022-12-10</title>
			</path>
			<line x1="0" y1="1175" x2="107" y2="1175"/>
			<line x1="107" y1="0" x2="107" y2="5885"/>
		</g>
		<g style="--index: 8;">
			<path d="M107,3055" tabindex="0">
				<title>l_rdqo542w-9d8eewld-wl30kw9l.gq7jzvnq</title>
			</path>
			<rect x="107" y="3055" width="0" height="0"/>
			<path d="M107,3055L107,3055" tabindex="0">
				<title>00:30.55 on 2022-12-10</title>
			</path>
			<line x1="0" y1="3055" x2="107" y2="3055"/>
			<line x1="107" y1="0" x2="107" y2="5885"/>
		</g>
		<g style="--index: 9;">
			<path d="M107,1821" tabindex="0">
				<title>9kv6l5e2-ql6rezjl.jq6d86v1</title>
			</path>
			<rect x="107" y="1821" width="0" height="0"/>
			<path d="M107,1821L107,1821" tabindex="0">
				<title>00:18.21 on 2022-12-10</title>
			</path>
			<line x1="0" y1="1821" x2="107" y2="1821"/>
			<line x1="107" y1="0" x2="107" y2="5885"/>
		</g>
		<g style="--index: 10;">
			<path d="M107,2835" tabindex="0">
				<title>l_r9gnozkd-rkl3znrk-wledz9en.814y0701</title>
			</path>
			<rect x="107" y="2835" width="0" height="0"/>
			<path d="M107,2835L107,2835" tabindex="0">
				<title>00:28.35 on 2022-12-10</title>
			</path>
			<line x1="0" y1="2835" x2="107" y2="2835"/>
			<line x1="107" y1="0" x2="107" y2="5885"/>
		</g>
	</g>
</svg>
