<svg xmlns="http://www.w3.org/2000/svg" viewBox="0 0 343 9748" preserveAspectRatio="none" lang="en" style="color-scheme: dark light;">
		<title>Time by leaderboard for player 8grypo7x</title>
		<style>
			svg {
				background: var(--canvas-background);
				fill: var(--canvas-background);
				stroke: var(--canvas-foreground);
				stroke-linejoin: round;
				stroke-linecap: round;
			}
			g &gt; path[tabindex] {
				vector-effect: non-scaling-stroke;
				fill: none;
				stroke: hsl(calc(var(--index) / var(--count) * 360), 50%, 50%);
				cursor: help;
			}
			g:is(:hover, :focus-within) &gt; path[tabindex] {
				stroke: var(--canvas-foreground);
			}
			g &gt; path[tabindex]:is(:hover, :focus-within) {
				outline: 0;
			}
			g &gt; path[tabindex]:first-of-type {
				stroke-width: 2;
			}
			g &gt; path[tabindex]:first-of-type:is(:hover, :focus-within) {
				stroke-width: 4;
			}
			g &gt; path[tabindex]:first-of-type:not(:last-of-type) {
				stroke-dasharray: 4 8;
			}
			g &gt; rect {
				vector-effect: non-scaling-stroke;
				fill: none;
				stroke: none;
				pointer-events: none;
			}
			g &gt; path[tabindex]:first-of-type:is(:hover, :focus-within) + rect {
				fill: var(--highlighted);
			}
			g &gt; path[tabindex]:first-of-type ~ path[tabindex] {
				stroke-width: 8;
			}
			g &gt; path[tabindex]:first-of-type ~ path[tabindex]:is(:hover, :focus-within) {
				stroke-width: 16;
			}
			g &gt; line {
				vector-effect: non-scaling-stroke;
				fill: none;
				stroke: none;
				stroke-width: 2;
				stroke-dasharray: 4 8;
				pointer-events: none;
			}
			g &gt; path[tabindex]:first-of-type:is(:hover, :focus-within) + rect + path[tabindex] + line,
			g &gt; path[tabindex]:first-of-type:is(:hover, :focus-within) + rect + path[tabindex] + line + line,
			g &gt; path[tabindex]:first-of-type:is(:hover, :focus-within) ~ path[tabindex]:last-of-type + line,
			g &gt; path[tabindex]:first-of-type:is(:hover, :focus-within) ~ path[tabindex]:last-of-type + line + line,
			g &gt; path[tabindex]:first-of-type ~ path[tabindex]:is(:hover, :focus-within) + line,
			g &gt; path[tabindex]:first-of-type ~ path[tabindex]:is(:hover, :focus-within) + line + line {
				stroke: var(--faded);
			}
			@media (prefers-color-scheme: dark) {
				:root {
					--canvas-background: #000;
					--canvas-foreground: #ccc;
					--highlighted: #6663;
					--faded: #9993;
				}
			}
			@media (prefers-color-scheme: light) {
				:root {
					--canvas-background: #fff;
					--canvas-foreground: #333;
					--highlighted: #9993;
					--faded: #6663;
				}
			}
		</style>
		<g transform="scale(1 -1)" transform-origin="center center" style="--count: 6;">
		<g style="--index: 0;">
			<path d="M0,991L3,991L3,976L4,976L4,953L5,953L5,943L7,943L7,940L8,940L8,933L338,933L338,885L339,885L339,858" tabindex="0">
				<title>l_o9xo3rp9-9d8eewld-7896y468.013856dq</title>
			</path>
			<rect x="0" y="858" width="339" height="133"/>
			<path d="M0,991L0,991" tabindex="0">
				<title>00:09.91 on 2021-02-21</title>
			</path>
			<line x1="0" y1="991" x2="343" y2="991"/>
			<line x1="0" y1="0" x2="0" y2="9748"/>
			<path d="M3,976L3,976" tabindex="0">
				<title>00:09.76 on 2021-02-24</title>
			</path>
			<line x1="0" y1="976" x2="343" y2="976"/>
			<line x1="3" y1="0" x2="3" y2="9748"/>
			<path d="M4,953L4,953" tabindex="0">
				<title>00:09.53 on 2021-02-25</title>
			</path>
			<line x1="0" y1="953" x2="343" y2="953"/>
			<line x1="4" y1="0" x2="4" y2="9748"/>
			<path d="M5,943L5,943" tabindex="0">
				<title>00:09.43 on 2021-02-26</title>
			</path>
			<line x1="0" y1="943" x2="343" y2="943"/>
			<line x1="5" y1="0" x2="5" y2="9748"/>
			<path d="M7,940L7,940" tabindex="0">
				<title>00:09.40 on 2021-02-28</title>
			</path>
			<line x1="0" y1="940" x2="343" y2="940"/>
			<line x1="7" y1="0" x2="7" y2="9748"/>
			<path d="M8,933L8,933" tabindex="0">
				<title>00:09.33 on 2021-03-01</title>
			</path>
			<line x1="0" y1="933" x2="343" y2="933"/>
			<line x1="8" y1="0" x2="8" y2="9748"/>
			<path d="M338,885L338,885" tabindex="0">
				<title>00:08.85 on 2022-01-25</title>
			</path>
			<line x1="0" y1="885" x2="343" y2="885"/>
			<line x1="338" y1="0" x2="338" y2="9748"/>
			<path d="M339,858L339,858" tabindex="0">
				<title>00:08.58 on 2022-01-26</title>
			</path>
			<line x1="0" y1="858" x2="343" y2="858"/>
			<line x1="339" y1="0" x2="339" y2="9748"/>
		</g>
		<g style="--index: 1;">
			<path d="M8,2933" tabindex="0">
				<title>l_o9xo3rp9-9d8eewld-7896y468.5lermx5q</title>
			</path>
			<rect x="8" y="2933" width="0" height="0"/>
			<path d="M8,2933L8,2933" tabindex="0">
				<title>00:29.33 on 2021-03-01</title>
			</path>
			<line x1="0" y1="2933" x2="343" y2="2933"/>
			<line x1="8" y1="0" x2="8" y2="9748"/>
		</g>
		<g style="--index: 2;">
			<path d="M8,1736L340,1736L340,1443L343,1443L343,1412" tabindex="0">
				<title>l_o9xo3rp9-9d8eewld-7896y468.rqvpey7q</title>
			</path>
			<rect x="8" y="1412" width="335" height="324"/>
			<path d="M8,1736L8,1736" tabindex="0">
				<title>00:17.36 on 2021-03-01</title>
			</path>
			<line x1="0" y1="1736" x2="343" y2="1736"/>
			<line x1="8" y1="0" x2="8" y2="9748"/>
			<path d="M340,1443L340,1443" tabindex="0">
				<title>00:14.43 on 2022-01-27</title>
			</path>
			<line x1="0" y1="1443" x2="343" y2="1443"/>
			<line x1="340" y1="0" x2="340" y2="9748"/>
			<path d="M343,1412L343,1412" tabindex="0">
				<title>00:14.12 on 2022-01-30</title>
			</path>
			<line x1="0" y1="1412" x2="343" y2="1412"/>
			<line x1="343" y1="0" x2="343" y2="9748"/>
		</g>
		<g style="--index: 3;">
			<path d="M9,2410" tabindex="0">
				<title>l_o9xo3rp9-9d8eewld-7896y468.81wp50oq</title>
			</path>
			<rect x="9" y="2410" width="0" height="0"/>
			<path d="M9,2410L9,2410" tabindex="0">
				<title>00:24.10 on 2021-03-02</title>
			</path>
			<line x1="0" y1="2410" x2="343" y2="2410"/>
			<line x1="9" y1="0" x2="9" y2="9748"/>
		</g>
		<g style="--index: 4;">
			<path d="M10,9748" tabindex="0">
				<title>l_o9xo3rp9-9d8eewld-7896y468.810zwdwq</title>
			</path>
			<rect x="10" y="9748" width="0" height="0"/>
			<path d="M10,9748L10,9748" tabindex="0">
				<title>01:37.48 on 2021-03-03</title>
			</path>
			<line x1="0" y1="9748" x2="343" y2="9748"/>
			<line x1="10" y1="0" x2="10" y2="9748"/>
		</g>
		<g style="--index: 5;">
			<path d="M10,1755" tabindex="0">
				<title>l_o9xo3rp9-9d8eewld-7896y468.jq60ze3q</title>
			</path>
			<rect x="10" y="1755" width="0" height="0"/>
			<path d="M10,1755L10,1755" tabindex="0">
				<title>00:17.55 on 2021-03-03</title>
			</path>
			<line x1="0" y1="1755" x2="343" y2="1755"/>
			<line x1="10" y1="0" x2="10" y2="9748"/>
		</g>
	</g>
</svg>
