<svg xmlns="http://www.w3.org/2000/svg" viewBox="0 0 7 125351" preserveAspectRatio="none" lang="en" style="color-scheme: dark light;">
	<title>Time by leaderboard for player 8lonqn28</title>
	<style>
		svg {
			background: var(--canvas-background);
			fill: var(--canvas-background);
			stroke: var(--canvas-foreground);
			stroke-linejoin: round;
			stroke-linecap: round;
		}
		g &gt; path[tabindex] {
			vector-effect: non-scaling-stroke;
			fill: none;
			stroke: hsl(calc(var(--index) / var(--count) * 360), 50%, 50%);
			cursor: help;
		}
		g:is(:hover, :focus-within) &gt; path[tabindex] {
			stroke: var(--canvas-foreground);
		}
		g &gt; path[tabindex]:is(:hover, :focus-within) {
			outline: 0;
		}
		g &gt; path[tabindex]:first-of-type {
			stroke-width: 2;
		}
		g &gt; path[tabindex]:first-of-type:is(:hover, :focus-within) {
			stroke-width: 4;
		}
		g &gt; path[tabindex]:first-of-type:not(:last-of-type) {
			stroke-dasharray: 4 8;
		}
		g &gt; rect {
			vector-effect: non-scaling-stroke;
			fill: none;
			stroke: none;
			pointer-events: none;
		}
		g &gt; path[tabindex]:first-of-type:is(:hover, :focus-within) + rect {
			fill: var(--highlighted);
		}
		g &gt; path[tabindex]:first-of-type ~ path[tabindex] {
			stroke-width: 8;
		}
		g &gt; path[tabindex]:first-of-type ~ path[tabindex]:is(:hover, :focus-within) {
			stroke-width: 16;
		}
		g &gt; line {
			vector-effect: non-scaling-stroke;
			fill: none;
			stroke: none;
			stroke-width: 2;
			stroke-dasharray: 4 8;
			pointer-events: none;
		}
		g &gt; path[tabindex]:first-of-type:is(:hover, :focus-within) + rect + path[tabindex] + line,
		g &gt; path[tabindex]:first-of-type:is(:hover, :focus-within) + rect + path[tabindex] + line + line,
		g &gt; path[tabindex]:first-of-type:is(:hover, :focus-within) ~ path[tabindex]:last-of-type + line,
		g &gt; path[tabindex]:first-of-type:is(:hover, :focus-within) ~ path[tabindex]:last-of-type + line + line,
		g &gt; path[tabindex]:first-of-type ~ path[tabindex]:is(:hover, :focus-within) + line,
		g &gt; path[tabindex]:first-of-type ~ path[tabindex]:is(:hover, :focus-within) + line + line {
			stroke: var(--faded);
		}
		@media (prefers-color-scheme: dark) {
			:root {
				--canvas-background: #000;
				--canvas-foreground: #ccc;
				--highlighted: #6663;
				--faded: #9993;
			}
		}
		@media (prefers-color-scheme: light) {
			:root {
				--canvas-background: #fff;
				--canvas-foreground: #333;
				--highlighted: #9993;
				--faded: #6663;
			}
		}
	</style>
	<g transform="scale(1 -1)" transform-origin="center center" style="--count: 9;">
		<g style="--index: 0;">
			<path d="M0,2601" tabindex="0">
				<title>l_495zlx39-9d8eewld-2lgr793n.xqkjmnnl</title>
			</path>
			<rect x="0" y="2601" width="0" height="0"/>
			<path d="M0,2601L0,2601" tabindex="0">
				<title>00:26.01 on 2022-12-11</title>
			</path>
			<line x1="0" y1="2601" x2="7" y2="2601"/>
			<line x1="0" y1="0" x2="0" y2="125351"/>
		</g>
		<g style="--index: 1;">
			<path d="M0,1877" tabindex="0">
				<title>l_o9xo3rp9-9d8eewld-7896y468.9qj0x8el</title>
			</path>
			<rect x="0" y="1877" width="0" height="0"/>
			<path d="M0,1877L0,1877" tabindex="0">
				<title>00:18.77 on 2022-12-11</title>
			</path>
			<line x1="0" y1="1877" x2="7" y2="1877"/>
			<line x1="0" y1="0" x2="0" y2="125351"/>
		</g>
		<g style="--index: 2;">
			<path d="M0,1080" tabindex="0">
				<title>l_r9gn1qpd-9d8eewld-0nwoqwkl.jqzpx3gl</title>
			</path>
			<rect x="0" y="1080" width="0" height="0"/>
			<path d="M0,1080L0,1080" tabindex="0">
				<title>00:10.80 on 2022-12-11</title>
			</path>
			<line x1="0" y1="1080" x2="7" y2="1080"/>
			<line x1="0" y1="0" x2="0" y2="125351"/>
		</g>
		<g style="--index: 3;">
			<path d="M0,3554" tabindex="0">
				<title>l_495zlx39-9d8eewld-2lgr793n.21g8ownl</title>
			</path>
			<rect x="0" y="3554" width="0" height="0"/>
			<path d="M0,3554L0,3554" tabindex="0">
				<title>00:35.54 on 2022-12-11</title>
			</path>
			<line x1="0" y1="3554" x2="7" y2="3554"/>
			<line x1="0" y1="0" x2="0" y2="125351"/>
		</g>
		<g style="--index: 4;">
			<path d="M0,1707" tabindex="0">
				<title>l_495zlx39-9d8eewld-2lgr793n.814y7w01</title>
			</path>
			<rect x="0" y="1707" width="0" height="0"/>
			<path d="M0,1707L0,1707" tabindex="0">
				<title>00:17.07 on 2022-12-11</title>
			</path>
			<line x1="0" y1="1707" x2="7" y2="1707"/>
			<line x1="0" y1="0" x2="0" y2="125351"/>
		</g>
		<g style="--index: 5;">
			<path d="M0,2104" tabindex="0">
				<title>l_495zlx39-9d8eewld-2lgr793n.z19m8p0l</title>
			</path>
			<rect x="0" y="2104" width="0" height="0"/>
			<path d="M0,2104L0,2104" tabindex="0">
				<title>00:21.04 on 2022-12-11</title>
			</path>
			<line x1="0" y1="2104" x2="7" y2="2104"/>
			<line x1="0" y1="0" x2="0" y2="125351"/>
		</g>
		<g style="--index: 6;">
			<path d="M0,125351" tabindex="0">
				<title>xd17x94d-9l71pv4l.21gpn081</title>
			</path>
			<rect x="0" y="125351" width="0" height="0"/>
			<path d="M0,125351L0,125351" tabindex="0">
				<title>20:53.51 on 2022-12-11</title>
			</path>
			<line x1="0" y1="125351" x2="7" y2="125351"/>
			<line x1="0" y1="0" x2="0" y2="125351"/>
		</g>
		<g style="--index: 7;">
			<path d="M0,2160" tabindex="0">
				<title>l_o9xo3rp9-9d8eewld-7896y468.5lermx5q</title>
			</path>
			<rect x="0" y="2160" width="0" height="0"/>
			<path d="M0,2160L0,2160" tabindex="0">
				<title>00:21.60 on 2022-12-11</title>
			</path>
			<line x1="0" y1="2160" x2="7" y2="2160"/>
			<line x1="0" y1="0" x2="0" y2="125351"/>
		</g>
		<g style="--index: 8;">
			<path d="M7,1942" tabindex="0">
				<title>l_r9gnozkd-rkl3znrk-wledz9en.rqvp5e7q</title>
			</path>
			<rect x="7" y="1942" width="0" height="0"/>
			<path d="M7,1942L7,1942" tabindex="0">
				<title>00:19.42 on 2022-12-18</title>
			</path>
			<line x1="0" y1="1942" x2="7" y2="1942"/>
			<line x1="7" y1="0" x2="7" y2="125351"/>
		</g>
	</g>
</svg>
