<svg xmlns="http://www.w3.org/2000/svg" viewBox="0 0 236 368624" preserveAspectRatio="none" lang="en" style="color-scheme: dark light;">
		<title>Time by leaderboard for player 8w3l21qj</title>
		<style>
			svg {
				background: var(--canvas-background);
				fill: var(--canvas-background);
				stroke: var(--canvas-foreground);
				stroke-linejoin: round;
				stroke-linecap: round;
			}
			g &gt; path[tabindex] {
				vector-effect: non-scaling-stroke;
				fill: none;
				stroke: hsl(calc(var(--index) / var(--count) * 360), 50%, 50%);
				cursor: help;
			}
			g:is(:hover, :focus-within) &gt; path[tabindex] {
				stroke: var(--canvas-foreground);
			}
			g &gt; path[tabindex]:is(:hover, :focus-within) {
				outline: 0;
			}
			g &gt; path[tabindex]:first-of-type {
				stroke-width: 2;
			}
			g &gt; path[tabindex]:first-of-type:is(:hover, :focus-within) {
				stroke-width: 4;
			}
			g &gt; path[tabindex]:first-of-type:not(:last-of-type) {
				stroke-dasharray: 4 8;
			}
			g &gt; rect {
				vector-effect: non-scaling-stroke;
				fill: none;
				stroke: none;
				pointer-events: none;
			}
			g &gt; path[tabindex]:first-of-type:is(:hover, :focus-within) + rect {
				fill: var(--highlighted);
			}
			g &gt; path[tabindex]:first-of-type ~ path[tabindex] {
				stroke-width: 8;
			}
			g &gt; path[tabindex]:first-of-type ~ path[tabindex]:is(:hover, :focus-within) {
				stroke-width: 16;
			}
			g &gt; line {
				vector-effect: non-scaling-stroke;
				fill: none;
				stroke: none;
				stroke-width: 2;
				stroke-dasharray: 4 8;
				pointer-events: none;
			}
			g &gt; path[tabindex]:first-of-type:is(:hover, :focus-within) + rect + path[tabindex] + line,
			g &gt; path[tabindex]:first-of-type:is(:hover, :focus-within) + rect + path[tabindex] + line + line,
			g &gt; path[tabindex]:first-of-type:is(:hover, :focus-within) ~ path[tabindex]:last-of-type + line,
			g &gt; path[tabindex]:first-of-type:is(:hover, :focus-within) ~ path[tabindex]:last-of-type + line + line,
			g &gt; path[tabindex]:first-of-type ~ path[tabindex]:is(:hover, :focus-within) + line,
			g &gt; path[tabindex]:first-of-type ~ path[tabindex]:is(:hover, :focus-within) + line + line {
				stroke: var(--faded);
			}
			@media (prefers-color-scheme: dark) {
				:root {
					--canvas-background: #000;
					--canvas-foreground: #ccc;
					--highlighted: #6663;
					--faded: #9993;
				}
			}
			@media (prefers-color-scheme: light) {
				:root {
					--canvas-background: #fff;
					--canvas-foreground: #333;
					--highlighted: #9993;
					--faded: #6663;
				}
			}
		</style>
		<g style="--count: 43;">
		<g style="--index: 0;">
			<path d="M0,8478" tabindex="0">
				<title>xd17x94d-9l71pv4l.21gpn081</title>
			</path>
			<rect x="0" y="8478" width="0" height="0"/>
			<path d="M0,8478L0,8478" tabindex="0">
				<title>60:01.46 on 2023-07-26</title>
			</path>
			<line x1="0" y1="8478" x2="236" y2="8478"/>
			<line x1="0" y1="368624" x2="0" y2="0"/>
		</g>
		<g style="--index: 1;">
			<path d="M4,0L209,0L209,175037" tabindex="0">
				<title>7dg65oxk-r8r1zm0n.5q89kv31</title>
			</path>
			<rect x="4" y="0" width="205" height="175037"/>
			<path d="M4,0L4,0" tabindex="0">
				<title>61:26.24 on 2023-07-30</title>
			</path>
			<line x1="0" y1="0" x2="236" y2="0"/>
			<line x1="4" y1="368624" x2="4" y2="0"/>
			<path d="M209,175037L209,175037" tabindex="0">
				<title>32:15.87 on 2024-02-20</title>
			</path>
			<line x1="0" y1="175037" x2="236" y2="175037"/>
			<line x1="209" y1="368624" x2="209" y2="0"/>
		</g>
		<g style="--index: 2;">
			<path d="M30,362211L37,362211L37,363400" tabindex="0">
				<title>rkl9qwrk-6njkg4el.lr3x560l</title>
			</path>
			<rect x="30" y="362211" width="7" height="1189"/>
			<path d="M30,362211L30,362211" tabindex="0">
				<title>01:04.13 on 2023-08-25</title>
			</path>
			<line x1="0" y1="362211" x2="236" y2="362211"/>
			<line x1="30" y1="368624" x2="30" y2="0"/>
			<path d="M37,363400L37,363400" tabindex="0">
				<title>00:52.24 on 2023-09-01</title>
			</path>
			<line x1="0" y1="363400" x2="236" y2="363400"/>
			<line x1="37" y1="368624" x2="37" y2="0"/>
		</g>
		<g style="--index: 3;">
			<path d="M30,366515" tabindex="0">
				<title>9kv6l5e2-ql6rezjl.1dk62o3l</title>
			</path>
			<rect x="30" y="366515" width="0" height="0"/>
			<path d="M30,366515L30,366515" tabindex="0">
				<title>00:21.09 on 2023-08-25</title>
			</path>
			<line x1="0" y1="366515" x2="236" y2="366515"/>
			<line x1="30" y1="368624" x2="30" y2="0"/>
		</g>
		<g style="--index: 4;">
			<path d="M33,89259L195,89259L195,134116" tabindex="0">
				<title>xd1v018d-68k7x44l.mlno8vjq</title>
			</path>
			<rect x="33" y="89259" width="162" height="44857"/>
			<path d="M33,89259L33,89259" tabindex="0">
				<title>46:33.65 on 2023-08-28</title>
			</path>
			<line x1="0" y1="89259" x2="236" y2="89259"/>
			<line x1="33" y1="368624" x2="33" y2="0"/>
			<path d="M195,134116L195,134116" tabindex="0">
				<title>39:05.08 on 2024-02-06</title>
			</path>
			<line x1="0" y1="134116" x2="236" y2="134116"/>
			<line x1="195" y1="368624" x2="195" y2="0"/>
		</g>
		<g style="--index: 5;">
			<path d="M37,334217L141,334217L141,338760L143,338760L143,343814L144,343814L144,344084" tabindex="0">
				<title>l_gdr5onk9-rkl3znrk-rn1g06dn.qj77o50q</title>
			</path>
			<rect x="37" y="334217" width="107" height="9867"/>
			<path d="M37,334217L37,334217" tabindex="0">
				<title>05:44.07 on 2023-09-01</title>
			</path>
			<line x1="0" y1="334217" x2="236" y2="334217"/>
			<line x1="37" y1="368624" x2="37" y2="0"/>
			<path d="M141,338760L141,338760" tabindex="0">
				<title>04:58.64 on 2023-12-14</title>
			</path>
			<line x1="0" y1="338760" x2="236" y2="338760"/>
			<line x1="141" y1="368624" x2="141" y2="0"/>
			<path d="M143,343814L143,343814" tabindex="0">
				<title>04:08.10 on 2023-12-16</title>
			</path>
			<line x1="0" y1="343814" x2="236" y2="343814"/>
			<line x1="143" y1="368624" x2="143" y2="0"/>
			<path d="M144,344084L144,344084" tabindex="0">
				<title>04:05.40 on 2023-12-17</title>
			</path>
			<line x1="0" y1="344084" x2="236" y2="344084"/>
			<line x1="144" y1="368624" x2="144" y2="0"/>
		</g>
		<g style="--index: 6;">
			<path d="M37,342451" tabindex="0">
				<title>l_xd0mnpjw-rkl3znrk-wley4prn.192xe54q</title>
			</path>
			<rect x="37" y="342451" width="0" height="0"/>
			<path d="M37,342451L37,342451" tabindex="0">
				<title>04:21.73 on 2023-09-01</title>
			</path>
			<line x1="0" y1="342451" x2="236" y2="342451"/>
			<line x1="37" y1="368624" x2="37" y2="0"/>
		</g>
		<g style="--index: 7;">
			<path d="M76,332356L139,332356L139,334707L140,334707L140,335378L143,335378L143,338806" tabindex="0">
				<title>l_gdr5onk9-rkl3znrk-rn1g06dn.lmooe9y1</title>
			</path>
			<rect x="76" y="332356" width="67" height="6450"/>
			<path d="M76,332356L76,332356" tabindex="0">
				<title>06:02.68 on 2023-10-10</title>
			</path>
			<line x1="0" y1="332356" x2="236" y2="332356"/>
			<line x1="76" y1="368624" x2="76" y2="0"/>
			<path d="M139,334707L139,334707" tabindex="0">
				<title>05:39.17 on 2023-12-12</title>
			</path>
			<line x1="0" y1="334707" x2="236" y2="334707"/>
			<line x1="139" y1="368624" x2="139" y2="0"/>
			<path d="M140,335378L140,335378" tabindex="0">
				<title>05:32.46 on 2023-12-13</title>
			</path>
			<line x1="0" y1="335378" x2="236" y2="335378"/>
			<line x1="140" y1="368624" x2="140" y2="0"/>
			<path d="M143,338806L143,338806" tabindex="0">
				<title>04:58.18 on 2023-12-16</title>
			</path>
			<line x1="0" y1="338806" x2="236" y2="338806"/>
			<line x1="143" y1="368624" x2="143" y2="0"/>
		</g>
		<g style="--index: 8;">
			<path d="M76,315104L140,315104L140,328867L143,328867L143,330825" tabindex="0">
				<title>l_gdr5onk9-rkl3znrk-rn1g06dn.q655wjnl</title>
			</path>
			<rect x="76" y="315104" width="67" height="15721"/>
			<path d="M76,315104L76,315104" tabindex="0">
				<title>08:55.20 on 2023-10-10</title>
			</path>
			<line x1="0" y1="315104" x2="236" y2="315104"/>
			<line x1="76" y1="368624" x2="76" y2="0"/>
			<path d="M140,328867L140,328867" tabindex="0">
				<title>06:37.57 on 2023-12-13</title>
			</path>
			<line x1="0" y1="328867" x2="236" y2="328867"/>
			<line x1="140" y1="368624" x2="140" y2="0"/>
			<path d="M143,330825L143,330825" tabindex="0">
				<title>06:17.99 on 2023-12-16</title>
			</path>
			<line x1="0" y1="330825" x2="236" y2="330825"/>
			<line x1="143" y1="368624" x2="143" y2="0"/>
		</g>
		<g style="--index: 9;">
			<path d="M76,364652" tabindex="0">
				<title>l_r9gnozkd-rkl3znrk-wledz9en.jq606z3q</title>
			</path>
			<rect x="76" y="364652" width="0" height="0"/>
			<path d="M76,364652L76,364652" tabindex="0">
				<title>00:39.72 on 2023-10-10</title>
			</path>
			<line x1="0" y1="364652" x2="236" y2="364652"/>
			<line x1="76" y1="368624" x2="76" y2="0"/>
		</g>
		<g style="--index: 10;">
			<path d="M85,364643L142,364643L142,366465" tabindex="0">
				<title>l_r9gnozkd-rkl3znrk-wledz9en.rqvp5e7q</title>
			</path>
			<rect x="85" y="364643" width="57" height="1822"/>
			<path d="M85,364643L85,364643" tabindex="0">
				<title>00:39.81 on 2023-10-19</title>
			</path>
			<line x1="0" y1="364643" x2="236" y2="364643"/>
			<line x1="85" y1="368624" x2="85" y2="0"/>
			<path d="M142,366465L142,366465" tabindex="0">
				<title>00:21.59 on 2023-12-15</title>
			</path>
			<line x1="0" y1="366465" x2="236" y2="366465"/>
			<line x1="142" y1="368624" x2="142" y2="0"/>
		</g>
		<g style="--index: 11;">
			<path d="M88,365192" tabindex="0">
				<title>l_ldykv1zw-rkl3znrk-wl3059ol.4qypgj4q</title>
			</path>
			<rect x="88" y="365192" width="0" height="0"/>
			<path d="M88,365192L88,365192" tabindex="0">
				<title>00:34.32 on 2023-10-22</title>
			</path>
			<line x1="0" y1="365192" x2="236" y2="365192"/>
			<line x1="88" y1="368624" x2="88" y2="0"/>
		</g>
		<g style="--index: 12;">
			<path d="M88,364774" tabindex="0">
				<title>l_ldykv1zw-rkl3znrk-wl3059ol.mlnwjz0l</title>
			</path>
			<rect x="88" y="364774" width="0" height="0"/>
			<path d="M88,364774L88,364774" tabindex="0">
				<title>00:38.50 on 2023-10-22</title>
			</path>
			<line x1="0" y1="364774" x2="236" y2="364774"/>
			<line x1="88" y1="368624" x2="88" y2="0"/>
		</g>
		<g style="--index: 13;">
			<path d="M94,365858" tabindex="0">
				<title>l_ldykv1zw-rkl3znrk-wl3059ol.810zkwwq</title>
			</path>
			<rect x="94" y="365858" width="0" height="0"/>
			<path d="M94,365858L94,365858" tabindex="0">
				<title>00:27.66 on 2023-10-28</title>
			</path>
			<line x1="0" y1="365858" x2="236" y2="365858"/>
			<line x1="94" y1="368624" x2="94" y2="0"/>
		</g>
		<g style="--index: 14;">
			<path d="M97,362893" tabindex="0">
				<title>l_ldykv1zw-rkl3znrk-wl3059ol.9qj0kxel</title>
			</path>
			<rect x="97" y="362893" width="0" height="0"/>
			<path d="M97,362893L97,362893" tabindex="0">
				<title>00:57.31 on 2023-10-31</title>
			</path>
			<line x1="0" y1="362893" x2="236" y2="362893"/>
			<line x1="97" y1="368624" x2="97" y2="0"/>
		</g>
		<g style="--index: 15;">
			<path d="M100,367609L195,367609L195,367738" tabindex="0">
				<title>l_r9gn1qpd-9d8eewld-0nwoqwkl.jqzpx3gl</title>
			</path>
			<rect x="100" y="367609" width="95" height="129"/>
			<path d="M100,367609L100,367609" tabindex="0">
				<title>00:10.15 on 2023-11-03</title>
			</path>
			<line x1="0" y1="367609" x2="236" y2="367609"/>
			<line x1="100" y1="368624" x2="100" y2="0"/>
			<path d="M195,367738L195,367738" tabindex="0">
				<title>00:08.86 on 2024-02-06</title>
			</path>
			<line x1="0" y1="367738" x2="236" y2="367738"/>
			<line x1="195" y1="368624" x2="195" y2="0"/>
		</g>
		<g style="--index: 16;">
			<path d="M136,366970L195,366970L195,367037" tabindex="0">
				<title>l_r9gn1qpd-9d8eewld-0nwoqwkl.21g82pnl</title>
			</path>
			<rect x="136" y="366970" width="59" height="67"/>
			<path d="M136,366970L136,366970" tabindex="0">
				<title>00:16.54 on 2023-12-09</title>
			</path>
			<line x1="0" y1="366970" x2="236" y2="366970"/>
			<line x1="136" y1="368624" x2="136" y2="0"/>
			<path d="M195,367037L195,367037" tabindex="0">
				<title>00:15.87 on 2024-02-06</title>
			</path>
			<line x1="0" y1="367037" x2="236" y2="367037"/>
			<line x1="195" y1="368624" x2="195" y2="0"/>
		</g>
		<g style="--index: 17;">
			<path d="M136,348169L200,348169L200,348837L232,348837L232,351156L236,351156L236,351410" tabindex="0">
				<title>l_r9gn1qpd-9kv66g32-onv7r45n.810zdxoq</title>
			</path>
			<rect x="136" y="348169" width="100" height="3241"/>
			<path d="M136,348169L136,348169" tabindex="0">
				<title>03:24.55 on 2023-12-09</title>
			</path>
			<line x1="0" y1="348169" x2="236" y2="348169"/>
			<line x1="136" y1="368624" x2="136" y2="0"/>
			<path d="M200,348837L200,348837" tabindex="0">
				<title>03:17.87 on 2024-02-11</title>
			</path>
			<line x1="0" y1="348837" x2="236" y2="348837"/>
			<line x1="200" y1="368624" x2="200" y2="0"/>
			<path d="M232,351156L232,351156" tabindex="0">
				<title>02:54.68 on 2024-03-14</title>
			</path>
			<line x1="0" y1="351156" x2="236" y2="351156"/>
			<line x1="232" y1="368624" x2="232" y2="0"/>
			<path d="M236,351410L236,351410" tabindex="0">
				<title>02:52.14 on 2024-03-18</title>
			</path>
			<line x1="0" y1="351410" x2="236" y2="351410"/>
			<line x1="236" y1="368624" x2="236" y2="0"/>
		</g>
		<g style="--index: 18;">
			<path d="M136,350942L150,350942L150,355433" tabindex="0">
				<title>l_r9gn1qpd-9d8eewld-0nwoqwkl.gq7jrxvq</title>
			</path>
			<rect x="136" y="350942" width="14" height="4491"/>
			<path d="M136,350942L136,350942" tabindex="0">
				<title>02:56.82 on 2023-12-09</title>
			</path>
			<line x1="0" y1="350942" x2="236" y2="350942"/>
			<line x1="136" y1="368624" x2="136" y2="0"/>
			<path d="M150,355433L150,355433" tabindex="0">
				<title>02:11.91 on 2023-12-23</title>
			</path>
			<line x1="0" y1="355433" x2="236" y2="355433"/>
			<line x1="150" y1="368624" x2="150" y2="0"/>
		</g>
		<g style="--index: 19;">
			<path d="M136,367037L195,367037L195,367236" tabindex="0">
				<title>l_r9gn1qpd-9d8eewld-0nwoqwkl.xqkjmxnl</title>
			</path>
			<rect x="136" y="367037" width="59" height="199"/>
			<path d="M136,367037L136,367037" tabindex="0">
				<title>00:15.87 on 2023-12-09</title>
			</path>
			<line x1="0" y1="367037" x2="236" y2="367037"/>
			<line x1="136" y1="368624" x2="136" y2="0"/>
			<path d="M195,367236L195,367236" tabindex="0">
				<title>00:13.88 on 2024-02-06</title>
			</path>
			<line x1="0" y1="367236" x2="236" y2="367236"/>
			<line x1="195" y1="368624" x2="195" y2="0"/>
		</g>
		<g style="--index: 20;">
			<path d="M136,362984L152,362984L152,363680" tabindex="0">
				<title>l_r9gn1qpd-9d8eewld-0nwoqwkl.klr25nj1</title>
			</path>
			<rect x="136" y="362984" width="16" height="696"/>
			<path d="M136,362984L136,362984" tabindex="0">
				<title>00:56.40 on 2023-12-09</title>
			</path>
			<line x1="0" y1="362984" x2="236" y2="362984"/>
			<line x1="136" y1="368624" x2="136" y2="0"/>
			<path d="M152,363680L152,363680" tabindex="0">
				<title>00:49.44 on 2023-12-25</title>
			</path>
			<line x1="0" y1="363680" x2="236" y2="363680"/>
			<line x1="152" y1="368624" x2="152" y2="0"/>
		</g>
		<g style="--index: 21;">
			<path d="M136,366703L213,366703L213,367057" tabindex="0">
				<title>l_r9gn1qpd-9d8eewld-0nwoqwkl.klrpy2jq</title>
			</path>
			<rect x="136" y="366703" width="77" height="354"/>
			<path d="M136,366703L136,366703" tabindex="0">
				<title>00:19.21 on 2023-12-09</title>
			</path>
			<line x1="0" y1="366703" x2="236" y2="366703"/>
			<line x1="136" y1="368624" x2="136" y2="0"/>
			<path d="M213,367057L213,367057" tabindex="0">
				<title>00:15.67 on 2024-02-24</title>
			</path>
			<line x1="0" y1="367057" x2="236" y2="367057"/>
			<line x1="213" y1="368624" x2="213" y2="0"/>
		</g>
		<g style="--index: 22;">
			<path d="M136,367059L196,367059L196,367605" tabindex="0">
				<title>l_r9gn1qpd-9d8eewld-0nwoqwkl.81ppdgg1</title>
			</path>
			<rect x="136" y="367059" width="60" height="546"/>
			<path d="M136,367059L136,367059" tabindex="0">
				<title>00:15.65 on 2023-12-09</title>
			</path>
			<line x1="0" y1="367059" x2="236" y2="367059"/>
			<line x1="136" y1="368624" x2="136" y2="0"/>
			<path d="M196,367605L196,367605" tabindex="0">
				<title>00:10.19 on 2024-02-07</title>
			</path>
			<line x1="0" y1="367605" x2="236" y2="367605"/>
			<line x1="196" y1="368624" x2="196" y2="0"/>
		</g>
		<g style="--index: 23;">
			<path d="M136,366783L194,366783L194,366917" tabindex="0">
				<title>l_r9gn1qpd-9d8eewld-0nwoqwkl.21dz3e4l</title>
			</path>
			<rect x="136" y="366783" width="58" height="134"/>
			<path d="M136,366783L136,366783" tabindex="0">
				<title>00:18.41 on 2023-12-09</title>
			</path>
			<line x1="0" y1="366783" x2="236" y2="366783"/>
			<line x1="136" y1="368624" x2="136" y2="0"/>
			<path d="M194,366917L194,366917" tabindex="0">
				<title>00:17.07 on 2024-02-05</title>
			</path>
			<line x1="0" y1="366917" x2="236" y2="366917"/>
			<line x1="194" y1="368624" x2="194" y2="0"/>
		</g>
		<g style="--index: 24;">
			<path d="M136,364351" tabindex="0">
				<title>l_r9gnozkd-rkl3znrk-wledz9en.zqop6rp1</title>
			</path>
			<rect x="136" y="364351" width="0" height="0"/>
			<path d="M136,364351L136,364351" tabindex="0">
				<title>00:42.73 on 2023-12-09</title>
			</path>
			<line x1="0" y1="364351" x2="236" y2="364351"/>
			<line x1="136" y1="368624" x2="136" y2="0"/>
		</g>
		<g style="--index: 25;">
			<path d="M136,363862" tabindex="0">
				<title>l_r9gnozkd-rkl3znrk-wledz9en.0138n5dq</title>
			</path>
			<rect x="136" y="363862" width="0" height="0"/>
			<path d="M136,363862L136,363862" tabindex="0">
				<title>00:47.62 on 2023-12-09</title>
			</path>
			<line x1="0" y1="363862" x2="236" y2="363862"/>
			<line x1="136" y1="368624" x2="136" y2="0"/>
		</g>
		<g style="--index: 26;">
			<path d="M138,352262L236,352262L236,356095" tabindex="0">
				<title>l_r9gn1qpd-9kv66g32-onv7r45n.9qj08g7l</title>
			</path>
			<rect x="138" y="352262" width="98" height="3833"/>
			<path d="M138,352262L138,352262" tabindex="0">
				<title>02:43.62 on 2023-12-11</title>
			</path>
			<line x1="0" y1="352262" x2="236" y2="352262"/>
			<line x1="138" y1="368624" x2="138" y2="0"/>
			<path d="M236,356095L236,356095" tabindex="0">
				<title>02:05.29 on 2024-03-18</title>
			</path>
			<line x1="0" y1="356095" x2="236" y2="356095"/>
			<line x1="236" y1="368624" x2="236" y2="0"/>
		</g>
		<g style="--index: 27;">
			<path d="M138,358155L196,358155L196,360519L197,360519L197,360693" tabindex="0">
				<title>l_r9gn1qpd-xd144xzd-38dz6v1n.q755eky1</title>
			</path>
			<rect x="138" y="358155" width="59" height="2538"/>
			<path d="M138,358155L138,358155" tabindex="0">
				<title>01:44.69 on 2023-12-11</title>
			</path>
			<line x1="0" y1="358155" x2="236" y2="358155"/>
			<line x1="138" y1="368624" x2="138" y2="0"/>
			<path d="M196,360519L196,360519" tabindex="0">
				<title>01:21.05 on 2024-02-07</title>
			</path>
			<line x1="0" y1="360519" x2="236" y2="360519"/>
			<line x1="196" y1="368624" x2="196" y2="0"/>
			<path d="M197,360693L197,360693" tabindex="0">
				<title>01:19.31 on 2024-02-08</title>
			</path>
			<line x1="0" y1="360693" x2="236" y2="360693"/>
			<line x1="197" y1="368624" x2="197" y2="0"/>
		</g>
		<g style="--index: 28;">
			<path d="M138,344142L199,344142L199,344335L236,344335L236,345659" tabindex="0">
				<title>l_r9gn1qpd-xd144xwd</title>
			</path>
			<rect x="138" y="344142" width="98" height="1517"/>
			<path d="M138,344142L138,344142" tabindex="0">
				<title>04:04.82 on 2023-12-11</title>
			</path>
			<line x1="0" y1="344142" x2="236" y2="344142"/>
			<line x1="138" y1="368624" x2="138" y2="0"/>
			<path d="M199,344335L199,344335" tabindex="0">
				<title>04:02.89 on 2024-02-10</title>
			</path>
			<line x1="0" y1="344335" x2="236" y2="344335"/>
			<line x1="199" y1="368624" x2="199" y2="0"/>
			<path d="M236,345659L236,345659" tabindex="0">
				<title>03:49.65 on 2024-03-18</title>
			</path>
			<line x1="0" y1="345659" x2="236" y2="345659"/>
			<line x1="236" y1="368624" x2="236" y2="0"/>
		</g>
		<g style="--index: 29;">
			<path d="M138,334141L197,334141L197,339723L210,339723L210,341468" tabindex="0">
				<title>l_r9gn1qpd-xd144xzd-38dz6v1n.z19md2jl</title>
			</path>
			<rect x="138" y="334141" width="72" height="7327"/>
			<path d="M138,334141L138,334141" tabindex="0">
				<title>05:44.83 on 2023-12-11</title>
			</path>
			<line x1="0" y1="334141" x2="236" y2="334141"/>
			<line x1="138" y1="368624" x2="138" y2="0"/>
			<path d="M197,339723L197,339723" tabindex="0">
				<title>04:49.01 on 2024-02-08</title>
			</path>
			<line x1="0" y1="339723" x2="236" y2="339723"/>
			<line x1="197" y1="368624" x2="197" y2="0"/>
			<path d="M210,341468L210,341468" tabindex="0">
				<title>04:31.56 on 2024-02-21</title>
			</path>
			<line x1="0" y1="341468" x2="236" y2="341468"/>
			<line x1="210" y1="368624" x2="210" y2="0"/>
		</g>
		<g style="--index: 30;">
			<path d="M138,362013" tabindex="0">
				<title>l_r9gnozkd-rkl3znrk-wledz9en.z19mo80l</title>
			</path>
			<rect x="138" y="362013" width="0" height="0"/>
			<path d="M138,362013L138,362013" tabindex="0">
				<title>01:06.11 on 2023-12-11</title>
			</path>
			<line x1="0" y1="362013" x2="236" y2="362013"/>
			<line x1="138" y1="368624" x2="138" y2="0"/>
		</g>
		<g style="--index: 31;">
			<path d="M141,365950L164,365950L164,366265" tabindex="0">
				<title>l_ldykv1zw-rkl3znrk-wl3059ol.qvv4er7q</title>
			</path>
			<rect x="141" y="365950" width="23" height="315"/>
			<path d="M141,365950L141,365950" tabindex="0">
				<title>00:26.74 on 2023-12-14</title>
			</path>
			<line x1="0" y1="365950" x2="236" y2="365950"/>
			<line x1="141" y1="368624" x2="141" y2="0"/>
			<path d="M164,366265L164,366265" tabindex="0">
				<title>00:23.59 on 2024-01-06</title>
			</path>
			<line x1="0" y1="366265" x2="236" y2="366265"/>
			<line x1="164" y1="368624" x2="164" y2="0"/>
		</g>
		<g style="--index: 32;">
			<path d="M142,365220L164,365220L164,365281" tabindex="0">
				<title>l_ldykv1zw-rkl3znrk-wl3059ol.lx5xe821</title>
			</path>
			<rect x="142" y="365220" width="22" height="61"/>
			<path d="M142,365220L142,365220" tabindex="0">
				<title>00:34.04 on 2023-12-15</title>
			</path>
			<line x1="0" y1="365220" x2="236" y2="365220"/>
			<line x1="142" y1="368624" x2="142" y2="0"/>
			<path d="M164,365281L164,365281" tabindex="0">
				<title>00:33.43 on 2024-01-06</title>
			</path>
			<line x1="0" y1="365281" x2="236" y2="365281"/>
			<line x1="164" y1="368624" x2="164" y2="0"/>
		</g>
		<g style="--index: 33;">
			<path d="M142,367087L164,367087L164,367159" tabindex="0">
				<title>l_ldykv1zw-rkl3znrk-wl3059ol.q5vog5ml</title>
			</path>
			<rect x="142" y="367087" width="22" height="72"/>
			<path d="M142,367087L142,367087" tabindex="0">
				<title>00:15.37 on 2023-12-15</title>
			</path>
			<line x1="0" y1="367087" x2="236" y2="367087"/>
			<line x1="142" y1="368624" x2="142" y2="0"/>
			<path d="M164,367159L164,367159" tabindex="0">
				<title>00:14.65 on 2024-01-06</title>
			</path>
			<line x1="0" y1="367159" x2="236" y2="367159"/>
			<line x1="164" y1="368624" x2="164" y2="0"/>
		</g>
		<g style="--index: 34;">
			<path d="M142,365213L164,365213L164,365377" tabindex="0">
				<title>l_ldykv1zw-rkl3znrk-wl3059ol.le2km45l</title>
			</path>
			<rect x="142" y="365213" width="22" height="164"/>
			<path d="M142,365213L142,365213" tabindex="0">
				<title>00:34.11 on 2023-12-15</title>
			</path>
			<line x1="0" y1="365213" x2="236" y2="365213"/>
			<line x1="142" y1="368624" x2="142" y2="0"/>
			<path d="M164,365377L164,365377" tabindex="0">
				<title>00:32.47 on 2024-01-06</title>
			</path>
			<line x1="0" y1="365377" x2="236" y2="365377"/>
			<line x1="164" y1="368624" x2="164" y2="0"/>
		</g>
		<g style="--index: 35;">
			<path d="M221,353221" tabindex="0">
				<title>l_o9xo3rp9-9d8eewld-7896y468.5lmkgmjq</title>
			</path>
			<rect x="221" y="353221" width="0" height="0"/>
			<path d="M221,353221L221,353221" tabindex="0">
				<title>02:34.03 on 2024-03-03</title>
			</path>
			<line x1="0" y1="353221" x2="236" y2="353221"/>
			<line x1="221" y1="368624" x2="221" y2="0"/>
		</g>
		<g style="--index: 36;">
			<path d="M221,357502" tabindex="0">
				<title>l_o9xo3rp9-9d8eewld-7896y468.4qywn341</title>
			</path>
			<rect x="221" y="357502" width="0" height="0"/>
			<path d="M221,357502L221,357502" tabindex="0">
				<title>01:51.22 on 2024-03-03</title>
			</path>
			<line x1="0" y1="357502" x2="236" y2="357502"/>
			<line x1="221" y1="368624" x2="221" y2="0"/>
		</g>
		<g style="--index: 37;">
			<path d="M222,366698" tabindex="0">
				<title>l_o9xo3rp9-9d8eewld-7896y468.5lermx5q</title>
			</path>
			<rect x="222" y="366698" width="0" height="0"/>
			<path d="M222,366698L222,366698" tabindex="0">
				<title>00:19.26 on 2024-03-04</title>
			</path>
			<line x1="0" y1="366698" x2="236" y2="366698"/>
			<line x1="222" y1="368624" x2="222" y2="0"/>
		</g>
		<g style="--index: 38;">
			<path d="M222,366723" tabindex="0">
				<title>l_o9xo3rp9-9d8eewld-7896y468.9qj0x8el</title>
			</path>
			<rect x="222" y="366723" width="0" height="0"/>
			<path d="M222,366723L222,366723" tabindex="0">
				<title>00:19.01 on 2024-03-04</title>
			</path>
			<line x1="0" y1="366723" x2="236" y2="366723"/>
			<line x1="222" y1="368624" x2="222" y2="0"/>
		</g>
		<g style="--index: 39;">
			<path d="M222,366513" tabindex="0">
				<title>l_o9xo3rp9-9d8eewld-7896y468.81wp50oq</title>
			</path>
			<rect x="222" y="366513" width="0" height="0"/>
			<path d="M222,366513L222,366513" tabindex="0">
				<title>00:21.11 on 2024-03-04</title>
			</path>
			<line x1="0" y1="366513" x2="236" y2="366513"/>
			<line x1="222" y1="368624" x2="222" y2="0"/>
		</g>
		<g style="--index: 40;">
			<path d="M222,366936" tabindex="0">
				<title>l_o9xo3rp9-9d8eewld-7896y468.jq60ze3q</title>
			</path>
			<rect x="222" y="366936" width="0" height="0"/>
			<path d="M222,366936L222,366936" tabindex="0">
				<title>00:16.88 on 2024-03-04</title>
			</path>
			<line x1="0" y1="366936" x2="236" y2="366936"/>
			<line x1="222" y1="368624" x2="222" y2="0"/>
		</g>
		<g style="--index: 41;">
			<path d="M222,367780" tabindex="0">
				<title>l_o9xo3rp9-9d8eewld-7896y468.013856dq</title>
			</path>
			<rect x="222" y="367780" width="0" height="0"/>
			<path d="M222,367780L222,367780" tabindex="0">
				<title>00:08.44 on 2024-03-04</title>
			</path>
			<line x1="0" y1="367780" x2="236" y2="367780"/>
			<line x1="222" y1="368624" x2="222" y2="0"/>
		</g>
		<g style="--index: 42;">
			<path d="M222,366997" tabindex="0">
				<title>l_o9xo3rp9-9d8eewld-7896y468.rqvpey7q</title>
			</path>
			<rect x="222" y="366997" width="0" height="0"/>
			<path d="M222,366997L222,366997" tabindex="0">
				<title>00:16.27 on 2024-03-04</title>
			</path>
			<line x1="0" y1="366997" x2="236" y2="366997"/>
			<line x1="222" y1="368624" x2="222" y2="0"/>
		</g>
	</g>
</svg>
