<svg xmlns="http://www.w3.org/2000/svg" viewBox="0 0 180 5399" preserveAspectRatio="none" lang="en" style="color-scheme: dark light;">
		<title>Time by leaderboard for player e8e935oj</title>
		<style>
			svg {
				background: var(--canvas-background);
				fill: var(--canvas-background);
				stroke: var(--canvas-foreground);
				stroke-linejoin: round;
				stroke-linecap: round;
			}
			g &gt; path[tabindex] {
				vector-effect: non-scaling-stroke;
				fill: none;
				stroke: hsl(calc(var(--index) / var(--count) * 360), 50%, 50%);
				cursor: help;
			}
			g:is(:hover, :focus-within) &gt; path[tabindex] {
				stroke: var(--canvas-foreground);
			}
			g &gt; path[tabindex]:is(:hover, :focus-within) {
				outline: 0;
			}
			g &gt; path[tabindex]:first-of-type {
				stroke-width: 2;
			}
			g &gt; path[tabindex]:first-of-type:is(:hover, :focus-within) {
				stroke-width: 4;
			}
			g &gt; path[tabindex]:first-of-type:not(:last-of-type) {
				stroke-dasharray: 4 8;
			}
			g &gt; rect {
				vector-effect: non-scaling-stroke;
				fill: none;
				stroke: none;
				pointer-events: none;
			}
			g &gt; path[tabindex]:first-of-type:is(:hover, :focus-within) + rect {
				fill: var(--highlighted);
			}
			g &gt; path[tabindex]:first-of-type ~ path[tabindex] {
				stroke-width: 8;
			}
			g &gt; path[tabindex]:first-of-type ~ path[tabindex]:is(:hover, :focus-within) {
				stroke-width: 16;
			}
			g &gt; line {
				vector-effect: non-scaling-stroke;
				fill: none;
				stroke: none;
				stroke-width: 2;
				stroke-dasharray: 4 8;
				pointer-events: none;
			}
			g &gt; path[tabindex]:first-of-type:is(:hover, :focus-within) + rect + path[tabindex] + line,
			g &gt; path[tabindex]:first-of-type:is(:hover, :focus-within) + rect + path[tabindex] + line + line,
			g &gt; path[tabindex]:first-of-type:is(:hover, :focus-within) ~ path[tabindex]:last-of-type + line,
			g &gt; path[tabindex]:first-of-type:is(:hover, :focus-within) ~ path[tabindex]:last-of-type + line + line,
			g &gt; path[tabindex]:first-of-type ~ path[tabindex]:is(:hover, :focus-within) + line,
			g &gt; path[tabindex]:first-of-type ~ path[tabindex]:is(:hover, :focus-within) + line + line {
				stroke: var(--faded);
			}
			@media (prefers-color-scheme: dark) {
				:root {
					--canvas-background: #000;
					--canvas-foreground: #ccc;
					--highlighted: #6663;
					--faded: #9993;
				}
			}
			@media (prefers-color-scheme: light) {
				:root {
					--canvas-background: #fff;
					--canvas-foreground: #333;
					--highlighted: #9993;
					--faded: #6663;
				}
			}
		</style>
		<g style="--count: 5;">
		<g style="--index: 0;">
			<path d="M0,4460" tabindex="0">
				<title>l_o9xo3rp9-9d8eewld-7896y468.013856dq</title>
			</path>
			<rect x="0" y="4460" width="0" height="0"/>
			<path d="M0,4460L0,4460" tabindex="0">
				<title>00:09.39 on 2018-01-09</title>
			</path>
			<line x1="0" y1="4460" x2="180" y2="4460"/>
			<line x1="0" y1="5399" x2="0" y2="0"/>
		</g>
		<g style="--index: 1;">
			<path d="M82,4373L94,4373L94,4413" tabindex="0">
				<title>l_r9gn1qpd-9d8eewld-0nwoqwkl.81ppdgg1</title>
			</path>
			<rect x="82" y="4373" width="12" height="40"/>
			<path d="M82,4373L82,4373" tabindex="0">
				<title>00:10.26 on 2018-04-01</title>
			</path>
			<line x1="0" y1="4373" x2="180" y2="4373"/>
			<line x1="82" y1="5399" x2="82" y2="0"/>
			<path d="M94,4413L94,4413" tabindex="0">
				<title>00:09.86 on 2018-04-13</title>
			</path>
			<line x1="0" y1="4413" x2="180" y2="4413"/>
			<line x1="94" y1="5399" x2="94" y2="0"/>
		</g>
		<g style="--index: 2;">
			<path d="M93,3607" tabindex="0">
				<title>l_r9gn1qpd-9d8eewld-0nwoqwkl.xqkjmxnl</title>
			</path>
			<rect x="93" y="3607" width="0" height="0"/>
			<path d="M93,3607L93,3607" tabindex="0">
				<title>00:17.92 on 2018-04-12</title>
			</path>
			<line x1="0" y1="3607" x2="180" y2="3607"/>
			<line x1="93" y1="5399" x2="93" y2="0"/>
		</g>
		<g style="--index: 3;">
			<path d="M93,0L94,0L94,189L174,189L174,490" tabindex="0">
				<title>l_r9gn1qpd-9d8eewld-0nwoqwkl.p12dx87q</title>
			</path>
			<rect x="93" y="0" width="81" height="490"/>
			<path d="M93,0L93,0" tabindex="0">
				<title>00:53.99 on 2018-04-12</title>
			</path>
			<line x1="0" y1="0" x2="180" y2="0"/>
			<line x1="93" y1="5399" x2="93" y2="0"/>
			<path d="M94,189L94,189" tabindex="0">
				<title>00:52.10 on 2018-04-13</title>
			</path>
			<line x1="0" y1="189" x2="180" y2="189"/>
			<line x1="94" y1="5399" x2="94" y2="0"/>
			<path d="M174,490L174,490" tabindex="0">
				<title>00:49.09 on 2018-07-02</title>
			</path>
			<line x1="0" y1="490" x2="180" y2="490"/>
			<line x1="174" y1="5399" x2="174" y2="0"/>
		</g>
		<g style="--index: 4;">
			<path d="M180,3287" tabindex="0">
				<title>l_r9gn1qpd-9d8eewld-0nwoqwkl.21dz3e4l</title>
			</path>
			<rect x="180" y="3287" width="0" height="0"/>
			<path d="M180,3287L180,3287" tabindex="0">
				<title>00:21.12 on 2018-07-08</title>
			</path>
			<line x1="0" y1="3287" x2="180" y2="3287"/>
			<line x1="180" y1="5399" x2="180" y2="0"/>
		</g>
	</g>
</svg>
