<svg xmlns="http://www.w3.org/2000/svg" viewBox="0 0 180 5399" preserveAspectRatio="none" lang="en" style="color-scheme: dark light;">
		<title>Time by leaderboard for player e8e935oj</title>
		<style>
			svg {
				background: var(--canvas-background);
				fill: var(--canvas-background);
				stroke: var(--canvas-foreground);
				stroke-linejoin: round;
				stroke-linecap: round;
			}
			g &gt; path[tabindex] {
				vector-effect: non-scaling-stroke;
				fill: none;
				stroke: hsl(calc(var(--index) / var(--count) * 360), 50%, 50%);
				cursor: help;
			}
			g:is(:hover, :focus-within) &gt; path[tabindex] {
				stroke: var(--canvas-foreground);
			}
			g &gt; path[tabindex]:is(:hover, :focus-within) {
				outline: 0;
			}
			g &gt; path[tabindex]:first-of-type {
				stroke-width: 2;
			}
			g &gt; path[tabindex]:first-of-type:is(:hover, :focus-within) {
				stroke-width: 4;
			}
			g &gt; path[tabindex]:first-of-type:not(:last-of-type) {
				stroke-dasharray: 4 8;
			}
			g &gt; rect {
				vector-effect: non-scaling-stroke;
				fill: none;
				stroke: none;
				pointer-events: none;
			}
			g &gt; path[tabindex]:first-of-type:is(:hover, :focus-within) + rect {
				fill: var(--highlighted);
			}
			g &gt; path[tabindex]:first-of-type ~ path[tabindex] {
				stroke-width: 8;
			}
			g &gt; path[tabindex]:first-of-type ~ path[tabindex]:is(:hover, :focus-within) {
				stroke-width: 16;
			}
			g &gt; line {
				vector-effect: non-scaling-stroke;
				fill: none;
				stroke: none;
				stroke-width: 2;
				stroke-dasharray: 4 8;
				pointer-events: none;
			}
			g &gt; path[tabindex]:first-of-type:is(:hover, :focus-within) + rect + path[tabindex] + line,
			g &gt; path[tabindex]:first-of-type:is(:hover, :focus-within) + rect + path[tabindex] + line + line,
			g &gt; path[tabindex]:first-of-type:is(:hover, :focus-within) ~ path[tabindex]:last-of-type + line,
			g &gt; path[tabindex]:first-of-type:is(:hover, :focus-within) ~ path[tabindex]:last-of-type + line + line,
			g &gt; path[tabindex]:first-of-type ~ path[tabindex]:is(:hover, :focus-within) + line,
			g &gt; path[tabindex]:first-of-type ~ path[tabindex]:is(:hover, :focus-within) + line + line {
				stroke: var(--faded);
			}
			@media (prefers-color-scheme: dark) {
				:root {
					--canvas-background: #000;
					--canvas-foreground: #ccc;
					--highlighted: #6663;
					--faded: #9993;
				}
			}
			@media (prefers-color-scheme: light) {
				:root {
					--canvas-background: #fff;
					--canvas-foreground: #333;
					--highlighted: #9993;
					--faded: #6663;
				}
			}
		</style>
		<g transform="scale(1 -1)" transform-origin="center center" style="--count: 5;">
		<g style="--index: 0;">
			<path d="M0,939" tabindex="0">
				<title>l_o9xo3rp9-9d8eewld-7896y468.013856dq</title>
			</path>
			<rect x="0" y="939" width="0" height="0"/>
			<path d="M0,939L0,939" tabindex="0">
				<title>00:09.39 on 2018-01-09</title>
			</path>
			<line x1="0" y1="939" x2="180" y2="939"/>
			<line x1="0" y1="0" x2="0" y2="5399"/>
		</g>
		<g style="--index: 1;">
			<path d="M82,1026L94,1026L94,986" tabindex="0">
				<title>l_r9gn1qpd-9d8eewld-0nwoqwkl.81ppdgg1</title>
			</path>
			<rect x="82" y="986" width="12" height="40"/>
			<path d="M82,1026L82,1026" tabindex="0">
				<title>00:10.26 on 2018-04-01</title>
			</path>
			<line x1="0" y1="1026" x2="180" y2="1026"/>
			<line x1="82" y1="0" x2="82" y2="5399"/>
			<path d="M94,986L94,986" tabindex="0">
				<title>00:09.86 on 2018-04-13</title>
			</path>
			<line x1="0" y1="986" x2="180" y2="986"/>
			<line x1="94" y1="0" x2="94" y2="5399"/>
		</g>
		<g style="--index: 2;">
			<path d="M93,1792" tabindex="0">
				<title>l_r9gn1qpd-9d8eewld-0nwoqwkl.xqkjmxnl</title>
			</path>
			<rect x="93" y="1792" width="0" height="0"/>
			<path d="M93,1792L93,1792" tabindex="0">
				<title>00:17.92 on 2018-04-12</title>
			</path>
			<line x1="0" y1="1792" x2="180" y2="1792"/>
			<line x1="93" y1="0" x2="93" y2="5399"/>
		</g>
		<g style="--index: 3;">
			<path d="M93,5399L94,5399L94,5210L174,5210L174,4909" tabindex="0">
				<title>l_r9gn1qpd-9d8eewld-0nwoqwkl.p12dx87q</title>
			</path>
			<rect x="93" y="4909" width="81" height="490"/>
			<path d="M93,5399L93,5399" tabindex="0">
				<title>00:53.99 on 2018-04-12</title>
			</path>
			<line x1="0" y1="5399" x2="180" y2="5399"/>
			<line x1="93" y1="0" x2="93" y2="5399"/>
			<path d="M94,5210L94,5210" tabindex="0">
				<title>00:52.10 on 2018-04-13</title>
			</path>
			<line x1="0" y1="5210" x2="180" y2="5210"/>
			<line x1="94" y1="0" x2="94" y2="5399"/>
			<path d="M174,4909L174,4909" tabindex="0">
				<title>00:49.09 on 2018-07-02</title>
			</path>
			<line x1="0" y1="4909" x2="180" y2="4909"/>
			<line x1="174" y1="0" x2="174" y2="5399"/>
		</g>
		<g style="--index: 4;">
			<path d="M180,2112" tabindex="0">
				<title>l_r9gn1qpd-9d8eewld-0nwoqwkl.21dz3e4l</title>
			</path>
			<rect x="180" y="2112" width="0" height="0"/>
			<path d="M180,2112L180,2112" tabindex="0">
				<title>00:21.12 on 2018-07-08</title>
			</path>
			<line x1="0" y1="2112" x2="180" y2="2112"/>
			<line x1="180" y1="0" x2="180" y2="5399"/>
		</g>
	</g>
</svg>
