<svg xmlns="http://www.w3.org/2000/svg" viewBox="0 0 331 196244" preserveAspectRatio="none" lang="en" style="color-scheme: dark light;">
		<title>Time by leaderboard for player j0grn39x</title>
		<style>
			svg {
				background: var(--canvas-background);
				fill: var(--canvas-background);
				stroke: var(--canvas-foreground);
				stroke-linejoin: round;
				stroke-linecap: round;
			}
			g &gt; path[tabindex] {
				vector-effect: non-scaling-stroke;
				fill: none;
				stroke: hsl(calc(var(--index) / var(--count) * 360), 50%, 50%);
				cursor: help;
			}
			g:is(:hover, :focus-within) &gt; path[tabindex] {
				stroke: var(--canvas-foreground);
			}
			g &gt; path[tabindex]:is(:hover, :focus-within) {
				outline: 0;
			}
			g &gt; path[tabindex]:first-of-type {
				stroke-width: 2;
			}
			g &gt; path[tabindex]:first-of-type:is(:hover, :focus-within) {
				stroke-width: 4;
			}
			g &gt; path[tabindex]:first-of-type:not(:last-of-type) {
				stroke-dasharray: 4 8;
			}
			g &gt; rect {
				vector-effect: non-scaling-stroke;
				fill: none;
				stroke: none;
				pointer-events: none;
			}
			g &gt; path[tabindex]:first-of-type:is(:hover, :focus-within) + rect {
				fill: var(--highlighted);
			}
			g &gt; path[tabindex]:first-of-type ~ path[tabindex] {
				stroke-width: 8;
			}
			g &gt; path[tabindex]:first-of-type ~ path[tabindex]:is(:hover, :focus-within) {
				stroke-width: 16;
			}
			g &gt; line {
				vector-effect: non-scaling-stroke;
				fill: none;
				stroke: none;
				stroke-width: 2;
				stroke-dasharray: 4 8;
				pointer-events: none;
			}
			g &gt; path[tabindex]:first-of-type:is(:hover, :focus-within) + rect + path[tabindex] + line,
			g &gt; path[tabindex]:first-of-type:is(:hover, :focus-within) + rect + path[tabindex] + line + line,
			g &gt; path[tabindex]:first-of-type:is(:hover, :focus-within) ~ path[tabindex]:last-of-type + line,
			g &gt; path[tabindex]:first-of-type:is(:hover, :focus-within) ~ path[tabindex]:last-of-type + line + line,
			g &gt; path[tabindex]:first-of-type ~ path[tabindex]:is(:hover, :focus-within) + line,
			g &gt; path[tabindex]:first-of-type ~ path[tabindex]:is(:hover, :focus-within) + line + line {
				stroke: var(--faded);
			}
			@media (prefers-color-scheme: dark) {
				:root {
					--canvas-background: #000;
					--canvas-foreground: #ccc;
					--highlighted: #6663;
					--faded: #9993;
				}
			}
			@media (prefers-color-scheme: light) {
				:root {
					--canvas-background: #fff;
					--canvas-foreground: #333;
					--highlighted: #9993;
					--faded: #6663;
				}
			}
		</style>
		<g style="--count: 9;">
		<g style="--index: 0;">
			<path d="M0,2932" tabindex="0">
				<title>xd17x94d-9l71pv4l.zqo20y2l</title>
			</path>
			<rect x="0" y="2932" width="0" height="0"/>
			<path d="M0,2932L0,2932" tabindex="0">
				<title>32:13.12 on 2022-07-20</title>
			</path>
			<line x1="0" y1="2932" x2="331" y2="2932"/>
			<line x1="0" y1="196244" x2="0" y2="0"/>
		</g>
		<g style="--index: 1;">
			<path d="M8,194945" tabindex="0">
				<title>l_r9gn1qpd-9d8eewld-0nwoqwkl.81ppdgg1</title>
			</path>
			<rect x="8" y="194945" width="0" height="0"/>
			<path d="M8,194945L8,194945" tabindex="0">
				<title>00:12.99 on 2022-07-28</title>
			</path>
			<line x1="0" y1="194945" x2="331" y2="194945"/>
			<line x1="8" y1="196244" x2="8" y2="0"/>
		</g>
		<g style="--index: 2;">
			<path d="M8,193740" tabindex="0">
				<title>l_r9gn1qpd-9d8eewld-0nwoqwkl.21dz3e4l</title>
			</path>
			<rect x="8" y="193740" width="0" height="0"/>
			<path d="M8,193740L8,193740" tabindex="0">
				<title>00:25.04 on 2022-07-28</title>
			</path>
			<line x1="0" y1="193740" x2="331" y2="193740"/>
			<line x1="8" y1="196244" x2="8" y2="0"/>
		</g>
		<g style="--index: 3;">
			<path d="M8,195104" tabindex="0">
				<title>l_r9gn1qpd-9d8eewld-0nwoqwkl.jqzpx3gl</title>
			</path>
			<rect x="8" y="195104" width="0" height="0"/>
			<path d="M8,195104L8,195104" tabindex="0">
				<title>00:11.40 on 2022-07-28</title>
			</path>
			<line x1="0" y1="195104" x2="331" y2="195104"/>
			<line x1="8" y1="196244" x2="8" y2="0"/>
		</g>
		<g style="--index: 4;">
			<path d="M8,194049" tabindex="0">
				<title>l_r9gn1qpd-9d8eewld-0nwoqwkl.21g82pnl</title>
			</path>
			<rect x="8" y="194049" width="0" height="0"/>
			<path d="M8,194049L8,194049" tabindex="0">
				<title>00:21.95 on 2022-07-28</title>
			</path>
			<line x1="0" y1="194049" x2="331" y2="194049"/>
			<line x1="8" y1="196244" x2="8" y2="0"/>
		</g>
		<g style="--index: 5;">
			<path d="M8,189285" tabindex="0">
				<title>l_r9gn1qpd-9d8eewld-0nwoqwkl.p12dx87q</title>
			</path>
			<rect x="8" y="189285" width="0" height="0"/>
			<path d="M8,189285L8,189285" tabindex="0">
				<title>01:09.59 on 2022-07-28</title>
			</path>
			<line x1="0" y1="189285" x2="331" y2="189285"/>
			<line x1="8" y1="196244" x2="8" y2="0"/>
		</g>
		<g style="--index: 6;">
			<path d="M8,193315" tabindex="0">
				<title>l_r9gn1qpd-9d8eewld-0nwoqwkl.klrpy2jq</title>
			</path>
			<rect x="8" y="193315" width="0" height="0"/>
			<path d="M8,193315L8,193315" tabindex="0">
				<title>00:29.29 on 2022-07-28</title>
			</path>
			<line x1="0" y1="193315" x2="331" y2="193315"/>
			<line x1="8" y1="196244" x2="8" y2="0"/>
		</g>
		<g style="--index: 7;">
			<path d="M8,194364" tabindex="0">
				<title>l_r9gn1qpd-9d8eewld-0nwoqwkl.xqkjmxnl</title>
			</path>
			<rect x="8" y="194364" width="0" height="0"/>
			<path d="M8,194364L8,194364" tabindex="0">
				<title>00:18.80 on 2022-07-28</title>
			</path>
			<line x1="0" y1="194364" x2="331" y2="194364"/>
			<line x1="8" y1="196244" x2="8" y2="0"/>
		</g>
		<g style="--index: 8;">
			<path d="M331,0" tabindex="0">
				<title>xd17x94d-9l71pv4l.21gpn081</title>
			</path>
			<rect x="331" y="0" width="0" height="0"/>
			<path d="M331,0L331,0" tabindex="0">
				<title>32:42.44 on 2023-06-16</title>
			</path>
			<line x1="0" y1="0" x2="331" y2="0"/>
			<line x1="331" y1="196244" x2="331" y2="0"/>
		</g>
	</g>
</svg>
