<svg xmlns="http://www.w3.org/2000/svg" viewBox="0 0 791 26404" preserveAspectRatio="none" lang="en" style="color-scheme: dark light;">
		<title>Time by leaderboard for player j2yr9lp8</title>
		<style>
			svg {
				background: var(--canvas-background);
				fill: var(--canvas-background);
				stroke: var(--canvas-foreground);
				stroke-linejoin: round;
				stroke-linecap: round;
			}
			g &gt; path[tabindex] {
				vector-effect: non-scaling-stroke;
				fill: none;
				stroke: hsl(calc(var(--index) / var(--count) * 360), 50%, 50%);
				cursor: help;
			}
			g:is(:hover, :focus-within) &gt; path[tabindex] {
				stroke: var(--canvas-foreground);
			}
			g &gt; path[tabindex]:is(:hover, :focus-within) {
				outline: 0;
			}
			g &gt; path[tabindex]:first-of-type {
				stroke-width: 2;
			}
			g &gt; path[tabindex]:first-of-type:is(:hover, :focus-within) {
				stroke-width: 4;
			}
			g &gt; path[tabindex]:first-of-type:not(:last-of-type) {
				stroke-dasharray: 4 8;
			}
			g &gt; rect {
				vector-effect: non-scaling-stroke;
				fill: none;
				stroke: none;
				pointer-events: none;
			}
			g &gt; path[tabindex]:first-of-type:is(:hover, :focus-within) + rect {
				fill: var(--highlighted);
			}
			g &gt; path[tabindex]:first-of-type ~ path[tabindex] {
				stroke-width: 8;
			}
			g &gt; path[tabindex]:first-of-type ~ path[tabindex]:is(:hover, :focus-within) {
				stroke-width: 16;
			}
			g &gt; line {
				vector-effect: non-scaling-stroke;
				fill: none;
				stroke: none;
				stroke-width: 2;
				stroke-dasharray: 4 8;
				pointer-events: none;
			}
			g &gt; path[tabindex]:first-of-type:is(:hover, :focus-within) + rect + path[tabindex] + line,
			g &gt; path[tabindex]:first-of-type:is(:hover, :focus-within) + rect + path[tabindex] + line + line,
			g &gt; path[tabindex]:first-of-type:is(:hover, :focus-within) ~ path[tabindex]:last-of-type + line,
			g &gt; path[tabindex]:first-of-type:is(:hover, :focus-within) ~ path[tabindex]:last-of-type + line + line,
			g &gt; path[tabindex]:first-of-type ~ path[tabindex]:is(:hover, :focus-within) + line,
			g &gt; path[tabindex]:first-of-type ~ path[tabindex]:is(:hover, :focus-within) + line + line {
				stroke: var(--faded);
			}
			@media (prefers-color-scheme: dark) {
				:root {
					--canvas-background: #000;
					--canvas-foreground: #ccc;
					--highlighted: #6663;
					--faded: #9993;
				}
			}
			@media (prefers-color-scheme: light) {
				:root {
					--canvas-background: #fff;
					--canvas-foreground: #333;
					--highlighted: #9993;
					--faded: #6663;
				}
			}
		</style>
		<g style="--count: 46;">
		<g style="--index: 0;">
			<path d="M0,24756L31,24756L31,24889L181,24889L181,24958L213,24958L213,24968L740,24968L740,25013" tabindex="0">
				<title>l_r9gn1qpd-9d8eewld-0nwoqwkl.21dz3e4l</title>
			</path>
			<rect x="0" y="24756" width="740" height="257"/>
			<path d="M0,24756L0,24756" tabindex="0">
				<title>00:16.48 on 2020-08-30</title>
			</path>
			<line x1="0" y1="24756" x2="791" y2="24756"/>
			<line x1="0" y1="26404" x2="0" y2="0"/>
			<path d="M31,24889L31,24889" tabindex="0">
				<title>00:15.15 on 2020-09-30</title>
			</path>
			<line x1="0" y1="24889" x2="791" y2="24889"/>
			<line x1="31" y1="26404" x2="31" y2="0"/>
			<path d="M181,24958L181,24958" tabindex="0">
				<title>00:14.46 on 2021-02-27</title>
			</path>
			<line x1="0" y1="24958" x2="791" y2="24958"/>
			<line x1="181" y1="26404" x2="181" y2="0"/>
			<path d="M213,24968L213,24968" tabindex="0">
				<title>00:14.36 on 2021-03-31</title>
			</path>
			<line x1="0" y1="24968" x2="791" y2="24968"/>
			<line x1="213" y1="26404" x2="213" y2="0"/>
			<path d="M740,25013L740,25013" tabindex="0">
				<title>00:13.91 on 2022-09-09</title>
			</path>
			<line x1="0" y1="25013" x2="791" y2="25013"/>
			<line x1="740" y1="26404" x2="740" y2="0"/>
		</g>
		<g style="--index: 1;">
			<path d="M0,23603L83,23603L83,23991L643,23991L643,24344" tabindex="0">
				<title>l_rdqo542w-9d8eewld-wl30kw9l.gq7jzvnq</title>
			</path>
			<rect x="0" y="23603" width="643" height="741"/>
			<path d="M0,23603L0,23603" tabindex="0">
				<title>00:28.01 on 2020-08-30</title>
			</path>
			<line x1="0" y1="23603" x2="791" y2="23603"/>
			<line x1="0" y1="26404" x2="0" y2="0"/>
			<path d="M83,23991L83,23991" tabindex="0">
				<title>00:24.13 on 2020-11-21</title>
			</path>
			<line x1="0" y1="23991" x2="791" y2="23991"/>
			<line x1="83" y1="26404" x2="83" y2="0"/>
			<path d="M643,24344L643,24344" tabindex="0">
				<title>00:20.60 on 2022-06-04</title>
			</path>
			<line x1="0" y1="24344" x2="791" y2="24344"/>
			<line x1="643" y1="26404" x2="643" y2="0"/>
		</g>
		<g style="--index: 2;">
			<path d="M0,24747L31,24747L31,24833L234,24833L234,24933L511,24933L511,24974" tabindex="0">
				<title>l_r9gn1qpd-9d8eewld-0nwoqwkl.klrpy2jq</title>
			</path>
			<rect x="0" y="24747" width="511" height="227"/>
			<path d="M0,24747L0,24747" tabindex="0">
				<title>00:16.57 on 2020-08-30</title>
			</path>
			<line x1="0" y1="24747" x2="791" y2="24747"/>
			<line x1="0" y1="26404" x2="0" y2="0"/>
			<path d="M31,24833L31,24833" tabindex="0">
				<title>00:15.71 on 2020-09-30</title>
			</path>
			<line x1="0" y1="24833" x2="791" y2="24833"/>
			<line x1="31" y1="26404" x2="31" y2="0"/>
			<path d="M234,24933L234,24933" tabindex="0">
				<title>00:14.71 on 2021-04-21</title>
			</path>
			<line x1="0" y1="24933" x2="791" y2="24933"/>
			<line x1="234" y1="26404" x2="234" y2="0"/>
			<path d="M511,24974L511,24974" tabindex="0">
				<title>00:14.30 on 2022-01-23</title>
			</path>
			<line x1="0" y1="24974" x2="791" y2="24974"/>
			<line x1="511" y1="26404" x2="511" y2="0"/>
		</g>
		<g style="--index: 3;">
			<path d="M82,25066L209,25066L209,25138L669,25138L669,25319L676,25319L676,25353" tabindex="0">
				<title>l_o9xo3rp9-9d8eewld-7896y468.81wp50oq</title>
			</path>
			<rect x="82" y="25066" width="594" height="287"/>
			<path d="M82,25066L82,25066" tabindex="0">
				<title>00:13.38 on 2020-11-20</title>
			</path>
			<line x1="0" y1="25066" x2="791" y2="25066"/>
			<line x1="82" y1="26404" x2="82" y2="0"/>
			<path d="M209,25138L209,25138" tabindex="0">
				<title>00:12.66 on 2021-03-27</title>
			</path>
			<line x1="0" y1="25138" x2="791" y2="25138"/>
			<line x1="209" y1="26404" x2="209" y2="0"/>
			<path d="M669,25319L669,25319" tabindex="0">
				<title>00:10.85 on 2022-06-30</title>
			</path>
			<line x1="0" y1="25319" x2="791" y2="25319"/>
			<line x1="669" y1="26404" x2="669" y2="0"/>
			<path d="M676,25353L676,25353" tabindex="0">
				<title>00:10.51 on 2022-07-07</title>
			</path>
			<line x1="0" y1="25353" x2="791" y2="25353"/>
			<line x1="676" y1="26404" x2="676" y2="0"/>
		</g>
		<g style="--index: 4;">
			<path d="M82,23751L180,23751L180,23814L549,23814L549,24027" tabindex="0">
				<title>l_rdqo542w-9d8eewld-wl30kw9l.5q86rxr1</title>
			</path>
			<rect x="82" y="23751" width="467" height="276"/>
			<path d="M82,23751L82,23751" tabindex="0">
				<title>00:26.53 on 2020-11-20</title>
			</path>
			<line x1="0" y1="23751" x2="791" y2="23751"/>
			<line x1="82" y1="26404" x2="82" y2="0"/>
			<path d="M180,23814L180,23814" tabindex="0">
				<title>00:25.90 on 2021-02-26</title>
			</path>
			<line x1="0" y1="23814" x2="791" y2="23814"/>
			<line x1="180" y1="26404" x2="180" y2="0"/>
			<path d="M549,24027L549,24027" tabindex="0">
				<title>00:23.77 on 2022-03-02</title>
			</path>
			<line x1="0" y1="24027" x2="791" y2="24027"/>
			<line x1="549" y1="26404" x2="549" y2="0"/>
		</g>
		<g style="--index: 5;">
			<path d="M82,25004L551,25004L551,25149L635,25149L635,25177L666,25177L666,25185" tabindex="0">
				<title>l_495zlx39-9d8eewld-2lgr793n.z19m8p0l</title>
			</path>
			<rect x="82" y="25004" width="584" height="181"/>
			<path d="M82,25004L82,25004" tabindex="0">
				<title>00:14.00 on 2020-11-20</title>
			</path>
			<line x1="0" y1="25004" x2="791" y2="25004"/>
			<line x1="82" y1="26404" x2="82" y2="0"/>
			<path d="M551,25149L551,25149" tabindex="0">
				<title>00:12.55 on 2022-03-04</title>
			</path>
			<line x1="0" y1="25149" x2="791" y2="25149"/>
			<line x1="551" y1="26404" x2="551" y2="0"/>
			<path d="M635,25177L635,25177" tabindex="0">
				<title>00:12.27 on 2022-05-27</title>
			</path>
			<line x1="0" y1="25177" x2="791" y2="25177"/>
			<line x1="635" y1="26404" x2="635" y2="0"/>
			<path d="M666,25185L666,25185" tabindex="0">
				<title>00:12.19 on 2022-06-27</title>
			</path>
			<line x1="0" y1="25185" x2="791" y2="25185"/>
			<line x1="666" y1="26404" x2="666" y2="0"/>
		</g>
		<g style="--index: 6;">
			<path d="M82,25573L186,25573L186,25617L208,25617L208,25625L637,25625L637,25643" tabindex="0">
				<title>l_o9xo3rp9-9d8eewld-7896y468.013856dq</title>
			</path>
			<rect x="82" y="25573" width="555" height="70"/>
			<path d="M82,25573L82,25573" tabindex="0">
				<title>00:08.31 on 2020-11-20</title>
			</path>
			<line x1="0" y1="25573" x2="791" y2="25573"/>
			<line x1="82" y1="26404" x2="82" y2="0"/>
			<path d="M186,25617L186,25617" tabindex="0">
				<title>00:07.87 on 2021-03-04</title>
			</path>
			<line x1="0" y1="25617" x2="791" y2="25617"/>
			<line x1="186" y1="26404" x2="186" y2="0"/>
			<path d="M208,25625L208,25625" tabindex="0">
				<title>00:07.79 on 2021-03-26</title>
			</path>
			<line x1="0" y1="25625" x2="791" y2="25625"/>
			<line x1="208" y1="26404" x2="208" y2="0"/>
			<path d="M637,25643L637,25643" tabindex="0">
				<title>00:07.61 on 2022-05-29</title>
			</path>
			<line x1="0" y1="25643" x2="791" y2="25643"/>
			<line x1="637" y1="26404" x2="637" y2="0"/>
		</g>
		<g style="--index: 7;">
			<path d="M82,24509L549,24509L549,24801" tabindex="0">
				<title>l_o9xo3rp9-9d8eewld-7896y468.5lermx5q</title>
			</path>
			<rect x="82" y="24509" width="467" height="292"/>
			<path d="M82,24509L82,24509" tabindex="0">
				<title>00:18.95 on 2020-11-20</title>
			</path>
			<line x1="0" y1="24509" x2="791" y2="24509"/>
			<line x1="82" y1="26404" x2="82" y2="0"/>
			<path d="M549,24801L549,24801" tabindex="0">
				<title>00:16.03 on 2022-03-02</title>
			</path>
			<line x1="0" y1="24801" x2="791" y2="24801"/>
			<line x1="549" y1="26404" x2="549" y2="0"/>
		</g>
		<g style="--index: 8;">
			<path d="M82,25480L217,25480L217,25573" tabindex="0">
				<title>l_o9xo3rp9-9d8eewld-7896y468.jq60ze3q</title>
			</path>
			<rect x="82" y="25480" width="135" height="93"/>
			<path d="M82,25480L82,25480" tabindex="0">
				<title>00:09.24 on 2020-11-20</title>
			</path>
			<line x1="0" y1="25480" x2="791" y2="25480"/>
			<line x1="82" y1="26404" x2="82" y2="0"/>
			<path d="M217,25573L217,25573" tabindex="0">
				<title>00:08.31 on 2021-04-04</title>
			</path>
			<line x1="0" y1="25573" x2="791" y2="25573"/>
			<line x1="217" y1="26404" x2="217" y2="0"/>
		</g>
		<g style="--index: 9;">
			<path d="M82,25495L87,25495L87,25504L180,25504L180,25524L182,25524L182,25526L473,25526L473,25539L676,25539L676,25555" tabindex="0">
				<title>l_r9gn1qpd-9d8eewld-0nwoqwkl.jqzpx3gl</title>
			</path>
			<rect x="82" y="25495" width="594" height="60"/>
			<path d="M82,25495L82,25495" tabindex="0">
				<title>00:09.09 on 2020-11-20</title>
			</path>
			<line x1="0" y1="25495" x2="791" y2="25495"/>
			<line x1="82" y1="26404" x2="82" y2="0"/>
			<path d="M87,25504L87,25504" tabindex="0">
				<title>00:09.00 on 2020-11-25</title>
			</path>
			<line x1="0" y1="25504" x2="791" y2="25504"/>
			<line x1="87" y1="26404" x2="87" y2="0"/>
			<path d="M180,25524L180,25524" tabindex="0">
				<title>00:08.80 on 2021-02-26</title>
			</path>
			<line x1="0" y1="25524" x2="791" y2="25524"/>
			<line x1="180" y1="26404" x2="180" y2="0"/>
			<path d="M182,25526L182,25526" tabindex="0">
				<title>00:08.78 on 2021-02-28</title>
			</path>
			<line x1="0" y1="25526" x2="791" y2="25526"/>
			<line x1="182" y1="26404" x2="182" y2="0"/>
			<path d="M473,25539L473,25539" tabindex="0">
				<title>00:08.65 on 2021-12-16</title>
			</path>
			<line x1="0" y1="25539" x2="791" y2="25539"/>
			<line x1="473" y1="26404" x2="473" y2="0"/>
			<path d="M676,25555L676,25555" tabindex="0">
				<title>00:08.49 on 2022-07-07</title>
			</path>
			<line x1="0" y1="25555" x2="791" y2="25555"/>
			<line x1="676" y1="26404" x2="676" y2="0"/>
		</g>
		<g style="--index: 10;">
			<path d="M82,24726L96,24726L96,24930L273,24930L273,25008" tabindex="0">
				<title>l_r9gnozkd-rkl3znrk-wledz9en.jq606z3q</title>
			</path>
			<rect x="82" y="24726" width="191" height="282"/>
			<path d="M82,24726L82,24726" tabindex="0">
				<title>00:16.78 on 2020-11-20</title>
			</path>
			<line x1="0" y1="24726" x2="791" y2="24726"/>
			<line x1="82" y1="26404" x2="82" y2="0"/>
			<path d="M96,24930L96,24930" tabindex="0">
				<title>00:14.74 on 2020-12-04</title>
			</path>
			<line x1="0" y1="24930" x2="791" y2="24930"/>
			<line x1="96" y1="26404" x2="96" y2="0"/>
			<path d="M273,25008L273,25008" tabindex="0">
				<title>00:13.96 on 2021-05-30</title>
			</path>
			<line x1="0" y1="25008" x2="791" y2="25008"/>
			<line x1="273" y1="26404" x2="273" y2="0"/>
		</g>
		<g style="--index: 11;">
			<path d="M82,23175L178,23175L178,23220" tabindex="0">
				<title>l_r9gnozkd-rkl3znrk-wledz9en.zqop6rp1</title>
			</path>
			<rect x="82" y="23175" width="96" height="45"/>
			<path d="M82,23175L82,23175" tabindex="0">
				<title>00:32.29 on 2020-11-20</title>
			</path>
			<line x1="0" y1="23175" x2="791" y2="23175"/>
			<line x1="82" y1="26404" x2="82" y2="0"/>
			<path d="M178,23220L178,23220" tabindex="0">
				<title>00:31.84 on 2021-02-24</title>
			</path>
			<line x1="0" y1="23220" x2="791" y2="23220"/>
			<line x1="178" y1="26404" x2="178" y2="0"/>
		</g>
		<g style="--index: 12;">
			<path d="M82,24799L178,24799L178,24916" tabindex="0">
				<title>l_r9gnozkd-rkl3znrk-wledz9en.0138n5dq</title>
			</path>
			<rect x="82" y="24799" width="96" height="117"/>
			<path d="M82,24799L82,24799" tabindex="0">
				<title>00:16.05 on 2020-11-20</title>
			</path>
			<line x1="0" y1="24799" x2="791" y2="24799"/>
			<line x1="82" y1="26404" x2="82" y2="0"/>
			<path d="M178,24916L178,24916" tabindex="0">
				<title>00:14.88 on 2021-02-24</title>
			</path>
			<line x1="0" y1="24916" x2="791" y2="24916"/>
			<line x1="178" y1="26404" x2="178" y2="0"/>
		</g>
		<g style="--index: 13;">
			<path d="M82,24490L667,24490L667,24579" tabindex="0">
				<title>l_r9gnozkd-rkl3znrk-wledz9en.814y0701</title>
			</path>
			<rect x="82" y="24490" width="585" height="89"/>
			<path d="M82,24490L82,24490" tabindex="0">
				<title>00:19.14 on 2020-11-20</title>
			</path>
			<line x1="0" y1="24490" x2="791" y2="24490"/>
			<line x1="82" y1="26404" x2="82" y2="0"/>
			<path d="M667,24579L667,24579" tabindex="0">
				<title>00:18.25 on 2022-06-28</title>
			</path>
			<line x1="0" y1="24579" x2="791" y2="24579"/>
			<line x1="667" y1="26404" x2="667" y2="0"/>
		</g>
		<g style="--index: 14;">
			<path d="M83,24952L189,24952L189,25040L655,25040L655,25068" tabindex="0">
				<title>l_495zlx39-9d8eewld-2lgr793n.814y7w01</title>
			</path>
			<rect x="83" y="24952" width="572" height="116"/>
			<path d="M83,24952L83,24952" tabindex="0">
				<title>00:14.52 on 2020-11-21</title>
			</path>
			<line x1="0" y1="24952" x2="791" y2="24952"/>
			<line x1="83" y1="26404" x2="83" y2="0"/>
			<path d="M189,25040L189,25040" tabindex="0">
				<title>00:13.64 on 2021-03-07</title>
			</path>
			<line x1="0" y1="25040" x2="791" y2="25040"/>
			<line x1="189" y1="26404" x2="189" y2="0"/>
			<path d="M655,25068L655,25068" tabindex="0">
				<title>00:13.36 on 2022-06-16</title>
			</path>
			<line x1="0" y1="25068" x2="791" y2="25068"/>
			<line x1="655" y1="26404" x2="655" y2="0"/>
		</g>
		<g style="--index: 15;">
			<path d="M90,23373L186,23373L186,23613L550,23613L550,23879L635,23879L635,23913L663,23913L663,23961" tabindex="0">
				<title>l_495zlx39-9d8eewld-2lgr793n.21g8ownl</title>
			</path>
			<rect x="90" y="23373" width="573" height="588"/>
			<path d="M90,23373L90,23373" tabindex="0">
				<title>00:30.31 on 2020-11-28</title>
			</path>
			<line x1="0" y1="23373" x2="791" y2="23373"/>
			<line x1="90" y1="26404" x2="90" y2="0"/>
			<path d="M186,23613L186,23613" tabindex="0">
				<title>00:27.91 on 2021-03-04</title>
			</path>
			<line x1="0" y1="23613" x2="791" y2="23613"/>
			<line x1="186" y1="26404" x2="186" y2="0"/>
			<path d="M550,23879L550,23879" tabindex="0">
				<title>00:25.25 on 2022-03-03</title>
			</path>
			<line x1="0" y1="23879" x2="791" y2="23879"/>
			<line x1="550" y1="26404" x2="550" y2="0"/>
			<path d="M635,23913L635,23913" tabindex="0">
				<title>00:24.91 on 2022-05-27</title>
			</path>
			<line x1="0" y1="23913" x2="791" y2="23913"/>
			<line x1="635" y1="26404" x2="635" y2="0"/>
			<path d="M663,23961L663,23961" tabindex="0">
				<title>00:24.43 on 2022-06-24</title>
			</path>
			<line x1="0" y1="23961" x2="791" y2="23961"/>
			<line x1="663" y1="26404" x2="663" y2="0"/>
		</g>
		<g style="--index: 16;">
			<path d="M175,14224L181,14224L181,14461" tabindex="0">
				<title>l_r9gn1qpd-9d8eewld-0nwoqwkl.gq7jrxvq</title>
			</path>
			<rect x="175" y="14224" width="6" height="237"/>
			<path d="M175,14224L175,14224" tabindex="0">
				<title>02:01.80 on 2021-02-21</title>
			</path>
			<line x1="0" y1="14224" x2="791" y2="14224"/>
			<line x1="175" y1="26404" x2="175" y2="0"/>
			<path d="M181,14461L181,14461" tabindex="0">
				<title>01:59.43 on 2021-02-27</title>
			</path>
			<line x1="0" y1="14461" x2="791" y2="14461"/>
			<line x1="181" y1="26404" x2="181" y2="0"/>
		</g>
		<g style="--index: 17;">
			<path d="M176,25510L179,25510L179,25521L404,25521L404,25536" tabindex="0">
				<title>l_r9gn1qpd-9d8eewld-0nwoqwkl.81ppdgg1</title>
			</path>
			<rect x="176" y="25510" width="228" height="26"/>
			<path d="M176,25510L176,25510" tabindex="0">
				<title>00:08.94 on 2021-02-22</title>
			</path>
			<line x1="0" y1="25510" x2="791" y2="25510"/>
			<line x1="176" y1="26404" x2="176" y2="0"/>
			<path d="M179,25521L179,25521" tabindex="0">
				<title>00:08.83 on 2021-02-25</title>
			</path>
			<line x1="0" y1="25521" x2="791" y2="25521"/>
			<line x1="179" y1="26404" x2="179" y2="0"/>
			<path d="M404,25536L404,25536" tabindex="0">
				<title>00:08.68 on 2021-10-08</title>
			</path>
			<line x1="0" y1="25536" x2="791" y2="25536"/>
			<line x1="404" y1="26404" x2="404" y2="0"/>
		</g>
		<g style="--index: 18;">
			<path d="M179,9009" tabindex="0">
				<title>l_r9gn1qpd-9kv66g32-onv7r45n.810zdxoq</title>
			</path>
			<rect x="179" y="9009" width="0" height="0"/>
			<path d="M179,9009L179,9009" tabindex="0">
				<title>02:53.95 on 2021-02-25</title>
			</path>
			<line x1="0" y1="9009" x2="791" y2="9009"/>
			<line x1="179" y1="26404" x2="179" y2="0"/>
		</g>
		<g style="--index: 19;">
			<path d="M179,25306L180,25306L180,25335" tabindex="0">
				<title>l_r9gnozkd-rkl3znrk-wledz9en.rqvp5e7q</title>
			</path>
			<rect x="179" y="25306" width="1" height="29"/>
			<path d="M179,25306L179,25306" tabindex="0">
				<title>00:10.98 on 2021-02-25</title>
			</path>
			<line x1="0" y1="25306" x2="791" y2="25306"/>
			<line x1="179" y1="26404" x2="179" y2="0"/>
			<path d="M180,25335L180,25335" tabindex="0">
				<title>00:10.69 on 2021-02-26</title>
			</path>
			<line x1="0" y1="25335" x2="791" y2="25335"/>
			<line x1="180" y1="26404" x2="180" y2="0"/>
		</g>
		<g style="--index: 20;">
			<path d="M180,24328" tabindex="0">
				<title>l_495zlx39-9d8eewld-2lgr793n.81ppd5g1</title>
			</path>
			<rect x="180" y="24328" width="0" height="0"/>
			<path d="M180,24328L180,24328" tabindex="0">
				<title>00:20.76 on 2021-02-26</title>
			</path>
			<line x1="0" y1="24328" x2="791" y2="24328"/>
			<line x1="180" y1="26404" x2="180" y2="0"/>
		</g>
		<g style="--index: 21;">
			<path d="M180,25021L208,25021L208,25041L635,25041L635,25125" tabindex="0">
				<title>l_o9xo3rp9-9d8eewld-7896y468.rqvpey7q</title>
			</path>
			<rect x="180" y="25021" width="455" height="104"/>
			<path d="M180,25021L180,25021" tabindex="0">
				<title>00:13.83 on 2021-02-26</title>
			</path>
			<line x1="0" y1="25021" x2="791" y2="25021"/>
			<line x1="180" y1="26404" x2="180" y2="0"/>
			<path d="M208,25041L208,25041" tabindex="0">
				<title>00:13.63 on 2021-03-26</title>
			</path>
			<line x1="0" y1="25041" x2="791" y2="25041"/>
			<line x1="208" y1="26404" x2="208" y2="0"/>
			<path d="M635,25125L635,25125" tabindex="0">
				<title>00:12.79 on 2022-05-27</title>
			</path>
			<line x1="0" y1="25125" x2="791" y2="25125"/>
			<line x1="635" y1="26404" x2="635" y2="0"/>
		</g>
		<g style="--index: 22;">
			<path d="M180,24901L221,24901L221,24917" tabindex="0">
				<title>l_495zlx39-9d8eewld-2lgr793n.gq7jzvvq</title>
			</path>
			<rect x="180" y="24901" width="41" height="16"/>
			<path d="M180,24901L180,24901" tabindex="0">
				<title>00:15.03 on 2021-02-26</title>
			</path>
			<line x1="0" y1="24901" x2="791" y2="24901"/>
			<line x1="180" y1="26404" x2="180" y2="0"/>
			<path d="M221,24917L221,24917" tabindex="0">
				<title>00:14.87 on 2021-04-08</title>
			</path>
			<line x1="0" y1="24917" x2="791" y2="24917"/>
			<line x1="221" y1="26404" x2="221" y2="0"/>
		</g>
		<g style="--index: 23;">
			<path d="M181,24233L203,24233L203,24307" tabindex="0">
				<title>l_r9gnozkd-rkl3znrk-wledz9en.0q5njgmq</title>
			</path>
			<rect x="181" y="24233" width="22" height="74"/>
			<path d="M181,24233L181,24233" tabindex="0">
				<title>00:21.71 on 2021-02-27</title>
			</path>
			<line x1="0" y1="24233" x2="791" y2="24233"/>
			<line x1="181" y1="26404" x2="181" y2="0"/>
			<path d="M203,24307L203,24307" tabindex="0">
				<title>00:20.97 on 2021-03-21</title>
			</path>
			<line x1="0" y1="24307" x2="791" y2="24307"/>
			<line x1="203" y1="26404" x2="203" y2="0"/>
		</g>
		<g style="--index: 24;">
			<path d="M191,13163" tabindex="0">
				<title>l_o9xo3rp9-9d8eewld-7896y468.5lmkgmjq</title>
			</path>
			<rect x="191" y="13163" width="0" height="0"/>
			<path d="M191,13163L191,13163" tabindex="0">
				<title>02:12.41 on 2021-03-09</title>
			</path>
			<line x1="0" y1="13163" x2="791" y2="13163"/>
			<line x1="191" y1="26404" x2="191" y2="0"/>
		</g>
		<g style="--index: 25;">
			<path d="M193,25031L208,25031L208,25048L209,25048L209,25061L676,25061L676,25113" tabindex="0">
				<title>l_o9xo3rp9-9d8eewld-7896y468.9qj0x8el</title>
			</path>
			<rect x="193" y="25031" width="483" height="82"/>
			<path d="M193,25031L193,25031" tabindex="0">
				<title>00:13.73 on 2021-03-11</title>
			</path>
			<line x1="0" y1="25031" x2="791" y2="25031"/>
			<line x1="193" y1="26404" x2="193" y2="0"/>
			<path d="M208,25048L208,25048" tabindex="0">
				<title>00:13.56 on 2021-03-26</title>
			</path>
			<line x1="0" y1="25048" x2="791" y2="25048"/>
			<line x1="208" y1="26404" x2="208" y2="0"/>
			<path d="M209,25061L209,25061" tabindex="0">
				<title>00:13.43 on 2021-03-27</title>
			</path>
			<line x1="0" y1="25061" x2="791" y2="25061"/>
			<line x1="209" y1="26404" x2="209" y2="0"/>
			<path d="M676,25113L676,25113" tabindex="0">
				<title>00:12.91 on 2022-07-07</title>
			</path>
			<line x1="0" y1="25113" x2="791" y2="25113"/>
			<line x1="676" y1="26404" x2="676" y2="0"/>
		</g>
		<g style="--index: 26;">
			<path d="M199,0L643,0L643,2093" tabindex="0">
				<title>l_rdqo542w-9d8eewld-wl30kw9l.21g8owxl</title>
			</path>
			<rect x="199" y="0" width="444" height="2093"/>
			<path d="M199,0L199,0" tabindex="0">
				<title>04:24.04 on 2021-03-17</title>
			</path>
			<line x1="0" y1="0" x2="791" y2="0"/>
			<line x1="199" y1="26404" x2="199" y2="0"/>
			<path d="M643,2093L643,2093" tabindex="0">
				<title>04:03.11 on 2022-06-04</title>
			</path>
			<line x1="0" y1="2093" x2="791" y2="2093"/>
			<line x1="643" y1="26404" x2="643" y2="0"/>
		</g>
		<g style="--index: 27;">
			<path d="M221,25129" tabindex="0">
				<title>l_r9gn1qpd-9d8eewld-0nwoqwkl.xqkjmxnl</title>
			</path>
			<rect x="221" y="25129" width="0" height="0"/>
			<path d="M221,25129L221,25129" tabindex="0">
				<title>00:12.75 on 2021-04-08</title>
			</path>
			<line x1="0" y1="25129" x2="791" y2="25129"/>
			<line x1="221" y1="26404" x2="221" y2="0"/>
		</g>
		<g style="--index: 28;">
			<path d="M221,9435" tabindex="0">
				<title>l_rdqo542w-9d8eewld-wl30kw9l.jqzpyrgl</title>
			</path>
			<rect x="221" y="9435" width="0" height="0"/>
			<path d="M221,9435L221,9435" tabindex="0">
				<title>02:49.69 on 2021-04-08</title>
			</path>
			<line x1="0" y1="9435" x2="791" y2="9435"/>
			<line x1="221" y1="26404" x2="221" y2="0"/>
		</g>
		<g style="--index: 29;">
			<path d="M234,24507" tabindex="0">
				<title>l_495zlx39-9d8eewld-2lgr793n.xqkjmnnl</title>
			</path>
			<rect x="234" y="24507" width="0" height="0"/>
			<path d="M234,24507L234,24507" tabindex="0">
				<title>00:18.97 on 2021-04-21</title>
			</path>
			<line x1="0" y1="24507" x2="791" y2="24507"/>
			<line x1="234" y1="26404" x2="234" y2="0"/>
		</g>
		<g style="--index: 30;">
			<path d="M246,18317" tabindex="0">
				<title>l_r9gn1qpd-xd144xzd-38dz6v1n.5leogx5q</title>
			</path>
			<rect x="246" y="18317" width="0" height="0"/>
			<path d="M246,18317L246,18317" tabindex="0">
				<title>01:20.87 on 2021-05-03</title>
			</path>
			<line x1="0" y1="18317" x2="791" y2="18317"/>
			<line x1="246" y1="26404" x2="246" y2="0"/>
		</g>
		<g style="--index: 31;">
			<path d="M248,12768" tabindex="0">
				<title>l_o9xo3rp9-xd144xzd-38dz6v1n.5leogx5q</title>
			</path>
			<rect x="248" y="12768" width="0" height="0"/>
			<path d="M248,12768L248,12768" tabindex="0">
				<title>02:16.36 on 2021-05-05</title>
			</path>
			<line x1="0" y1="12768" x2="791" y2="12768"/>
			<line x1="248" y1="26404" x2="248" y2="0"/>
		</g>
		<g style="--index: 32;">
			<path d="M258,12977" tabindex="0">
				<title>l_495zlx39-xd144xzd-38dz6v1n.5leogx5q</title>
			</path>
			<rect x="258" y="12977" width="0" height="0"/>
			<path d="M258,12977L258,12977" tabindex="0">
				<title>02:14.27 on 2021-05-15</title>
			</path>
			<line x1="0" y1="12977" x2="791" y2="12977"/>
			<line x1="258" y1="26404" x2="258" y2="0"/>
		</g>
		<g style="--index: 33;">
			<path d="M268,3223" tabindex="0">
				<title>l_rdqo542w-xd144xzd-38dz6v1n.5leogx5q</title>
			</path>
			<rect x="268" y="3223" width="0" height="0"/>
			<path d="M268,3223L268,3223" tabindex="0">
				<title>03:51.81 on 2021-05-25</title>
			</path>
			<line x1="0" y1="3223" x2="791" y2="3223"/>
			<line x1="268" y1="26404" x2="268" y2="0"/>
		</g>
		<g style="--index: 34;">
			<path d="M321,23245L726,23245L726,23275" tabindex="0">
				<title>l_ldykv1zw-rkl3znrk-wl3059ol.mlnwjz0l</title>
			</path>
			<rect x="321" y="23245" width="405" height="30"/>
			<path d="M321,23245L321,23245" tabindex="0">
				<title>00:31.59 on 2021-07-17</title>
			</path>
			<line x1="0" y1="23245" x2="791" y2="23245"/>
			<line x1="321" y1="26404" x2="321" y2="0"/>
			<path d="M726,23275L726,23275" tabindex="0">
				<title>00:31.29 on 2022-08-26</title>
			</path>
			<line x1="0" y1="23275" x2="791" y2="23275"/>
			<line x1="726" y1="26404" x2="726" y2="0"/>
		</g>
		<g style="--index: 35;">
			<path d="M321,25011" tabindex="0">
				<title>l_ldykv1zw-rkl3znrk-wl3059ol.810zkwwq</title>
			</path>
			<rect x="321" y="25011" width="0" height="0"/>
			<path d="M321,25011L321,25011" tabindex="0">
				<title>00:13.93 on 2021-07-17</title>
			</path>
			<line x1="0" y1="25011" x2="791" y2="25011"/>
			<line x1="321" y1="26404" x2="321" y2="0"/>
		</g>
		<g style="--index: 36;">
			<path d="M340,22987L726,22987L726,23011" tabindex="0">
				<title>l_ldykv1zw-rkl3znrk-wl3059ol.9qj0kxel</title>
			</path>
			<rect x="340" y="22987" width="386" height="24"/>
			<path d="M340,22987L340,22987" tabindex="0">
				<title>00:34.17 on 2021-08-05</title>
			</path>
			<line x1="0" y1="22987" x2="791" y2="22987"/>
			<line x1="340" y1="26404" x2="340" y2="0"/>
			<path d="M726,23011L726,23011" tabindex="0">
				<title>00:33.93 on 2022-08-26</title>
			</path>
			<line x1="0" y1="23011" x2="791" y2="23011"/>
			<line x1="726" y1="26404" x2="726" y2="0"/>
		</g>
		<g style="--index: 37;">
			<path d="M340,23895L726,23895L726,23907" tabindex="0">
				<title>l_ldykv1zw-rkl3znrk-wl3059ol.4qypgj4q</title>
			</path>
			<rect x="340" y="23895" width="386" height="12"/>
			<path d="M340,23895L340,23895" tabindex="0">
				<title>00:25.09 on 2021-08-05</title>
			</path>
			<line x1="0" y1="23895" x2="791" y2="23895"/>
			<line x1="340" y1="26404" x2="340" y2="0"/>
			<path d="M726,23907L726,23907" tabindex="0">
				<title>00:24.97 on 2022-08-26</title>
			</path>
			<line x1="0" y1="23907" x2="791" y2="23907"/>
			<line x1="726" y1="26404" x2="726" y2="0"/>
		</g>
		<g style="--index: 38;">
			<path d="M347,19621L658,19621L658,19874" tabindex="0">
				<title>l_495zlx39-9d8eewld-2lgr793n.4lxpe62q</title>
			</path>
			<rect x="347" y="19621" width="311" height="253"/>
			<path d="M347,19621L347,19621" tabindex="0">
				<title>01:07.83 on 2021-08-12</title>
			</path>
			<line x1="0" y1="19621" x2="791" y2="19621"/>
			<line x1="347" y1="26404" x2="347" y2="0"/>
			<path d="M658,19874L658,19874" tabindex="0">
				<title>01:05.30 on 2022-06-19</title>
			</path>
			<line x1="0" y1="19874" x2="791" y2="19874"/>
			<line x1="658" y1="26404" x2="658" y2="0"/>
		</g>
		<g style="--index: 39;">
			<path d="M512,24606" tabindex="0">
				<title>l_rdqo542w-9d8eewld-wl30kw9l.klrp6e0q</title>
			</path>
			<rect x="512" y="24606" width="0" height="0"/>
			<path d="M512,24606L512,24606" tabindex="0">
				<title>00:17.98 on 2022-01-24</title>
			</path>
			<line x1="0" y1="24606" x2="791" y2="24606"/>
			<line x1="512" y1="26404" x2="512" y2="0"/>
		</g>
		<g style="--index: 40;">
			<path d="M550,20774" tabindex="0">
				<title>l_rdqo542w-9d8eewld-wl30kw9l.klrp6ejq</title>
			</path>
			<rect x="550" y="20774" width="0" height="0"/>
			<path d="M550,20774L550,20774" tabindex="0">
				<title>00:56.30 on 2022-03-03</title>
			</path>
			<line x1="0" y1="20774" x2="791" y2="20774"/>
			<line x1="550" y1="26404" x2="550" y2="0"/>
		</g>
		<g style="--index: 41;">
			<path d="M550,24533L672,24533L672,24576" tabindex="0">
				<title>l_rdqo542w-9d8eewld-wl30kw9l.21dzoj3l</title>
			</path>
			<rect x="550" y="24533" width="122" height="43"/>
			<path d="M550,24533L550,24533" tabindex="0">
				<title>00:18.71 on 2022-03-03</title>
			</path>
			<line x1="0" y1="24533" x2="791" y2="24533"/>
			<line x1="550" y1="26404" x2="550" y2="0"/>
			<path d="M672,24576L672,24576" tabindex="0">
				<title>00:18.28 on 2022-07-03</title>
			</path>
			<line x1="0" y1="24576" x2="791" y2="24576"/>
			<line x1="672" y1="26404" x2="672" y2="0"/>
		</g>
		<g style="--index: 42;">
			<path d="M626,22333" tabindex="0">
				<title>l_r9gnozkd-rkl3znrk-wledz9en.5lmk0gjq</title>
			</path>
			<rect x="626" y="22333" width="0" height="0"/>
			<path d="M626,22333L626,22333" tabindex="0">
				<title>00:40.71 on 2022-05-18</title>
			</path>
			<line x1="0" y1="22333" x2="791" y2="22333"/>
			<line x1="626" y1="26404" x2="626" y2="0"/>
		</g>
		<g style="--index: 43;">
			<path d="M643,24370L664,24370L664,24436L671,24436L671,24449L675,24449L675,24458" tabindex="0">
				<title>l_rdqo542w-9d8eewld-wl30kw9l.jqzpyr4l</title>
			</path>
			<rect x="643" y="24370" width="32" height="88"/>
			<path d="M643,24370L643,24370" tabindex="0">
				<title>00:20.34 on 2022-06-04</title>
			</path>
			<line x1="0" y1="24370" x2="791" y2="24370"/>
			<line x1="643" y1="26404" x2="643" y2="0"/>
			<path d="M664,24436L664,24436" tabindex="0">
				<title>00:19.68 on 2022-06-25</title>
			</path>
			<line x1="0" y1="24436" x2="791" y2="24436"/>
			<line x1="664" y1="26404" x2="664" y2="0"/>
			<path d="M671,24449L671,24449" tabindex="0">
				<title>00:19.55 on 2022-07-02</title>
			</path>
			<line x1="0" y1="24449" x2="791" y2="24449"/>
			<line x1="671" y1="26404" x2="671" y2="0"/>
			<path d="M675,24458L675,24458" tabindex="0">
				<title>00:19.46 on 2022-07-06</title>
			</path>
			<line x1="0" y1="24458" x2="791" y2="24458"/>
			<line x1="675" y1="26404" x2="675" y2="0"/>
		</g>
		<g style="--index: 44;">
			<path d="M646,22466L791,22466L791,22611" tabindex="0">
				<title>l_r9gnozkd-rkl3znrk-wledz9en.z19mo80l</title>
			</path>
			<rect x="646" y="22466" width="145" height="145"/>
			<path d="M646,22466L646,22466" tabindex="0">
				<title>00:39.38 on 2022-06-07</title>
			</path>
			<line x1="0" y1="22466" x2="791" y2="22466"/>
			<line x1="646" y1="26404" x2="646" y2="0"/>
			<path d="M791,22611L791,22611" tabindex="0">
				<title>00:37.93 on 2022-10-30</title>
			</path>
			<line x1="0" y1="22611" x2="791" y2="22611"/>
			<line x1="791" y1="26404" x2="791" y2="0"/>
		</g>
		<g style="--index: 45;">
			<path d="M676,25341" tabindex="0">
				<title>l_r9gn1qpd-9d8eewld-0nwoqwkl.21g82pnl</title>
			</path>
			<rect x="676" y="25341" width="0" height="0"/>
			<path d="M676,25341L676,25341" tabindex="0">
				<title>00:10.63 on 2022-07-07</title>
			</path>
			<line x1="0" y1="25341" x2="791" y2="25341"/>
			<line x1="676" y1="26404" x2="676" y2="0"/>
		</g>
	</g>
</svg>
