<svg xmlns="http://www.w3.org/2000/svg" viewBox="0 0 793 138752" preserveAspectRatio="none" lang="en" style="color-scheme: dark light;">
		<title>Time by leaderboard for player j4235d5x</title>
		<style>
			svg {
				background: var(--canvas-background);
				fill: var(--canvas-background);
				stroke: var(--canvas-foreground);
				stroke-linejoin: round;
				stroke-linecap: round;
			}
			g &gt; path[tabindex] {
				vector-effect: non-scaling-stroke;
				fill: none;
				stroke: hsl(calc(var(--index) / var(--count) * 360), 50%, 50%);
				cursor: help;
			}
			g:is(:hover, :focus-within) &gt; path[tabindex] {
				stroke: var(--canvas-foreground);
			}
			g &gt; path[tabindex]:is(:hover, :focus-within) {
				outline: 0;
			}
			g &gt; path[tabindex]:first-of-type {
				stroke-width: 2;
			}
			g &gt; path[tabindex]:first-of-type:is(:hover, :focus-within) {
				stroke-width: 4;
			}
			g &gt; path[tabindex]:first-of-type:not(:last-of-type) {
				stroke-dasharray: 4 8;
			}
			g &gt; rect {
				vector-effect: non-scaling-stroke;
				fill: none;
				stroke: none;
				pointer-events: none;
			}
			g &gt; path[tabindex]:first-of-type:is(:hover, :focus-within) + rect {
				fill: var(--highlighted);
			}
			g &gt; path[tabindex]:first-of-type ~ path[tabindex] {
				stroke-width: 8;
			}
			g &gt; path[tabindex]:first-of-type ~ path[tabindex]:is(:hover, :focus-within) {
				stroke-width: 16;
			}
			g &gt; line {
				vector-effect: non-scaling-stroke;
				fill: none;
				stroke: none;
				stroke-width: 2;
				stroke-dasharray: 4 8;
				pointer-events: none;
			}
			g &gt; path[tabindex]:first-of-type:is(:hover, :focus-within) + rect + path[tabindex] + line,
			g &gt; path[tabindex]:first-of-type:is(:hover, :focus-within) + rect + path[tabindex] + line + line,
			g &gt; path[tabindex]:first-of-type:is(:hover, :focus-within) ~ path[tabindex]:last-of-type + line,
			g &gt; path[tabindex]:first-of-type:is(:hover, :focus-within) ~ path[tabindex]:last-of-type + line + line,
			g &gt; path[tabindex]:first-of-type ~ path[tabindex]:is(:hover, :focus-within) + line,
			g &gt; path[tabindex]:first-of-type ~ path[tabindex]:is(:hover, :focus-within) + line + line {
				stroke: var(--faded);
			}
			@media (prefers-color-scheme: dark) {
				:root {
					--canvas-background: #000;
					--canvas-foreground: #ccc;
					--highlighted: #6663;
					--faded: #9993;
				}
			}
			@media (prefers-color-scheme: light) {
				:root {
					--canvas-background: #fff;
					--canvas-foreground: #333;
					--highlighted: #9993;
					--faded: #6663;
				}
			}
		</style>
		<g style="--count: 21;">
		<g style="--index: 0;">
			<path d="M0,0L414,0L414,16207L478,16207L478,33334L513,33334L513,36313L519,36313L519,39868L532,39868L532,42361" tabindex="0">
				<title>xd17x94d-9l71pv4l.zqo20y2l</title>
			</path>
			<rect x="0" y="0" width="532" height="42361"/>
			<path d="M0,0L0,0" tabindex="0">
				<title>23:07.52 on 2021-05-16</title>
			</path>
			<line x1="0" y1="0" x2="793" y2="0"/>
			<line x1="0" y1="138752" x2="0" y2="0"/>
			<path d="M414,16207L414,16207" tabindex="0">
				<title>20:25.45 on 2022-07-04</title>
			</path>
			<line x1="0" y1="16207" x2="793" y2="16207"/>
			<line x1="414" y1="138752" x2="414" y2="0"/>
			<path d="M478,33334L478,33334" tabindex="0">
				<title>17:34.18 on 2022-09-06</title>
			</path>
			<line x1="0" y1="33334" x2="793" y2="33334"/>
			<line x1="478" y1="138752" x2="478" y2="0"/>
			<path d="M513,36313L513,36313" tabindex="0">
				<title>17:04.39 on 2022-10-11</title>
			</path>
			<line x1="0" y1="36313" x2="793" y2="36313"/>
			<line x1="513" y1="138752" x2="513" y2="0"/>
			<path d="M519,39868L519,39868" tabindex="0">
				<title>16:28.84 on 2022-10-17</title>
			</path>
			<line x1="0" y1="39868" x2="793" y2="39868"/>
			<line x1="519" y1="138752" x2="519" y2="0"/>
			<path d="M532,42361L532,42361" tabindex="0">
				<title>16:03.91 on 2022-10-30</title>
			</path>
			<line x1="0" y1="42361" x2="793" y2="42361"/>
			<line x1="532" y1="138752" x2="532" y2="0"/>
		</g>
		<g style="--index: 1;">
			<path d="M415,137212" tabindex="0">
				<title>l_r9gn1qpd-9d8eewld-0nwoqwkl.xqkjmxnl</title>
			</path>
			<rect x="415" y="137212" width="0" height="0"/>
			<path d="M415,137212L415,137212" tabindex="0">
				<title>00:15.40 on 2022-07-05</title>
			</path>
			<line x1="0" y1="137212" x2="793" y2="137212"/>
			<line x1="415" y1="138752" x2="415" y2="0"/>
		</g>
		<g style="--index: 2;">
			<path d="M415,137198L485,137198L485,137268L535,137268L535,137291" tabindex="0">
				<title>9kv6l5e2-ql6rezjl.jq6d86v1</title>
			</path>
			<rect x="415" y="137198" width="120" height="93"/>
			<path d="M415,137198L415,137198" tabindex="0">
				<title>00:15.54 on 2022-07-05</title>
			</path>
			<line x1="0" y1="137198" x2="793" y2="137198"/>
			<line x1="415" y1="138752" x2="415" y2="0"/>
			<path d="M485,137268L485,137268" tabindex="0">
				<title>00:14.84 on 2022-09-13</title>
			</path>
			<line x1="0" y1="137268" x2="793" y2="137268"/>
			<line x1="485" y1="138752" x2="485" y2="0"/>
			<path d="M535,137291L535,137291" tabindex="0">
				<title>00:14.61 on 2022-11-02</title>
			</path>
			<line x1="0" y1="137291" x2="793" y2="137291"/>
			<line x1="535" y1="138752" x2="535" y2="0"/>
		</g>
		<g style="--index: 3;">
			<path d="M418,120961" tabindex="0">
				<title>l_rdqo542w-9d8eewld-wl30kw9l.jqzpyrgl</title>
			</path>
			<rect x="418" y="120961" width="0" height="0"/>
			<path d="M418,120961L418,120961" tabindex="0">
				<title>02:57.91 on 2022-07-08</title>
			</path>
			<line x1="0" y1="120961" x2="793" y2="120961"/>
			<line x1="418" y1="138752" x2="418" y2="0"/>
		</g>
		<g style="--index: 4;">
			<path d="M418,136308" tabindex="0">
				<title>l_rdqo542w-9d8eewld-wl30kw9l.jqzpyr4l</title>
			</path>
			<rect x="418" y="136308" width="0" height="0"/>
			<path d="M418,136308L418,136308" tabindex="0">
				<title>00:24.44 on 2022-07-08</title>
			</path>
			<line x1="0" y1="136308" x2="793" y2="136308"/>
			<line x1="418" y1="138752" x2="418" y2="0"/>
		</g>
		<g style="--index: 5;">
			<path d="M419,136822L570,136822L570,137180" tabindex="0">
				<title>l_o9xo3rp9-9d8eewld-7896y468.5lermx5q</title>
			</path>
			<rect x="419" y="136822" width="151" height="358"/>
			<path d="M419,136822L419,136822" tabindex="0">
				<title>00:19.30 on 2022-07-09</title>
			</path>
			<line x1="0" y1="136822" x2="793" y2="136822"/>
			<line x1="419" y1="138752" x2="419" y2="0"/>
			<path d="M570,137180L570,137180" tabindex="0">
				<title>00:15.72 on 2022-12-07</title>
			</path>
			<line x1="0" y1="137180" x2="793" y2="137180"/>
			<line x1="570" y1="138752" x2="570" y2="0"/>
		</g>
		<g style="--index: 6;">
			<path d="M419,122141L785,122141L785,125954" tabindex="0">
				<title>l_o9xo3rp9-9d8eewld-7896y468.5lmkgmjq</title>
			</path>
			<rect x="419" y="122141" width="366" height="3813"/>
			<path d="M419,122141L419,122141" tabindex="0">
				<title>02:46.11 on 2022-07-09</title>
			</path>
			<line x1="0" y1="122141" x2="793" y2="122141"/>
			<line x1="419" y1="138752" x2="419" y2="0"/>
			<path d="M785,125954L785,125954" tabindex="0">
				<title>02:07.98 on 2023-07-10</title>
			</path>
			<line x1="0" y1="125954" x2="793" y2="125954"/>
			<line x1="785" y1="138752" x2="785" y2="0"/>
		</g>
		<g style="--index: 7;">
			<path d="M419,137141L478,137141L478,137372L511,137372L511,137422" tabindex="0">
				<title>l_o9xo3rp9-9d8eewld-7896y468.9qj0x8el</title>
			</path>
			<rect x="419" y="137141" width="92" height="281"/>
			<path d="M419,137141L419,137141" tabindex="0">
				<title>00:16.11 on 2022-07-09</title>
			</path>
			<line x1="0" y1="137141" x2="793" y2="137141"/>
			<line x1="419" y1="138752" x2="419" y2="0"/>
			<path d="M478,137372L478,137372" tabindex="0">
				<title>00:13.80 on 2022-09-06</title>
			</path>
			<line x1="0" y1="137372" x2="793" y2="137372"/>
			<line x1="478" y1="138752" x2="478" y2="0"/>
			<path d="M511,137422L511,137422" tabindex="0">
				<title>00:13.30 on 2022-10-09</title>
			</path>
			<line x1="0" y1="137422" x2="793" y2="137422"/>
			<line x1="511" y1="138752" x2="511" y2="0"/>
		</g>
		<g style="--index: 8;">
			<path d="M419,137608" tabindex="0">
				<title>l_o9xo3rp9-9d8eewld-7896y468.jq60ze3q</title>
			</path>
			<rect x="419" y="137608" width="0" height="0"/>
			<path d="M419,137608L419,137608" tabindex="0">
				<title>00:11.44 on 2022-07-09</title>
			</path>
			<line x1="0" y1="137608" x2="793" y2="137608"/>
			<line x1="419" y1="138752" x2="419" y2="0"/>
		</g>
		<g style="--index: 9;">
			<path d="M419,137893L478,137893L478,137939L481,137939L481,137958" tabindex="0">
				<title>l_o9xo3rp9-9d8eewld-7896y468.013856dq</title>
			</path>
			<rect x="419" y="137893" width="62" height="65"/>
			<path d="M419,137893L419,137893" tabindex="0">
				<title>00:08.59 on 2022-07-09</title>
			</path>
			<line x1="0" y1="137893" x2="793" y2="137893"/>
			<line x1="419" y1="138752" x2="419" y2="0"/>
			<path d="M478,137939L478,137939" tabindex="0">
				<title>00:08.13 on 2022-09-06</title>
			</path>
			<line x1="0" y1="137939" x2="793" y2="137939"/>
			<line x1="478" y1="138752" x2="478" y2="0"/>
			<path d="M481,137958L481,137958" tabindex="0">
				<title>00:07.94 on 2022-09-09</title>
			</path>
			<line x1="0" y1="137958" x2="793" y2="137958"/>
			<line x1="481" y1="138752" x2="481" y2="0"/>
		</g>
		<g style="--index: 10;">
			<path d="M419,137224" tabindex="0">
				<title>l_o9xo3rp9-9d8eewld-7896y468.81wp50oq</title>
			</path>
			<rect x="419" y="137224" width="0" height="0"/>
			<path d="M419,137224L419,137224" tabindex="0">
				<title>00:15.28 on 2022-07-09</title>
			</path>
			<line x1="0" y1="137224" x2="793" y2="137224"/>
			<line x1="419" y1="138752" x2="419" y2="0"/>
		</g>
		<g style="--index: 11;">
			<path d="M419,137272" tabindex="0">
				<title>l_o9xo3rp9-9d8eewld-7896y468.rqvpey7q</title>
			</path>
			<rect x="419" y="137272" width="0" height="0"/>
			<path d="M419,137272L419,137272" tabindex="0">
				<title>00:14.80 on 2022-07-09</title>
			</path>
			<line x1="0" y1="137272" x2="793" y2="137272"/>
			<line x1="419" y1="138752" x2="419" y2="0"/>
		</g>
		<g style="--index: 12;">
			<path d="M467,103712" tabindex="0">
				<title>l_o9xo3rp9-xd144xzd-38dz6v1n.z19md2jl</title>
			</path>
			<rect x="467" y="103712" width="0" height="0"/>
			<path d="M467,103712L467,103712" tabindex="0">
				<title>05:50.40 on 2022-08-26</title>
			</path>
			<line x1="0" y1="103712" x2="793" y2="103712"/>
			<line x1="467" y1="138752" x2="467" y2="0"/>
		</g>
		<g style="--index: 13;">
			<path d="M468,129222" tabindex="0">
				<title>l_r9gn1qpd-xd144xzd-38dz6v1n.814y45w1</title>
			</path>
			<rect x="468" y="129222" width="0" height="0"/>
			<path d="M468,129222L468,129222" tabindex="0">
				<title>01:35.30 on 2022-08-27</title>
			</path>
			<line x1="0" y1="129222" x2="793" y2="129222"/>
			<line x1="468" y1="138752" x2="468" y2="0"/>
		</g>
		<g style="--index: 14;">
			<path d="M482,137272" tabindex="0">
				<title>l_r9gn1qpd-9d8eewld-0nwoqwkl.klrpy2jq</title>
			</path>
			<rect x="482" y="137272" width="0" height="0"/>
			<path d="M482,137272L482,137272" tabindex="0">
				<title>00:14.80 on 2022-09-10</title>
			</path>
			<line x1="0" y1="137272" x2="793" y2="137272"/>
			<line x1="482" y1="138752" x2="482" y2="0"/>
		</g>
		<g style="--index: 15;">
			<path d="M485,136833" tabindex="0">
				<title>l_r9gnozkd-rkl3znrk-wledz9en.814y0701</title>
			</path>
			<rect x="485" y="136833" width="0" height="0"/>
			<path d="M485,136833L485,136833" tabindex="0">
				<title>00:19.19 on 2022-09-13</title>
			</path>
			<line x1="0" y1="136833" x2="793" y2="136833"/>
			<line x1="485" y1="138752" x2="485" y2="0"/>
		</g>
		<g style="--index: 16;">
			<path d="M570,56322" tabindex="0">
				<title>xd17x94d-9l71pv4l.21gpn081</title>
			</path>
			<rect x="570" y="56322" width="0" height="0"/>
			<path d="M570,56322L570,56322" tabindex="0">
				<title>13:44.30 on 2022-12-07</title>
			</path>
			<line x1="0" y1="56322" x2="793" y2="56322"/>
			<line x1="570" y1="138752" x2="570" y2="0"/>
		</g>
		<g style="--index: 17;">
			<path d="M581,133686" tabindex="0">
				<title>l_r9gn1qpd-9d8eewld-0nwoqwkl.klr25nj1</title>
			</path>
			<rect x="581" y="133686" width="0" height="0"/>
			<path d="M581,133686L581,133686" tabindex="0">
				<title>00:50.66 on 2022-12-18</title>
			</path>
			<line x1="0" y1="133686" x2="793" y2="133686"/>
			<line x1="581" y1="138752" x2="581" y2="0"/>
		</g>
		<g style="--index: 18;">
			<path d="M680,127814" tabindex="0">
				<title>l_o9xo3rp9-9d8eewld-7896y468.4qywn341</title>
			</path>
			<rect x="680" y="127814" width="0" height="0"/>
			<path d="M680,127814L680,127814" tabindex="0">
				<title>01:49.38 on 2023-03-27</title>
			</path>
			<line x1="0" y1="127814" x2="793" y2="127814"/>
			<line x1="680" y1="138752" x2="680" y2="0"/>
		</g>
		<g style="--index: 19;">
			<path d="M783,126912" tabindex="0">
				<title>l_r9gn1qpd-9d8eewld-0nwoqwkl.gq7jrxvq</title>
			</path>
			<rect x="783" y="126912" width="0" height="0"/>
			<path d="M783,126912L783,126912" tabindex="0">
				<title>01:58.40 on 2023-07-08</title>
			</path>
			<line x1="0" y1="126912" x2="793" y2="126912"/>
			<line x1="783" y1="138752" x2="783" y2="0"/>
		</g>
		<g style="--index: 20;">
			<path d="M793,123598" tabindex="0">
				<title>l_o9xo3rp9-xd144xzd-38dz6v1n.q755eky1</title>
			</path>
			<rect x="793" y="123598" width="0" height="0"/>
			<path d="M793,123598L793,123598" tabindex="0">
				<title>02:31.54 on 2023-07-18</title>
			</path>
			<line x1="0" y1="123598" x2="793" y2="123598"/>
			<line x1="793" y1="138752" x2="793" y2="0"/>
		</g>
	</g>
</svg>
