<svg xmlns="http://www.w3.org/2000/svg" lang="en">
	<title>Score by leaderboard for player j51493z8</title>
	<metadata>
		<meta xmlns="http://www.w3.org/1999/xhtml" charset="utf-8" />
		<meta xmlns="http://www.w3.org/1999/xhtml" name="viewport" content="width=device-width" />
		<meta xmlns="http://www.w3.org/1999/xhtml" name="color-scheme" content="dark light" />
	</metadata>
	<style>
		*,
		::before,
		::after {
			box-sizing: border-box;
		}
		:root {
			background: var(--canvas-background);
			color: var(--canvas-foreground);
			fill: var(--canvas-background);
			stroke: var(--canvas-foreground);
			stroke-linejoin: round;
			stroke-linecap: round;
		}
		foreignObject {
			pointer-events: none;
		}
		foreignObject::before,
		foreignObject::after {
			content: "";
			position: absolute;
			z-index: 1;
			left: 20px;
			bottom: 20px;
			pointer-events: auto;
		}
		foreignObject::before {
			width: calc(100% - 40px);
			height: calc(20px + var(--date-size) * 1px);
		}
		foreignObject::after {
			width: calc(20px + var(--value-size) * 1px);
			height: calc(100% - 40px);
		}
		foreignObject &gt; div {
			position: absolute;
			z-index: 4;
			right: 0;
			top: 0;
			margin: 20px;
			border: 1px solid var(--canvas-foreground);
			background: var(--highlighted);
			font: 16px / 1.25 serif;
			transition: opacity 1s;
			pointer-events: auto;
		}
		foreignObject:is(:hover, :focus-within) &gt; div:not(:hover, :focus-within) {
			opacity: 0;
			pointer-events: none;
		}
		foreignObject &gt; div &gt; p {
			margin: 0;
		}
		label {
			display: table;
			border-collapse: separate;
			border-spacing: 10px;
			direction: rtl;
		}
		progress,
		input[type="checkbox"] {
			display: table-cell;
			width: 16px;
			height: 16px;
			margin: 2px;
			accent-color: var(--canvas-foreground);
			vertical-align: top;
			direction: ltr;
		}
		progress + span,
		input[type="checkbox"] + span {
			display: table-cell;
			vertical-align: top;
			direction: ltr;
		}
		input[type="checkbox"]:not(:disabled):is(:hover, :focus-within) + span {
			text-decoration: underline;
		}
		foreignObject &gt; svg:first-of-type,
		foreignObject &gt; svg:first-of-type + svg,
		foreignObject &gt; svg:first-of-type + svg + svg,
		foreignObject &gt; svg:first-of-type + svg + svg + svg {
			position: absolute;
			z-index: 2;
			margin: 0;
			padding: 10px;
			background: var(--highlighted);
			font: 16px / 1.25 serif;
			font-weight: bold;
			pointer-events: auto;
		}
		foreignObject &gt; svg:first-of-type,
		foreignObject &gt; svg:first-of-type + svg + svg {
			border-top: 1px solid #0000;
			border-bottom: 1px solid var(--canvas-foreground);
		}
		foreignObject &gt; svg:first-of-type + svg,
		foreignObject &gt; svg:first-of-type + svg + svg + svg {
			border-top: 1px dashed var(--canvas-foreground);
			border-bottom: 1px dashed #0000;
		}
		foreignObject &gt; svg:first-of-type,
		foreignObject &gt; svg:first-of-type + svg {
			width: calc(20px + var(--date-size) * 1px);
			height: 42px;
			bottom: 20px;
		}
		foreignObject &gt; svg:first-of-type {
			left: calc(40px + var(--value-size) * 1px);
			transform: rotate(90deg) translate(-100%, 0);
			transform-origin: left bottom;
		}
		foreignObject &gt; svg:first-of-type + svg {
			right: 20px;
			transform: rotate(90deg) translate(0, 100%);
			transform-origin: right bottom;
		}
		foreignObject &gt; svg:first-of-type + svg + svg,
		foreignObject &gt; svg:first-of-type + svg + svg + svg {
			width: calc(20px + var(--value-size) * 1px);
			height: 42px;
			left: 20px;
		}
		foreignObject &gt; svg:first-of-type + svg + svg {
			bottom: calc(40px + var(--date-size) * 1px);
		}
		foreignObject &gt; svg:first-of-type + svg + svg + svg {
			top: 20px;
		}
		foreignObject &gt; svg:first-of-type &gt; text,
		foreignObject &gt; svg:first-of-type + svg &gt; text,
		foreignObject &gt; svg:first-of-type + svg + svg &gt; text,
		foreignObject &gt; svg:first-of-type + svg + svg + svg &gt; text {
			fill: var(--canvas-foreground);
			stroke: none;
		}
		foreignObject &gt; svg:first-of-type &gt; text,
		foreignObject &gt; svg:first-of-type + svg &gt; text {
			cursor: vertical-text;
		}
		foreignObject &gt; svg:first-of-type + svg + svg + svg + svg {
			position: relative;
			z-index: 3;
			width: calc(100% - 60px - var(--value-size) * 1px);
			height: calc(100% - 60px - var(--date-size) * 1px);
			margin: 20px 20px calc(40px + var(--date-size) * 1px) calc(40px + var(--value-size) * 1px);
			border-left: 1px solid var(--canvas-foreground);
			border-right: 1px dashed var(--canvas-foreground);
			border-top: 1px dashed var(--canvas-foreground);
			border-bottom: 1px solid var(--canvas-foreground);
			background: var(--canvas-background);
			pointer-events: auto;
		}
		g &gt; rect {
			vector-effect: non-scaling-stroke;
			fill: var(--highlighted);
			stroke: none;
		}
		g &gt; rect[tabindex] {
			fill: var(--tier, #0000);
			cursor: help;
		}
		g &gt; rect[tabindex][data-tier="diamond"] {
			--tier: var(--diamond);
		}
		g &gt; rect[tabindex][data-tier="gold"] {
			--tier: var(--gold);
		}
		g &gt; rect[tabindex][data-tier="silver"] {
			--tier: var(--silver);
		}
		g &gt; rect[tabindex][data-tier="bronze"] {
			--tier: var(--bronze);
		}
		g &gt; path[tabindex] {
			vector-effect: non-scaling-stroke;
			fill: none;
			stroke: hsl(calc(var(--index) / var(--count) * 360), 50%, 50%);
			cursor: help;
		}
		g:is(:hover, :focus-within) &gt; path[tabindex] {
			stroke: var(--canvas-foreground);
		}
		g &gt; path[tabindex]:is(:hover, :focus-within) {
			outline: 0;
		}
		g &gt; path[tabindex]:first-of-type {
			stroke-width: 2;
		}
		g &gt; path[tabindex]:first-of-type:is(:hover, :focus-within) {
			stroke-width: 4;
		}
		g &gt; path[tabindex]:first-of-type:not(:last-of-type) {
			stroke-dasharray: 4 8;
		}
		g &gt; path[tabindex]:first-of-type + rect {
			fill: none;
		}
		g &gt; path[tabindex]:first-of-type:is(:hover, :focus-within) + rect {
			fill: var(--highlighted);
			pointer-events: none;
		}
		g &gt; path[tabindex]:first-of-type ~ path[tabindex] {
			stroke-width: 8;
		}
		g &gt; path[tabindex]:first-of-type ~ path[tabindex]:is(:hover, :focus-within) {
			stroke-width: 16;
		}
		g &gt; path[tabindex]:first-of-type ~ path[tabindex] + line,
		g &gt; path[tabindex]:first-of-type ~ path[tabindex] + line + line {
			vector-effect: non-scaling-stroke;
			fill: none;
			stroke: none;
			stroke-width: 2;
			stroke-dasharray: 4 8;
			pointer-events: none;
		}
		g &gt; path[tabindex]:first-of-type:is(:hover, :focus-within) + rect + path[tabindex] + line,
		g &gt; path[tabindex]:first-of-type:is(:hover, :focus-within) + rect + path[tabindex] + line + line,
		g &gt; path[tabindex]:first-of-type:is(:hover, :focus-within) ~ path[tabindex]:last-of-type + line,
		g &gt; path[tabindex]:first-of-type:is(:hover, :focus-within) ~ path[tabindex]:last-of-type + line + line,
		g &gt; path[tabindex]:first-of-type ~ path[tabindex]:is(:hover, :focus-within) + line,
		g &gt; path[tabindex]:first-of-type ~ path[tabindex]:is(:hover, :focus-within) + line + line {
			stroke: var(--faded);
		}
		@media (prefers-color-scheme: dark) {
			:root {
				--canvas-background: #000;
				--canvas-foreground: #ccc;
				--diamond: #0363;
				--gold: #6303;
				--silver: #3633;
				--bronze: #6363;
				--highlighted: #6663;
				--faded: #9993;
			}
		}
		@media (prefers-color-scheme: light) {
			:root {
				--canvas-background: #fff;
				--canvas-foreground: #333;
				--diamond: #9cf3;
				--gold: #fc93;
				--silver: #9c93;
				--bronze: #c9c3;
				--highlighted: #9993;
				--faded: #6663;
			}
		}
	</style>
	<script>
		"use strict";
		{
			const script = document.currentScript;
			const documentUrl = location.href;
			const scope = new URL("../../", documentUrl).pathname;
			const playersKey = `${scope}#players`;
			const leaderboardsKey = `${scope}#leaderboards`;
			const sessionKey = `${scope}#session`;
			const lockKey = `${scope}#lock`;
			async function importDataScript(dataScriptUrl, signal) {
				signal.throwIfAborted();
				if (documentUrl.protocol !== "file:") {
					const response = await fetch(dataScriptUrl, {
						signal,
					});
					if (!response.ok) {
						throw new Error(response.statusText);
					}
					const data = await response.json();
					return data;
				}
				return await new Promise((resolve, reject) =&gt; {
					const name = `callback${Math.random() * 2 ** 53}`;
					let called = false;
					let data = null;
					function callback(value) {
						if (!called) {
							called = true;
							data = value;
						}
					}
					window[name] = callback;
					const dataScript = document.createElementNS("http://www.w3.org/2000/svg", "script");
					dataScript.href = `${dataScriptUrl}&amp;callback=${name}`;
					function handleAbort(event) {
						delete window[name];
						dataScript.removeEventListener("error", handleError);
						dataScript.removeEventListener("load", handleLoad);
						dataScript.remove();
						const reason = signal.reason;
						reject(reason);
					}
					function handleError(event) {
						delete window[name];
						signal.removeEventListener("abort", handleAbort);
						dataScript.removeEventListener("load", handleLoad);
						dataScript.remove();
						const error = event.error;
						reject(error);
					}
					function handleLoad(event) {
						delete window[name];
						signal.removeEventListener("abort", handleAbort);
						dataScript.removeEventListener("error", handleError);
						dataScript.remove();
						resolve(data);
					}
					signal.addEventListener("abort", handleAbort, {
						once: true,
					});
					dataScript.addEventListener("error", handleError, {
						once: true,
					});
					dataScript.addEventListener("load", handleLoad, {
						once: true,
					});
					script.after(dataScript);
				});
			}
			async function waitForTimeout(delay, signal) {
				signal.throwIfAborted();
				return await new Promise((resolve, reject) =&gt; {
					let timeout = null;
					function handleAbort() {
						clearTimeout(timeout);
						const reason = signal.reason;
						reject(reason);
					}
					function handleTimeout() {
						signal.removeEventListener("abort", handleAbort);
						resolve(delay);
					}
					signal.addEventListener("abort", handleAbort, {
						once: true,
					});
					timeout = setTimeout(handleTimeout, delay);
				});
			}
			window.addEventListener("pageshow", (event) =&gt; {
				if (event.persisted) {
					console.log(`Successfully restored page from cache`);
				} else {
					console.log(`Unsuccessfully restored page from cache`);
				}
			});
			window.addEventListener("pagehide", (event) =&gt; {
				if (event.persisted) {
					console.log(`Successfully saved page to cache`);
				} else {
					console.log(`Unsuccessfully saved page to cache`);
				}
			});
			window.addEventListener("pageshow", async (event) =&gt; {
				const rootTitleElement = document.querySelector("title");
				const rootTitleContent = rootTitleElement.textContent;
				const pathTitleElements = Array.from(document.querySelectorAll("g &gt; path[tabindex]:first-of-type &gt; title"));
				const pathTitleContents = pathTitleElements.map((pathTitleElement) =&gt; {
					const pathTitleContent = pathTitleElement.textContent;
					return pathTitleContent;
				});
				const foreignObject = document.querySelector("foreignObject");
				const div = document.createElementNS("http://www.w3.org/1999/xhtml", "div");
				div.dir = "ltr";
				const p = document.createElementNS("http://www.w3.org/1999/xhtml", "p");
				const label = document.createElementNS("http://www.w3.org/1999/xhtml", "label");
				const progress = document.createElementNS("http://www.w3.org/1999/xhtml", "progress");
				label.append(progress);
				const span = document.createElementNS("http://www.w3.org/1999/xhtml", "span");
				span.textContent = "Loading names";
				label.append(span);
				p.append(label);
				div.append(p);
				foreignObject.prepend(div);
				let lock = false;
				let session = null;
				const broadcastChannel = new BroadcastChannel(sessionKey);
				const abortController = new AbortController();
				const signal = abortController.signal;
				const abort = abortController.abort.bind(abortController);
				const {promise, resolve} = Promise.withResolvers();
				broadcastChannel.addEventListener("message", (event) =&gt; {
					const data = event.data;
					const type = data.type;
					switch (type) {
						case "request": {
							if (lock &amp;&amp; signal.aborted) {
								broadcastChannel.postMessage({
									type: "response",
									session,
								});
							}
							break;
						}
						case "response": {
							if (!signal.aborted) {
								session = data.session;
								if (session != null) {
									const {players, leaderboards} = session;
									try {
										const cachedPlayers = JSON.stringify(players);
										const cachedLeaderboards = JSON.stringify(leaderboards);
										sessionStorage.setItem(playersKey, cachedPlayers);
										sessionStorage.setItem(leaderboardsKey, cachedLeaderboards);
									} catch {}
									console.log(`Successfully loaded names from peer`);
									abort();
									resolve();
								} else {
									console.log(`Unsuccessfully loaded names from peer`);
									abort();
									resolve();
								}
							}
							break;
						}
					}
				});
				try {
					const cachedPlayers = sessionStorage.getItem(playersKey);
					const cachedLeaderboards = sessionStorage.getItem(leaderboardsKey);
					if (cachedPlayers == null || cachedLeaderboards == null) {
						throw new Error();
					}
					const players = JSON.parse(cachedPlayers);
					const leaderboards = JSON.parse(cachedLeaderboards);
					session = {players, leaderboards};
				} catch {}
				if (session != null) {
					broadcastChannel.postMessage({
						type: "response",
						session,
					});
					console.log(`Successfully loaded names from local`);
					abort();
					resolve();
				} else {
					broadcastChannel.postMessage({
						type: "request",
					});
					console.log(`Unsuccessfully loaded names from local`);
				}
				(async () =&gt; {
					for (;;) {
						await navigator.locks.request(lockKey, async () =&gt; {
							lock = true;
							console.log(`Acquired lock`);
							if (!signal.aborted) {
								try {
									const players = Object.create(null);
									const leaderboards = Object.create(null);
									const games = ["9d3rrxyd", "w6jl2ned"];
									for (const gameId of games) {
										const {data} = await importDataScript(`https://www.speedrun.com/api/v1/games/${gameId}?embed=categories,levels,variables`, signal);
										const versions = data.variables.data.find((variable) =&gt; {
											return variable.name === "Version";
										});
										const levels = Object.fromEntries(data.levels.data.map((level) =&gt; {
											return [level.id, level];
										}));
										const categories = Object.fromEntries(data.categories.data.map((category) =&gt; {
											return [category.id, category];
										}));
										const variables = Object.fromEntries(data.variables.data.map((variable) =&gt; {
											return [variable.id, variable];
										}));
										console.log(`Got game`);
										await waitForTimeout(800, signal);
										const slice = 200;
										for (let offset = 0;; offset += slice) {
											const {data, pagination} = await importDataScript(`https://www.speedrun.com/api/v1/runs?game=${gameId}&amp;orderby=date&amp;direction=asc&amp;embed=players&amp;offset=${offset}&amp;max=${slice}`, signal);
											const {size} = pagination;
											if (size === 0) {
												break;
											}
											for (const run of data) {
												const status = run.status.status;
												if (status == null || status === "new") {
													continue;
												}
												const anonymous = (run.players.data[0]?.rel ?? "guest") !== "user";
												const player = !anonymous ? run.players.data[0].id : "814p2558";
												const playerName = !anonymous ? run.players.data[0].names.international : "anonymous";
												players[player] ??= playerName;
												const level = run.level;
												const category = run.category;
												const values = Object.entries(run.values).filter(([variable]) =&gt; {
													return variables[variable]?.["is-subcategory"] ?? false;
												}).map(([variable, value]) =&gt; {
													return `-${variable}.${value}`;
												});
												const leaderboard = `${level != null ? `l_${level}-` : ""}${category}${values.join("")}`;
												const levelName = run.level != null ? levels[run.level]?.name ?? null : null;
												const categoryName = categories[run.category]?.name ?? null;
												const valueNames = Object.entries(run.values).filter(([variable]) =&gt; {
													return variables[variable]?.["is-subcategory"] ?? false;
												}).map(([variable, value]) =&gt; {
													return variables[variable]?.values.values[value]?.label ?? null;
												}).filter((valueName) =&gt; {
													return valueName != null;
												});
												const leaderboardName = `${levelName != null ? `${levelName}: ` : ""}${categoryName ?? ""}${values.length !== 0 ? ` - ${valueNames.join(", ")}` : ""}`;
												leaderboards[leaderboard] ??= leaderboardName;
											}
											console.log(`Got runs ${offset}-${offset + size - 1}`);
											await waitForTimeout(800, signal);
										}
									}
									session = {players, leaderboards};
								} catch {}
								if (!signal.aborted) {
									if (session != null) {
										const {players, leaderboards} = session;
										try {
											const cachedPlayers = JSON.stringify(players);
											const cachedLeaderboards = JSON.stringify(leaderboards);
											sessionStorage.setItem(playersKey, cachedPlayers);
											sessionStorage.setItem(leaderboardsKey, cachedLeaderboards);
										} catch {}
										broadcastChannel.postMessage({
											type: "response",
											session,
										});
										console.log(`Successfully loaded names from remote`);
										abort();
										resolve();
									} else {
										broadcastChannel.postMessage({
											type: "response",
											session,
										});
										console.log(`Unsuccessfully loaded names from remote`);
										abort();
										resolve();
									}
								}
							}
							await new Promise((resolve) =&gt; {
								window.addEventListener("beforeunload", () =&gt; {
									resolve();
								}, {
									once: true,
								});
							});
						});
						lock = false;
						console.log(`Released lock`);
						await new Promise((resolve) =&gt; {
							window.addEventListener("pagehide", () =&gt; {
								resolve();
							}, {
								once: true,
							});
						});
						await new Promise((resolve) =&gt;{
							window.addEventListener("pageshow", () =&gt; {
								resolve();
							}, {
								once: true,
							});
						});
					}
				})();
				await promise;
				if (session == null) {
					const input = document.createElementNS("http://www.w3.org/1999/xhtml", "input");
					input.type = "checkbox";
					input.autocomplete = "off";
					input.disabled = true;
					input.indeterminate = true;
					progress.replaceWith(input);
					span.textContent = "Unavailable names";
					return;
				}
				const {players, leaderboards} = session;
				const hasPlayerRoot = rootTitleContent.includes(" for player");
				const hasLeaderboardRoot = rootTitleContent.includes(" for leaderboard");
				const rootTitle = {
					element: rootTitleElement,
					contentWithIds: rootTitleContent,
					contentWithNames: hasPlayerRoot ? rootTitleContent.replace(/ for player ([0-9_a-z]+)/, ($0, $1) =&gt; {
						return ` for player ${players[$1] ?? $1}`;
					}) : hasLeaderboardRoot ? rootTitleContent.replace(/ for leaderboard ((?:l_[0-9_a-z]+-)?[0-9_a-z]+(-[0-9_a-z]+\.[0-9_a-z]+)*)/, ($0, $1) =&gt; {
						return ` for leaderboard ${leaderboards[$1] ?? $1}`;
					}) : rootTitleContent,
				};
				const hasPlayerPaths = rootTitleContent.includes(" by player");
				const hasLeaderboardPaths = rootTitleContent.includes(" by leaderboard");
				const pathTitles = pathTitleElements.map((pathTitleElement, k) =&gt; {
					const pathTitleContent = pathTitleContents[k];
					const pathTitle = {
						element: pathTitleElement,
						contentWithIds: pathTitleContent,
						contentWithNames: hasPlayerPaths ? players[pathTitleContent] ?? pathTitleContent : hasLeaderboardPaths ? leaderboards[pathTitleContent] ?? pathTitleContent : pathTitleContent,
					};
					return pathTitle;
				});
				const input = document.createElementNS("http://www.w3.org/1999/xhtml", "input");
				input.type = "checkbox";
				input.autocomplete = "off";
				input.addEventListener("change", () =&gt; {
					input.disabled = true;
					if (input.checked) {
						rootTitle.element.textContent = rootTitle.contentWithNames;
						for (const pathTitle of pathTitles) {
							pathTitle.element.textContent = pathTitle.contentWithNames;
						}
					} else {
						rootTitle.element.textContent = rootTitle.contentWithIds;
						for (const pathTitle of pathTitles) {
							pathTitle.element.textContent = pathTitle.contentWithIds;
						}
					}
					input.disabled = false;
				});
				progress.replaceWith(input);
				span.textContent = "Reveal names";
			}, {
				once: true,
			});
		}
	</script>
	<script>
		"use strict";
		{
			document.addEventListener("DOMContentLoaded", (event) =&gt; {
				const minDateText = document.querySelector("foreignObject &gt; svg:first-of-type &gt; text");
				const maxDateText = document.querySelector("foreignObject &gt; svg:first-of-type + svg &gt; text");
				const startX = Math.round(Date.parse(minDateText.textContent) / 86400000);
				function xToDate(x) {
					const datetime = new Date((startX + x) * 86400000);
					const year = `${datetime.getUTCFullYear()}`.padStart(4, "0");
					const month = `${datetime.getUTCMonth() + 1}`.padStart(2, "0");
					const day = `${datetime.getUTCDate()}`.padStart(2, "0");
					const date = `${year}-${month}-${day}`;
					const size = date.length * 10;
					return {date, size};
				}
				function setMinDate(x) {
					const {date, size} = xToDate(Math.floor(x));
					minDateText.textLength.baseVal.value = size;
					minDateText.textContent = date;
				}
				function setMaxDate(x) {
					const {date, size} = xToDate(Math.ceil(x));
					maxDateText.textLength.baseVal.value = size;
					maxDateText.textContent = date;
				}
				const minValueText = document.querySelector("foreignObject &gt; svg:first-of-type + svg + svg &gt; text");
				const maxValueText = document.querySelector("foreignObject &gt; svg:first-of-type + svg + svg + svg &gt; text");
				const timed = minValueText.textContent.includes(":");
				function yToValue(y) {
					if (timed) {
						const minutes = `${(y - y % 6000) / 6000}`.padStart(2, "0");
						const seconds = `${(y - y % 100) / 100 % 60}`.padStart(2, "0");
						const centiseconds = `${y % 100}`.padStart(2, "0");
						const value = `${minutes}:${seconds}.${centiseconds}`;
						const size = value.length * 10;
						return {value, size};
					} else {
						const value = `${y}`;
						const size = value.length * 10;
						return {value, size};
					}
				}
				function setMinValue(y) {
					const {value, size} = yToValue(Math.floor(y));
					minValueText.textLength.baseVal.value = size;
					minValueText.textContent = value;
				}
				function setMaxValue(y) {
					const {value, size} = yToValue(Math.ceil(y));
					maxValueText.textLength.baseVal.value = size;
					maxValueText.textContent = value;
				}
				const svg = document.querySelector("foreignObject &gt; svg:first-of-type + svg + svg + svg + svg");
				svg.tabIndex = -1;
				svg.style.setProperty("outline", "0");
				if (CSS.supports("overflow-clip-margin", "8px")) {
					svg.style.setProperty("overflow", "clip");
					svg.style.setProperty("overflow-clip-margin", "8px");
				}
				svg.style.setProperty("touch-action", "none");
				const {x: baseX, y: baseY, width: baseWidth, height: baseHeight} = svg.viewBox.baseVal;
				let pointerCount = 0;
				const pointers = Object.create(null);
				const xPointerIds = [];
				const yPointerIds = [];
				let x = null;
				let y = null;
				let width = null;
				let height = null;
				svg.addEventListener("pointerdown", (event) =&gt; {
					const {pointerId} = event;
					if (pointerId in pointers) {
						return;
					}
					let {x: animX, y: animY, width: animWidth, height: animHeight} = svg.viewBox.baseVal;
					svg.setPointerCapture(pointerId);
					++pointerCount;
					const offsetX = event.offsetX;
					const offsetY = event.offsetY;
					pointers[pointerId] = {
						offsetX,
						offsetY,
					};
					xPointerIds.splice(xPointerIds.findLastIndex((pointerId) =&gt; {
						return pointers[pointerId].offsetX &lt;= offsetX;
					}) + 1, 0, pointerId);
					yPointerIds.splice(yPointerIds.findLastIndex((pointerId) =&gt; {
						return pointers[pointerId].offsetY &lt;= offsetY;
					}) + 1, 0, pointerId);
					const minOffsetX = pointers[xPointerIds[0]].offsetX;
					const minOffsetY = pointers[yPointerIds[0]].offsetY;
					const maxClientWidth = pointers[xPointerIds[pointerCount - 1]].offsetX - minOffsetX;
					const maxClientHeight = pointers[yPointerIds[pointerCount - 1]].offsetY - minOffsetY;
					width = Math.min(maxClientWidth / svg.clientWidth * animWidth, baseWidth);
					height = Math.min(maxClientHeight / svg.clientHeight * animHeight, baseHeight);
					x = Math.max(Math.min(animX + minOffsetX / svg.clientWidth * animWidth, baseX + baseWidth), baseX);
					y = Math.max(Math.min(animY + minOffsetY / svg.clientHeight * animHeight, baseY + baseHeight), baseY);
				});
				svg.addEventListener("pointerup", (event) =&gt; {
					const {pointerId} = event;
					if (!(pointerId in pointers)) {
						return;
					}
					let {x: animX, y: animY, width: animWidth, height: animHeight} = svg.viewBox.baseVal;
					svg.releasePointerCapture(pointerId);
					--pointerCount;
					delete pointers[pointerId];
					xPointerIds.splice(xPointerIds.lastIndexOf(pointerId), 1);
					yPointerIds.splice(yPointerIds.lastIndexOf(pointerId), 1);
					const minOffsetX = pointerCount !== 0 ? pointers[xPointerIds[0]].offsetX : null;
					const minOffsetY = pointerCount !== 0 ? pointers[yPointerIds[0]].offsetY : null;
					const maxClientWidth = pointerCount !== 0 ? pointers[xPointerIds[pointerCount - 1]].offsetX - minOffsetX : null;
					const maxClientHeight = pointerCount !== 0 ? pointers[yPointerIds[pointerCount - 1]].offsetY - minOffsetY : null;
					width = pointerCount !== 0 ? Math.min(maxClientWidth / svg.clientWidth * animWidth, baseWidth) : null;
					height = pointerCount !== 0 ? Math.min(maxClientHeight / svg.clientHeight * animHeight, baseHeight) : null;
					x = pointerCount !== 0 ? Math.max(Math.min(animX + minOffsetX / svg.clientWidth * animWidth, baseX + baseWidth), baseX) : null;
					y = pointerCount !== 0 ? Math.max(Math.min(animY + minOffsetY / svg.clientHeight * animHeight, baseY + baseHeight), baseY) : null;
				});
				svg.addEventListener("pointermove", (event) =&gt; {
					const {pointerId} = event;
					if (!(pointerId in pointers)) {
						return;
					}
					let {x: animX, y: animY, width: animWidth, height: animHeight} = svg.viewBox.baseVal;
					event.preventDefault();
					const offsetX = event.offsetX;
					const offsetY = event.offsetY;
					pointers[pointerId].offsetX = offsetX;
					pointers[pointerId].offsetY = offsetY;
					const oldXIndex = xPointerIds.lastIndexOf(pointerId);
					let newXIndex = oldXIndex;
					while (newXIndex &gt; 0 &amp;&amp; pointers[xPointerIds[newXIndex - 1]].offsetX &gt; offsetX) {
						--newXIndex;
					}
					xPointerIds.copyWithin(newXIndex + 1, newXIndex, oldXIndex);
					xPointerIds[newXIndex] = pointerId;
					while (newXIndex &lt; pointerCount - 1 &amp;&amp; pointers[xPointerIds[newXIndex + 1]].offsetX &lt; offsetX) {
						++newXIndex;
					}
					xPointerIds.copyWithin(oldXIndex, oldXIndex + 1, newXIndex + 1);
					xPointerIds[newXIndex] = pointerId;
					const oldYIndex = yPointerIds.lastIndexOf(pointerId);
					let newYIndex = oldYIndex;
					while (newYIndex &gt; 0 &amp;&amp; pointers[yPointerIds[newYIndex - 1]].offsetY &gt; offsetY) {
						--newYIndex;
					}
					yPointerIds.copyWithin(newYIndex + 1, newYIndex, oldYIndex);
					yPointerIds[newYIndex] = pointerId;
					while (newYIndex &lt; pointerCount - 1 &amp;&amp; pointers[yPointerIds[newYIndex + 1]].offsetY &lt; offsetY) {
						++newYIndex;
					}
					yPointerIds.copyWithin(oldYIndex, oldYIndex + 1, newYIndex + 1);
					yPointerIds[newYIndex] = pointerId;
					const minOffsetX = pointers[xPointerIds[0]].offsetX;
					const minOffsetY = pointers[yPointerIds[0]].offsetY;
					const maxClientWidth = pointers[xPointerIds[pointerCount - 1]].offsetX - minOffsetX;
					const maxClientHeight = pointers[yPointerIds[pointerCount - 1]].offsetY - minOffsetY;
					animWidth = width === 0 ? animWidth : maxClientWidth === 0 ? baseWidth : Math.min(svg.clientWidth / maxClientWidth * width, baseWidth);
					animHeight = height === 0 ? animHeight : maxClientHeight === 0 ? baseHeight : Math.min(svg.clientHeight / maxClientHeight * height, baseHeight);
					animX = Math.max(Math.min(x - minOffsetX / svg.clientWidth * animWidth, baseX + baseWidth - animWidth), baseX);
					animY = Math.max(Math.min(y - minOffsetY / svg.clientHeight * animHeight, baseY + baseHeight - animHeight), baseY);
					svg.viewBox.baseVal.x = animX;
					svg.viewBox.baseVal.y = animY;
					svg.viewBox.baseVal.width = animWidth;
					svg.viewBox.baseVal.height = animHeight;
					setMinDate(animX);
					setMaxDate(animX + animWidth);
					setMinValue(baseY * 2 + baseHeight - animHeight - animY);
					setMaxValue(baseY * 2 + baseHeight - animY);
				});
				const zoomIntensity = 1.25;
				svg.addEventListener("wheel", (event) =&gt; {
					let {x: animX, y: animY, width: animWidth, height: animHeight} = svg.viewBox.baseVal;
					const {ctrlKey, shiftKey} = event;
					event.preventDefault();
					if (pointerCount !== 0) {
						return;
					}
					if (!ctrlKey) {
						const vectorX = (shiftKey ? event.deltaY : event.deltaX) / svg.clientWidth * animWidth;
						const vectorY = (shiftKey ? 0 : event.deltaY) / svg.clientHeight * animHeight;
						animX = Math.max(Math.min(animX + vectorX, baseX + baseWidth - animWidth), baseX);
						animY = Math.max(Math.min(animY + vectorY, baseY + baseHeight - animHeight), baseY);
						svg.viewBox.baseVal.x = animX;
						svg.viewBox.baseVal.y = animY;
						setMinDate(animX);
						setMaxDate(animX + animWidth);
						setMinValue(baseY * 2 + baseHeight - animHeight - animY);
						setMaxValue(baseY * 2 + baseHeight - animY);
						return;
					}
					const ratioX = zoomIntensity ** Math.sign(shiftKey ? event.deltaY : event.deltaX);
					const ratioY = zoomIntensity ** Math.sign(shiftKey ? 0 : event.deltaY);
					const positionX = Math.max(0, Math.min(event.offsetX / svg.clientWidth, 1)) * animWidth;
					const positionY = Math.max(0, Math.min(event.offsetY / svg.clientHeight, 1)) * animHeight;
					animWidth = Math.min(animWidth * ratioX, baseWidth);
					animHeight = Math.min(animHeight * ratioY, baseHeight);
					animX = Math.max(Math.min(animX + positionX * (1 - ratioX), baseX + baseWidth - animWidth), baseX);
					animY = Math.max(Math.min(animY + positionY * (1 - ratioY), baseY + baseHeight - animHeight), baseY);
					svg.viewBox.baseVal.x = animX;
					svg.viewBox.baseVal.y = animY;
					svg.viewBox.baseVal.width = animWidth;
					svg.viewBox.baseVal.height = animHeight;
					setMinDate(animX);
					setMaxDate(animX + animWidth);
					setMinValue(baseY * 2 + baseHeight - animHeight - animY);
					setMaxValue(baseY * 2 + baseHeight - animY);
				}, {
					passive: false,
				});
				svg.addEventListener("keydown", (event) =&gt; {
					let {x: animX, y: animY, width: animWidth, height: animHeight} = svg.viewBox.baseVal;
					const {ctrlKey, shiftKey} = event;
					switch (event.code) {
						case "Space": {
							event.preventDefault();
							if (pointerCount !== 0) {
								return;
							}
							const vectorY = shiftKey ? -animHeight : animHeight;
							animY = Math.max(Math.min(animY + vectorY, baseY + baseHeight - animHeight), baseY);
							svg.viewBox.baseVal.y = animY;
							setMinValue(baseY * 2 + baseHeight - animHeight - animY);
							setMaxValue(baseY * 2 + baseHeight - animY);
							return;
						}
						case "Equal":
						case "NumpadAdd":
						case "Minus":
						case "NumpadSubtract": {
							event.preventDefault();
							if (pointerCount !== 0) {
								return;
							}
							const ratio = event.code === "Minus" || event.code === "NumpadSubtract" ? zoomIntensity : 1 / zoomIntensity;
							if (!shiftKey) {
								animHeight = Math.min(animHeight * ratio, baseHeight);
								animY = Math.max(Math.min(animY, baseY + baseHeight - animHeight), baseY);
								svg.viewBox.baseVal.y = animY;
								svg.viewBox.baseVal.height = animHeight;
								setMinValue(baseY * 2 + baseHeight - animHeight - animY);
								setMaxValue(baseY * 2 + baseHeight - animY);
								return;
							}
							animWidth = Math.min(animWidth * ratio, baseWidth);
							animX = Math.max(Math.min(animX, baseX + baseWidth - animWidth), baseX);
							svg.viewBox.baseVal.x = animX;
							svg.viewBox.baseVal.width = animWidth;
							setMinDate(animX);
							setMaxDate(animX + animWidth);
							return;
						}
						case "Digit0":
						case "Numpad0": {
							event.preventDefault();
							if (pointerCount !== 0) {
								return;
							}
							if (!shiftKey) {
								animY = baseY;
								animHeight = baseHeight;
								svg.viewBox.baseVal.y = animY;
								svg.viewBox.baseVal.height = animHeight;
								setMinValue(baseY * 2 + baseHeight - animHeight - animY);
								setMaxValue(baseY * 2 + baseHeight - animY);
								return;
							}
							animX = baseX;
							animWidth = baseWidth;
							svg.viewBox.baseVal.x = animX;
							svg.viewBox.baseVal.width = animWidth;
							setMinDate(animX);
							setMaxDate(animX + animWidth);
							return;
						}
					}
					switch (event.key) {
						case "ArrowRight": {
							event.preventDefault();
							if (pointerCount !== 0) {
								return;
							}
							const vectorX = 50 / svg.clientWidth * animWidth;
							animX = Math.max(Math.min(animX + vectorX, baseX + baseWidth - animWidth), baseX);
							svg.viewBox.baseVal.x = animX;
							setMinDate(animX);
							setMaxDate(animX + animWidth);
							return;
						}
						case "ArrowLeft": {
							event.preventDefault();
							if (pointerCount !== 0) {
								return;
							}
							const vectorX = -50 / svg.clientWidth * animWidth;
							animX = Math.max(Math.min(animX + vectorX, baseX + baseWidth - animWidth), baseX);
							svg.viewBox.baseVal.x = animX;
							setMinDate(animX);
							setMaxDate(animX + animWidth);
							return;
						}
						case "ArrowDown": {
							if (!ctrlKey) {
								event.preventDefault();
								if (pointerCount !== 0) {
									return;
								}
								const vectorY = 50 / svg.clientHeight * animHeight;
								animY = Math.max(Math.min(animY + vectorY, baseY + baseHeight - animHeight), baseY);
								svg.viewBox.baseVal.y = animY;
								setMinValue(baseY * 2 + baseHeight - animHeight - animY);
								setMaxValue(baseY * 2 + baseHeight - animY);
								return;
							}
						}
						case "End": {
							event.preventDefault();
							if (pointerCount !== 0) {
								return;
							}
							animY = baseY + baseHeight - animHeight;
							svg.viewBox.baseVal.y = animY;
							setMinValue(baseY * 2 + baseHeight - animHeight - animY);
							setMaxValue(baseY * 2 + baseHeight - animY);
							return;
						}
						case "ArrowUp": {
							if (!ctrlKey) {
								event.preventDefault();
								if (pointerCount !== 0) {
									return;
								}
								const vectorY = -50 / svg.clientHeight * animHeight;
								animY = Math.max(Math.min(animY + vectorY, baseY + baseHeight - animHeight), baseY);
								svg.viewBox.baseVal.y = animY;
								setMinValue(baseY * 2 + baseHeight - animHeight - animY);
								setMaxValue(baseY * 2 + baseHeight - animY);
								return;
							}
						}
						case "Home": {
							event.preventDefault();
							if (pointerCount !== 0) {
								return;
							}
							animY = baseY;
							svg.viewBox.baseVal.y = animY;
							setMinValue(baseY * 2 + baseHeight - animHeight - animY);
							setMaxValue(baseY * 2 + baseHeight - animY);
							return;
						}
						case "PageDown":
						case "PageUp":
						case " ": {
							event.preventDefault();
							if (pointerCount !== 0) {
								return;
							}
							const vectorY = event.key === "PageUp" || event.key === " " &amp;&amp; shiftKey ? -animHeight : animHeight;
							animY = Math.max(Math.min(animY + vectorY, baseY + baseHeight - animHeight), baseY);
							svg.viewBox.baseVal.y = animY;
							setMinValue(baseY * 2 + baseHeight - animHeight - animY);
							setMaxValue(baseY * 2 + baseHeight - animY);
							return;
						}
						case "+":
						case "-": {
							event.preventDefault();
							if (pointerCount !== 0) {
								return;
							}
							const ratio = event.key === "-" ? 1 / zoomIntensity : zoomIntensity;
							animWidth = Math.min(animWidth * ratio, baseWidth);
							animHeight = Math.min(animHeight * ratio, baseHeight);
							animX = Math.max(Math.min(animX, baseX + baseWidth - animWidth), baseX);
							animY = Math.max(Math.min(animY, baseY + baseHeight - animHeight), baseY);
							svg.viewBox.baseVal.x = animX;
							svg.viewBox.baseVal.y = animY;
							svg.viewBox.baseVal.width = animWidth;
							svg.viewBox.baseVal.height = animHeight;
							setMinDate(animX);
							setMaxDate(animX + animWidth);
							setMinValue(baseY * 2 + baseHeight - animHeight - animY);
							setMaxValue(baseY * 2 + baseHeight - animY);
							return;
						}
						case "0": {
							event.preventDefault();
							if (pointerCount !== 0) {
								return;
							}
							animX = baseX;
							animY = baseY;
							animWidth = baseWidth;
							animHeight = baseHeight;
							svg.viewBox.baseVal.x = animX;
							svg.viewBox.baseVal.y = animY;
							svg.viewBox.baseVal.width = animWidth;
							svg.viewBox.baseVal.height = animHeight;
							setMinDate(animX);
							setMaxDate(animX + animWidth);
							setMinValue(baseY * 2 + baseHeight - animHeight - animY);
							setMaxValue(baseY * 2 + baseHeight - animY);
							return;
						}
					}
				});
				svg.addEventListener("focusin", (event) =&gt; {
					if (!event.target.matches(":focus-visible")) {
						return;
					}
					event.preventDefault();
					if (pointerCount !== 0) {
						return;
					}
					let {x: animX, y: animY, width: animWidth, height: animHeight} = svg.viewBox.baseVal;
					let {x, y, width, height} = event.target.getBBox();
					width = Math.round(width);
					height = Math.round(height);
					x = Math.round(x);
					y = baseY * 2 + baseHeight - height - Math.round(y);
					if (x + width &lt; animX) {
						animX = x;
						if (width &gt; animWidth) {
							animX += (width - animWidth) / 2;
						}
					} else if (x &gt; animX + animWidth) {
						animX = x + width - animWidth;
						if (width &gt; animWidth) {
							animX -= (width - animWidth) / 2;
						}
					}
					if (y + height &lt; animY) {
						animY = y;
						if (height &gt; animHeight) {
							animY += (height - animHeight) / 2;
						}
					} else if (y &gt; animY + animHeight) {
						animY = y + height - animHeight;
						if (height &gt; animHeight) {
							animY -= (height - animHeight) / 2;
						}
					}
					svg.viewBox.baseVal.x = animX;
					svg.viewBox.baseVal.y = animY;
					setMinDate(animX);
					setMaxDate(animX + animWidth);
					setMinValue(baseY * 2 + baseHeight - animHeight - animY);
					setMaxValue(baseY * 2 + baseHeight - animY);
				});
			}, {
				once: true,
			});
		}
	</script>
	<foreignObject x="0" y="0" width="100%" height="100%" style="--date-size: 100; --value-size: 30;">
		<svg viewBox="0 0 100 20">
			<text x="50" y="10" dx="0" dy="2" textLength="100" lengthAdjust="spacingAndGlyphs" text-anchor="middle" dominant-baseline="middle">2021-05-22</text>
		</svg>
		<svg viewBox="0 0 100 20">
			<text x="50" y="10" dx="0" dy="2" textLength="100" lengthAdjust="spacingAndGlyphs" text-anchor="middle" dominant-baseline="middle">2026-03-30</text>
		</svg>
		<svg viewBox="0 0 30 20">
			<text x="15" y="10" dx="0" dy="2" textLength="10" lengthAdjust="spacingAndGlyphs" text-anchor="middle" dominant-baseline="middle">0</text>
		</svg>
		<svg viewBox="0 0 30 20">
			<text x="15" y="10" dx="0" dy="2" textLength="30" lengthAdjust="spacingAndGlyphs" text-anchor="middle" dominant-baseline="middle">347</text>
		</svg>
		<svg viewBox="0 0 1773 347" preserveAspectRatio="none" overflow="visible">
			<g transform="translate(0 347) scale(1 -1)" style="--count: 2;">
				<g>
					<rect x="0" y="0" width="1773" height="347"/>
				</g>
				<g style="--index: 0;">
					<path d="M0,0L0,0L0,19L65,19L65,20L149,20L149,21L228,21L228,22L235,22L235,23L248,23L248,24L288,24L288,25L294,25L294,26L297,26L297,27L299,27L299,28L307,28L307,29L320,29L320,30L328,30L328,31L344,31L344,32L348,32L348,31L349,31L349,33L352,33L352,34L378,34L378,34L400,34L400,35L405,35L405,36L407,36L407,37L410,37L410,38L413,38L413,39L420,39L420,40L428,40L428,41L432,41L432,42L433,42L433,43L444,43L444,44L448,44L448,45L451,45L451,46L454,46L454,47L455,47L455,47L457,47L457,48L459,48L459,49L460,49L460,50L518,50L518,51L522,51L522,51L532,51L532,52L538,52L538,53L553,53L553,54L560,54L560,55L568,55L568,56L594,56L594,57L598,57L598,58L600,58L600,59L613,59L613,60L615,60L615,61L659,61L659,62L664,62L664,62L665,62L665,63L666,63L666,64L672,64L672,65L678,65L678,64L680,64L680,64L682,64L682,65L684,65L684,66L688,66L688,67L692,67L692,68L695,68L695,69L700,69L700,70L702,70L702,71L705,71L705,71L721,71L721,72L722,72L722,72L728,72L728,74L732,74L732,75L733,75L733,76L757,76L757,77L771,77L771,78L783,78L783,79L785,79L785,80L787,80L787,80L811,80L811,81L814,81L814,82L821,82L821,83L829,83L829,84L858,84L858,84L869,84L869,85L876,85L876,86L878,86L878,87L894,87L894,88L895,88L895,89L909,89L909,90L921,90L921,91L924,91L924,93L988,93L988,94L989,94L989,95L990,95L990,94L1013,94L1013,95L1032,95L1032,96L1046,96L1046,97L1055,97L1055,98L1058,98L1058,99L1072,99L1072,99L1075,99L1075,99L1078,99L1078,100L1092,100L1092,101L1093,101L1093,103L1095,103L1095,102L1101,102L1101,103L1109,103L1109,102L1110,102L1110,104L1123,104L1123,105L1128,105L1128,106L1130,106L1130,107L1131,107L1131,108L1132,108L1132,109L1133,109L1133,109L1136,109L1136,110L1140,110L1140,111L1141,111L1141,110L1143,110L1143,111L1144,111L1144,112L1147,112L1147,113L1150,113L1150,114L1155,114L1155,115L1159,115L1159,116L1161,116L1161,117L1165,117L1165,118L1171,118L1171,119L1173,119L1173,120L1176,120L1176,121L1181,121L1181,122L1182,122L1182,121L1184,121L1184,122L1195,122L1195,123L1197,123L1197,125L1198,125L1198,124L1201,124L1201,123L1204,123L1204,123L1205,123L1205,124L1216,124L1216,125L1236,125L1236,126L1239,126L1239,127L1247,127L1247,127L1253,127L1253,128L1259,128L1259,129L1261,129L1261,128L1269,128L1269,128L1270,128L1270,129L1274,129L1274,129L1275,129L1275,129L1278,129L1278,130L1282,130L1282,130L1285,130L1285,132L1295,132L1295,132L1296,132L1296,132L1304,132L1304,133L1306,133L1306,134L1310,134L1310,135L1313,135L1313,136L1314,136L1314,137L1320,137L1320,138L1324,138L1324,139L1326,139L1326,141L1329,141L1329,142L1335,142L1335,144L1339,144L1339,145L1343,145L1343,146L1350,146L1350,147L1353,147L1353,148L1364,148L1364,149L1365,149L1365,148L1366,148L1366,149L1368,149L1368,149L1370,149L1370,150L1371,150L1371,150L1381,150L1381,151L1386,151L1386,151L1390,151L1390,151L1392,151L1392,151L1396,151L1396,151L1399,151L1399,152L1403,152L1403,153L1408,153L1408,154L1413,154L1413,155L1416,155L1416,156L1418,156L1418,157L1424,157L1424,158L1427,158L1427,159L1429,159L1429,160L1435,160L1435,161L1440,161L1440,162L1443,162L1443,163L1446,163L1446,164L1449,164L1449,166L1450,166L1450,167L1454,167L1454,168L1455,168L1455,168L1457,168L1457,168L1460,168L1460,167L1462,167L1462,168L1464,168L1464,169L1469,169L1469,168L1473,168L1473,169L1478,169L1478,170L1485,170L1485,170L1486,170L1486,172L1493,172L1493,174L1495,174L1495,174L1500,174L1500,175L1502,175L1502,175L1507,175L1507,176L1508,176L1508,177L1510,177L1510,178L1511,178L1511,178L1517,178L1517,178L1519,178L1519,179L1520,179L1520,180L1523,180L1523,181L1525,181L1525,182L1529,182L1529,183L1530,183L1530,185L1534,185L1534,186L1541,186L1541,189L1542,189L1542,190L1545,190L1545,191L1546,191L1546,193L1548,193L1548,194L1550,194L1550,193L1553,193L1553,194L1556,194L1556,194L1557,194L1557,195L1559,195L1559,197L1563,197L1563,197L1565,197L1565,197L1569,197L1569,198L1570,198L1570,198L1574,198L1574,199L1576,199L1576,199L1578,199L1578,200L1579,200L1579,202L1580,202L1580,204L1585,204L1585,205L1590,205L1590,205L1591,205L1591,206L1592,206L1592,206L1593,206L1593,206L1595,206L1595,207L1602,207L1602,208L1603,208L1603,210L1604,210L1604,214L1609,214L1609,215L1610,215L1610,218L1614,218L1614,219L1618,219L1618,220L1622,220L1622,222L1623,222L1623,223L1624,223L1624,222L1625,222L1625,224L1627,224L1627,225L1628,225L1628,226L1629,226L1629,228L1630,228L1630,230L1632,230L1632,231L1634,231L1634,235L1635,235L1635,237L1636,237L1636,238L1638,238L1638,240L1640,240L1640,241L1641,241L1641,242L1642,242L1642,244L1643,244L1643,244L1644,244L1644,245L1646,245L1646,246L1647,246L1647,247L1648,247L1648,248L1650,248L1650,248L1651,248L1651,249L1652,249L1652,249L1654,249L1654,250L1659,250L1659,251L1660,251L1660,251L1661,251L1661,253L1662,253L1662,254L1664,254L1664,255L1666,255L1666,256L1667,256L1667,257L1668,257L1668,258L1670,258L1670,259L1671,259L1671,260L1672,260L1672,261L1673,261L1673,262L1676,262L1676,262L1677,262L1677,263L1680,263L1680,264L1681,264L1681,265L1686,265L1686,266L1689,266L1689,268L1690,268L1690,269L1693,269L1693,269L1694,269L1694,270L1696,270L1696,271L1698,271L1698,272L1699,272L1699,274L1701,274L1701,276L1702,276L1702,278L1705,278L1705,279L1707,279L1707,279L1708,279L1708,280L1709,280L1709,281L1710,281L1710,283L1711,283L1711,283L1713,283L1713,284L1715,284L1715,285L1716,285L1716,289L1717,289L1717,290L1722,290L1722,292L1723,292L1723,293L1724,293L1724,293L1725,293L1725,293L1726,293L1726,296L1729,296L1729,297L1730,297L1730,299L1734,299L1734,300L1736,300L1736,302L1737,302L1737,305L1738,305L1738,306L1739,306L1739,308L1742,308L1742,308L1744,308L1744,309L1745,309L1745,311L1746,311L1746,312L1748,312L1748,313L1750,313L1750,315L1752,315L1752,316L1753,316L1753,317L1755,317L1755,318L1756,318L1756,319L1757,319L1757,319L1758,319L1758,321L1759,321L1759,325L1760,325L1760,326L1762,326L1762,327L1763,327L1763,331L1764,331L1764,332L1765,332L1765,334L1767,334L1767,335L1768,335L1768,336L1769,336L1769,337L1770,337L1770,339L1771,339L1771,341L1772,341L1772,345L1773,345L1773,347L1773,347" tabindex="0">
						<title>l_r9gn1qpd-9d8eewld-0nwoqwkl.jqzpx3gl</title>
					</path>
				</g>
				<g style="--index: 1;">
					<path d="M0,0L0,0L0,3L22,3L22,3L75,3L75,3L125,3L125,4L454,4L454,4L728,4L728,4L732,4L732,4L772,4L772,5L824,5L824,6L883,6L883,7L936,7L936,6L955,6L955,6L956,6L956,6L1055,6L1055,6L1079,6L1079,6L1291,6L1291,6L1366,6L1366,6L1371,6L1371,6L1381,6L1381,6L1388,6L1388,6L1521,6L1521,6L1527,6L1527,6L1659,6L1659,6L1701,6L1701,6L1712,6L1712,6L1719,6L1719,6L1729,6L1729,6L1764,6L1764,6L1773,6" tabindex="0">
						<title>l_ldykv1zw-rkl3znrk-wl3059ol.4qypgj4q</title>
					</path>
				</g>
			</g>
		</svg>
	</foreignObject>
</svg>
