<svg xmlns="http://www.w3.org/2000/svg" viewBox="0 0 588 6994" preserveAspectRatio="none" lang="en" style="color-scheme: dark light;">
		<title>Time by leaderboard for player j5vg1ez8</title>
		<style>
			svg {
				background: var(--canvas-background);
				fill: var(--canvas-background);
				stroke: var(--canvas-foreground);
				stroke-linejoin: round;
				stroke-linecap: round;
			}
			g &gt; path[tabindex] {
				vector-effect: non-scaling-stroke;
				fill: none;
				stroke: hsl(calc(var(--index) / var(--count) * 360), 50%, 50%);
				cursor: help;
			}
			g:is(:hover, :focus-within) &gt; path[tabindex] {
				stroke: var(--canvas-foreground);
			}
			g &gt; path[tabindex]:is(:hover, :focus-within) {
				outline: 0;
			}
			g &gt; path[tabindex]:first-of-type {
				stroke-width: 2;
			}
			g &gt; path[tabindex]:first-of-type:is(:hover, :focus-within) {
				stroke-width: 4;
			}
			g &gt; path[tabindex]:first-of-type:not(:last-of-type) {
				stroke-dasharray: 4 8;
			}
			g &gt; rect {
				vector-effect: non-scaling-stroke;
				fill: none;
				stroke: none;
				pointer-events: none;
			}
			g &gt; path[tabindex]:first-of-type:is(:hover, :focus-within) + rect {
				fill: var(--highlighted);
			}
			g &gt; path[tabindex]:first-of-type ~ path[tabindex] {
				stroke-width: 8;
			}
			g &gt; path[tabindex]:first-of-type ~ path[tabindex]:is(:hover, :focus-within) {
				stroke-width: 16;
			}
			g &gt; line {
				vector-effect: non-scaling-stroke;
				fill: none;
				stroke: none;
				stroke-width: 2;
				stroke-dasharray: 4 8;
				pointer-events: none;
			}
			g &gt; path[tabindex]:first-of-type:is(:hover, :focus-within) + rect + path[tabindex] + line,
			g &gt; path[tabindex]:first-of-type:is(:hover, :focus-within) + rect + path[tabindex] + line + line,
			g &gt; path[tabindex]:first-of-type:is(:hover, :focus-within) ~ path[tabindex]:last-of-type + line,
			g &gt; path[tabindex]:first-of-type:is(:hover, :focus-within) ~ path[tabindex]:last-of-type + line + line,
			g &gt; path[tabindex]:first-of-type ~ path[tabindex]:is(:hover, :focus-within) + line,
			g &gt; path[tabindex]:first-of-type ~ path[tabindex]:is(:hover, :focus-within) + line + line {
				stroke: var(--faded);
			}
			@media (prefers-color-scheme: dark) {
				:root {
					--canvas-background: #000;
					--canvas-foreground: #ccc;
					--highlighted: #6663;
					--faded: #9993;
				}
			}
			@media (prefers-color-scheme: light) {
				:root {
					--canvas-background: #fff;
					--canvas-foreground: #333;
					--highlighted: #9993;
					--faded: #6663;
				}
			}
		</style>
		<g style="--count: 7;">
		<g style="--index: 0;">
			<path d="M0,5212L9,5212L9,5333L238,5333L238,5398" tabindex="0">
				<title>l_o9xo3rp9-9d8eewld-7896y468.9qj0x8el</title>
			</path>
			<rect x="0" y="5212" width="238" height="186"/>
			<path d="M0,5212L0,5212" tabindex="0">
				<title>00:17.82 on 2021-09-07</title>
			</path>
			<line x1="0" y1="5212" x2="588" y2="5212"/>
			<line x1="0" y1="6994" x2="0" y2="0"/>
			<path d="M9,5333L9,5333" tabindex="0">
				<title>00:16.61 on 2021-09-16</title>
			</path>
			<line x1="0" y1="5333" x2="588" y2="5333"/>
			<line x1="9" y1="6994" x2="9" y2="0"/>
			<path d="M238,5398L238,5398" tabindex="0">
				<title>00:15.96 on 2022-05-03</title>
			</path>
			<line x1="0" y1="5398" x2="588" y2="5398"/>
			<line x1="238" y1="6994" x2="238" y2="0"/>
		</g>
		<g style="--index: 1;">
			<path d="M56,5679L83,5679L83,5738" tabindex="0">
				<title>l_o9xo3rp9-9d8eewld-7896y468.jq60ze3q</title>
			</path>
			<rect x="56" y="5679" width="27" height="59"/>
			<path d="M56,5679L56,5679" tabindex="0">
				<title>00:13.15 on 2021-11-02</title>
			</path>
			<line x1="0" y1="5679" x2="588" y2="5679"/>
			<line x1="56" y1="6994" x2="56" y2="0"/>
			<path d="M83,5738L83,5738" tabindex="0">
				<title>00:12.56 on 2021-11-29</title>
			</path>
			<line x1="0" y1="5738" x2="588" y2="5738"/>
			<line x1="83" y1="6994" x2="83" y2="0"/>
		</g>
		<g style="--index: 2;">
			<path d="M243,5756L397,5756L397,5903" tabindex="0">
				<title>l_r9gnozkd-rkl3znrk-wledz9en.81wpx5oq</title>
			</path>
			<rect x="243" y="5756" width="154" height="147"/>
			<path d="M243,5756L243,5756" tabindex="0">
				<title>00:12.38 on 2022-05-08</title>
			</path>
			<line x1="0" y1="5756" x2="588" y2="5756"/>
			<line x1="243" y1="6994" x2="243" y2="0"/>
			<path d="M397,5903L397,5903" tabindex="0">
				<title>00:10.91 on 2022-10-09</title>
			</path>
			<line x1="0" y1="5903" x2="588" y2="5903"/>
			<line x1="397" y1="6994" x2="397" y2="0"/>
		</g>
		<g style="--index: 3;">
			<path d="M270,6079" tabindex="0">
				<title>l_r9gn1qpd-9d8eewld-0nwoqwkl.jqzpx3gl</title>
			</path>
			<rect x="270" y="6079" width="0" height="0"/>
			<path d="M270,6079L270,6079" tabindex="0">
				<title>00:09.15 on 2022-06-04</title>
			</path>
			<line x1="0" y1="6079" x2="588" y2="6079"/>
			<line x1="270" y1="6994" x2="270" y2="0"/>
		</g>
		<g style="--index: 4;">
			<path d="M283,0L308,0L308,138L326,138L326,289" tabindex="0">
				<title>l_495zlx39-9d8eewld-2lgr793n.4lxpe62q</title>
			</path>
			<rect x="283" y="0" width="43" height="289"/>
			<path d="M283,0L283,0" tabindex="0">
				<title>01:09.94 on 2022-06-17</title>
			</path>
			<line x1="0" y1="0" x2="588" y2="0"/>
			<line x1="283" y1="6994" x2="283" y2="0"/>
			<path d="M308,138L308,138" tabindex="0">
				<title>01:08.56 on 2022-07-12</title>
			</path>
			<line x1="0" y1="138" x2="588" y2="138"/>
			<line x1="308" y1="6994" x2="308" y2="0"/>
			<path d="M326,289L326,289" tabindex="0">
				<title>01:07.05 on 2022-07-30</title>
			</path>
			<line x1="0" y1="289" x2="588" y2="289"/>
			<line x1="326" y1="6994" x2="326" y2="0"/>
		</g>
		<g style="--index: 5;">
			<path d="M509,154" tabindex="0">
				<title>l_495zlx39-9d8eewld-2lgr793n.mlno5r0q</title>
			</path>
			<rect x="509" y="154" width="0" height="0"/>
			<path d="M509,154L509,154" tabindex="0">
				<title>01:08.40 on 2023-01-29</title>
			</path>
			<line x1="0" y1="154" x2="588" y2="154"/>
			<line x1="509" y1="6994" x2="509" y2="0"/>
		</g>
		<g style="--index: 6;">
			<path d="M588,4119" tabindex="0">
				<title>l_495zlx39-9d8eewld-2lgr793n.21gp48n1</title>
			</path>
			<rect x="588" y="4119" width="0" height="0"/>
			<path d="M588,4119L588,4119" tabindex="0">
				<title>00:28.75 on 2023-04-18</title>
			</path>
			<line x1="0" y1="4119" x2="588" y2="4119"/>
			<line x1="588" y1="6994" x2="588" y2="0"/>
		</g>
	</g>
</svg>
