<svg xmlns="http://www.w3.org/2000/svg" viewBox="0 0 588 6994" preserveAspectRatio="none" lang="en" style="color-scheme: dark light;">
		<title>Time by leaderboard for player j5vg1ez8</title>
		<style>
			svg {
				background: var(--canvas-background);
				fill: var(--canvas-background);
				stroke: var(--canvas-foreground);
				stroke-linejoin: round;
				stroke-linecap: round;
			}
			g &gt; path[tabindex] {
				vector-effect: non-scaling-stroke;
				fill: none;
				stroke: hsl(calc(var(--index) / var(--count) * 360), 50%, 50%);
				cursor: help;
			}
			g:is(:hover, :focus-within) &gt; path[tabindex] {
				stroke: var(--canvas-foreground);
			}
			g &gt; path[tabindex]:is(:hover, :focus-within) {
				outline: 0;
			}
			g &gt; path[tabindex]:first-of-type {
				stroke-width: 2;
			}
			g &gt; path[tabindex]:first-of-type:is(:hover, :focus-within) {
				stroke-width: 4;
			}
			g &gt; path[tabindex]:first-of-type:not(:last-of-type) {
				stroke-dasharray: 4 8;
			}
			g &gt; rect {
				vector-effect: non-scaling-stroke;
				fill: none;
				stroke: none;
				pointer-events: none;
			}
			g &gt; path[tabindex]:first-of-type:is(:hover, :focus-within) + rect {
				fill: var(--highlighted);
			}
			g &gt; path[tabindex]:first-of-type ~ path[tabindex] {
				stroke-width: 8;
			}
			g &gt; path[tabindex]:first-of-type ~ path[tabindex]:is(:hover, :focus-within) {
				stroke-width: 16;
			}
			g &gt; line {
				vector-effect: non-scaling-stroke;
				fill: none;
				stroke: none;
				stroke-width: 2;
				stroke-dasharray: 4 8;
				pointer-events: none;
			}
			g &gt; path[tabindex]:first-of-type:is(:hover, :focus-within) + rect + path[tabindex] + line,
			g &gt; path[tabindex]:first-of-type:is(:hover, :focus-within) + rect + path[tabindex] + line + line,
			g &gt; path[tabindex]:first-of-type:is(:hover, :focus-within) ~ path[tabindex]:last-of-type + line,
			g &gt; path[tabindex]:first-of-type:is(:hover, :focus-within) ~ path[tabindex]:last-of-type + line + line,
			g &gt; path[tabindex]:first-of-type ~ path[tabindex]:is(:hover, :focus-within) + line,
			g &gt; path[tabindex]:first-of-type ~ path[tabindex]:is(:hover, :focus-within) + line + line {
				stroke: var(--faded);
			}
			@media (prefers-color-scheme: dark) {
				:root {
					--canvas-background: #000;
					--canvas-foreground: #ccc;
					--highlighted: #6663;
					--faded: #9993;
				}
			}
			@media (prefers-color-scheme: light) {
				:root {
					--canvas-background: #fff;
					--canvas-foreground: #333;
					--highlighted: #9993;
					--faded: #6663;
				}
			}
		</style>
		<g transform="scale(1 -1)" transform-origin="center center" style="--count: 7;">
		<g style="--index: 0;">
			<path d="M0,1782L9,1782L9,1661L238,1661L238,1596" tabindex="0">
				<title>l_o9xo3rp9-9d8eewld-7896y468.9qj0x8el</title>
			</path>
			<rect x="0" y="1596" width="238" height="186"/>
			<path d="M0,1782L0,1782" tabindex="0">
				<title>00:17.82 on 2021-09-07</title>
			</path>
			<line x1="0" y1="1782" x2="588" y2="1782"/>
			<line x1="0" y1="0" x2="0" y2="6994"/>
			<path d="M9,1661L9,1661" tabindex="0">
				<title>00:16.61 on 2021-09-16</title>
			</path>
			<line x1="0" y1="1661" x2="588" y2="1661"/>
			<line x1="9" y1="0" x2="9" y2="6994"/>
			<path d="M238,1596L238,1596" tabindex="0">
				<title>00:15.96 on 2022-05-03</title>
			</path>
			<line x1="0" y1="1596" x2="588" y2="1596"/>
			<line x1="238" y1="0" x2="238" y2="6994"/>
		</g>
		<g style="--index: 1;">
			<path d="M56,1315L83,1315L83,1256" tabindex="0">
				<title>l_o9xo3rp9-9d8eewld-7896y468.jq60ze3q</title>
			</path>
			<rect x="56" y="1256" width="27" height="59"/>
			<path d="M56,1315L56,1315" tabindex="0">
				<title>00:13.15 on 2021-11-02</title>
			</path>
			<line x1="0" y1="1315" x2="588" y2="1315"/>
			<line x1="56" y1="0" x2="56" y2="6994"/>
			<path d="M83,1256L83,1256" tabindex="0">
				<title>00:12.56 on 2021-11-29</title>
			</path>
			<line x1="0" y1="1256" x2="588" y2="1256"/>
			<line x1="83" y1="0" x2="83" y2="6994"/>
		</g>
		<g style="--index: 2;">
			<path d="M243,1238L397,1238L397,1091" tabindex="0">
				<title>l_r9gnozkd-rkl3znrk-wledz9en.81wpx5oq</title>
			</path>
			<rect x="243" y="1091" width="154" height="147"/>
			<path d="M243,1238L243,1238" tabindex="0">
				<title>00:12.38 on 2022-05-08</title>
			</path>
			<line x1="0" y1="1238" x2="588" y2="1238"/>
			<line x1="243" y1="0" x2="243" y2="6994"/>
			<path d="M397,1091L397,1091" tabindex="0">
				<title>00:10.91 on 2022-10-09</title>
			</path>
			<line x1="0" y1="1091" x2="588" y2="1091"/>
			<line x1="397" y1="0" x2="397" y2="6994"/>
		</g>
		<g style="--index: 3;">
			<path d="M270,915" tabindex="0">
				<title>l_r9gn1qpd-9d8eewld-0nwoqwkl.jqzpx3gl</title>
			</path>
			<rect x="270" y="915" width="0" height="0"/>
			<path d="M270,915L270,915" tabindex="0">
				<title>00:09.15 on 2022-06-04</title>
			</path>
			<line x1="0" y1="915" x2="588" y2="915"/>
			<line x1="270" y1="0" x2="270" y2="6994"/>
		</g>
		<g style="--index: 4;">
			<path d="M283,6994L308,6994L308,6856L326,6856L326,6705" tabindex="0">
				<title>l_495zlx39-9d8eewld-2lgr793n.4lxpe62q</title>
			</path>
			<rect x="283" y="6705" width="43" height="289"/>
			<path d="M283,6994L283,6994" tabindex="0">
				<title>01:09.94 on 2022-06-17</title>
			</path>
			<line x1="0" y1="6994" x2="588" y2="6994"/>
			<line x1="283" y1="0" x2="283" y2="6994"/>
			<path d="M308,6856L308,6856" tabindex="0">
				<title>01:08.56 on 2022-07-12</title>
			</path>
			<line x1="0" y1="6856" x2="588" y2="6856"/>
			<line x1="308" y1="0" x2="308" y2="6994"/>
			<path d="M326,6705L326,6705" tabindex="0">
				<title>01:07.05 on 2022-07-30</title>
			</path>
			<line x1="0" y1="6705" x2="588" y2="6705"/>
			<line x1="326" y1="0" x2="326" y2="6994"/>
		</g>
		<g style="--index: 5;">
			<path d="M509,6840" tabindex="0">
				<title>l_495zlx39-9d8eewld-2lgr793n.mlno5r0q</title>
			</path>
			<rect x="509" y="6840" width="0" height="0"/>
			<path d="M509,6840L509,6840" tabindex="0">
				<title>01:08.40 on 2023-01-29</title>
			</path>
			<line x1="0" y1="6840" x2="588" y2="6840"/>
			<line x1="509" y1="0" x2="509" y2="6994"/>
		</g>
		<g style="--index: 6;">
			<path d="M588,2875" tabindex="0">
				<title>l_495zlx39-9d8eewld-2lgr793n.21gp48n1</title>
			</path>
			<rect x="588" y="2875" width="0" height="0"/>
			<path d="M588,2875L588,2875" tabindex="0">
				<title>00:28.75 on 2023-04-18</title>
			</path>
			<line x1="0" y1="2875" x2="588" y2="2875"/>
			<line x1="588" y1="0" x2="588" y2="6994"/>
		</g>
	</g>
</svg>
