<svg xmlns="http://www.w3.org/2000/svg" viewBox="0 0 999 34848" preserveAspectRatio="none" lang="en" style="color-scheme: dark light;">
		<title>Time by leaderboard for player j9rlkzoj</title>
		<style>
			svg {
				background: var(--canvas-background);
				fill: var(--canvas-background);
				stroke: var(--canvas-foreground);
				stroke-linejoin: round;
				stroke-linecap: round;
			}
			g &gt; path[tabindex] {
				vector-effect: non-scaling-stroke;
				fill: none;
				stroke: hsl(calc(var(--index) / var(--count) * 360), 50%, 50%);
				cursor: help;
			}
			g:is(:hover, :focus-within) &gt; path[tabindex] {
				stroke: var(--canvas-foreground);
			}
			g &gt; path[tabindex]:is(:hover, :focus-within) {
				outline: 0;
			}
			g &gt; path[tabindex]:first-of-type {
				stroke-width: 2;
			}
			g &gt; path[tabindex]:first-of-type:is(:hover, :focus-within) {
				stroke-width: 4;
			}
			g &gt; path[tabindex]:first-of-type:not(:last-of-type) {
				stroke-dasharray: 4 8;
			}
			g &gt; rect {
				vector-effect: non-scaling-stroke;
				fill: none;
				stroke: none;
				pointer-events: none;
			}
			g &gt; path[tabindex]:first-of-type:is(:hover, :focus-within) + rect {
				fill: var(--highlighted);
			}
			g &gt; path[tabindex]:first-of-type ~ path[tabindex] {
				stroke-width: 8;
			}
			g &gt; path[tabindex]:first-of-type ~ path[tabindex]:is(:hover, :focus-within) {
				stroke-width: 16;
			}
			g &gt; line {
				vector-effect: non-scaling-stroke;
				fill: none;
				stroke: none;
				stroke-width: 2;
				stroke-dasharray: 4 8;
				pointer-events: none;
			}
			g &gt; path[tabindex]:first-of-type:is(:hover, :focus-within) + rect + path[tabindex] + line,
			g &gt; path[tabindex]:first-of-type:is(:hover, :focus-within) + rect + path[tabindex] + line + line,
			g &gt; path[tabindex]:first-of-type:is(:hover, :focus-within) ~ path[tabindex]:last-of-type + line,
			g &gt; path[tabindex]:first-of-type:is(:hover, :focus-within) ~ path[tabindex]:last-of-type + line + line,
			g &gt; path[tabindex]:first-of-type ~ path[tabindex]:is(:hover, :focus-within) + line,
			g &gt; path[tabindex]:first-of-type ~ path[tabindex]:is(:hover, :focus-within) + line + line {
				stroke: var(--faded);
			}
			@media (prefers-color-scheme: dark) {
				:root {
					--canvas-background: #000;
					--canvas-foreground: #ccc;
					--highlighted: #6663;
					--faded: #9993;
				}
			}
			@media (prefers-color-scheme: light) {
				:root {
					--canvas-background: #fff;
					--canvas-foreground: #333;
					--highlighted: #9993;
					--faded: #6663;
				}
			}
		</style>
		<g transform="scale(1 -1)" transform-origin="center center" style="--count: 17;">
		<g style="--index: 0;">
			<path d="M0,2150L999,2150L999,1016" tabindex="0">
				<title>l_r9gn1qpd-9d8eewld-0nwoqwkl.81ppdgg1</title>
			</path>
			<rect x="0" y="1016" width="999" height="1134"/>
			<path d="M0,2150L0,2150" tabindex="0">
				<title>00:21.50 on 2019-08-13</title>
			</path>
			<line x1="0" y1="2150" x2="999" y2="2150"/>
			<line x1="0" y1="0" x2="0" y2="34848"/>
			<path d="M999,1016L999,1016" tabindex="0">
				<title>00:10.16 on 2022-05-08</title>
			</path>
			<line x1="0" y1="1016" x2="999" y2="1016"/>
			<line x1="999" y1="0" x2="999" y2="34848"/>
		</g>
		<g style="--index: 1;">
			<path d="M0,2320" tabindex="0">
				<title>l_r9gn1qpd-9d8eewld-0nwoqwkl.21dz3e4l</title>
			</path>
			<rect x="0" y="2320" width="0" height="0"/>
			<path d="M0,2320L0,2320" tabindex="0">
				<title>00:23.20 on 2019-08-13</title>
			</path>
			<line x1="0" y1="2320" x2="999" y2="2320"/>
			<line x1="0" y1="0" x2="0" y2="34848"/>
		</g>
		<g style="--index: 2;">
			<path d="M1,34848" tabindex="0">
				<title>l_r9gn1qpd-9d8eewld-0nwoqwkl.gq7jrxvq</title>
			</path>
			<rect x="1" y="34848" width="0" height="0"/>
			<path d="M1,34848L1,34848" tabindex="0">
				<title>05:48.48 on 2019-08-14</title>
			</path>
			<line x1="0" y1="34848" x2="999" y2="34848"/>
			<line x1="1" y1="0" x2="1" y2="34848"/>
		</g>
		<g style="--index: 3;">
			<path d="M1,2603" tabindex="0">
				<title>l_r9gn1qpd-9d8eewld-0nwoqwkl.klrpy2jq</title>
			</path>
			<rect x="1" y="2603" width="0" height="0"/>
			<path d="M1,2603L1,2603" tabindex="0">
				<title>00:26.03 on 2019-08-14</title>
			</path>
			<line x1="0" y1="2603" x2="999" y2="2603"/>
			<line x1="1" y1="0" x2="1" y2="34848"/>
		</g>
		<g style="--index: 4;">
			<path d="M1,1711" tabindex="0">
				<title>l_r9gn1qpd-9d8eewld-0nwoqwkl.jqzpx3gl</title>
			</path>
			<rect x="1" y="1711" width="0" height="0"/>
			<path d="M1,1711L1,1711" tabindex="0">
				<title>00:17.11 on 2019-08-14</title>
			</path>
			<line x1="0" y1="1711" x2="999" y2="1711"/>
			<line x1="1" y1="0" x2="1" y2="34848"/>
		</g>
		<g style="--index: 5;">
			<path d="M1,7384" tabindex="0">
				<title>l_r9gn1qpd-9d8eewld-0nwoqwkl.p12dx87q</title>
			</path>
			<rect x="1" y="7384" width="0" height="0"/>
			<path d="M1,7384L1,7384" tabindex="0">
				<title>01:13.84 on 2019-08-14</title>
			</path>
			<line x1="0" y1="7384" x2="999" y2="7384"/>
			<line x1="1" y1="0" x2="1" y2="34848"/>
		</g>
		<g style="--index: 6;">
			<path d="M1,2566" tabindex="0">
				<title>l_r9gn1qpd-9d8eewld-0nwoqwkl.21g82pnl</title>
			</path>
			<rect x="1" y="2566" width="0" height="0"/>
			<path d="M1,2566L1,2566" tabindex="0">
				<title>00:25.66 on 2019-08-14</title>
			</path>
			<line x1="0" y1="2566" x2="999" y2="2566"/>
			<line x1="1" y1="0" x2="1" y2="34848"/>
		</g>
		<g style="--index: 7;">
			<path d="M1,2133" tabindex="0">
				<title>l_r9gn1qpd-9d8eewld-0nwoqwkl.xqkjmxnl</title>
			</path>
			<rect x="1" y="2133" width="0" height="0"/>
			<path d="M1,2133L1,2133" tabindex="0">
				<title>00:21.33 on 2019-08-14</title>
			</path>
			<line x1="0" y1="2133" x2="999" y2="2133"/>
			<line x1="1" y1="0" x2="1" y2="34848"/>
		</g>
		<g style="--index: 8;">
			<path d="M13,10212" tabindex="0">
				<title>l_o9xo3rp9-9d8eewld-7896y468.810zwdwq</title>
			</path>
			<rect x="13" y="10212" width="0" height="0"/>
			<path d="M13,10212L13,10212" tabindex="0">
				<title>01:42.12 on 2019-08-26</title>
			</path>
			<line x1="0" y1="10212" x2="999" y2="10212"/>
			<line x1="13" y1="0" x2="13" y2="34848"/>
		</g>
		<g style="--index: 9;">
			<path d="M13,2082" tabindex="0">
				<title>l_o9xo3rp9-9d8eewld-7896y468.jq60ze3q</title>
			</path>
			<rect x="13" y="2082" width="0" height="0"/>
			<path d="M13,2082L13,2082" tabindex="0">
				<title>00:20.82 on 2019-08-26</title>
			</path>
			<line x1="0" y1="2082" x2="999" y2="2082"/>
			<line x1="13" y1="0" x2="13" y2="34848"/>
		</g>
		<g style="--index: 10;">
			<path d="M13,1122" tabindex="0">
				<title>l_o9xo3rp9-9d8eewld-7896y468.013856dq</title>
			</path>
			<rect x="13" y="1122" width="0" height="0"/>
			<path d="M13,1122L13,1122" tabindex="0">
				<title>00:11.22 on 2019-08-26</title>
			</path>
			<line x1="0" y1="1122" x2="999" y2="1122"/>
			<line x1="13" y1="0" x2="13" y2="34848"/>
		</g>
		<g style="--index: 11;">
			<path d="M159,1943" tabindex="0">
				<title>l_o9xo3rp9-9d8eewld-7896y468.rqvpey7q</title>
			</path>
			<rect x="159" y="1943" width="0" height="0"/>
			<path d="M159,1943L159,1943" tabindex="0">
				<title>00:19.43 on 2020-01-19</title>
			</path>
			<line x1="0" y1="1943" x2="999" y2="1943"/>
			<line x1="159" y1="0" x2="159" y2="34848"/>
		</g>
		<g style="--index: 12;">
			<path d="M566,3105" tabindex="0">
				<title>l_r9gnozkd-rkl3znrk-wledz9en.814y0701</title>
			</path>
			<rect x="566" y="3105" width="0" height="0"/>
			<path d="M566,3105L566,3105" tabindex="0">
				<title>00:31.05 on 2021-03-01</title>
			</path>
			<line x1="0" y1="3105" x2="999" y2="3105"/>
			<line x1="566" y1="0" x2="566" y2="34848"/>
		</g>
		<g style="--index: 13;">
			<path d="M567,5586" tabindex="0">
				<title>l_r9gnozkd-rkl3znrk-wledz9en.z19mo80l</title>
			</path>
			<rect x="567" y="5586" width="0" height="0"/>
			<path d="M567,5586L567,5586" tabindex="0">
				<title>00:55.86 on 2021-03-02</title>
			</path>
			<line x1="0" y1="5586" x2="999" y2="5586"/>
			<line x1="567" y1="0" x2="567" y2="34848"/>
		</g>
		<g style="--index: 14;">
			<path d="M568,3164" tabindex="0">
				<title>l_r9gnozkd-rkl3znrk-wledz9en.jq606z3q</title>
			</path>
			<rect x="568" y="3164" width="0" height="0"/>
			<path d="M568,3164L568,3164" tabindex="0">
				<title>00:31.64 on 2021-03-03</title>
			</path>
			<line x1="0" y1="3164" x2="999" y2="3164"/>
			<line x1="568" y1="0" x2="568" y2="34848"/>
		</g>
		<g style="--index: 15;">
			<path d="M758,3784" tabindex="0">
				<title>l_r9gnozkd-rkl3znrk-wledz9en.zqop6rp1</title>
			</path>
			<rect x="758" y="3784" width="0" height="0"/>
			<path d="M758,3784L758,3784" tabindex="0">
				<title>00:37.84 on 2021-09-09</title>
			</path>
			<line x1="0" y1="3784" x2="999" y2="3784"/>
			<line x1="758" y1="0" x2="758" y2="34848"/>
		</g>
		<g style="--index: 16;">
			<path d="M758,1634" tabindex="0">
				<title>9kv6l5e2-ql6rezjl.jq6d86v1</title>
			</path>
			<rect x="758" y="1634" width="0" height="0"/>
			<path d="M758,1634L758,1634" tabindex="0">
				<title>00:16.34 on 2021-09-09</title>
			</path>
			<line x1="0" y1="1634" x2="999" y2="1634"/>
			<line x1="758" y1="0" x2="758" y2="34848"/>
		</g>
	</g>
</svg>
