<svg xmlns="http://www.w3.org/2000/svg" viewBox="0 0 566 146016" preserveAspectRatio="none" lang="en" style="color-scheme: dark light;">
		<title>Time by leaderboard for player jn2m23wj</title>
		<style>
			svg {
				background: var(--canvas-background);
				fill: var(--canvas-background);
				stroke: var(--canvas-foreground);
				stroke-linejoin: round;
				stroke-linecap: round;
			}
			g &gt; path[tabindex] {
				vector-effect: non-scaling-stroke;
				fill: none;
				stroke: hsl(calc(var(--index) / var(--count) * 360), 50%, 50%);
				cursor: help;
			}
			g:is(:hover, :focus-within) &gt; path[tabindex] {
				stroke: var(--canvas-foreground);
			}
			g &gt; path[tabindex]:is(:hover, :focus-within) {
				outline: 0;
			}
			g &gt; path[tabindex]:first-of-type {
				stroke-width: 2;
			}
			g &gt; path[tabindex]:first-of-type:is(:hover, :focus-within) {
				stroke-width: 4;
			}
			g &gt; path[tabindex]:first-of-type:not(:last-of-type) {
				stroke-dasharray: 4 8;
			}
			g &gt; rect {
				vector-effect: non-scaling-stroke;
				fill: none;
				stroke: none;
				pointer-events: none;
			}
			g &gt; path[tabindex]:first-of-type:is(:hover, :focus-within) + rect {
				fill: var(--highlighted);
			}
			g &gt; path[tabindex]:first-of-type ~ path[tabindex] {
				stroke-width: 8;
			}
			g &gt; path[tabindex]:first-of-type ~ path[tabindex]:is(:hover, :focus-within) {
				stroke-width: 16;
			}
			g &gt; line {
				vector-effect: non-scaling-stroke;
				fill: none;
				stroke: none;
				stroke-width: 2;
				stroke-dasharray: 4 8;
				pointer-events: none;
			}
			g &gt; path[tabindex]:first-of-type:is(:hover, :focus-within) + rect + path[tabindex] + line,
			g &gt; path[tabindex]:first-of-type:is(:hover, :focus-within) + rect + path[tabindex] + line + line,
			g &gt; path[tabindex]:first-of-type:is(:hover, :focus-within) ~ path[tabindex]:last-of-type + line,
			g &gt; path[tabindex]:first-of-type:is(:hover, :focus-within) ~ path[tabindex]:last-of-type + line + line,
			g &gt; path[tabindex]:first-of-type ~ path[tabindex]:is(:hover, :focus-within) + line,
			g &gt; path[tabindex]:first-of-type ~ path[tabindex]:is(:hover, :focus-within) + line + line {
				stroke: var(--faded);
			}
			@media (prefers-color-scheme: dark) {
				:root {
					--canvas-background: #000;
					--canvas-foreground: #ccc;
					--highlighted: #6663;
					--faded: #9993;
				}
			}
			@media (prefers-color-scheme: light) {
				:root {
					--canvas-background: #fff;
					--canvas-foreground: #333;
					--highlighted: #9993;
					--faded: #6663;
				}
			}
		</style>
		<g style="--count: 52;">
		<g style="--index: 0;">
			<path d="M0,0L9,0L9,21225L52,21225L52,42596L79,42596L79,49360L102,49360L102,51785L258,51785L258,57159" tabindex="0">
				<title>xd17x94d-9l71pv4l.zqo20y2l</title>
			</path>
			<rect x="0" y="0" width="258" height="57159"/>
			<path d="M0,0L0,0" tabindex="0">
				<title>24:20.16 on 2022-07-30</title>
			</path>
			<line x1="0" y1="0" x2="566" y2="0"/>
			<line x1="0" y1="146016" x2="0" y2="0"/>
			<path d="M9,21225L9,21225" tabindex="0">
				<title>20:47.91 on 2022-08-08</title>
			</path>
			<line x1="0" y1="21225" x2="566" y2="21225"/>
			<line x1="9" y1="146016" x2="9" y2="0"/>
			<path d="M52,42596L52,42596" tabindex="0">
				<title>17:14.20 on 2022-09-20</title>
			</path>
			<line x1="0" y1="42596" x2="566" y2="42596"/>
			<line x1="52" y1="146016" x2="52" y2="0"/>
			<path d="M79,49360L79,49360" tabindex="0">
				<title>16:06.56 on 2022-10-17</title>
			</path>
			<line x1="0" y1="49360" x2="566" y2="49360"/>
			<line x1="79" y1="146016" x2="79" y2="0"/>
			<path d="M102,51785L102,51785" tabindex="0">
				<title>15:42.31 on 2022-11-09</title>
			</path>
			<line x1="0" y1="51785" x2="566" y2="51785"/>
			<line x1="102" y1="146016" x2="102" y2="0"/>
			<path d="M258,57159L258,57159" tabindex="0">
				<title>14:48.57 on 2023-04-14</title>
			</path>
			<line x1="0" y1="57159" x2="566" y2="57159"/>
			<line x1="258" y1="146016" x2="258" y2="0"/>
		</g>
		<g style="--index: 1;">
			<path d="M21,145147L35,145147L35,145159L82,145159L82,145167L111,145167L111,145168L214,145168L214,145203L229,145203L229,145208" tabindex="0">
				<title>l_r9gn1qpd-9d8eewld-0nwoqwkl.jqzpx3gl</title>
			</path>
			<rect x="21" y="145147" width="208" height="61"/>
			<path d="M21,145147L21,145147" tabindex="0">
				<title>00:08.69 on 2022-08-20</title>
			</path>
			<line x1="0" y1="145147" x2="566" y2="145147"/>
			<line x1="21" y1="146016" x2="21" y2="0"/>
			<path d="M35,145159L35,145159" tabindex="0">
				<title>00:08.57 on 2022-09-03</title>
			</path>
			<line x1="0" y1="145159" x2="566" y2="145159"/>
			<line x1="35" y1="146016" x2="35" y2="0"/>
			<path d="M82,145167L82,145167" tabindex="0">
				<title>00:08.49 on 2022-10-20</title>
			</path>
			<line x1="0" y1="145167" x2="566" y2="145167"/>
			<line x1="82" y1="146016" x2="82" y2="0"/>
			<path d="M111,145168L111,145168" tabindex="0">
				<title>00:08.48 on 2022-11-18</title>
			</path>
			<line x1="0" y1="145168" x2="566" y2="145168"/>
			<line x1="111" y1="146016" x2="111" y2="0"/>
			<path d="M214,145203L214,145203" tabindex="0">
				<title>00:08.13 on 2023-03-01</title>
			</path>
			<line x1="0" y1="145203" x2="566" y2="145203"/>
			<line x1="214" y1="146016" x2="214" y2="0"/>
			<path d="M229,145208L229,145208" tabindex="0">
				<title>00:08.08 on 2023-03-16</title>
			</path>
			<line x1="0" y1="145208" x2="566" y2="145208"/>
			<line x1="229" y1="146016" x2="229" y2="0"/>
		</g>
		<g style="--index: 2;">
			<path d="M37,144711L390,144711L390,144767" tabindex="0">
				<title>l_o9xo3rp9-9d8eewld-7896y468.rqvpey7q</title>
			</path>
			<rect x="37" y="144711" width="353" height="56"/>
			<path d="M37,144711L37,144711" tabindex="0">
				<title>00:13.05 on 2022-09-05</title>
			</path>
			<line x1="0" y1="144711" x2="566" y2="144711"/>
			<line x1="37" y1="146016" x2="37" y2="0"/>
			<path d="M390,144767L390,144767" tabindex="0">
				<title>00:12.49 on 2023-08-24</title>
			</path>
			<line x1="0" y1="144767" x2="566" y2="144767"/>
			<line x1="390" y1="146016" x2="390" y2="0"/>
		</g>
		<g style="--index: 3;">
			<path d="M38,144649L229,144649L229,144684L238,144684L238,144688" tabindex="0">
				<title>l_495zlx39-9d8eewld-2lgr793n.814y7w01</title>
			</path>
			<rect x="38" y="144649" width="200" height="39"/>
			<path d="M38,144649L38,144649" tabindex="0">
				<title>00:13.67 on 2022-09-06</title>
			</path>
			<line x1="0" y1="144649" x2="566" y2="144649"/>
			<line x1="38" y1="146016" x2="38" y2="0"/>
			<path d="M229,144684L229,144684" tabindex="0">
				<title>00:13.32 on 2023-03-16</title>
			</path>
			<line x1="0" y1="144684" x2="566" y2="144684"/>
			<line x1="229" y1="146016" x2="229" y2="0"/>
			<path d="M238,144688L238,144688" tabindex="0">
				<title>00:13.28 on 2023-03-25</title>
			</path>
			<line x1="0" y1="144688" x2="566" y2="144688"/>
			<line x1="238" y1="146016" x2="238" y2="0"/>
		</g>
		<g style="--index: 4;">
			<path d="M38,144676L71,144676L71,144688L127,144688L127,144760L136,144760L136,144805L162,144805L162,144812L229,144812L229,144817L236,144817L236,144821L245,144821L245,144845L286,144845L286,144868L398,144868L398,144871" tabindex="0">
				<title>l_o9xo3rp9-9d8eewld-7896y468.9qj0x8el</title>
			</path>
			<rect x="38" y="144676" width="360" height="195"/>
			<path d="M38,144676L38,144676" tabindex="0">
				<title>00:13.40 on 2022-09-06</title>
			</path>
			<line x1="0" y1="144676" x2="566" y2="144676"/>
			<line x1="38" y1="146016" x2="38" y2="0"/>
			<path d="M71,144688L71,144688" tabindex="0">
				<title>00:13.28 on 2022-10-09</title>
			</path>
			<line x1="0" y1="144688" x2="566" y2="144688"/>
			<line x1="71" y1="146016" x2="71" y2="0"/>
			<path d="M127,144760L127,144760" tabindex="0">
				<title>00:12.56 on 2022-12-04</title>
			</path>
			<line x1="0" y1="144760" x2="566" y2="144760"/>
			<line x1="127" y1="146016" x2="127" y2="0"/>
			<path d="M136,144805L136,144805" tabindex="0">
				<title>00:12.11 on 2022-12-13</title>
			</path>
			<line x1="0" y1="144805" x2="566" y2="144805"/>
			<line x1="136" y1="146016" x2="136" y2="0"/>
			<path d="M162,144812L162,144812" tabindex="0">
				<title>00:12.04 on 2023-01-08</title>
			</path>
			<line x1="0" y1="144812" x2="566" y2="144812"/>
			<line x1="162" y1="146016" x2="162" y2="0"/>
			<path d="M229,144817L229,144817" tabindex="0">
				<title>00:11.99 on 2023-03-16</title>
			</path>
			<line x1="0" y1="144817" x2="566" y2="144817"/>
			<line x1="229" y1="146016" x2="229" y2="0"/>
			<path d="M236,144821L236,144821" tabindex="0">
				<title>00:11.95 on 2023-03-23</title>
			</path>
			<line x1="0" y1="144821" x2="566" y2="144821"/>
			<line x1="236" y1="146016" x2="236" y2="0"/>
			<path d="M245,144845L245,144845" tabindex="0">
				<title>00:11.71 on 2023-04-01</title>
			</path>
			<line x1="0" y1="144845" x2="566" y2="144845"/>
			<line x1="245" y1="146016" x2="245" y2="0"/>
			<path d="M286,144868L286,144868" tabindex="0">
				<title>00:11.48 on 2023-05-12</title>
			</path>
			<line x1="0" y1="144868" x2="566" y2="144868"/>
			<line x1="286" y1="146016" x2="286" y2="0"/>
			<path d="M398,144871L398,144871" tabindex="0">
				<title>00:11.45 on 2023-09-01</title>
			</path>
			<line x1="0" y1="144871" x2="566" y2="144871"/>
			<line x1="398" y1="146016" x2="398" y2="0"/>
		</g>
		<g style="--index: 5;">
			<path d="M41,144584L123,144584L123,144644L190,144644L190,144659" tabindex="0">
				<title>l_r9gn1qpd-9d8eewld-0nwoqwkl.21dz3e4l</title>
			</path>
			<rect x="41" y="144584" width="149" height="75"/>
			<path d="M41,144584L41,144584" tabindex="0">
				<title>00:14.32 on 2022-09-09</title>
			</path>
			<line x1="0" y1="144584" x2="566" y2="144584"/>
			<line x1="41" y1="146016" x2="41" y2="0"/>
			<path d="M123,144644L123,144644" tabindex="0">
				<title>00:13.72 on 2022-11-30</title>
			</path>
			<line x1="0" y1="144644" x2="566" y2="144644"/>
			<line x1="123" y1="146016" x2="123" y2="0"/>
			<path d="M190,144659L190,144659" tabindex="0">
				<title>00:13.57 on 2023-02-05</title>
			</path>
			<line x1="0" y1="144659" x2="566" y2="144659"/>
			<line x1="190" y1="146016" x2="190" y2="0"/>
		</g>
		<g style="--index: 6;">
			<path d="M64,144920L71,144920L71,144962" tabindex="0">
				<title>l_r9gnozkd-rkl3znrk-wledz9en.81wpx5oq</title>
			</path>
			<rect x="64" y="144920" width="7" height="42"/>
			<path d="M64,144920L64,144920" tabindex="0">
				<title>00:10.96 on 2022-10-02</title>
			</path>
			<line x1="0" y1="144920" x2="566" y2="144920"/>
			<line x1="64" y1="146016" x2="64" y2="0"/>
			<path d="M71,144962L71,144962" tabindex="0">
				<title>00:10.54 on 2022-10-09</title>
			</path>
			<line x1="0" y1="144962" x2="566" y2="144962"/>
			<line x1="71" y1="146016" x2="71" y2="0"/>
		</g>
		<g style="--index: 7;">
			<path d="M66,144558L349,144558L349,144729" tabindex="0">
				<title>l_r9gnozkd-rkl3znrk-wledz9en.5ler7m5q</title>
			</path>
			<rect x="66" y="144558" width="283" height="171"/>
			<path d="M66,144558L66,144558" tabindex="0">
				<title>00:14.58 on 2022-10-04</title>
			</path>
			<line x1="0" y1="144558" x2="566" y2="144558"/>
			<line x1="66" y1="146016" x2="66" y2="0"/>
			<path d="M349,144729L349,144729" tabindex="0">
				<title>00:12.87 on 2023-07-14</title>
			</path>
			<line x1="0" y1="144729" x2="566" y2="144729"/>
			<line x1="349" y1="146016" x2="349" y2="0"/>
		</g>
		<g style="--index: 8;">
			<path d="M91,142081L93,142081L93,142264" tabindex="0">
				<title>l_r9gnozkd-rkl3znrk-wledz9en.z19mo80l</title>
			</path>
			<rect x="91" y="142081" width="2" height="183"/>
			<path d="M91,142081L91,142081" tabindex="0">
				<title>00:39.35 on 2022-10-29</title>
			</path>
			<line x1="0" y1="142081" x2="566" y2="142081"/>
			<line x1="91" y1="146016" x2="91" y2="0"/>
			<path d="M93,142264L93,142264" tabindex="0">
				<title>00:37.52 on 2022-10-31</title>
			</path>
			<line x1="0" y1="142264" x2="566" y2="142264"/>
			<line x1="93" y1="146016" x2="93" y2="0"/>
		</g>
		<g style="--index: 9;">
			<path d="M99,144034" tabindex="0">
				<title>l_495zlx39-9d8eewld-2lgr793n.81ppd5g1</title>
			</path>
			<rect x="99" y="144034" width="0" height="0"/>
			<path d="M99,144034L99,144034" tabindex="0">
				<title>00:19.82 on 2022-11-06</title>
			</path>
			<line x1="0" y1="144034" x2="566" y2="144034"/>
			<line x1="99" y1="146016" x2="99" y2="0"/>
		</g>
		<g style="--index: 10;">
			<path d="M100,144541L261,144541L261,144574" tabindex="0">
				<title>l_r9gnozkd-rkl3znrk-wledz9en.0138n5dq</title>
			</path>
			<rect x="100" y="144541" width="161" height="33"/>
			<path d="M100,144541L100,144541" tabindex="0">
				<title>00:14.75 on 2022-11-07</title>
			</path>
			<line x1="0" y1="144541" x2="566" y2="144541"/>
			<line x1="100" y1="146016" x2="100" y2="0"/>
			<path d="M261,144574L261,144574" tabindex="0">
				<title>00:14.42 on 2023-04-17</title>
			</path>
			<line x1="0" y1="144574" x2="566" y2="144574"/>
			<line x1="261" y1="146016" x2="261" y2="0"/>
		</g>
		<g style="--index: 11;">
			<path d="M102,144531" tabindex="0">
				<title>l_495zlx39-9d8eewld-2lgr793n.gq7jzvvq</title>
			</path>
			<rect x="102" y="144531" width="0" height="0"/>
			<path d="M102,144531L102,144531" tabindex="0">
				<title>00:14.85 on 2022-11-09</title>
			</path>
			<line x1="0" y1="144531" x2="566" y2="144531"/>
			<line x1="102" y1="146016" x2="102" y2="0"/>
		</g>
		<g style="--index: 12;">
			<path d="M127,144423L136,144423L136,144483L243,144483L243,144530" tabindex="0">
				<title>l_o9xo3rp9-9d8eewld-7896y468.5lermx5q</title>
			</path>
			<rect x="127" y="144423" width="116" height="107"/>
			<path d="M127,144423L127,144423" tabindex="0">
				<title>00:15.93 on 2022-12-04</title>
			</path>
			<line x1="0" y1="144423" x2="566" y2="144423"/>
			<line x1="127" y1="146016" x2="127" y2="0"/>
			<path d="M136,144483L136,144483" tabindex="0">
				<title>00:15.33 on 2022-12-13</title>
			</path>
			<line x1="0" y1="144483" x2="566" y2="144483"/>
			<line x1="136" y1="146016" x2="136" y2="0"/>
			<path d="M243,144530L243,144530" tabindex="0">
				<title>00:14.86 on 2023-03-30</title>
			</path>
			<line x1="0" y1="144530" x2="566" y2="144530"/>
			<line x1="243" y1="146016" x2="243" y2="0"/>
		</g>
		<g style="--index: 13;">
			<path d="M143,144599L349,144599L349,144625" tabindex="0">
				<title>l_r9gn1qpd-9d8eewld-0nwoqwkl.klrpy2jq</title>
			</path>
			<rect x="143" y="144599" width="206" height="26"/>
			<path d="M143,144599L143,144599" tabindex="0">
				<title>00:14.17 on 2022-12-20</title>
			</path>
			<line x1="0" y1="144599" x2="566" y2="144599"/>
			<line x1="143" y1="146016" x2="143" y2="0"/>
			<path d="M349,144625L349,144625" tabindex="0">
				<title>00:13.91 on 2023-07-14</title>
			</path>
			<line x1="0" y1="144625" x2="566" y2="144625"/>
			<line x1="349" y1="146016" x2="349" y2="0"/>
		</g>
		<g style="--index: 14;">
			<path d="M143,143690L563,143690L563,143989L566,143989L566,144080" tabindex="0">
				<title>l_495zlx39-9d8eewld-2lgr793n.21gp48n1</title>
			</path>
			<rect x="143" y="143690" width="423" height="390"/>
			<path d="M143,143690L143,143690" tabindex="0">
				<title>00:23.26 on 2022-12-20</title>
			</path>
			<line x1="0" y1="143690" x2="566" y2="143690"/>
			<line x1="143" y1="146016" x2="143" y2="0"/>
			<path d="M563,143989L563,143989" tabindex="0">
				<title>00:20.27 on 2024-02-13</title>
			</path>
			<line x1="0" y1="143989" x2="566" y2="143989"/>
			<line x1="563" y1="146016" x2="563" y2="0"/>
			<path d="M566,144080L566,144080" tabindex="0">
				<title>00:19.36 on 2024-02-16</title>
			</path>
			<line x1="0" y1="144080" x2="566" y2="144080"/>
			<line x1="566" y1="146016" x2="566" y2="0"/>
		</g>
		<g style="--index: 15;">
			<path d="M153,134153L520,134153L520,135495" tabindex="0">
				<title>l_r9gn1qpd-9d8eewld-0nwoqwkl.gq7jrxvq</title>
			</path>
			<rect x="153" y="134153" width="367" height="1342"/>
			<path d="M153,134153L153,134153" tabindex="0">
				<title>01:58.63 on 2022-12-30</title>
			</path>
			<line x1="0" y1="134153" x2="566" y2="134153"/>
			<line x1="153" y1="146016" x2="153" y2="0"/>
			<path d="M520,135495L520,135495" tabindex="0">
				<title>01:45.21 on 2024-01-01</title>
			</path>
			<line x1="0" y1="135495" x2="566" y2="135495"/>
			<line x1="520" y1="146016" x2="520" y2="0"/>
		</g>
		<g style="--index: 16;">
			<path d="M154,121458L323,121458L323,122390" tabindex="0">
				<title>l_495zlx39-9d8eewld-2lgr793n.p12dx07q</title>
			</path>
			<rect x="154" y="121458" width="169" height="932"/>
			<path d="M154,121458L154,121458" tabindex="0">
				<title>04:05.58 on 2022-12-31</title>
			</path>
			<line x1="0" y1="121458" x2="566" y2="121458"/>
			<line x1="154" y1="146016" x2="154" y2="0"/>
			<path d="M323,122390L323,122390" tabindex="0">
				<title>03:56.26 on 2023-06-18</title>
			</path>
			<line x1="0" y1="122390" x2="566" y2="122390"/>
			<line x1="323" y1="146016" x2="323" y2="0"/>
		</g>
		<g style="--index: 17;">
			<path d="M164,145191L214,145191L214,145205L318,145205L318,145221" tabindex="0">
				<title>l_o9xo3rp9-9d8eewld-7896y468.jq60ze3q</title>
			</path>
			<rect x="164" y="145191" width="154" height="30"/>
			<path d="M164,145191L164,145191" tabindex="0">
				<title>00:08.25 on 2023-01-10</title>
			</path>
			<line x1="0" y1="145191" x2="566" y2="145191"/>
			<line x1="164" y1="146016" x2="164" y2="0"/>
			<path d="M214,145205L214,145205" tabindex="0">
				<title>00:08.11 on 2023-03-01</title>
			</path>
			<line x1="0" y1="145205" x2="566" y2="145205"/>
			<line x1="214" y1="146016" x2="214" y2="0"/>
			<path d="M318,145221L318,145221" tabindex="0">
				<title>00:07.95 on 2023-06-13</title>
			</path>
			<line x1="0" y1="145221" x2="566" y2="145221"/>
			<line x1="318" y1="146016" x2="318" y2="0"/>
		</g>
		<g style="--index: 18;">
			<path d="M178,141731L323,141731L323,141924" tabindex="0">
				<title>l_r9gn1qpd-9d8eewld-0nwoqwkl.klr25nj1</title>
			</path>
			<rect x="178" y="141731" width="145" height="193"/>
			<path d="M178,141731L178,141731" tabindex="0">
				<title>00:42.85 on 2023-01-24</title>
			</path>
			<line x1="0" y1="141731" x2="566" y2="141731"/>
			<line x1="178" y1="146016" x2="178" y2="0"/>
			<path d="M323,141924L323,141924" tabindex="0">
				<title>00:40.92 on 2023-06-18</title>
			</path>
			<line x1="0" y1="141924" x2="566" y2="141924"/>
			<line x1="323" y1="146016" x2="323" y2="0"/>
		</g>
		<g style="--index: 19;">
			<path d="M214,144353L565,144353L565,144580L566,144580L566,144590" tabindex="0">
				<title>l_495zlx39-9d8eewld-2lgr793n.jqz35pg1</title>
			</path>
			<rect x="214" y="144353" width="352" height="237"/>
			<path d="M214,144353L214,144353" tabindex="0">
				<title>00:16.63 on 2023-03-01</title>
			</path>
			<line x1="0" y1="144353" x2="566" y2="144353"/>
			<line x1="214" y1="146016" x2="214" y2="0"/>
			<path d="M565,144580L565,144580" tabindex="0">
				<title>00:14.36 on 2024-02-15</title>
			</path>
			<line x1="0" y1="144580" x2="566" y2="144580"/>
			<line x1="565" y1="146016" x2="565" y2="0"/>
			<path d="M566,144590L566,144590" tabindex="0">
				<title>00:14.26 on 2024-02-16</title>
			</path>
			<line x1="0" y1="144590" x2="566" y2="144590"/>
			<line x1="566" y1="146016" x2="566" y2="0"/>
		</g>
		<g style="--index: 20;">
			<path d="M229,145165L287,145165L287,145202L320,145202L320,145206" tabindex="0">
				<title>l_r9gn1qpd-9d8eewld-0nwoqwkl.81ppdgg1</title>
			</path>
			<rect x="229" y="145165" width="91" height="41"/>
			<path d="M229,145165L229,145165" tabindex="0">
				<title>00:08.51 on 2023-03-16</title>
			</path>
			<line x1="0" y1="145165" x2="566" y2="145165"/>
			<line x1="229" y1="146016" x2="229" y2="0"/>
			<path d="M287,145202L287,145202" tabindex="0">
				<title>00:08.14 on 2023-05-13</title>
			</path>
			<line x1="0" y1="145202" x2="566" y2="145202"/>
			<line x1="287" y1="146016" x2="287" y2="0"/>
			<path d="M320,145206L320,145206" tabindex="0">
				<title>00:08.10 on 2023-06-15</title>
			</path>
			<line x1="0" y1="145206" x2="566" y2="145206"/>
			<line x1="320" y1="146016" x2="320" y2="0"/>
		</g>
		<g style="--index: 21;">
			<path d="M229,129280L323,129280L323,130480" tabindex="0">
				<title>l_r9gn1qpd-9kv66g32-onv7r45n.810zdxoq</title>
			</path>
			<rect x="229" y="129280" width="94" height="1200"/>
			<path d="M229,129280L229,129280" tabindex="0">
				<title>02:47.36 on 2023-03-16</title>
			</path>
			<line x1="0" y1="129280" x2="566" y2="129280"/>
			<line x1="229" y1="146016" x2="229" y2="0"/>
			<path d="M323,130480L323,130480" tabindex="0">
				<title>02:35.36 on 2023-06-18</title>
			</path>
			<line x1="0" y1="130480" x2="566" y2="130480"/>
			<line x1="323" y1="146016" x2="323" y2="0"/>
		</g>
		<g style="--index: 22;">
			<path d="M229,144966L435,144966L435,145001" tabindex="0">
				<title>l_r9gn1qpd-9d8eewld-0nwoqwkl.21g82pnl</title>
			</path>
			<rect x="229" y="144966" width="206" height="35"/>
			<path d="M229,144966L229,144966" tabindex="0">
				<title>00:10.50 on 2023-03-16</title>
			</path>
			<line x1="0" y1="144966" x2="566" y2="144966"/>
			<line x1="229" y1="146016" x2="229" y2="0"/>
			<path d="M435,145001L435,145001" tabindex="0">
				<title>00:10.15 on 2023-10-08</title>
			</path>
			<line x1="0" y1="145001" x2="566" y2="145001"/>
			<line x1="435" y1="146016" x2="435" y2="0"/>
		</g>
		<g style="--index: 23;">
			<path d="M230,144744" tabindex="0">
				<title>l_r9gn1qpd-9d8eewld-0nwoqwkl.xqkjmxnl</title>
			</path>
			<rect x="230" y="144744" width="0" height="0"/>
			<path d="M230,144744L230,144744" tabindex="0">
				<title>00:12.72 on 2023-03-17</title>
			</path>
			<line x1="0" y1="144744" x2="566" y2="144744"/>
			<line x1="230" y1="146016" x2="230" y2="0"/>
		</g>
		<g style="--index: 24;">
			<path d="M235,144803" tabindex="0">
				<title>l_495zlx39-9d8eewld-2lgr793n.z19m8p0l</title>
			</path>
			<rect x="235" y="144803" width="0" height="0"/>
			<path d="M235,144803L235,144803" tabindex="0">
				<title>00:12.13 on 2023-03-22</title>
			</path>
			<line x1="0" y1="144803" x2="566" y2="144803"/>
			<line x1="235" y1="146016" x2="235" y2="0"/>
		</g>
		<g style="--index: 25;">
			<path d="M240,77262L254,77262L254,77931L270,77931L270,78687L325,78687L325,84808" tabindex="0">
				<title>xd17x94d-9l71pv4l.21gpn081</title>
			</path>
			<rect x="240" y="77262" width="85" height="7546"/>
			<path d="M240,77262L240,77262" tabindex="0">
				<title>11:27.54 on 2023-03-27</title>
			</path>
			<line x1="0" y1="77262" x2="566" y2="77262"/>
			<line x1="240" y1="146016" x2="240" y2="0"/>
			<path d="M254,77931L254,77931" tabindex="0">
				<title>11:20.85 on 2023-04-10</title>
			</path>
			<line x1="0" y1="77931" x2="566" y2="77931"/>
			<line x1="254" y1="146016" x2="254" y2="0"/>
			<path d="M270,78687L270,78687" tabindex="0">
				<title>11:13.29 on 2023-04-26</title>
			</path>
			<line x1="0" y1="78687" x2="566" y2="78687"/>
			<line x1="270" y1="146016" x2="270" y2="0"/>
			<path d="M325,84808L325,84808" tabindex="0">
				<title>10:12.08 on 2023-06-20</title>
			</path>
			<line x1="0" y1="84808" x2="566" y2="84808"/>
			<line x1="325" y1="146016" x2="325" y2="0"/>
		</g>
		<g style="--index: 26;">
			<path d="M244,144254" tabindex="0">
				<title>l_rdqo542w-9d8eewld-wl30kw9l.klrp6e0q</title>
			</path>
			<rect x="244" y="144254" width="0" height="0"/>
			<path d="M244,144254L244,144254" tabindex="0">
				<title>00:17.62 on 2023-03-31</title>
			</path>
			<line x1="0" y1="144254" x2="566" y2="144254"/>
			<line x1="244" y1="146016" x2="244" y2="0"/>
		</g>
		<g style="--index: 27;">
			<path d="M247,145257L250,145257L250,145260" tabindex="0">
				<title>l_o9xo3rp9-9d8eewld-7896y468.013856dq</title>
			</path>
			<rect x="247" y="145257" width="3" height="3"/>
			<path d="M247,145257L247,145257" tabindex="0">
				<title>00:07.59 on 2023-04-03</title>
			</path>
			<line x1="0" y1="145257" x2="566" y2="145257"/>
			<line x1="247" y1="146016" x2="247" y2="0"/>
			<path d="M250,145260L250,145260" tabindex="0">
				<title>00:07.56 on 2023-04-06</title>
			</path>
			<line x1="0" y1="145260" x2="566" y2="145260"/>
			<line x1="250" y1="146016" x2="250" y2="0"/>
		</g>
		<g style="--index: 28;">
			<path d="M249,144969" tabindex="0">
				<title>l_o9xo3rp9-9d8eewld-7896y468.81wp50oq</title>
			</path>
			<rect x="249" y="144969" width="0" height="0"/>
			<path d="M249,144969L249,144969" tabindex="0">
				<title>00:10.47 on 2023-04-05</title>
			</path>
			<line x1="0" y1="144969" x2="566" y2="144969"/>
			<line x1="249" y1="146016" x2="249" y2="0"/>
		</g>
		<g style="--index: 29;">
			<path d="M250,143684L267,143684L267,143749" tabindex="0">
				<title>l_rdqo542w-9d8eewld-wl30kw9l.5q86rxr1</title>
			</path>
			<rect x="250" y="143684" width="17" height="65"/>
			<path d="M250,143684L250,143684" tabindex="0">
				<title>00:23.32 on 2023-04-06</title>
			</path>
			<line x1="0" y1="143684" x2="566" y2="143684"/>
			<line x1="250" y1="146016" x2="250" y2="0"/>
			<path d="M267,143749L267,143749" tabindex="0">
				<title>00:22.67 on 2023-04-23</title>
			</path>
			<line x1="0" y1="143749" x2="566" y2="143749"/>
			<line x1="267" y1="146016" x2="267" y2="0"/>
		</g>
		<g style="--index: 30;">
			<path d="M250,143980L267,143980L267,144032L285,144032L285,144064L348,144064L348,144138" tabindex="0">
				<title>l_rdqo542w-9d8eewld-wl30kw9l.gq7jzvnq</title>
			</path>
			<rect x="250" y="143980" width="98" height="158"/>
			<path d="M250,143980L250,143980" tabindex="0">
				<title>00:20.36 on 2023-04-06</title>
			</path>
			<line x1="0" y1="143980" x2="566" y2="143980"/>
			<line x1="250" y1="146016" x2="250" y2="0"/>
			<path d="M267,144032L267,144032" tabindex="0">
				<title>00:19.84 on 2023-04-23</title>
			</path>
			<line x1="0" y1="144032" x2="566" y2="144032"/>
			<line x1="267" y1="146016" x2="267" y2="0"/>
			<path d="M285,144064L285,144064" tabindex="0">
				<title>00:19.52 on 2023-05-11</title>
			</path>
			<line x1="0" y1="144064" x2="566" y2="144064"/>
			<line x1="285" y1="146016" x2="285" y2="0"/>
			<path d="M348,144138L348,144138" tabindex="0">
				<title>00:18.78 on 2023-07-13</title>
			</path>
			<line x1="0" y1="144138" x2="566" y2="144138"/>
			<line x1="348" y1="146016" x2="348" y2="0"/>
		</g>
		<g style="--index: 31;">
			<path d="M259,144247" tabindex="0">
				<title>l_r9gnozkd-rkl3znrk-wledz9en.814y0701</title>
			</path>
			<rect x="259" y="144247" width="0" height="0"/>
			<path d="M259,144247L259,144247" tabindex="0">
				<title>00:17.69 on 2023-04-15</title>
			</path>
			<line x1="0" y1="144247" x2="566" y2="144247"/>
			<line x1="259" y1="146016" x2="259" y2="0"/>
		</g>
		<g style="--index: 32;">
			<path d="M260,142916" tabindex="0">
				<title>l_r9gnozkd-rkl3znrk-wledz9en.zqop6rp1</title>
			</path>
			<rect x="260" y="142916" width="0" height="0"/>
			<path d="M260,142916L260,142916" tabindex="0">
				<title>00:31.00 on 2023-04-16</title>
			</path>
			<line x1="0" y1="142916" x2="566" y2="142916"/>
			<line x1="260" y1="146016" x2="260" y2="0"/>
		</g>
		<g style="--index: 33;">
			<path d="M261,144240" tabindex="0">
				<title>l_rdqo542w-9d8eewld-wl30kw9l.21dzoj3l</title>
			</path>
			<rect x="261" y="144240" width="0" height="0"/>
			<path d="M261,144240L261,144240" tabindex="0">
				<title>00:17.76 on 2023-04-17</title>
			</path>
			<line x1="0" y1="144240" x2="566" y2="144240"/>
			<line x1="261" y1="146016" x2="261" y2="0"/>
		</g>
		<g style="--index: 34;">
			<path d="M266,140599" tabindex="0">
				<title>l_rdqo542w-9d8eewld-wl30kw9l.klrp6ejq</title>
			</path>
			<rect x="266" y="140599" width="0" height="0"/>
			<path d="M266,140599L266,140599" tabindex="0">
				<title>00:54.17 on 2023-04-22</title>
			</path>
			<line x1="0" y1="140599" x2="566" y2="140599"/>
			<line x1="266" y1="146016" x2="266" y2="0"/>
		</g>
		<g style="--index: 35;">
			<path d="M276,144086L289,144086L289,144111" tabindex="0">
				<title>l_rdqo542w-9d8eewld-wl30kw9l.jqzpyr4l</title>
			</path>
			<rect x="276" y="144086" width="13" height="25"/>
			<path d="M276,144086L276,144086" tabindex="0">
				<title>00:19.30 on 2023-05-02</title>
			</path>
			<line x1="0" y1="144086" x2="566" y2="144086"/>
			<line x1="276" y1="146016" x2="276" y2="0"/>
			<path d="M289,144111L289,144111" tabindex="0">
				<title>00:19.05 on 2023-05-15</title>
			</path>
			<line x1="0" y1="144111" x2="566" y2="144111"/>
			<line x1="289" y1="146016" x2="289" y2="0"/>
		</g>
		<g style="--index: 36;">
			<path d="M284,144243L413,144243L413,144287" tabindex="0">
				<title>l_495zlx39-9d8eewld-2lgr793n.xqkjmnnl</title>
			</path>
			<rect x="284" y="144243" width="129" height="44"/>
			<path d="M284,144243L284,144243" tabindex="0">
				<title>00:17.73 on 2023-05-10</title>
			</path>
			<line x1="0" y1="144243" x2="566" y2="144243"/>
			<line x1="284" y1="146016" x2="284" y2="0"/>
			<path d="M413,144287L413,144287" tabindex="0">
				<title>00:17.29 on 2023-09-16</title>
			</path>
			<line x1="0" y1="144287" x2="566" y2="144287"/>
			<line x1="413" y1="146016" x2="413" y2="0"/>
		</g>
		<g style="--index: 37;">
			<path d="M299,144948" tabindex="0">
				<title>l_r9gnozkd-rkl3znrk-wledz9en.rqvp5e7q</title>
			</path>
			<rect x="299" y="144948" width="0" height="0"/>
			<path d="M299,144948L299,144948" tabindex="0">
				<title>00:10.68 on 2023-05-25</title>
			</path>
			<line x1="0" y1="144948" x2="566" y2="144948"/>
			<line x1="299" y1="146016" x2="299" y2="0"/>
		</g>
		<g style="--index: 38;">
			<path d="M317,123091" tabindex="0">
				<title>l_gdr5onk9-rkl3znrk-rn1g06dn.qj77o50q</title>
			</path>
			<rect x="317" y="123091" width="0" height="0"/>
			<path d="M317,123091L317,123091" tabindex="0">
				<title>03:49.25 on 2023-06-12</title>
			</path>
			<line x1="0" y1="123091" x2="566" y2="123091"/>
			<line x1="317" y1="146016" x2="317" y2="0"/>
		</g>
		<g style="--index: 39;">
			<path d="M323,135163" tabindex="0">
				<title>l_o9xo3rp9-9d8eewld-7896y468.4qywn341</title>
			</path>
			<rect x="323" y="135163" width="0" height="0"/>
			<path d="M323,135163L323,135163" tabindex="0">
				<title>01:48.53 on 2023-06-18</title>
			</path>
			<line x1="0" y1="135163" x2="566" y2="135163"/>
			<line x1="323" y1="146016" x2="323" y2="0"/>
		</g>
		<g style="--index: 40;">
			<path d="M397,135718L416,135718L416,137294" tabindex="0">
				<title>l_xd0mnpjw-rkl3znrk-wley4prn.192xe54q</title>
			</path>
			<rect x="397" y="135718" width="19" height="1576"/>
			<path d="M397,135718L397,135718" tabindex="0">
				<title>01:42.98 on 2023-08-31</title>
			</path>
			<line x1="0" y1="135718" x2="566" y2="135718"/>
			<line x1="397" y1="146016" x2="397" y2="0"/>
			<path d="M416,137294L416,137294" tabindex="0">
				<title>01:27.22 on 2023-09-19</title>
			</path>
			<line x1="0" y1="137294" x2="566" y2="137294"/>
			<line x1="416" y1="146016" x2="416" y2="0"/>
		</g>
		<g style="--index: 41;">
			<path d="M420,139909" tabindex="0">
				<title>l_495zlx39-9d8eewld-2lgr793n.mlno5r0q</title>
			</path>
			<rect x="420" y="139909" width="0" height="0"/>
			<path d="M420,139909L420,139909" tabindex="0">
				<title>01:01.07 on 2023-09-23</title>
			</path>
			<line x1="0" y1="139909" x2="566" y2="139909"/>
			<line x1="420" y1="146016" x2="420" y2="0"/>
		</g>
		<g style="--index: 42;">
			<path d="M434,145387L516,145387L516,145416" tabindex="0">
				<title>9kv6l5e2-ql6rezjl.1dk62o3l</title>
			</path>
			<rect x="434" y="145387" width="82" height="29"/>
			<path d="M434,145387L434,145387" tabindex="0">
				<title>00:06.29 on 2023-10-07</title>
			</path>
			<line x1="0" y1="145387" x2="566" y2="145387"/>
			<line x1="434" y1="146016" x2="434" y2="0"/>
			<path d="M516,145416L516,145416" tabindex="0">
				<title>00:06.00 on 2023-12-28</title>
			</path>
			<line x1="0" y1="145416" x2="566" y2="145416"/>
			<line x1="516" y1="146016" x2="516" y2="0"/>
		</g>
		<g style="--index: 43;">
			<path d="M454,143577" tabindex="0">
				<title>l_495zlx39-9d8eewld-2lgr793n.21g8ownl</title>
			</path>
			<rect x="454" y="143577" width="0" height="0"/>
			<path d="M454,143577L454,143577" tabindex="0">
				<title>00:24.39 on 2023-10-27</title>
			</path>
			<line x1="0" y1="143577" x2="566" y2="143577"/>
			<line x1="454" y1="146016" x2="454" y2="0"/>
		</g>
		<g style="--index: 44;">
			<path d="M469,143008" tabindex="0">
				<title>l_495zlx39-9d8eewld-2lgr793n.qj7zdm3q</title>
			</path>
			<rect x="469" y="143008" width="0" height="0"/>
			<path d="M469,143008L469,143008" tabindex="0">
				<title>00:30.08 on 2023-11-11</title>
			</path>
			<line x1="0" y1="143008" x2="566" y2="143008"/>
			<line x1="469" y1="146016" x2="469" y2="0"/>
		</g>
		<g style="--index: 45;">
			<path d="M493,128755" tabindex="0">
				<title>l_rdqo542w-9d8eewld-wl30kw9l.810dx3wl</title>
			</path>
			<rect x="493" y="128755" width="0" height="0"/>
			<path d="M493,128755L493,128755" tabindex="0">
				<title>02:52.61 on 2023-12-05</title>
			</path>
			<line x1="0" y1="128755" x2="566" y2="128755"/>
			<line x1="493" y1="146016" x2="493" y2="0"/>
		</g>
		<g style="--index: 46;">
			<path d="M511,136828" tabindex="0">
				<title>l_o9xo3rp9-9d8eewld-7896y468.810zwdwq</title>
			</path>
			<rect x="511" y="136828" width="0" height="0"/>
			<path d="M511,136828L511,136828" tabindex="0">
				<title>01:31.88 on 2023-12-23</title>
			</path>
			<line x1="0" y1="136828" x2="566" y2="136828"/>
			<line x1="511" y1="146016" x2="511" y2="0"/>
		</g>
		<g style="--index: 47;">
			<path d="M511,139558" tabindex="0">
				<title>l_495zlx39-9d8eewld-2lgr793n.4lxpe62q</title>
			</path>
			<rect x="511" y="139558" width="0" height="0"/>
			<path d="M511,139558L511,139558" tabindex="0">
				<title>01:04.58 on 2023-12-23</title>
			</path>
			<line x1="0" y1="139558" x2="566" y2="139558"/>
			<line x1="511" y1="146016" x2="511" y2="0"/>
		</g>
		<g style="--index: 48;">
			<path d="M512,129387" tabindex="0">
				<title>l_rdqo542w-9d8eewld-wl30kw9l.jqzpyrgl</title>
			</path>
			<rect x="512" y="129387" width="0" height="0"/>
			<path d="M512,129387L512,129387" tabindex="0">
				<title>02:46.29 on 2023-12-24</title>
			</path>
			<line x1="0" y1="129387" x2="566" y2="129387"/>
			<line x1="512" y1="146016" x2="512" y2="0"/>
		</g>
		<g style="--index: 49;">
			<path d="M514,134051" tabindex="0">
				<title>l_o9xo3rp9-9d8eewld-7896y468.5lmkgmjq</title>
			</path>
			<rect x="514" y="134051" width="0" height="0"/>
			<path d="M514,134051L514,134051" tabindex="0">
				<title>01:59.65 on 2023-12-26</title>
			</path>
			<line x1="0" y1="134051" x2="566" y2="134051"/>
			<line x1="514" y1="146016" x2="514" y2="0"/>
		</g>
		<g style="--index: 50;">
			<path d="M526,141983" tabindex="0">
				<title>l_r9gn1qpd-9d8eewld-0nwoqwkl.p12dx87q</title>
			</path>
			<rect x="526" y="141983" width="0" height="0"/>
			<path d="M526,141983L526,141983" tabindex="0">
				<title>00:40.33 on 2024-01-07</title>
			</path>
			<line x1="0" y1="141983" x2="566" y2="141983"/>
			<line x1="526" y1="146016" x2="526" y2="0"/>
		</g>
		<g style="--index: 51;">
			<path d="M543,122674" tabindex="0">
				<title>l_rdqo542w-9d8eewld-wl30kw9l.21g8owxl</title>
			</path>
			<rect x="543" y="122674" width="0" height="0"/>
			<path d="M543,122674L543,122674" tabindex="0">
				<title>03:53.42 on 2024-01-24</title>
			</path>
			<line x1="0" y1="122674" x2="566" y2="122674"/>
			<line x1="543" y1="146016" x2="543" y2="0"/>
		</g>
	</g>
</svg>
