<svg xmlns="http://www.w3.org/2000/svg" viewBox="0 0 766 133761" preserveAspectRatio="none" lang="en" style="color-scheme: dark light;">
	<title>Time by leaderboard for player jnzen32j</title>
	<style>
		svg {
			background: var(--canvas-background);
			fill: var(--canvas-background);
			stroke: var(--canvas-foreground);
			stroke-linejoin: round;
			stroke-linecap: round;
		}
		g &gt; path[tabindex] {
			vector-effect: non-scaling-stroke;
			fill: none;
			stroke: hsl(calc(var(--index) / var(--count) * 360), 50%, 50%);
			cursor: help;
		}
		g:is(:hover, :focus-within) &gt; path[tabindex] {
			stroke: var(--canvas-foreground);
		}
		g &gt; path[tabindex]:is(:hover, :focus-within) {
			outline: 0;
		}
		g &gt; path[tabindex]:first-of-type {
			stroke-width: 2;
		}
		g &gt; path[tabindex]:first-of-type:is(:hover, :focus-within) {
			stroke-width: 4;
		}
		g &gt; path[tabindex]:first-of-type:not(:last-of-type) {
			stroke-dasharray: 4 8;
		}
		g &gt; rect {
			vector-effect: non-scaling-stroke;
			fill: none;
			stroke: none;
			pointer-events: none;
		}
		g &gt; path[tabindex]:first-of-type:is(:hover, :focus-within) + rect {
			fill: var(--highlighted);
		}
		g &gt; path[tabindex]:first-of-type ~ path[tabindex] {
			stroke-width: 8;
		}
		g &gt; path[tabindex]:first-of-type ~ path[tabindex]:is(:hover, :focus-within) {
			stroke-width: 16;
		}
		g &gt; line {
			vector-effect: non-scaling-stroke;
			fill: none;
			stroke: none;
			stroke-width: 2;
			stroke-dasharray: 4 8;
			pointer-events: none;
		}
		g &gt; path[tabindex]:first-of-type:is(:hover, :focus-within) + rect + path[tabindex] + line,
		g &gt; path[tabindex]:first-of-type:is(:hover, :focus-within) + rect + path[tabindex] + line + line,
		g &gt; path[tabindex]:first-of-type:is(:hover, :focus-within) ~ path[tabindex]:last-of-type + line,
		g &gt; path[tabindex]:first-of-type:is(:hover, :focus-within) ~ path[tabindex]:last-of-type + line + line,
		g &gt; path[tabindex]:first-of-type ~ path[tabindex]:is(:hover, :focus-within) + line,
		g &gt; path[tabindex]:first-of-type ~ path[tabindex]:is(:hover, :focus-within) + line + line {
			stroke: var(--faded);
		}
		@media (prefers-color-scheme: dark) {
			:root {
				--canvas-background: #000;
				--canvas-foreground: #ccc;
				--highlighted: #6663;
				--faded: #9993;
			}
		}
		@media (prefers-color-scheme: light) {
			:root {
				--canvas-background: #fff;
				--canvas-foreground: #333;
				--highlighted: #9993;
				--faded: #6663;
			}
		}
	</style>
	<g transform="scale(1 -1)" transform-origin="center center" style="--count: 14;">
		<g style="--index: 0;">
			<path d="M0,1686" tabindex="0">
				<title>l_r9gn1qpd-9d8eewld-0nwoqwkl.xqkjmxnl</title>
			</path>
			<rect x="0" y="1686" width="0" height="0"/>
			<path d="M0,1686L0,1686" tabindex="0">
				<title>00:16.86 on 2021-04-16</title>
			</path>
			<line x1="0" y1="1686" x2="766" y2="1686"/>
			<line x1="0" y1="0" x2="0" y2="133761"/>
		</g>
		<g style="--index: 1;">
			<path d="M0,1923L1,1923L1,1898" tabindex="0">
				<title>l_r9gn1qpd-9d8eewld-0nwoqwkl.21dz3e4l</title>
			</path>
			<rect x="0" y="1898" width="1" height="25"/>
			<path d="M0,1923L0,1923" tabindex="0">
				<title>00:19.23 on 2021-04-16</title>
			</path>
			<line x1="0" y1="1923" x2="766" y2="1923"/>
			<line x1="0" y1="0" x2="0" y2="133761"/>
			<path d="M1,1898L1,1898" tabindex="0">
				<title>00:18.98 on 2021-04-17</title>
			</path>
			<line x1="0" y1="1898" x2="766" y2="1898"/>
			<line x1="1" y1="0" x2="1" y2="133761"/>
		</g>
		<g style="--index: 2;">
			<path d="M22,11055" tabindex="0">
				<title>l_r9gn1qpd-xd144xzd-38dz6v1n.5leogx5q</title>
			</path>
			<rect x="22" y="11055" width="0" height="0"/>
			<path d="M22,11055L22,11055" tabindex="0">
				<title>01:50.55 on 2021-05-08</title>
			</path>
			<line x1="0" y1="11055" x2="766" y2="11055"/>
			<line x1="22" y1="0" x2="22" y2="133761"/>
		</g>
		<g style="--index: 3;">
			<path d="M29,21074" tabindex="0">
				<title>l_495zlx39-xd144xzd-38dz6v1n.5leogx5q</title>
			</path>
			<rect x="29" y="21074" width="0" height="0"/>
			<path d="M29,21074L29,21074" tabindex="0">
				<title>03:30.74 on 2021-05-15</title>
			</path>
			<line x1="0" y1="21074" x2="766" y2="21074"/>
			<line x1="29" y1="0" x2="29" y2="133761"/>
		</g>
		<g style="--index: 4;">
			<path d="M53,1559" tabindex="0">
				<title>l_495zlx39-9d8eewld-2lgr793n.gq7jzvvq</title>
			</path>
			<rect x="53" y="1559" width="0" height="0"/>
			<path d="M53,1559L53,1559" tabindex="0">
				<title>00:15.59 on 2021-06-08</title>
			</path>
			<line x1="0" y1="1559" x2="766" y2="1559"/>
			<line x1="53" y1="0" x2="53" y2="133761"/>
		</g>
		<g style="--index: 5;">
			<path d="M57,3326L76,3326L76,3211" tabindex="0">
				<title>l_ldykv1zw-rkl3znrk-wl3059ol.mlnwjz0l</title>
			</path>
			<rect x="57" y="3211" width="19" height="115"/>
			<path d="M57,3326L57,3326" tabindex="0">
				<title>00:33.26 on 2021-06-12</title>
			</path>
			<line x1="0" y1="3326" x2="766" y2="3326"/>
			<line x1="57" y1="0" x2="57" y2="133761"/>
			<path d="M76,3211L76,3211" tabindex="0">
				<title>00:32.11 on 2021-07-01</title>
			</path>
			<line x1="0" y1="3211" x2="766" y2="3211"/>
			<line x1="76" y1="0" x2="76" y2="133761"/>
		</g>
		<g style="--index: 6;">
			<path d="M58,2636L91,2636L91,2529L453,2529L453,2498L509,2498L509,2490L766,2490L766,2472" tabindex="0">
				<title>l_ldykv1zw-rkl3znrk-wl3059ol.4qypgj4q</title>
			</path>
			<rect x="58" y="2472" width="708" height="164"/>
			<path d="M58,2636L58,2636" tabindex="0">
				<title>00:26.36 on 2021-06-13</title>
			</path>
			<line x1="0" y1="2636" x2="766" y2="2636"/>
			<line x1="58" y1="0" x2="58" y2="133761"/>
			<path d="M91,2529L91,2529" tabindex="0">
				<title>00:25.29 on 2021-07-16</title>
			</path>
			<line x1="0" y1="2529" x2="766" y2="2529"/>
			<line x1="91" y1="0" x2="91" y2="133761"/>
			<path d="M453,2498L453,2498" tabindex="0">
				<title>00:24.98 on 2022-07-13</title>
			</path>
			<line x1="0" y1="2498" x2="766" y2="2498"/>
			<line x1="453" y1="0" x2="453" y2="133761"/>
			<path d="M509,2490L509,2490" tabindex="0">
				<title>00:24.90 on 2022-09-07</title>
			</path>
			<line x1="0" y1="2490" x2="766" y2="2490"/>
			<line x1="509" y1="0" x2="509" y2="133761"/>
			<path d="M766,2472L766,2472" tabindex="0">
				<title>00:24.72 on 2023-05-22</title>
			</path>
			<line x1="0" y1="2472" x2="766" y2="2472"/>
			<line x1="766" y1="0" x2="766" y2="133761"/>
		</g>
		<g style="--index: 7;">
			<path d="M64,133761L65,133761L65,129471L66,129471L66,118495L97,118495L97,111247" tabindex="0">
				<title>xd17x94d-9l71pv4l.zqo20y2l</title>
			</path>
			<rect x="64" y="111247" width="33" height="22514"/>
			<path d="M64,133761L64,133761" tabindex="0">
				<title>22:17.61 on 2021-06-19</title>
			</path>
			<line x1="0" y1="133761" x2="766" y2="133761"/>
			<line x1="64" y1="0" x2="64" y2="133761"/>
			<path d="M65,129471L65,129471" tabindex="0">
				<title>21:34.71 on 2021-06-20</title>
			</path>
			<line x1="0" y1="129471" x2="766" y2="129471"/>
			<line x1="65" y1="0" x2="65" y2="133761"/>
			<path d="M66,118495L66,118495" tabindex="0">
				<title>19:44.95 on 2021-06-21</title>
			</path>
			<line x1="0" y1="118495" x2="766" y2="118495"/>
			<line x1="66" y1="0" x2="66" y2="133761"/>
			<path d="M97,111247L97,111247" tabindex="0">
				<title>18:32.47 on 2021-07-22</title>
			</path>
			<line x1="0" y1="111247" x2="766" y2="111247"/>
			<line x1="97" y1="0" x2="97" y2="133761"/>
		</g>
		<g style="--index: 8;">
			<path d="M65,4359L414,4359L414,4118" tabindex="0">
				<title>l_r9gnozkd-rkl3znrk-wledz9en.z19mo80l</title>
			</path>
			<rect x="65" y="4118" width="349" height="241"/>
			<path d="M65,4359L65,4359" tabindex="0">
				<title>00:43.59 on 2021-06-20</title>
			</path>
			<line x1="0" y1="4359" x2="766" y2="4359"/>
			<line x1="65" y1="0" x2="65" y2="133761"/>
			<path d="M414,4118L414,4118" tabindex="0">
				<title>00:41.18 on 2022-06-04</title>
			</path>
			<line x1="0" y1="4118" x2="766" y2="4118"/>
			<line x1="414" y1="0" x2="414" y2="133761"/>
		</g>
		<g style="--index: 9;">
			<path d="M68,3565L453,3565L453,3408" tabindex="0">
				<title>l_ldykv1zw-rkl3znrk-wl3059ol.9qj0kxel</title>
			</path>
			<rect x="68" y="3408" width="385" height="157"/>
			<path d="M68,3565L68,3565" tabindex="0">
				<title>00:35.65 on 2021-06-23</title>
			</path>
			<line x1="0" y1="3565" x2="766" y2="3565"/>
			<line x1="68" y1="0" x2="68" y2="133761"/>
			<path d="M453,3408L453,3408" tabindex="0">
				<title>00:34.08 on 2022-07-13</title>
			</path>
			<line x1="0" y1="3408" x2="766" y2="3408"/>
			<line x1="453" y1="0" x2="453" y2="133761"/>
		</g>
		<g style="--index: 10;">
			<path d="M116,1595" tabindex="0">
				<title>9kv6l5e2-ql6rezjl.jq6d86v1</title>
			</path>
			<rect x="116" y="1595" width="0" height="0"/>
			<path d="M116,1595L116,1595" tabindex="0">
				<title>00:15.95 on 2021-08-10</title>
			</path>
			<line x1="0" y1="1595" x2="766" y2="1595"/>
			<line x1="116" y1="0" x2="116" y2="133761"/>
		</g>
		<g style="--index: 11;">
			<path d="M120,92303" tabindex="0">
				<title>xd17x94d-9l71pv4l.81wrgm5l</title>
			</path>
			<rect x="120" y="92303" width="0" height="0"/>
			<path d="M120,92303L120,92303" tabindex="0">
				<title>15:23.03 on 2021-08-14</title>
			</path>
			<line x1="0" y1="92303" x2="766" y2="92303"/>
			<line x1="120" y1="0" x2="120" y2="133761"/>
		</g>
		<g style="--index: 12;">
			<path d="M535,1972" tabindex="0">
				<title>9kv6l5e2-ql6rezjl.9qj3pk7l</title>
			</path>
			<rect x="535" y="1972" width="0" height="0"/>
			<path d="M535,1972L535,1972" tabindex="0">
				<title>00:19.72 on 2022-10-03</title>
			</path>
			<line x1="0" y1="1972" x2="766" y2="1972"/>
			<line x1="535" y1="0" x2="535" y2="133761"/>
		</g>
		<g style="--index: 13;">
			<path d="M576,94450" tabindex="0">
				<title>xd17x94d-9l71pv4l.21gpn081</title>
			</path>
			<rect x="576" y="94450" width="0" height="0"/>
			<path d="M576,94450L576,94450" tabindex="0">
				<title>15:44.50 on 2022-11-13</title>
			</path>
			<line x1="0" y1="94450" x2="766" y2="94450"/>
			<line x1="576" y1="0" x2="576" y2="133761"/>
		</g>
	</g>
</svg>
