<svg xmlns="http://www.w3.org/2000/svg" viewBox="0 0 766 133761" preserveAspectRatio="none" lang="en" style="color-scheme: dark light;">
		<title>Time by leaderboard for player jnzen32j</title>
		<style>
			svg {
				background: var(--canvas-background);
				fill: var(--canvas-background);
				stroke: var(--canvas-foreground);
				stroke-linejoin: round;
				stroke-linecap: round;
			}
			g &gt; path[tabindex] {
				vector-effect: non-scaling-stroke;
				fill: none;
				stroke: hsl(calc(var(--index) / var(--count) * 360), 50%, 50%);
				cursor: help;
			}
			g:is(:hover, :focus-within) &gt; path[tabindex] {
				stroke: var(--canvas-foreground);
			}
			g &gt; path[tabindex]:is(:hover, :focus-within) {
				outline: 0;
			}
			g &gt; path[tabindex]:first-of-type {
				stroke-width: 2;
			}
			g &gt; path[tabindex]:first-of-type:is(:hover, :focus-within) {
				stroke-width: 4;
			}
			g &gt; path[tabindex]:first-of-type:not(:last-of-type) {
				stroke-dasharray: 4 8;
			}
			g &gt; rect {
				vector-effect: non-scaling-stroke;
				fill: none;
				stroke: none;
				pointer-events: none;
			}
			g &gt; path[tabindex]:first-of-type:is(:hover, :focus-within) + rect {
				fill: var(--highlighted);
			}
			g &gt; path[tabindex]:first-of-type ~ path[tabindex] {
				stroke-width: 8;
			}
			g &gt; path[tabindex]:first-of-type ~ path[tabindex]:is(:hover, :focus-within) {
				stroke-width: 16;
			}
			g &gt; line {
				vector-effect: non-scaling-stroke;
				fill: none;
				stroke: none;
				stroke-width: 2;
				stroke-dasharray: 4 8;
				pointer-events: none;
			}
			g &gt; path[tabindex]:first-of-type:is(:hover, :focus-within) + rect + path[tabindex] + line,
			g &gt; path[tabindex]:first-of-type:is(:hover, :focus-within) + rect + path[tabindex] + line + line,
			g &gt; path[tabindex]:first-of-type:is(:hover, :focus-within) ~ path[tabindex]:last-of-type + line,
			g &gt; path[tabindex]:first-of-type:is(:hover, :focus-within) ~ path[tabindex]:last-of-type + line + line,
			g &gt; path[tabindex]:first-of-type ~ path[tabindex]:is(:hover, :focus-within) + line,
			g &gt; path[tabindex]:first-of-type ~ path[tabindex]:is(:hover, :focus-within) + line + line {
				stroke: var(--faded);
			}
			@media (prefers-color-scheme: dark) {
				:root {
					--canvas-background: #000;
					--canvas-foreground: #ccc;
					--highlighted: #6663;
					--faded: #9993;
				}
			}
			@media (prefers-color-scheme: light) {
				:root {
					--canvas-background: #fff;
					--canvas-foreground: #333;
					--highlighted: #9993;
					--faded: #6663;
				}
			}
		</style>
		<g style="--count: 14;">
		<g style="--index: 0;">
			<path d="M0,132075" tabindex="0">
				<title>l_r9gn1qpd-9d8eewld-0nwoqwkl.xqkjmxnl</title>
			</path>
			<rect x="0" y="132075" width="0" height="0"/>
			<path d="M0,132075L0,132075" tabindex="0">
				<title>00:16.86 on 2021-04-16</title>
			</path>
			<line x1="0" y1="132075" x2="766" y2="132075"/>
			<line x1="0" y1="133761" x2="0" y2="0"/>
		</g>
		<g style="--index: 1;">
			<path d="M0,131838L1,131838L1,131863" tabindex="0">
				<title>l_r9gn1qpd-9d8eewld-0nwoqwkl.21dz3e4l</title>
			</path>
			<rect x="0" y="131838" width="1" height="25"/>
			<path d="M0,131838L0,131838" tabindex="0">
				<title>00:19.23 on 2021-04-16</title>
			</path>
			<line x1="0" y1="131838" x2="766" y2="131838"/>
			<line x1="0" y1="133761" x2="0" y2="0"/>
			<path d="M1,131863L1,131863" tabindex="0">
				<title>00:18.98 on 2021-04-17</title>
			</path>
			<line x1="0" y1="131863" x2="766" y2="131863"/>
			<line x1="1" y1="133761" x2="1" y2="0"/>
		</g>
		<g style="--index: 2;">
			<path d="M22,122706" tabindex="0">
				<title>l_r9gn1qpd-xd144xzd-38dz6v1n.5leogx5q</title>
			</path>
			<rect x="22" y="122706" width="0" height="0"/>
			<path d="M22,122706L22,122706" tabindex="0">
				<title>01:50.55 on 2021-05-08</title>
			</path>
			<line x1="0" y1="122706" x2="766" y2="122706"/>
			<line x1="22" y1="133761" x2="22" y2="0"/>
		</g>
		<g style="--index: 3;">
			<path d="M29,112687" tabindex="0">
				<title>l_495zlx39-xd144xzd-38dz6v1n.5leogx5q</title>
			</path>
			<rect x="29" y="112687" width="0" height="0"/>
			<path d="M29,112687L29,112687" tabindex="0">
				<title>03:30.74 on 2021-05-15</title>
			</path>
			<line x1="0" y1="112687" x2="766" y2="112687"/>
			<line x1="29" y1="133761" x2="29" y2="0"/>
		</g>
		<g style="--index: 4;">
			<path d="M53,132202" tabindex="0">
				<title>l_495zlx39-9d8eewld-2lgr793n.gq7jzvvq</title>
			</path>
			<rect x="53" y="132202" width="0" height="0"/>
			<path d="M53,132202L53,132202" tabindex="0">
				<title>00:15.59 on 2021-06-08</title>
			</path>
			<line x1="0" y1="132202" x2="766" y2="132202"/>
			<line x1="53" y1="133761" x2="53" y2="0"/>
		</g>
		<g style="--index: 5;">
			<path d="M57,130435L76,130435L76,130550" tabindex="0">
				<title>l_ldykv1zw-rkl3znrk-wl3059ol.mlnwjz0l</title>
			</path>
			<rect x="57" y="130435" width="19" height="115"/>
			<path d="M57,130435L57,130435" tabindex="0">
				<title>00:33.26 on 2021-06-12</title>
			</path>
			<line x1="0" y1="130435" x2="766" y2="130435"/>
			<line x1="57" y1="133761" x2="57" y2="0"/>
			<path d="M76,130550L76,130550" tabindex="0">
				<title>00:32.11 on 2021-07-01</title>
			</path>
			<line x1="0" y1="130550" x2="766" y2="130550"/>
			<line x1="76" y1="133761" x2="76" y2="0"/>
		</g>
		<g style="--index: 6;">
			<path d="M58,131125L91,131125L91,131232L453,131232L453,131263L509,131263L509,131271L766,131271L766,131289" tabindex="0">
				<title>l_ldykv1zw-rkl3znrk-wl3059ol.4qypgj4q</title>
			</path>
			<rect x="58" y="131125" width="708" height="164"/>
			<path d="M58,131125L58,131125" tabindex="0">
				<title>00:26.36 on 2021-06-13</title>
			</path>
			<line x1="0" y1="131125" x2="766" y2="131125"/>
			<line x1="58" y1="133761" x2="58" y2="0"/>
			<path d="M91,131232L91,131232" tabindex="0">
				<title>00:25.29 on 2021-07-16</title>
			</path>
			<line x1="0" y1="131232" x2="766" y2="131232"/>
			<line x1="91" y1="133761" x2="91" y2="0"/>
			<path d="M453,131263L453,131263" tabindex="0">
				<title>00:24.98 on 2022-07-13</title>
			</path>
			<line x1="0" y1="131263" x2="766" y2="131263"/>
			<line x1="453" y1="133761" x2="453" y2="0"/>
			<path d="M509,131271L509,131271" tabindex="0">
				<title>00:24.90 on 2022-09-07</title>
			</path>
			<line x1="0" y1="131271" x2="766" y2="131271"/>
			<line x1="509" y1="133761" x2="509" y2="0"/>
			<path d="M766,131289L766,131289" tabindex="0">
				<title>00:24.72 on 2023-05-22</title>
			</path>
			<line x1="0" y1="131289" x2="766" y2="131289"/>
			<line x1="766" y1="133761" x2="766" y2="0"/>
		</g>
		<g style="--index: 7;">
			<path d="M64,0L65,0L65,4290L66,4290L66,15266L97,15266L97,22514" tabindex="0">
				<title>xd17x94d-9l71pv4l.zqo20y2l</title>
			</path>
			<rect x="64" y="0" width="33" height="22514"/>
			<path d="M64,0L64,0" tabindex="0">
				<title>22:17.61 on 2021-06-19</title>
			</path>
			<line x1="0" y1="0" x2="766" y2="0"/>
			<line x1="64" y1="133761" x2="64" y2="0"/>
			<path d="M65,4290L65,4290" tabindex="0">
				<title>21:34.71 on 2021-06-20</title>
			</path>
			<line x1="0" y1="4290" x2="766" y2="4290"/>
			<line x1="65" y1="133761" x2="65" y2="0"/>
			<path d="M66,15266L66,15266" tabindex="0">
				<title>19:44.95 on 2021-06-21</title>
			</path>
			<line x1="0" y1="15266" x2="766" y2="15266"/>
			<line x1="66" y1="133761" x2="66" y2="0"/>
			<path d="M97,22514L97,22514" tabindex="0">
				<title>18:32.47 on 2021-07-22</title>
			</path>
			<line x1="0" y1="22514" x2="766" y2="22514"/>
			<line x1="97" y1="133761" x2="97" y2="0"/>
		</g>
		<g style="--index: 8;">
			<path d="M65,129402L414,129402L414,129643" tabindex="0">
				<title>l_r9gnozkd-rkl3znrk-wledz9en.z19mo80l</title>
			</path>
			<rect x="65" y="129402" width="349" height="241"/>
			<path d="M65,129402L65,129402" tabindex="0">
				<title>00:43.59 on 2021-06-20</title>
			</path>
			<line x1="0" y1="129402" x2="766" y2="129402"/>
			<line x1="65" y1="133761" x2="65" y2="0"/>
			<path d="M414,129643L414,129643" tabindex="0">
				<title>00:41.18 on 2022-06-04</title>
			</path>
			<line x1="0" y1="129643" x2="766" y2="129643"/>
			<line x1="414" y1="133761" x2="414" y2="0"/>
		</g>
		<g style="--index: 9;">
			<path d="M68,130196L453,130196L453,130353" tabindex="0">
				<title>l_ldykv1zw-rkl3znrk-wl3059ol.9qj0kxel</title>
			</path>
			<rect x="68" y="130196" width="385" height="157"/>
			<path d="M68,130196L68,130196" tabindex="0">
				<title>00:35.65 on 2021-06-23</title>
			</path>
			<line x1="0" y1="130196" x2="766" y2="130196"/>
			<line x1="68" y1="133761" x2="68" y2="0"/>
			<path d="M453,130353L453,130353" tabindex="0">
				<title>00:34.08 on 2022-07-13</title>
			</path>
			<line x1="0" y1="130353" x2="766" y2="130353"/>
			<line x1="453" y1="133761" x2="453" y2="0"/>
		</g>
		<g style="--index: 10;">
			<path d="M116,132166" tabindex="0">
				<title>9kv6l5e2-ql6rezjl.jq6d86v1</title>
			</path>
			<rect x="116" y="132166" width="0" height="0"/>
			<path d="M116,132166L116,132166" tabindex="0">
				<title>00:15.95 on 2021-08-10</title>
			</path>
			<line x1="0" y1="132166" x2="766" y2="132166"/>
			<line x1="116" y1="133761" x2="116" y2="0"/>
		</g>
		<g style="--index: 11;">
			<path d="M120,41458" tabindex="0">
				<title>xd17x94d-9l71pv4l.81wrgm5l</title>
			</path>
			<rect x="120" y="41458" width="0" height="0"/>
			<path d="M120,41458L120,41458" tabindex="0">
				<title>15:23.03 on 2021-08-14</title>
			</path>
			<line x1="0" y1="41458" x2="766" y2="41458"/>
			<line x1="120" y1="133761" x2="120" y2="0"/>
		</g>
		<g style="--index: 12;">
			<path d="M535,131789" tabindex="0">
				<title>9kv6l5e2-ql6rezjl.9qj3pk7l</title>
			</path>
			<rect x="535" y="131789" width="0" height="0"/>
			<path d="M535,131789L535,131789" tabindex="0">
				<title>00:19.72 on 2022-10-03</title>
			</path>
			<line x1="0" y1="131789" x2="766" y2="131789"/>
			<line x1="535" y1="133761" x2="535" y2="0"/>
		</g>
		<g style="--index: 13;">
			<path d="M576,39311" tabindex="0">
				<title>xd17x94d-9l71pv4l.21gpn081</title>
			</path>
			<rect x="576" y="39311" width="0" height="0"/>
			<path d="M576,39311L576,39311" tabindex="0">
				<title>15:44.50 on 2022-11-13</title>
			</path>
			<line x1="0" y1="39311" x2="766" y2="39311"/>
			<line x1="576" y1="133761" x2="576" y2="0"/>
		</g>
	</g>
</svg>
