<svg xmlns="http://www.w3.org/2000/svg" viewBox="0 0 26 1535" preserveAspectRatio="none" lang="en" style="color-scheme: dark light;">
	<title>Time by leaderboard for player jnzg27dj</title>
	<style>
		svg {
			background: var(--canvas-background);
			fill: var(--canvas-background);
			stroke: var(--canvas-foreground);
			stroke-linejoin: round;
			stroke-linecap: round;
		}
		g &gt; path[tabindex] {
			vector-effect: non-scaling-stroke;
			fill: none;
			stroke: hsl(calc(var(--index) / var(--count) * 360), 50%, 50%);
			cursor: help;
		}
		g:is(:hover, :focus-within) &gt; path[tabindex] {
			stroke: var(--canvas-foreground);
		}
		g &gt; path[tabindex]:is(:hover, :focus-within) {
			outline: 0;
		}
		g &gt; path[tabindex]:first-of-type {
			stroke-width: 2;
		}
		g &gt; path[tabindex]:first-of-type:is(:hover, :focus-within) {
			stroke-width: 4;
		}
		g &gt; path[tabindex]:first-of-type:not(:last-of-type) {
			stroke-dasharray: 4 8;
		}
		g &gt; rect {
			vector-effect: non-scaling-stroke;
			fill: none;
			stroke: none;
			pointer-events: none;
		}
		g &gt; path[tabindex]:first-of-type:is(:hover, :focus-within) + rect {
			fill: var(--highlighted);
		}
		g &gt; path[tabindex]:first-of-type ~ path[tabindex] {
			stroke-width: 8;
		}
		g &gt; path[tabindex]:first-of-type ~ path[tabindex]:is(:hover, :focus-within) {
			stroke-width: 16;
		}
		g &gt; line {
			vector-effect: non-scaling-stroke;
			fill: none;
			stroke: none;
			stroke-width: 2;
			stroke-dasharray: 4 8;
			pointer-events: none;
		}
		g &gt; path[tabindex]:first-of-type:is(:hover, :focus-within) + rect + path[tabindex] + line,
		g &gt; path[tabindex]:first-of-type:is(:hover, :focus-within) + rect + path[tabindex] + line + line,
		g &gt; path[tabindex]:first-of-type:is(:hover, :focus-within) ~ path[tabindex]:last-of-type + line,
		g &gt; path[tabindex]:first-of-type:is(:hover, :focus-within) ~ path[tabindex]:last-of-type + line + line,
		g &gt; path[tabindex]:first-of-type ~ path[tabindex]:is(:hover, :focus-within) + line,
		g &gt; path[tabindex]:first-of-type ~ path[tabindex]:is(:hover, :focus-within) + line + line {
			stroke: var(--faded);
		}
		@media (prefers-color-scheme: dark) {
			:root {
				--canvas-background: #000;
				--canvas-foreground: #ccc;
				--highlighted: #6663;
				--faded: #9993;
			}
		}
		@media (prefers-color-scheme: light) {
			:root {
				--canvas-background: #fff;
				--canvas-foreground: #333;
				--highlighted: #9993;
				--faded: #6663;
			}
		}
	</style>
	<g transform="scale(1 -1)" transform-origin="center center" style="--count: 4;">
		<g style="--index: 0;">
			<path d="M0,1107L1,1107L1,960L2,960L2,926L8,926L8,916" tabindex="0">
				<title>l_r9gn1qpd-9d8eewld-0nwoqwkl.81ppdgg1</title>
			</path>
			<rect x="0" y="916" width="8" height="191"/>
			<path d="M0,1107L0,1107" tabindex="0">
				<title>00:11.07 on 2021-01-18</title>
			</path>
			<line x1="0" y1="1107" x2="26" y2="1107"/>
			<line x1="0" y1="0" x2="0" y2="1535"/>
			<path d="M1,960L1,960" tabindex="0">
				<title>00:09.60 on 2021-01-19</title>
			</path>
			<line x1="0" y1="960" x2="26" y2="960"/>
			<line x1="1" y1="0" x2="1" y2="1535"/>
			<path d="M2,926L2,926" tabindex="0">
				<title>00:09.26 on 2021-01-20</title>
			</path>
			<line x1="0" y1="926" x2="26" y2="926"/>
			<line x1="2" y1="0" x2="2" y2="1535"/>
			<path d="M8,916L8,916" tabindex="0">
				<title>00:09.16 on 2021-01-26</title>
			</path>
			<line x1="0" y1="916" x2="26" y2="916"/>
			<line x1="8" y1="0" x2="8" y2="1535"/>
		</g>
		<g style="--index: 1;">
			<path d="M12,1355L19,1355L19,1339L26,1339L26,1313" tabindex="0">
				<title>l_r9gn1qpd-9d8eewld-0nwoqwkl.xqkjmxnl</title>
			</path>
			<rect x="12" y="1313" width="14" height="42"/>
			<path d="M12,1355L12,1355" tabindex="0">
				<title>00:13.55 on 2021-01-30</title>
			</path>
			<line x1="0" y1="1355" x2="26" y2="1355"/>
			<line x1="12" y1="0" x2="12" y2="1535"/>
			<path d="M19,1339L19,1339" tabindex="0">
				<title>00:13.39 on 2021-02-06</title>
			</path>
			<line x1="0" y1="1339" x2="26" y2="1339"/>
			<line x1="19" y1="0" x2="19" y2="1535"/>
			<path d="M26,1313L26,1313" tabindex="0">
				<title>00:13.13 on 2021-02-13</title>
			</path>
			<line x1="0" y1="1313" x2="26" y2="1313"/>
			<line x1="26" y1="0" x2="26" y2="1535"/>
		</g>
		<g style="--index: 2;">
			<path d="M19,1535L26,1535L26,1490" tabindex="0">
				<title>l_r9gn1qpd-9d8eewld-0nwoqwkl.klrpy2jq</title>
			</path>
			<rect x="19" y="1490" width="7" height="45"/>
			<path d="M19,1535L19,1535" tabindex="0">
				<title>00:15.35 on 2021-02-06</title>
			</path>
			<line x1="0" y1="1535" x2="26" y2="1535"/>
			<line x1="19" y1="0" x2="19" y2="1535"/>
			<path d="M26,1490L26,1490" tabindex="0">
				<title>00:14.90 on 2021-02-13</title>
			</path>
			<line x1="0" y1="1490" x2="26" y2="1490"/>
			<line x1="26" y1="0" x2="26" y2="1535"/>
		</g>
		<g style="--index: 3;">
			<path d="M19,1480" tabindex="0">
				<title>l_r9gn1qpd-9d8eewld-0nwoqwkl.21dz3e4l</title>
			</path>
			<rect x="19" y="1480" width="0" height="0"/>
			<path d="M19,1480L19,1480" tabindex="0">
				<title>00:14.80 on 2021-02-06</title>
			</path>
			<line x1="0" y1="1480" x2="26" y2="1480"/>
			<line x1="19" y1="0" x2="19" y2="1535"/>
		</g>
	</g>
</svg>
