<svg xmlns="http://www.w3.org/2000/svg" viewBox="0 0 26 1535" preserveAspectRatio="none" lang="en" style="color-scheme: dark light;">
		<title>Time by leaderboard for player jnzg27dj</title>
		<style>
			svg {
				background: var(--canvas-background);
				fill: var(--canvas-background);
				stroke: var(--canvas-foreground);
				stroke-linejoin: round;
				stroke-linecap: round;
			}
			g &gt; path[tabindex] {
				vector-effect: non-scaling-stroke;
				fill: none;
				stroke: hsl(calc(var(--index) / var(--count) * 360), 50%, 50%);
				cursor: help;
			}
			g:is(:hover, :focus-within) &gt; path[tabindex] {
				stroke: var(--canvas-foreground);
			}
			g &gt; path[tabindex]:is(:hover, :focus-within) {
				outline: 0;
			}
			g &gt; path[tabindex]:first-of-type {
				stroke-width: 2;
			}
			g &gt; path[tabindex]:first-of-type:is(:hover, :focus-within) {
				stroke-width: 4;
			}
			g &gt; path[tabindex]:first-of-type:not(:last-of-type) {
				stroke-dasharray: 4 8;
			}
			g &gt; rect {
				vector-effect: non-scaling-stroke;
				fill: none;
				stroke: none;
				pointer-events: none;
			}
			g &gt; path[tabindex]:first-of-type:is(:hover, :focus-within) + rect {
				fill: var(--highlighted);
			}
			g &gt; path[tabindex]:first-of-type ~ path[tabindex] {
				stroke-width: 8;
			}
			g &gt; path[tabindex]:first-of-type ~ path[tabindex]:is(:hover, :focus-within) {
				stroke-width: 16;
			}
			g &gt; line {
				vector-effect: non-scaling-stroke;
				fill: none;
				stroke: none;
				stroke-width: 2;
				stroke-dasharray: 4 8;
				pointer-events: none;
			}
			g &gt; path[tabindex]:first-of-type:is(:hover, :focus-within) + rect + path[tabindex] + line,
			g &gt; path[tabindex]:first-of-type:is(:hover, :focus-within) + rect + path[tabindex] + line + line,
			g &gt; path[tabindex]:first-of-type:is(:hover, :focus-within) ~ path[tabindex]:last-of-type + line,
			g &gt; path[tabindex]:first-of-type:is(:hover, :focus-within) ~ path[tabindex]:last-of-type + line + line,
			g &gt; path[tabindex]:first-of-type ~ path[tabindex]:is(:hover, :focus-within) + line,
			g &gt; path[tabindex]:first-of-type ~ path[tabindex]:is(:hover, :focus-within) + line + line {
				stroke: var(--faded);
			}
			@media (prefers-color-scheme: dark) {
				:root {
					--canvas-background: #000;
					--canvas-foreground: #ccc;
					--highlighted: #6663;
					--faded: #9993;
				}
			}
			@media (prefers-color-scheme: light) {
				:root {
					--canvas-background: #fff;
					--canvas-foreground: #333;
					--highlighted: #9993;
					--faded: #6663;
				}
			}
		</style>
		<g style="--count: 4;">
		<g style="--index: 0;">
			<path d="M0,428L1,428L1,575L2,575L2,609L8,609L8,619" tabindex="0">
				<title>l_r9gn1qpd-9d8eewld-0nwoqwkl.81ppdgg1</title>
			</path>
			<rect x="0" y="428" width="8" height="191"/>
			<path d="M0,428L0,428" tabindex="0">
				<title>00:11.07 on 2021-01-18</title>
			</path>
			<line x1="0" y1="428" x2="26" y2="428"/>
			<line x1="0" y1="1535" x2="0" y2="0"/>
			<path d="M1,575L1,575" tabindex="0">
				<title>00:09.60 on 2021-01-19</title>
			</path>
			<line x1="0" y1="575" x2="26" y2="575"/>
			<line x1="1" y1="1535" x2="1" y2="0"/>
			<path d="M2,609L2,609" tabindex="0">
				<title>00:09.26 on 2021-01-20</title>
			</path>
			<line x1="0" y1="609" x2="26" y2="609"/>
			<line x1="2" y1="1535" x2="2" y2="0"/>
			<path d="M8,619L8,619" tabindex="0">
				<title>00:09.16 on 2021-01-26</title>
			</path>
			<line x1="0" y1="619" x2="26" y2="619"/>
			<line x1="8" y1="1535" x2="8" y2="0"/>
		</g>
		<g style="--index: 1;">
			<path d="M12,180L19,180L19,196L26,196L26,222" tabindex="0">
				<title>l_r9gn1qpd-9d8eewld-0nwoqwkl.xqkjmxnl</title>
			</path>
			<rect x="12" y="180" width="14" height="42"/>
			<path d="M12,180L12,180" tabindex="0">
				<title>00:13.55 on 2021-01-30</title>
			</path>
			<line x1="0" y1="180" x2="26" y2="180"/>
			<line x1="12" y1="1535" x2="12" y2="0"/>
			<path d="M19,196L19,196" tabindex="0">
				<title>00:13.39 on 2021-02-06</title>
			</path>
			<line x1="0" y1="196" x2="26" y2="196"/>
			<line x1="19" y1="1535" x2="19" y2="0"/>
			<path d="M26,222L26,222" tabindex="0">
				<title>00:13.13 on 2021-02-13</title>
			</path>
			<line x1="0" y1="222" x2="26" y2="222"/>
			<line x1="26" y1="1535" x2="26" y2="0"/>
		</g>
		<g style="--index: 2;">
			<path d="M19,0L26,0L26,45" tabindex="0">
				<title>l_r9gn1qpd-9d8eewld-0nwoqwkl.klrpy2jq</title>
			</path>
			<rect x="19" y="0" width="7" height="45"/>
			<path d="M19,0L19,0" tabindex="0">
				<title>00:15.35 on 2021-02-06</title>
			</path>
			<line x1="0" y1="0" x2="26" y2="0"/>
			<line x1="19" y1="1535" x2="19" y2="0"/>
			<path d="M26,45L26,45" tabindex="0">
				<title>00:14.90 on 2021-02-13</title>
			</path>
			<line x1="0" y1="45" x2="26" y2="45"/>
			<line x1="26" y1="1535" x2="26" y2="0"/>
		</g>
		<g style="--index: 3;">
			<path d="M19,55" tabindex="0">
				<title>l_r9gn1qpd-9d8eewld-0nwoqwkl.21dz3e4l</title>
			</path>
			<rect x="19" y="55" width="0" height="0"/>
			<path d="M19,55L19,55" tabindex="0">
				<title>00:14.80 on 2021-02-06</title>
			</path>
			<line x1="0" y1="55" x2="26" y2="55"/>
			<line x1="19" y1="1535" x2="19" y2="0"/>
		</g>
	</g>
</svg>
