<svg xmlns="http://www.w3.org/2000/svg" viewBox="0 0 19 41835" preserveAspectRatio="none" lang="en" style="color-scheme: dark light;">
		<title>Time by leaderboard for player kj9kz6r8</title>
		<style>
			svg {
				background: var(--canvas-background);
				fill: var(--canvas-background);
				stroke: var(--canvas-foreground);
				stroke-linejoin: round;
				stroke-linecap: round;
			}
			g &gt; path[tabindex] {
				vector-effect: non-scaling-stroke;
				fill: none;
				stroke: hsl(calc(var(--index) / var(--count) * 360), 50%, 50%);
				cursor: help;
			}
			g:is(:hover, :focus-within) &gt; path[tabindex] {
				stroke: var(--canvas-foreground);
			}
			g &gt; path[tabindex]:is(:hover, :focus-within) {
				outline: 0;
			}
			g &gt; path[tabindex]:first-of-type {
				stroke-width: 2;
			}
			g &gt; path[tabindex]:first-of-type:is(:hover, :focus-within) {
				stroke-width: 4;
			}
			g &gt; path[tabindex]:first-of-type:not(:last-of-type) {
				stroke-dasharray: 4 8;
			}
			g &gt; rect {
				vector-effect: non-scaling-stroke;
				fill: none;
				stroke: none;
				pointer-events: none;
			}
			g &gt; path[tabindex]:first-of-type:is(:hover, :focus-within) + rect {
				fill: var(--highlighted);
			}
			g &gt; path[tabindex]:first-of-type ~ path[tabindex] {
				stroke-width: 8;
			}
			g &gt; path[tabindex]:first-of-type ~ path[tabindex]:is(:hover, :focus-within) {
				stroke-width: 16;
			}
			g &gt; line {
				vector-effect: non-scaling-stroke;
				fill: none;
				stroke: none;
				stroke-width: 2;
				stroke-dasharray: 4 8;
				pointer-events: none;
			}
			g &gt; path[tabindex]:first-of-type:is(:hover, :focus-within) + rect + path[tabindex] + line,
			g &gt; path[tabindex]:first-of-type:is(:hover, :focus-within) + rect + path[tabindex] + line + line,
			g &gt; path[tabindex]:first-of-type:is(:hover, :focus-within) ~ path[tabindex]:last-of-type + line,
			g &gt; path[tabindex]:first-of-type:is(:hover, :focus-within) ~ path[tabindex]:last-of-type + line + line,
			g &gt; path[tabindex]:first-of-type ~ path[tabindex]:is(:hover, :focus-within) + line,
			g &gt; path[tabindex]:first-of-type ~ path[tabindex]:is(:hover, :focus-within) + line + line {
				stroke: var(--faded);
			}
			@media (prefers-color-scheme: dark) {
				:root {
					--canvas-background: #000;
					--canvas-foreground: #ccc;
					--highlighted: #6663;
					--faded: #9993;
				}
			}
			@media (prefers-color-scheme: light) {
				:root {
					--canvas-background: #fff;
					--canvas-foreground: #333;
					--highlighted: #9993;
					--faded: #6663;
				}
			}
		</style>
		<g style="--count: 6;">
		<g style="--index: 0;">
			<path d="M0,40126L19,40126L19,40784" tabindex="0">
				<title>l_r9gn1qpd-9d8eewld-0nwoqwkl.81ppdgg1</title>
			</path>
			<rect x="0" y="40126" width="19" height="658"/>
			<path d="M0,40126L0,40126" tabindex="0">
				<title>00:17.09 on 2018-01-17</title>
			</path>
			<line x1="0" y1="40126" x2="19" y2="40126"/>
			<line x1="0" y1="41835" x2="0" y2="0"/>
			<path d="M19,40784L19,40784" tabindex="0">
				<title>00:10.51 on 2018-02-05</title>
			</path>
			<line x1="0" y1="40784" x2="19" y2="40784"/>
			<line x1="19" y1="41835" x2="19" y2="0"/>
		</g>
		<g style="--index: 1;">
			<path d="M0,39228L2,39228L2,39413L18,39413L18,39737" tabindex="0">
				<title>l_r9gn1qpd-9d8eewld-0nwoqwkl.xqkjmxnl</title>
			</path>
			<rect x="0" y="39228" width="18" height="509"/>
			<path d="M0,39228L0,39228" tabindex="0">
				<title>00:26.07 on 2018-01-17</title>
			</path>
			<line x1="0" y1="39228" x2="19" y2="39228"/>
			<line x1="0" y1="41835" x2="0" y2="0"/>
			<path d="M2,39413L2,39413" tabindex="0">
				<title>00:24.22 on 2018-01-19</title>
			</path>
			<line x1="0" y1="39413" x2="19" y2="39413"/>
			<line x1="2" y1="41835" x2="2" y2="0"/>
			<path d="M18,39737L18,39737" tabindex="0">
				<title>00:20.98 on 2018-02-04</title>
			</path>
			<line x1="0" y1="39737" x2="19" y2="39737"/>
			<line x1="18" y1="41835" x2="18" y2="0"/>
		</g>
		<g style="--index: 2;">
			<path d="M14,39594L15,39594L15,39720L16,39720L16,39876" tabindex="0">
				<title>l_r9gn1qpd-9d8eewld-0nwoqwkl.21dz3e4l</title>
			</path>
			<rect x="14" y="39594" width="2" height="282"/>
			<path d="M14,39594L14,39594" tabindex="0">
				<title>00:22.41 on 2018-01-31</title>
			</path>
			<line x1="0" y1="39594" x2="19" y2="39594"/>
			<line x1="14" y1="41835" x2="14" y2="0"/>
			<path d="M15,39720L15,39720" tabindex="0">
				<title>00:21.15 on 2018-02-01</title>
			</path>
			<line x1="0" y1="39720" x2="19" y2="39720"/>
			<line x1="15" y1="41835" x2="15" y2="0"/>
			<path d="M16,39876L16,39876" tabindex="0">
				<title>00:19.59 on 2018-02-02</title>
			</path>
			<line x1="0" y1="39876" x2="19" y2="39876"/>
			<line x1="16" y1="41835" x2="16" y2="0"/>
		</g>
		<g style="--index: 3;">
			<path d="M16,40410" tabindex="0">
				<title>l_r9gn1qpd-9d8eewld-0nwoqwkl.jqzpx3gl</title>
			</path>
			<rect x="16" y="40410" width="0" height="0"/>
			<path d="M16,40410L16,40410" tabindex="0">
				<title>00:14.25 on 2018-02-02</title>
			</path>
			<line x1="0" y1="40410" x2="19" y2="40410"/>
			<line x1="16" y1="41835" x2="16" y2="0"/>
		</g>
		<g style="--index: 4;">
			<path d="M16,39726L17,39726L17,39884" tabindex="0">
				<title>l_r9gn1qpd-9d8eewld-0nwoqwkl.klrpy2jq</title>
			</path>
			<rect x="16" y="39726" width="1" height="158"/>
			<path d="M16,39726L16,39726" tabindex="0">
				<title>00:21.09 on 2018-02-02</title>
			</path>
			<line x1="0" y1="39726" x2="19" y2="39726"/>
			<line x1="16" y1="41835" x2="16" y2="0"/>
			<path d="M17,39884L17,39884" tabindex="0">
				<title>00:19.51 on 2018-02-03</title>
			</path>
			<line x1="0" y1="39884" x2="19" y2="39884"/>
			<line x1="17" y1="41835" x2="17" y2="0"/>
		</g>
		<g style="--index: 5;">
			<path d="M19,0" tabindex="0">
				<title>l_r9gn1qpd-9d8eewld-0nwoqwkl.gq7jrxvq</title>
			</path>
			<rect x="19" y="0" width="0" height="0"/>
			<path d="M19,0L19,0" tabindex="0">
				<title>06:58.35 on 2018-02-05</title>
			</path>
			<line x1="0" y1="0" x2="19" y2="0"/>
			<line x1="19" y1="41835" x2="19" y2="0"/>
		</g>
	</g>
</svg>
