<svg xmlns="http://www.w3.org/2000/svg" viewBox="0 0 19 41835" preserveAspectRatio="none" lang="en" style="color-scheme: dark light;">
		<title>Time by leaderboard for player kj9kz6r8</title>
		<style>
			svg {
				background: var(--canvas-background);
				fill: var(--canvas-background);
				stroke: var(--canvas-foreground);
				stroke-linejoin: round;
				stroke-linecap: round;
			}
			g &gt; path[tabindex] {
				vector-effect: non-scaling-stroke;
				fill: none;
				stroke: hsl(calc(var(--index) / var(--count) * 360), 50%, 50%);
				cursor: help;
			}
			g:is(:hover, :focus-within) &gt; path[tabindex] {
				stroke: var(--canvas-foreground);
			}
			g &gt; path[tabindex]:is(:hover, :focus-within) {
				outline: 0;
			}
			g &gt; path[tabindex]:first-of-type {
				stroke-width: 2;
			}
			g &gt; path[tabindex]:first-of-type:is(:hover, :focus-within) {
				stroke-width: 4;
			}
			g &gt; path[tabindex]:first-of-type:not(:last-of-type) {
				stroke-dasharray: 4 8;
			}
			g &gt; rect {
				vector-effect: non-scaling-stroke;
				fill: none;
				stroke: none;
				pointer-events: none;
			}
			g &gt; path[tabindex]:first-of-type:is(:hover, :focus-within) + rect {
				fill: var(--highlighted);
			}
			g &gt; path[tabindex]:first-of-type ~ path[tabindex] {
				stroke-width: 8;
			}
			g &gt; path[tabindex]:first-of-type ~ path[tabindex]:is(:hover, :focus-within) {
				stroke-width: 16;
			}
			g &gt; line {
				vector-effect: non-scaling-stroke;
				fill: none;
				stroke: none;
				stroke-width: 2;
				stroke-dasharray: 4 8;
				pointer-events: none;
			}
			g &gt; path[tabindex]:first-of-type:is(:hover, :focus-within) + rect + path[tabindex] + line,
			g &gt; path[tabindex]:first-of-type:is(:hover, :focus-within) + rect + path[tabindex] + line + line,
			g &gt; path[tabindex]:first-of-type:is(:hover, :focus-within) ~ path[tabindex]:last-of-type + line,
			g &gt; path[tabindex]:first-of-type:is(:hover, :focus-within) ~ path[tabindex]:last-of-type + line + line,
			g &gt; path[tabindex]:first-of-type ~ path[tabindex]:is(:hover, :focus-within) + line,
			g &gt; path[tabindex]:first-of-type ~ path[tabindex]:is(:hover, :focus-within) + line + line {
				stroke: var(--faded);
			}
			@media (prefers-color-scheme: dark) {
				:root {
					--canvas-background: #000;
					--canvas-foreground: #ccc;
					--highlighted: #6663;
					--faded: #9993;
				}
			}
			@media (prefers-color-scheme: light) {
				:root {
					--canvas-background: #fff;
					--canvas-foreground: #333;
					--highlighted: #9993;
					--faded: #6663;
				}
			}
		</style>
		<g transform="scale(1 -1)" transform-origin="center center" style="--count: 6;">
		<g style="--index: 0;">
			<path d="M0,1709L19,1709L19,1051" tabindex="0">
				<title>l_r9gn1qpd-9d8eewld-0nwoqwkl.81ppdgg1</title>
			</path>
			<rect x="0" y="1051" width="19" height="658"/>
			<path d="M0,1709L0,1709" tabindex="0">
				<title>00:17.09 on 2018-01-17</title>
			</path>
			<line x1="0" y1="1709" x2="19" y2="1709"/>
			<line x1="0" y1="0" x2="0" y2="41835"/>
			<path d="M19,1051L19,1051" tabindex="0">
				<title>00:10.51 on 2018-02-05</title>
			</path>
			<line x1="0" y1="1051" x2="19" y2="1051"/>
			<line x1="19" y1="0" x2="19" y2="41835"/>
		</g>
		<g style="--index: 1;">
			<path d="M0,2607L2,2607L2,2422L18,2422L18,2098" tabindex="0">
				<title>l_r9gn1qpd-9d8eewld-0nwoqwkl.xqkjmxnl</title>
			</path>
			<rect x="0" y="2098" width="18" height="509"/>
			<path d="M0,2607L0,2607" tabindex="0">
				<title>00:26.07 on 2018-01-17</title>
			</path>
			<line x1="0" y1="2607" x2="19" y2="2607"/>
			<line x1="0" y1="0" x2="0" y2="41835"/>
			<path d="M2,2422L2,2422" tabindex="0">
				<title>00:24.22 on 2018-01-19</title>
			</path>
			<line x1="0" y1="2422" x2="19" y2="2422"/>
			<line x1="2" y1="0" x2="2" y2="41835"/>
			<path d="M18,2098L18,2098" tabindex="0">
				<title>00:20.98 on 2018-02-04</title>
			</path>
			<line x1="0" y1="2098" x2="19" y2="2098"/>
			<line x1="18" y1="0" x2="18" y2="41835"/>
		</g>
		<g style="--index: 2;">
			<path d="M14,2241L15,2241L15,2115L16,2115L16,1959" tabindex="0">
				<title>l_r9gn1qpd-9d8eewld-0nwoqwkl.21dz3e4l</title>
			</path>
			<rect x="14" y="1959" width="2" height="282"/>
			<path d="M14,2241L14,2241" tabindex="0">
				<title>00:22.41 on 2018-01-31</title>
			</path>
			<line x1="0" y1="2241" x2="19" y2="2241"/>
			<line x1="14" y1="0" x2="14" y2="41835"/>
			<path d="M15,2115L15,2115" tabindex="0">
				<title>00:21.15 on 2018-02-01</title>
			</path>
			<line x1="0" y1="2115" x2="19" y2="2115"/>
			<line x1="15" y1="0" x2="15" y2="41835"/>
			<path d="M16,1959L16,1959" tabindex="0">
				<title>00:19.59 on 2018-02-02</title>
			</path>
			<line x1="0" y1="1959" x2="19" y2="1959"/>
			<line x1="16" y1="0" x2="16" y2="41835"/>
		</g>
		<g style="--index: 3;">
			<path d="M16,1425" tabindex="0">
				<title>l_r9gn1qpd-9d8eewld-0nwoqwkl.jqzpx3gl</title>
			</path>
			<rect x="16" y="1425" width="0" height="0"/>
			<path d="M16,1425L16,1425" tabindex="0">
				<title>00:14.25 on 2018-02-02</title>
			</path>
			<line x1="0" y1="1425" x2="19" y2="1425"/>
			<line x1="16" y1="0" x2="16" y2="41835"/>
		</g>
		<g style="--index: 4;">
			<path d="M16,2109L17,2109L17,1951" tabindex="0">
				<title>l_r9gn1qpd-9d8eewld-0nwoqwkl.klrpy2jq</title>
			</path>
			<rect x="16" y="1951" width="1" height="158"/>
			<path d="M16,2109L16,2109" tabindex="0">
				<title>00:21.09 on 2018-02-02</title>
			</path>
			<line x1="0" y1="2109" x2="19" y2="2109"/>
			<line x1="16" y1="0" x2="16" y2="41835"/>
			<path d="M17,1951L17,1951" tabindex="0">
				<title>00:19.51 on 2018-02-03</title>
			</path>
			<line x1="0" y1="1951" x2="19" y2="1951"/>
			<line x1="17" y1="0" x2="17" y2="41835"/>
		</g>
		<g style="--index: 5;">
			<path d="M19,41835" tabindex="0">
				<title>l_r9gn1qpd-9d8eewld-0nwoqwkl.gq7jrxvq</title>
			</path>
			<rect x="19" y="41835" width="0" height="0"/>
			<path d="M19,41835L19,41835" tabindex="0">
				<title>06:58.35 on 2018-02-05</title>
			</path>
			<line x1="0" y1="41835" x2="19" y2="41835"/>
			<line x1="19" y1="0" x2="19" y2="41835"/>
		</g>
	</g>
</svg>
