<svg xmlns="http://www.w3.org/2000/svg" viewBox="0 0 464 108188" preserveAspectRatio="none" lang="en" style="color-scheme: dark light;">
		<title>Time by leaderboard for player qj2pq1p8</title>
		<style>
			svg {
				background: var(--canvas-background);
				fill: var(--canvas-background);
				stroke: var(--canvas-foreground);
				stroke-linejoin: round;
				stroke-linecap: round;
			}
			g &gt; path[tabindex] {
				vector-effect: non-scaling-stroke;
				fill: none;
				stroke: hsl(calc(var(--index) / var(--count) * 360), 50%, 50%);
				cursor: help;
			}
			g:is(:hover, :focus-within) &gt; path[tabindex] {
				stroke: var(--canvas-foreground);
			}
			g &gt; path[tabindex]:is(:hover, :focus-within) {
				outline: 0;
			}
			g &gt; path[tabindex]:first-of-type {
				stroke-width: 2;
			}
			g &gt; path[tabindex]:first-of-type:is(:hover, :focus-within) {
				stroke-width: 4;
			}
			g &gt; path[tabindex]:first-of-type:not(:last-of-type) {
				stroke-dasharray: 4 8;
			}
			g &gt; rect {
				vector-effect: non-scaling-stroke;
				fill: none;
				stroke: none;
				pointer-events: none;
			}
			g &gt; path[tabindex]:first-of-type:is(:hover, :focus-within) + rect {
				fill: var(--highlighted);
			}
			g &gt; path[tabindex]:first-of-type ~ path[tabindex] {
				stroke-width: 8;
			}
			g &gt; path[tabindex]:first-of-type ~ path[tabindex]:is(:hover, :focus-within) {
				stroke-width: 16;
			}
			g &gt; line {
				vector-effect: non-scaling-stroke;
				fill: none;
				stroke: none;
				stroke-width: 2;
				stroke-dasharray: 4 8;
				pointer-events: none;
			}
			g &gt; path[tabindex]:first-of-type:is(:hover, :focus-within) + rect + path[tabindex] + line,
			g &gt; path[tabindex]:first-of-type:is(:hover, :focus-within) + rect + path[tabindex] + line + line,
			g &gt; path[tabindex]:first-of-type:is(:hover, :focus-within) ~ path[tabindex]:last-of-type + line,
			g &gt; path[tabindex]:first-of-type:is(:hover, :focus-within) ~ path[tabindex]:last-of-type + line + line,
			g &gt; path[tabindex]:first-of-type ~ path[tabindex]:is(:hover, :focus-within) + line,
			g &gt; path[tabindex]:first-of-type ~ path[tabindex]:is(:hover, :focus-within) + line + line {
				stroke: var(--faded);
			}
			@media (prefers-color-scheme: dark) {
				:root {
					--canvas-background: #000;
					--canvas-foreground: #ccc;
					--highlighted: #6663;
					--faded: #9993;
				}
			}
			@media (prefers-color-scheme: light) {
				:root {
					--canvas-background: #fff;
					--canvas-foreground: #333;
					--highlighted: #9993;
					--faded: #6663;
				}
			}
		</style>
		<g style="--count: 23;">
		<g style="--index: 0;">
			<path d="M0,107192" tabindex="0">
				<title>l_o9xo3rp9-9d8eewld-7896y468.013856dq</title>
			</path>
			<rect x="0" y="107192" width="0" height="0"/>
			<path d="M0,107192L0,107192" tabindex="0">
				<title>00:09.96 on 2018-01-08</title>
			</path>
			<line x1="0" y1="107192" x2="464" y2="107192"/>
			<line x1="0" y1="108188" x2="0" y2="0"/>
		</g>
		<g style="--index: 1;">
			<path d="M1,106638L7,106638L7,106927L11,106927L11,107054L16,107054L16,107113L18,107113L18,107131L19,107131L19,107136L30,107136L30,107143" tabindex="0">
				<title>l_r9gn1qpd-9d8eewld-0nwoqwkl.81ppdgg1</title>
			</path>
			<rect x="1" y="106638" width="29" height="505"/>
			<path d="M1,106638L1,106638" tabindex="0">
				<title>00:15.50 on 2018-01-09</title>
			</path>
			<line x1="0" y1="106638" x2="464" y2="106638"/>
			<line x1="1" y1="108188" x2="1" y2="0"/>
			<path d="M7,106927L7,106927" tabindex="0">
				<title>00:12.61 on 2018-01-15</title>
			</path>
			<line x1="0" y1="106927" x2="464" y2="106927"/>
			<line x1="7" y1="108188" x2="7" y2="0"/>
			<path d="M11,107054L11,107054" tabindex="0">
				<title>00:11.34 on 2018-01-19</title>
			</path>
			<line x1="0" y1="107054" x2="464" y2="107054"/>
			<line x1="11" y1="108188" x2="11" y2="0"/>
			<path d="M16,107113L16,107113" tabindex="0">
				<title>00:10.75 on 2018-01-24</title>
			</path>
			<line x1="0" y1="107113" x2="464" y2="107113"/>
			<line x1="16" y1="108188" x2="16" y2="0"/>
			<path d="M18,107131L18,107131" tabindex="0">
				<title>00:10.57 on 2018-01-26</title>
			</path>
			<line x1="0" y1="107131" x2="464" y2="107131"/>
			<line x1="18" y1="108188" x2="18" y2="0"/>
			<path d="M19,107136L19,107136" tabindex="0">
				<title>00:10.52 on 2018-01-27</title>
			</path>
			<line x1="0" y1="107136" x2="464" y2="107136"/>
			<line x1="19" y1="108188" x2="19" y2="0"/>
			<path d="M30,107143L30,107143" tabindex="0">
				<title>00:10.45 on 2018-02-07</title>
			</path>
			<line x1="0" y1="107143" x2="464" y2="107143"/>
			<line x1="30" y1="108188" x2="30" y2="0"/>
		</g>
		<g style="--index: 2;">
			<path d="M1,105597L18,105597L18,105889L30,105889L30,106144" tabindex="0">
				<title>l_r9gn1qpd-9d8eewld-0nwoqwkl.xqkjmxnl</title>
			</path>
			<rect x="1" y="105597" width="29" height="547"/>
			<path d="M1,105597L1,105597" tabindex="0">
				<title>00:25.91 on 2018-01-09</title>
			</path>
			<line x1="0" y1="105597" x2="464" y2="105597"/>
			<line x1="1" y1="108188" x2="1" y2="0"/>
			<path d="M18,105889L18,105889" tabindex="0">
				<title>00:22.99 on 2018-01-26</title>
			</path>
			<line x1="0" y1="105889" x2="464" y2="105889"/>
			<line x1="18" y1="108188" x2="18" y2="0"/>
			<path d="M30,106144L30,106144" tabindex="0">
				<title>00:20.44 on 2018-02-07</title>
			</path>
			<line x1="0" y1="106144" x2="464" y2="106144"/>
			<line x1="30" y1="108188" x2="30" y2="0"/>
		</g>
		<g style="--index: 3;">
			<path d="M1,106302L31,106302L31,106347" tabindex="0">
				<title>l_o9xo3rp9-9d8eewld-7896y468.jq60ze3q</title>
			</path>
			<rect x="1" y="106302" width="30" height="45"/>
			<path d="M1,106302L1,106302" tabindex="0">
				<title>00:18.86 on 2018-01-09</title>
			</path>
			<line x1="0" y1="106302" x2="464" y2="106302"/>
			<line x1="1" y1="108188" x2="1" y2="0"/>
			<path d="M31,106347L31,106347" tabindex="0">
				<title>00:18.41 on 2018-02-08</title>
			</path>
			<line x1="0" y1="106347" x2="464" y2="106347"/>
			<line x1="31" y1="108188" x2="31" y2="0"/>
		</g>
		<g style="--index: 4;">
			<path d="M1,105997L59,105997L59,106356" tabindex="0">
				<title>l_r9gn1qpd-9d8eewld-0nwoqwkl.21g82pnl</title>
			</path>
			<rect x="1" y="105997" width="58" height="359"/>
			<path d="M1,105997L1,105997" tabindex="0">
				<title>00:21.91 on 2018-01-09</title>
			</path>
			<line x1="0" y1="105997" x2="464" y2="105997"/>
			<line x1="1" y1="108188" x2="1" y2="0"/>
			<path d="M59,106356L59,106356" tabindex="0">
				<title>00:18.32 on 2018-03-08</title>
			</path>
			<line x1="0" y1="106356" x2="464" y2="106356"/>
			<line x1="59" y1="108188" x2="59" y2="0"/>
		</g>
		<g style="--index: 5;">
			<path d="M7,98437L17,98437L17,98610L57,98610L57,98697" tabindex="0">
				<title>l_o9xo3rp9-9d8eewld-7896y468.810zwdwq</title>
			</path>
			<rect x="7" y="98437" width="50" height="260"/>
			<path d="M7,98437L7,98437" tabindex="0">
				<title>01:37.51 on 2018-01-15</title>
			</path>
			<line x1="0" y1="98437" x2="464" y2="98437"/>
			<line x1="7" y1="108188" x2="7" y2="0"/>
			<path d="M17,98610L17,98610" tabindex="0">
				<title>01:35.78 on 2018-01-25</title>
			</path>
			<line x1="0" y1="98610" x2="464" y2="98610"/>
			<line x1="17" y1="108188" x2="17" y2="0"/>
			<path d="M57,98697L57,98697" tabindex="0">
				<title>01:34.91 on 2018-03-06</title>
			</path>
			<line x1="0" y1="98697" x2="464" y2="98697"/>
			<line x1="57" y1="108188" x2="57" y2="0"/>
		</g>
		<g style="--index: 6;">
			<path d="M7,101870L16,101870L16,102275L25,102275L25,102376L57,102376L57,102602" tabindex="0">
				<title>l_r9gn1qpd-9d8eewld-0nwoqwkl.p12dx87q</title>
			</path>
			<rect x="7" y="101870" width="50" height="732"/>
			<path d="M7,101870L7,101870" tabindex="0">
				<title>01:03.18 on 2018-01-15</title>
			</path>
			<line x1="0" y1="101870" x2="464" y2="101870"/>
			<line x1="7" y1="108188" x2="7" y2="0"/>
			<path d="M16,102275L16,102275" tabindex="0">
				<title>00:59.13 on 2018-01-24</title>
			</path>
			<line x1="0" y1="102275" x2="464" y2="102275"/>
			<line x1="16" y1="108188" x2="16" y2="0"/>
			<path d="M25,102376L25,102376" tabindex="0">
				<title>00:58.12 on 2018-02-02</title>
			</path>
			<line x1="0" y1="102376" x2="464" y2="102376"/>
			<line x1="25" y1="108188" x2="25" y2="0"/>
			<path d="M57,102602L57,102602" tabindex="0">
				<title>00:55.86 on 2018-03-06</title>
			</path>
			<line x1="0" y1="102602" x2="464" y2="102602"/>
			<line x1="57" y1="108188" x2="57" y2="0"/>
		</g>
		<g style="--index: 7;">
			<path d="M9,105797L11,105797L11,105938L23,105938L23,106015L25,106015L25,106139" tabindex="0">
				<title>l_r9gn1qpd-9d8eewld-0nwoqwkl.21dz3e4l</title>
			</path>
			<rect x="9" y="105797" width="16" height="342"/>
			<path d="M9,105797L9,105797" tabindex="0">
				<title>00:23.91 on 2018-01-17</title>
			</path>
			<line x1="0" y1="105797" x2="464" y2="105797"/>
			<line x1="9" y1="108188" x2="9" y2="0"/>
			<path d="M11,105938L11,105938" tabindex="0">
				<title>00:22.50 on 2018-01-19</title>
			</path>
			<line x1="0" y1="105938" x2="464" y2="105938"/>
			<line x1="11" y1="108188" x2="11" y2="0"/>
			<path d="M23,106015L23,106015" tabindex="0">
				<title>00:21.73 on 2018-01-31</title>
			</path>
			<line x1="0" y1="106015" x2="464" y2="106015"/>
			<line x1="23" y1="108188" x2="23" y2="0"/>
			<path d="M25,106139L25,106139" tabindex="0">
				<title>00:20.49 on 2018-02-02</title>
			</path>
			<line x1="0" y1="106139" x2="464" y2="106139"/>
			<line x1="25" y1="108188" x2="25" y2="0"/>
		</g>
		<g style="--index: 8;">
			<path d="M9,105818L11,105818L11,105939L23,105939L23,106018L25,106018L25,106104" tabindex="0">
				<title>l_r9gn1qpd-9d8eewld-0nwoqwkl.klrpy2jq</title>
			</path>
			<rect x="9" y="105818" width="16" height="286"/>
			<path d="M9,105818L9,105818" tabindex="0">
				<title>00:23.70 on 2018-01-17</title>
			</path>
			<line x1="0" y1="105818" x2="464" y2="105818"/>
			<line x1="9" y1="108188" x2="9" y2="0"/>
			<path d="M11,105939L11,105939" tabindex="0">
				<title>00:22.49 on 2018-01-19</title>
			</path>
			<line x1="0" y1="105939" x2="464" y2="105939"/>
			<line x1="11" y1="108188" x2="11" y2="0"/>
			<path d="M23,106018L23,106018" tabindex="0">
				<title>00:21.70 on 2018-01-31</title>
			</path>
			<line x1="0" y1="106018" x2="464" y2="106018"/>
			<line x1="23" y1="108188" x2="23" y2="0"/>
			<path d="M25,106104L25,106104" tabindex="0">
				<title>00:20.84 on 2018-02-02</title>
			</path>
			<line x1="0" y1="106104" x2="464" y2="106104"/>
			<line x1="25" y1="108188" x2="25" y2="0"/>
		</g>
		<g style="--index: 9;">
			<path d="M9,106599L30,106599L30,106732L60,106732L60,106818" tabindex="0">
				<title>l_r9gn1qpd-9d8eewld-0nwoqwkl.jqzpx3gl</title>
			</path>
			<rect x="9" y="106599" width="51" height="219"/>
			<path d="M9,106599L9,106599" tabindex="0">
				<title>00:15.89 on 2018-01-17</title>
			</path>
			<line x1="0" y1="106599" x2="464" y2="106599"/>
			<line x1="9" y1="108188" x2="9" y2="0"/>
			<path d="M30,106732L30,106732" tabindex="0">
				<title>00:14.56 on 2018-02-07</title>
			</path>
			<line x1="0" y1="106732" x2="464" y2="106732"/>
			<line x1="30" y1="108188" x2="30" y2="0"/>
			<path d="M60,106818L60,106818" tabindex="0">
				<title>00:13.70 on 2018-03-09</title>
			</path>
			<line x1="0" y1="106818" x2="464" y2="106818"/>
			<line x1="60" y1="108188" x2="60" y2="0"/>
		</g>
		<g style="--index: 10;">
			<path d="M9,90448" tabindex="0">
				<title>l_o9xo3rp9-xd144xzd-38dz6v1n.814y45w1</title>
			</path>
			<rect x="9" y="90448" width="0" height="0"/>
			<path d="M9,90448L9,90448" tabindex="0">
				<title>02:57.40 on 2018-01-17</title>
			</path>
			<line x1="0" y1="90448" x2="464" y2="90448"/>
			<line x1="9" y1="108188" x2="9" y2="0"/>
		</g>
		<g style="--index: 11;">
			<path d="M9,106265" tabindex="0">
				<title>l_o9xo3rp9-9d8eewld-7896y468.rqvpey7q</title>
			</path>
			<rect x="9" y="106265" width="0" height="0"/>
			<path d="M9,106265L9,106265" tabindex="0">
				<title>00:19.23 on 2018-01-17</title>
			</path>
			<line x1="0" y1="106265" x2="464" y2="106265"/>
			<line x1="9" y1="108188" x2="9" y2="0"/>
		</g>
		<g style="--index: 12;">
			<path d="M9,97667L10,97667L10,98246L19,98246L19,98756L25,98756L25,99300" tabindex="0">
				<title>l_r9gn1qpd-xd144xzd-38dz6v1n.814y45w1</title>
			</path>
			<rect x="9" y="97667" width="16" height="1633"/>
			<path d="M9,97667L9,97667" tabindex="0">
				<title>01:45.21 on 2018-01-17</title>
			</path>
			<line x1="0" y1="97667" x2="464" y2="97667"/>
			<line x1="9" y1="108188" x2="9" y2="0"/>
			<path d="M10,98246L10,98246" tabindex="0">
				<title>01:39.42 on 2018-01-18</title>
			</path>
			<line x1="0" y1="98246" x2="464" y2="98246"/>
			<line x1="10" y1="108188" x2="10" y2="0"/>
			<path d="M19,98756L19,98756" tabindex="0">
				<title>01:34.32 on 2018-01-27</title>
			</path>
			<line x1="0" y1="98756" x2="464" y2="98756"/>
			<line x1="19" y1="108188" x2="19" y2="0"/>
			<path d="M25,99300L25,99300" tabindex="0">
				<title>01:28.88 on 2018-02-02</title>
			</path>
			<line x1="0" y1="99300" x2="464" y2="99300"/>
			<line x1="25" y1="108188" x2="25" y2="0"/>
		</g>
		<g style="--index: 13;">
			<path d="M31,75333L418,75333L418,80146" tabindex="0">
				<title>l_r9gn1qpd-9d8eewld-0nwoqwkl.gq7jrxvq</title>
			</path>
			<rect x="31" y="75333" width="387" height="4813"/>
			<path d="M31,75333L31,75333" tabindex="0">
				<title>05:28.55 on 2018-02-08</title>
			</path>
			<line x1="0" y1="75333" x2="464" y2="75333"/>
			<line x1="31" y1="108188" x2="31" y2="0"/>
			<path d="M418,80146L418,80146" tabindex="0">
				<title>04:40.42 on 2019-03-02</title>
			</path>
			<line x1="0" y1="80146" x2="464" y2="80146"/>
			<line x1="418" y1="108188" x2="418" y2="0"/>
		</g>
		<g style="--index: 14;">
			<path d="M32,66665" tabindex="0">
				<title>l_r9gn1qpd-xd144xzd-38dz6v1n.z19md2jl</title>
			</path>
			<rect x="32" y="66665" width="0" height="0"/>
			<path d="M32,66665L32,66665" tabindex="0">
				<title>06:55.23 on 2018-02-09</title>
			</path>
			<line x1="0" y1="66665" x2="464" y2="66665"/>
			<line x1="32" y1="108188" x2="32" y2="0"/>
		</g>
		<g style="--index: 15;">
			<path d="M57,105897L418,105897L418,106211" tabindex="0">
				<title>l_o9xo3rp9-9d8eewld-7896y468.9qj0x8el</title>
			</path>
			<rect x="57" y="105897" width="361" height="314"/>
			<path d="M57,105897L57,105897" tabindex="0">
				<title>00:22.91 on 2018-03-06</title>
			</path>
			<line x1="0" y1="105897" x2="464" y2="105897"/>
			<line x1="57" y1="108188" x2="57" y2="0"/>
			<path d="M418,106211L418,106211" tabindex="0">
				<title>00:19.77 on 2019-03-02</title>
			</path>
			<line x1="0" y1="106211" x2="464" y2="106211"/>
			<line x1="418" y1="108188" x2="418" y2="0"/>
		</g>
		<g style="--index: 16;">
			<path d="M60,104861L93,104861L93,105070" tabindex="0">
				<title>l_o9xo3rp9-9d8eewld-7896y468.5lermx5q</title>
			</path>
			<rect x="60" y="104861" width="33" height="209"/>
			<path d="M60,104861L60,104861" tabindex="0">
				<title>00:33.27 on 2018-03-09</title>
			</path>
			<line x1="0" y1="104861" x2="464" y2="104861"/>
			<line x1="60" y1="108188" x2="60" y2="0"/>
			<path d="M93,105070L93,105070" tabindex="0">
				<title>00:31.18 on 2018-04-11</title>
			</path>
			<line x1="0" y1="105070" x2="464" y2="105070"/>
			<line x1="93" y1="108188" x2="93" y2="0"/>
		</g>
		<g style="--index: 17;">
			<path d="M178,104467" tabindex="0">
				<title>l_495zlx39-9d8eewld-2lgr793n.21g8ownl</title>
			</path>
			<rect x="178" y="104467" width="0" height="0"/>
			<path d="M178,104467L178,104467" tabindex="0">
				<title>00:37.21 on 2018-07-05</title>
			</path>
			<line x1="0" y1="104467" x2="464" y2="104467"/>
			<line x1="178" y1="108188" x2="178" y2="0"/>
		</g>
		<g style="--index: 18;">
			<path d="M181,106237" tabindex="0">
				<title>l_495zlx39-9d8eewld-2lgr793n.814y7w01</title>
			</path>
			<rect x="181" y="106237" width="0" height="0"/>
			<path d="M181,106237L181,106237" tabindex="0">
				<title>00:19.51 on 2018-07-08</title>
			</path>
			<line x1="0" y1="106237" x2="464" y2="106237"/>
			<line x1="181" y1="108188" x2="181" y2="0"/>
		</g>
		<g style="--index: 19;">
			<path d="M181,104843" tabindex="0">
				<title>l_495zlx39-9d8eewld-2lgr793n.81ppd5g1</title>
			</path>
			<rect x="181" y="104843" width="0" height="0"/>
			<path d="M181,104843L181,104843" tabindex="0">
				<title>00:33.45 on 2018-07-08</title>
			</path>
			<line x1="0" y1="104843" x2="464" y2="104843"/>
			<line x1="181" y1="108188" x2="181" y2="0"/>
		</g>
		<g style="--index: 20;">
			<path d="M416,67903L417,67903L417,68290" tabindex="0">
				<title>l_r9gn1qpd-xd144xwd</title>
			</path>
			<rect x="416" y="67903" width="1" height="387"/>
			<path d="M416,67903L416,67903" tabindex="0">
				<title>06:42.85 on 2019-02-28</title>
			</path>
			<line x1="0" y1="67903" x2="464" y2="67903"/>
			<line x1="416" y1="108188" x2="416" y2="0"/>
			<path d="M417,68290L417,68290" tabindex="0">
				<title>06:38.98 on 2019-03-01</title>
			</path>
			<line x1="0" y1="68290" x2="464" y2="68290"/>
			<line x1="417" y1="108188" x2="417" y2="0"/>
		</g>
		<g style="--index: 21;">
			<path d="M418,86665" tabindex="0">
				<title>l_o9xo3rp9-9kv66g32-onv7r45n.9qj08g7l</title>
			</path>
			<rect x="418" y="86665" width="0" height="0"/>
			<path d="M418,86665L418,86665" tabindex="0">
				<title>03:35.23 on 2019-03-02</title>
			</path>
			<line x1="0" y1="86665" x2="464" y2="86665"/>
			<line x1="418" y1="108188" x2="418" y2="0"/>
		</g>
		<g style="--index: 22;">
			<path d="M464,0" tabindex="0">
				<title>xd17x94d-9l71pv4l.81wrgm5l</title>
			</path>
			<rect x="464" y="0" width="0" height="0"/>
			<path d="M464,0L464,0" tabindex="0">
				<title>18:01.88 on 2019-04-17</title>
			</path>
			<line x1="0" y1="0" x2="464" y2="0"/>
			<line x1="464" y1="108188" x2="464" y2="0"/>
		</g>
	</g>
</svg>
