<svg xmlns="http://www.w3.org/2000/svg" lang="en">
	<title>Score by leaderboard for player x333znex</title>
	<metadata>
		<meta xmlns="http://www.w3.org/1999/xhtml" charset="utf-8" />
		<meta xmlns="http://www.w3.org/1999/xhtml" name="viewport" content="width=device-width" />
		<meta xmlns="http://www.w3.org/1999/xhtml" name="color-scheme" content="dark light" />
	</metadata>
	<style>
		*,
		::before,
		::after {
			box-sizing: border-box;
		}
		:root {
			background: var(--canvas-background);
			color: var(--canvas-foreground);
			fill: var(--canvas-background);
			stroke: var(--canvas-foreground);
			stroke-linejoin: round;
			stroke-linecap: round;
		}
		foreignObject {
			pointer-events: none;
		}
		foreignObject::before,
		foreignObject::after {
			content: "";
			position: absolute;
			z-index: 1;
			left: 20px;
			bottom: 20px;
			pointer-events: auto;
		}
		foreignObject::before {
			width: calc(100% - 40px);
			height: calc(20px + var(--date-size) * 1px);
		}
		foreignObject::after {
			width: calc(20px + var(--value-size) * 1px);
			height: calc(100% - 40px);
		}
		foreignObject &gt; div {
			position: absolute;
			z-index: 4;
			right: 0;
			top: 0;
			margin: 20px;
			border: 1px solid var(--canvas-foreground);
			background: var(--highlighted);
			font: 16px / 1.25 serif;
			transition: opacity 1s;
			pointer-events: auto;
		}
		foreignObject:is(:hover, :focus-within) &gt; div:not(:hover, :focus-within) {
			opacity: 0;
			pointer-events: none;
		}
		foreignObject &gt; div &gt; p {
			margin: 0;
		}
		label {
			display: table;
			border-collapse: separate;
			border-spacing: 10px;
			direction: rtl;
		}
		progress,
		input[type="checkbox"] {
			display: table-cell;
			width: 16px;
			height: 16px;
			margin: 2px;
			accent-color: var(--canvas-foreground);
			vertical-align: top;
			direction: ltr;
		}
		progress + span,
		input[type="checkbox"] + span {
			display: table-cell;
			vertical-align: top;
			direction: ltr;
		}
		input[type="checkbox"]:not(:disabled):is(:hover, :focus-within) + span {
			text-decoration: underline;
		}
		foreignObject &gt; svg:first-of-type,
		foreignObject &gt; svg:first-of-type + svg,
		foreignObject &gt; svg:first-of-type + svg + svg,
		foreignObject &gt; svg:first-of-type + svg + svg + svg {
			position: absolute;
			z-index: 2;
			margin: 0;
			padding: 10px;
			background: var(--highlighted);
			font: 16px / 1.25 serif;
			font-weight: bold;
			pointer-events: auto;
		}
		foreignObject &gt; svg:first-of-type,
		foreignObject &gt; svg:first-of-type + svg + svg {
			border-top: 1px solid #0000;
			border-bottom: 1px solid var(--canvas-foreground);
		}
		foreignObject &gt; svg:first-of-type + svg,
		foreignObject &gt; svg:first-of-type + svg + svg + svg {
			border-top: 1px dashed var(--canvas-foreground);
			border-bottom: 1px dashed #0000;
		}
		foreignObject &gt; svg:first-of-type,
		foreignObject &gt; svg:first-of-type + svg {
			width: calc(20px + var(--date-size) * 1px);
			height: 42px;
			bottom: 20px;
		}
		foreignObject &gt; svg:first-of-type {
			left: calc(40px + var(--value-size) * 1px);
			transform: rotate(90deg) translate(-100%, 0);
			transform-origin: left bottom;
		}
		foreignObject &gt; svg:first-of-type + svg {
			right: 20px;
			transform: rotate(90deg) translate(0, 100%);
			transform-origin: right bottom;
		}
		foreignObject &gt; svg:first-of-type + svg + svg,
		foreignObject &gt; svg:first-of-type + svg + svg + svg {
			width: calc(20px + var(--value-size) * 1px);
			height: 42px;
			left: 20px;
		}
		foreignObject &gt; svg:first-of-type + svg + svg {
			bottom: calc(40px + var(--date-size) * 1px);
		}
		foreignObject &gt; svg:first-of-type + svg + svg + svg {
			top: 20px;
		}
		foreignObject &gt; svg:first-of-type &gt; text,
		foreignObject &gt; svg:first-of-type + svg &gt; text,
		foreignObject &gt; svg:first-of-type + svg + svg &gt; text,
		foreignObject &gt; svg:first-of-type + svg + svg + svg &gt; text {
			fill: var(--canvas-foreground);
			stroke: none;
		}
		foreignObject &gt; svg:first-of-type &gt; text,
		foreignObject &gt; svg:first-of-type + svg &gt; text {
			cursor: vertical-text;
		}
		foreignObject &gt; svg:first-of-type + svg + svg + svg + svg {
			position: relative;
			z-index: 3;
			width: calc(100% - 60px - var(--value-size) * 1px);
			height: calc(100% - 60px - var(--date-size) * 1px);
			margin: 20px 20px calc(40px + var(--date-size) * 1px) calc(40px + var(--value-size) * 1px);
			border-left: 1px solid var(--canvas-foreground);
			border-right: 1px dashed var(--canvas-foreground);
			border-top: 1px dashed var(--canvas-foreground);
			border-bottom: 1px solid var(--canvas-foreground);
			background: var(--canvas-background);
			pointer-events: auto;
		}
		g &gt; rect {
			vector-effect: non-scaling-stroke;
			fill: var(--highlighted);
			stroke: none;
		}
		g &gt; rect[tabindex] {
			fill: var(--tier, #0000);
			cursor: help;
		}
		g &gt; rect[tabindex][data-tier="diamond"] {
			--tier: var(--diamond);
		}
		g &gt; rect[tabindex][data-tier="gold"] {
			--tier: var(--gold);
		}
		g &gt; rect[tabindex][data-tier="silver"] {
			--tier: var(--silver);
		}
		g &gt; rect[tabindex][data-tier="bronze"] {
			--tier: var(--bronze);
		}
		g &gt; path[tabindex] {
			vector-effect: non-scaling-stroke;
			fill: none;
			stroke: hsl(calc(var(--index) / var(--count) * 360), 50%, 50%);
			cursor: help;
		}
		g:is(:hover, :focus-within) &gt; path[tabindex] {
			stroke: var(--canvas-foreground);
		}
		g &gt; path[tabindex]:is(:hover, :focus-within) {
			outline: 0;
		}
		g &gt; path[tabindex]:first-of-type {
			stroke-width: 2;
		}
		g &gt; path[tabindex]:first-of-type:is(:hover, :focus-within) {
			stroke-width: 4;
		}
		g &gt; path[tabindex]:first-of-type:not(:last-of-type) {
			stroke-dasharray: 4 8;
		}
		g &gt; path[tabindex]:first-of-type + rect {
			fill: none;
		}
		g &gt; path[tabindex]:first-of-type:is(:hover, :focus-within) + rect {
			fill: var(--highlighted);
			pointer-events: none;
		}
		g &gt; path[tabindex]:first-of-type ~ path[tabindex] {
			stroke-width: 8;
		}
		g &gt; path[tabindex]:first-of-type ~ path[tabindex]:is(:hover, :focus-within) {
			stroke-width: 16;
		}
		g &gt; path[tabindex]:first-of-type ~ path[tabindex] + line,
		g &gt; path[tabindex]:first-of-type ~ path[tabindex] + line + line {
			vector-effect: non-scaling-stroke;
			fill: none;
			stroke: none;
			stroke-width: 2;
			stroke-dasharray: 4 8;
			pointer-events: none;
		}
		g &gt; path[tabindex]:first-of-type:is(:hover, :focus-within) + rect + path[tabindex] + line,
		g &gt; path[tabindex]:first-of-type:is(:hover, :focus-within) + rect + path[tabindex] + line + line,
		g &gt; path[tabindex]:first-of-type:is(:hover, :focus-within) ~ path[tabindex]:last-of-type + line,
		g &gt; path[tabindex]:first-of-type:is(:hover, :focus-within) ~ path[tabindex]:last-of-type + line + line,
		g &gt; path[tabindex]:first-of-type ~ path[tabindex]:is(:hover, :focus-within) + line,
		g &gt; path[tabindex]:first-of-type ~ path[tabindex]:is(:hover, :focus-within) + line + line {
			stroke: var(--faded);
		}
		@media (prefers-color-scheme: dark) {
			:root {
				--canvas-background: #000;
				--canvas-foreground: #ccc;
				--diamond: #0363;
				--gold: #6303;
				--silver: #3633;
				--bronze: #6363;
				--highlighted: #6663;
				--faded: #9993;
			}
		}
		@media (prefers-color-scheme: light) {
			:root {
				--canvas-background: #fff;
				--canvas-foreground: #333;
				--diamond: #9cf3;
				--gold: #fc93;
				--silver: #9c93;
				--bronze: #c9c3;
				--highlighted: #9993;
				--faded: #6663;
			}
		}
	</style>
	<script>
		"use strict";
		{
			const script = document.currentScript;
			const documentUrl = location.href;
			const scope = new URL("../../", documentUrl).pathname;
			const playersKey = `${scope}#players`;
			const leaderboardsKey = `${scope}#leaderboards`;
			const sessionKey = `${scope}#session`;
			const lockKey = `${scope}#lock`;
			async function importDataScript(dataScriptUrl, signal) {
				signal.throwIfAborted();
				if (documentUrl.protocol !== "file:") {
					const response = await fetch(dataScriptUrl, {
						signal,
					});
					if (!response.ok) {
						throw new Error(response.statusText);
					}
					const data = await response.json();
					return data;
				}
				return await new Promise((resolve, reject) =&gt; {
					const name = `callback${Math.random() * 2 ** 53}`;
					let called = false;
					let data = null;
					function callback(value) {
						if (!called) {
							called = true;
							data = value;
						}
					}
					window[name] = callback;
					const dataScript = document.createElementNS("http://www.w3.org/2000/svg", "script");
					dataScript.href = `${dataScriptUrl}&amp;callback=${name}`;
					function handleAbort(event) {
						delete window[name];
						dataScript.removeEventListener("error", handleError);
						dataScript.removeEventListener("load", handleLoad);
						dataScript.remove();
						const reason = signal.reason;
						reject(reason);
					}
					function handleError(event) {
						delete window[name];
						signal.removeEventListener("abort", handleAbort);
						dataScript.removeEventListener("load", handleLoad);
						dataScript.remove();
						const error = event.error;
						reject(error);
					}
					function handleLoad(event) {
						delete window[name];
						signal.removeEventListener("abort", handleAbort);
						dataScript.removeEventListener("error", handleError);
						dataScript.remove();
						resolve(data);
					}
					signal.addEventListener("abort", handleAbort, {
						once: true,
					});
					dataScript.addEventListener("error", handleError, {
						once: true,
					});
					dataScript.addEventListener("load", handleLoad, {
						once: true,
					});
					script.after(dataScript);
				});
			}
			async function waitForTimeout(delay, signal) {
				signal.throwIfAborted();
				return await new Promise((resolve, reject) =&gt; {
					let timeout = null;
					function handleAbort() {
						clearTimeout(timeout);
						const reason = signal.reason;
						reject(reason);
					}
					function handleTimeout() {
						signal.removeEventListener("abort", handleAbort);
						resolve(delay);
					}
					signal.addEventListener("abort", handleAbort, {
						once: true,
					});
					timeout = setTimeout(handleTimeout, delay);
				});
			}
			window.addEventListener("pageshow", (event) =&gt; {
				if (event.persisted) {
					console.log(`Successfully restored page from cache`);
				} else {
					console.log(`Unsuccessfully restored page from cache`);
				}
			});
			window.addEventListener("pagehide", (event) =&gt; {
				if (event.persisted) {
					console.log(`Successfully saved page to cache`);
				} else {
					console.log(`Unsuccessfully saved page to cache`);
				}
			});
			window.addEventListener("pageshow", async (event) =&gt; {
				const rootTitleElement = document.querySelector("title");
				const rootTitleContent = rootTitleElement.textContent;
				const pathTitleElements = Array.from(document.querySelectorAll("g &gt; path[tabindex]:first-of-type &gt; title"));
				const pathTitleContents = pathTitleElements.map((pathTitleElement) =&gt; {
					const pathTitleContent = pathTitleElement.textContent;
					return pathTitleContent;
				});
				const foreignObject = document.querySelector("foreignObject");
				const div = document.createElementNS("http://www.w3.org/1999/xhtml", "div");
				div.dir = "ltr";
				const p = document.createElementNS("http://www.w3.org/1999/xhtml", "p");
				const label = document.createElementNS("http://www.w3.org/1999/xhtml", "label");
				const progress = document.createElementNS("http://www.w3.org/1999/xhtml", "progress");
				label.append(progress);
				const span = document.createElementNS("http://www.w3.org/1999/xhtml", "span");
				span.textContent = "Loading names";
				label.append(span);
				p.append(label);
				div.append(p);
				foreignObject.prepend(div);
				let lock = false;
				let session = null;
				const broadcastChannel = new BroadcastChannel(sessionKey);
				const abortController = new AbortController();
				const signal = abortController.signal;
				const abort = abortController.abort.bind(abortController);
				const {promise, resolve} = Promise.withResolvers();
				broadcastChannel.addEventListener("message", (event) =&gt; {
					const data = event.data;
					const type = data.type;
					switch (type) {
						case "request": {
							if (lock &amp;&amp; signal.aborted) {
								broadcastChannel.postMessage({
									type: "response",
									session,
								});
							}
							break;
						}
						case "response": {
							if (!signal.aborted) {
								session = data.session;
								if (session != null) {
									const {players, leaderboards} = session;
									try {
										const cachedPlayers = JSON.stringify(players);
										const cachedLeaderboards = JSON.stringify(leaderboards);
										sessionStorage.setItem(playersKey, cachedPlayers);
										sessionStorage.setItem(leaderboardsKey, cachedLeaderboards);
									} catch {}
									console.log(`Successfully loaded names from peer`);
									abort();
									resolve();
								} else {
									console.log(`Unsuccessfully loaded names from peer`);
									abort();
									resolve();
								}
							}
							break;
						}
					}
				});
				try {
					const cachedPlayers = sessionStorage.getItem(playersKey);
					const cachedLeaderboards = sessionStorage.getItem(leaderboardsKey);
					if (cachedPlayers == null || cachedLeaderboards == null) {
						throw new Error();
					}
					const players = JSON.parse(cachedPlayers);
					const leaderboards = JSON.parse(cachedLeaderboards);
					session = {players, leaderboards};
				} catch {}
				if (session != null) {
					broadcastChannel.postMessage({
						type: "response",
						session,
					});
					console.log(`Successfully loaded names from local`);
					abort();
					resolve();
				} else {
					broadcastChannel.postMessage({
						type: "request",
					});
					console.log(`Unsuccessfully loaded names from local`);
				}
				(async () =&gt; {
					for (;;) {
						await navigator.locks.request(lockKey, async () =&gt; {
							lock = true;
							console.log(`Acquired lock`);
							if (!signal.aborted) {
								try {
									const players = Object.create(null);
									const leaderboards = Object.create(null);
									const games = ["9d3rrxyd", "w6jl2ned"];
									for (const gameId of games) {
										const {data} = await importDataScript(`https://www.speedrun.com/api/v1/games/${gameId}?embed=categories,levels,variables`, signal);
										const versions = data.variables.data.find((variable) =&gt; {
											return variable.name === "Version";
										});
										const levels = Object.fromEntries(data.levels.data.map((level) =&gt; {
											return [level.id, level];
										}));
										const categories = Object.fromEntries(data.categories.data.map((category) =&gt; {
											return [category.id, category];
										}));
										const variables = Object.fromEntries(data.variables.data.map((variable) =&gt; {
											return [variable.id, variable];
										}));
										console.log(`Got game`);
										await waitForTimeout(800, signal);
										const slice = 200;
										for (let offset = 0;; offset += slice) {
											const {data, pagination} = await importDataScript(`https://www.speedrun.com/api/v1/runs?game=${gameId}&amp;orderby=date&amp;direction=asc&amp;embed=players&amp;offset=${offset}&amp;max=${slice}`, signal);
											const {size} = pagination;
											if (size === 0) {
												break;
											}
											for (const run of data) {
												const status = run.status.status;
												if (status == null || status === "new") {
													continue;
												}
												const player = run.players.data[0].rel === "user" ? run.players.data[0].id : "814p2558";
												const playerName = run.players.data[0].rel === "user" ? run.players.data[0].names.international : "anonymous";
												players[player] ??= playerName;
												const level = run.level;
												const category = run.category;
												const values = Object.entries(run.values).filter(([variable]) =&gt; {
													return variables[variable]?.["is-subcategory"] ?? false;
												}).map(([variable, value]) =&gt; {
													return `-${variable}.${value}`;
												});
												const leaderboard = `${level != null ? `l_${level}-` : ""}${category}${values.join("")}`;
												const levelName = run.level != null ? levels[run.level]?.name ?? null : null;
												const categoryName = categories[run.category]?.name ?? null;
												const valueNames = Object.entries(run.values).filter(([variable]) =&gt; {
													return variables[variable]?.["is-subcategory"] ?? false;
												}).map(([variable, value]) =&gt; {
													return variables[variable]?.values.values[value]?.label ?? null;
												}).filter((valueName) =&gt; {
													return valueName != null;
												});
												const leaderboardName = `${levelName != null ? `${levelName}: ` : ""}${categoryName ?? ""}${values.length !== 0 ? ` - ${valueNames.join(", ")}` : ""}`;
												leaderboards[leaderboard] ??= leaderboardName;
											}
											console.log(`Got runs ${offset}-${offset + size - 1}`);
											await waitForTimeout(800, signal);
										}
									}
									session = {players, leaderboards};
								} catch {}
								if (!signal.aborted) {
									if (session != null) {
										const {players, leaderboards} = session;
										try {
											const cachedPlayers = JSON.stringify(players);
											const cachedLeaderboards = JSON.stringify(leaderboards);
											sessionStorage.setItem(playersKey, cachedPlayers);
											sessionStorage.setItem(leaderboardsKey, cachedLeaderboards);
										} catch {}
										broadcastChannel.postMessage({
											type: "response",
											session,
										});
										console.log(`Successfully loaded names from remote`);
										abort();
										resolve();
									} else {
										broadcastChannel.postMessage({
											type: "response",
											session,
										});
										console.log(`Unsuccessfully loaded names from remote`);
										abort();
										resolve();
									}
								}
							}
							await new Promise((resolve) =&gt; {
								window.addEventListener("beforeunload", () =&gt; {
									resolve();
								}, {
									once: true,
								});
							});
						});
						lock = false;
						console.log(`Released lock`);
						await new Promise((resolve) =&gt; {
							window.addEventListener("pagehide", () =&gt; {
								resolve();
							}, {
								once: true,
							});
						});
						await new Promise((resolve) =&gt;{
							window.addEventListener("pageshow", () =&gt; {
								resolve();
							}, {
								once: true,
							});
						});
					}
				})();
				await promise;
				if (session == null) {
					const input = document.createElementNS("http://www.w3.org/1999/xhtml", "input");
					input.type = "checkbox";
					input.autocomplete = "off";
					input.disabled = true;
					input.indeterminate = true;
					progress.replaceWith(input);
					span.textContent = "Unavailable names";
					return;
				}
				const {players, leaderboards} = session;
				const hasPlayerRoot = rootTitleContent.includes(" for player");
				const hasLeaderboardRoot = rootTitleContent.includes(" for leaderboard");
				const rootTitle = {
					element: rootTitleElement,
					contentWithIds: rootTitleContent,
					contentWithNames: hasPlayerRoot ? rootTitleContent.replace(/ for player ([0-9_a-z]+)/, ($0, $1) =&gt; {
						return ` for player ${players[$1] ?? $1}`;
					}) : hasLeaderboardRoot ? rootTitleContent.replace(/ for leaderboard ((?:l_[0-9_a-z]+-)?[0-9_a-z]+(-[0-9_a-z]+\.[0-9_a-z]+)*)/, ($0, $1) =&gt; {
						return ` for leaderboard ${leaderboards[$1] ?? $1}`;
					}) : rootTitleContent,
				};
				const hasPlayerPaths = rootTitleContent.includes(" by player");
				const hasLeaderboardPaths = rootTitleContent.includes(" by leaderboard");
				const pathTitles = pathTitleElements.map((pathTitleElement, k) =&gt; {
					const pathTitleContent = pathTitleContents[k];
					const pathTitle = {
						element: pathTitleElement,
						contentWithIds: pathTitleContent,
						contentWithNames: hasPlayerPaths ? players[pathTitleContent] ?? pathTitleContent : hasLeaderboardPaths ? leaderboards[pathTitleContent] ?? pathTitleContent : pathTitleContent,
					};
					return pathTitle;
				});
				const input = document.createElementNS("http://www.w3.org/1999/xhtml", "input");
				input.type = "checkbox";
				input.autocomplete = "off";
				input.addEventListener("change", () =&gt; {
					input.disabled = true;
					if (input.checked) {
						rootTitle.element.textContent = rootTitle.contentWithNames;
						for (const pathTitle of pathTitles) {
							pathTitle.element.textContent = pathTitle.contentWithNames;
						}
					} else {
						rootTitle.element.textContent = rootTitle.contentWithIds;
						for (const pathTitle of pathTitles) {
							pathTitle.element.textContent = pathTitle.contentWithIds;
						}
					}
					input.disabled = false;
				});
				progress.replaceWith(input);
				span.textContent = "Reveal names";
			}, {
				once: true,
			});
		}
	</script>
	<script>
		"use strict";
		{
			document.addEventListener("DOMContentLoaded", (event) =&gt; {
				const minDateText = document.querySelector("foreignObject &gt; svg:first-of-type &gt; text");
				const maxDateText = document.querySelector("foreignObject &gt; svg:first-of-type + svg &gt; text");
				const startX = Math.round(Date.parse(minDateText.textContent) / 86400000);
				function xToDate(x) {
					const datetime = new Date((startX + x) * 86400000);
					const year = `${datetime.getUTCFullYear()}`.padStart(4, "0");
					const month = `${datetime.getUTCMonth() + 1}`.padStart(2, "0");
					const day = `${datetime.getUTCDate()}`.padStart(2, "0");
					const date = `${year}-${month}-${day}`;
					const size = date.length * 10;
					return {date, size};
				}
				function setMinDate(x) {
					const {date, size} = xToDate(Math.floor(x));
					minDateText.textLength.baseVal.value = size;
					minDateText.textContent = date;
				}
				function setMaxDate(x) {
					const {date, size} = xToDate(Math.ceil(x));
					maxDateText.textLength.baseVal.value = size;
					maxDateText.textContent = date;
				}
				const minValueText = document.querySelector("foreignObject &gt; svg:first-of-type + svg + svg &gt; text");
				const maxValueText = document.querySelector("foreignObject &gt; svg:first-of-type + svg + svg + svg &gt; text");
				const timed = minValueText.textContent.includes(":");
				function yToValue(y) {
					if (timed) {
						const minutes = `${(y - y % 6000) / 6000}`.padStart(2, "0");
						const seconds = `${(y - y % 100) / 100 % 60}`.padStart(2, "0");
						const centiseconds = `${y % 100}`.padStart(2, "0");
						const value = `${minutes}:${seconds}.${centiseconds}`;
						const size = value.length * 10;
						return {value, size};
					} else {
						const value = `${y}`;
						const size = value.length * 10;
						return {value, size};
					}
				}
				function setMinValue(y) {
					const {value, size} = yToValue(Math.floor(y));
					minValueText.textLength.baseVal.value = size;
					minValueText.textContent = value;
				}
				function setMaxValue(y) {
					const {value, size} = yToValue(Math.ceil(y));
					maxValueText.textLength.baseVal.value = size;
					maxValueText.textContent = value;
				}
				const svg = document.querySelector("foreignObject &gt; svg:first-of-type + svg + svg + svg + svg");
				svg.tabIndex = -1;
				svg.style.setProperty("outline", "0");
				if (CSS.supports("overflow-clip-margin", "8px")) {
					svg.style.setProperty("overflow", "clip");
					svg.style.setProperty("overflow-clip-margin", "8px");
				}
				svg.style.setProperty("touch-action", "none");
				const {x: baseX, y: baseY, width: baseWidth, height: baseHeight} = svg.viewBox.baseVal;
				let pointerCount = 0;
				const pointers = Object.create(null);
				const xPointerIds = [];
				const yPointerIds = [];
				let x = null;
				let y = null;
				let width = null;
				let height = null;
				svg.addEventListener("pointerdown", (event) =&gt; {
					const {pointerId} = event;
					if (pointerId in pointers) {
						return;
					}
					let {x: animX, y: animY, width: animWidth, height: animHeight} = svg.viewBox.baseVal;
					svg.setPointerCapture(pointerId);
					++pointerCount;
					const offsetX = event.offsetX;
					const offsetY = event.offsetY;
					pointers[pointerId] = {
						offsetX,
						offsetY,
					};
					xPointerIds.splice(xPointerIds.findLastIndex((pointerId) =&gt; {
						return pointers[pointerId].offsetX &lt;= offsetX;
					}) + 1, 0, pointerId);
					yPointerIds.splice(yPointerIds.findLastIndex((pointerId) =&gt; {
						return pointers[pointerId].offsetY &lt;= offsetY;
					}) + 1, 0, pointerId);
					const minOffsetX = pointers[xPointerIds[0]].offsetX;
					const minOffsetY = pointers[yPointerIds[0]].offsetY;
					const maxClientWidth = pointers[xPointerIds[pointerCount - 1]].offsetX - minOffsetX;
					const maxClientHeight = pointers[yPointerIds[pointerCount - 1]].offsetY - minOffsetY;
					width = Math.min(maxClientWidth / svg.clientWidth * animWidth, baseWidth);
					height = Math.min(maxClientHeight / svg.clientHeight * animHeight, baseHeight);
					x = Math.max(Math.min(animX + minOffsetX / svg.clientWidth * animWidth, baseX + baseWidth), baseX);
					y = Math.max(Math.min(animY + minOffsetY / svg.clientHeight * animHeight, baseY + baseHeight), baseY);
				});
				svg.addEventListener("pointerup", (event) =&gt; {
					const {pointerId} = event;
					if (!(pointerId in pointers)) {
						return;
					}
					let {x: animX, y: animY, width: animWidth, height: animHeight} = svg.viewBox.baseVal;
					svg.releasePointerCapture(pointerId);
					--pointerCount;
					delete pointers[pointerId];
					xPointerIds.splice(xPointerIds.lastIndexOf(pointerId), 1);
					yPointerIds.splice(yPointerIds.lastIndexOf(pointerId), 1);
					const minOffsetX = pointerCount !== 0 ? pointers[xPointerIds[0]].offsetX : null;
					const minOffsetY = pointerCount !== 0 ? pointers[yPointerIds[0]].offsetY : null;
					const maxClientWidth = pointerCount !== 0 ? pointers[xPointerIds[pointerCount - 1]].offsetX - minOffsetX : null;
					const maxClientHeight = pointerCount !== 0 ? pointers[yPointerIds[pointerCount - 1]].offsetY - minOffsetY : null;
					width = pointerCount !== 0 ? Math.min(maxClientWidth / svg.clientWidth * animWidth, baseWidth) : null;
					height = pointerCount !== 0 ? Math.min(maxClientHeight / svg.clientHeight * animHeight, baseHeight) : null;
					x = pointerCount !== 0 ? Math.max(Math.min(animX + minOffsetX / svg.clientWidth * animWidth, baseX + baseWidth), baseX) : null;
					y = pointerCount !== 0 ? Math.max(Math.min(animY + minOffsetY / svg.clientHeight * animHeight, baseY + baseHeight), baseY) : null;
				});
				svg.addEventListener("pointermove", (event) =&gt; {
					const {pointerId} = event;
					if (!(pointerId in pointers)) {
						return;
					}
					let {x: animX, y: animY, width: animWidth, height: animHeight} = svg.viewBox.baseVal;
					event.preventDefault();
					const offsetX = event.offsetX;
					const offsetY = event.offsetY;
					pointers[pointerId].offsetX = offsetX;
					pointers[pointerId].offsetY = offsetY;
					const oldXIndex = xPointerIds.lastIndexOf(pointerId);
					let newXIndex = oldXIndex;
					while (newXIndex &gt; 0 &amp;&amp; pointers[xPointerIds[newXIndex - 1]].offsetX &gt; offsetX) {
						--newXIndex;
					}
					xPointerIds.copyWithin(newXIndex + 1, newXIndex, oldXIndex);
					xPointerIds[newXIndex] = pointerId;
					while (newXIndex &lt; pointerCount - 1 &amp;&amp; pointers[xPointerIds[newXIndex + 1]].offsetX &lt; offsetX) {
						++newXIndex;
					}
					xPointerIds.copyWithin(oldXIndex, oldXIndex + 1, newXIndex + 1);
					xPointerIds[newXIndex] = pointerId;
					const oldYIndex = yPointerIds.lastIndexOf(pointerId);
					let newYIndex = oldYIndex;
					while (newYIndex &gt; 0 &amp;&amp; pointers[yPointerIds[newYIndex - 1]].offsetY &gt; offsetY) {
						--newYIndex;
					}
					yPointerIds.copyWithin(newYIndex + 1, newYIndex, oldYIndex);
					yPointerIds[newYIndex] = pointerId;
					while (newYIndex &lt; pointerCount - 1 &amp;&amp; pointers[yPointerIds[newYIndex + 1]].offsetY &lt; offsetY) {
						++newYIndex;
					}
					yPointerIds.copyWithin(oldYIndex, oldYIndex + 1, newYIndex + 1);
					yPointerIds[newYIndex] = pointerId;
					const minOffsetX = pointers[xPointerIds[0]].offsetX;
					const minOffsetY = pointers[yPointerIds[0]].offsetY;
					const maxClientWidth = pointers[xPointerIds[pointerCount - 1]].offsetX - minOffsetX;
					const maxClientHeight = pointers[yPointerIds[pointerCount - 1]].offsetY - minOffsetY;
					animWidth = width === 0 ? animWidth : maxClientWidth === 0 ? baseWidth : Math.min(svg.clientWidth / maxClientWidth * width, baseWidth);
					animHeight = height === 0 ? animHeight : maxClientHeight === 0 ? baseHeight : Math.min(svg.clientHeight / maxClientHeight * height, baseHeight);
					animX = Math.max(Math.min(x - minOffsetX / svg.clientWidth * animWidth, baseX + baseWidth - animWidth), baseX);
					animY = Math.max(Math.min(y - minOffsetY / svg.clientHeight * animHeight, baseY + baseHeight - animHeight), baseY);
					svg.viewBox.baseVal.x = animX;
					svg.viewBox.baseVal.y = animY;
					svg.viewBox.baseVal.width = animWidth;
					svg.viewBox.baseVal.height = animHeight;
					setMinDate(animX);
					setMaxDate(animX + animWidth);
					setMinValue(baseY * 2 + baseHeight - animHeight - animY);
					setMaxValue(baseY * 2 + baseHeight - animY);
				});
				const zoomIntensity = 1.25;
				svg.addEventListener("wheel", (event) =&gt; {
					let {x: animX, y: animY, width: animWidth, height: animHeight} = svg.viewBox.baseVal;
					const {ctrlKey, shiftKey} = event;
					event.preventDefault();
					if (pointerCount !== 0) {
						return;
					}
					if (!ctrlKey) {
						const vectorX = (shiftKey ? event.deltaY : event.deltaX) / svg.clientWidth * animWidth;
						const vectorY = (shiftKey ? 0 : event.deltaY) / svg.clientHeight * animHeight;
						animX = Math.max(Math.min(animX + vectorX, baseX + baseWidth - animWidth), baseX);
						animY = Math.max(Math.min(animY + vectorY, baseY + baseHeight - animHeight), baseY);
						svg.viewBox.baseVal.x = animX;
						svg.viewBox.baseVal.y = animY;
						setMinDate(animX);
						setMaxDate(animX + animWidth);
						setMinValue(baseY * 2 + baseHeight - animHeight - animY);
						setMaxValue(baseY * 2 + baseHeight - animY);
						return;
					}
					const ratioX = zoomIntensity ** Math.sign(shiftKey ? event.deltaY : event.deltaX);
					const ratioY = zoomIntensity ** Math.sign(shiftKey ? 0 : event.deltaY);
					const positionX = Math.max(0, Math.min(event.offsetX / svg.clientWidth, 1)) * animWidth;
					const positionY = Math.max(0, Math.min(event.offsetY / svg.clientHeight, 1)) * animHeight;
					animWidth = Math.min(animWidth * ratioX, baseWidth);
					animHeight = Math.min(animHeight * ratioY, baseHeight);
					animX = Math.max(Math.min(animX + positionX * (1 - ratioX), baseX + baseWidth - animWidth), baseX);
					animY = Math.max(Math.min(animY + positionY * (1 - ratioY), baseY + baseHeight - animHeight), baseY);
					svg.viewBox.baseVal.x = animX;
					svg.viewBox.baseVal.y = animY;
					svg.viewBox.baseVal.width = animWidth;
					svg.viewBox.baseVal.height = animHeight;
					setMinDate(animX);
					setMaxDate(animX + animWidth);
					setMinValue(baseY * 2 + baseHeight - animHeight - animY);
					setMaxValue(baseY * 2 + baseHeight - animY);
				}, {
					passive: false,
				});
				svg.addEventListener("keydown", (event) =&gt; {
					let {x: animX, y: animY, width: animWidth, height: animHeight} = svg.viewBox.baseVal;
					const {ctrlKey, shiftKey} = event;
					switch (event.code) {
						case "Space": {
							event.preventDefault();
							if (pointerCount !== 0) {
								return;
							}
							const vectorY = shiftKey ? -animHeight : animHeight;
							animY = Math.max(Math.min(animY + vectorY, baseY + baseHeight - animHeight), baseY);
							svg.viewBox.baseVal.y = animY;
							setMinValue(baseY * 2 + baseHeight - animHeight - animY);
							setMaxValue(baseY * 2 + baseHeight - animY);
							return;
						}
						case "Equal":
						case "NumpadAdd":
						case "Minus":
						case "NumpadSubtract": {
							event.preventDefault();
							if (pointerCount !== 0) {
								return;
							}
							const ratio = event.code === "Minus" || event.code === "NumpadSubtract" ? zoomIntensity : 1 / zoomIntensity;
							if (!shiftKey) {
								animHeight = Math.min(animHeight * ratio, baseHeight);
								animY = Math.max(Math.min(animY, baseY + baseHeight - animHeight), baseY);
								svg.viewBox.baseVal.y = animY;
								svg.viewBox.baseVal.height = animHeight;
								setMinValue(baseY * 2 + baseHeight - animHeight - animY);
								setMaxValue(baseY * 2 + baseHeight - animY);
								return;
							}
							animWidth = Math.min(animWidth * ratio, baseWidth);
							animX = Math.max(Math.min(animX, baseX + baseWidth - animWidth), baseX);
							svg.viewBox.baseVal.x = animX;
							svg.viewBox.baseVal.width = animWidth;
							setMinDate(animX);
							setMaxDate(animX + animWidth);
							return;
						}
						case "Digit0":
						case "Numpad0": {
							event.preventDefault();
							if (pointerCount !== 0) {
								return;
							}
							if (!shiftKey) {
								animY = baseY;
								animHeight = baseHeight;
								svg.viewBox.baseVal.y = animY;
								svg.viewBox.baseVal.height = animHeight;
								setMinValue(baseY * 2 + baseHeight - animHeight - animY);
								setMaxValue(baseY * 2 + baseHeight - animY);
								return;
							}
							animX = baseX;
							animWidth = baseWidth;
							svg.viewBox.baseVal.x = animX;
							svg.viewBox.baseVal.width = animWidth;
							setMinDate(animX);
							setMaxDate(animX + animWidth);
							return;
						}
					}
					switch (event.key) {
						case "ArrowRight": {
							event.preventDefault();
							if (pointerCount !== 0) {
								return;
							}
							const vectorX = 50 / svg.clientWidth * animWidth;
							animX = Math.max(Math.min(animX + vectorX, baseX + baseWidth - animWidth), baseX);
							svg.viewBox.baseVal.x = animX;
							setMinDate(animX);
							setMaxDate(animX + animWidth);
							return;
						}
						case "ArrowLeft": {
							event.preventDefault();
							if (pointerCount !== 0) {
								return;
							}
							const vectorX = -50 / svg.clientWidth * animWidth;
							animX = Math.max(Math.min(animX + vectorX, baseX + baseWidth - animWidth), baseX);
							svg.viewBox.baseVal.x = animX;
							setMinDate(animX);
							setMaxDate(animX + animWidth);
							return;
						}
						case "ArrowDown": {
							if (!ctrlKey) {
								event.preventDefault();
								if (pointerCount !== 0) {
									return;
								}
								const vectorY = 50 / svg.clientHeight * animHeight;
								animY = Math.max(Math.min(animY + vectorY, baseY + baseHeight - animHeight), baseY);
								svg.viewBox.baseVal.y = animY;
								setMinValue(baseY * 2 + baseHeight - animHeight - animY);
								setMaxValue(baseY * 2 + baseHeight - animY);
								return;
							}
						}
						case "End": {
							event.preventDefault();
							if (pointerCount !== 0) {
								return;
							}
							animY = baseY + baseHeight - animHeight;
							svg.viewBox.baseVal.y = animY;
							setMinValue(baseY * 2 + baseHeight - animHeight - animY);
							setMaxValue(baseY * 2 + baseHeight - animY);
							return;
						}
						case "ArrowUp": {
							if (!ctrlKey) {
								event.preventDefault();
								if (pointerCount !== 0) {
									return;
								}
								const vectorY = -50 / svg.clientHeight * animHeight;
								animY = Math.max(Math.min(animY + vectorY, baseY + baseHeight - animHeight), baseY);
								svg.viewBox.baseVal.y = animY;
								setMinValue(baseY * 2 + baseHeight - animHeight - animY);
								setMaxValue(baseY * 2 + baseHeight - animY);
								return;
							}
						}
						case "Home": {
							event.preventDefault();
							if (pointerCount !== 0) {
								return;
							}
							animY = baseY;
							svg.viewBox.baseVal.y = animY;
							setMinValue(baseY * 2 + baseHeight - animHeight - animY);
							setMaxValue(baseY * 2 + baseHeight - animY);
							return;
						}
						case "PageDown":
						case "PageUp":
						case " ": {
							event.preventDefault();
							if (pointerCount !== 0) {
								return;
							}
							const vectorY = event.key === "PageUp" || event.key === " " &amp;&amp; shiftKey ? -animHeight : animHeight;
							animY = Math.max(Math.min(animY + vectorY, baseY + baseHeight - animHeight), baseY);
							svg.viewBox.baseVal.y = animY;
							setMinValue(baseY * 2 + baseHeight - animHeight - animY);
							setMaxValue(baseY * 2 + baseHeight - animY);
							return;
						}
						case "+":
						case "-": {
							event.preventDefault();
							if (pointerCount !== 0) {
								return;
							}
							const ratio = event.key === "-" ? 1 / zoomIntensity : zoomIntensity;
							animWidth = Math.min(animWidth * ratio, baseWidth);
							animHeight = Math.min(animHeight * ratio, baseHeight);
							animX = Math.max(Math.min(animX, baseX + baseWidth - animWidth), baseX);
							animY = Math.max(Math.min(animY, baseY + baseHeight - animHeight), baseY);
							svg.viewBox.baseVal.x = animX;
							svg.viewBox.baseVal.y = animY;
							svg.viewBox.baseVal.width = animWidth;
							svg.viewBox.baseVal.height = animHeight;
							setMinDate(animX);
							setMaxDate(animX + animWidth);
							setMinValue(baseY * 2 + baseHeight - animHeight - animY);
							setMaxValue(baseY * 2 + baseHeight - animY);
							return;
						}
						case "0": {
							event.preventDefault();
							if (pointerCount !== 0) {
								return;
							}
							animX = baseX;
							animY = baseY;
							animWidth = baseWidth;
							animHeight = baseHeight;
							svg.viewBox.baseVal.x = animX;
							svg.viewBox.baseVal.y = animY;
							svg.viewBox.baseVal.width = animWidth;
							svg.viewBox.baseVal.height = animHeight;
							setMinDate(animX);
							setMaxDate(animX + animWidth);
							setMinValue(baseY * 2 + baseHeight - animHeight - animY);
							setMaxValue(baseY * 2 + baseHeight - animY);
							return;
						}
					}
				});
				svg.addEventListener("focusin", (event) =&gt; {
					if (!event.target.matches(":focus-visible")) {
						return;
					}
					event.preventDefault();
					if (pointerCount !== 0) {
						return;
					}
					let {x: animX, y: animY, width: animWidth, height: animHeight} = svg.viewBox.baseVal;
					let {x, y, width, height} = event.target.getBBox();
					width = Math.round(width);
					height = Math.round(height);
					x = Math.round(x);
					y = baseY * 2 + baseHeight - height - Math.round(y);
					if (x + width &lt; animX) {
						animX = x;
						if (width &gt; animWidth) {
							animX += (width - animWidth) / 2;
						}
					} else if (x &gt; animX + animWidth) {
						animX = x + width - animWidth;
						if (width &gt; animWidth) {
							animX -= (width - animWidth) / 2;
						}
					}
					if (y + height &lt; animY) {
						animY = y;
						if (height &gt; animHeight) {
							animY += (height - animHeight) / 2;
						}
					} else if (y &gt; animY + animHeight) {
						animY = y + height - animHeight;
						if (height &gt; animHeight) {
							animY -= (height - animHeight) / 2;
						}
					}
					svg.viewBox.baseVal.x = animX;
					svg.viewBox.baseVal.y = animY;
					setMinDate(animX);
					setMaxDate(animX + animWidth);
					setMinValue(baseY * 2 + baseHeight - animHeight - animY);
					setMaxValue(baseY * 2 + baseHeight - animY);
				});
			}, {
				once: true,
			});
		}
	</script>
	<foreignObject x="0" y="0" width="100%" height="100%" style="--date-size: 100; --value-size: 30;">
		<svg viewBox="0 0 100 20">
			<text x="50" y="10" dx="0" dy="2" textLength="100" lengthAdjust="spacingAndGlyphs" text-anchor="middle" dominant-baseline="middle">2023-01-10</text>
		</svg>
		<svg viewBox="0 0 100 20">
			<text x="50" y="10" dx="0" dy="2" textLength="100" lengthAdjust="spacingAndGlyphs" text-anchor="middle" dominant-baseline="middle">2026-02-27</text>
		</svg>
		<svg viewBox="0 0 30 20">
			<text x="15" y="10" dx="0" dy="2" textLength="10" lengthAdjust="spacingAndGlyphs" text-anchor="middle" dominant-baseline="middle">0</text>
		</svg>
		<svg viewBox="0 0 30 20">
			<text x="15" y="10" dx="0" dy="2" textLength="30" lengthAdjust="spacingAndGlyphs" text-anchor="middle" dominant-baseline="middle">353</text>
		</svg>
		<svg viewBox="0 0 1144 353" preserveAspectRatio="none" overflow="visible">
			<g transform="translate(0 353) scale(1 -1)" style="--count: 4;">
				<g>
					<rect x="0" y="0" width="1144" height="353"/>
				</g>
				<g style="--index: 0;">
					<path d="M0,0L0,0L0,44L2,44L2,45L15,45L15,46L17,46L17,46L61,46L61,46L66,46L66,47L67,47L67,48L68,48L68,49L74,49L74,49L82,49L82,49L84,49L84,50L86,50L86,50L90,50L90,51L94,51L94,52L97,52L97,53L102,53L102,54L104,54L104,55L107,55L107,55L123,55L123,56L124,56L124,56L130,56L130,56L134,56L134,57L135,57L135,58L159,58L159,59L161,59L161,58L173,58L173,59L185,59L185,59L187,59L187,60L189,60L189,60L213,60L213,60L216,60L216,61L223,61L223,61L231,61L231,62L260,62L260,62L271,62L271,63L278,63L278,63L280,63L280,63L296,63L296,64L297,64L297,64L311,64L311,65L323,65L323,66L326,66L326,68L390,68L390,69L391,69L391,70L415,70L415,71L434,71L434,72L448,72L448,73L457,73L457,74L460,74L460,74L474,74L474,74L477,74L477,74L480,74L480,75L494,75L494,75L495,75L495,75L503,75L503,76L512,76L512,78L525,78L525,79L530,79L530,80L532,80L532,81L533,81L533,81L534,81L534,81L535,81L535,81L538,81L538,81L542,81L542,81L545,81L545,82L546,82L546,82L549,82L549,83L552,83L552,84L557,84L557,85L561,85L561,85L563,85L563,85L567,85L567,86L573,86L573,86L575,86L575,87L578,87L578,87L583,87L583,87L586,87L586,88L588,88L588,87L592,87L592,86L597,86L597,86L599,86L599,87L606,87L606,87L607,87L607,87L618,87L618,88L638,88L638,89L641,89L641,89L649,89L649,89L655,89L655,89L661,89L661,90L671,90L671,90L672,90L672,90L676,90L676,90L677,90L677,90L680,90L680,91L684,91L684,91L687,91L687,92L697,92L697,92L698,92L698,92L706,92L706,92L708,92L708,93L712,93L712,94L715,94L715,95L716,95L716,96L722,96L722,96L726,96L726,96L728,96L728,97L731,97L731,98L737,98L737,98L741,98L741,99L745,99L745,99L752,99L752,99L755,99L755,100L766,100L766,101L767,101L767,170L768,170L768,171L770,171L770,172L772,172L772,173L773,173L773,174L783,174L783,175L788,175L788,176L792,176L792,175L794,175L794,176L798,176L798,176L801,176L801,177L805,177L805,178L810,178L810,179L815,179L815,180L818,180L818,181L820,181L820,182L826,182L826,183L829,183L829,184L831,184L831,185L837,185L837,186L842,186L842,187L845,187L845,188L848,188L848,189L851,189L851,191L852,191L852,192L856,192L856,193L857,193L857,194L859,194L859,194L862,194L862,193L864,193L864,194L866,194L866,195L871,195L871,194L875,194L875,196L880,196L880,197L887,197L887,198L888,198L888,200L895,200L895,202L897,202L897,202L902,202L902,203L904,203L904,203L909,203L909,204L910,204L910,205L912,205L912,206L913,206L913,207L919,207L919,208L921,208L921,209L922,209L922,210L925,210L925,211L927,211L927,212L931,212L931,213L932,213L932,215L936,215L936,216L943,216L943,219L944,219L944,220L947,220L947,221L948,221L948,223L950,223L950,224L952,224L952,223L955,223L955,224L958,224L958,225L959,225L959,226L961,226L961,228L965,228L965,228L967,228L967,229L971,229L971,230L972,230L972,231L976,231L976,232L978,232L978,233L980,233L980,234L981,234L981,236L982,236L982,238L984,238L984,237L987,237L987,238L992,238L992,238L993,238L993,239L994,239L994,240L995,240L995,240L997,240L997,241L1004,241L1004,242L1005,242L1005,244L1006,244L1006,248L1011,248L1011,249L1012,249L1012,252L1016,252L1016,253L1020,253L1020,254L1024,254L1024,256L1025,256L1025,257L1027,257L1027,259L1029,259L1029,260L1030,260L1030,261L1031,261L1031,263L1032,263L1032,265L1034,265L1034,266L1036,266L1036,270L1037,270L1037,272L1038,272L1038,273L1040,273L1040,275L1042,275L1042,276L1043,276L1043,277L1044,277L1044,279L1045,279L1045,279L1046,279L1046,280L1048,280L1048,281L1049,281L1049,282L1050,282L1050,283L1052,283L1052,284L1053,284L1053,285L1054,285L1054,286L1056,286L1056,288L1061,288L1061,289L1062,289L1062,289L1063,289L1063,291L1064,291L1064,292L1066,292L1066,293L1068,293L1068,294L1069,294L1069,295L1070,295L1070,296L1072,296L1072,298L1073,298L1073,299L1074,299L1074,300L1075,300L1075,301L1078,301L1078,302L1079,302L1079,303L1082,303L1082,305L1083,305L1083,307L1086,307L1086,306L1088,306L1088,307L1091,307L1091,309L1092,309L1092,310L1095,310L1095,311L1096,311L1096,312L1098,312L1098,312L1100,312L1100,313L1101,313L1101,315L1103,315L1103,317L1104,317L1104,319L1107,319L1107,320L1109,320L1109,321L1110,321L1110,323L1111,323L1111,324L1112,324L1112,326L1113,326L1113,325L1115,325L1115,326L1117,326L1117,327L1118,327L1118,331L1119,331L1119,332L1124,332L1124,335L1125,335L1125,336L1126,336L1126,337L1127,337L1127,337L1128,337L1128,340L1131,340L1131,341L1132,341L1132,344L1136,344L1136,345L1138,345L1138,347L1139,347L1139,350L1140,350L1140,351L1141,351L1141,353L1144,353L1144,353L1144,353" tabindex="0">
						<title>l_r9gn1qpd-9d8eewld-0nwoqwkl.jqzpx3gl</title>
					</path>
				</g>
				<g style="--index: 1;">
					<path d="M0,0L754,0L754,75L755,75L755,77L759,77L759,77L763,77L763,78L764,78L764,78L768,78L768,79L769,79L769,80L770,80L770,80L771,80L771,81L774,81L774,81L777,81L777,80L781,80L781,80L783,80L783,81L787,81L787,83L789,83L789,84L801,84L801,84L802,84L802,85L803,85L803,84L810,84L810,84L825,84L825,85L832,85L832,86L841,86L841,86L844,86L844,87L852,87L852,88L853,88L853,89L857,89L857,90L859,90L859,89L865,89L865,90L867,90L867,91L869,91L869,92L871,92L871,93L876,93L876,92L877,92L877,93L881,93L881,94L883,94L883,93L887,93L887,94L888,94L888,95L895,95L895,96L896,96L896,96L898,96L898,95L909,95L909,95L910,95L910,96L914,96L914,97L916,97L916,97L917,97L917,98L922,98L922,98L925,98L925,99L927,99L927,98L929,98L929,97L930,97L930,98L932,98L932,99L933,99L933,98L934,98L934,97L936,97L936,97L937,97L937,98L938,98L938,99L940,99L940,100L941,100L941,100L942,100L942,100L944,100L944,101L952,101L952,102L957,102L957,103L961,103L961,104L964,104L964,103L967,103L967,103L970,103L970,103L973,103L973,103L977,103L977,103L985,103L985,103L986,103L986,103L987,103L987,103L992,103L992,104L993,104L993,105L994,105L994,106L1003,106L1003,107L1004,107L1004,108L1011,108L1011,107L1013,107L1013,108L1014,108L1014,109L1017,109L1017,110L1018,110L1018,111L1019,111L1019,112L1021,112L1021,114L1022,114L1022,115L1023,115L1023,117L1026,117L1026,118L1028,118L1028,119L1034,119L1034,120L1035,120L1035,120L1039,120L1039,120L1041,120L1041,120L1042,120L1042,121L1047,121L1047,120L1048,120L1048,121L1049,121L1049,122L1051,122L1051,123L1053,123L1053,124L1054,124L1054,124L1057,124L1057,125L1058,125L1058,125L1059,125L1059,125L1060,125L1060,126L1064,126L1064,127L1067,127L1067,127L1068,127L1068,128L1072,128L1072,127L1073,127L1073,126L1077,126L1077,127L1081,127L1081,128L1083,128L1083,128L1084,128L1084,129L1086,129L1086,129L1088,129L1088,131L1096,131L1096,131L1097,131L1097,131L1098,131L1098,132L1102,132L1102,132L1107,132L1107,133L1108,133L1108,133L1111,133L1111,134L1112,134L1112,135L1115,135L1115,134L1116,134L1116,136L1117,136L1117,136L1119,136L1119,139L1120,139L1120,139L1122,139L1122,140L1123,140L1123,141L1124,141L1124,141L1130,141L1130,141L1133,141L1133,143L1134,143L1134,144L1136,144L1136,145L1139,145L1139,145L1144,145L1144,144L1144,144" tabindex="0">
						<title>xd17x94d-9l71pv4l.21gpn081</title>
					</path>
				</g>
				<g style="--index: 2;">
					<path d="M0,0L769,0L769,45L776,45L776,46L781,46L781,47L791,47L791,48L793,48L793,47L810,47L810,47L813,47L813,46L832,46L832,47L856,47L856,48L881,48L881,49L891,49L891,50L894,50L894,49L897,49L897,49L911,49L911,49L921,49L921,50L922,50L922,50L923,50L923,51L925,51L925,53L926,53L926,53L929,53L929,53L930,53L930,54L939,54L939,53L942,53L942,54L949,54L949,55L950,55L950,56L985,56L985,57L995,57L995,57L999,57L999,58L1013,58L1013,58L1020,58L1020,59L1024,59L1024,60L1036,60L1036,60L1038,60L1038,61L1040,61L1040,62L1051,62L1051,63L1059,63L1059,63L1060,63L1060,64L1063,64L1063,65L1068,65L1068,66L1084,66L1084,66L1089,66L1089,67L1096,67L1096,68L1097,68L1097,68L1113,68L1113,69L1114,69L1114,70L1118,70L1118,71L1119,71L1119,72L1120,72L1120,72L1132,72L1132,71L1134,71L1134,71L1138,71L1138,71L1141,71L1141,72L1144,72" tabindex="0">
						<title>l_o9xo3rp9-9d8eewld-7896y468.jq60ze3q</title>
					</path>
				</g>
				<g style="--index: 3;">
					<path d="M0,0L784,0L784,13L785,13L785,17L795,17L795,17L897,17L897,18L900,18L900,17L906,17L906,17L907,17L907,16L916,16L916,16L917,16L917,16L922,16L922,16L925,16L925,16L926,16L926,16L927,16L927,16L928,16L928,15L930,15L930,14L941,14L941,14L955,14L955,15L963,15L963,16L965,16L965,16L979,16L979,17L987,17L987,18L1009,18L1009,19L1020,19L1020,19L1064,19L1064,20L1107,20L1107,20L1119,20L1119,20L1128,20L1128,20L1135,20L1135,20L1144,20" tabindex="0">
						<title>l_495zlx39-9d8eewld-2lgr793n.81ppd5g1</title>
					</path>
				</g>
			</g>
		</svg>
	</foreignObject>
</svg>
