<svg xmlns="http://www.w3.org/2000/svg" lang="en">
	<title>Score by leaderboard for player x361ozex</title>
	<metadata>
		<meta xmlns="http://www.w3.org/1999/xhtml" charset="utf-8" />
		<meta xmlns="http://www.w3.org/1999/xhtml" name="viewport" content="width=device-width" />
		<meta xmlns="http://www.w3.org/1999/xhtml" name="color-scheme" content="dark light" />
	</metadata>
	<style>
		*,
		::before,
		::after {
			box-sizing: border-box;
		}
		:root {
			background: var(--canvas-background);
			color: var(--canvas-foreground);
			fill: var(--canvas-background);
			stroke: var(--canvas-foreground);
			stroke-linejoin: round;
			stroke-linecap: round;
		}
		foreignObject {
			pointer-events: none;
		}
		foreignObject::before,
		foreignObject::after {
			content: "";
			position: absolute;
			z-index: 1;
			left: 20px;
			bottom: 20px;
			pointer-events: auto;
		}
		foreignObject::before {
			width: calc(100% - 40px);
			height: calc(20px + var(--date-size) * 1px);
		}
		foreignObject::after {
			width: calc(20px + var(--value-size) * 1px);
			height: calc(100% - 40px);
		}
		foreignObject &gt; div {
			position: absolute;
			z-index: 4;
			right: 0;
			top: 0;
			margin: 20px;
			border: 1px solid var(--canvas-foreground);
			background: var(--highlighted);
			font: 16px / 1.25 serif;
			transition: opacity 1s;
			pointer-events: auto;
		}
		foreignObject:is(:hover, :focus-within) &gt; div:not(:hover, :focus-within) {
			opacity: 0;
			pointer-events: none;
		}
		foreignObject &gt; div &gt; p {
			margin: 0;
		}
		label {
			display: table;
			border-collapse: separate;
			border-spacing: 10px;
			direction: rtl;
		}
		progress,
		input[type="checkbox"] {
			display: table-cell;
			width: 16px;
			height: 16px;
			margin: 2px;
			accent-color: var(--canvas-foreground);
			vertical-align: top;
			direction: ltr;
		}
		progress + span,
		input[type="checkbox"] + span {
			display: table-cell;
			vertical-align: top;
			direction: ltr;
		}
		input[type="checkbox"]:not(:disabled):is(:hover, :focus-within) + span {
			text-decoration: underline;
		}
		foreignObject &gt; svg:first-of-type,
		foreignObject &gt; svg:first-of-type + svg,
		foreignObject &gt; svg:first-of-type + svg + svg,
		foreignObject &gt; svg:first-of-type + svg + svg + svg {
			position: absolute;
			z-index: 2;
			margin: 0;
			padding: 10px;
			background: var(--highlighted);
			font: 16px / 1.25 serif;
			font-weight: bold;
			pointer-events: auto;
		}
		foreignObject &gt; svg:first-of-type,
		foreignObject &gt; svg:first-of-type + svg + svg {
			border-top: 1px solid #0000;
			border-bottom: 1px solid var(--canvas-foreground);
		}
		foreignObject &gt; svg:first-of-type + svg,
		foreignObject &gt; svg:first-of-type + svg + svg + svg {
			border-top: 1px dashed var(--canvas-foreground);
			border-bottom: 1px dashed #0000;
		}
		foreignObject &gt; svg:first-of-type,
		foreignObject &gt; svg:first-of-type + svg {
			width: calc(20px + var(--date-size) * 1px);
			height: 42px;
			bottom: 20px;
		}
		foreignObject &gt; svg:first-of-type {
			left: calc(40px + var(--value-size) * 1px);
			transform: rotate(90deg) translate(-100%, 0);
			transform-origin: left bottom;
		}
		foreignObject &gt; svg:first-of-type + svg {
			right: 20px;
			transform: rotate(90deg) translate(0, 100%);
			transform-origin: right bottom;
		}
		foreignObject &gt; svg:first-of-type + svg + svg,
		foreignObject &gt; svg:first-of-type + svg + svg + svg {
			width: calc(20px + var(--value-size) * 1px);
			height: 42px;
			left: 20px;
		}
		foreignObject &gt; svg:first-of-type + svg + svg {
			bottom: calc(40px + var(--date-size) * 1px);
		}
		foreignObject &gt; svg:first-of-type + svg + svg + svg {
			top: 20px;
		}
		foreignObject &gt; svg:first-of-type &gt; text,
		foreignObject &gt; svg:first-of-type + svg &gt; text,
		foreignObject &gt; svg:first-of-type + svg + svg &gt; text,
		foreignObject &gt; svg:first-of-type + svg + svg + svg &gt; text {
			fill: var(--canvas-foreground);
			stroke: none;
		}
		foreignObject &gt; svg:first-of-type &gt; text,
		foreignObject &gt; svg:first-of-type + svg &gt; text {
			cursor: vertical-text;
		}
		foreignObject &gt; svg:first-of-type + svg + svg + svg + svg {
			position: relative;
			z-index: 3;
			width: calc(100% - 60px - var(--value-size) * 1px);
			height: calc(100% - 60px - var(--date-size) * 1px);
			margin: 20px 20px calc(40px + var(--date-size) * 1px) calc(40px + var(--value-size) * 1px);
			border-left: 1px solid var(--canvas-foreground);
			border-right: 1px dashed var(--canvas-foreground);
			border-top: 1px dashed var(--canvas-foreground);
			border-bottom: 1px solid var(--canvas-foreground);
			background: var(--canvas-background);
			pointer-events: auto;
		}
		g &gt; rect {
			vector-effect: non-scaling-stroke;
			fill: var(--highlighted);
			stroke: none;
		}
		g &gt; rect[tabindex] {
			fill: var(--tier, #0000);
			cursor: help;
		}
		g &gt; rect[tabindex][data-tier="diamond"] {
			--tier: var(--diamond);
		}
		g &gt; rect[tabindex][data-tier="gold"] {
			--tier: var(--gold);
		}
		g &gt; rect[tabindex][data-tier="silver"] {
			--tier: var(--silver);
		}
		g &gt; rect[tabindex][data-tier="bronze"] {
			--tier: var(--bronze);
		}
		g &gt; path[tabindex] {
			vector-effect: non-scaling-stroke;
			fill: none;
			stroke: hsl(calc(var(--index) / var(--count) * 360), 50%, 50%);
			cursor: help;
		}
		g:is(:hover, :focus-within) &gt; path[tabindex] {
			stroke: var(--canvas-foreground);
		}
		g &gt; path[tabindex]:is(:hover, :focus-within) {
			outline: 0;
		}
		g &gt; path[tabindex]:first-of-type {
			stroke-width: 2;
		}
		g &gt; path[tabindex]:first-of-type:is(:hover, :focus-within) {
			stroke-width: 4;
		}
		g &gt; path[tabindex]:first-of-type:not(:last-of-type) {
			stroke-dasharray: 4 8;
		}
		g &gt; path[tabindex]:first-of-type + rect {
			fill: none;
		}
		g &gt; path[tabindex]:first-of-type:is(:hover, :focus-within) + rect {
			fill: var(--highlighted);
			pointer-events: none;
		}
		g &gt; path[tabindex]:first-of-type ~ path[tabindex] {
			stroke-width: 8;
		}
		g &gt; path[tabindex]:first-of-type ~ path[tabindex]:is(:hover, :focus-within) {
			stroke-width: 16;
		}
		g &gt; path[tabindex]:first-of-type ~ path[tabindex] + line,
		g &gt; path[tabindex]:first-of-type ~ path[tabindex] + line + line {
			vector-effect: non-scaling-stroke;
			fill: none;
			stroke: none;
			stroke-width: 2;
			stroke-dasharray: 4 8;
			pointer-events: none;
		}
		g &gt; path[tabindex]:first-of-type:is(:hover, :focus-within) + rect + path[tabindex] + line,
		g &gt; path[tabindex]:first-of-type:is(:hover, :focus-within) + rect + path[tabindex] + line + line,
		g &gt; path[tabindex]:first-of-type:is(:hover, :focus-within) ~ path[tabindex]:last-of-type + line,
		g &gt; path[tabindex]:first-of-type:is(:hover, :focus-within) ~ path[tabindex]:last-of-type + line + line,
		g &gt; path[tabindex]:first-of-type ~ path[tabindex]:is(:hover, :focus-within) + line,
		g &gt; path[tabindex]:first-of-type ~ path[tabindex]:is(:hover, :focus-within) + line + line {
			stroke: var(--faded);
		}
		@media (prefers-color-scheme: dark) {
			:root {
				--canvas-background: #000;
				--canvas-foreground: #ccc;
				--diamond: #0363;
				--gold: #6303;
				--silver: #3633;
				--bronze: #6363;
				--highlighted: #6663;
				--faded: #9993;
			}
		}
		@media (prefers-color-scheme: light) {
			:root {
				--canvas-background: #fff;
				--canvas-foreground: #333;
				--diamond: #9cf3;
				--gold: #fc93;
				--silver: #9c93;
				--bronze: #c9c3;
				--highlighted: #9993;
				--faded: #6663;
			}
		}
	</style>
	<script>
		"use strict";
		{
			const script = document.currentScript;
			const documentUrl = location.href;
			const scope = new URL("../../", documentUrl).pathname;
			const playersKey = `${scope}#players`;
			const leaderboardsKey = `${scope}#leaderboards`;
			const sessionKey = `${scope}#session`;
			const lockKey = `${scope}#lock`;
			async function importDataScript(dataScriptUrl, signal) {
				signal.throwIfAborted();
				if (documentUrl.protocol !== "file:") {
					const response = await fetch(dataScriptUrl, {
						signal,
					});
					if (!response.ok) {
						throw new Error(response.statusText);
					}
					const data = await response.json();
					return data;
				}
				return await new Promise((resolve, reject) =&gt; {
					const name = `callback${Math.random() * 2 ** 53}`;
					let called = false;
					let data = null;
					function callback(value) {
						if (!called) {
							called = true;
							data = value;
						}
					}
					window[name] = callback;
					const dataScript = document.createElementNS("http://www.w3.org/2000/svg", "script");
					dataScript.href = `${dataScriptUrl}&amp;callback=${name}`;
					function handleAbort(event) {
						delete window[name];
						dataScript.removeEventListener("error", handleError);
						dataScript.removeEventListener("load", handleLoad);
						dataScript.remove();
						const reason = signal.reason;
						reject(reason);
					}
					function handleError(event) {
						delete window[name];
						signal.removeEventListener("abort", handleAbort);
						dataScript.removeEventListener("load", handleLoad);
						dataScript.remove();
						const error = event.error;
						reject(error);
					}
					function handleLoad(event) {
						delete window[name];
						signal.removeEventListener("abort", handleAbort);
						dataScript.removeEventListener("error", handleError);
						dataScript.remove();
						resolve(data);
					}
					signal.addEventListener("abort", handleAbort, {
						once: true,
					});
					dataScript.addEventListener("error", handleError, {
						once: true,
					});
					dataScript.addEventListener("load", handleLoad, {
						once: true,
					});
					script.after(dataScript);
				});
			}
			async function waitForTimeout(delay, signal) {
				signal.throwIfAborted();
				return await new Promise((resolve, reject) =&gt; {
					let timeout = null;
					function handleAbort() {
						clearTimeout(timeout);
						const reason = signal.reason;
						reject(reason);
					}
					function handleTimeout() {
						signal.removeEventListener("abort", handleAbort);
						resolve(delay);
					}
					signal.addEventListener("abort", handleAbort, {
						once: true,
					});
					timeout = setTimeout(handleTimeout, delay);
				});
			}
			window.addEventListener("pageshow", (event) =&gt; {
				if (event.persisted) {
					console.log(`Successfully restored page from cache`);
				} else {
					console.log(`Unsuccessfully restored page from cache`);
				}
			});
			window.addEventListener("pagehide", (event) =&gt; {
				if (event.persisted) {
					console.log(`Successfully saved page to cache`);
				} else {
					console.log(`Unsuccessfully saved page to cache`);
				}
			});
			window.addEventListener("pageshow", async (event) =&gt; {
				const rootTitleElement = document.querySelector("title");
				const rootTitleContent = rootTitleElement.textContent;
				const pathTitleElements = Array.from(document.querySelectorAll("g &gt; path[tabindex]:first-of-type &gt; title"));
				const pathTitleContents = pathTitleElements.map((pathTitleElement) =&gt; {
					const pathTitleContent = pathTitleElement.textContent;
					return pathTitleContent;
				});
				const foreignObject = document.querySelector("foreignObject");
				const div = document.createElementNS("http://www.w3.org/1999/xhtml", "div");
				div.dir = "ltr";
				const p = document.createElementNS("http://www.w3.org/1999/xhtml", "p");
				const label = document.createElementNS("http://www.w3.org/1999/xhtml", "label");
				const progress = document.createElementNS("http://www.w3.org/1999/xhtml", "progress");
				label.append(progress);
				const span = document.createElementNS("http://www.w3.org/1999/xhtml", "span");
				span.textContent = "Loading names";
				label.append(span);
				p.append(label);
				div.append(p);
				foreignObject.prepend(div);
				let lock = false;
				let session = null;
				const broadcastChannel = new BroadcastChannel(sessionKey);
				const abortController = new AbortController();
				const signal = abortController.signal;
				const abort = abortController.abort.bind(abortController);
				const {promise, resolve} = Promise.withResolvers();
				broadcastChannel.addEventListener("message", (event) =&gt; {
					const data = event.data;
					const type = data.type;
					switch (type) {
						case "request": {
							if (lock &amp;&amp; signal.aborted) {
								broadcastChannel.postMessage({
									type: "response",
									session,
								});
							}
							break;
						}
						case "response": {
							if (!signal.aborted) {
								session = data.session;
								if (session != null) {
									const {players, leaderboards} = session;
									try {
										const cachedPlayers = JSON.stringify(players);
										const cachedLeaderboards = JSON.stringify(leaderboards);
										sessionStorage.setItem(playersKey, cachedPlayers);
										sessionStorage.setItem(leaderboardsKey, cachedLeaderboards);
									} catch {}
									console.log(`Successfully loaded names from peer`);
									abort();
									resolve();
								} else {
									console.log(`Unsuccessfully loaded names from peer`);
									abort();
									resolve();
								}
							}
							break;
						}
					}
				});
				try {
					const cachedPlayers = sessionStorage.getItem(playersKey);
					const cachedLeaderboards = sessionStorage.getItem(leaderboardsKey);
					if (cachedPlayers == null || cachedLeaderboards == null) {
						throw new Error();
					}
					const players = JSON.parse(cachedPlayers);
					const leaderboards = JSON.parse(cachedLeaderboards);
					session = {players, leaderboards};
				} catch {}
				if (session != null) {
					broadcastChannel.postMessage({
						type: "response",
						session,
					});
					console.log(`Successfully loaded names from local`);
					abort();
					resolve();
				} else {
					broadcastChannel.postMessage({
						type: "request",
					});
					console.log(`Unsuccessfully loaded names from local`);
				}
				(async () =&gt; {
					for (;;) {
						await navigator.locks.request(lockKey, async () =&gt; {
							lock = true;
							console.log(`Acquired lock`);
							if (!signal.aborted) {
								try {
									const players = Object.create(null);
									const leaderboards = Object.create(null);
									const games = ["9d3rrxyd", "w6jl2ned"];
									for (const gameId of games) {
										const {data} = await importDataScript(`https://www.speedrun.com/api/v1/games/${gameId}?embed=categories,levels,variables`, signal);
										const versions = data.variables.data.find((variable) =&gt; {
											return variable.name === "Version";
										});
										const levels = Object.fromEntries(data.levels.data.map((level) =&gt; {
											return [level.id, level];
										}));
										const categories = Object.fromEntries(data.categories.data.map((category) =&gt; {
											return [category.id, category];
										}));
										const variables = Object.fromEntries(data.variables.data.map((variable) =&gt; {
											return [variable.id, variable];
										}));
										console.log(`Got game`);
										await waitForTimeout(800, signal);
										const slice = 200;
										for (let offset = 0;; offset += slice) {
											const {data, pagination} = await importDataScript(`https://www.speedrun.com/api/v1/runs?game=${gameId}&amp;orderby=date&amp;direction=asc&amp;embed=players&amp;offset=${offset}&amp;max=${slice}`, signal);
											const {size} = pagination;
											if (size === 0) {
												break;
											}
											for (const run of data) {
												const status = run.status.status;
												if (status == null || status === "new") {
													continue;
												}
												const anonymous = (run.players.data[0]?.rel ?? "guest") !== "user";
												const player = !anonymous ? run.players.data[0].id : "814p2558";
												const playerName = !anonymous ? run.players.data[0].names.international : "anonymous";
												players[player] ??= playerName;
												const level = run.level;
												const category = run.category;
												const values = Object.entries(run.values).filter(([variable]) =&gt; {
													return variables[variable]?.["is-subcategory"] ?? false;
												}).map(([variable, value]) =&gt; {
													return `-${variable}.${value}`;
												});
												const leaderboard = `${level != null ? `l_${level}-` : ""}${category}${values.join("")}`;
												const levelName = run.level != null ? levels[run.level]?.name ?? null : null;
												const categoryName = categories[run.category]?.name ?? null;
												const valueNames = Object.entries(run.values).filter(([variable]) =&gt; {
													return variables[variable]?.["is-subcategory"] ?? false;
												}).map(([variable, value]) =&gt; {
													return variables[variable]?.values.values[value]?.label ?? null;
												}).filter((valueName) =&gt; {
													return valueName != null;
												});
												const leaderboardName = `${levelName != null ? `${levelName}: ` : ""}${categoryName ?? ""}${values.length !== 0 ? ` - ${valueNames.join(", ")}` : ""}`;
												leaderboards[leaderboard] ??= leaderboardName;
											}
											console.log(`Got runs ${offset}-${offset + size - 1}`);
											await waitForTimeout(800, signal);
										}
									}
									session = {players, leaderboards};
								} catch {}
								if (!signal.aborted) {
									if (session != null) {
										const {players, leaderboards} = session;
										try {
											const cachedPlayers = JSON.stringify(players);
											const cachedLeaderboards = JSON.stringify(leaderboards);
											sessionStorage.setItem(playersKey, cachedPlayers);
											sessionStorage.setItem(leaderboardsKey, cachedLeaderboards);
										} catch {}
										broadcastChannel.postMessage({
											type: "response",
											session,
										});
										console.log(`Successfully loaded names from remote`);
										abort();
										resolve();
									} else {
										broadcastChannel.postMessage({
											type: "response",
											session,
										});
										console.log(`Unsuccessfully loaded names from remote`);
										abort();
										resolve();
									}
								}
							}
							await new Promise((resolve) =&gt; {
								window.addEventListener("beforeunload", () =&gt; {
									resolve();
								}, {
									once: true,
								});
							});
						});
						lock = false;
						console.log(`Released lock`);
						await new Promise((resolve) =&gt; {
							window.addEventListener("pagehide", () =&gt; {
								resolve();
							}, {
								once: true,
							});
						});
						await new Promise((resolve) =&gt;{
							window.addEventListener("pageshow", () =&gt; {
								resolve();
							}, {
								once: true,
							});
						});
					}
				})();
				await promise;
				if (session == null) {
					const input = document.createElementNS("http://www.w3.org/1999/xhtml", "input");
					input.type = "checkbox";
					input.autocomplete = "off";
					input.disabled = true;
					input.indeterminate = true;
					progress.replaceWith(input);
					span.textContent = "Unavailable names";
					return;
				}
				const {players, leaderboards} = session;
				const hasPlayerRoot = rootTitleContent.includes(" for player");
				const hasLeaderboardRoot = rootTitleContent.includes(" for leaderboard");
				const rootTitle = {
					element: rootTitleElement,
					contentWithIds: rootTitleContent,
					contentWithNames: hasPlayerRoot ? rootTitleContent.replace(/ for player ([0-9_a-z]+)/, ($0, $1) =&gt; {
						return ` for player ${players[$1] ?? $1}`;
					}) : hasLeaderboardRoot ? rootTitleContent.replace(/ for leaderboard ((?:l_[0-9_a-z]+-)?[0-9_a-z]+(-[0-9_a-z]+\.[0-9_a-z]+)*)/, ($0, $1) =&gt; {
						return ` for leaderboard ${leaderboards[$1] ?? $1}`;
					}) : rootTitleContent,
				};
				const hasPlayerPaths = rootTitleContent.includes(" by player");
				const hasLeaderboardPaths = rootTitleContent.includes(" by leaderboard");
				const pathTitles = pathTitleElements.map((pathTitleElement, k) =&gt; {
					const pathTitleContent = pathTitleContents[k];
					const pathTitle = {
						element: pathTitleElement,
						contentWithIds: pathTitleContent,
						contentWithNames: hasPlayerPaths ? players[pathTitleContent] ?? pathTitleContent : hasLeaderboardPaths ? leaderboards[pathTitleContent] ?? pathTitleContent : pathTitleContent,
					};
					return pathTitle;
				});
				const input = document.createElementNS("http://www.w3.org/1999/xhtml", "input");
				input.type = "checkbox";
				input.autocomplete = "off";
				input.addEventListener("change", () =&gt; {
					input.disabled = true;
					if (input.checked) {
						rootTitle.element.textContent = rootTitle.contentWithNames;
						for (const pathTitle of pathTitles) {
							pathTitle.element.textContent = pathTitle.contentWithNames;
						}
					} else {
						rootTitle.element.textContent = rootTitle.contentWithIds;
						for (const pathTitle of pathTitles) {
							pathTitle.element.textContent = pathTitle.contentWithIds;
						}
					}
					input.disabled = false;
				});
				progress.replaceWith(input);
				span.textContent = "Reveal names";
			}, {
				once: true,
			});
		}
	</script>
	<script>
		"use strict";
		{
			document.addEventListener("DOMContentLoaded", (event) =&gt; {
				const minDateText = document.querySelector("foreignObject &gt; svg:first-of-type &gt; text");
				const maxDateText = document.querySelector("foreignObject &gt; svg:first-of-type + svg &gt; text");
				const startX = Math.round(Date.parse(minDateText.textContent) / 86400000);
				function xToDate(x) {
					const datetime = new Date((startX + x) * 86400000);
					const year = `${datetime.getUTCFullYear()}`.padStart(4, "0");
					const month = `${datetime.getUTCMonth() + 1}`.padStart(2, "0");
					const day = `${datetime.getUTCDate()}`.padStart(2, "0");
					const date = `${year}-${month}-${day}`;
					const size = date.length * 10;
					return {date, size};
				}
				function setMinDate(x) {
					const {date, size} = xToDate(Math.floor(x));
					minDateText.textLength.baseVal.value = size;
					minDateText.textContent = date;
				}
				function setMaxDate(x) {
					const {date, size} = xToDate(Math.ceil(x));
					maxDateText.textLength.baseVal.value = size;
					maxDateText.textContent = date;
				}
				const minValueText = document.querySelector("foreignObject &gt; svg:first-of-type + svg + svg &gt; text");
				const maxValueText = document.querySelector("foreignObject &gt; svg:first-of-type + svg + svg + svg &gt; text");
				const timed = minValueText.textContent.includes(":");
				function yToValue(y) {
					if (timed) {
						const minutes = `${(y - y % 6000) / 6000}`.padStart(2, "0");
						const seconds = `${(y - y % 100) / 100 % 60}`.padStart(2, "0");
						const centiseconds = `${y % 100}`.padStart(2, "0");
						const value = `${minutes}:${seconds}.${centiseconds}`;
						const size = value.length * 10;
						return {value, size};
					} else {
						const value = `${y}`;
						const size = value.length * 10;
						return {value, size};
					}
				}
				function setMinValue(y) {
					const {value, size} = yToValue(Math.floor(y));
					minValueText.textLength.baseVal.value = size;
					minValueText.textContent = value;
				}
				function setMaxValue(y) {
					const {value, size} = yToValue(Math.ceil(y));
					maxValueText.textLength.baseVal.value = size;
					maxValueText.textContent = value;
				}
				const svg = document.querySelector("foreignObject &gt; svg:first-of-type + svg + svg + svg + svg");
				svg.tabIndex = -1;
				svg.style.setProperty("outline", "0");
				if (CSS.supports("overflow-clip-margin", "8px")) {
					svg.style.setProperty("overflow", "clip");
					svg.style.setProperty("overflow-clip-margin", "8px");
				}
				svg.style.setProperty("touch-action", "none");
				const {x: baseX, y: baseY, width: baseWidth, height: baseHeight} = svg.viewBox.baseVal;
				let pointerCount = 0;
				const pointers = Object.create(null);
				const xPointerIds = [];
				const yPointerIds = [];
				let x = null;
				let y = null;
				let width = null;
				let height = null;
				svg.addEventListener("pointerdown", (event) =&gt; {
					const {pointerId} = event;
					if (pointerId in pointers) {
						return;
					}
					let {x: animX, y: animY, width: animWidth, height: animHeight} = svg.viewBox.baseVal;
					svg.setPointerCapture(pointerId);
					++pointerCount;
					const offsetX = event.offsetX;
					const offsetY = event.offsetY;
					pointers[pointerId] = {
						offsetX,
						offsetY,
					};
					xPointerIds.splice(xPointerIds.findLastIndex((pointerId) =&gt; {
						return pointers[pointerId].offsetX &lt;= offsetX;
					}) + 1, 0, pointerId);
					yPointerIds.splice(yPointerIds.findLastIndex((pointerId) =&gt; {
						return pointers[pointerId].offsetY &lt;= offsetY;
					}) + 1, 0, pointerId);
					const minOffsetX = pointers[xPointerIds[0]].offsetX;
					const minOffsetY = pointers[yPointerIds[0]].offsetY;
					const maxClientWidth = pointers[xPointerIds[pointerCount - 1]].offsetX - minOffsetX;
					const maxClientHeight = pointers[yPointerIds[pointerCount - 1]].offsetY - minOffsetY;
					width = Math.min(maxClientWidth / svg.clientWidth * animWidth, baseWidth);
					height = Math.min(maxClientHeight / svg.clientHeight * animHeight, baseHeight);
					x = Math.max(Math.min(animX + minOffsetX / svg.clientWidth * animWidth, baseX + baseWidth), baseX);
					y = Math.max(Math.min(animY + minOffsetY / svg.clientHeight * animHeight, baseY + baseHeight), baseY);
				});
				svg.addEventListener("pointerup", (event) =&gt; {
					const {pointerId} = event;
					if (!(pointerId in pointers)) {
						return;
					}
					let {x: animX, y: animY, width: animWidth, height: animHeight} = svg.viewBox.baseVal;
					svg.releasePointerCapture(pointerId);
					--pointerCount;
					delete pointers[pointerId];
					xPointerIds.splice(xPointerIds.lastIndexOf(pointerId), 1);
					yPointerIds.splice(yPointerIds.lastIndexOf(pointerId), 1);
					const minOffsetX = pointerCount !== 0 ? pointers[xPointerIds[0]].offsetX : null;
					const minOffsetY = pointerCount !== 0 ? pointers[yPointerIds[0]].offsetY : null;
					const maxClientWidth = pointerCount !== 0 ? pointers[xPointerIds[pointerCount - 1]].offsetX - minOffsetX : null;
					const maxClientHeight = pointerCount !== 0 ? pointers[yPointerIds[pointerCount - 1]].offsetY - minOffsetY : null;
					width = pointerCount !== 0 ? Math.min(maxClientWidth / svg.clientWidth * animWidth, baseWidth) : null;
					height = pointerCount !== 0 ? Math.min(maxClientHeight / svg.clientHeight * animHeight, baseHeight) : null;
					x = pointerCount !== 0 ? Math.max(Math.min(animX + minOffsetX / svg.clientWidth * animWidth, baseX + baseWidth), baseX) : null;
					y = pointerCount !== 0 ? Math.max(Math.min(animY + minOffsetY / svg.clientHeight * animHeight, baseY + baseHeight), baseY) : null;
				});
				svg.addEventListener("pointermove", (event) =&gt; {
					const {pointerId} = event;
					if (!(pointerId in pointers)) {
						return;
					}
					let {x: animX, y: animY, width: animWidth, height: animHeight} = svg.viewBox.baseVal;
					event.preventDefault();
					const offsetX = event.offsetX;
					const offsetY = event.offsetY;
					pointers[pointerId].offsetX = offsetX;
					pointers[pointerId].offsetY = offsetY;
					const oldXIndex = xPointerIds.lastIndexOf(pointerId);
					let newXIndex = oldXIndex;
					while (newXIndex &gt; 0 &amp;&amp; pointers[xPointerIds[newXIndex - 1]].offsetX &gt; offsetX) {
						--newXIndex;
					}
					xPointerIds.copyWithin(newXIndex + 1, newXIndex, oldXIndex);
					xPointerIds[newXIndex] = pointerId;
					while (newXIndex &lt; pointerCount - 1 &amp;&amp; pointers[xPointerIds[newXIndex + 1]].offsetX &lt; offsetX) {
						++newXIndex;
					}
					xPointerIds.copyWithin(oldXIndex, oldXIndex + 1, newXIndex + 1);
					xPointerIds[newXIndex] = pointerId;
					const oldYIndex = yPointerIds.lastIndexOf(pointerId);
					let newYIndex = oldYIndex;
					while (newYIndex &gt; 0 &amp;&amp; pointers[yPointerIds[newYIndex - 1]].offsetY &gt; offsetY) {
						--newYIndex;
					}
					yPointerIds.copyWithin(newYIndex + 1, newYIndex, oldYIndex);
					yPointerIds[newYIndex] = pointerId;
					while (newYIndex &lt; pointerCount - 1 &amp;&amp; pointers[yPointerIds[newYIndex + 1]].offsetY &lt; offsetY) {
						++newYIndex;
					}
					yPointerIds.copyWithin(oldYIndex, oldYIndex + 1, newYIndex + 1);
					yPointerIds[newYIndex] = pointerId;
					const minOffsetX = pointers[xPointerIds[0]].offsetX;
					const minOffsetY = pointers[yPointerIds[0]].offsetY;
					const maxClientWidth = pointers[xPointerIds[pointerCount - 1]].offsetX - minOffsetX;
					const maxClientHeight = pointers[yPointerIds[pointerCount - 1]].offsetY - minOffsetY;
					animWidth = width === 0 ? animWidth : maxClientWidth === 0 ? baseWidth : Math.min(svg.clientWidth / maxClientWidth * width, baseWidth);
					animHeight = height === 0 ? animHeight : maxClientHeight === 0 ? baseHeight : Math.min(svg.clientHeight / maxClientHeight * height, baseHeight);
					animX = Math.max(Math.min(x - minOffsetX / svg.clientWidth * animWidth, baseX + baseWidth - animWidth), baseX);
					animY = Math.max(Math.min(y - minOffsetY / svg.clientHeight * animHeight, baseY + baseHeight - animHeight), baseY);
					svg.viewBox.baseVal.x = animX;
					svg.viewBox.baseVal.y = animY;
					svg.viewBox.baseVal.width = animWidth;
					svg.viewBox.baseVal.height = animHeight;
					setMinDate(animX);
					setMaxDate(animX + animWidth);
					setMinValue(baseY * 2 + baseHeight - animHeight - animY);
					setMaxValue(baseY * 2 + baseHeight - animY);
				});
				const zoomIntensity = 1.25;
				svg.addEventListener("wheel", (event) =&gt; {
					let {x: animX, y: animY, width: animWidth, height: animHeight} = svg.viewBox.baseVal;
					const {ctrlKey, shiftKey} = event;
					event.preventDefault();
					if (pointerCount !== 0) {
						return;
					}
					if (!ctrlKey) {
						const vectorX = (shiftKey ? event.deltaY : event.deltaX) / svg.clientWidth * animWidth;
						const vectorY = (shiftKey ? 0 : event.deltaY) / svg.clientHeight * animHeight;
						animX = Math.max(Math.min(animX + vectorX, baseX + baseWidth - animWidth), baseX);
						animY = Math.max(Math.min(animY + vectorY, baseY + baseHeight - animHeight), baseY);
						svg.viewBox.baseVal.x = animX;
						svg.viewBox.baseVal.y = animY;
						setMinDate(animX);
						setMaxDate(animX + animWidth);
						setMinValue(baseY * 2 + baseHeight - animHeight - animY);
						setMaxValue(baseY * 2 + baseHeight - animY);
						return;
					}
					const ratioX = zoomIntensity ** Math.sign(shiftKey ? event.deltaY : event.deltaX);
					const ratioY = zoomIntensity ** Math.sign(shiftKey ? 0 : event.deltaY);
					const positionX = Math.max(0, Math.min(event.offsetX / svg.clientWidth, 1)) * animWidth;
					const positionY = Math.max(0, Math.min(event.offsetY / svg.clientHeight, 1)) * animHeight;
					animWidth = Math.min(animWidth * ratioX, baseWidth);
					animHeight = Math.min(animHeight * ratioY, baseHeight);
					animX = Math.max(Math.min(animX + positionX * (1 - ratioX), baseX + baseWidth - animWidth), baseX);
					animY = Math.max(Math.min(animY + positionY * (1 - ratioY), baseY + baseHeight - animHeight), baseY);
					svg.viewBox.baseVal.x = animX;
					svg.viewBox.baseVal.y = animY;
					svg.viewBox.baseVal.width = animWidth;
					svg.viewBox.baseVal.height = animHeight;
					setMinDate(animX);
					setMaxDate(animX + animWidth);
					setMinValue(baseY * 2 + baseHeight - animHeight - animY);
					setMaxValue(baseY * 2 + baseHeight - animY);
				}, {
					passive: false,
				});
				svg.addEventListener("keydown", (event) =&gt; {
					let {x: animX, y: animY, width: animWidth, height: animHeight} = svg.viewBox.baseVal;
					const {ctrlKey, shiftKey} = event;
					switch (event.code) {
						case "Space": {
							event.preventDefault();
							if (pointerCount !== 0) {
								return;
							}
							const vectorY = shiftKey ? -animHeight : animHeight;
							animY = Math.max(Math.min(animY + vectorY, baseY + baseHeight - animHeight), baseY);
							svg.viewBox.baseVal.y = animY;
							setMinValue(baseY * 2 + baseHeight - animHeight - animY);
							setMaxValue(baseY * 2 + baseHeight - animY);
							return;
						}
						case "Equal":
						case "NumpadAdd":
						case "Minus":
						case "NumpadSubtract": {
							event.preventDefault();
							if (pointerCount !== 0) {
								return;
							}
							const ratio = event.code === "Minus" || event.code === "NumpadSubtract" ? zoomIntensity : 1 / zoomIntensity;
							if (!shiftKey) {
								animHeight = Math.min(animHeight * ratio, baseHeight);
								animY = Math.max(Math.min(animY, baseY + baseHeight - animHeight), baseY);
								svg.viewBox.baseVal.y = animY;
								svg.viewBox.baseVal.height = animHeight;
								setMinValue(baseY * 2 + baseHeight - animHeight - animY);
								setMaxValue(baseY * 2 + baseHeight - animY);
								return;
							}
							animWidth = Math.min(animWidth * ratio, baseWidth);
							animX = Math.max(Math.min(animX, baseX + baseWidth - animWidth), baseX);
							svg.viewBox.baseVal.x = animX;
							svg.viewBox.baseVal.width = animWidth;
							setMinDate(animX);
							setMaxDate(animX + animWidth);
							return;
						}
						case "Digit0":
						case "Numpad0": {
							event.preventDefault();
							if (pointerCount !== 0) {
								return;
							}
							if (!shiftKey) {
								animY = baseY;
								animHeight = baseHeight;
								svg.viewBox.baseVal.y = animY;
								svg.viewBox.baseVal.height = animHeight;
								setMinValue(baseY * 2 + baseHeight - animHeight - animY);
								setMaxValue(baseY * 2 + baseHeight - animY);
								return;
							}
							animX = baseX;
							animWidth = baseWidth;
							svg.viewBox.baseVal.x = animX;
							svg.viewBox.baseVal.width = animWidth;
							setMinDate(animX);
							setMaxDate(animX + animWidth);
							return;
						}
					}
					switch (event.key) {
						case "ArrowRight": {
							event.preventDefault();
							if (pointerCount !== 0) {
								return;
							}
							const vectorX = 50 / svg.clientWidth * animWidth;
							animX = Math.max(Math.min(animX + vectorX, baseX + baseWidth - animWidth), baseX);
							svg.viewBox.baseVal.x = animX;
							setMinDate(animX);
							setMaxDate(animX + animWidth);
							return;
						}
						case "ArrowLeft": {
							event.preventDefault();
							if (pointerCount !== 0) {
								return;
							}
							const vectorX = -50 / svg.clientWidth * animWidth;
							animX = Math.max(Math.min(animX + vectorX, baseX + baseWidth - animWidth), baseX);
							svg.viewBox.baseVal.x = animX;
							setMinDate(animX);
							setMaxDate(animX + animWidth);
							return;
						}
						case "ArrowDown": {
							if (!ctrlKey) {
								event.preventDefault();
								if (pointerCount !== 0) {
									return;
								}
								const vectorY = 50 / svg.clientHeight * animHeight;
								animY = Math.max(Math.min(animY + vectorY, baseY + baseHeight - animHeight), baseY);
								svg.viewBox.baseVal.y = animY;
								setMinValue(baseY * 2 + baseHeight - animHeight - animY);
								setMaxValue(baseY * 2 + baseHeight - animY);
								return;
							}
						}
						case "End": {
							event.preventDefault();
							if (pointerCount !== 0) {
								return;
							}
							animY = baseY + baseHeight - animHeight;
							svg.viewBox.baseVal.y = animY;
							setMinValue(baseY * 2 + baseHeight - animHeight - animY);
							setMaxValue(baseY * 2 + baseHeight - animY);
							return;
						}
						case "ArrowUp": {
							if (!ctrlKey) {
								event.preventDefault();
								if (pointerCount !== 0) {
									return;
								}
								const vectorY = -50 / svg.clientHeight * animHeight;
								animY = Math.max(Math.min(animY + vectorY, baseY + baseHeight - animHeight), baseY);
								svg.viewBox.baseVal.y = animY;
								setMinValue(baseY * 2 + baseHeight - animHeight - animY);
								setMaxValue(baseY * 2 + baseHeight - animY);
								return;
							}
						}
						case "Home": {
							event.preventDefault();
							if (pointerCount !== 0) {
								return;
							}
							animY = baseY;
							svg.viewBox.baseVal.y = animY;
							setMinValue(baseY * 2 + baseHeight - animHeight - animY);
							setMaxValue(baseY * 2 + baseHeight - animY);
							return;
						}
						case "PageDown":
						case "PageUp":
						case " ": {
							event.preventDefault();
							if (pointerCount !== 0) {
								return;
							}
							const vectorY = event.key === "PageUp" || event.key === " " &amp;&amp; shiftKey ? -animHeight : animHeight;
							animY = Math.max(Math.min(animY + vectorY, baseY + baseHeight - animHeight), baseY);
							svg.viewBox.baseVal.y = animY;
							setMinValue(baseY * 2 + baseHeight - animHeight - animY);
							setMaxValue(baseY * 2 + baseHeight - animY);
							return;
						}
						case "+":
						case "-": {
							event.preventDefault();
							if (pointerCount !== 0) {
								return;
							}
							const ratio = event.key === "-" ? 1 / zoomIntensity : zoomIntensity;
							animWidth = Math.min(animWidth * ratio, baseWidth);
							animHeight = Math.min(animHeight * ratio, baseHeight);
							animX = Math.max(Math.min(animX, baseX + baseWidth - animWidth), baseX);
							animY = Math.max(Math.min(animY, baseY + baseHeight - animHeight), baseY);
							svg.viewBox.baseVal.x = animX;
							svg.viewBox.baseVal.y = animY;
							svg.viewBox.baseVal.width = animWidth;
							svg.viewBox.baseVal.height = animHeight;
							setMinDate(animX);
							setMaxDate(animX + animWidth);
							setMinValue(baseY * 2 + baseHeight - animHeight - animY);
							setMaxValue(baseY * 2 + baseHeight - animY);
							return;
						}
						case "0": {
							event.preventDefault();
							if (pointerCount !== 0) {
								return;
							}
							animX = baseX;
							animY = baseY;
							animWidth = baseWidth;
							animHeight = baseHeight;
							svg.viewBox.baseVal.x = animX;
							svg.viewBox.baseVal.y = animY;
							svg.viewBox.baseVal.width = animWidth;
							svg.viewBox.baseVal.height = animHeight;
							setMinDate(animX);
							setMaxDate(animX + animWidth);
							setMinValue(baseY * 2 + baseHeight - animHeight - animY);
							setMaxValue(baseY * 2 + baseHeight - animY);
							return;
						}
					}
				});
				svg.addEventListener("focusin", (event) =&gt; {
					if (!event.target.matches(":focus-visible")) {
						return;
					}
					event.preventDefault();
					if (pointerCount !== 0) {
						return;
					}
					let {x: animX, y: animY, width: animWidth, height: animHeight} = svg.viewBox.baseVal;
					let {x, y, width, height} = event.target.getBBox();
					width = Math.round(width);
					height = Math.round(height);
					x = Math.round(x);
					y = baseY * 2 + baseHeight - height - Math.round(y);
					if (x + width &lt; animX) {
						animX = x;
						if (width &gt; animWidth) {
							animX += (width - animWidth) / 2;
						}
					} else if (x &gt; animX + animWidth) {
						animX = x + width - animWidth;
						if (width &gt; animWidth) {
							animX -= (width - animWidth) / 2;
						}
					}
					if (y + height &lt; animY) {
						animY = y;
						if (height &gt; animHeight) {
							animY += (height - animHeight) / 2;
						}
					} else if (y &gt; animY + animHeight) {
						animY = y + height - animHeight;
						if (height &gt; animHeight) {
							animY -= (height - animHeight) / 2;
						}
					}
					svg.viewBox.baseVal.x = animX;
					svg.viewBox.baseVal.y = animY;
					setMinDate(animX);
					setMaxDate(animX + animWidth);
					setMinValue(baseY * 2 + baseHeight - animHeight - animY);
					setMaxValue(baseY * 2 + baseHeight - animY);
				});
			}, {
				once: true,
			});
		}
	</script>
	<foreignObject x="0" y="0" width="100%" height="100%" style="--date-size: 100; --value-size: 30;">
		<svg viewBox="0 0 100 20">
			<text x="50" y="10" dx="0" dy="2" textLength="100" lengthAdjust="spacingAndGlyphs" text-anchor="middle" dominant-baseline="middle">2025-04-13</text>
		</svg>
		<svg viewBox="0 0 100 20">
			<text x="50" y="10" dx="0" dy="2" textLength="100" lengthAdjust="spacingAndGlyphs" text-anchor="middle" dominant-baseline="middle">2026-02-28</text>
		</svg>
		<svg viewBox="0 0 30 20">
			<text x="15" y="10" dx="0" dy="2" textLength="10" lengthAdjust="spacingAndGlyphs" text-anchor="middle" dominant-baseline="middle">0</text>
		</svg>
		<svg viewBox="0 0 30 20">
			<text x="15" y="10" dx="0" dy="2" textLength="30" lengthAdjust="spacingAndGlyphs" text-anchor="middle" dominant-baseline="middle">414</text>
		</svg>
		<svg viewBox="0 0 321 414" preserveAspectRatio="none" overflow="visible">
			<g transform="translate(0 414) scale(1 -1)" style="--count: 11;">
				<g>
					<rect x="0" y="0" width="321" height="414"/>
				</g>
				<g style="--index: 0;">
					<path d="M0,0L0,0L0,212L1,212L1,213L2,213L2,218L6,218L6,219L7,219L7,220L9,220L9,221L14,221L14,222L18,222L18,223L25,223L25,224L26,224L26,225L27,225L27,227L48,227L48,227L49,227L49,226L54,226L54,227L75,227L75,228L81,228L81,229L86,229L86,231L93,231L93,232L98,232L98,233L102,233L102,234L106,234L106,235L108,235L108,237L110,237L110,238L123,238L123,239L131,239L131,240L133,240L133,241L142,241L142,242L153,242L153,243L157,243L157,244L160,244L160,245L170,245L170,245L171,245L171,245L173,245L173,246L175,246L175,246L186,246L186,247L189,247L189,248L196,248L196,250L199,250L199,251L209,251L209,252L227,252L227,254L228,254L228,255L229,255L229,256L234,256L234,258L237,258L237,259L243,259L243,260L246,260L246,261L252,261L252,262L263,262L263,263L271,263L271,264L272,264L272,266L273,266L273,266L276,266L276,267L288,267L288,269L294,269L294,270L304,270L304,271L306,271L306,272L308,272L308,273L309,273L309,274L321,274" tabindex="0">
						<title>l_r9gn1qpd-9d8eewld-0nwoqwkl.p12dx87q</title>
					</path>
				</g>
				<g style="--index: 1;">
					<path d="M0,0L17,0L17,113L20,113L20,114L28,114L28,115L29,115L29,116L33,116L33,117L35,117L35,117L41,117L41,118L43,118L43,119L45,119L45,120L47,120L47,121L53,121L53,122L55,122L55,135L57,135L57,136L63,136L63,140L64,140L64,141L71,141L71,142L72,142L72,143L80,143L80,142L85,142L85,143L86,143L86,144L90,144L90,145L92,145L92,147L93,147L93,148L98,148L98,149L101,149L101,150L105,150L105,150L106,150L106,152L108,152L108,153L112,153L112,154L113,154L113,155L114,155L114,156L116,156L116,158L117,158L117,159L118,159L118,160L120,160L120,161L128,161L128,162L133,162L133,164L134,164L134,168L137,168L137,170L143,170L143,171L146,171L146,171L147,171L147,174L149,174L149,175L151,175L151,174L153,174L153,175L161,175L161,177L162,177L162,177L163,177L163,179L168,179L168,180L169,180L169,181L170,181L170,182L179,182L179,183L180,183L180,184L189,184L189,185L190,185L190,186L193,186L193,187L194,187L194,188L195,188L195,189L197,189L197,191L198,191L198,193L199,193L199,195L202,195L202,196L204,196L204,197L210,197L210,198L211,198L211,198L212,198L212,197L215,197L215,198L217,198L217,199L218,199L218,200L222,200L222,199L223,199L223,200L224,200L224,201L225,201L225,202L227,202L227,204L229,204L229,205L230,205L230,206L233,206L233,208L234,208L234,209L235,209L235,210L236,210L236,211L240,211L240,212L243,212L243,213L244,213L244,214L253,214L253,216L257,216L257,217L259,217L259,217L260,217L260,218L262,218L262,220L264,220L264,222L272,222L272,223L273,223L273,224L274,224L274,225L278,225L278,226L283,226L283,227L284,227L284,228L287,228L287,230L288,230L288,231L291,231L291,232L292,232L292,234L293,234L293,235L295,235L295,238L296,238L296,239L298,239L298,240L299,240L299,241L300,241L300,242L306,242L306,244L309,244L309,246L310,246L310,247L312,247L312,248L315,248L315,249L321,249" tabindex="0">
						<title>xd17x94d-9l71pv4l.21gpn081</title>
					</path>
				</g>
				<g style="--index: 2;">
					<path d="M0,0L39,0L39,22L43,22L43,22L55,22L55,22L70,22L70,21L72,21L72,20L73,20L73,20L76,20L76,19L78,19L78,19L102,19L102,20L125,20L125,20L136,20L136,21L150,21L150,22L155,22L155,23L196,23L196,24L214,24L214,23L240,23L240,24L245,24L245,24L253,24L253,25L271,25L271,26L283,26L283,26L304,26L304,26L321,26" tabindex="0">
						<title>l_495zlx39-9d8eewld-2lgr793n.4lxpe62q</title>
					</path>
				</g>
				<g style="--index: 3;">
					<path d="M0,0L42,0L42,65L49,65L49,64L52,64L52,65L53,65L53,65L69,65L69,65L80,65L80,66L81,66L81,66L84,66L84,67L95,67L95,68L103,68L103,69L109,69L109,69L120,69L120,70L126,70L126,71L127,71L127,72L132,72L132,73L144,73L144,74L157,74L157,75L160,75L160,75L168,75L168,75L172,75L172,76L196,76L196,77L197,77L197,78L203,78L203,79L209,79L209,80L217,80L217,81L226,81L226,83L232,83L232,83L233,83L233,84L238,84L238,85L240,85L240,86L245,86L245,87L248,87L248,87L254,87L254,88L259,88L259,89L260,89L260,90L263,90L263,91L271,91L271,91L272,91L272,92L273,92L273,93L274,93L274,94L278,94L278,95L286,95L286,94L287,94L287,95L288,95L288,96L292,96L292,97L293,97L293,99L294,99L294,99L298,99L298,100L300,100L300,101L301,101L301,102L303,102L303,102L305,102L305,103L320,103L320,103L321,103" tabindex="0">
						<title>l_r9gn1qpd-9d8eewld-0nwoqwkl.klrpy2jq</title>
					</path>
				</g>
				<g style="--index: 4;">
					<path d="M0,0L82,0L82,2L83,2L83,3L86,3L86,4L87,4L87,4L90,4L90,5L102,5L102,6L127,6L127,7L132,7L132,8L152,8L152,8L154,8L154,9L174,9L174,10L184,10L184,11L197,11L197,12L201,12L201,13L229,13L229,14L259,14L259,14L265,14L265,15L268,15L268,15L278,15L278,15L285,15L285,15L294,15L294,16L318,16L318,17L321,17" tabindex="0">
						<title>l_dy1gjkkd-rkl3znrk-wle345e8.q65k767l</title>
					</path>
				</g>
				<g style="--index: 5;">
					<path d="M0,0L113,0L113,89L117,89L117,91L121,91L121,94L122,94L122,95L125,95L125,96L133,96L133,98L140,98L140,99L145,99L145,100L155,100L155,101L160,101L160,102L166,102L166,103L177,103L177,104L179,104L179,105L181,105L181,106L191,106L191,107L193,107L193,108L195,108L195,109L198,109L198,110L200,110L200,111L202,111L202,112L211,112L211,113L212,113L212,114L215,114L215,115L218,115L218,116L228,116L228,117L234,117L234,117L236,117L236,118L239,118L239,120L253,120L253,121L255,121L255,122L258,122L258,123L262,123L262,125L272,125L272,126L276,126L276,125L278,125L278,125L282,125L282,127L288,127L288,130L289,130L289,131L292,131L292,133L293,133L293,134L295,134L295,135L301,135L301,136L302,136L302,136L303,136L303,137L308,137L308,138L315,138L315,139L317,139L317,140L318,140L318,141L321,141" tabindex="0">
						<title>l_o9xo3rp9-9d8eewld-7896y468.013856dq</title>
					</path>
				</g>
				<g style="--index: 6;">
					<path d="M0,0L118,0L118,61L125,61L125,62L126,62L126,63L143,63L143,62L161,62L161,63L171,63L171,64L175,64L175,65L189,65L189,65L196,65L196,66L200,66L200,67L212,67L212,69L214,69L214,70L216,70L216,71L227,71L227,72L235,72L235,73L236,73L236,74L239,74L239,75L244,75L244,76L260,76L260,76L265,76L265,77L272,77L272,78L273,78L273,78L289,78L289,79L290,79L290,80L294,80L294,81L295,81L295,82L296,82L296,82L301,82L301,81L308,81L308,80L310,80L310,81L314,81L314,81L317,81L317,82L321,82" tabindex="0">
						<title>l_o9xo3rp9-9d8eewld-7896y468.jq60ze3q</title>
					</path>
				</g>
				<g style="--index: 7;">
					<path d="M0,0L119,0L119,86L120,86L120,86L129,86L129,87L130,87L130,87L132,87L132,88L133,88L133,91L137,91L137,90L144,90L144,91L154,91L154,93L160,93L160,94L175,94L175,95L184,95L184,96L196,96L196,97L200,97L200,98L204,98L204,99L205,99L205,100L212,100L212,101L239,101L239,103L247,103L247,104L253,104L253,105L257,105L257,106L263,106L263,107L265,107L265,108L278,108L278,109L279,109L279,110L286,110L286,111L289,111L289,112L295,112L295,113L304,113L304,114L311,114L311,115L317,115L317,116L321,116" tabindex="0">
						<title>l_o9xo3rp9-9d8eewld-7896y468.810zwdwq</title>
					</path>
				</g>
				<g style="--index: 8;">
					<path d="M0,0L136,0L136,10L152,10L152,10L199,10L199,10L239,10L239,11L266,11L266,12L291,12L291,12L321,12" tabindex="0">
						<title>l_o9xo3rp9-9kv66g32-onv7r45n.9qj08g7l</title>
					</path>
				</g>
				<g style="--index: 9;">
					<path d="M0,0L171,0L171,283L173,283L173,284L180,284L180,285L181,285L181,287L182,287L182,291L187,291L187,292L188,292L188,295L192,295L192,296L196,296L196,297L200,297L200,299L201,299L201,300L203,300L203,302L205,302L205,303L206,303L206,304L207,304L207,306L208,306L208,308L210,308L210,309L212,309L212,314L213,314L213,316L214,316L214,318L216,318L216,320L218,320L218,321L219,321L219,322L220,322L220,324L221,324L221,325L222,325L222,326L224,326L224,327L225,327L225,329L226,329L226,330L228,330L228,332L229,332L229,333L230,333L230,334L232,334L232,336L237,336L237,337L238,337L238,338L239,338L239,340L240,340L240,341L242,341L242,342L244,342L244,343L245,343L245,344L246,344L246,345L248,345L248,347L249,347L249,348L250,348L250,349L251,349L251,350L254,350L254,351L255,351L255,352L258,352L258,354L259,354L259,356L264,356L264,357L267,357L267,359L268,359L268,362L271,362L271,364L272,364L272,365L274,365L274,366L276,366L276,367L277,367L277,369L279,369L279,371L280,371L280,373L283,373L283,374L285,374L285,375L286,375L286,378L287,378L287,379L288,379L288,381L289,381L289,382L291,382L291,383L293,383L293,384L294,384L294,388L295,388L295,389L300,389L300,392L301,392L301,394L302,394L302,396L303,396L303,398L304,398L304,401L307,401L307,402L308,402L308,405L312,405L312,406L314,406L314,408L315,408L315,411L316,411L316,412L317,412L317,414L320,414L320,414L321,414" tabindex="0">
						<title>l_r9gn1qpd-9d8eewld-0nwoqwkl.jqzpx3gl</title>
					</path>
				</g>
				<g style="--index: 10;">
					<path d="M0,0L321,0L321,10L321,10" tabindex="0">
						<title>l_r9gn1qpd-9d8eewld-0nwoqwkl.q75zmmn1</title>
					</path>
				</g>
			</g>
		</svg>
	</foreignObject>
</svg>
