<svg xmlns="http://www.w3.org/2000/svg" viewBox="0 0 266 4803" preserveAspectRatio="none" lang="en" style="color-scheme: dark light;">
	<title>Time by leaderboard for player x3m3kle8</title>
	<style>
		svg {
			background: var(--canvas-background);
			fill: var(--canvas-background);
			stroke: var(--canvas-foreground);
			stroke-linejoin: round;
			stroke-linecap: round;
		}
		g &gt; path[tabindex] {
			vector-effect: non-scaling-stroke;
			fill: none;
			stroke: hsl(calc(var(--index) / var(--count) * 360), 50%, 50%);
			cursor: help;
		}
		g:is(:hover, :focus-within) &gt; path[tabindex] {
			stroke: var(--canvas-foreground);
		}
		g &gt; path[tabindex]:is(:hover, :focus-within) {
			outline: 0;
		}
		g &gt; path[tabindex]:first-of-type {
			stroke-width: 2;
		}
		g &gt; path[tabindex]:first-of-type:is(:hover, :focus-within) {
			stroke-width: 4;
		}
		g &gt; path[tabindex]:first-of-type:not(:last-of-type) {
			stroke-dasharray: 4 8;
		}
		g &gt; rect {
			vector-effect: non-scaling-stroke;
			fill: none;
			stroke: none;
			pointer-events: none;
		}
		g &gt; path[tabindex]:first-of-type:is(:hover, :focus-within) + rect {
			fill: var(--highlighted);
		}
		g &gt; path[tabindex]:first-of-type ~ path[tabindex] {
			stroke-width: 8;
		}
		g &gt; path[tabindex]:first-of-type ~ path[tabindex]:is(:hover, :focus-within) {
			stroke-width: 16;
		}
		g &gt; line {
			vector-effect: non-scaling-stroke;
			fill: none;
			stroke: none;
			stroke-width: 2;
			stroke-dasharray: 4 8;
			pointer-events: none;
		}
		g &gt; path[tabindex]:first-of-type:is(:hover, :focus-within) + rect + path[tabindex] + line,
		g &gt; path[tabindex]:first-of-type:is(:hover, :focus-within) + rect + path[tabindex] + line + line,
		g &gt; path[tabindex]:first-of-type:is(:hover, :focus-within) ~ path[tabindex]:last-of-type + line,
		g &gt; path[tabindex]:first-of-type:is(:hover, :focus-within) ~ path[tabindex]:last-of-type + line + line,
		g &gt; path[tabindex]:first-of-type ~ path[tabindex]:is(:hover, :focus-within) + line,
		g &gt; path[tabindex]:first-of-type ~ path[tabindex]:is(:hover, :focus-within) + line + line {
			stroke: var(--faded);
		}
		@media (prefers-color-scheme: dark) {
			:root {
				--canvas-background: #000;
				--canvas-foreground: #ccc;
				--highlighted: #6663;
				--faded: #9993;
			}
		}
		@media (prefers-color-scheme: light) {
			:root {
				--canvas-background: #fff;
				--canvas-foreground: #333;
				--highlighted: #9993;
				--faded: #6663;
			}
		}
	</style>
	<g transform="scale(1 -1)" transform-origin="center center" style="--count: 4;">
		<g style="--index: 0;">
			<path d="M0,2972L11,2972L11,2940L12,2940L12,2897L143,2897L143,2875L253,2875L253,2854L255,2854L255,2847" tabindex="0">
				<title>l_r9gnozkd-rkl3znrk-wledz9en.4lxp7e2q</title>
			</path>
			<rect x="0" y="2847" width="255" height="125"/>
			<path d="M0,2972L0,2972" tabindex="0">
				<title>00:29.72 on 2022-05-03</title>
			</path>
			<line x1="0" y1="2972" x2="266" y2="2972"/>
			<line x1="0" y1="0" x2="0" y2="4803"/>
			<path d="M11,2940L11,2940" tabindex="0">
				<title>00:29.40 on 2022-05-14</title>
			</path>
			<line x1="0" y1="2940" x2="266" y2="2940"/>
			<line x1="11" y1="0" x2="11" y2="4803"/>
			<path d="M12,2897L12,2897" tabindex="0">
				<title>00:28.97 on 2022-05-15</title>
			</path>
			<line x1="0" y1="2897" x2="266" y2="2897"/>
			<line x1="12" y1="0" x2="12" y2="4803"/>
			<path d="M143,2875L143,2875" tabindex="0">
				<title>00:28.75 on 2022-09-23</title>
			</path>
			<line x1="0" y1="2875" x2="266" y2="2875"/>
			<line x1="143" y1="0" x2="143" y2="4803"/>
			<path d="M253,2854L253,2854" tabindex="0">
				<title>00:28.54 on 2023-01-11</title>
			</path>
			<line x1="0" y1="2854" x2="266" y2="2854"/>
			<line x1="253" y1="0" x2="253" y2="4803"/>
			<path d="M255,2847L255,2847" tabindex="0">
				<title>00:28.47 on 2023-01-13</title>
			</path>
			<line x1="0" y1="2847" x2="266" y2="2847"/>
			<line x1="255" y1="0" x2="255" y2="4803"/>
		</g>
		<g style="--index: 1;">
			<path d="M36,2673" tabindex="0">
				<title>l_495zlx39-9d8eewld-2lgr793n.21g8ownl</title>
			</path>
			<rect x="36" y="2673" width="0" height="0"/>
			<path d="M36,2673L36,2673" tabindex="0">
				<title>00:26.73 on 2022-06-08</title>
			</path>
			<line x1="0" y1="2673" x2="266" y2="2673"/>
			<line x1="36" y1="0" x2="36" y2="4803"/>
		</g>
		<g style="--index: 2;">
			<path d="M261,4803" tabindex="0">
				<title>l_r9gn1qpd-9d8eewld-0nwoqwkl.klr25nj1</title>
			</path>
			<rect x="261" y="4803" width="0" height="0"/>
			<path d="M261,4803L261,4803" tabindex="0">
				<title>00:48.03 on 2023-01-19</title>
			</path>
			<line x1="0" y1="4803" x2="266" y2="4803"/>
			<line x1="261" y1="0" x2="261" y2="4803"/>
		</g>
		<g style="--index: 3;">
			<path d="M266,1698" tabindex="0">
				<title>l_495zlx39-9d8eewld-2lgr793n.jqz35pg1</title>
			</path>
			<rect x="266" y="1698" width="0" height="0"/>
			<path d="M266,1698L266,1698" tabindex="0">
				<title>00:16.98 on 2023-01-24</title>
			</path>
			<line x1="0" y1="1698" x2="266" y2="1698"/>
			<line x1="266" y1="0" x2="266" y2="4803"/>
		</g>
	</g>
</svg>
