<svg xmlns="http://www.w3.org/2000/svg" viewBox="0 0 266 4803" preserveAspectRatio="none" lang="en" style="color-scheme: dark light;">
		<title>Time by leaderboard for player x3m3kle8</title>
		<style>
			svg {
				background: var(--canvas-background);
				fill: var(--canvas-background);
				stroke: var(--canvas-foreground);
				stroke-linejoin: round;
				stroke-linecap: round;
			}
			g &gt; path[tabindex] {
				vector-effect: non-scaling-stroke;
				fill: none;
				stroke: hsl(calc(var(--index) / var(--count) * 360), 50%, 50%);
				cursor: help;
			}
			g:is(:hover, :focus-within) &gt; path[tabindex] {
				stroke: var(--canvas-foreground);
			}
			g &gt; path[tabindex]:is(:hover, :focus-within) {
				outline: 0;
			}
			g &gt; path[tabindex]:first-of-type {
				stroke-width: 2;
			}
			g &gt; path[tabindex]:first-of-type:is(:hover, :focus-within) {
				stroke-width: 4;
			}
			g &gt; path[tabindex]:first-of-type:not(:last-of-type) {
				stroke-dasharray: 4 8;
			}
			g &gt; rect {
				vector-effect: non-scaling-stroke;
				fill: none;
				stroke: none;
				pointer-events: none;
			}
			g &gt; path[tabindex]:first-of-type:is(:hover, :focus-within) + rect {
				fill: var(--highlighted);
			}
			g &gt; path[tabindex]:first-of-type ~ path[tabindex] {
				stroke-width: 8;
			}
			g &gt; path[tabindex]:first-of-type ~ path[tabindex]:is(:hover, :focus-within) {
				stroke-width: 16;
			}
			g &gt; line {
				vector-effect: non-scaling-stroke;
				fill: none;
				stroke: none;
				stroke-width: 2;
				stroke-dasharray: 4 8;
				pointer-events: none;
			}
			g &gt; path[tabindex]:first-of-type:is(:hover, :focus-within) + rect + path[tabindex] + line,
			g &gt; path[tabindex]:first-of-type:is(:hover, :focus-within) + rect + path[tabindex] + line + line,
			g &gt; path[tabindex]:first-of-type:is(:hover, :focus-within) ~ path[tabindex]:last-of-type + line,
			g &gt; path[tabindex]:first-of-type:is(:hover, :focus-within) ~ path[tabindex]:last-of-type + line + line,
			g &gt; path[tabindex]:first-of-type ~ path[tabindex]:is(:hover, :focus-within) + line,
			g &gt; path[tabindex]:first-of-type ~ path[tabindex]:is(:hover, :focus-within) + line + line {
				stroke: var(--faded);
			}
			@media (prefers-color-scheme: dark) {
				:root {
					--canvas-background: #000;
					--canvas-foreground: #ccc;
					--highlighted: #6663;
					--faded: #9993;
				}
			}
			@media (prefers-color-scheme: light) {
				:root {
					--canvas-background: #fff;
					--canvas-foreground: #333;
					--highlighted: #9993;
					--faded: #6663;
				}
			}
		</style>
		<g style="--count: 4;">
		<g style="--index: 0;">
			<path d="M0,1831L11,1831L11,1863L12,1863L12,1906L143,1906L143,1928L253,1928L253,1949L255,1949L255,1956" tabindex="0">
				<title>l_r9gnozkd-rkl3znrk-wledz9en.4lxp7e2q</title>
			</path>
			<rect x="0" y="1831" width="255" height="125"/>
			<path d="M0,1831L0,1831" tabindex="0">
				<title>00:29.72 on 2022-05-03</title>
			</path>
			<line x1="0" y1="1831" x2="266" y2="1831"/>
			<line x1="0" y1="4803" x2="0" y2="0"/>
			<path d="M11,1863L11,1863" tabindex="0">
				<title>00:29.40 on 2022-05-14</title>
			</path>
			<line x1="0" y1="1863" x2="266" y2="1863"/>
			<line x1="11" y1="4803" x2="11" y2="0"/>
			<path d="M12,1906L12,1906" tabindex="0">
				<title>00:28.97 on 2022-05-15</title>
			</path>
			<line x1="0" y1="1906" x2="266" y2="1906"/>
			<line x1="12" y1="4803" x2="12" y2="0"/>
			<path d="M143,1928L143,1928" tabindex="0">
				<title>00:28.75 on 2022-09-23</title>
			</path>
			<line x1="0" y1="1928" x2="266" y2="1928"/>
			<line x1="143" y1="4803" x2="143" y2="0"/>
			<path d="M253,1949L253,1949" tabindex="0">
				<title>00:28.54 on 2023-01-11</title>
			</path>
			<line x1="0" y1="1949" x2="266" y2="1949"/>
			<line x1="253" y1="4803" x2="253" y2="0"/>
			<path d="M255,1956L255,1956" tabindex="0">
				<title>00:28.47 on 2023-01-13</title>
			</path>
			<line x1="0" y1="1956" x2="266" y2="1956"/>
			<line x1="255" y1="4803" x2="255" y2="0"/>
		</g>
		<g style="--index: 1;">
			<path d="M36,2130" tabindex="0">
				<title>l_495zlx39-9d8eewld-2lgr793n.21g8ownl</title>
			</path>
			<rect x="36" y="2130" width="0" height="0"/>
			<path d="M36,2130L36,2130" tabindex="0">
				<title>00:26.73 on 2022-06-08</title>
			</path>
			<line x1="0" y1="2130" x2="266" y2="2130"/>
			<line x1="36" y1="4803" x2="36" y2="0"/>
		</g>
		<g style="--index: 2;">
			<path d="M261,0" tabindex="0">
				<title>l_r9gn1qpd-9d8eewld-0nwoqwkl.klr25nj1</title>
			</path>
			<rect x="261" y="0" width="0" height="0"/>
			<path d="M261,0L261,0" tabindex="0">
				<title>00:48.03 on 2023-01-19</title>
			</path>
			<line x1="0" y1="0" x2="266" y2="0"/>
			<line x1="261" y1="4803" x2="261" y2="0"/>
		</g>
		<g style="--index: 3;">
			<path d="M266,3105" tabindex="0">
				<title>l_495zlx39-9d8eewld-2lgr793n.jqz35pg1</title>
			</path>
			<rect x="266" y="3105" width="0" height="0"/>
			<path d="M266,3105L266,3105" tabindex="0">
				<title>00:16.98 on 2023-01-24</title>
			</path>
			<line x1="0" y1="3105" x2="266" y2="3105"/>
			<line x1="266" y1="4803" x2="266" y2="0"/>
		</g>
	</g>
</svg>
