<svg xmlns="http://www.w3.org/2000/svg" viewBox="0 0 86 8756" preserveAspectRatio="none" lang="en" style="color-scheme: dark light;">
	<title>Time by leaderboard for player x3m9d3k8</title>
	<style>
		svg {
			background: var(--canvas-background);
			fill: var(--canvas-background);
			stroke: var(--canvas-foreground);
			stroke-linejoin: round;
			stroke-linecap: round;
		}
		g &gt; path[tabindex] {
			vector-effect: non-scaling-stroke;
			fill: none;
			stroke: hsl(calc(var(--index) / var(--count) * 360), 50%, 50%);
			cursor: help;
		}
		g:is(:hover, :focus-within) &gt; path[tabindex] {
			stroke: var(--canvas-foreground);
		}
		g &gt; path[tabindex]:is(:hover, :focus-within) {
			outline: 0;
		}
		g &gt; path[tabindex]:first-of-type {
			stroke-width: 2;
		}
		g &gt; path[tabindex]:first-of-type:is(:hover, :focus-within) {
			stroke-width: 4;
		}
		g &gt; path[tabindex]:first-of-type:not(:last-of-type) {
			stroke-dasharray: 4 8;
		}
		g &gt; rect {
			vector-effect: non-scaling-stroke;
			fill: none;
			stroke: none;
			pointer-events: none;
		}
		g &gt; path[tabindex]:first-of-type:is(:hover, :focus-within) + rect {
			fill: var(--highlighted);
		}
		g &gt; path[tabindex]:first-of-type ~ path[tabindex] {
			stroke-width: 8;
		}
		g &gt; path[tabindex]:first-of-type ~ path[tabindex]:is(:hover, :focus-within) {
			stroke-width: 16;
		}
		g &gt; line {
			vector-effect: non-scaling-stroke;
			fill: none;
			stroke: none;
			stroke-width: 2;
			stroke-dasharray: 4 8;
			pointer-events: none;
		}
		g &gt; path[tabindex]:first-of-type:is(:hover, :focus-within) + rect + path[tabindex] + line,
		g &gt; path[tabindex]:first-of-type:is(:hover, :focus-within) + rect + path[tabindex] + line + line,
		g &gt; path[tabindex]:first-of-type:is(:hover, :focus-within) ~ path[tabindex]:last-of-type + line,
		g &gt; path[tabindex]:first-of-type:is(:hover, :focus-within) ~ path[tabindex]:last-of-type + line + line,
		g &gt; path[tabindex]:first-of-type ~ path[tabindex]:is(:hover, :focus-within) + line,
		g &gt; path[tabindex]:first-of-type ~ path[tabindex]:is(:hover, :focus-within) + line + line {
			stroke: var(--faded);
		}
		@media (prefers-color-scheme: dark) {
			:root {
				--canvas-background: #000;
				--canvas-foreground: #ccc;
				--highlighted: #6663;
				--faded: #9993;
			}
		}
		@media (prefers-color-scheme: light) {
			:root {
				--canvas-background: #fff;
				--canvas-foreground: #333;
				--highlighted: #9993;
				--faded: #6663;
			}
		}
	</style>
	<g transform="scale(1 -1)" transform-origin="center center" style="--count: 5;">
		<g style="--index: 0;">
			<path d="M0,7219L29,7219L29,6738L39,6738L39,4930L40,4930L40,4699" tabindex="0">
				<title>l_r9gn1qpd-9d8eewld-0nwoqwkl.p12dx87q</title>
			</path>
			<rect x="0" y="4699" width="40" height="2520"/>
			<path d="M0,7219L0,7219" tabindex="0">
				<title>01:12.19 on 2021-10-31</title>
			</path>
			<line x1="0" y1="7219" x2="86" y2="7219"/>
			<line x1="0" y1="0" x2="0" y2="8756"/>
			<path d="M29,6738L29,6738" tabindex="0">
				<title>01:07.38 on 2021-11-29</title>
			</path>
			<line x1="0" y1="6738" x2="86" y2="6738"/>
			<line x1="29" y1="0" x2="29" y2="8756"/>
			<path d="M39,4930L39,4930" tabindex="0">
				<title>00:49.30 on 2021-12-09</title>
			</path>
			<line x1="0" y1="4930" x2="86" y2="4930"/>
			<line x1="39" y1="0" x2="39" y2="8756"/>
			<path d="M40,4699L40,4699" tabindex="0">
				<title>00:46.99 on 2021-12-10</title>
			</path>
			<line x1="0" y1="4699" x2="86" y2="4699"/>
			<line x1="40" y1="0" x2="40" y2="8756"/>
		</g>
		<g style="--index: 1;">
			<path d="M38,1400" tabindex="0">
				<title>l_r9gn1qpd-9d8eewld-0nwoqwkl.81ppdgg1</title>
			</path>
			<rect x="38" y="1400" width="0" height="0"/>
			<path d="M38,1400L38,1400" tabindex="0">
				<title>00:14.00 on 2021-12-08</title>
			</path>
			<line x1="0" y1="1400" x2="86" y2="1400"/>
			<line x1="38" y1="0" x2="38" y2="8756"/>
		</g>
		<g style="--index: 2;">
			<path d="M43,8756" tabindex="0">
				<title>l_r9gn1qpd-xd144xzd-38dz6v1n.5leogx5q</title>
			</path>
			<rect x="43" y="8756" width="0" height="0"/>
			<path d="M43,8756L43,8756" tabindex="0">
				<title>01:27.56 on 2021-12-13</title>
			</path>
			<line x1="0" y1="8756" x2="86" y2="8756"/>
			<line x1="43" y1="0" x2="43" y2="8756"/>
		</g>
		<g style="--index: 3;">
			<path d="M79,1565" tabindex="0">
				<title>l_r9gn1qpd-9d8eewld-0nwoqwkl.xqkjmxnl</title>
			</path>
			<rect x="79" y="1565" width="0" height="0"/>
			<path d="M79,1565L79,1565" tabindex="0">
				<title>00:15.65 on 2022-01-18</title>
			</path>
			<line x1="0" y1="1565" x2="86" y2="1565"/>
			<line x1="79" y1="0" x2="79" y2="8756"/>
		</g>
		<g style="--index: 4;">
			<path d="M86,972" tabindex="0">
				<title>l_r9gn1qpd-9d8eewld-0nwoqwkl.jqzpx3gl</title>
			</path>
			<rect x="86" y="972" width="0" height="0"/>
			<path d="M86,972L86,972" tabindex="0">
				<title>00:09.72 on 2022-01-25</title>
			</path>
			<line x1="0" y1="972" x2="86" y2="972"/>
			<line x1="86" y1="0" x2="86" y2="8756"/>
		</g>
	</g>
</svg>
