<svg xmlns="http://www.w3.org/2000/svg" viewBox="0 0 86 8756" preserveAspectRatio="none" lang="en" style="color-scheme: dark light;">
		<title>Time by leaderboard for player x3m9d3k8</title>
		<style>
			svg {
				background: var(--canvas-background);
				fill: var(--canvas-background);
				stroke: var(--canvas-foreground);
				stroke-linejoin: round;
				stroke-linecap: round;
			}
			g &gt; path[tabindex] {
				vector-effect: non-scaling-stroke;
				fill: none;
				stroke: hsl(calc(var(--index) / var(--count) * 360), 50%, 50%);
				cursor: help;
			}
			g:is(:hover, :focus-within) &gt; path[tabindex] {
				stroke: var(--canvas-foreground);
			}
			g &gt; path[tabindex]:is(:hover, :focus-within) {
				outline: 0;
			}
			g &gt; path[tabindex]:first-of-type {
				stroke-width: 2;
			}
			g &gt; path[tabindex]:first-of-type:is(:hover, :focus-within) {
				stroke-width: 4;
			}
			g &gt; path[tabindex]:first-of-type:not(:last-of-type) {
				stroke-dasharray: 4 8;
			}
			g &gt; rect {
				vector-effect: non-scaling-stroke;
				fill: none;
				stroke: none;
				pointer-events: none;
			}
			g &gt; path[tabindex]:first-of-type:is(:hover, :focus-within) + rect {
				fill: var(--highlighted);
			}
			g &gt; path[tabindex]:first-of-type ~ path[tabindex] {
				stroke-width: 8;
			}
			g &gt; path[tabindex]:first-of-type ~ path[tabindex]:is(:hover, :focus-within) {
				stroke-width: 16;
			}
			g &gt; line {
				vector-effect: non-scaling-stroke;
				fill: none;
				stroke: none;
				stroke-width: 2;
				stroke-dasharray: 4 8;
				pointer-events: none;
			}
			g &gt; path[tabindex]:first-of-type:is(:hover, :focus-within) + rect + path[tabindex] + line,
			g &gt; path[tabindex]:first-of-type:is(:hover, :focus-within) + rect + path[tabindex] + line + line,
			g &gt; path[tabindex]:first-of-type:is(:hover, :focus-within) ~ path[tabindex]:last-of-type + line,
			g &gt; path[tabindex]:first-of-type:is(:hover, :focus-within) ~ path[tabindex]:last-of-type + line + line,
			g &gt; path[tabindex]:first-of-type ~ path[tabindex]:is(:hover, :focus-within) + line,
			g &gt; path[tabindex]:first-of-type ~ path[tabindex]:is(:hover, :focus-within) + line + line {
				stroke: var(--faded);
			}
			@media (prefers-color-scheme: dark) {
				:root {
					--canvas-background: #000;
					--canvas-foreground: #ccc;
					--highlighted: #6663;
					--faded: #9993;
				}
			}
			@media (prefers-color-scheme: light) {
				:root {
					--canvas-background: #fff;
					--canvas-foreground: #333;
					--highlighted: #9993;
					--faded: #6663;
				}
			}
		</style>
		<g style="--count: 5;">
		<g style="--index: 0;">
			<path d="M0,1537L29,1537L29,2018L39,2018L39,3826L40,3826L40,4057" tabindex="0">
				<title>l_r9gn1qpd-9d8eewld-0nwoqwkl.p12dx87q</title>
			</path>
			<rect x="0" y="1537" width="40" height="2520"/>
			<path d="M0,1537L0,1537" tabindex="0">
				<title>01:12.19 on 2021-10-31</title>
			</path>
			<line x1="0" y1="1537" x2="86" y2="1537"/>
			<line x1="0" y1="8756" x2="0" y2="0"/>
			<path d="M29,2018L29,2018" tabindex="0">
				<title>01:07.38 on 2021-11-29</title>
			</path>
			<line x1="0" y1="2018" x2="86" y2="2018"/>
			<line x1="29" y1="8756" x2="29" y2="0"/>
			<path d="M39,3826L39,3826" tabindex="0">
				<title>00:49.30 on 2021-12-09</title>
			</path>
			<line x1="0" y1="3826" x2="86" y2="3826"/>
			<line x1="39" y1="8756" x2="39" y2="0"/>
			<path d="M40,4057L40,4057" tabindex="0">
				<title>00:46.99 on 2021-12-10</title>
			</path>
			<line x1="0" y1="4057" x2="86" y2="4057"/>
			<line x1="40" y1="8756" x2="40" y2="0"/>
		</g>
		<g style="--index: 1;">
			<path d="M38,7356" tabindex="0">
				<title>l_r9gn1qpd-9d8eewld-0nwoqwkl.81ppdgg1</title>
			</path>
			<rect x="38" y="7356" width="0" height="0"/>
			<path d="M38,7356L38,7356" tabindex="0">
				<title>00:14.00 on 2021-12-08</title>
			</path>
			<line x1="0" y1="7356" x2="86" y2="7356"/>
			<line x1="38" y1="8756" x2="38" y2="0"/>
		</g>
		<g style="--index: 2;">
			<path d="M43,0" tabindex="0">
				<title>l_r9gn1qpd-xd144xzd-38dz6v1n.5leogx5q</title>
			</path>
			<rect x="43" y="0" width="0" height="0"/>
			<path d="M43,0L43,0" tabindex="0">
				<title>01:27.56 on 2021-12-13</title>
			</path>
			<line x1="0" y1="0" x2="86" y2="0"/>
			<line x1="43" y1="8756" x2="43" y2="0"/>
		</g>
		<g style="--index: 3;">
			<path d="M79,7191" tabindex="0">
				<title>l_r9gn1qpd-9d8eewld-0nwoqwkl.xqkjmxnl</title>
			</path>
			<rect x="79" y="7191" width="0" height="0"/>
			<path d="M79,7191L79,7191" tabindex="0">
				<title>00:15.65 on 2022-01-18</title>
			</path>
			<line x1="0" y1="7191" x2="86" y2="7191"/>
			<line x1="79" y1="8756" x2="79" y2="0"/>
		</g>
		<g style="--index: 4;">
			<path d="M86,7784" tabindex="0">
				<title>l_r9gn1qpd-9d8eewld-0nwoqwkl.jqzpx3gl</title>
			</path>
			<rect x="86" y="7784" width="0" height="0"/>
			<path d="M86,7784L86,7784" tabindex="0">
				<title>00:09.72 on 2022-01-25</title>
			</path>
			<line x1="0" y1="7784" x2="86" y2="7784"/>
			<line x1="86" y1="8756" x2="86" y2="0"/>
		</g>
	</g>
</svg>
