<svg xmlns="http://www.w3.org/2000/svg" viewBox="0 0 652 314730" preserveAspectRatio="none" lang="en" style="color-scheme: dark light;">
		<title>Time by leaderboard for player x7q00668</title>
		<style>
			svg {
				background: var(--canvas-background);
				fill: var(--canvas-background);
				stroke: var(--canvas-foreground);
				stroke-linejoin: round;
				stroke-linecap: round;
			}
			g &gt; path[tabindex] {
				vector-effect: non-scaling-stroke;
				fill: none;
				stroke: hsl(calc(var(--index) / var(--count) * 360), 50%, 50%);
				cursor: help;
			}
			g:is(:hover, :focus-within) &gt; path[tabindex] {
				stroke: var(--canvas-foreground);
			}
			g &gt; path[tabindex]:is(:hover, :focus-within) {
				outline: 0;
			}
			g &gt; path[tabindex]:first-of-type {
				stroke-width: 2;
			}
			g &gt; path[tabindex]:first-of-type:is(:hover, :focus-within) {
				stroke-width: 4;
			}
			g &gt; path[tabindex]:first-of-type:not(:last-of-type) {
				stroke-dasharray: 4 8;
			}
			g &gt; rect {
				vector-effect: non-scaling-stroke;
				fill: none;
				stroke: none;
				pointer-events: none;
			}
			g &gt; path[tabindex]:first-of-type:is(:hover, :focus-within) + rect {
				fill: var(--highlighted);
			}
			g &gt; path[tabindex]:first-of-type ~ path[tabindex] {
				stroke-width: 8;
			}
			g &gt; path[tabindex]:first-of-type ~ path[tabindex]:is(:hover, :focus-within) {
				stroke-width: 16;
			}
			g &gt; line {
				vector-effect: non-scaling-stroke;
				fill: none;
				stroke: none;
				stroke-width: 2;
				stroke-dasharray: 4 8;
				pointer-events: none;
			}
			g &gt; path[tabindex]:first-of-type:is(:hover, :focus-within) + rect + path[tabindex] + line,
			g &gt; path[tabindex]:first-of-type:is(:hover, :focus-within) + rect + path[tabindex] + line + line,
			g &gt; path[tabindex]:first-of-type:is(:hover, :focus-within) ~ path[tabindex]:last-of-type + line,
			g &gt; path[tabindex]:first-of-type:is(:hover, :focus-within) ~ path[tabindex]:last-of-type + line + line,
			g &gt; path[tabindex]:first-of-type ~ path[tabindex]:is(:hover, :focus-within) + line,
			g &gt; path[tabindex]:first-of-type ~ path[tabindex]:is(:hover, :focus-within) + line + line {
				stroke: var(--faded);
			}
			@media (prefers-color-scheme: dark) {
				:root {
					--canvas-background: #000;
					--canvas-foreground: #ccc;
					--highlighted: #6663;
					--faded: #9993;
				}
			}
			@media (prefers-color-scheme: light) {
				:root {
					--canvas-background: #fff;
					--canvas-foreground: #333;
					--highlighted: #9993;
					--faded: #6663;
				}
			}
		</style>
		<g style="--count: 46;">
		<g style="--index: 0;">
			<path d="M0,312497L1,312497L1,312561L21,312561L21,312592" tabindex="0">
				<title>l_rdqo542w-9d8eewld-wl30kw9l.jqzpyr4l</title>
			</path>
			<rect x="0" y="312497" width="21" height="95"/>
			<path d="M0,312497L0,312497" tabindex="0">
				<title>00:22.33 on 2020-11-18</title>
			</path>
			<line x1="0" y1="312497" x2="652" y2="312497"/>
			<line x1="0" y1="314730" x2="0" y2="0"/>
			<path d="M1,312561L1,312561" tabindex="0">
				<title>00:21.69 on 2020-11-19</title>
			</path>
			<line x1="0" y1="312561" x2="652" y2="312561"/>
			<line x1="1" y1="314730" x2="1" y2="0"/>
			<path d="M21,312592L21,312592" tabindex="0">
				<title>00:21.38 on 2020-12-09</title>
			</path>
			<line x1="0" y1="312592" x2="652" y2="312592"/>
			<line x1="21" y1="314730" x2="21" y2="0"/>
		</g>
		<g style="--index: 1;">
			<path d="M2,313713L52,313713L52,313781" tabindex="0">
				<title>l_r9gn1qpd-9d8eewld-0nwoqwkl.81ppdgg1</title>
			</path>
			<rect x="2" y="313713" width="50" height="68"/>
			<path d="M2,313713L2,313713" tabindex="0">
				<title>00:10.17 on 2020-11-20</title>
			</path>
			<line x1="0" y1="313713" x2="652" y2="313713"/>
			<line x1="2" y1="314730" x2="2" y2="0"/>
			<path d="M52,313781L52,313781" tabindex="0">
				<title>00:09.49 on 2021-01-09</title>
			</path>
			<line x1="0" y1="313781" x2="652" y2="313781"/>
			<line x1="52" y1="314730" x2="52" y2="0"/>
		</g>
		<g style="--index: 2;">
			<path d="M2,312337" tabindex="0">
				<title>l_495zlx39-9d8eewld-2lgr793n.81ppd5g1</title>
			</path>
			<rect x="2" y="312337" width="0" height="0"/>
			<path d="M2,312337L2,312337" tabindex="0">
				<title>00:23.93 on 2020-11-20</title>
			</path>
			<line x1="0" y1="312337" x2="652" y2="312337"/>
			<line x1="2" y1="314730" x2="2" y2="0"/>
		</g>
		<g style="--index: 3;">
			<path d="M2,305484" tabindex="0">
				<title>l_o9xo3rp9-9d8eewld-7896y468.810zwdwq</title>
			</path>
			<rect x="2" y="305484" width="0" height="0"/>
			<path d="M2,305484L2,305484" tabindex="0">
				<title>01:32.46 on 2020-11-20</title>
			</path>
			<line x1="0" y1="305484" x2="652" y2="305484"/>
			<line x1="2" y1="314730" x2="2" y2="0"/>
		</g>
		<g style="--index: 4;">
			<path d="M2,281006L16,281006L16,284928L121,284928L121,289228" tabindex="0">
				<title>l_rdqo542w-9d8eewld-wl30kw9l.21g8owxl</title>
			</path>
			<rect x="2" y="281006" width="119" height="8222"/>
			<path d="M2,281006L2,281006" tabindex="0">
				<title>05:37.24 on 2020-11-20</title>
			</path>
			<line x1="0" y1="281006" x2="652" y2="281006"/>
			<line x1="2" y1="314730" x2="2" y2="0"/>
			<path d="M16,284928L16,284928" tabindex="0">
				<title>04:58.02 on 2020-12-04</title>
			</path>
			<line x1="0" y1="284928" x2="652" y2="284928"/>
			<line x1="16" y1="314730" x2="16" y2="0"/>
			<path d="M121,289228L121,289228" tabindex="0">
				<title>04:15.02 on 2021-03-19</title>
			</path>
			<line x1="0" y1="289228" x2="652" y2="289228"/>
			<line x1="121" y1="314730" x2="121" y2="0"/>
		</g>
		<g style="--index: 5;">
			<path d="M2,283233L40,283233L40,286072L41,286072L41,288274" tabindex="0">
				<title>l_495zlx39-9d8eewld-2lgr793n.p12dx07q</title>
			</path>
			<rect x="2" y="283233" width="39" height="5041"/>
			<path d="M2,283233L2,283233" tabindex="0">
				<title>05:14.97 on 2020-11-20</title>
			</path>
			<line x1="0" y1="283233" x2="652" y2="283233"/>
			<line x1="2" y1="314730" x2="2" y2="0"/>
			<path d="M40,286072L40,286072" tabindex="0">
				<title>04:46.58 on 2020-12-28</title>
			</path>
			<line x1="0" y1="286072" x2="652" y2="286072"/>
			<line x1="40" y1="314730" x2="40" y2="0"/>
			<path d="M41,288274L41,288274" tabindex="0">
				<title>04:24.56 on 2020-12-29</title>
			</path>
			<line x1="0" y1="288274" x2="652" y2="288274"/>
			<line x1="41" y1="314730" x2="41" y2="0"/>
		</g>
		<g style="--index: 6;">
			<path d="M2,311975L58,311975L58,312238" tabindex="0">
				<title>l_rdqo542w-9d8eewld-wl30kw9l.gq7jzvnq</title>
			</path>
			<rect x="2" y="311975" width="56" height="263"/>
			<path d="M2,311975L2,311975" tabindex="0">
				<title>00:27.55 on 2020-11-20</title>
			</path>
			<line x1="0" y1="311975" x2="652" y2="311975"/>
			<line x1="2" y1="314730" x2="2" y2="0"/>
			<path d="M58,312238L58,312238" tabindex="0">
				<title>00:24.92 on 2021-01-15</title>
			</path>
			<line x1="0" y1="312238" x2="652" y2="312238"/>
			<line x1="58" y1="314730" x2="58" y2="0"/>
		</g>
		<g style="--index: 7;">
			<path d="M2,313812L32,313812L32,313875" tabindex="0">
				<title>l_o9xo3rp9-9d8eewld-7896y468.013856dq</title>
			</path>
			<rect x="2" y="313812" width="30" height="63"/>
			<path d="M2,313812L2,313812" tabindex="0">
				<title>00:09.18 on 2020-11-20</title>
			</path>
			<line x1="0" y1="313812" x2="652" y2="313812"/>
			<line x1="2" y1="314730" x2="2" y2="0"/>
			<path d="M32,313875L32,313875" tabindex="0">
				<title>00:08.55 on 2020-12-20</title>
			</path>
			<line x1="0" y1="313875" x2="652" y2="313875"/>
			<line x1="32" y1="314730" x2="32" y2="0"/>
		</g>
		<g style="--index: 8;">
			<path d="M2,313123L61,313123L61,313287L63,313287L63,313307" tabindex="0">
				<title>l_o9xo3rp9-9d8eewld-7896y468.9qj0x8el</title>
			</path>
			<rect x="2" y="313123" width="61" height="184"/>
			<path d="M2,313123L2,313123" tabindex="0">
				<title>00:16.07 on 2020-11-20</title>
			</path>
			<line x1="0" y1="313123" x2="652" y2="313123"/>
			<line x1="2" y1="314730" x2="2" y2="0"/>
			<path d="M61,313287L61,313287" tabindex="0">
				<title>00:14.43 on 2021-01-18</title>
			</path>
			<line x1="0" y1="313287" x2="652" y2="313287"/>
			<line x1="61" y1="314730" x2="61" y2="0"/>
			<path d="M63,313307L63,313307" tabindex="0">
				<title>00:14.23 on 2021-01-20</title>
			</path>
			<line x1="0" y1="313307" x2="652" y2="313307"/>
			<line x1="63" y1="314730" x2="63" y2="0"/>
		</g>
		<g style="--index: 9;">
			<path d="M3,305274L69,305274L69,307440" tabindex="0">
				<title>l_495zlx39-9d8eewld-2lgr793n.4lxpe62q</title>
			</path>
			<rect x="3" y="305274" width="66" height="2166"/>
			<path d="M3,305274L3,305274" tabindex="0">
				<title>01:34.56 on 2020-11-21</title>
			</path>
			<line x1="0" y1="305274" x2="652" y2="305274"/>
			<line x1="3" y1="314730" x2="3" y2="0"/>
			<path d="M69,307440L69,307440" tabindex="0">
				<title>01:12.90 on 2021-01-26</title>
			</path>
			<line x1="0" y1="307440" x2="652" y2="307440"/>
			<line x1="69" y1="314730" x2="69" y2="0"/>
		</g>
		<g style="--index: 10;">
			<path d="M3,312079L21,312079L21,312743" tabindex="0">
				<title>l_rdqo542w-9d8eewld-wl30kw9l.21dzoj3l</title>
			</path>
			<rect x="3" y="312079" width="18" height="664"/>
			<path d="M3,312079L3,312079" tabindex="0">
				<title>00:26.51 on 2020-11-21</title>
			</path>
			<line x1="0" y1="312079" x2="652" y2="312079"/>
			<line x1="3" y1="314730" x2="3" y2="0"/>
			<path d="M21,312743L21,312743" tabindex="0">
				<title>00:19.87 on 2020-12-09</title>
			</path>
			<line x1="0" y1="312743" x2="652" y2="312743"/>
			<line x1="21" y1="314730" x2="21" y2="0"/>
		</g>
		<g style="--index: 11;">
			<path d="M3,312214L46,312214L46,312719" tabindex="0">
				<title>l_495zlx39-9d8eewld-2lgr793n.xqkjmnnl</title>
			</path>
			<rect x="3" y="312214" width="43" height="505"/>
			<path d="M3,312214L3,312214" tabindex="0">
				<title>00:25.16 on 2020-11-21</title>
			</path>
			<line x1="0" y1="312214" x2="652" y2="312214"/>
			<line x1="3" y1="314730" x2="3" y2="0"/>
			<path d="M46,312719L46,312719" tabindex="0">
				<title>00:20.11 on 2021-01-03</title>
			</path>
			<line x1="0" y1="312719" x2="652" y2="312719"/>
			<line x1="46" y1="314730" x2="46" y2="0"/>
		</g>
		<g style="--index: 12;">
			<path d="M3,311785L60,311785L60,312041" tabindex="0">
				<title>l_rdqo542w-9d8eewld-wl30kw9l.5q86rxr1</title>
			</path>
			<rect x="3" y="311785" width="57" height="256"/>
			<path d="M3,311785L3,311785" tabindex="0">
				<title>00:29.45 on 2020-11-21</title>
			</path>
			<line x1="0" y1="311785" x2="652" y2="311785"/>
			<line x1="3" y1="314730" x2="3" y2="0"/>
			<path d="M60,312041L60,312041" tabindex="0">
				<title>00:26.89 on 2021-01-17</title>
			</path>
			<line x1="0" y1="312041" x2="652" y2="312041"/>
			<line x1="60" y1="314730" x2="60" y2="0"/>
		</g>
		<g style="--index: 13;">
			<path d="M3,313121L34,313121L34,313291" tabindex="0">
				<title>l_495zlx39-9d8eewld-2lgr793n.814y7w01</title>
			</path>
			<rect x="3" y="313121" width="31" height="170"/>
			<path d="M3,313121L3,313121" tabindex="0">
				<title>00:16.09 on 2020-11-21</title>
			</path>
			<line x1="0" y1="313121" x2="652" y2="313121"/>
			<line x1="3" y1="314730" x2="3" y2="0"/>
			<path d="M34,313291L34,313291" tabindex="0">
				<title>00:14.39 on 2020-12-22</title>
			</path>
			<line x1="0" y1="313291" x2="652" y2="313291"/>
			<line x1="34" y1="314730" x2="34" y2="0"/>
		</g>
		<g style="--index: 14;">
			<path d="M3,312419L45,312419L45,312891" tabindex="0">
				<title>l_rdqo542w-9d8eewld-wl30kw9l.klrp6e0q</title>
			</path>
			<rect x="3" y="312419" width="42" height="472"/>
			<path d="M3,312419L3,312419" tabindex="0">
				<title>00:23.11 on 2020-11-21</title>
			</path>
			<line x1="0" y1="312419" x2="652" y2="312419"/>
			<line x1="3" y1="314730" x2="3" y2="0"/>
			<path d="M45,312891L45,312891" tabindex="0">
				<title>00:18.39 on 2021-01-02</title>
			</path>
			<line x1="0" y1="312891" x2="652" y2="312891"/>
			<line x1="45" y1="314730" x2="45" y2="0"/>
		</g>
		<g style="--index: 15;">
			<path d="M3,307096L65,307096L65,308629L68,308629L68,308745" tabindex="0">
				<title>l_rdqo542w-9d8eewld-wl30kw9l.klrp6ejq</title>
			</path>
			<rect x="3" y="307096" width="65" height="1649"/>
			<path d="M3,307096L3,307096" tabindex="0">
				<title>01:16.34 on 2020-11-21</title>
			</path>
			<line x1="0" y1="307096" x2="652" y2="307096"/>
			<line x1="3" y1="314730" x2="3" y2="0"/>
			<path d="M65,308629L65,308629" tabindex="0">
				<title>01:01.01 on 2021-01-22</title>
			</path>
			<line x1="0" y1="308629" x2="652" y2="308629"/>
			<line x1="65" y1="314730" x2="65" y2="0"/>
			<path d="M68,308745L68,308745" tabindex="0">
				<title>00:59.85 on 2021-01-25</title>
			</path>
			<line x1="0" y1="308745" x2="652" y2="308745"/>
			<line x1="68" y1="314730" x2="68" y2="0"/>
		</g>
		<g style="--index: 16;">
			<path d="M3,311283L35,311283L35,311825" tabindex="0">
				<title>l_495zlx39-9d8eewld-2lgr793n.21g8ownl</title>
			</path>
			<rect x="3" y="311283" width="32" height="542"/>
			<path d="M3,311283L3,311283" tabindex="0">
				<title>00:34.47 on 2020-11-21</title>
			</path>
			<line x1="0" y1="311283" x2="652" y2="311283"/>
			<line x1="3" y1="314730" x2="3" y2="0"/>
			<path d="M35,311825L35,311825" tabindex="0">
				<title>00:29.05 on 2020-12-23</title>
			</path>
			<line x1="0" y1="311825" x2="652" y2="311825"/>
			<line x1="35" y1="314730" x2="35" y2="0"/>
		</g>
		<g style="--index: 17;">
			<path d="M5,313251L12,313251L12,313271" tabindex="0">
				<title>l_r9gn1qpd-9d8eewld-0nwoqwkl.xqkjmxnl</title>
			</path>
			<rect x="5" y="313251" width="7" height="20"/>
			<path d="M5,313251L5,313251" tabindex="0">
				<title>00:14.79 on 2020-11-23</title>
			</path>
			<line x1="0" y1="313251" x2="652" y2="313251"/>
			<line x1="5" y1="314730" x2="5" y2="0"/>
			<path d="M12,313271L12,313271" tabindex="0">
				<title>00:14.59 on 2020-11-30</title>
			</path>
			<line x1="0" y1="313271" x2="652" y2="313271"/>
			<line x1="12" y1="314730" x2="12" y2="0"/>
		</g>
		<g style="--index: 18;">
			<path d="M5,297239" tabindex="0">
				<title>l_rdqo542w-9d8eewld-wl30kw9l.jqzpyrgl</title>
			</path>
			<rect x="5" y="297239" width="0" height="0"/>
			<path d="M5,297239L5,297239" tabindex="0">
				<title>02:54.91 on 2020-11-23</title>
			</path>
			<line x1="0" y1="297239" x2="652" y2="297239"/>
			<line x1="5" y1="314730" x2="5" y2="0"/>
		</g>
		<g style="--index: 19;">
			<path d="M5,313154L53,313154L53,313343" tabindex="0">
				<title>l_o9xo3rp9-9d8eewld-7896y468.81wp50oq</title>
			</path>
			<rect x="5" y="313154" width="48" height="189"/>
			<path d="M5,313154L5,313154" tabindex="0">
				<title>00:15.76 on 2020-11-23</title>
			</path>
			<line x1="0" y1="313154" x2="652" y2="313154"/>
			<line x1="5" y1="314730" x2="5" y2="0"/>
			<path d="M53,313343L53,313343" tabindex="0">
				<title>00:13.87 on 2021-01-10</title>
			</path>
			<line x1="0" y1="313343" x2="652" y2="313343"/>
			<line x1="53" y1="314730" x2="53" y2="0"/>
		</g>
		<g style="--index: 20;">
			<path d="M5,313736L51,313736L51,313778L108,313778L108,313803" tabindex="0">
				<title>l_r9gn1qpd-9d8eewld-0nwoqwkl.jqzpx3gl</title>
			</path>
			<rect x="5" y="313736" width="103" height="67"/>
			<path d="M5,313736L5,313736" tabindex="0">
				<title>00:09.94 on 2020-11-23</title>
			</path>
			<line x1="0" y1="313736" x2="652" y2="313736"/>
			<line x1="5" y1="314730" x2="5" y2="0"/>
			<path d="M51,313778L51,313778" tabindex="0">
				<title>00:09.52 on 2021-01-08</title>
			</path>
			<line x1="0" y1="313778" x2="652" y2="313778"/>
			<line x1="51" y1="314730" x2="51" y2="0"/>
			<path d="M108,313803L108,313803" tabindex="0">
				<title>00:09.27 on 2021-03-06</title>
			</path>
			<line x1="0" y1="313803" x2="652" y2="313803"/>
			<line x1="108" y1="314730" x2="108" y2="0"/>
		</g>
		<g style="--index: 21;">
			<path d="M5,312735L13,312735L13,313078L115,313078L115,313235" tabindex="0">
				<title>l_r9gn1qpd-9d8eewld-0nwoqwkl.21dz3e4l</title>
			</path>
			<rect x="5" y="312735" width="110" height="500"/>
			<path d="M5,312735L5,312735" tabindex="0">
				<title>00:19.95 on 2020-11-23</title>
			</path>
			<line x1="0" y1="312735" x2="652" y2="312735"/>
			<line x1="5" y1="314730" x2="5" y2="0"/>
			<path d="M13,313078L13,313078" tabindex="0">
				<title>00:16.52 on 2020-12-01</title>
			</path>
			<line x1="0" y1="313078" x2="652" y2="313078"/>
			<line x1="13" y1="314730" x2="13" y2="0"/>
			<path d="M115,313235L115,313235" tabindex="0">
				<title>00:14.95 on 2021-03-13</title>
			</path>
			<line x1="0" y1="313235" x2="652" y2="313235"/>
			<line x1="115" y1="314730" x2="115" y2="0"/>
		</g>
		<g style="--index: 22;">
			<path d="M5,298533L56,298533L56,301561" tabindex="0">
				<title>l_r9gn1qpd-9d8eewld-0nwoqwkl.gq7jrxvq</title>
			</path>
			<rect x="5" y="298533" width="51" height="3028"/>
			<path d="M5,298533L5,298533" tabindex="0">
				<title>02:41.97 on 2020-11-23</title>
			</path>
			<line x1="0" y1="298533" x2="652" y2="298533"/>
			<line x1="5" y1="314730" x2="5" y2="0"/>
			<path d="M56,301561L56,301561" tabindex="0">
				<title>02:11.69 on 2021-01-13</title>
			</path>
			<line x1="0" y1="301561" x2="652" y2="301561"/>
			<line x1="56" y1="314730" x2="56" y2="0"/>
		</g>
		<g style="--index: 23;">
			<path d="M5,313123" tabindex="0">
				<title>l_495zlx39-9d8eewld-2lgr793n.gq7jzvvq</title>
			</path>
			<rect x="5" y="313123" width="0" height="0"/>
			<path d="M5,313123L5,313123" tabindex="0">
				<title>00:16.07 on 2020-11-23</title>
			</path>
			<line x1="0" y1="313123" x2="652" y2="313123"/>
			<line x1="5" y1="314730" x2="5" y2="0"/>
		</g>
		<g style="--index: 24;">
			<path d="M5,312833L14,312833L14,313032L104,313032L104,313176" tabindex="0">
				<title>l_r9gn1qpd-9d8eewld-0nwoqwkl.klrpy2jq</title>
			</path>
			<rect x="5" y="312833" width="99" height="343"/>
			<path d="M5,312833L5,312833" tabindex="0">
				<title>00:18.97 on 2020-11-23</title>
			</path>
			<line x1="0" y1="312833" x2="652" y2="312833"/>
			<line x1="5" y1="314730" x2="5" y2="0"/>
			<path d="M14,313032L14,313032" tabindex="0">
				<title>00:16.98 on 2020-12-02</title>
			</path>
			<line x1="0" y1="313032" x2="652" y2="313032"/>
			<line x1="14" y1="314730" x2="14" y2="0"/>
			<path d="M104,313176L104,313176" tabindex="0">
				<title>00:15.54 on 2021-03-02</title>
			</path>
			<line x1="0" y1="313176" x2="652" y2="313176"/>
			<line x1="104" y1="314730" x2="104" y2="0"/>
		</g>
		<g style="--index: 25;">
			<path d="M5,313497" tabindex="0">
				<title>l_r9gn1qpd-9d8eewld-0nwoqwkl.21g82pnl</title>
			</path>
			<rect x="5" y="313497" width="0" height="0"/>
			<path d="M5,313497L5,313497" tabindex="0">
				<title>00:12.33 on 2020-11-23</title>
			</path>
			<line x1="0" y1="313497" x2="652" y2="313497"/>
			<line x1="5" y1="314730" x2="5" y2="0"/>
		</g>
		<g style="--index: 26;">
			<path d="M5,312944L33,312944L33,313341" tabindex="0">
				<title>l_495zlx39-9d8eewld-2lgr793n.z19m8p0l</title>
			</path>
			<rect x="5" y="312944" width="28" height="397"/>
			<path d="M5,312944L5,312944" tabindex="0">
				<title>00:17.86 on 2020-11-23</title>
			</path>
			<line x1="0" y1="312944" x2="652" y2="312944"/>
			<line x1="5" y1="314730" x2="5" y2="0"/>
			<path d="M33,313341L33,313341" tabindex="0">
				<title>00:13.89 on 2020-12-21</title>
			</path>
			<line x1="0" y1="313341" x2="652" y2="313341"/>
			<line x1="33" y1="314730" x2="33" y2="0"/>
		</g>
		<g style="--index: 27;">
			<path d="M9,308771L30,308771L30,309744" tabindex="0">
				<title>l_r9gn1qpd-9d8eewld-0nwoqwkl.p12dx87q</title>
			</path>
			<rect x="9" y="308771" width="21" height="973"/>
			<path d="M9,308771L9,308771" tabindex="0">
				<title>00:59.59 on 2020-11-27</title>
			</path>
			<line x1="0" y1="308771" x2="652" y2="308771"/>
			<line x1="9" y1="314730" x2="9" y2="0"/>
			<path d="M30,309744L30,309744" tabindex="0">
				<title>00:49.86 on 2020-12-18</title>
			</path>
			<line x1="0" y1="309744" x2="652" y2="309744"/>
			<line x1="30" y1="314730" x2="30" y2="0"/>
		</g>
		<g style="--index: 28;">
			<path d="M9,294839L50,294839L50,298655" tabindex="0">
				<title>l_o9xo3rp9-9d8eewld-7896y468.5lmkgmjq</title>
			</path>
			<rect x="9" y="294839" width="41" height="3816"/>
			<path d="M9,294839L9,294839" tabindex="0">
				<title>03:18.91 on 2020-11-27</title>
			</path>
			<line x1="0" y1="294839" x2="652" y2="294839"/>
			<line x1="9" y1="314730" x2="9" y2="0"/>
			<path d="M50,298655L50,298655" tabindex="0">
				<title>02:40.75 on 2021-01-07</title>
			</path>
			<line x1="0" y1="298655" x2="652" y2="298655"/>
			<line x1="50" y1="314730" x2="50" y2="0"/>
		</g>
		<g style="--index: 29;">
			<path d="M9,312479L24,312479L24,312751L103,312751L103,312982" tabindex="0">
				<title>l_o9xo3rp9-9d8eewld-7896y468.5lermx5q</title>
			</path>
			<rect x="9" y="312479" width="94" height="503"/>
			<path d="M9,312479L9,312479" tabindex="0">
				<title>00:22.51 on 2020-11-27</title>
			</path>
			<line x1="0" y1="312479" x2="652" y2="312479"/>
			<line x1="9" y1="314730" x2="9" y2="0"/>
			<path d="M24,312751L24,312751" tabindex="0">
				<title>00:19.79 on 2020-12-12</title>
			</path>
			<line x1="0" y1="312751" x2="652" y2="312751"/>
			<line x1="24" y1="314730" x2="24" y2="0"/>
			<path d="M103,312982L103,312982" tabindex="0">
				<title>00:17.48 on 2021-03-01</title>
			</path>
			<line x1="0" y1="312982" x2="652" y2="312982"/>
			<line x1="103" y1="314730" x2="103" y2="0"/>
		</g>
		<g style="--index: 30;">
			<path d="M9,313438L27,313438L27,313786L229,313786L229,313848" tabindex="0">
				<title>l_o9xo3rp9-9d8eewld-7896y468.jq60ze3q</title>
			</path>
			<rect x="9" y="313438" width="220" height="410"/>
			<path d="M9,313438L9,313438" tabindex="0">
				<title>00:12.92 on 2020-11-27</title>
			</path>
			<line x1="0" y1="313438" x2="652" y2="313438"/>
			<line x1="9" y1="314730" x2="9" y2="0"/>
			<path d="M27,313786L27,313786" tabindex="0">
				<title>00:09.44 on 2020-12-15</title>
			</path>
			<line x1="0" y1="313786" x2="652" y2="313786"/>
			<line x1="27" y1="314730" x2="27" y2="0"/>
			<path d="M229,313848L229,313848" tabindex="0">
				<title>00:08.82 on 2021-07-05</title>
			</path>
			<line x1="0" y1="313848" x2="652" y2="313848"/>
			<line x1="229" y1="314730" x2="229" y2="0"/>
		</g>
		<g style="--index: 31;">
			<path d="M9,313082L44,313082L44,313305" tabindex="0">
				<title>l_o9xo3rp9-9d8eewld-7896y468.rqvpey7q</title>
			</path>
			<rect x="9" y="313082" width="35" height="223"/>
			<path d="M9,313082L9,313082" tabindex="0">
				<title>00:16.48 on 2020-11-27</title>
			</path>
			<line x1="0" y1="313082" x2="652" y2="313082"/>
			<line x1="9" y1="314730" x2="9" y2="0"/>
			<path d="M44,313305L44,313305" tabindex="0">
				<title>00:14.25 on 2021-01-01</title>
			</path>
			<line x1="0" y1="313305" x2="652" y2="313305"/>
			<line x1="44" y1="314730" x2="44" y2="0"/>
		</g>
		<g style="--index: 32;">
			<path d="M13,312350L102,312350L102,312583" tabindex="0">
				<title>l_r9gnozkd-rkl3znrk-wledz9en.0q5njgmq</title>
			</path>
			<rect x="13" y="312350" width="89" height="233"/>
			<path d="M13,312350L13,312350" tabindex="0">
				<title>00:23.80 on 2020-12-01</title>
			</path>
			<line x1="0" y1="312350" x2="652" y2="312350"/>
			<line x1="13" y1="314730" x2="13" y2="0"/>
			<path d="M102,312583L102,312583" tabindex="0">
				<title>00:21.47 on 2021-02-28</title>
			</path>
			<line x1="0" y1="312583" x2="652" y2="312583"/>
			<line x1="102" y1="314730" x2="102" y2="0"/>
		</g>
		<g style="--index: 33;">
			<path d="M15,312542L302,312542L302,312835" tabindex="0">
				<title>l_r9gnozkd-rkl3znrk-wledz9en.814y0701</title>
			</path>
			<rect x="15" y="312542" width="287" height="293"/>
			<path d="M15,312542L15,312542" tabindex="0">
				<title>00:21.88 on 2020-12-03</title>
			</path>
			<line x1="0" y1="312542" x2="652" y2="312542"/>
			<line x1="15" y1="314730" x2="15" y2="0"/>
			<path d="M302,312835L302,312835" tabindex="0">
				<title>00:18.95 on 2021-09-16</title>
			</path>
			<line x1="0" y1="312835" x2="652" y2="312835"/>
			<line x1="302" y1="314730" x2="302" y2="0"/>
		</g>
		<g style="--index: 34;">
			<path d="M21,313041L296,313041L296,313209" tabindex="0">
				<title>l_r9gnozkd-rkl3znrk-wledz9en.0138n5dq</title>
			</path>
			<rect x="21" y="313041" width="275" height="168"/>
			<path d="M21,313041L21,313041" tabindex="0">
				<title>00:16.89 on 2020-12-09</title>
			</path>
			<line x1="0" y1="313041" x2="652" y2="313041"/>
			<line x1="21" y1="314730" x2="21" y2="0"/>
			<path d="M296,313209L296,313209" tabindex="0">
				<title>00:15.21 on 2021-09-10</title>
			</path>
			<line x1="0" y1="313209" x2="652" y2="313209"/>
			<line x1="296" y1="314730" x2="296" y2="0"/>
		</g>
		<g style="--index: 35;">
			<path d="M22,313439" tabindex="0">
				<title>l_r9gnozkd-rkl3znrk-wledz9en.rqvp5e7q</title>
			</path>
			<rect x="22" y="313439" width="0" height="0"/>
			<path d="M22,313439L22,313439" tabindex="0">
				<title>00:12.91 on 2020-12-10</title>
			</path>
			<line x1="0" y1="313439" x2="652" y2="313439"/>
			<line x1="22" y1="314730" x2="22" y2="0"/>
		</g>
		<g style="--index: 36;">
			<path d="M23,313217" tabindex="0">
				<title>l_r9gnozkd-rkl3znrk-wledz9en.5ler7m5q</title>
			</path>
			<rect x="23" y="313217" width="0" height="0"/>
			<path d="M23,313217L23,313217" tabindex="0">
				<title>00:15.13 on 2020-12-11</title>
			</path>
			<line x1="0" y1="313217" x2="652" y2="313217"/>
			<line x1="23" y1="314730" x2="23" y2="0"/>
		</g>
		<g style="--index: 37;">
			<path d="M25,311715L267,311715L267,311733" tabindex="0">
				<title>l_r9gnozkd-rkl3znrk-wledz9en.4lxp7e2q</title>
			</path>
			<rect x="25" y="311715" width="242" height="18"/>
			<path d="M25,311715L25,311715" tabindex="0">
				<title>00:30.15 on 2020-12-13</title>
			</path>
			<line x1="0" y1="311715" x2="652" y2="311715"/>
			<line x1="25" y1="314730" x2="25" y2="0"/>
			<path d="M267,311733L267,311733" tabindex="0">
				<title>00:29.97 on 2021-08-12</title>
			</path>
			<line x1="0" y1="311733" x2="652" y2="311733"/>
			<line x1="267" y1="314730" x2="267" y2="0"/>
		</g>
		<g style="--index: 38;">
			<path d="M39,313512L74,313512L74,313603" tabindex="0">
				<title>l_r9gnozkd-rkl3znrk-wledz9en.81wpx5oq</title>
			</path>
			<rect x="39" y="313512" width="35" height="91"/>
			<path d="M39,313512L39,313512" tabindex="0">
				<title>00:12.18 on 2020-12-27</title>
			</path>
			<line x1="0" y1="313512" x2="652" y2="313512"/>
			<line x1="39" y1="314730" x2="39" y2="0"/>
			<path d="M74,313603L74,313603" tabindex="0">
				<title>00:11.27 on 2021-01-31</title>
			</path>
			<line x1="0" y1="313603" x2="652" y2="313603"/>
			<line x1="74" y1="314730" x2="74" y2="0"/>
		</g>
		<g style="--index: 39;">
			<path d="M42,208050" tabindex="0">
				<title>xd17x94d-9l71pv4l.zqo20y2l</title>
			</path>
			<rect x="42" y="208050" width="0" height="0"/>
			<path d="M42,208050L42,208050" tabindex="0">
				<title>17:46.80 on 2020-12-30</title>
			</path>
			<line x1="0" y1="208050" x2="652" y2="208050"/>
			<line x1="42" y1="314730" x2="42" y2="0"/>
		</g>
		<g style="--index: 40;">
			<path d="M47,313259L138,313259L138,313310" tabindex="0">
				<title>l_r9gnozkd-rkl3znrk-wledz9en.jq606z3q</title>
			</path>
			<rect x="47" y="313259" width="91" height="51"/>
			<path d="M47,313259L47,313259" tabindex="0">
				<title>00:14.71 on 2021-01-04</title>
			</path>
			<line x1="0" y1="313259" x2="652" y2="313259"/>
			<line x1="47" y1="314730" x2="47" y2="0"/>
			<path d="M138,313310L138,313310" tabindex="0">
				<title>00:14.20 on 2021-04-05</title>
			</path>
			<line x1="0" y1="313310" x2="652" y2="313310"/>
			<line x1="138" y1="314730" x2="138" y2="0"/>
		</g>
		<g style="--index: 41;">
			<path d="M73,310561L128,310561L128,310607" tabindex="0">
				<title>l_r9gnozkd-rkl3znrk-wledz9en.5lmk0gjq</title>
			</path>
			<rect x="73" y="310561" width="55" height="46"/>
			<path d="M73,310561L73,310561" tabindex="0">
				<title>00:41.69 on 2021-01-30</title>
			</path>
			<line x1="0" y1="310561" x2="652" y2="310561"/>
			<line x1="73" y1="314730" x2="73" y2="0"/>
			<path d="M128,310607L128,310607" tabindex="0">
				<title>00:41.23 on 2021-03-26</title>
			</path>
			<line x1="0" y1="310607" x2="652" y2="310607"/>
			<line x1="128" y1="314730" x2="128" y2="0"/>
		</g>
		<g style="--index: 42;">
			<path d="M128,298047" tabindex="0">
				<title>l_495zlx39-xd144xzd-38dz6v1n.814y45w1</title>
			</path>
			<rect x="128" y="298047" width="0" height="0"/>
			<path d="M128,298047L128,298047" tabindex="0">
				<title>02:46.83 on 2021-03-26</title>
			</path>
			<line x1="0" y1="298047" x2="652" y2="298047"/>
			<line x1="128" y1="314730" x2="128" y2="0"/>
		</g>
		<g style="--index: 43;">
			<path d="M133,311259" tabindex="0">
				<title>rkl9qwrk-6njkg4el.z19p2o8l</title>
			</path>
			<rect x="133" y="311259" width="0" height="0"/>
			<path d="M133,311259L133,311259" tabindex="0">
				<title>00:34.71 on 2021-03-31</title>
			</path>
			<line x1="0" y1="311259" x2="652" y2="311259"/>
			<line x1="133" y1="314730" x2="133" y2="0"/>
		</g>
		<g style="--index: 44;">
			<path d="M262,311441" tabindex="0">
				<title>l_r9gnozkd-rkl3znrk-wledz9en.zqop6rp1</title>
			</path>
			<rect x="262" y="311441" width="0" height="0"/>
			<path d="M262,311441L262,311441" tabindex="0">
				<title>00:32.89 on 2021-08-07</title>
			</path>
			<line x1="0" y1="311441" x2="652" y2="311441"/>
			<line x1="262" y1="314730" x2="262" y2="0"/>
		</g>
		<g style="--index: 45;">
			<path d="M652,0" tabindex="0">
				<title>mke75px2-yn2mz5d8.4lx6574l</title>
			</path>
			<rect x="652" y="0" width="0" height="0"/>
			<path d="M652,0L652,0" tabindex="0">
				<title>52:27.30 on 2022-09-01</title>
			</path>
			<line x1="0" y1="0" x2="652" y2="0"/>
			<line x1="652" y1="314730" x2="652" y2="0"/>
		</g>
	</g>
</svg>
