<svg xmlns="http://www.w3.org/2000/svg" lang="en">
	<title>Rank by leaderboard for player xk3knqk8</title>
	<metadata>
		<meta xmlns="http://www.w3.org/1999/xhtml" charset="utf-8" />
		<meta xmlns="http://www.w3.org/1999/xhtml" name="viewport" content="width=device-width" />
		<meta xmlns="http://www.w3.org/1999/xhtml" name="color-scheme" content="dark light" />
	</metadata>
	<style>
		*,
		::before,
		::after {
			box-sizing: border-box;
		}
		:root {
			background: var(--canvas-background);
			color: var(--canvas-foreground);
			fill: var(--canvas-background);
			stroke: var(--canvas-foreground);
			stroke-linejoin: round;
			stroke-linecap: round;
		}
		foreignObject {
			pointer-events: none;
		}
		foreignObject::before,
		foreignObject::after {
			content: "";
			position: absolute;
			z-index: 1;
			left: 20px;
			bottom: 20px;
			pointer-events: auto;
		}
		foreignObject::before {
			width: calc(100% - 40px);
			height: calc(20px + var(--date-size) * 1px);
		}
		foreignObject::after {
			width: calc(20px + var(--value-size) * 1px);
			height: calc(100% - 40px);
		}
		foreignObject &gt; div {
			position: absolute;
			z-index: 4;
			right: 0;
			top: 0;
			margin: 20px;
			border: 1px solid var(--canvas-foreground);
			background: var(--highlighted);
			font: 16px / 1.25 serif;
			transition: opacity 1s;
			pointer-events: auto;
		}
		foreignObject:is(:hover, :focus-within) &gt; div:not(:hover, :focus-within) {
			opacity: 0;
			pointer-events: none;
		}
		foreignObject &gt; div &gt; p {
			margin: 0;
		}
		label {
			display: table;
			border-collapse: separate;
			border-spacing: 10px;
			direction: rtl;
		}
		progress,
		input[type="checkbox"] {
			display: table-cell;
			width: 16px;
			height: 16px;
			margin: 2px;
			accent-color: var(--canvas-foreground);
			vertical-align: top;
			direction: ltr;
		}
		progress + span,
		input[type="checkbox"] + span {
			display: table-cell;
			vertical-align: top;
			direction: ltr;
		}
		input[type="checkbox"]:not(:disabled):is(:hover, :focus-within) + span {
			text-decoration: underline;
		}
		foreignObject &gt; svg:first-of-type,
		foreignObject &gt; svg:first-of-type + svg,
		foreignObject &gt; svg:first-of-type + svg + svg,
		foreignObject &gt; svg:first-of-type + svg + svg + svg {
			position: absolute;
			z-index: 2;
			margin: 0;
			padding: 10px;
			background: var(--highlighted);
			font: 16px / 1.25 serif;
			font-weight: bold;
			pointer-events: auto;
		}
		foreignObject &gt; svg:first-of-type,
		foreignObject &gt; svg:first-of-type + svg + svg {
			border-top: 1px solid #0000;
			border-bottom: 1px solid var(--canvas-foreground);
		}
		foreignObject &gt; svg:first-of-type + svg,
		foreignObject &gt; svg:first-of-type + svg + svg + svg {
			border-top: 1px dashed var(--canvas-foreground);
			border-bottom: 1px dashed #0000;
		}
		foreignObject &gt; svg:first-of-type,
		foreignObject &gt; svg:first-of-type + svg {
			width: calc(20px + var(--date-size) * 1px);
			height: 42px;
			bottom: 20px;
		}
		foreignObject &gt; svg:first-of-type {
			left: calc(40px + var(--value-size) * 1px);
			transform: rotate(90deg) translate(-100%, 0);
			transform-origin: left bottom;
		}
		foreignObject &gt; svg:first-of-type + svg {
			right: 20px;
			transform: rotate(90deg) translate(0, 100%);
			transform-origin: right bottom;
		}
		foreignObject &gt; svg:first-of-type + svg + svg,
		foreignObject &gt; svg:first-of-type + svg + svg + svg {
			width: calc(20px + var(--value-size) * 1px);
			height: 42px;
			left: 20px;
		}
		foreignObject &gt; svg:first-of-type + svg + svg {
			bottom: calc(40px + var(--date-size) * 1px);
		}
		foreignObject &gt; svg:first-of-type + svg + svg + svg {
			top: 20px;
		}
		foreignObject &gt; svg:first-of-type &gt; text,
		foreignObject &gt; svg:first-of-type + svg &gt; text,
		foreignObject &gt; svg:first-of-type + svg + svg &gt; text,
		foreignObject &gt; svg:first-of-type + svg + svg + svg &gt; text {
			fill: var(--canvas-foreground);
			stroke: none;
		}
		foreignObject &gt; svg:first-of-type &gt; text,
		foreignObject &gt; svg:first-of-type + svg &gt; text {
			cursor: vertical-text;
		}
		foreignObject &gt; svg:first-of-type + svg + svg + svg + svg {
			position: relative;
			z-index: 3;
			width: calc(100% - 60px - var(--value-size) * 1px);
			height: calc(100% - 60px - var(--date-size) * 1px);
			margin: 20px 20px calc(40px + var(--date-size) * 1px) calc(40px + var(--value-size) * 1px);
			border-left: 1px solid var(--canvas-foreground);
			border-right: 1px dashed var(--canvas-foreground);
			border-top: 1px dashed var(--canvas-foreground);
			border-bottom: 1px solid var(--canvas-foreground);
			background: var(--canvas-background);
			pointer-events: auto;
		}
		g &gt; rect {
			vector-effect: non-scaling-stroke;
			fill: var(--highlighted);
			stroke: none;
		}
		g &gt; rect[tabindex] {
			fill: var(--tier, #0000);
			cursor: help;
		}
		g &gt; rect[tabindex][data-tier="diamond"] {
			--tier: var(--diamond);
		}
		g &gt; rect[tabindex][data-tier="gold"] {
			--tier: var(--gold);
		}
		g &gt; rect[tabindex][data-tier="silver"] {
			--tier: var(--silver);
		}
		g &gt; rect[tabindex][data-tier="bronze"] {
			--tier: var(--bronze);
		}
		g &gt; path[tabindex] {
			vector-effect: non-scaling-stroke;
			fill: none;
			stroke: hsl(calc(var(--index) / var(--count) * 360), 50%, 50%);
			cursor: help;
		}
		g:is(:hover, :focus-within) &gt; path[tabindex] {
			stroke: var(--canvas-foreground);
		}
		g &gt; path[tabindex]:is(:hover, :focus-within) {
			outline: 0;
		}
		g &gt; path[tabindex]:first-of-type {
			stroke-width: 2;
		}
		g &gt; path[tabindex]:first-of-type:is(:hover, :focus-within) {
			stroke-width: 4;
		}
		g &gt; path[tabindex]:first-of-type:not(:last-of-type) {
			stroke-dasharray: 4 8;
		}
		g &gt; path[tabindex]:first-of-type + rect {
			fill: none;
		}
		g &gt; path[tabindex]:first-of-type:is(:hover, :focus-within) + rect {
			fill: var(--highlighted);
			pointer-events: none;
		}
		g &gt; path[tabindex]:first-of-type ~ path[tabindex] {
			stroke-width: 8;
		}
		g &gt; path[tabindex]:first-of-type ~ path[tabindex]:is(:hover, :focus-within) {
			stroke-width: 16;
		}
		g &gt; path[tabindex]:first-of-type ~ path[tabindex] + line,
		g &gt; path[tabindex]:first-of-type ~ path[tabindex] + line + line {
			vector-effect: non-scaling-stroke;
			fill: none;
			stroke: none;
			stroke-width: 2;
			stroke-dasharray: 4 8;
			pointer-events: none;
		}
		g &gt; path[tabindex]:first-of-type:is(:hover, :focus-within) + rect + path[tabindex] + line,
		g &gt; path[tabindex]:first-of-type:is(:hover, :focus-within) + rect + path[tabindex] + line + line,
		g &gt; path[tabindex]:first-of-type:is(:hover, :focus-within) ~ path[tabindex]:last-of-type + line,
		g &gt; path[tabindex]:first-of-type:is(:hover, :focus-within) ~ path[tabindex]:last-of-type + line + line,
		g &gt; path[tabindex]:first-of-type ~ path[tabindex]:is(:hover, :focus-within) + line,
		g &gt; path[tabindex]:first-of-type ~ path[tabindex]:is(:hover, :focus-within) + line + line {
			stroke: var(--faded);
		}
		@media (prefers-color-scheme: dark) {
			:root {
				--canvas-background: #000;
				--canvas-foreground: #ccc;
				--diamond: #0363;
				--gold: #6303;
				--silver: #3633;
				--bronze: #6363;
				--highlighted: #6663;
				--faded: #9993;
			}
		}
		@media (prefers-color-scheme: light) {
			:root {
				--canvas-background: #fff;
				--canvas-foreground: #333;
				--diamond: #9cf3;
				--gold: #fc93;
				--silver: #9c93;
				--bronze: #c9c3;
				--highlighted: #9993;
				--faded: #6663;
			}
		}
	</style>
	<script>
		"use strict";
		{
			const script = document.currentScript;
			const documentUrl = location.href;
			const scope = new URL("../../", documentUrl).pathname;
			const playersKey = `${scope}#players`;
			const leaderboardsKey = `${scope}#leaderboards`;
			const sessionKey = `${scope}#session`;
			const lockKey = `${scope}#lock`;
			async function importDataScript(dataScriptUrl, signal) {
				signal.throwIfAborted();
				if (documentUrl.protocol !== "file:") {
					const response = await fetch(dataScriptUrl, {
						signal,
					});
					if (!response.ok) {
						throw new Error(response.statusText);
					}
					const data = await response.json();
					return data;
				}
				return await new Promise((resolve, reject) =&gt; {
					const name = `callback${Math.random() * 2 ** 53}`;
					let called = false;
					let data = null;
					function callback(value) {
						if (!called) {
							called = true;
							data = value;
						}
					}
					window[name] = callback;
					const dataScript = document.createElementNS("http://www.w3.org/2000/svg", "script");
					dataScript.href = `${dataScriptUrl}&amp;callback=${name}`;
					function handleAbort(event) {
						delete window[name];
						dataScript.removeEventListener("error", handleError);
						dataScript.removeEventListener("load", handleLoad);
						dataScript.remove();
						const reason = signal.reason;
						reject(reason);
					}
					function handleError(event) {
						delete window[name];
						signal.removeEventListener("abort", handleAbort);
						dataScript.removeEventListener("load", handleLoad);
						dataScript.remove();
						const error = event.error;
						reject(error);
					}
					function handleLoad(event) {
						delete window[name];
						signal.removeEventListener("abort", handleAbort);
						dataScript.removeEventListener("error", handleError);
						dataScript.remove();
						resolve(data);
					}
					signal.addEventListener("abort", handleAbort, {
						once: true,
					});
					dataScript.addEventListener("error", handleError, {
						once: true,
					});
					dataScript.addEventListener("load", handleLoad, {
						once: true,
					});
					script.after(dataScript);
				});
			}
			async function waitForTimeout(delay, signal) {
				signal.throwIfAborted();
				return await new Promise((resolve, reject) =&gt; {
					let timeout = null;
					function handleAbort() {
						clearTimeout(timeout);
						const reason = signal.reason;
						reject(reason);
					}
					function handleTimeout() {
						signal.removeEventListener("abort", handleAbort);
						resolve(delay);
					}
					signal.addEventListener("abort", handleAbort, {
						once: true,
					});
					timeout = setTimeout(handleTimeout, delay);
				});
			}
			window.addEventListener("pageshow", (event) =&gt; {
				if (event.persisted) {
					console.log(`Successfully restored page from cache`);
				} else {
					console.log(`Unsuccessfully restored page from cache`);
				}
			});
			window.addEventListener("pagehide", (event) =&gt; {
				if (event.persisted) {
					console.log(`Successfully saved page to cache`);
				} else {
					console.log(`Unsuccessfully saved page to cache`);
				}
			});
			window.addEventListener("pageshow", async (event) =&gt; {
				const rootTitleElement = document.querySelector("title");
				const rootTitleContent = rootTitleElement.textContent;
				const pathTitleElements = Array.from(document.querySelectorAll("g &gt; path[tabindex]:first-of-type &gt; title"));
				const pathTitleContents = pathTitleElements.map((pathTitleElement) =&gt; {
					const pathTitleContent = pathTitleElement.textContent;
					return pathTitleContent;
				});
				const foreignObject = document.querySelector("foreignObject");
				const div = document.createElementNS("http://www.w3.org/1999/xhtml", "div");
				div.dir = "ltr";
				const p = document.createElementNS("http://www.w3.org/1999/xhtml", "p");
				const label = document.createElementNS("http://www.w3.org/1999/xhtml", "label");
				const progress = document.createElementNS("http://www.w3.org/1999/xhtml", "progress");
				label.append(progress);
				const span = document.createElementNS("http://www.w3.org/1999/xhtml", "span");
				span.textContent = "Loading names";
				label.append(span);
				p.append(label);
				div.append(p);
				foreignObject.prepend(div);
				let lock = false;
				let session = null;
				const broadcastChannel = new BroadcastChannel(sessionKey);
				const abortController = new AbortController();
				const signal = abortController.signal;
				const abort = abortController.abort.bind(abortController);
				const {promise, resolve} = Promise.withResolvers();
				broadcastChannel.addEventListener("message", (event) =&gt; {
					const data = event.data;
					const type = data.type;
					switch (type) {
						case "request": {
							if (lock &amp;&amp; signal.aborted) {
								broadcastChannel.postMessage({
									type: "response",
									session,
								});
							}
							break;
						}
						case "response": {
							if (!signal.aborted) {
								session = data.session;
								if (session != null) {
									const {players, leaderboards} = session;
									try {
										const cachedPlayers = JSON.stringify(players);
										const cachedLeaderboards = JSON.stringify(leaderboards);
										sessionStorage.setItem(playersKey, cachedPlayers);
										sessionStorage.setItem(leaderboardsKey, cachedLeaderboards);
									} catch {}
									console.log(`Successfully loaded names from peer`);
									abort();
									resolve();
								} else {
									console.log(`Unsuccessfully loaded names from peer`);
									abort();
									resolve();
								}
							}
							break;
						}
					}
				});
				try {
					const cachedPlayers = sessionStorage.getItem(playersKey);
					const cachedLeaderboards = sessionStorage.getItem(leaderboardsKey);
					if (cachedPlayers == null || cachedLeaderboards == null) {
						throw new Error();
					}
					const players = JSON.parse(cachedPlayers);
					const leaderboards = JSON.parse(cachedLeaderboards);
					session = {players, leaderboards};
				} catch {}
				if (session != null) {
					broadcastChannel.postMessage({
						type: "response",
						session,
					});
					console.log(`Successfully loaded names from local`);
					abort();
					resolve();
				} else {
					broadcastChannel.postMessage({
						type: "request",
					});
					console.log(`Unsuccessfully loaded names from local`);
				}
				(async () =&gt; {
					for (;;) {
						await navigator.locks.request(lockKey, async () =&gt; {
							lock = true;
							console.log(`Acquired lock`);
							if (!signal.aborted) {
								try {
									const players = Object.create(null);
									const leaderboards = Object.create(null);
									const games = ["9d3rrxyd", "w6jl2ned"];
									for (const gameId of games) {
										const {data} = await importDataScript(`https://www.speedrun.com/api/v1/games/${gameId}?embed=categories,levels,variables`, signal);
										const versions = data.variables.data.find((variable) =&gt; {
											return variable.name === "Version";
										});
										const levels = Object.fromEntries(data.levels.data.map((level) =&gt; {
											return [level.id, level];
										}));
										const categories = Object.fromEntries(data.categories.data.map((category) =&gt; {
											return [category.id, category];
										}));
										const variables = Object.fromEntries(data.variables.data.map((variable) =&gt; {
											return [variable.id, variable];
										}));
										console.log(`Got game`);
										await waitForTimeout(800, signal);
										const slice = 200;
										for (let offset = 0;; offset += slice) {
											const {data, pagination} = await importDataScript(`https://www.speedrun.com/api/v1/runs?game=${gameId}&amp;orderby=date&amp;direction=asc&amp;embed=players&amp;offset=${offset}&amp;max=${slice}`, signal);
											const {size} = pagination;
											if (size === 0) {
												break;
											}
											for (const run of data) {
												const status = run.status.status;
												if (status == null || status === "new") {
													continue;
												}
												const anonymous = (run.players.data[0]?.rel ?? "guest") !== "user";
												const player = !anonymous ? run.players.data[0].id : "814p2558";
												const playerName = !anonymous ? run.players.data[0].names.international : "anonymous";
												players[player] ??= playerName;
												const level = run.level;
												const category = run.category;
												const values = Object.entries(run.values).filter(([variable]) =&gt; {
													return variables[variable]?.["is-subcategory"] ?? false;
												}).map(([variable, value]) =&gt; {
													return `-${variable}.${value}`;
												});
												const leaderboard = `${level != null ? `l_${level}-` : ""}${category}${values.join("")}`;
												const levelName = run.level != null ? levels[run.level]?.name ?? null : null;
												const categoryName = categories[run.category]?.name ?? null;
												const valueNames = Object.entries(run.values).filter(([variable]) =&gt; {
													return variables[variable]?.["is-subcategory"] ?? false;
												}).map(([variable, value]) =&gt; {
													return variables[variable]?.values.values[value]?.label ?? null;
												}).filter((valueName) =&gt; {
													return valueName != null;
												});
												const leaderboardName = `${levelName != null ? `${levelName}: ` : ""}${categoryName ?? ""}${values.length !== 0 ? ` - ${valueNames.join(", ")}` : ""}`;
												leaderboards[leaderboard] ??= leaderboardName;
											}
											console.log(`Got runs ${offset}-${offset + size - 1}`);
											await waitForTimeout(800, signal);
										}
									}
									session = {players, leaderboards};
								} catch {}
								if (!signal.aborted) {
									if (session != null) {
										const {players, leaderboards} = session;
										try {
											const cachedPlayers = JSON.stringify(players);
											const cachedLeaderboards = JSON.stringify(leaderboards);
											sessionStorage.setItem(playersKey, cachedPlayers);
											sessionStorage.setItem(leaderboardsKey, cachedLeaderboards);
										} catch {}
										broadcastChannel.postMessage({
											type: "response",
											session,
										});
										console.log(`Successfully loaded names from remote`);
										abort();
										resolve();
									} else {
										broadcastChannel.postMessage({
											type: "response",
											session,
										});
										console.log(`Unsuccessfully loaded names from remote`);
										abort();
										resolve();
									}
								}
							}
							await new Promise((resolve) =&gt; {
								window.addEventListener("beforeunload", () =&gt; {
									resolve();
								}, {
									once: true,
								});
							});
						});
						lock = false;
						console.log(`Released lock`);
						await new Promise((resolve) =&gt; {
							window.addEventListener("pagehide", () =&gt; {
								resolve();
							}, {
								once: true,
							});
						});
						await new Promise((resolve) =&gt;{
							window.addEventListener("pageshow", () =&gt; {
								resolve();
							}, {
								once: true,
							});
						});
					}
				})();
				await promise;
				if (session == null) {
					const input = document.createElementNS("http://www.w3.org/1999/xhtml", "input");
					input.type = "checkbox";
					input.autocomplete = "off";
					input.disabled = true;
					input.indeterminate = true;
					progress.replaceWith(input);
					span.textContent = "Unavailable names";
					return;
				}
				const {players, leaderboards} = session;
				const hasPlayerRoot = rootTitleContent.includes(" for player");
				const hasLeaderboardRoot = rootTitleContent.includes(" for leaderboard");
				const rootTitle = {
					element: rootTitleElement,
					contentWithIds: rootTitleContent,
					contentWithNames: hasPlayerRoot ? rootTitleContent.replace(/ for player ([0-9_a-z]+)/, ($0, $1) =&gt; {
						return ` for player ${players[$1] ?? $1}`;
					}) : hasLeaderboardRoot ? rootTitleContent.replace(/ for leaderboard ((?:l_[0-9_a-z]+-)?[0-9_a-z]+(-[0-9_a-z]+\.[0-9_a-z]+)*)/, ($0, $1) =&gt; {
						return ` for leaderboard ${leaderboards[$1] ?? $1}`;
					}) : rootTitleContent,
				};
				const hasPlayerPaths = rootTitleContent.includes(" by player");
				const hasLeaderboardPaths = rootTitleContent.includes(" by leaderboard");
				const pathTitles = pathTitleElements.map((pathTitleElement, k) =&gt; {
					const pathTitleContent = pathTitleContents[k];
					const pathTitle = {
						element: pathTitleElement,
						contentWithIds: pathTitleContent,
						contentWithNames: hasPlayerPaths ? players[pathTitleContent] ?? pathTitleContent : hasLeaderboardPaths ? leaderboards[pathTitleContent] ?? pathTitleContent : pathTitleContent,
					};
					return pathTitle;
				});
				const input = document.createElementNS("http://www.w3.org/1999/xhtml", "input");
				input.type = "checkbox";
				input.autocomplete = "off";
				input.addEventListener("change", () =&gt; {
					input.disabled = true;
					if (input.checked) {
						rootTitle.element.textContent = rootTitle.contentWithNames;
						for (const pathTitle of pathTitles) {
							pathTitle.element.textContent = pathTitle.contentWithNames;
						}
					} else {
						rootTitle.element.textContent = rootTitle.contentWithIds;
						for (const pathTitle of pathTitles) {
							pathTitle.element.textContent = pathTitle.contentWithIds;
						}
					}
					input.disabled = false;
				});
				progress.replaceWith(input);
				span.textContent = "Reveal names";
			}, {
				once: true,
			});
		}
	</script>
	<script>
		"use strict";
		{
			document.addEventListener("DOMContentLoaded", (event) =&gt; {
				const minDateText = document.querySelector("foreignObject &gt; svg:first-of-type &gt; text");
				const maxDateText = document.querySelector("foreignObject &gt; svg:first-of-type + svg &gt; text");
				const startX = Math.round(Date.parse(minDateText.textContent) / 86400000);
				function xToDate(x) {
					const datetime = new Date((startX + x) * 86400000);
					const year = `${datetime.getUTCFullYear()}`.padStart(4, "0");
					const month = `${datetime.getUTCMonth() + 1}`.padStart(2, "0");
					const day = `${datetime.getUTCDate()}`.padStart(2, "0");
					const date = `${year}-${month}-${day}`;
					const size = date.length * 10;
					return {date, size};
				}
				function setMinDate(x) {
					const {date, size} = xToDate(Math.floor(x));
					minDateText.textLength.baseVal.value = size;
					minDateText.textContent = date;
				}
				function setMaxDate(x) {
					const {date, size} = xToDate(Math.ceil(x));
					maxDateText.textLength.baseVal.value = size;
					maxDateText.textContent = date;
				}
				const minValueText = document.querySelector("foreignObject &gt; svg:first-of-type + svg + svg &gt; text");
				const maxValueText = document.querySelector("foreignObject &gt; svg:first-of-type + svg + svg + svg &gt; text");
				const timed = minValueText.textContent.includes(":");
				function yToValue(y) {
					if (timed) {
						const minutes = `${(y - y % 6000) / 6000}`.padStart(2, "0");
						const seconds = `${(y - y % 100) / 100 % 60}`.padStart(2, "0");
						const centiseconds = `${y % 100}`.padStart(2, "0");
						const value = `${minutes}:${seconds}.${centiseconds}`;
						const size = value.length * 10;
						return {value, size};
					} else {
						const value = `${y}`;
						const size = value.length * 10;
						return {value, size};
					}
				}
				function setMinValue(y) {
					const {value, size} = yToValue(Math.floor(y));
					minValueText.textLength.baseVal.value = size;
					minValueText.textContent = value;
				}
				function setMaxValue(y) {
					const {value, size} = yToValue(Math.ceil(y));
					maxValueText.textLength.baseVal.value = size;
					maxValueText.textContent = value;
				}
				const svg = document.querySelector("foreignObject &gt; svg:first-of-type + svg + svg + svg + svg");
				svg.tabIndex = -1;
				svg.style.setProperty("outline", "0");
				if (CSS.supports("overflow-clip-margin", "8px")) {
					svg.style.setProperty("overflow", "clip");
					svg.style.setProperty("overflow-clip-margin", "8px");
				}
				svg.style.setProperty("touch-action", "none");
				const {x: baseX, y: baseY, width: baseWidth, height: baseHeight} = svg.viewBox.baseVal;
				let pointerCount = 0;
				const pointers = Object.create(null);
				const xPointerIds = [];
				const yPointerIds = [];
				let x = null;
				let y = null;
				let width = null;
				let height = null;
				svg.addEventListener("pointerdown", (event) =&gt; {
					const {pointerId} = event;
					if (pointerId in pointers) {
						return;
					}
					let {x: animX, y: animY, width: animWidth, height: animHeight} = svg.viewBox.baseVal;
					svg.setPointerCapture(pointerId);
					++pointerCount;
					const offsetX = event.offsetX;
					const offsetY = event.offsetY;
					pointers[pointerId] = {
						offsetX,
						offsetY,
					};
					xPointerIds.splice(xPointerIds.findLastIndex((pointerId) =&gt; {
						return pointers[pointerId].offsetX &lt;= offsetX;
					}) + 1, 0, pointerId);
					yPointerIds.splice(yPointerIds.findLastIndex((pointerId) =&gt; {
						return pointers[pointerId].offsetY &lt;= offsetY;
					}) + 1, 0, pointerId);
					const minOffsetX = pointers[xPointerIds[0]].offsetX;
					const minOffsetY = pointers[yPointerIds[0]].offsetY;
					const maxClientWidth = pointers[xPointerIds[pointerCount - 1]].offsetX - minOffsetX;
					const maxClientHeight = pointers[yPointerIds[pointerCount - 1]].offsetY - minOffsetY;
					width = Math.min(maxClientWidth / svg.clientWidth * animWidth, baseWidth);
					height = Math.min(maxClientHeight / svg.clientHeight * animHeight, baseHeight);
					x = Math.max(Math.min(animX + minOffsetX / svg.clientWidth * animWidth, baseX + baseWidth), baseX);
					y = Math.max(Math.min(animY + minOffsetY / svg.clientHeight * animHeight, baseY + baseHeight), baseY);
				});
				svg.addEventListener("pointerup", (event) =&gt; {
					const {pointerId} = event;
					if (!(pointerId in pointers)) {
						return;
					}
					let {x: animX, y: animY, width: animWidth, height: animHeight} = svg.viewBox.baseVal;
					svg.releasePointerCapture(pointerId);
					--pointerCount;
					delete pointers[pointerId];
					xPointerIds.splice(xPointerIds.lastIndexOf(pointerId), 1);
					yPointerIds.splice(yPointerIds.lastIndexOf(pointerId), 1);
					const minOffsetX = pointerCount !== 0 ? pointers[xPointerIds[0]].offsetX : null;
					const minOffsetY = pointerCount !== 0 ? pointers[yPointerIds[0]].offsetY : null;
					const maxClientWidth = pointerCount !== 0 ? pointers[xPointerIds[pointerCount - 1]].offsetX - minOffsetX : null;
					const maxClientHeight = pointerCount !== 0 ? pointers[yPointerIds[pointerCount - 1]].offsetY - minOffsetY : null;
					width = pointerCount !== 0 ? Math.min(maxClientWidth / svg.clientWidth * animWidth, baseWidth) : null;
					height = pointerCount !== 0 ? Math.min(maxClientHeight / svg.clientHeight * animHeight, baseHeight) : null;
					x = pointerCount !== 0 ? Math.max(Math.min(animX + minOffsetX / svg.clientWidth * animWidth, baseX + baseWidth), baseX) : null;
					y = pointerCount !== 0 ? Math.max(Math.min(animY + minOffsetY / svg.clientHeight * animHeight, baseY + baseHeight), baseY) : null;
				});
				svg.addEventListener("pointermove", (event) =&gt; {
					const {pointerId} = event;
					if (!(pointerId in pointers)) {
						return;
					}
					let {x: animX, y: animY, width: animWidth, height: animHeight} = svg.viewBox.baseVal;
					event.preventDefault();
					const offsetX = event.offsetX;
					const offsetY = event.offsetY;
					pointers[pointerId].offsetX = offsetX;
					pointers[pointerId].offsetY = offsetY;
					const oldXIndex = xPointerIds.lastIndexOf(pointerId);
					let newXIndex = oldXIndex;
					while (newXIndex &gt; 0 &amp;&amp; pointers[xPointerIds[newXIndex - 1]].offsetX &gt; offsetX) {
						--newXIndex;
					}
					xPointerIds.copyWithin(newXIndex + 1, newXIndex, oldXIndex);
					xPointerIds[newXIndex] = pointerId;
					while (newXIndex &lt; pointerCount - 1 &amp;&amp; pointers[xPointerIds[newXIndex + 1]].offsetX &lt; offsetX) {
						++newXIndex;
					}
					xPointerIds.copyWithin(oldXIndex, oldXIndex + 1, newXIndex + 1);
					xPointerIds[newXIndex] = pointerId;
					const oldYIndex = yPointerIds.lastIndexOf(pointerId);
					let newYIndex = oldYIndex;
					while (newYIndex &gt; 0 &amp;&amp; pointers[yPointerIds[newYIndex - 1]].offsetY &gt; offsetY) {
						--newYIndex;
					}
					yPointerIds.copyWithin(newYIndex + 1, newYIndex, oldYIndex);
					yPointerIds[newYIndex] = pointerId;
					while (newYIndex &lt; pointerCount - 1 &amp;&amp; pointers[yPointerIds[newYIndex + 1]].offsetY &lt; offsetY) {
						++newYIndex;
					}
					yPointerIds.copyWithin(oldYIndex, oldYIndex + 1, newYIndex + 1);
					yPointerIds[newYIndex] = pointerId;
					const minOffsetX = pointers[xPointerIds[0]].offsetX;
					const minOffsetY = pointers[yPointerIds[0]].offsetY;
					const maxClientWidth = pointers[xPointerIds[pointerCount - 1]].offsetX - minOffsetX;
					const maxClientHeight = pointers[yPointerIds[pointerCount - 1]].offsetY - minOffsetY;
					animWidth = width === 0 ? animWidth : maxClientWidth === 0 ? baseWidth : Math.min(svg.clientWidth / maxClientWidth * width, baseWidth);
					animHeight = height === 0 ? animHeight : maxClientHeight === 0 ? baseHeight : Math.min(svg.clientHeight / maxClientHeight * height, baseHeight);
					animX = Math.max(Math.min(x - minOffsetX / svg.clientWidth * animWidth, baseX + baseWidth - animWidth), baseX);
					animY = Math.max(Math.min(y - minOffsetY / svg.clientHeight * animHeight, baseY + baseHeight - animHeight), baseY);
					svg.viewBox.baseVal.x = animX;
					svg.viewBox.baseVal.y = animY;
					svg.viewBox.baseVal.width = animWidth;
					svg.viewBox.baseVal.height = animHeight;
					setMinDate(animX);
					setMaxDate(animX + animWidth);
					setMinValue(baseY * 2 + baseHeight - animHeight - animY);
					setMaxValue(baseY * 2 + baseHeight - animY);
				});
				const zoomIntensity = 1.25;
				svg.addEventListener("wheel", (event) =&gt; {
					let {x: animX, y: animY, width: animWidth, height: animHeight} = svg.viewBox.baseVal;
					const {ctrlKey, shiftKey} = event;
					event.preventDefault();
					if (pointerCount !== 0) {
						return;
					}
					if (!ctrlKey) {
						const vectorX = (shiftKey ? event.deltaY : event.deltaX) / svg.clientWidth * animWidth;
						const vectorY = (shiftKey ? 0 : event.deltaY) / svg.clientHeight * animHeight;
						animX = Math.max(Math.min(animX + vectorX, baseX + baseWidth - animWidth), baseX);
						animY = Math.max(Math.min(animY + vectorY, baseY + baseHeight - animHeight), baseY);
						svg.viewBox.baseVal.x = animX;
						svg.viewBox.baseVal.y = animY;
						setMinDate(animX);
						setMaxDate(animX + animWidth);
						setMinValue(baseY * 2 + baseHeight - animHeight - animY);
						setMaxValue(baseY * 2 + baseHeight - animY);
						return;
					}
					const ratioX = zoomIntensity ** Math.sign(shiftKey ? event.deltaY : event.deltaX);
					const ratioY = zoomIntensity ** Math.sign(shiftKey ? 0 : event.deltaY);
					const positionX = Math.max(0, Math.min(event.offsetX / svg.clientWidth, 1)) * animWidth;
					const positionY = Math.max(0, Math.min(event.offsetY / svg.clientHeight, 1)) * animHeight;
					animWidth = Math.min(animWidth * ratioX, baseWidth);
					animHeight = Math.min(animHeight * ratioY, baseHeight);
					animX = Math.max(Math.min(animX + positionX * (1 - ratioX), baseX + baseWidth - animWidth), baseX);
					animY = Math.max(Math.min(animY + positionY * (1 - ratioY), baseY + baseHeight - animHeight), baseY);
					svg.viewBox.baseVal.x = animX;
					svg.viewBox.baseVal.y = animY;
					svg.viewBox.baseVal.width = animWidth;
					svg.viewBox.baseVal.height = animHeight;
					setMinDate(animX);
					setMaxDate(animX + animWidth);
					setMinValue(baseY * 2 + baseHeight - animHeight - animY);
					setMaxValue(baseY * 2 + baseHeight - animY);
				}, {
					passive: false,
				});
				svg.addEventListener("keydown", (event) =&gt; {
					let {x: animX, y: animY, width: animWidth, height: animHeight} = svg.viewBox.baseVal;
					const {ctrlKey, shiftKey} = event;
					switch (event.code) {
						case "Space": {
							event.preventDefault();
							if (pointerCount !== 0) {
								return;
							}
							const vectorY = shiftKey ? -animHeight : animHeight;
							animY = Math.max(Math.min(animY + vectorY, baseY + baseHeight - animHeight), baseY);
							svg.viewBox.baseVal.y = animY;
							setMinValue(baseY * 2 + baseHeight - animHeight - animY);
							setMaxValue(baseY * 2 + baseHeight - animY);
							return;
						}
						case "Equal":
						case "NumpadAdd":
						case "Minus":
						case "NumpadSubtract": {
							event.preventDefault();
							if (pointerCount !== 0) {
								return;
							}
							const ratio = event.code === "Minus" || event.code === "NumpadSubtract" ? zoomIntensity : 1 / zoomIntensity;
							if (!shiftKey) {
								animHeight = Math.min(animHeight * ratio, baseHeight);
								animY = Math.max(Math.min(animY, baseY + baseHeight - animHeight), baseY);
								svg.viewBox.baseVal.y = animY;
								svg.viewBox.baseVal.height = animHeight;
								setMinValue(baseY * 2 + baseHeight - animHeight - animY);
								setMaxValue(baseY * 2 + baseHeight - animY);
								return;
							}
							animWidth = Math.min(animWidth * ratio, baseWidth);
							animX = Math.max(Math.min(animX, baseX + baseWidth - animWidth), baseX);
							svg.viewBox.baseVal.x = animX;
							svg.viewBox.baseVal.width = animWidth;
							setMinDate(animX);
							setMaxDate(animX + animWidth);
							return;
						}
						case "Digit0":
						case "Numpad0": {
							event.preventDefault();
							if (pointerCount !== 0) {
								return;
							}
							if (!shiftKey) {
								animY = baseY;
								animHeight = baseHeight;
								svg.viewBox.baseVal.y = animY;
								svg.viewBox.baseVal.height = animHeight;
								setMinValue(baseY * 2 + baseHeight - animHeight - animY);
								setMaxValue(baseY * 2 + baseHeight - animY);
								return;
							}
							animX = baseX;
							animWidth = baseWidth;
							svg.viewBox.baseVal.x = animX;
							svg.viewBox.baseVal.width = animWidth;
							setMinDate(animX);
							setMaxDate(animX + animWidth);
							return;
						}
					}
					switch (event.key) {
						case "ArrowRight": {
							event.preventDefault();
							if (pointerCount !== 0) {
								return;
							}
							const vectorX = 50 / svg.clientWidth * animWidth;
							animX = Math.max(Math.min(animX + vectorX, baseX + baseWidth - animWidth), baseX);
							svg.viewBox.baseVal.x = animX;
							setMinDate(animX);
							setMaxDate(animX + animWidth);
							return;
						}
						case "ArrowLeft": {
							event.preventDefault();
							if (pointerCount !== 0) {
								return;
							}
							const vectorX = -50 / svg.clientWidth * animWidth;
							animX = Math.max(Math.min(animX + vectorX, baseX + baseWidth - animWidth), baseX);
							svg.viewBox.baseVal.x = animX;
							setMinDate(animX);
							setMaxDate(animX + animWidth);
							return;
						}
						case "ArrowDown": {
							if (!ctrlKey) {
								event.preventDefault();
								if (pointerCount !== 0) {
									return;
								}
								const vectorY = 50 / svg.clientHeight * animHeight;
								animY = Math.max(Math.min(animY + vectorY, baseY + baseHeight - animHeight), baseY);
								svg.viewBox.baseVal.y = animY;
								setMinValue(baseY * 2 + baseHeight - animHeight - animY);
								setMaxValue(baseY * 2 + baseHeight - animY);
								return;
							}
						}
						case "End": {
							event.preventDefault();
							if (pointerCount !== 0) {
								return;
							}
							animY = baseY + baseHeight - animHeight;
							svg.viewBox.baseVal.y = animY;
							setMinValue(baseY * 2 + baseHeight - animHeight - animY);
							setMaxValue(baseY * 2 + baseHeight - animY);
							return;
						}
						case "ArrowUp": {
							if (!ctrlKey) {
								event.preventDefault();
								if (pointerCount !== 0) {
									return;
								}
								const vectorY = -50 / svg.clientHeight * animHeight;
								animY = Math.max(Math.min(animY + vectorY, baseY + baseHeight - animHeight), baseY);
								svg.viewBox.baseVal.y = animY;
								setMinValue(baseY * 2 + baseHeight - animHeight - animY);
								setMaxValue(baseY * 2 + baseHeight - animY);
								return;
							}
						}
						case "Home": {
							event.preventDefault();
							if (pointerCount !== 0) {
								return;
							}
							animY = baseY;
							svg.viewBox.baseVal.y = animY;
							setMinValue(baseY * 2 + baseHeight - animHeight - animY);
							setMaxValue(baseY * 2 + baseHeight - animY);
							return;
						}
						case "PageDown":
						case "PageUp":
						case " ": {
							event.preventDefault();
							if (pointerCount !== 0) {
								return;
							}
							const vectorY = event.key === "PageUp" || event.key === " " &amp;&amp; shiftKey ? -animHeight : animHeight;
							animY = Math.max(Math.min(animY + vectorY, baseY + baseHeight - animHeight), baseY);
							svg.viewBox.baseVal.y = animY;
							setMinValue(baseY * 2 + baseHeight - animHeight - animY);
							setMaxValue(baseY * 2 + baseHeight - animY);
							return;
						}
						case "+":
						case "-": {
							event.preventDefault();
							if (pointerCount !== 0) {
								return;
							}
							const ratio = event.key === "-" ? 1 / zoomIntensity : zoomIntensity;
							animWidth = Math.min(animWidth * ratio, baseWidth);
							animHeight = Math.min(animHeight * ratio, baseHeight);
							animX = Math.max(Math.min(animX, baseX + baseWidth - animWidth), baseX);
							animY = Math.max(Math.min(animY, baseY + baseHeight - animHeight), baseY);
							svg.viewBox.baseVal.x = animX;
							svg.viewBox.baseVal.y = animY;
							svg.viewBox.baseVal.width = animWidth;
							svg.viewBox.baseVal.height = animHeight;
							setMinDate(animX);
							setMaxDate(animX + animWidth);
							setMinValue(baseY * 2 + baseHeight - animHeight - animY);
							setMaxValue(baseY * 2 + baseHeight - animY);
							return;
						}
						case "0": {
							event.preventDefault();
							if (pointerCount !== 0) {
								return;
							}
							animX = baseX;
							animY = baseY;
							animWidth = baseWidth;
							animHeight = baseHeight;
							svg.viewBox.baseVal.x = animX;
							svg.viewBox.baseVal.y = animY;
							svg.viewBox.baseVal.width = animWidth;
							svg.viewBox.baseVal.height = animHeight;
							setMinDate(animX);
							setMaxDate(animX + animWidth);
							setMinValue(baseY * 2 + baseHeight - animHeight - animY);
							setMaxValue(baseY * 2 + baseHeight - animY);
							return;
						}
					}
				});
				svg.addEventListener("focusin", (event) =&gt; {
					if (!event.target.matches(":focus-visible")) {
						return;
					}
					event.preventDefault();
					if (pointerCount !== 0) {
						return;
					}
					let {x: animX, y: animY, width: animWidth, height: animHeight} = svg.viewBox.baseVal;
					let {x, y, width, height} = event.target.getBBox();
					width = Math.round(width);
					height = Math.round(height);
					x = Math.round(x);
					y = baseY * 2 + baseHeight - height - Math.round(y);
					if (x + width &lt; animX) {
						animX = x;
						if (width &gt; animWidth) {
							animX += (width - animWidth) / 2;
						}
					} else if (x &gt; animX + animWidth) {
						animX = x + width - animWidth;
						if (width &gt; animWidth) {
							animX -= (width - animWidth) / 2;
						}
					}
					if (y + height &lt; animY) {
						animY = y;
						if (height &gt; animHeight) {
							animY += (height - animHeight) / 2;
						}
					} else if (y &gt; animY + animHeight) {
						animY = y + height - animHeight;
						if (height &gt; animHeight) {
							animY -= (height - animHeight) / 2;
						}
					}
					svg.viewBox.baseVal.x = animX;
					svg.viewBox.baseVal.y = animY;
					setMinDate(animX);
					setMaxDate(animX + animWidth);
					setMinValue(baseY * 2 + baseHeight - animHeight - animY);
					setMaxValue(baseY * 2 + baseHeight - animY);
				});
			}, {
				once: true,
			});
		}
	</script>
	<foreignObject x="0" y="0" width="100%" height="100%" style="--date-size: 100; --value-size: 30;">
		<svg viewBox="0 0 100 20">
			<text x="50" y="10" dx="0" dy="2" textLength="100" lengthAdjust="spacingAndGlyphs" text-anchor="middle" dominant-baseline="middle">2022-07-05</text>
		</svg>
		<svg viewBox="0 0 100 20">
			<text x="50" y="10" dx="0" dy="2" textLength="100" lengthAdjust="spacingAndGlyphs" text-anchor="middle" dominant-baseline="middle">2026-03-31</text>
		</svg>
		<svg viewBox="0 0 30 20">
			<text x="15" y="10" dx="0" dy="2" textLength="10" lengthAdjust="spacingAndGlyphs" text-anchor="middle" dominant-baseline="middle">0</text>
		</svg>
		<svg viewBox="0 0 30 20">
			<text x="15" y="10" dx="0" dy="2" textLength="30" lengthAdjust="spacingAndGlyphs" text-anchor="middle" dominant-baseline="middle">320</text>
		</svg>
		<svg viewBox="0 0 1365 320" preserveAspectRatio="none" overflow="visible">
			<g transform="translate(0 320) scale(1 -1)" style="--count: 4;">
				<g>
					<rect x="0" y="0" width="1365" height="320"/>
				</g>
				<g style="--index: 0;">
					<path d="M0,13L0,13L0,7L4,7L4,8L67,8L67,9L129,9L129,10L168,10L168,11L245,11L245,12L257,12L257,13L271,13L271,14L325,14L325,15L354,15L354,16L367,16L367,17L515,17L515,18L561,18L561,19L589,19L589,20L599,20L599,21L732,21L732,22L764,22L764,23L768,23L768,24L817,24L817,25L867,25L867,26L963,26L963,27L971,27L971,28L972,28L972,29L978,29L978,30L979,30L979,31L997,31L997,32L999,32L999,33L1033,33L1033,34L1046,34L1046,35L1051,35L1051,36L1055,36L1055,37L1065,37L1065,38L1066,38L1066,39L1082,39L1082,40L1093,40L1093,41L1094,41L1094,42L1116,42L1116,43L1118,43L1118,44L1122,44L1122,46L1133,46L1133,47L1139,47L1139,48L1145,48L1145,49L1173,49L1173,50L1181,50L1181,51L1185,51L1185,52L1209,52L1209,53L1216,53L1216,54L1245,54L1245,55L1251,55L1251,56L1253,56L1253,57L1261,57L1261,58L1267,58L1267,59L1272,59L1272,60L1273,60L1273,61L1284,61L1284,62L1286,62L1286,64L1287,64L1287,65L1291,65L1291,66L1301,66L1301,69L1305,69L1305,70L1306,70L1306,71L1307,71L1307,72L1313,72L1313,73L1314,73L1314,74L1316,74L1316,75L1318,75L1318,76L1333,76L1333,77L1342,77L1342,78L1343,78L1343,79L1348,79L1348,80L1352,80L1352,81L1355,81L1355,82L1361,82L1361,83L1365,83" tabindex="0">
						<title>l_r9gn1qpd-9d8eewld-0nwoqwkl.klrpy2jq</title>
					</path>
				</g>
				<g style="--index: 1;">
					<path d="M0,54L1,54L1,30L4,30L4,31L35,31L35,32L45,32L45,33L46,33L46,34L50,34L50,36L109,36L109,37L113,37L113,38L125,38L125,39L129,39L129,40L151,40L151,41L159,41L159,42L185,42L185,43L189,43L189,44L206,44L206,45L250,45L250,46L255,46L255,47L263,47L263,48L271,48L271,49L275,49L275,50L293,50L293,51L296,51L296,52L313,52L313,54L319,54L319,56L324,56L324,57L348,57L348,58L374,58L374,59L376,59L376,60L378,60L378,61L402,61L402,62L412,62L412,64L420,64L420,65L449,65L449,66L467,66L467,67L469,67L469,68L486,68L486,69L579,69L579,70L580,70L580,71L649,71L649,72L663,72L663,73L666,73L666,74L683,74L683,75L684,75L684,77L701,77L701,78L714,78L714,79L721,79L721,80L722,80L722,81L723,81L723,82L724,82L724,83L727,83L727,84L731,84L731,85L734,85L734,86L735,86L735,87L738,87L738,88L746,88L746,89L750,89L750,90L752,90L752,91L756,91L756,92L762,92L762,93L764,93L764,94L767,94L767,95L772,95L772,96L775,96L775,97L786,97L786,98L788,98L788,99L795,99L795,100L796,100L796,102L830,102L830,103L838,103L838,104L844,104L844,106L860,106L860,107L861,107L861,108L865,108L865,109L866,109L866,110L869,110L869,111L873,111L873,112L876,112L876,113L886,113L886,114L887,114L887,115L895,115L895,116L897,116L897,117L901,117L901,118L905,118L905,119L911,119L911,120L915,120L915,121L917,121L917,123L920,123L920,125L926,125L926,127L934,127L934,128L941,128L941,130L957,130L957,131L959,131L959,132L962,132L962,133L972,133L972,134L977,134L977,135L981,135L981,136L983,136L983,137L987,137L987,138L990,138L990,139L994,139L994,140L1004,140L1004,141L1007,141L1007,142L1009,142L1009,143L1020,143L1020,144L1026,144L1026,145L1034,145L1034,146L1040,146L1040,147L1041,147L1041,148L1046,148L1046,150L1048,150L1048,151L1053,151L1053,152L1064,152L1064,154L1069,154L1069,155L1076,155L1076,156L1084,156L1084,158L1086,158L1086,159L1091,159L1091,163L1093,163L1093,164L1099,164L1099,165L1101,165L1101,166L1108,166L1108,167L1111,167L1111,168L1114,168L1114,169L1120,169L1120,170L1125,170L1125,172L1132,172L1132,174L1136,174L1136,175L1137,175L1137,176L1139,176L1139,177L1147,177L1147,178L1148,178L1148,179L1150,179L1150,180L1154,180L1154,182L1156,182L1156,183L1160,183L1160,184L1161,184L1161,185L1165,185L1165,186L1167,186L1167,187L1169,187L1169,188L1170,188L1170,189L1171,189L1171,191L1181,191L1181,192L1183,192L1183,193L1184,193L1184,194L1186,194L1186,195L1193,195L1193,196L1194,196L1194,197L1195,197L1195,200L1200,200L1200,201L1201,201L1201,203L1205,203L1205,204L1209,204L1209,205L1213,205L1213,206L1214,206L1214,207L1216,207L1216,208L1218,208L1218,209L1219,209L1219,210L1220,210L1220,213L1221,213L1221,215L1225,215L1225,218L1226,218L1226,220L1227,220L1227,222L1229,222L1229,223L1233,223L1233,224L1234,224L1234,225L1238,225L1238,226L1239,226L1239,227L1240,227L1240,228L1241,228L1241,231L1243,231L1243,232L1245,232L1245,234L1250,234L1250,235L1251,235L1251,236L1252,236L1252,238L1258,238L1258,239L1261,239L1261,241L1262,241L1262,242L1264,242L1264,243L1267,243L1267,244L1268,244L1268,245L1271,245L1271,246L1272,246L1272,248L1280,248L1280,250L1281,250L1281,252L1284,252L1284,254L1287,254L1287,256L1290,256L1290,258L1292,258L1292,259L1293,259L1293,261L1296,261L1296,262L1298,262L1298,263L1299,263L1299,264L1301,264L1301,265L1302,265L1302,266L1307,266L1307,269L1308,269L1308,270L1313,270L1313,272L1314,272L1314,274L1315,274L1315,276L1316,276L1316,278L1317,278L1317,280L1320,280L1320,281L1321,281L1321,283L1325,283L1325,284L1327,284L1327,286L1328,286L1328,287L1330,287L1330,288L1333,288L1333,289L1335,289L1335,290L1336,290L1336,291L1337,291L1337,292L1339,292L1339,293L1341,293L1341,295L1343,295L1343,296L1347,296L1347,298L1348,298L1348,299L1349,299L1349,300L1350,300L1350,303L1351,303L1351,306L1354,306L1354,307L1356,307L1356,310L1360,310L1360,312L1361,312L1361,313L1362,313L1362,314L1363,314L1363,318L1364,318L1364,320L1365,320" tabindex="0">
						<title>l_r9gn1qpd-9d8eewld-0nwoqwkl.jqzpx3gl</title>
					</path>
				</g>
				<g style="--index: 2;">
					<path d="M0,18L5,18L5,11L62,11L62,12L135,12L135,13L141,13L141,14L248,14L248,15L375,15L375,16L569,16L569,17L704,17L704,18L772,18L772,19L776,19L776,20L799,20L799,21L817,21L817,22L933,22L933,23L984,23L984,24L988,24L988,25L1021,25L1021,26L1023,26L1023,27L1078,27L1078,28L1082,28L1082,29L1090,29L1090,30L1118,30L1118,31L1119,31L1119,33L1138,33L1138,34L1153,34L1153,35L1167,35L1167,36L1180,36L1180,37L1194,37L1194,38L1200,38L1200,39L1237,39L1237,40L1252,40L1252,41L1272,41L1272,42L1291,42L1291,43L1302,43L1302,44L1306,44L1306,45L1308,45L1308,46L1311,46L1311,47L1314,47L1314,48L1316,48L1316,49L1322,49L1322,50L1326,50L1326,51L1339,51L1339,52L1340,52L1340,53L1355,53L1355,54L1365,54L1365,55L1365,55" tabindex="0">
						<title>l_o9xo3rp9-9d8eewld-7896y468.rqvpey7q</title>
					</path>
				</g>
				<g style="--index: 3;">
					<path d="M0,47L5,47L5,15L52,15L52,16L190,16L190,17L255,17L255,18L559,18L559,19L581,19L581,20L684,20L684,21L701,21L701,22L712,22L712,23L714,23L714,24L733,24L733,25L817,25L817,26L860,26L860,27L963,27L963,28L964,28L964,29L969,29L969,30L975,30L975,32L985,32L985,33L1009,33L1009,34L1019,34L1019,36L1020,36L1020,37L1033,37L1033,38L1094,38L1094,39L1111,39L1111,40L1114,40L1114,42L1133,42L1133,43L1136,43L1136,44L1148,44L1148,45L1161,45L1161,46L1162,46L1162,47L1172,47L1172,48L1174,48L1174,49L1185,49L1185,50L1209,50L1209,51L1214,51L1214,52L1225,52L1225,53L1230,53L1230,54L1241,54L1241,55L1243,55L1243,56L1250,56L1250,57L1251,57L1251,58L1256,58L1256,59L1263,59L1263,60L1270,60L1270,61L1272,61L1272,62L1273,62L1273,63L1275,63L1275,64L1276,64L1276,65L1278,65L1278,66L1280,66L1280,67L1281,67L1281,69L1284,69L1284,70L1286,70L1286,71L1297,71L1297,72L1301,72L1301,73L1302,73L1302,74L1306,74L1306,75L1307,75L1307,76L1312,76L1312,77L1313,77L1313,78L1316,78L1316,79L1319,79L1319,80L1328,80L1328,81L1334,81L1334,82L1335,82L1335,83L1339,83L1339,84L1343,84L1343,85L1347,85L1347,86L1350,86L1350,88L1357,88L1357,89L1364,89L1364,90L1365,90" tabindex="0">
						<title>l_r9gn1qpd-9d8eewld-0nwoqwkl.xqkjmxnl</title>
					</path>
				</g>
			</g>
		</svg>
	</foreignObject>
</svg>
