<svg xmlns="http://www.w3.org/2000/svg" viewBox="0 0 1258 260163" preserveAspectRatio="none" lang="en" style="color-scheme: dark light;">
		<title>Time by leaderboard for player xkon93k8</title>
		<style>
			svg {
				background: var(--canvas-background);
				fill: var(--canvas-background);
				stroke: var(--canvas-foreground);
				stroke-linejoin: round;
				stroke-linecap: round;
			}
			g &gt; path[tabindex] {
				vector-effect: non-scaling-stroke;
				fill: none;
				stroke: hsl(calc(var(--index) / var(--count) * 360), 50%, 50%);
				cursor: help;
			}
			g:is(:hover, :focus-within) &gt; path[tabindex] {
				stroke: var(--canvas-foreground);
			}
			g &gt; path[tabindex]:is(:hover, :focus-within) {
				outline: 0;
			}
			g &gt; path[tabindex]:first-of-type {
				stroke-width: 2;
			}
			g &gt; path[tabindex]:first-of-type:is(:hover, :focus-within) {
				stroke-width: 4;
			}
			g &gt; path[tabindex]:first-of-type:not(:last-of-type) {
				stroke-dasharray: 4 8;
			}
			g &gt; rect {
				vector-effect: non-scaling-stroke;
				fill: none;
				stroke: none;
				pointer-events: none;
			}
			g &gt; path[tabindex]:first-of-type:is(:hover, :focus-within) + rect {
				fill: var(--highlighted);
			}
			g &gt; path[tabindex]:first-of-type ~ path[tabindex] {
				stroke-width: 8;
			}
			g &gt; path[tabindex]:first-of-type ~ path[tabindex]:is(:hover, :focus-within) {
				stroke-width: 16;
			}
			g &gt; line {
				vector-effect: non-scaling-stroke;
				fill: none;
				stroke: none;
				stroke-width: 2;
				stroke-dasharray: 4 8;
				pointer-events: none;
			}
			g &gt; path[tabindex]:first-of-type:is(:hover, :focus-within) + rect + path[tabindex] + line,
			g &gt; path[tabindex]:first-of-type:is(:hover, :focus-within) + rect + path[tabindex] + line + line,
			g &gt; path[tabindex]:first-of-type:is(:hover, :focus-within) ~ path[tabindex]:last-of-type + line,
			g &gt; path[tabindex]:first-of-type:is(:hover, :focus-within) ~ path[tabindex]:last-of-type + line + line,
			g &gt; path[tabindex]:first-of-type ~ path[tabindex]:is(:hover, :focus-within) + line,
			g &gt; path[tabindex]:first-of-type ~ path[tabindex]:is(:hover, :focus-within) + line + line {
				stroke: var(--faded);
			}
			@media (prefers-color-scheme: dark) {
				:root {
					--canvas-background: #000;
					--canvas-foreground: #ccc;
					--highlighted: #6663;
					--faded: #9993;
				}
			}
			@media (prefers-color-scheme: light) {
				:root {
					--canvas-background: #fff;
					--canvas-foreground: #333;
					--highlighted: #9993;
					--faded: #6663;
				}
			}
		</style>
		<g style="--count: 67;">
		<g style="--index: 0;">
			<path d="M0,258630L192,258630L192,258788L200,258788L200,258821L212,258821L212,258841L215,258841L215,258851" tabindex="0">
				<title>l_r9gn1qpd-9d8eewld-0nwoqwkl.xqkjmxnl</title>
			</path>
			<rect x="0" y="258630" width="215" height="221"/>
			<path d="M0,258630L0,258630" tabindex="0">
				<title>00:15.33 on 2020-07-15</title>
			</path>
			<line x1="0" y1="258630" x2="1258" y2="258630"/>
			<line x1="0" y1="260163" x2="0" y2="0"/>
			<path d="M192,258788L192,258788" tabindex="0">
				<title>00:13.75 on 2021-01-23</title>
			</path>
			<line x1="0" y1="258788" x2="1258" y2="258788"/>
			<line x1="192" y1="260163" x2="192" y2="0"/>
			<path d="M200,258821L200,258821" tabindex="0">
				<title>00:13.42 on 2021-01-31</title>
			</path>
			<line x1="0" y1="258821" x2="1258" y2="258821"/>
			<line x1="200" y1="260163" x2="200" y2="0"/>
			<path d="M212,258841L212,258841" tabindex="0">
				<title>00:13.22 on 2021-02-12</title>
			</path>
			<line x1="0" y1="258841" x2="1258" y2="258841"/>
			<line x1="212" y1="260163" x2="212" y2="0"/>
			<path d="M215,258851L215,258851" tabindex="0">
				<title>00:13.12 on 2021-02-15</title>
			</path>
			<line x1="0" y1="258851" x2="1258" y2="258851"/>
			<line x1="215" y1="260163" x2="215" y2="0"/>
		</g>
		<g style="--index: 1;">
			<path d="M6,257368L12,257368L12,257756L52,257756L52,257903L68,257903L68,257917L127,257917L127,257976L128,257976L128,258081L690,258081L690,258131L717,258131L717,258200L721,258200L721,258210L1034,258210L1034,258241" tabindex="0">
				<title>l_rdqo542w-9d8eewld-wl30kw9l.jqzpyr4l</title>
			</path>
			<rect x="6" y="257368" width="1028" height="873"/>
			<path d="M6,257368L6,257368" tabindex="0">
				<title>00:27.95 on 2020-07-21</title>
			</path>
			<line x1="0" y1="257368" x2="1258" y2="257368"/>
			<line x1="6" y1="260163" x2="6" y2="0"/>
			<path d="M12,257756L12,257756" tabindex="0">
				<title>00:24.07 on 2020-07-27</title>
			</path>
			<line x1="0" y1="257756" x2="1258" y2="257756"/>
			<line x1="12" y1="260163" x2="12" y2="0"/>
			<path d="M52,257903L52,257903" tabindex="0">
				<title>00:22.60 on 2020-09-05</title>
			</path>
			<line x1="0" y1="257903" x2="1258" y2="257903"/>
			<line x1="52" y1="260163" x2="52" y2="0"/>
			<path d="M68,257917L68,257917" tabindex="0">
				<title>00:22.46 on 2020-09-21</title>
			</path>
			<line x1="0" y1="257917" x2="1258" y2="257917"/>
			<line x1="68" y1="260163" x2="68" y2="0"/>
			<path d="M127,257976L127,257976" tabindex="0">
				<title>00:21.87 on 2020-11-19</title>
			</path>
			<line x1="0" y1="257976" x2="1258" y2="257976"/>
			<line x1="127" y1="260163" x2="127" y2="0"/>
			<path d="M128,258081L128,258081" tabindex="0">
				<title>00:20.82 on 2020-11-20</title>
			</path>
			<line x1="0" y1="258081" x2="1258" y2="258081"/>
			<line x1="128" y1="260163" x2="128" y2="0"/>
			<path d="M690,258131L690,258131" tabindex="0">
				<title>00:20.32 on 2022-06-05</title>
			</path>
			<line x1="0" y1="258131" x2="1258" y2="258131"/>
			<line x1="690" y1="260163" x2="690" y2="0"/>
			<path d="M717,258200L717,258200" tabindex="0">
				<title>00:19.63 on 2022-07-02</title>
			</path>
			<line x1="0" y1="258200" x2="1258" y2="258200"/>
			<line x1="717" y1="260163" x2="717" y2="0"/>
			<path d="M721,258210L721,258210" tabindex="0">
				<title>00:19.53 on 2022-07-06</title>
			</path>
			<line x1="0" y1="258210" x2="1258" y2="258210"/>
			<line x1="721" y1="260163" x2="721" y2="0"/>
			<path d="M1034,258241L1034,258241" tabindex="0">
				<title>00:19.22 on 2023-05-15</title>
			</path>
			<line x1="0" y1="258241" x2="1258" y2="258241"/>
			<line x1="1034" y1="260163" x2="1034" y2="0"/>
		</g>
		<g style="--index: 2;">
			<path d="M90,232346L178,232346L178,242533L179,242533L179,243387" tabindex="0">
				<title>l_495zlx39-xd144xzd-38dz6v1n.814y45w1</title>
			</path>
			<rect x="90" y="232346" width="89" height="11041"/>
			<path d="M90,232346L90,232346" tabindex="0">
				<title>04:38.17 on 2020-10-13</title>
			</path>
			<line x1="0" y1="232346" x2="1258" y2="232346"/>
			<line x1="90" y1="260163" x2="90" y2="0"/>
			<path d="M178,242533L178,242533" tabindex="0">
				<title>02:56.30 on 2021-01-09</title>
			</path>
			<line x1="0" y1="242533" x2="1258" y2="242533"/>
			<line x1="178" y1="260163" x2="178" y2="0"/>
			<path d="M179,243387L179,243387" tabindex="0">
				<title>02:47.76 on 2021-01-10</title>
			</path>
			<line x1="0" y1="243387" x2="1258" y2="243387"/>
			<line x1="179" y1="260163" x2="179" y2="0"/>
		</g>
		<g style="--index: 3;">
			<path d="M91,207401L167,207401L167,218948L212,218948L212,228478" tabindex="0">
				<title>l_o9xo3rp9-xd144xzd-38dz6v1n.z19md2jl</title>
			</path>
			<rect x="91" y="207401" width="121" height="21077"/>
			<path d="M91,207401L91,207401" tabindex="0">
				<title>08:47.62 on 2020-10-14</title>
			</path>
			<line x1="0" y1="207401" x2="1258" y2="207401"/>
			<line x1="91" y1="260163" x2="91" y2="0"/>
			<path d="M167,218948L167,218948" tabindex="0">
				<title>06:52.15 on 2020-12-29</title>
			</path>
			<line x1="0" y1="218948" x2="1258" y2="218948"/>
			<line x1="167" y1="260163" x2="167" y2="0"/>
			<path d="M212,228478L212,228478" tabindex="0">
				<title>05:16.85 on 2021-02-12</title>
			</path>
			<line x1="0" y1="228478" x2="1258" y2="228478"/>
			<line x1="212" y1="260163" x2="212" y2="0"/>
		</g>
		<g style="--index: 4;">
			<path d="M104,257056L137,257056L137,257261L144,257261L144,257278L152,257278L152,257288L164,257288L164,257359L368,257359L368,257551" tabindex="0">
				<title>l_495zlx39-9d8eewld-2lgr793n.21g8ownl</title>
			</path>
			<rect x="104" y="257056" width="264" height="495"/>
			<path d="M104,257056L104,257056" tabindex="0">
				<title>00:31.07 on 2020-10-27</title>
			</path>
			<line x1="0" y1="257056" x2="1258" y2="257056"/>
			<line x1="104" y1="260163" x2="104" y2="0"/>
			<path d="M137,257261L137,257261" tabindex="0">
				<title>00:29.02 on 2020-11-29</title>
			</path>
			<line x1="0" y1="257261" x2="1258" y2="257261"/>
			<line x1="137" y1="260163" x2="137" y2="0"/>
			<path d="M144,257278L144,257278" tabindex="0">
				<title>00:28.85 on 2020-12-06</title>
			</path>
			<line x1="0" y1="257278" x2="1258" y2="257278"/>
			<line x1="144" y1="260163" x2="144" y2="0"/>
			<path d="M152,257288L152,257288" tabindex="0">
				<title>00:28.75 on 2020-12-14</title>
			</path>
			<line x1="0" y1="257288" x2="1258" y2="257288"/>
			<line x1="152" y1="260163" x2="152" y2="0"/>
			<path d="M164,257359L164,257359" tabindex="0">
				<title>00:28.04 on 2020-12-26</title>
			</path>
			<line x1="0" y1="257359" x2="1258" y2="257359"/>
			<line x1="164" y1="260163" x2="164" y2="0"/>
			<path d="M368,257551L368,257551" tabindex="0">
				<title>00:26.12 on 2021-07-18</title>
			</path>
			<line x1="0" y1="257551" x2="1258" y2="257551"/>
			<line x1="368" y1="260163" x2="368" y2="0"/>
		</g>
		<g style="--index: 5;">
			<path d="M104,257396L123,257396L123,257681L130,257681L130,257761L141,257761L141,257825L158,257825L158,257970" tabindex="0">
				<title>l_rdqo542w-9d8eewld-wl30kw9l.gq7jzvnq</title>
			</path>
			<rect x="104" y="257396" width="54" height="574"/>
			<path d="M104,257396L104,257396" tabindex="0">
				<title>00:27.67 on 2020-10-27</title>
			</path>
			<line x1="0" y1="257396" x2="1258" y2="257396"/>
			<line x1="104" y1="260163" x2="104" y2="0"/>
			<path d="M123,257681L123,257681" tabindex="0">
				<title>00:24.82 on 2020-11-15</title>
			</path>
			<line x1="0" y1="257681" x2="1258" y2="257681"/>
			<line x1="123" y1="260163" x2="123" y2="0"/>
			<path d="M130,257761L130,257761" tabindex="0">
				<title>00:24.02 on 2020-11-22</title>
			</path>
			<line x1="0" y1="257761" x2="1258" y2="257761"/>
			<line x1="130" y1="260163" x2="130" y2="0"/>
			<path d="M141,257825L141,257825" tabindex="0">
				<title>00:23.38 on 2020-12-03</title>
			</path>
			<line x1="0" y1="257825" x2="1258" y2="257825"/>
			<line x1="141" y1="260163" x2="141" y2="0"/>
			<path d="M158,257970L158,257970" tabindex="0">
				<title>00:21.93 on 2020-12-20</title>
			</path>
			<line x1="0" y1="257970" x2="1258" y2="257970"/>
			<line x1="158" y1="260163" x2="158" y2="0"/>
		</g>
		<g style="--index: 6;">
			<path d="M106,148402L109,148402L109,151385L133,151385L133,158894L222,158894L222,165578L224,165578L224,167321L261,167321L261,167535L264,167535L264,169893" tabindex="0">
				<title>xd17x94d-9l71pv4l.zqo20y2l</title>
			</path>
			<rect x="106" y="148402" width="158" height="21491"/>
			<path d="M106,148402L106,148402" tabindex="0">
				<title>18:37.61 on 2020-10-29</title>
			</path>
			<line x1="0" y1="148402" x2="1258" y2="148402"/>
			<line x1="106" y1="260163" x2="106" y2="0"/>
			<path d="M109,151385L109,151385" tabindex="0">
				<title>18:07.78 on 2020-11-01</title>
			</path>
			<line x1="0" y1="151385" x2="1258" y2="151385"/>
			<line x1="109" y1="260163" x2="109" y2="0"/>
			<path d="M133,158894L133,158894" tabindex="0">
				<title>16:52.69 on 2020-11-25</title>
			</path>
			<line x1="0" y1="158894" x2="1258" y2="158894"/>
			<line x1="133" y1="260163" x2="133" y2="0"/>
			<path d="M222,165578L222,165578" tabindex="0">
				<title>15:45.85 on 2021-02-22</title>
			</path>
			<line x1="0" y1="165578" x2="1258" y2="165578"/>
			<line x1="222" y1="260163" x2="222" y2="0"/>
			<path d="M224,167321L224,167321" tabindex="0">
				<title>15:28.42 on 2021-02-24</title>
			</path>
			<line x1="0" y1="167321" x2="1258" y2="167321"/>
			<line x1="224" y1="260163" x2="224" y2="0"/>
			<path d="M261,167535L261,167535" tabindex="0">
				<title>15:26.28 on 2021-04-02</title>
			</path>
			<line x1="0" y1="167535" x2="1258" y2="167535"/>
			<line x1="261" y1="260163" x2="261" y2="0"/>
			<path d="M264,169893L264,169893" tabindex="0">
				<title>15:02.70 on 2021-04-05</title>
			</path>
			<line x1="0" y1="169893" x2="1258" y2="169893"/>
			<line x1="264" y1="260163" x2="264" y2="0"/>
		</g>
		<g style="--index: 7;">
			<path d="M108,259188L152,259188L152,259273L193,259273L193,259307" tabindex="0">
				<title>l_o9xo3rp9-9d8eewld-7896y468.jq60ze3q</title>
			</path>
			<rect x="108" y="259188" width="85" height="119"/>
			<path d="M108,259188L108,259188" tabindex="0">
				<title>00:09.75 on 2020-10-31</title>
			</path>
			<line x1="0" y1="259188" x2="1258" y2="259188"/>
			<line x1="108" y1="260163" x2="108" y2="0"/>
			<path d="M152,259273L152,259273" tabindex="0">
				<title>00:08.90 on 2020-12-14</title>
			</path>
			<line x1="0" y1="259273" x2="1258" y2="259273"/>
			<line x1="152" y1="260163" x2="152" y2="0"/>
			<path d="M193,259307L193,259307" tabindex="0">
				<title>00:08.56 on 2021-01-24</title>
			</path>
			<line x1="0" y1="259307" x2="1258" y2="259307"/>
			<line x1="193" y1="260163" x2="193" y2="0"/>
		</g>
		<g style="--index: 8;">
			<path d="M108,258211L154,258211L154,258395L155,258395L155,258499L159,258499L159,258510" tabindex="0">
				<title>l_o9xo3rp9-9d8eewld-7896y468.5lermx5q</title>
			</path>
			<rect x="108" y="258211" width="51" height="299"/>
			<path d="M108,258211L108,258211" tabindex="0">
				<title>00:19.52 on 2020-10-31</title>
			</path>
			<line x1="0" y1="258211" x2="1258" y2="258211"/>
			<line x1="108" y1="260163" x2="108" y2="0"/>
			<path d="M154,258395L154,258395" tabindex="0">
				<title>00:17.68 on 2020-12-16</title>
			</path>
			<line x1="0" y1="258395" x2="1258" y2="258395"/>
			<line x1="154" y1="260163" x2="154" y2="0"/>
			<path d="M155,258499L155,258499" tabindex="0">
				<title>00:16.64 on 2020-12-17</title>
			</path>
			<line x1="0" y1="258499" x2="1258" y2="258499"/>
			<line x1="155" y1="260163" x2="155" y2="0"/>
			<path d="M159,258510L159,258510" tabindex="0">
				<title>00:16.53 on 2020-12-21</title>
			</path>
			<line x1="0" y1="258510" x2="1258" y2="258510"/>
			<line x1="159" y1="260163" x2="159" y2="0"/>
		</g>
		<g style="--index: 9;">
			<path d="M109,243108L178,243108L178,245698L193,245698L193,246098" tabindex="0">
				<title>l_o9xo3rp9-9d8eewld-7896y468.5lmkgmjq</title>
			</path>
			<rect x="109" y="243108" width="84" height="2990"/>
			<path d="M109,243108L109,243108" tabindex="0">
				<title>02:50.55 on 2020-11-01</title>
			</path>
			<line x1="0" y1="243108" x2="1258" y2="243108"/>
			<line x1="109" y1="260163" x2="109" y2="0"/>
			<path d="M178,245698L178,245698" tabindex="0">
				<title>02:24.65 on 2021-01-09</title>
			</path>
			<line x1="0" y1="245698" x2="1258" y2="245698"/>
			<line x1="178" y1="260163" x2="178" y2="0"/>
			<path d="M193,246098L193,246098" tabindex="0">
				<title>02:20.65 on 2021-01-24</title>
			</path>
			<line x1="0" y1="246098" x2="1258" y2="246098"/>
			<line x1="193" y1="260163" x2="193" y2="0"/>
		</g>
		<g style="--index: 10;">
			<path d="M109,225656L152,225656L152,231975" tabindex="0">
				<title>l_rdqo542w-9d8eewld-wl30kw9l.21g8owxl</title>
			</path>
			<rect x="109" y="225656" width="43" height="6319"/>
			<path d="M109,225656L109,225656" tabindex="0">
				<title>05:45.07 on 2020-11-01</title>
			</path>
			<line x1="0" y1="225656" x2="1258" y2="225656"/>
			<line x1="109" y1="260163" x2="109" y2="0"/>
			<path d="M152,231975L152,231975" tabindex="0">
				<title>04:41.88 on 2020-12-14</title>
			</path>
			<line x1="0" y1="231975" x2="1258" y2="231975"/>
			<line x1="152" y1="260163" x2="152" y2="0"/>
		</g>
		<g style="--index: 11;">
			<path d="M109,227657L129,227657L129,230443L167,230443L167,232094L168,232094L168,234437" tabindex="0">
				<title>l_495zlx39-9d8eewld-2lgr793n.p12dx07q</title>
			</path>
			<rect x="109" y="227657" width="59" height="6780"/>
			<path d="M109,227657L109,227657" tabindex="0">
				<title>05:25.06 on 2020-11-01</title>
			</path>
			<line x1="0" y1="227657" x2="1258" y2="227657"/>
			<line x1="109" y1="260163" x2="109" y2="0"/>
			<path d="M129,230443L129,230443" tabindex="0">
				<title>04:57.20 on 2020-11-21</title>
			</path>
			<line x1="0" y1="230443" x2="1258" y2="230443"/>
			<line x1="129" y1="260163" x2="129" y2="0"/>
			<path d="M167,232094L167,232094" tabindex="0">
				<title>04:40.69 on 2020-12-29</title>
			</path>
			<line x1="0" y1="232094" x2="1258" y2="232094"/>
			<line x1="167" y1="260163" x2="167" y2="0"/>
			<path d="M168,234437L168,234437" tabindex="0">
				<title>04:17.26 on 2020-12-30</title>
			</path>
			<line x1="0" y1="234437" x2="1258" y2="234437"/>
			<line x1="168" y1="260163" x2="168" y2="0"/>
		</g>
		<g style="--index: 12;">
			<path d="M111,251243L135,251243L135,251609L179,251609L179,251694" tabindex="0">
				<title>l_r9gn1qpd-xd144xzd-38dz6v1n.814y45w1</title>
			</path>
			<rect x="111" y="251243" width="68" height="451"/>
			<path d="M111,251243L111,251243" tabindex="0">
				<title>01:29.20 on 2020-11-03</title>
			</path>
			<line x1="0" y1="251243" x2="1258" y2="251243"/>
			<line x1="111" y1="260163" x2="111" y2="0"/>
			<path d="M135,251609L135,251609" tabindex="0">
				<title>01:25.54 on 2020-11-27</title>
			</path>
			<line x1="0" y1="251609" x2="1258" y2="251609"/>
			<line x1="135" y1="260163" x2="135" y2="0"/>
			<path d="M179,251694L179,251694" tabindex="0">
				<title>01:24.69 on 2021-01-10</title>
			</path>
			<line x1="0" y1="251694" x2="1258" y2="251694"/>
			<line x1="179" y1="260163" x2="179" y2="0"/>
		</g>
		<g style="--index: 13;">
			<path d="M111,236426L179,236426L179,237385" tabindex="0">
				<title>l_rdqo542w-xd144xzd-38dz6v1n.814y45w1</title>
			</path>
			<rect x="111" y="236426" width="68" height="959"/>
			<path d="M111,236426L111,236426" tabindex="0">
				<title>03:57.37 on 2020-11-03</title>
			</path>
			<line x1="0" y1="236426" x2="1258" y2="236426"/>
			<line x1="111" y1="260163" x2="111" y2="0"/>
			<path d="M179,237385L179,237385" tabindex="0">
				<title>03:47.78 on 2021-01-10</title>
			</path>
			<line x1="0" y1="237385" x2="1258" y2="237385"/>
			<line x1="179" y1="260163" x2="179" y2="0"/>
		</g>
		<g style="--index: 14;">
			<path d="M111,244891L179,244891L179,245204L192,245204L192,245598" tabindex="0">
				<title>l_o9xo3rp9-xd144xzd-38dz6v1n.814y45w1</title>
			</path>
			<rect x="111" y="244891" width="81" height="707"/>
			<path d="M111,244891L111,244891" tabindex="0">
				<title>02:32.72 on 2020-11-03</title>
			</path>
			<line x1="0" y1="244891" x2="1258" y2="244891"/>
			<line x1="111" y1="260163" x2="111" y2="0"/>
			<path d="M179,245204L179,245204" tabindex="0">
				<title>02:29.59 on 2021-01-10</title>
			</path>
			<line x1="0" y1="245204" x2="1258" y2="245204"/>
			<line x1="179" y1="260163" x2="179" y2="0"/>
			<path d="M192,245598L192,245598" tabindex="0">
				<title>02:25.65 on 2021-01-23</title>
			</path>
			<line x1="0" y1="245598" x2="1258" y2="245598"/>
			<line x1="192" y1="260163" x2="192" y2="0"/>
		</g>
		<g style="--index: 15;">
			<path d="M111,258696L192,258696L192,258776L254,258776L254,258790L255,258790L255,258808" tabindex="0">
				<title>l_o9xo3rp9-9d8eewld-7896y468.9qj0x8el</title>
			</path>
			<rect x="111" y="258696" width="144" height="112"/>
			<path d="M111,258696L111,258696" tabindex="0">
				<title>00:14.67 on 2020-11-03</title>
			</path>
			<line x1="0" y1="258696" x2="1258" y2="258696"/>
			<line x1="111" y1="260163" x2="111" y2="0"/>
			<path d="M192,258776L192,258776" tabindex="0">
				<title>00:13.87 on 2021-01-23</title>
			</path>
			<line x1="0" y1="258776" x2="1258" y2="258776"/>
			<line x1="192" y1="260163" x2="192" y2="0"/>
			<path d="M254,258790L254,258790" tabindex="0">
				<title>00:13.73 on 2021-03-26</title>
			</path>
			<line x1="0" y1="258790" x2="1258" y2="258790"/>
			<line x1="254" y1="260163" x2="254" y2="0"/>
			<path d="M255,258808L255,258808" tabindex="0">
				<title>00:13.55 on 2021-03-27</title>
			</path>
			<line x1="0" y1="258808" x2="1258" y2="258808"/>
			<line x1="255" y1="260163" x2="255" y2="0"/>
		</g>
		<g style="--index: 16;">
			<path d="M112,208286" tabindex="0">
				<title>l_495zlx39-xd144xzd-38dz6v1n.z19md2jl</title>
			</path>
			<rect x="112" y="208286" width="0" height="0"/>
			<path d="M112,208286L112,208286" tabindex="0">
				<title>08:38.77 on 2020-11-04</title>
			</path>
			<line x1="0" y1="208286" x2="1258" y2="208286"/>
			<line x1="112" y1="260163" x2="112" y2="0"/>
		</g>
		<g style="--index: 17;">
			<path d="M118,242760L163,242760L163,242997" tabindex="0">
				<title>l_rdqo542w-9d8eewld-wl30kw9l.jqzpyrgl</title>
			</path>
			<rect x="118" y="242760" width="45" height="237"/>
			<path d="M118,242760L118,242760" tabindex="0">
				<title>02:54.03 on 2020-11-10</title>
			</path>
			<line x1="0" y1="242760" x2="1258" y2="242760"/>
			<line x1="118" y1="260163" x2="118" y2="0"/>
			<path d="M163,242997L163,242997" tabindex="0">
				<title>02:51.66 on 2020-12-25</title>
			</path>
			<line x1="0" y1="242997" x2="1258" y2="242997"/>
			<line x1="163" y1="260163" x2="163" y2="0"/>
		</g>
		<g style="--index: 18;">
			<path d="M122,258326L142,258326L142,258665L198,258665L198,258730" tabindex="0">
				<title>l_r9gnozkd-rkl3znrk-wledz9en.jq606z3q</title>
			</path>
			<rect x="122" y="258326" width="76" height="404"/>
			<path d="M122,258326L122,258326" tabindex="0">
				<title>00:18.37 on 2020-11-14</title>
			</path>
			<line x1="0" y1="258326" x2="1258" y2="258326"/>
			<line x1="122" y1="260163" x2="122" y2="0"/>
			<path d="M142,258665L142,258665" tabindex="0">
				<title>00:14.98 on 2020-12-04</title>
			</path>
			<line x1="0" y1="258665" x2="1258" y2="258665"/>
			<line x1="142" y1="260163" x2="142" y2="0"/>
			<path d="M198,258730L198,258730" tabindex="0">
				<title>00:14.33 on 2021-01-29</title>
			</path>
			<line x1="0" y1="258730" x2="1258" y2="258730"/>
			<line x1="198" y1="260163" x2="198" y2="0"/>
		</g>
		<g style="--index: 19;">
			<path d="M127,258950L137,258950L137,258975L158,258975L158,258986L167,258986L167,259005L192,259005L192,259033" tabindex="0">
				<title>l_r9gnozkd-rkl3znrk-wledz9en.rqvp5e7q</title>
			</path>
			<rect x="127" y="258950" width="65" height="83"/>
			<path d="M127,258950L127,258950" tabindex="0">
				<title>00:12.13 on 2020-11-19</title>
			</path>
			<line x1="0" y1="258950" x2="1258" y2="258950"/>
			<line x1="127" y1="260163" x2="127" y2="0"/>
			<path d="M137,258975L137,258975" tabindex="0">
				<title>00:11.88 on 2020-11-29</title>
			</path>
			<line x1="0" y1="258975" x2="1258" y2="258975"/>
			<line x1="137" y1="260163" x2="137" y2="0"/>
			<path d="M158,258986L158,258986" tabindex="0">
				<title>00:11.77 on 2020-12-20</title>
			</path>
			<line x1="0" y1="258986" x2="1258" y2="258986"/>
			<line x1="158" y1="260163" x2="158" y2="0"/>
			<path d="M167,259005L167,259005" tabindex="0">
				<title>00:11.58 on 2020-12-29</title>
			</path>
			<line x1="0" y1="259005" x2="1258" y2="259005"/>
			<line x1="167" y1="260163" x2="167" y2="0"/>
			<path d="M192,259033L192,259033" tabindex="0">
				<title>00:11.30 on 2021-01-23</title>
			</path>
			<line x1="0" y1="259033" x2="1258" y2="259033"/>
			<line x1="192" y1="260163" x2="192" y2="0"/>
		</g>
		<g style="--index: 20;">
			<path d="M129,192044" tabindex="0">
				<title>l_rdqo542w-xd144xwd</title>
			</path>
			<rect x="129" y="192044" width="0" height="0"/>
			<path d="M129,192044L129,192044" tabindex="0">
				<title>11:21.19 on 2020-11-21</title>
			</path>
			<line x1="0" y1="192044" x2="1258" y2="192044"/>
			<line x1="129" y1="260163" x2="129" y2="0"/>
		</g>
		<g style="--index: 21;">
			<path d="M129,207543" tabindex="0">
				<title>l_rdqo542w-xd144xzd-38dz6v1n.z19md2jl</title>
			</path>
			<rect x="129" y="207543" width="0" height="0"/>
			<path d="M129,207543L129,207543" tabindex="0">
				<title>08:46.20 on 2020-11-21</title>
			</path>
			<line x1="0" y1="207543" x2="1258" y2="207543"/>
			<line x1="129" y1="260163" x2="129" y2="0"/>
		</g>
		<g style="--index: 22;">
			<path d="M129,258211L142,258211L142,258299L172,258299L172,258343" tabindex="0">
				<title>l_rdqo542w-9d8eewld-wl30kw9l.klrp6e0q</title>
			</path>
			<rect x="129" y="258211" width="43" height="132"/>
			<path d="M129,258211L129,258211" tabindex="0">
				<title>00:19.52 on 2020-11-21</title>
			</path>
			<line x1="0" y1="258211" x2="1258" y2="258211"/>
			<line x1="129" y1="260163" x2="129" y2="0"/>
			<path d="M142,258299L142,258299" tabindex="0">
				<title>00:18.64 on 2020-12-04</title>
			</path>
			<line x1="0" y1="258299" x2="1258" y2="258299"/>
			<line x1="142" y1="260163" x2="142" y2="0"/>
			<path d="M172,258343L172,258343" tabindex="0">
				<title>00:18.20 on 2021-01-03</title>
			</path>
			<line x1="0" y1="258343" x2="1258" y2="258343"/>
			<line x1="172" y1="260163" x2="172" y2="0"/>
		</g>
		<g style="--index: 23;">
			<path d="M130,206364" tabindex="0">
				<title>l_495zlx39-xd144xwd</title>
			</path>
			<rect x="130" y="206364" width="0" height="0"/>
			<path d="M130,206364L130,206364" tabindex="0">
				<title>08:57.99 on 2020-11-22</title>
			</path>
			<line x1="0" y1="206364" x2="1258" y2="206364"/>
			<line x1="130" y1="260163" x2="130" y2="0"/>
		</g>
		<g style="--index: 24;">
			<path d="M135,258740L168,258740L168,258770L254,258770L254,258793L255,258793L255,258833" tabindex="0">
				<title>l_o9xo3rp9-9d8eewld-7896y468.rqvpey7q</title>
			</path>
			<rect x="135" y="258740" width="120" height="93"/>
			<path d="M135,258740L135,258740" tabindex="0">
				<title>00:14.23 on 2020-11-27</title>
			</path>
			<line x1="0" y1="258740" x2="1258" y2="258740"/>
			<line x1="135" y1="260163" x2="135" y2="0"/>
			<path d="M168,258770L168,258770" tabindex="0">
				<title>00:13.93 on 2020-12-30</title>
			</path>
			<line x1="0" y1="258770" x2="1258" y2="258770"/>
			<line x1="168" y1="260163" x2="168" y2="0"/>
			<path d="M254,258793L254,258793" tabindex="0">
				<title>00:13.70 on 2021-03-26</title>
			</path>
			<line x1="0" y1="258793" x2="1258" y2="258793"/>
			<line x1="254" y1="260163" x2="254" y2="0"/>
			<path d="M255,258833L255,258833" tabindex="0">
				<title>00:13.30 on 2021-03-27</title>
			</path>
			<line x1="0" y1="258833" x2="1258" y2="258833"/>
			<line x1="255" y1="260163" x2="255" y2="0"/>
		</g>
		<g style="--index: 25;">
			<path d="M135,259338L254,259338L254,259378" tabindex="0">
				<title>l_o9xo3rp9-9d8eewld-7896y468.013856dq</title>
			</path>
			<rect x="135" y="259338" width="119" height="40"/>
			<path d="M135,259338L135,259338" tabindex="0">
				<title>00:08.25 on 2020-11-27</title>
			</path>
			<line x1="0" y1="259338" x2="1258" y2="259338"/>
			<line x1="135" y1="260163" x2="135" y2="0"/>
			<path d="M254,259378L254,259378" tabindex="0">
				<title>00:07.85 on 2021-03-26</title>
			</path>
			<line x1="0" y1="259378" x2="1258" y2="259378"/>
			<line x1="254" y1="260163" x2="254" y2="0"/>
		</g>
		<g style="--index: 26;">
			<path d="M135,258713" tabindex="0">
				<title>l_495zlx39-9d8eewld-2lgr793n.814y7w01</title>
			</path>
			<rect x="135" y="258713" width="0" height="0"/>
			<path d="M135,258713L135,258713" tabindex="0">
				<title>00:14.50 on 2020-11-27</title>
			</path>
			<line x1="0" y1="258713" x2="1258" y2="258713"/>
			<line x1="135" y1="260163" x2="135" y2="0"/>
		</g>
		<g style="--index: 27;">
			<path d="M136,258008L168,258008L168,258048L226,258048L226,258098" tabindex="0">
				<title>l_495zlx39-9d8eewld-2lgr793n.81ppd5g1</title>
			</path>
			<rect x="136" y="258008" width="90" height="90"/>
			<path d="M136,258008L136,258008" tabindex="0">
				<title>00:21.55 on 2020-11-28</title>
			</path>
			<line x1="0" y1="258008" x2="1258" y2="258008"/>
			<line x1="136" y1="260163" x2="136" y2="0"/>
			<path d="M168,258048L168,258048" tabindex="0">
				<title>00:21.15 on 2020-12-30</title>
			</path>
			<line x1="0" y1="258048" x2="1258" y2="258048"/>
			<line x1="168" y1="260163" x2="168" y2="0"/>
			<path d="M226,258098L226,258098" tabindex="0">
				<title>00:20.65 on 2021-02-26</title>
			</path>
			<line x1="0" y1="258098" x2="1258" y2="258098"/>
			<line x1="226" y1="260163" x2="226" y2="0"/>
		</g>
		<g style="--index: 28;">
			<path d="M136,258613" tabindex="0">
				<title>l_r9gnozkd-rkl3znrk-wledz9en.0138n5dq</title>
			</path>
			<rect x="136" y="258613" width="0" height="0"/>
			<path d="M136,258613L136,258613" tabindex="0">
				<title>00:15.50 on 2020-11-28</title>
			</path>
			<line x1="0" y1="258613" x2="1258" y2="258613"/>
			<line x1="136" y1="260163" x2="136" y2="0"/>
		</g>
		<g style="--index: 29;">
			<path d="M140,229097L172,229097L172,232018L193,232018L193,233362L1061,233362L1061,234931" tabindex="0">
				<title>l_r9gn1qpd-xd144xzd-38dz6v1n.z19md2jl</title>
			</path>
			<rect x="140" y="229097" width="921" height="5834"/>
			<path d="M140,229097L140,229097" tabindex="0">
				<title>05:10.66 on 2020-12-02</title>
			</path>
			<line x1="0" y1="229097" x2="1258" y2="229097"/>
			<line x1="140" y1="260163" x2="140" y2="0"/>
			<path d="M172,232018L172,232018" tabindex="0">
				<title>04:41.45 on 2021-01-03</title>
			</path>
			<line x1="0" y1="232018" x2="1258" y2="232018"/>
			<line x1="172" y1="260163" x2="172" y2="0"/>
			<path d="M193,233362L193,233362" tabindex="0">
				<title>04:28.01 on 2021-01-24</title>
			</path>
			<line x1="0" y1="233362" x2="1258" y2="233362"/>
			<line x1="193" y1="260163" x2="193" y2="0"/>
			<path d="M1061,234931L1061,234931" tabindex="0">
				<title>04:12.32 on 2023-06-11</title>
			</path>
			<line x1="0" y1="234931" x2="1258" y2="234931"/>
			<line x1="1061" y1="260163" x2="1061" y2="0"/>
		</g>
		<g style="--index: 30;">
			<path d="M142,258111L169,258111L169,258249" tabindex="0">
				<title>l_rdqo542w-9d8eewld-wl30kw9l.21dzoj3l</title>
			</path>
			<rect x="142" y="258111" width="27" height="138"/>
			<path d="M142,258111L142,258111" tabindex="0">
				<title>00:20.52 on 2020-12-04</title>
			</path>
			<line x1="0" y1="258111" x2="1258" y2="258111"/>
			<line x1="142" y1="260163" x2="142" y2="0"/>
			<path d="M169,258249L169,258249" tabindex="0">
				<title>00:19.14 on 2020-12-31</title>
			</path>
			<line x1="0" y1="258249" x2="1258" y2="258249"/>
			<line x1="169" y1="260163" x2="169" y2="0"/>
		</g>
		<g style="--index: 31;">
			<path d="M157,257961L163,257961L163,257991L173,257991L173,258193" tabindex="0">
				<title>l_495zlx39-9d8eewld-2lgr793n.xqkjmnnl</title>
			</path>
			<rect x="157" y="257961" width="16" height="232"/>
			<path d="M157,257961L157,257961" tabindex="0">
				<title>00:22.02 on 2020-12-19</title>
			</path>
			<line x1="0" y1="257961" x2="1258" y2="257961"/>
			<line x1="157" y1="260163" x2="157" y2="0"/>
			<path d="M163,257991L163,257991" tabindex="0">
				<title>00:21.72 on 2020-12-25</title>
			</path>
			<line x1="0" y1="257991" x2="1258" y2="257991"/>
			<line x1="163" y1="260163" x2="163" y2="0"/>
			<path d="M173,258193L173,258193" tabindex="0">
				<title>00:19.70 on 2021-01-04</title>
			</path>
			<line x1="0" y1="258193" x2="1258" y2="258193"/>
			<line x1="173" y1="260163" x2="173" y2="0"/>
		</g>
		<g style="--index: 32;">
			<path d="M157,258834" tabindex="0">
				<title>l_o9xo3rp9-9d8eewld-7896y468.81wp50oq</title>
			</path>
			<rect x="157" y="258834" width="0" height="0"/>
			<path d="M157,258834L157,258834" tabindex="0">
				<title>00:13.29 on 2020-12-19</title>
			</path>
			<line x1="0" y1="258834" x2="1258" y2="258834"/>
			<line x1="157" y1="260163" x2="157" y2="0"/>
		</g>
		<g style="--index: 33;">
			<path d="M160,258786L170,258786L170,258790L193,258790L193,258870" tabindex="0">
				<title>l_495zlx39-9d8eewld-2lgr793n.z19m8p0l</title>
			</path>
			<rect x="160" y="258786" width="33" height="84"/>
			<path d="M160,258786L160,258786" tabindex="0">
				<title>00:13.77 on 2020-12-22</title>
			</path>
			<line x1="0" y1="258786" x2="1258" y2="258786"/>
			<line x1="160" y1="260163" x2="160" y2="0"/>
			<path d="M170,258790L170,258790" tabindex="0">
				<title>00:13.73 on 2021-01-01</title>
			</path>
			<line x1="0" y1="258790" x2="1258" y2="258790"/>
			<line x1="170" y1="260163" x2="170" y2="0"/>
			<path d="M193,258870L193,258870" tabindex="0">
				<title>00:12.93 on 2021-01-24</title>
			</path>
			<line x1="0" y1="258870" x2="1258" y2="258870"/>
			<line x1="193" y1="260163" x2="193" y2="0"/>
		</g>
		<g style="--index: 34;">
			<path d="M161,258655L227,258655L227,258660" tabindex="0">
				<title>l_495zlx39-9d8eewld-2lgr793n.gq7jzvvq</title>
			</path>
			<rect x="161" y="258655" width="66" height="5"/>
			<path d="M161,258655L161,258655" tabindex="0">
				<title>00:15.08 on 2020-12-23</title>
			</path>
			<line x1="0" y1="258655" x2="1258" y2="258655"/>
			<line x1="161" y1="260163" x2="161" y2="0"/>
			<path d="M227,258660L227,258660" tabindex="0">
				<title>00:15.03 on 2021-02-27</title>
			</path>
			<line x1="0" y1="258660" x2="1258" y2="258660"/>
			<line x1="227" y1="260163" x2="227" y2="0"/>
		</g>
		<g style="--index: 35;">
			<path d="M161,225131" tabindex="0">
				<title>l_rdqo542w-9kv66g32-onv7r45n.9qj08g7l</title>
			</path>
			<rect x="161" y="225131" width="0" height="0"/>
			<path d="M161,225131L161,225131" tabindex="0">
				<title>05:50.32 on 2020-12-23</title>
			</path>
			<line x1="0" y1="225131" x2="1258" y2="225131"/>
			<line x1="161" y1="260163" x2="161" y2="0"/>
		</g>
		<g style="--index: 36;">
			<path d="M163,258651L171,258651L171,258683L255,258683L255,258718" tabindex="0">
				<title>l_r9gn1qpd-9d8eewld-0nwoqwkl.21dz3e4l</title>
			</path>
			<rect x="163" y="258651" width="92" height="67"/>
			<path d="M163,258651L163,258651" tabindex="0">
				<title>00:15.12 on 2020-12-25</title>
			</path>
			<line x1="0" y1="258651" x2="1258" y2="258651"/>
			<line x1="163" y1="260163" x2="163" y2="0"/>
			<path d="M171,258683L171,258683" tabindex="0">
				<title>00:14.80 on 2021-01-02</title>
			</path>
			<line x1="0" y1="258683" x2="1258" y2="258683"/>
			<line x1="171" y1="260163" x2="171" y2="0"/>
			<path d="M255,258718L255,258718" tabindex="0">
				<title>00:14.45 on 2021-03-27</title>
			</path>
			<line x1="0" y1="258718" x2="1258" y2="258718"/>
			<line x1="255" y1="260163" x2="255" y2="0"/>
		</g>
		<g style="--index: 37;">
			<path d="M166,0" tabindex="0">
				<title>xd1v018d-68k7x44l.zqo74r41</title>
			</path>
			<rect x="166" y="0" width="0" height="0"/>
			<path d="M166,0L166,0" tabindex="0">
				<title>43:21.63 on 2020-12-28</title>
			</path>
			<line x1="0" y1="0" x2="1258" y2="0"/>
			<line x1="166" y1="260163" x2="166" y2="0"/>
		</g>
		<g style="--index: 38;">
			<path d="M166,239097" tabindex="0">
				<title>l_495zlx39-9kv66g32-onv7r45n.9qj08g7l</title>
			</path>
			<rect x="166" y="239097" width="0" height="0"/>
			<path d="M166,239097L166,239097" tabindex="0">
				<title>03:30.66 on 2020-12-28</title>
			</path>
			<line x1="0" y1="239097" x2="1258" y2="239097"/>
			<line x1="166" y1="260163" x2="166" y2="0"/>
		</g>
		<g style="--index: 39;">
			<path d="M167,27138" tabindex="0">
				<title>7dg65oxk-r8r1zm0n.gq7dw7vq</title>
			</path>
			<rect x="167" y="27138" width="0" height="0"/>
			<path d="M167,27138L167,27138" tabindex="0">
				<title>38:50.25 on 2020-12-29</title>
			</path>
			<line x1="0" y1="27138" x2="1258" y2="27138"/>
			<line x1="167" y1="260163" x2="167" y2="0"/>
		</g>
		<g style="--index: 40;">
			<path d="M169,257544" tabindex="0">
				<title>l_rdqo542w-9d8eewld-wl30kw9l.5q86rxr1</title>
			</path>
			<rect x="169" y="257544" width="0" height="0"/>
			<path d="M169,257544L169,257544" tabindex="0">
				<title>00:26.19 on 2020-12-31</title>
			</path>
			<line x1="0" y1="257544" x2="1258" y2="257544"/>
			<line x1="169" y1="260163" x2="169" y2="0"/>
		</g>
		<g style="--index: 41;">
			<path d="M171,258623L212,258623L212,258645L214,258645L214,258688" tabindex="0">
				<title>l_r9gn1qpd-9d8eewld-0nwoqwkl.klrpy2jq</title>
			</path>
			<rect x="171" y="258623" width="43" height="65"/>
			<path d="M171,258623L171,258623" tabindex="0">
				<title>00:15.40 on 2021-01-02</title>
			</path>
			<line x1="0" y1="258623" x2="1258" y2="258623"/>
			<line x1="171" y1="260163" x2="171" y2="0"/>
			<path d="M212,258645L212,258645" tabindex="0">
				<title>00:15.18 on 2021-02-12</title>
			</path>
			<line x1="0" y1="258645" x2="1258" y2="258645"/>
			<line x1="212" y1="260163" x2="212" y2="0"/>
			<path d="M214,258688L214,258688" tabindex="0">
				<title>00:14.75 on 2021-02-14</title>
			</path>
			<line x1="0" y1="258688" x2="1258" y2="258688"/>
			<line x1="214" y1="260163" x2="214" y2="0"/>
		</g>
		<g style="--index: 42;">
			<path d="M175,254382" tabindex="0">
				<title>l_rdqo542w-9d8eewld-wl30kw9l.klrp6ejq</title>
			</path>
			<rect x="175" y="254382" width="0" height="0"/>
			<path d="M175,254382L175,254382" tabindex="0">
				<title>00:57.81 on 2021-01-06</title>
			</path>
			<line x1="0" y1="254382" x2="1258" y2="254382"/>
			<line x1="175" y1="260163" x2="175" y2="0"/>
		</g>
		<g style="--index: 43;">
			<path d="M185,258776L221,258776L221,258783L223,258783L223,258811" tabindex="0">
				<title>9kv6l5e2-ql6rezjl.jq6d86v1</title>
			</path>
			<rect x="185" y="258776" width="38" height="35"/>
			<path d="M185,258776L185,258776" tabindex="0">
				<title>00:13.87 on 2021-01-16</title>
			</path>
			<line x1="0" y1="258776" x2="1258" y2="258776"/>
			<line x1="185" y1="260163" x2="185" y2="0"/>
			<path d="M221,258783L221,258783" tabindex="0">
				<title>00:13.80 on 2021-02-21</title>
			</path>
			<line x1="0" y1="258783" x2="1258" y2="258783"/>
			<line x1="221" y1="260163" x2="221" y2="0"/>
			<path d="M223,258811L223,258811" tabindex="0">
				<title>00:13.52 on 2021-02-23</title>
			</path>
			<line x1="0" y1="258811" x2="1258" y2="258811"/>
			<line x1="223" y1="260163" x2="223" y2="0"/>
		</g>
		<g style="--index: 44;">
			<path d="M193,259245L196,259245L196,259247L369,259247L369,259283" tabindex="0">
				<title>l_r9gn1qpd-9d8eewld-0nwoqwkl.81ppdgg1</title>
			</path>
			<rect x="193" y="259245" width="176" height="38"/>
			<path d="M193,259245L193,259245" tabindex="0">
				<title>00:09.18 on 2021-01-24</title>
			</path>
			<line x1="0" y1="259245" x2="1258" y2="259245"/>
			<line x1="193" y1="260163" x2="193" y2="0"/>
			<path d="M196,259247L196,259247" tabindex="0">
				<title>00:09.16 on 2021-01-27</title>
			</path>
			<line x1="0" y1="259247" x2="1258" y2="259247"/>
			<line x1="196" y1="260163" x2="196" y2="0"/>
			<path d="M369,259283L369,259283" tabindex="0">
				<title>00:08.80 on 2021-07-19</title>
			</path>
			<line x1="0" y1="259283" x2="1258" y2="259283"/>
			<line x1="369" y1="260163" x2="369" y2="0"/>
		</g>
		<g style="--index: 45;">
			<path d="M196,253208" tabindex="0">
				<title>l_495zlx39-9d8eewld-2lgr793n.4lxpe62q</title>
			</path>
			<rect x="196" y="253208" width="0" height="0"/>
			<path d="M196,253208L196,253208" tabindex="0">
				<title>01:09.55 on 2021-01-27</title>
			</path>
			<line x1="0" y1="253208" x2="1258" y2="253208"/>
			<line x1="196" y1="260163" x2="196" y2="0"/>
		</g>
		<g style="--index: 46;">
			<path d="M196,255816L368,255816L368,255884" tabindex="0">
				<title>l_r9gn1qpd-9d8eewld-0nwoqwkl.p12dx87q</title>
			</path>
			<rect x="196" y="255816" width="172" height="68"/>
			<path d="M196,255816L196,255816" tabindex="0">
				<title>00:43.47 on 2021-01-27</title>
			</path>
			<line x1="0" y1="255816" x2="1258" y2="255816"/>
			<line x1="196" y1="260163" x2="196" y2="0"/>
			<path d="M368,255884L368,255884" tabindex="0">
				<title>00:42.79 on 2021-07-18</title>
			</path>
			<line x1="0" y1="255884" x2="1258" y2="255884"/>
			<line x1="368" y1="260163" x2="368" y2="0"/>
		</g>
		<g style="--index: 47;">
			<path d="M197,237385L1061,237385L1061,240068" tabindex="0">
				<title>l_r9gn1qpd-xd144xwd</title>
			</path>
			<rect x="197" y="237385" width="864" height="2683"/>
			<path d="M197,237385L197,237385" tabindex="0">
				<title>03:47.78 on 2021-01-28</title>
			</path>
			<line x1="0" y1="237385" x2="1258" y2="237385"/>
			<line x1="197" y1="260163" x2="197" y2="0"/>
			<path d="M1061,240068L1061,240068" tabindex="0">
				<title>03:20.95 on 2023-06-11</title>
			</path>
			<line x1="0" y1="240068" x2="1258" y2="240068"/>
			<line x1="1061" y1="260163" x2="1061" y2="0"/>
		</g>
		<g style="--index: 48;">
			<path d="M197,230655" tabindex="0">
				<title>l_o9xo3rp9-xd144xwd</title>
			</path>
			<rect x="197" y="230655" width="0" height="0"/>
			<path d="M197,230655L197,230655" tabindex="0">
				<title>04:55.08 on 2021-01-28</title>
			</path>
			<line x1="0" y1="230655" x2="1258" y2="230655"/>
			<line x1="197" y1="260163" x2="197" y2="0"/>
		</g>
		<g style="--index: 49;">
			<path d="M197,244004" tabindex="0">
				<title>l_o9xo3rp9-9kv66g32-onv7r45n.9qj08g7l</title>
			</path>
			<rect x="197" y="244004" width="0" height="0"/>
			<path d="M197,244004L197,244004" tabindex="0">
				<title>02:41.59 on 2021-01-28</title>
			</path>
			<line x1="0" y1="244004" x2="1258" y2="244004"/>
			<line x1="197" y1="260163" x2="197" y2="0"/>
		</g>
		<g style="--index: 50;">
			<path d="M197,250921" tabindex="0">
				<title>l_o9xo3rp9-9d8eewld-7896y468.810zwdwq</title>
			</path>
			<rect x="197" y="250921" width="0" height="0"/>
			<path d="M197,250921L197,250921" tabindex="0">
				<title>01:32.42 on 2021-01-28</title>
			</path>
			<line x1="0" y1="250921" x2="1258" y2="250921"/>
			<line x1="197" y1="260163" x2="197" y2="0"/>
		</g>
		<g style="--index: 51;">
			<path d="M197,248258L1060,248258L1060,249142" tabindex="0">
				<title>l_r9gn1qpd-9kv66g32-onv7r45n.9qj08g7l</title>
			</path>
			<rect x="197" y="248258" width="863" height="884"/>
			<path d="M197,248258L197,248258" tabindex="0">
				<title>01:59.05 on 2021-01-28</title>
			</path>
			<line x1="0" y1="248258" x2="1258" y2="248258"/>
			<line x1="197" y1="260163" x2="197" y2="0"/>
			<path d="M1060,249142L1060,249142" tabindex="0">
				<title>01:50.21 on 2023-06-10</title>
			</path>
			<line x1="0" y1="249142" x2="1258" y2="249142"/>
			<line x1="1060" y1="260163" x2="1060" y2="0"/>
		</g>
		<g style="--index: 52;">
			<path d="M199,259273L368,259273L368,259292" tabindex="0">
				<title>l_r9gn1qpd-9d8eewld-0nwoqwkl.jqzpx3gl</title>
			</path>
			<rect x="199" y="259273" width="169" height="19"/>
			<path d="M199,259273L199,259273" tabindex="0">
				<title>00:08.90 on 2021-01-30</title>
			</path>
			<line x1="0" y1="259273" x2="1258" y2="259273"/>
			<line x1="199" y1="260163" x2="199" y2="0"/>
			<path d="M368,259292L368,259292" tabindex="0">
				<title>00:08.71 on 2021-07-18</title>
			</path>
			<line x1="0" y1="259292" x2="1258" y2="259292"/>
			<line x1="368" y1="260163" x2="368" y2="0"/>
		</g>
		<g style="--index: 53;">
			<path d="M199,247418" tabindex="0">
				<title>l_r9gn1qpd-9d8eewld-0nwoqwkl.gq7jrxvq</title>
			</path>
			<rect x="199" y="247418" width="0" height="0"/>
			<path d="M199,247418L199,247418" tabindex="0">
				<title>02:07.45 on 2021-01-30</title>
			</path>
			<line x1="0" y1="247418" x2="1258" y2="247418"/>
			<line x1="199" y1="260163" x2="199" y2="0"/>
		</g>
		<g style="--index: 54;">
			<path d="M199,255806" tabindex="0">
				<title>l_r9gnozkd-rkl3znrk-wledz9en.5lmk0gjq</title>
			</path>
			<rect x="199" y="255806" width="0" height="0"/>
			<path d="M199,255806L199,255806" tabindex="0">
				<title>00:43.57 on 2021-01-30</title>
			</path>
			<line x1="0" y1="255806" x2="1258" y2="255806"/>
			<line x1="199" y1="260163" x2="199" y2="0"/>
		</g>
		<g style="--index: 55;">
			<path d="M200,258955L211,258955L211,259054" tabindex="0">
				<title>l_r9gnozkd-rkl3znrk-wledz9en.81wpx5oq</title>
			</path>
			<rect x="200" y="258955" width="11" height="99"/>
			<path d="M200,258955L200,258955" tabindex="0">
				<title>00:12.08 on 2021-01-31</title>
			</path>
			<line x1="0" y1="258955" x2="1258" y2="258955"/>
			<line x1="200" y1="260163" x2="200" y2="0"/>
			<path d="M211,259054L211,259054" tabindex="0">
				<title>00:11.09 on 2021-02-11</title>
			</path>
			<line x1="0" y1="259054" x2="1258" y2="259054"/>
			<line x1="211" y1="260163" x2="211" y2="0"/>
		</g>
		<g style="--index: 56;">
			<path d="M212,241728L1061,241728L1061,243696" tabindex="0">
				<title>l_r9gn1qpd-9kv66g32-onv7r45n.810zdxoq</title>
			</path>
			<rect x="212" y="241728" width="849" height="1968"/>
			<path d="M212,241728L212,241728" tabindex="0">
				<title>03:04.35 on 2021-02-12</title>
			</path>
			<line x1="0" y1="241728" x2="1258" y2="241728"/>
			<line x1="212" y1="260163" x2="212" y2="0"/>
			<path d="M1061,243696L1061,243696" tabindex="0">
				<title>02:44.67 on 2023-06-11</title>
			</path>
			<line x1="0" y1="243696" x2="1258" y2="243696"/>
			<line x1="1061" y1="260163" x2="1061" y2="0"/>
		</g>
		<g style="--index: 57;">
			<path d="M259,256782" tabindex="0">
				<title>rkl9qwrk-6njkg4el.z19p2o8l</title>
			</path>
			<rect x="259" y="256782" width="0" height="0"/>
			<path d="M259,256782L259,256782" tabindex="0">
				<title>00:33.81 on 2021-03-31</title>
			</path>
			<line x1="0" y1="256782" x2="1258" y2="256782"/>
			<line x1="259" y1="260163" x2="259" y2="0"/>
		</g>
		<g style="--index: 58;">
			<path d="M1060,252668" tabindex="0">
				<title>l_r9gn1qpd-xd144xzd-38dz6v1n.q755eky1</title>
			</path>
			<rect x="1060" y="252668" width="0" height="0"/>
			<path d="M1060,252668L1060,252668" tabindex="0">
				<title>01:14.95 on 2023-06-10</title>
			</path>
			<line x1="0" y1="252668" x2="1258" y2="252668"/>
			<line x1="1060" y1="260163" x2="1060" y2="0"/>
		</g>
		<g style="--index: 59;">
			<path d="M1060,236491" tabindex="0">
				<title>l_gdr5onk9-rkl3znrk-rn1g06dn.qj77o50q</title>
			</path>
			<rect x="1060" y="236491" width="0" height="0"/>
			<path d="M1060,236491L1060,236491" tabindex="0">
				<title>03:56.72 on 2023-06-10</title>
			</path>
			<line x1="0" y1="236491" x2="1258" y2="236491"/>
			<line x1="1060" y1="260163" x2="1060" y2="0"/>
		</g>
		<g style="--index: 60;">
			<path d="M1061,253515L1068,253515L1068,253764" tabindex="0">
				<title>l_495zlx39-9d8eewld-2lgr793n.mlno5r0q</title>
			</path>
			<rect x="1061" y="253515" width="7" height="249"/>
			<path d="M1061,253515L1061,253515" tabindex="0">
				<title>01:06.48 on 2023-06-11</title>
			</path>
			<line x1="0" y1="253515" x2="1258" y2="253515"/>
			<line x1="1061" y1="260163" x2="1061" y2="0"/>
			<path d="M1068,253764L1068,253764" tabindex="0">
				<title>01:03.99 on 2023-06-18</title>
			</path>
			<line x1="0" y1="253764" x2="1258" y2="253764"/>
			<line x1="1068" y1="260163" x2="1068" y2="0"/>
		</g>
		<g style="--index: 61;">
			<path d="M1061,249262" tabindex="0">
				<title>l_o9xo3rp9-9d8eewld-7896y468.4qywn341</title>
			</path>
			<rect x="1061" y="249262" width="0" height="0"/>
			<path d="M1061,249262L1061,249262" tabindex="0">
				<title>01:49.01 on 2023-06-11</title>
			</path>
			<line x1="0" y1="249262" x2="1258" y2="249262"/>
			<line x1="1061" y1="260163" x2="1061" y2="0"/>
		</g>
		<g style="--index: 62;">
			<path d="M1061,242695" tabindex="0">
				<title>l_rdqo542w-9d8eewld-wl30kw9l.810dx3wl</title>
			</path>
			<rect x="1061" y="242695" width="0" height="0"/>
			<path d="M1061,242695L1061,242695" tabindex="0">
				<title>02:54.68 on 2023-06-11</title>
			</path>
			<line x1="0" y1="242695" x2="1258" y2="242695"/>
			<line x1="1061" y1="260163" x2="1061" y2="0"/>
		</g>
		<g style="--index: 63;">
			<path d="M1061,256050" tabindex="0">
				<title>l_r9gn1qpd-9d8eewld-0nwoqwkl.klr25nj1</title>
			</path>
			<rect x="1061" y="256050" width="0" height="0"/>
			<path d="M1061,256050L1061,256050" tabindex="0">
				<title>00:41.13 on 2023-06-11</title>
			</path>
			<line x1="0" y1="256050" x2="1258" y2="256050"/>
			<line x1="1061" y1="260163" x2="1061" y2="0"/>
		</g>
		<g style="--index: 64;">
			<path d="M1112,259523L1258,259523L1258,259544" tabindex="0">
				<title>9kv6l5e2-ql6rezjl.1dk62o3l</title>
			</path>
			<rect x="1112" y="259523" width="146" height="21"/>
			<path d="M1112,259523L1112,259523" tabindex="0">
				<title>00:06.40 on 2023-08-01</title>
			</path>
			<line x1="0" y1="259523" x2="1258" y2="259523"/>
			<line x1="1112" y1="260163" x2="1112" y2="0"/>
			<path d="M1258,259544L1258,259544" tabindex="0">
				<title>00:06.19 on 2023-12-25</title>
			</path>
			<line x1="0" y1="259544" x2="1258" y2="259544"/>
			<line x1="1258" y1="260163" x2="1258" y2="0"/>
		</g>
		<g style="--index: 65;">
			<path d="M1112,257607" tabindex="0">
				<title>rkl9qwrk-6njkg4el.lr3x560l</title>
			</path>
			<rect x="1112" y="257607" width="0" height="0"/>
			<path d="M1112,257607L1112,257607" tabindex="0">
				<title>00:25.56 on 2023-08-01</title>
			</path>
			<line x1="0" y1="257607" x2="1258" y2="257607"/>
			<line x1="1112" y1="260163" x2="1112" y2="0"/>
		</g>
		<g style="--index: 66;">
			<path d="M1136,248587" tabindex="0">
				<title>l_xd0mnpjw-rkl3znrk-wley4prn.192xe54q</title>
			</path>
			<rect x="1136" y="248587" width="0" height="0"/>
			<path d="M1136,248587L1136,248587" tabindex="0">
				<title>01:55.76 on 2023-08-25</title>
			</path>
			<line x1="0" y1="248587" x2="1258" y2="248587"/>
			<line x1="1136" y1="260163" x2="1136" y2="0"/>
		</g>
	</g>
</svg>
