<svg xmlns="http://www.w3.org/2000/svg" viewBox="0 0 471 368624" preserveAspectRatio="none" lang="en" style="color-scheme: dark light;">
		<title>Time by player for leaderboard 7dg65oxk-r8r1zm0n.5q89kv31</title>
		<style>
			svg {
				background: var(--canvas-background);
				fill: var(--canvas-background);
				stroke: var(--canvas-foreground);
				stroke-linejoin: round;
				stroke-linecap: round;
			}
			g &gt; path[tabindex] {
				vector-effect: non-scaling-stroke;
				fill: none;
				stroke: hsl(calc(var(--index) / var(--count) * 360), 50%, 50%);
				cursor: help;
			}
			g:is(:hover, :focus-within) &gt; path[tabindex] {
				stroke: var(--canvas-foreground);
			}
			g &gt; path[tabindex]:is(:hover, :focus-within) {
				outline: 0;
			}
			g &gt; path[tabindex]:first-of-type {
				stroke-width: 2;
			}
			g &gt; path[tabindex]:first-of-type:is(:hover, :focus-within) {
				stroke-width: 4;
			}
			g &gt; path[tabindex]:first-of-type:not(:last-of-type) {
				stroke-dasharray: 4 8;
			}
			g &gt; rect {
				vector-effect: non-scaling-stroke;
				fill: none;
				stroke: none;
				pointer-events: none;
			}
			g &gt; path[tabindex]:first-of-type:is(:hover, :focus-within) + rect {
				fill: var(--highlighted);
			}
			g &gt; path[tabindex]:first-of-type ~ path[tabindex] {
				stroke-width: 8;
			}
			g &gt; path[tabindex]:first-of-type ~ path[tabindex]:is(:hover, :focus-within) {
				stroke-width: 16;
			}
			g &gt; line {
				vector-effect: non-scaling-stroke;
				fill: none;
				stroke: none;
				stroke-width: 2;
				stroke-dasharray: 4 8;
				pointer-events: none;
			}
			g &gt; path[tabindex]:first-of-type:is(:hover, :focus-within) + rect + path[tabindex] + line,
			g &gt; path[tabindex]:first-of-type:is(:hover, :focus-within) + rect + path[tabindex] + line + line,
			g &gt; path[tabindex]:first-of-type:is(:hover, :focus-within) ~ path[tabindex]:last-of-type + line,
			g &gt; path[tabindex]:first-of-type:is(:hover, :focus-within) ~ path[tabindex]:last-of-type + line + line,
			g &gt; path[tabindex]:first-of-type ~ path[tabindex]:is(:hover, :focus-within) + line,
			g &gt; path[tabindex]:first-of-type ~ path[tabindex]:is(:hover, :focus-within) + line + line {
				stroke: var(--faded);
			}
			@media (prefers-color-scheme: dark) {
				:root {
					--canvas-background: #000;
					--canvas-foreground: #ccc;
					--highlighted: #6663;
					--faded: #9993;
				}
			}
			@media (prefers-color-scheme: light) {
				:root {
					--canvas-background: #fff;
					--canvas-foreground: #333;
					--highlighted: #9993;
					--faded: #6663;
				}
			}
		</style>
		<g transform="scale(1 -1)" transform-origin="center center" style="--count: 4;">
		<g style="--index: 0;">
			<path d="M0,223637" tabindex="0">
				<title>x356nrej</title>
			</path>
			<rect x="0" y="223637" width="0" height="0"/>
			<path d="M0,223637L0,223637" tabindex="0">
				<title>37:16.37 on 2022-12-21</title>
			</path>
			<line x1="0" y1="223637" x2="471" y2="223637"/>
			<line x1="0" y1="0" x2="0" y2="368624"/>
		</g>
		<g style="--index: 1;">
			<path d="M29,280708L32,280708L32,224514L80,224514L80,217489L121,217489L121,204286" tabindex="0">
				<title>810y31qx</title>
			</path>
			<rect x="29" y="204286" width="92" height="76422"/>
			<path d="M29,280708L29,280708" tabindex="0">
				<title>46:47.08 on 2023-01-19</title>
			</path>
			<line x1="0" y1="280708" x2="471" y2="280708"/>
			<line x1="29" y1="0" x2="29" y2="368624"/>
			<path d="M32,224514L32,224514" tabindex="0">
				<title>37:25.14 on 2023-01-22</title>
			</path>
			<line x1="0" y1="224514" x2="471" y2="224514"/>
			<line x1="32" y1="0" x2="32" y2="368624"/>
			<path d="M80,217489L80,217489" tabindex="0">
				<title>36:14.89 on 2023-03-11</title>
			</path>
			<line x1="0" y1="217489" x2="471" y2="217489"/>
			<line x1="80" y1="0" x2="80" y2="368624"/>
			<path d="M121,204286L121,204286" tabindex="0">
				<title>34:02.86 on 2023-04-21</title>
			</path>
			<line x1="0" y1="204286" x2="471" y2="204286"/>
			<line x1="121" y1="0" x2="121" y2="368624"/>
		</g>
		<g style="--index: 2;">
			<path d="M221,368624L426,368624L426,193587L471,193587L471,187232" tabindex="0">
				<title>8w3l21qj</title>
			</path>
			<rect x="221" y="187232" width="250" height="181392"/>
			<path d="M221,368624L221,368624" tabindex="0">
				<title>61:26.24 on 2023-07-30</title>
			</path>
			<line x1="0" y1="368624" x2="471" y2="368624"/>
			<line x1="221" y1="0" x2="221" y2="368624"/>
			<path d="M426,193587L426,193587" tabindex="0">
				<title>32:15.87 on 2024-02-20</title>
			</path>
			<line x1="0" y1="193587" x2="471" y2="193587"/>
			<line x1="426" y1="0" x2="426" y2="368624"/>
			<path d="M471,187232L471,187232" tabindex="0">
				<title>31:12.32 on 2024-04-05</title>
			</path>
			<line x1="0" y1="187232" x2="471" y2="187232"/>
			<line x1="471" y1="0" x2="471" y2="368624"/>
		</g>
		<g style="--index: 3;">
			<path d="M359,172749" tabindex="0">
				<title>0jmw6wex</title>
			</path>
			<rect x="359" y="172749" width="0" height="0"/>
			<path d="M359,172749L359,172749" tabindex="0">
				<title>28:47.49 on 2023-12-15</title>
			</path>
			<line x1="0" y1="172749" x2="471" y2="172749"/>
			<line x1="359" y1="0" x2="359" y2="368624"/>
		</g>
	</g>
</svg>
