<svg xmlns="http://www.w3.org/2000/svg" viewBox="0 0 1185 2468" preserveAspectRatio="none" lang="en" style="color-scheme: dark light;">
	<title>Time by player for leaderboard 9kv6l5e2-ql6rezjl.jq6d86v1</title>
	<style>
		svg {
			background: var(--canvas-background);
			fill: var(--canvas-background);
			stroke: var(--canvas-foreground);
			stroke-linejoin: round;
			stroke-linecap: round;
		}
		g &gt; path[tabindex] {
			vector-effect: non-scaling-stroke;
			fill: none;
			stroke: hsl(calc(var(--index) / var(--count) * 360), 50%, 50%);
			cursor: help;
		}
		g:is(:hover, :focus-within) &gt; path[tabindex] {
			stroke: var(--canvas-foreground);
		}
		g &gt; path[tabindex]:is(:hover, :focus-within) {
			outline: 0;
		}
		g &gt; path[tabindex]:first-of-type {
			stroke-width: 2;
		}
		g &gt; path[tabindex]:first-of-type:is(:hover, :focus-within) {
			stroke-width: 4;
		}
		g &gt; path[tabindex]:first-of-type:not(:last-of-type) {
			stroke-dasharray: 4 8;
		}
		g &gt; rect {
			vector-effect: non-scaling-stroke;
			fill: none;
			stroke: none;
			pointer-events: none;
		}
		g &gt; path[tabindex]:first-of-type:is(:hover, :focus-within) + rect {
			fill: var(--highlighted);
		}
		g &gt; path[tabindex]:first-of-type ~ path[tabindex] {
			stroke-width: 8;
		}
		g &gt; path[tabindex]:first-of-type ~ path[tabindex]:is(:hover, :focus-within) {
			stroke-width: 16;
		}
		g &gt; line {
			vector-effect: non-scaling-stroke;
			fill: none;
			stroke: none;
			stroke-width: 2;
			stroke-dasharray: 4 8;
			pointer-events: none;
		}
		g &gt; path[tabindex]:first-of-type:is(:hover, :focus-within) + rect + path[tabindex] + line,
		g &gt; path[tabindex]:first-of-type:is(:hover, :focus-within) + rect + path[tabindex] + line + line,
		g &gt; path[tabindex]:first-of-type:is(:hover, :focus-within) ~ path[tabindex]:last-of-type + line,
		g &gt; path[tabindex]:first-of-type:is(:hover, :focus-within) ~ path[tabindex]:last-of-type + line + line,
		g &gt; path[tabindex]:first-of-type ~ path[tabindex]:is(:hover, :focus-within) + line,
		g &gt; path[tabindex]:first-of-type ~ path[tabindex]:is(:hover, :focus-within) + line + line {
			stroke: var(--faded);
		}
		@media (prefers-color-scheme: dark) {
			:root {
				--canvas-background: #000;
				--canvas-foreground: #ccc;
				--highlighted: #6663;
				--faded: #9993;
			}
		}
		@media (prefers-color-scheme: light) {
			:root {
				--canvas-background: #fff;
				--canvas-foreground: #333;
				--highlighted: #9993;
				--faded: #6663;
			}
		}
	</style>
	<g transform="scale(1 -1)" transform-origin="center center" style="--count: 23;">
		<g style="--index: 0;">
			<path d="M0,1704" tabindex="0">
				<title>y8dgoe98</title>
			</path>
			<rect x="0" y="1704" width="0" height="0"/>
			<path d="M0,1704L0,1704" tabindex="0">
				<title>00:17.04 on 2020-05-03</title>
			</path>
			<line x1="0" y1="1704" x2="1185" y2="1704"/>
			<line x1="0" y1="0" x2="0" y2="2468"/>
		</g>
		<g style="--index: 1;">
			<path d="M0,1819L1061,1819L1061,1459" tabindex="0">
				<title>0jmw6wex</title>
			</path>
			<rect x="0" y="1459" width="1061" height="360"/>
			<path d="M0,1819L0,1819" tabindex="0">
				<title>00:18.19 on 2020-05-03</title>
			</path>
			<line x1="0" y1="1819" x2="1185" y2="1819"/>
			<line x1="0" y1="0" x2="0" y2="2468"/>
			<path d="M1061,1459L1061,1459" tabindex="0">
				<title>00:14.59 on 2023-03-30</title>
			</path>
			<line x1="0" y1="1459" x2="1185" y2="1459"/>
			<line x1="1061" y1="0" x2="1061" y2="2468"/>
		</g>
		<g style="--index: 2;">
			<path d="M258,1387L294,1387L294,1380L296,1380L296,1352" tabindex="0">
				<title>xkon93k8</title>
			</path>
			<rect x="258" y="1352" width="38" height="35"/>
			<path d="M258,1387L258,1387" tabindex="0">
				<title>00:13.87 on 2021-01-16</title>
			</path>
			<line x1="0" y1="1387" x2="1185" y2="1387"/>
			<line x1="258" y1="0" x2="258" y2="2468"/>
			<path d="M294,1380L294,1380" tabindex="0">
				<title>00:13.80 on 2021-02-21</title>
			</path>
			<line x1="0" y1="1380" x2="1185" y2="1380"/>
			<line x1="294" y1="0" x2="294" y2="2468"/>
			<path d="M296,1352L296,1352" tabindex="0">
				<title>00:13.52 on 2021-02-23</title>
			</path>
			<line x1="0" y1="1352" x2="1185" y2="1352"/>
			<line x1="296" y1="0" x2="296" y2="2468"/>
		</g>
		<g style="--index: 3;">
			<path d="M282,1500" tabindex="0">
				<title>x356nrej</title>
			</path>
			<rect x="282" y="1500" width="0" height="0"/>
			<path d="M282,1500L282,1500" tabindex="0">
				<title>00:15.00 on 2021-02-09</title>
			</path>
			<line x1="0" y1="1500" x2="1185" y2="1500"/>
			<line x1="282" y1="0" x2="282" y2="2468"/>
		</g>
		<g style="--index: 4;">
			<path d="M282,1605" tabindex="0">
				<title>j0np7or8</title>
			</path>
			<rect x="282" y="1605" width="0" height="0"/>
			<path d="M282,1605L282,1605" tabindex="0">
				<title>00:16.05 on 2021-02-09</title>
			</path>
			<line x1="0" y1="1605" x2="1185" y2="1605"/>
			<line x1="282" y1="0" x2="282" y2="2468"/>
		</g>
		<g style="--index: 5;">
			<path d="M283,1929" tabindex="0">
				<title>xk4gqk2j</title>
			</path>
			<rect x="283" y="1929" width="0" height="0"/>
			<path d="M283,1929L283,1929" tabindex="0">
				<title>00:19.29 on 2021-02-10</title>
			</path>
			<line x1="0" y1="1929" x2="1185" y2="1929"/>
			<line x1="283" y1="0" x2="283" y2="2468"/>
		</g>
		<g style="--index: 6;">
			<path d="M283,2468" tabindex="0">
				<title>8qr3vyqj</title>
			</path>
			<rect x="283" y="2468" width="0" height="0"/>
			<path d="M283,2468L283,2468" tabindex="0">
				<title>00:24.68 on 2021-02-10</title>
			</path>
			<line x1="0" y1="2468" x2="1185" y2="2468"/>
			<line x1="283" y1="0" x2="283" y2="2468"/>
		</g>
		<g style="--index: 7;">
			<path d="M334,1647" tabindex="0">
				<title>8en1p568</title>
			</path>
			<rect x="334" y="1647" width="0" height="0"/>
			<path d="M334,1647L334,1647" tabindex="0">
				<title>00:16.47 on 2021-04-02</title>
			</path>
			<line x1="0" y1="1647" x2="1185" y2="1647"/>
			<line x1="334" y1="0" x2="334" y2="2468"/>
		</g>
		<g style="--index: 8;">
			<path d="M361,2163" tabindex="0">
				<title>j96025rj</title>
			</path>
			<rect x="361" y="2163" width="0" height="0"/>
			<path d="M361,2163L361,2163" tabindex="0">
				<title>00:21.63 on 2021-04-29</title>
			</path>
			<line x1="0" y1="2163" x2="1185" y2="2163"/>
			<line x1="361" y1="0" x2="361" y2="2468"/>
		</g>
		<g style="--index: 9;">
			<path d="M365,1975" tabindex="0">
				<title>jnzwvm1j</title>
			</path>
			<rect x="365" y="1975" width="0" height="0"/>
			<path d="M365,1975L365,1975" tabindex="0">
				<title>00:19.75 on 2021-05-03</title>
			</path>
			<line x1="0" y1="1975" x2="1185" y2="1975"/>
			<line x1="365" y1="0" x2="365" y2="2468"/>
		</g>
		<g style="--index: 10;">
			<path d="M443,1892L444,1892L444,1600" tabindex="0">
				<title>8w19ky4x</title>
			</path>
			<rect x="443" y="1600" width="1" height="292"/>
			<path d="M443,1892L443,1892" tabindex="0">
				<title>00:18.92 on 2021-07-20</title>
			</path>
			<line x1="0" y1="1892" x2="1185" y2="1892"/>
			<line x1="443" y1="0" x2="443" y2="2468"/>
			<path d="M444,1600L444,1600" tabindex="0">
				<title>00:16.00 on 2021-07-21</title>
			</path>
			<line x1="0" y1="1600" x2="1185" y2="1600"/>
			<line x1="444" y1="0" x2="444" y2="2468"/>
		</g>
		<g style="--index: 11;">
			<path d="M464,1595" tabindex="0">
				<title>jnzen32j</title>
			</path>
			<rect x="464" y="1595" width="0" height="0"/>
			<path d="M464,1595L464,1595" tabindex="0">
				<title>00:15.95 on 2021-08-10</title>
			</path>
			<line x1="0" y1="1595" x2="1185" y2="1595"/>
			<line x1="464" y1="0" x2="464" y2="2468"/>
		</g>
		<g style="--index: 12;">
			<path d="M494,1634" tabindex="0">
				<title>j9rlkzoj</title>
			</path>
			<rect x="494" y="1634" width="0" height="0"/>
			<path d="M494,1634L494,1634" tabindex="0">
				<title>00:16.34 on 2021-09-09</title>
			</path>
			<line x1="0" y1="1634" x2="1185" y2="1634"/>
			<line x1="494" y1="0" x2="494" y2="2468"/>
		</g>
		<g style="--index: 13;">
			<path d="M553,2211" tabindex="0">
				<title>xkm0k06j</title>
			</path>
			<rect x="553" y="2211" width="0" height="0"/>
			<path d="M553,2211L553,2211" tabindex="0">
				<title>00:22.11 on 2021-11-07</title>
			</path>
			<line x1="0" y1="2211" x2="1185" y2="2211"/>
			<line x1="553" y1="0" x2="553" y2="2468"/>
		</g>
		<g style="--index: 14;">
			<path d="M690,1730" tabindex="0">
				<title>x335e97x</title>
			</path>
			<rect x="690" y="1730" width="0" height="0"/>
			<path d="M690,1730L690,1730" tabindex="0">
				<title>00:17.30 on 2022-03-24</title>
			</path>
			<line x1="0" y1="1730" x2="1185" y2="1730"/>
			<line x1="690" y1="0" x2="690" y2="2468"/>
		</g>
		<g style="--index: 15;">
			<path d="M727,1561L764,1561L764,1466" tabindex="0">
				<title>xk3m6d68</title>
			</path>
			<rect x="727" y="1466" width="37" height="95"/>
			<path d="M727,1561L727,1561" tabindex="0">
				<title>00:15.61 on 2022-04-30</title>
			</path>
			<line x1="0" y1="1561" x2="1185" y2="1561"/>
			<line x1="727" y1="0" x2="727" y2="2468"/>
			<path d="M764,1466L764,1466" tabindex="0">
				<title>00:14.66 on 2022-06-06</title>
			</path>
			<line x1="0" y1="1466" x2="1185" y2="1466"/>
			<line x1="764" y1="0" x2="764" y2="2468"/>
		</g>
		<g style="--index: 16;">
			<path d="M743,1582L746,1582L746,1548L747,1548L747,1486" tabindex="0">
				<title>8lpmq72j</title>
			</path>
			<rect x="743" y="1486" width="4" height="96"/>
			<path d="M743,1582L743,1582" tabindex="0">
				<title>00:15.82 on 2022-05-16</title>
			</path>
			<line x1="0" y1="1582" x2="1185" y2="1582"/>
			<line x1="743" y1="0" x2="743" y2="2468"/>
			<path d="M746,1548L746,1548" tabindex="0">
				<title>00:15.48 on 2022-05-19</title>
			</path>
			<line x1="0" y1="1548" x2="1185" y2="1548"/>
			<line x1="746" y1="0" x2="746" y2="2468"/>
			<path d="M747,1486L747,1486" tabindex="0">
				<title>00:14.86 on 2022-05-20</title>
			</path>
			<line x1="0" y1="1486" x2="1185" y2="1486"/>
			<line x1="747" y1="0" x2="747" y2="2468"/>
		</g>
		<g style="--index: 17;">
			<path d="M793,1554L863,1554L863,1484L913,1484L913,1461" tabindex="0">
				<title>j4235d5x</title>
			</path>
			<rect x="793" y="1461" width="120" height="93"/>
			<path d="M793,1554L793,1554" tabindex="0">
				<title>00:15.54 on 2022-07-05</title>
			</path>
			<line x1="0" y1="1554" x2="1185" y2="1554"/>
			<line x1="793" y1="0" x2="793" y2="2468"/>
			<path d="M863,1484L863,1484" tabindex="0">
				<title>00:14.84 on 2022-09-13</title>
			</path>
			<line x1="0" y1="1484" x2="1185" y2="1484"/>
			<line x1="863" y1="0" x2="863" y2="2468"/>
			<path d="M913,1461L913,1461" tabindex="0">
				<title>00:14.61 on 2022-11-02</title>
			</path>
			<line x1="0" y1="1461" x2="1185" y2="1461"/>
			<line x1="913" y1="0" x2="913" y2="2468"/>
		</g>
		<g style="--index: 18;">
			<path d="M848,2007" tabindex="0">
				<title>8q6r1noj</title>
			</path>
			<rect x="848" y="2007" width="0" height="0"/>
			<path d="M848,2007L848,2007" tabindex="0">
				<title>00:20.07 on 2022-08-29</title>
			</path>
			<line x1="0" y1="2007" x2="1185" y2="2007"/>
			<line x1="848" y1="0" x2="848" y2="2468"/>
		</g>
		<g style="--index: 19;">
			<path d="M951,1821" tabindex="0">
				<title>8g0ezgyx</title>
			</path>
			<rect x="951" y="1821" width="0" height="0"/>
			<path d="M951,1821L951,1821" tabindex="0">
				<title>00:18.21 on 2022-12-10</title>
			</path>
			<line x1="0" y1="1821" x2="1185" y2="1821"/>
			<line x1="951" y1="0" x2="951" y2="2468"/>
		</g>
		<g style="--index: 20;">
			<path d="M1061,1787" tabindex="0">
				<title>8lol57v8</title>
			</path>
			<rect x="1061" y="1787" width="0" height="0"/>
			<path d="M1061,1787L1061,1787" tabindex="0">
				<title>00:17.87 on 2023-03-30</title>
			</path>
			<line x1="0" y1="1787" x2="1185" y2="1787"/>
			<line x1="1061" y1="0" x2="1061" y2="2468"/>
		</g>
		<g style="--index: 21;">
			<path d="M1177,2380" tabindex="0">
				<title>8rmpyp6j</title>
			</path>
			<rect x="1177" y="2380" width="0" height="0"/>
			<path d="M1177,2380L1177,2380" tabindex="0">
				<title>00:23.80 on 2023-07-24</title>
			</path>
			<line x1="0" y1="2380" x2="1185" y2="2380"/>
			<line x1="1177" y1="0" x2="1177" y2="2468"/>
		</g>
		<g style="--index: 22;">
			<path d="M1185,1712" tabindex="0">
				<title>8ew371p8</title>
			</path>
			<rect x="1185" y="1712" width="0" height="0"/>
			<path d="M1185,1712L1185,1712" tabindex="0">
				<title>00:17.12 on 2023-08-01</title>
			</path>
			<line x1="0" y1="1712" x2="1185" y2="1712"/>
			<line x1="1185" y1="0" x2="1185" y2="2468"/>
		</g>
	</g>
</svg>
