<svg xmlns="http://www.w3.org/2000/svg" viewBox="0 0 1185 2468" preserveAspectRatio="none" lang="en" style="color-scheme: dark light;">
		<title>Time by player for leaderboard 9kv6l5e2-ql6rezjl.jq6d86v1</title>
		<style>
			svg {
				background: var(--canvas-background);
				fill: var(--canvas-background);
				stroke: var(--canvas-foreground);
				stroke-linejoin: round;
				stroke-linecap: round;
			}
			g &gt; path[tabindex] {
				vector-effect: non-scaling-stroke;
				fill: none;
				stroke: hsl(calc(var(--index) / var(--count) * 360), 50%, 50%);
				cursor: help;
			}
			g:is(:hover, :focus-within) &gt; path[tabindex] {
				stroke: var(--canvas-foreground);
			}
			g &gt; path[tabindex]:is(:hover, :focus-within) {
				outline: 0;
			}
			g &gt; path[tabindex]:first-of-type {
				stroke-width: 2;
			}
			g &gt; path[tabindex]:first-of-type:is(:hover, :focus-within) {
				stroke-width: 4;
			}
			g &gt; path[tabindex]:first-of-type:not(:last-of-type) {
				stroke-dasharray: 4 8;
			}
			g &gt; rect {
				vector-effect: non-scaling-stroke;
				fill: none;
				stroke: none;
				pointer-events: none;
			}
			g &gt; path[tabindex]:first-of-type:is(:hover, :focus-within) + rect {
				fill: var(--highlighted);
			}
			g &gt; path[tabindex]:first-of-type ~ path[tabindex] {
				stroke-width: 8;
			}
			g &gt; path[tabindex]:first-of-type ~ path[tabindex]:is(:hover, :focus-within) {
				stroke-width: 16;
			}
			g &gt; line {
				vector-effect: non-scaling-stroke;
				fill: none;
				stroke: none;
				stroke-width: 2;
				stroke-dasharray: 4 8;
				pointer-events: none;
			}
			g &gt; path[tabindex]:first-of-type:is(:hover, :focus-within) + rect + path[tabindex] + line,
			g &gt; path[tabindex]:first-of-type:is(:hover, :focus-within) + rect + path[tabindex] + line + line,
			g &gt; path[tabindex]:first-of-type:is(:hover, :focus-within) ~ path[tabindex]:last-of-type + line,
			g &gt; path[tabindex]:first-of-type:is(:hover, :focus-within) ~ path[tabindex]:last-of-type + line + line,
			g &gt; path[tabindex]:first-of-type ~ path[tabindex]:is(:hover, :focus-within) + line,
			g &gt; path[tabindex]:first-of-type ~ path[tabindex]:is(:hover, :focus-within) + line + line {
				stroke: var(--faded);
			}
			@media (prefers-color-scheme: dark) {
				:root {
					--canvas-background: #000;
					--canvas-foreground: #ccc;
					--highlighted: #6663;
					--faded: #9993;
				}
			}
			@media (prefers-color-scheme: light) {
				:root {
					--canvas-background: #fff;
					--canvas-foreground: #333;
					--highlighted: #9993;
					--faded: #6663;
				}
			}
		</style>
		<g style="--count: 23;">
		<g style="--index: 0;">
			<path d="M0,764" tabindex="0">
				<title>y8dgoe98</title>
			</path>
			<rect x="0" y="764" width="0" height="0"/>
			<path d="M0,764L0,764" tabindex="0">
				<title>00:17.04 on 2020-05-03</title>
			</path>
			<line x1="0" y1="764" x2="1185" y2="764"/>
			<line x1="0" y1="2468" x2="0" y2="0"/>
		</g>
		<g style="--index: 1;">
			<path d="M0,649L1061,649L1061,1009" tabindex="0">
				<title>0jmw6wex</title>
			</path>
			<rect x="0" y="649" width="1061" height="360"/>
			<path d="M0,649L0,649" tabindex="0">
				<title>00:18.19 on 2020-05-03</title>
			</path>
			<line x1="0" y1="649" x2="1185" y2="649"/>
			<line x1="0" y1="2468" x2="0" y2="0"/>
			<path d="M1061,1009L1061,1009" tabindex="0">
				<title>00:14.59 on 2023-03-30</title>
			</path>
			<line x1="0" y1="1009" x2="1185" y2="1009"/>
			<line x1="1061" y1="2468" x2="1061" y2="0"/>
		</g>
		<g style="--index: 2;">
			<path d="M258,1081L294,1081L294,1088L296,1088L296,1116" tabindex="0">
				<title>xkon93k8</title>
			</path>
			<rect x="258" y="1081" width="38" height="35"/>
			<path d="M258,1081L258,1081" tabindex="0">
				<title>00:13.87 on 2021-01-16</title>
			</path>
			<line x1="0" y1="1081" x2="1185" y2="1081"/>
			<line x1="258" y1="2468" x2="258" y2="0"/>
			<path d="M294,1088L294,1088" tabindex="0">
				<title>00:13.80 on 2021-02-21</title>
			</path>
			<line x1="0" y1="1088" x2="1185" y2="1088"/>
			<line x1="294" y1="2468" x2="294" y2="0"/>
			<path d="M296,1116L296,1116" tabindex="0">
				<title>00:13.52 on 2021-02-23</title>
			</path>
			<line x1="0" y1="1116" x2="1185" y2="1116"/>
			<line x1="296" y1="2468" x2="296" y2="0"/>
		</g>
		<g style="--index: 3;">
			<path d="M282,968" tabindex="0">
				<title>x356nrej</title>
			</path>
			<rect x="282" y="968" width="0" height="0"/>
			<path d="M282,968L282,968" tabindex="0">
				<title>00:15.00 on 2021-02-09</title>
			</path>
			<line x1="0" y1="968" x2="1185" y2="968"/>
			<line x1="282" y1="2468" x2="282" y2="0"/>
		</g>
		<g style="--index: 4;">
			<path d="M282,863" tabindex="0">
				<title>j0np7or8</title>
			</path>
			<rect x="282" y="863" width="0" height="0"/>
			<path d="M282,863L282,863" tabindex="0">
				<title>00:16.05 on 2021-02-09</title>
			</path>
			<line x1="0" y1="863" x2="1185" y2="863"/>
			<line x1="282" y1="2468" x2="282" y2="0"/>
		</g>
		<g style="--index: 5;">
			<path d="M283,539" tabindex="0">
				<title>xk4gqk2j</title>
			</path>
			<rect x="283" y="539" width="0" height="0"/>
			<path d="M283,539L283,539" tabindex="0">
				<title>00:19.29 on 2021-02-10</title>
			</path>
			<line x1="0" y1="539" x2="1185" y2="539"/>
			<line x1="283" y1="2468" x2="283" y2="0"/>
		</g>
		<g style="--index: 6;">
			<path d="M283,0" tabindex="0">
				<title>8qr3vyqj</title>
			</path>
			<rect x="283" y="0" width="0" height="0"/>
			<path d="M283,0L283,0" tabindex="0">
				<title>00:24.68 on 2021-02-10</title>
			</path>
			<line x1="0" y1="0" x2="1185" y2="0"/>
			<line x1="283" y1="2468" x2="283" y2="0"/>
		</g>
		<g style="--index: 7;">
			<path d="M334,821" tabindex="0">
				<title>8en1p568</title>
			</path>
			<rect x="334" y="821" width="0" height="0"/>
			<path d="M334,821L334,821" tabindex="0">
				<title>00:16.47 on 2021-04-02</title>
			</path>
			<line x1="0" y1="821" x2="1185" y2="821"/>
			<line x1="334" y1="2468" x2="334" y2="0"/>
		</g>
		<g style="--index: 8;">
			<path d="M361,305" tabindex="0">
				<title>j96025rj</title>
			</path>
			<rect x="361" y="305" width="0" height="0"/>
			<path d="M361,305L361,305" tabindex="0">
				<title>00:21.63 on 2021-04-29</title>
			</path>
			<line x1="0" y1="305" x2="1185" y2="305"/>
			<line x1="361" y1="2468" x2="361" y2="0"/>
		</g>
		<g style="--index: 9;">
			<path d="M365,493" tabindex="0">
				<title>jnzwvm1j</title>
			</path>
			<rect x="365" y="493" width="0" height="0"/>
			<path d="M365,493L365,493" tabindex="0">
				<title>00:19.75 on 2021-05-03</title>
			</path>
			<line x1="0" y1="493" x2="1185" y2="493"/>
			<line x1="365" y1="2468" x2="365" y2="0"/>
		</g>
		<g style="--index: 10;">
			<path d="M443,576L444,576L444,868" tabindex="0">
				<title>8w19ky4x</title>
			</path>
			<rect x="443" y="576" width="1" height="292"/>
			<path d="M443,576L443,576" tabindex="0">
				<title>00:18.92 on 2021-07-20</title>
			</path>
			<line x1="0" y1="576" x2="1185" y2="576"/>
			<line x1="443" y1="2468" x2="443" y2="0"/>
			<path d="M444,868L444,868" tabindex="0">
				<title>00:16.00 on 2021-07-21</title>
			</path>
			<line x1="0" y1="868" x2="1185" y2="868"/>
			<line x1="444" y1="2468" x2="444" y2="0"/>
		</g>
		<g style="--index: 11;">
			<path d="M464,873" tabindex="0">
				<title>jnzen32j</title>
			</path>
			<rect x="464" y="873" width="0" height="0"/>
			<path d="M464,873L464,873" tabindex="0">
				<title>00:15.95 on 2021-08-10</title>
			</path>
			<line x1="0" y1="873" x2="1185" y2="873"/>
			<line x1="464" y1="2468" x2="464" y2="0"/>
		</g>
		<g style="--index: 12;">
			<path d="M494,834" tabindex="0">
				<title>j9rlkzoj</title>
			</path>
			<rect x="494" y="834" width="0" height="0"/>
			<path d="M494,834L494,834" tabindex="0">
				<title>00:16.34 on 2021-09-09</title>
			</path>
			<line x1="0" y1="834" x2="1185" y2="834"/>
			<line x1="494" y1="2468" x2="494" y2="0"/>
		</g>
		<g style="--index: 13;">
			<path d="M553,257" tabindex="0">
				<title>xkm0k06j</title>
			</path>
			<rect x="553" y="257" width="0" height="0"/>
			<path d="M553,257L553,257" tabindex="0">
				<title>00:22.11 on 2021-11-07</title>
			</path>
			<line x1="0" y1="257" x2="1185" y2="257"/>
			<line x1="553" y1="2468" x2="553" y2="0"/>
		</g>
		<g style="--index: 14;">
			<path d="M690,738" tabindex="0">
				<title>x335e97x</title>
			</path>
			<rect x="690" y="738" width="0" height="0"/>
			<path d="M690,738L690,738" tabindex="0">
				<title>00:17.30 on 2022-03-24</title>
			</path>
			<line x1="0" y1="738" x2="1185" y2="738"/>
			<line x1="690" y1="2468" x2="690" y2="0"/>
		</g>
		<g style="--index: 15;">
			<path d="M727,907L764,907L764,1002" tabindex="0">
				<title>xk3m6d68</title>
			</path>
			<rect x="727" y="907" width="37" height="95"/>
			<path d="M727,907L727,907" tabindex="0">
				<title>00:15.61 on 2022-04-30</title>
			</path>
			<line x1="0" y1="907" x2="1185" y2="907"/>
			<line x1="727" y1="2468" x2="727" y2="0"/>
			<path d="M764,1002L764,1002" tabindex="0">
				<title>00:14.66 on 2022-06-06</title>
			</path>
			<line x1="0" y1="1002" x2="1185" y2="1002"/>
			<line x1="764" y1="2468" x2="764" y2="0"/>
		</g>
		<g style="--index: 16;">
			<path d="M743,886L746,886L746,920L747,920L747,982" tabindex="0">
				<title>8lpmq72j</title>
			</path>
			<rect x="743" y="886" width="4" height="96"/>
			<path d="M743,886L743,886" tabindex="0">
				<title>00:15.82 on 2022-05-16</title>
			</path>
			<line x1="0" y1="886" x2="1185" y2="886"/>
			<line x1="743" y1="2468" x2="743" y2="0"/>
			<path d="M746,920L746,920" tabindex="0">
				<title>00:15.48 on 2022-05-19</title>
			</path>
			<line x1="0" y1="920" x2="1185" y2="920"/>
			<line x1="746" y1="2468" x2="746" y2="0"/>
			<path d="M747,982L747,982" tabindex="0">
				<title>00:14.86 on 2022-05-20</title>
			</path>
			<line x1="0" y1="982" x2="1185" y2="982"/>
			<line x1="747" y1="2468" x2="747" y2="0"/>
		</g>
		<g style="--index: 17;">
			<path d="M793,914L863,914L863,984L913,984L913,1007" tabindex="0">
				<title>j4235d5x</title>
			</path>
			<rect x="793" y="914" width="120" height="93"/>
			<path d="M793,914L793,914" tabindex="0">
				<title>00:15.54 on 2022-07-05</title>
			</path>
			<line x1="0" y1="914" x2="1185" y2="914"/>
			<line x1="793" y1="2468" x2="793" y2="0"/>
			<path d="M863,984L863,984" tabindex="0">
				<title>00:14.84 on 2022-09-13</title>
			</path>
			<line x1="0" y1="984" x2="1185" y2="984"/>
			<line x1="863" y1="2468" x2="863" y2="0"/>
			<path d="M913,1007L913,1007" tabindex="0">
				<title>00:14.61 on 2022-11-02</title>
			</path>
			<line x1="0" y1="1007" x2="1185" y2="1007"/>
			<line x1="913" y1="2468" x2="913" y2="0"/>
		</g>
		<g style="--index: 18;">
			<path d="M848,461" tabindex="0">
				<title>8q6r1noj</title>
			</path>
			<rect x="848" y="461" width="0" height="0"/>
			<path d="M848,461L848,461" tabindex="0">
				<title>00:20.07 on 2022-08-29</title>
			</path>
			<line x1="0" y1="461" x2="1185" y2="461"/>
			<line x1="848" y1="2468" x2="848" y2="0"/>
		</g>
		<g style="--index: 19;">
			<path d="M951,647" tabindex="0">
				<title>8g0ezgyx</title>
			</path>
			<rect x="951" y="647" width="0" height="0"/>
			<path d="M951,647L951,647" tabindex="0">
				<title>00:18.21 on 2022-12-10</title>
			</path>
			<line x1="0" y1="647" x2="1185" y2="647"/>
			<line x1="951" y1="2468" x2="951" y2="0"/>
		</g>
		<g style="--index: 20;">
			<path d="M1061,681" tabindex="0">
				<title>8lol57v8</title>
			</path>
			<rect x="1061" y="681" width="0" height="0"/>
			<path d="M1061,681L1061,681" tabindex="0">
				<title>00:17.87 on 2023-03-30</title>
			</path>
			<line x1="0" y1="681" x2="1185" y2="681"/>
			<line x1="1061" y1="2468" x2="1061" y2="0"/>
		</g>
		<g style="--index: 21;">
			<path d="M1177,88" tabindex="0">
				<title>8rmpyp6j</title>
			</path>
			<rect x="1177" y="88" width="0" height="0"/>
			<path d="M1177,88L1177,88" tabindex="0">
				<title>00:23.80 on 2023-07-24</title>
			</path>
			<line x1="0" y1="88" x2="1185" y2="88"/>
			<line x1="1177" y1="2468" x2="1177" y2="0"/>
		</g>
		<g style="--index: 22;">
			<path d="M1185,756" tabindex="0">
				<title>8ew371p8</title>
			</path>
			<rect x="1185" y="756" width="0" height="0"/>
			<path d="M1185,756L1185,756" tabindex="0">
				<title>00:17.12 on 2023-08-01</title>
			</path>
			<line x1="0" y1="756" x2="1185" y2="756"/>
			<line x1="1185" y1="2468" x2="1185" y2="0"/>
		</g>
	</g>
</svg>
