<svg xmlns="http://www.w3.org/2000/svg" viewBox="0 0 210 2475" preserveAspectRatio="none" lang="en" style="color-scheme: dark light;">
		<title>Time by player for leaderboard 9kv6l5e2-ql6rezjl.1dk62o3l</title>
		<style>
			svg {
				background: var(--canvas-background);
				fill: var(--canvas-background);
				stroke: var(--canvas-foreground);
				stroke-linejoin: round;
				stroke-linecap: round;
			}
			g &gt; path[tabindex] {
				vector-effect: non-scaling-stroke;
				fill: none;
				stroke: hsl(calc(var(--index) / var(--count) * 360), 50%, 50%);
				cursor: help;
			}
			g:is(:hover, :focus-within) &gt; path[tabindex] {
				stroke: var(--canvas-foreground);
			}
			g &gt; path[tabindex]:is(:hover, :focus-within) {
				outline: 0;
			}
			g &gt; path[tabindex]:first-of-type {
				stroke-width: 2;
			}
			g &gt; path[tabindex]:first-of-type:is(:hover, :focus-within) {
				stroke-width: 4;
			}
			g &gt; path[tabindex]:first-of-type:not(:last-of-type) {
				stroke-dasharray: 4 8;
			}
			g &gt; rect {
				vector-effect: non-scaling-stroke;
				fill: none;
				stroke: none;
				pointer-events: none;
			}
			g &gt; path[tabindex]:first-of-type:is(:hover, :focus-within) + rect {
				fill: var(--highlighted);
			}
			g &gt; path[tabindex]:first-of-type ~ path[tabindex] {
				stroke-width: 8;
			}
			g &gt; path[tabindex]:first-of-type ~ path[tabindex]:is(:hover, :focus-within) {
				stroke-width: 16;
			}
			g &gt; line {
				vector-effect: non-scaling-stroke;
				fill: none;
				stroke: none;
				stroke-width: 2;
				stroke-dasharray: 4 8;
				pointer-events: none;
			}
			g &gt; path[tabindex]:first-of-type:is(:hover, :focus-within) + rect + path[tabindex] + line,
			g &gt; path[tabindex]:first-of-type:is(:hover, :focus-within) + rect + path[tabindex] + line + line,
			g &gt; path[tabindex]:first-of-type:is(:hover, :focus-within) ~ path[tabindex]:last-of-type + line,
			g &gt; path[tabindex]:first-of-type:is(:hover, :focus-within) ~ path[tabindex]:last-of-type + line + line,
			g &gt; path[tabindex]:first-of-type ~ path[tabindex]:is(:hover, :focus-within) + line,
			g &gt; path[tabindex]:first-of-type ~ path[tabindex]:is(:hover, :focus-within) + line + line {
				stroke: var(--faded);
			}
			@media (prefers-color-scheme: dark) {
				:root {
					--canvas-background: #000;
					--canvas-foreground: #ccc;
					--highlighted: #6663;
					--faded: #9993;
				}
			}
			@media (prefers-color-scheme: light) {
				:root {
					--canvas-background: #fff;
					--canvas-foreground: #333;
					--highlighted: #9993;
					--faded: #6663;
				}
			}
		</style>
		<g style="--count: 17;">
		<g style="--index: 0;">
			<path d="M0,0" tabindex="0">
				<title>xz1nv0ej</title>
			</path>
			<rect x="0" y="0" width="0" height="0"/>
			<path d="M0,0L0,0" tabindex="0">
				<title>00:24.75 on 2023-07-05</title>
			</path>
			<line x1="0" y1="0" x2="210" y2="0"/>
			<line x1="0" y1="2475" x2="0" y2="0"/>
		</g>
		<g style="--index: 1;">
			<path d="M11,1001L26,1001L26,1723" tabindex="0">
				<title>x3wdlvkj</title>
			</path>
			<rect x="11" y="1001" width="15" height="722"/>
			<path d="M11,1001L11,1001" tabindex="0">
				<title>00:14.74 on 2023-07-16</title>
			</path>
			<line x1="0" y1="1001" x2="210" y2="1001"/>
			<line x1="11" y1="2475" x2="11" y2="0"/>
			<path d="M26,1723L26,1723" tabindex="0">
				<title>00:07.52 on 2023-07-31</title>
			</path>
			<line x1="0" y1="1723" x2="210" y2="1723"/>
			<line x1="26" y1="2475" x2="26" y2="0"/>
		</g>
		<g style="--index: 2;">
			<path d="M12,1107" tabindex="0">
				<title>j9k252w8</title>
			</path>
			<rect x="12" y="1107" width="0" height="0"/>
			<path d="M12,1107L12,1107" tabindex="0">
				<title>00:13.68 on 2023-07-17</title>
			</path>
			<line x1="0" y1="1107" x2="210" y2="1107"/>
			<line x1="12" y1="2475" x2="12" y2="0"/>
		</g>
		<g style="--index: 3;">
			<path d="M13,1662L21,1662L21,1722" tabindex="0">
				<title>8v23g7yj</title>
			</path>
			<rect x="13" y="1662" width="8" height="60"/>
			<path d="M13,1662L13,1662" tabindex="0">
				<title>00:08.13 on 2023-07-18</title>
			</path>
			<line x1="0" y1="1662" x2="210" y2="1662"/>
			<line x1="13" y1="2475" x2="13" y2="0"/>
			<path d="M21,1722L21,1722" tabindex="0">
				<title>00:07.53 on 2023-07-26</title>
			</path>
			<line x1="0" y1="1722" x2="210" y2="1722"/>
			<line x1="21" y1="2475" x2="21" y2="0"/>
		</g>
		<g style="--index: 4;">
			<path d="M18,472" tabindex="0">
				<title>xk136v6j</title>
			</path>
			<rect x="18" y="472" width="0" height="0"/>
			<path d="M18,472L18,472" tabindex="0">
				<title>00:20.03 on 2023-07-23</title>
			</path>
			<line x1="0" y1="472" x2="210" y2="472"/>
			<line x1="18" y1="2475" x2="18" y2="0"/>
		</g>
		<g style="--index: 5;">
			<path d="M20,1255" tabindex="0">
				<title>8rmpyp6j</title>
			</path>
			<rect x="20" y="1255" width="0" height="0"/>
			<path d="M20,1255L20,1255" tabindex="0">
				<title>00:12.20 on 2023-07-25</title>
			</path>
			<line x1="0" y1="1255" x2="210" y2="1255"/>
			<line x1="20" y1="2475" x2="20" y2="0"/>
		</g>
		<g style="--index: 6;">
			<path d="M25,1357" tabindex="0">
				<title>j0w34198</title>
			</path>
			<rect x="25" y="1357" width="0" height="0"/>
			<path d="M25,1357L25,1357" tabindex="0">
				<title>00:11.18 on 2023-07-30</title>
			</path>
			<line x1="0" y1="1357" x2="210" y2="1357"/>
			<line x1="25" y1="2475" x2="25" y2="0"/>
		</g>
		<g style="--index: 7;">
			<path d="M27,1835L173,1835L173,1856" tabindex="0">
				<title>xkon93k8</title>
			</path>
			<rect x="27" y="1835" width="146" height="21"/>
			<path d="M27,1835L27,1835" tabindex="0">
				<title>00:06.40 on 2023-08-01</title>
			</path>
			<line x1="0" y1="1835" x2="210" y2="1835"/>
			<line x1="27" y1="2475" x2="27" y2="0"/>
			<path d="M173,1856L173,1856" tabindex="0">
				<title>00:06.19 on 2023-12-25</title>
			</path>
			<line x1="0" y1="1856" x2="210" y2="1856"/>
			<line x1="173" y1="2475" x2="173" y2="0"/>
		</g>
		<g style="--index: 8;">
			<path d="M35,1298" tabindex="0">
				<title>8qr3vyqj</title>
			</path>
			<rect x="35" y="1298" width="0" height="0"/>
			<path d="M35,1298L35,1298" tabindex="0">
				<title>00:11.77 on 2023-08-09</title>
			</path>
			<line x1="0" y1="1298" x2="210" y2="1298"/>
			<line x1="35" y1="2475" x2="35" y2="0"/>
		</g>
		<g style="--index: 9;">
			<path d="M37,1738L207,1738L207,1755L210,1755L210,1800" tabindex="0">
				<title>jpol4d58</title>
			</path>
			<rect x="37" y="1738" width="173" height="62"/>
			<path d="M37,1738L37,1738" tabindex="0">
				<title>00:07.37 on 2023-08-11</title>
			</path>
			<line x1="0" y1="1738" x2="210" y2="1738"/>
			<line x1="37" y1="2475" x2="37" y2="0"/>
			<path d="M207,1755L207,1755" tabindex="0">
				<title>00:07.20 on 2024-01-28</title>
			</path>
			<line x1="0" y1="1755" x2="210" y2="1755"/>
			<line x1="207" y1="2475" x2="207" y2="0"/>
			<path d="M210,1800L210,1800" tabindex="0">
				<title>00:06.75 on 2024-01-31</title>
			</path>
			<line x1="0" y1="1800" x2="210" y2="1800"/>
			<line x1="210" y1="2475" x2="210" y2="0"/>
		</g>
		<g style="--index: 10;">
			<path d="M38,1547" tabindex="0">
				<title>86r3dyw8</title>
			</path>
			<rect x="38" y="1547" width="0" height="0"/>
			<path d="M38,1547L38,1547" tabindex="0">
				<title>00:09.28 on 2023-08-12</title>
			</path>
			<line x1="0" y1="1547" x2="210" y2="1547"/>
			<line x1="38" y1="2475" x2="38" y2="0"/>
		</g>
		<g style="--index: 11;">
			<path d="M43,1533L45,1533L45,1625L93,1625L93,1730L158,1730L158,1738L161,1738L161,1751" tabindex="0">
				<title>8ew371p8</title>
			</path>
			<rect x="43" y="1533" width="118" height="218"/>
			<path d="M43,1533L43,1533" tabindex="0">
				<title>00:09.42 on 2023-08-17</title>
			</path>
			<line x1="0" y1="1533" x2="210" y2="1533"/>
			<line x1="43" y1="2475" x2="43" y2="0"/>
			<path d="M45,1625L45,1625" tabindex="0">
				<title>00:08.50 on 2023-08-19</title>
			</path>
			<line x1="0" y1="1625" x2="210" y2="1625"/>
			<line x1="45" y1="2475" x2="45" y2="0"/>
			<path d="M93,1730L93,1730" tabindex="0">
				<title>00:07.45 on 2023-10-06</title>
			</path>
			<line x1="0" y1="1730" x2="210" y2="1730"/>
			<line x1="93" y1="2475" x2="93" y2="0"/>
			<path d="M158,1738L158,1738" tabindex="0">
				<title>00:07.37 on 2023-12-10</title>
			</path>
			<line x1="0" y1="1738" x2="210" y2="1738"/>
			<line x1="158" y1="2475" x2="158" y2="0"/>
			<path d="M161,1751L161,1751" tabindex="0">
				<title>00:07.24 on 2023-12-13</title>
			</path>
			<line x1="0" y1="1751" x2="210" y2="1751"/>
			<line x1="161" y1="2475" x2="161" y2="0"/>
		</g>
		<g style="--index: 12;">
			<path d="M51,366" tabindex="0">
				<title>8w3l21qj</title>
			</path>
			<rect x="51" y="366" width="0" height="0"/>
			<path d="M51,366L51,366" tabindex="0">
				<title>00:21.09 on 2023-08-25</title>
			</path>
			<line x1="0" y1="366" x2="210" y2="366"/>
			<line x1="51" y1="2475" x2="51" y2="0"/>
		</g>
		<g style="--index: 13;">
			<path d="M87,1108" tabindex="0">
				<title>jokkvo38</title>
			</path>
			<rect x="87" y="1108" width="0" height="0"/>
			<path d="M87,1108L87,1108" tabindex="0">
				<title>00:13.67 on 2023-09-30</title>
			</path>
			<line x1="0" y1="1108" x2="210" y2="1108"/>
			<line x1="87" y1="2475" x2="87" y2="0"/>
		</g>
		<g style="--index: 14;">
			<path d="M92,1606" tabindex="0">
				<title>8ee6nod8</title>
			</path>
			<rect x="92" y="1606" width="0" height="0"/>
			<path d="M92,1606L92,1606" tabindex="0">
				<title>00:08.69 on 2023-10-05</title>
			</path>
			<line x1="0" y1="1606" x2="210" y2="1606"/>
			<line x1="92" y1="2475" x2="92" y2="0"/>
		</g>
		<g style="--index: 15;">
			<path d="M94,1846L176,1846L176,1875" tabindex="0">
				<title>jn2m23wj</title>
			</path>
			<rect x="94" y="1846" width="82" height="29"/>
			<path d="M94,1846L94,1846" tabindex="0">
				<title>00:06.29 on 2023-10-07</title>
			</path>
			<line x1="0" y1="1846" x2="210" y2="1846"/>
			<line x1="94" y1="2475" x2="94" y2="0"/>
			<path d="M176,1875L176,1875" tabindex="0">
				<title>00:06.00 on 2023-12-28</title>
			</path>
			<line x1="0" y1="1875" x2="210" y2="1875"/>
			<line x1="176" y1="2475" x2="176" y2="0"/>
		</g>
		<g style="--index: 16;">
			<path d="M148,1576" tabindex="0">
				<title>8g29g91j</title>
			</path>
			<rect x="148" y="1576" width="0" height="0"/>
			<path d="M148,1576L148,1576" tabindex="0">
				<title>00:08.99 on 2023-11-30</title>
			</path>
			<line x1="0" y1="1576" x2="210" y2="1576"/>
			<line x1="148" y1="2475" x2="148" y2="0"/>
		</g>
	</g>
</svg>
