<svg xmlns="http://www.w3.org/2000/svg" viewBox="0 0 704 2324" preserveAspectRatio="none" lang="en" style="color-scheme: dark light;">
		<title>Time by player for leaderboard l_495zlx39-9d8eewld-2lgr793n.jqz35pg1</title>
		<style>
			svg {
				background: var(--canvas-background);
				fill: var(--canvas-background);
				stroke: var(--canvas-foreground);
				stroke-linejoin: round;
				stroke-linecap: round;
			}
			g &gt; path[tabindex] {
				vector-effect: non-scaling-stroke;
				fill: none;
				stroke: hsl(calc(var(--index) / var(--count) * 360), 50%, 50%);
				cursor: help;
			}
			g:is(:hover, :focus-within) &gt; path[tabindex] {
				stroke: var(--canvas-foreground);
			}
			g &gt; path[tabindex]:is(:hover, :focus-within) {
				outline: 0;
			}
			g &gt; path[tabindex]:first-of-type {
				stroke-width: 2;
			}
			g &gt; path[tabindex]:first-of-type:is(:hover, :focus-within) {
				stroke-width: 4;
			}
			g &gt; path[tabindex]:first-of-type:not(:last-of-type) {
				stroke-dasharray: 4 8;
			}
			g &gt; rect {
				vector-effect: non-scaling-stroke;
				fill: none;
				stroke: none;
				pointer-events: none;
			}
			g &gt; path[tabindex]:first-of-type:is(:hover, :focus-within) + rect {
				fill: var(--highlighted);
			}
			g &gt; path[tabindex]:first-of-type ~ path[tabindex] {
				stroke-width: 8;
			}
			g &gt; path[tabindex]:first-of-type ~ path[tabindex]:is(:hover, :focus-within) {
				stroke-width: 16;
			}
			g &gt; line {
				vector-effect: non-scaling-stroke;
				fill: none;
				stroke: none;
				stroke-width: 2;
				stroke-dasharray: 4 8;
				pointer-events: none;
			}
			g &gt; path[tabindex]:first-of-type:is(:hover, :focus-within) + rect + path[tabindex] + line,
			g &gt; path[tabindex]:first-of-type:is(:hover, :focus-within) + rect + path[tabindex] + line + line,
			g &gt; path[tabindex]:first-of-type:is(:hover, :focus-within) ~ path[tabindex]:last-of-type + line,
			g &gt; path[tabindex]:first-of-type:is(:hover, :focus-within) ~ path[tabindex]:last-of-type + line + line,
			g &gt; path[tabindex]:first-of-type ~ path[tabindex]:is(:hover, :focus-within) + line,
			g &gt; path[tabindex]:first-of-type ~ path[tabindex]:is(:hover, :focus-within) + line + line {
				stroke: var(--faded);
			}
			@media (prefers-color-scheme: dark) {
				:root {
					--canvas-background: #000;
					--canvas-foreground: #ccc;
					--highlighted: #6663;
					--faded: #9993;
				}
			}
			@media (prefers-color-scheme: light) {
				:root {
					--canvas-background: #fff;
					--canvas-foreground: #333;
					--highlighted: #9993;
					--faded: #6663;
				}
			}
		</style>
		<g transform="scale(1 -1)" transform-origin="center center" style="--count: 14;">
		<g style="--index: 0;">
			<path d="M0,2236" tabindex="0">
				<title>jpo31408</title>
			</path>
			<rect x="0" y="2236" width="0" height="0"/>
			<path d="M0,2236L0,2236" tabindex="0">
				<title>00:22.36 on 2022-03-16</title>
			</path>
			<line x1="0" y1="2236" x2="704" y2="2236"/>
			<line x1="0" y1="0" x2="0" y2="2324"/>
		</g>
		<g style="--index: 1;">
			<path d="M10,2324" tabindex="0">
				<title>j96025rj</title>
			</path>
			<rect x="10" y="2324" width="0" height="0"/>
			<path d="M10,2324L10,2324" tabindex="0">
				<title>00:23.24 on 2022-03-26</title>
			</path>
			<line x1="0" y1="2324" x2="704" y2="2324"/>
			<line x1="10" y1="0" x2="10" y2="2324"/>
		</g>
		<g style="--index: 2;">
			<path d="M175,2261" tabindex="0">
				<title>8q6oyroj</title>
			</path>
			<rect x="175" y="2261" width="0" height="0"/>
			<path d="M175,2261L175,2261" tabindex="0">
				<title>00:22.61 on 2022-09-07</title>
			</path>
			<line x1="0" y1="2261" x2="704" y2="2261"/>
			<line x1="175" y1="0" x2="175" y2="2324"/>
		</g>
		<g style="--index: 3;">
			<path d="M271,2290L273,2290L273,1867" tabindex="0">
				<title>8w02m0vj</title>
			</path>
			<rect x="271" y="1867" width="2" height="423"/>
			<path d="M271,2290L271,2290" tabindex="0">
				<title>00:22.90 on 2022-12-12</title>
			</path>
			<line x1="0" y1="2290" x2="704" y2="2290"/>
			<line x1="271" y1="0" x2="271" y2="2324"/>
			<path d="M273,1867L273,1867" tabindex="0">
				<title>00:18.67 on 2022-12-14</title>
			</path>
			<line x1="0" y1="1867" x2="704" y2="1867"/>
			<line x1="273" y1="0" x2="273" y2="2324"/>
		</g>
		<g style="--index: 4;">
			<path d="M314,1698" tabindex="0">
				<title>x3m3kle8</title>
			</path>
			<rect x="314" y="1698" width="0" height="0"/>
			<path d="M314,1698L314,1698" tabindex="0">
				<title>00:16.98 on 2023-01-24</title>
			</path>
			<line x1="0" y1="1698" x2="704" y2="1698"/>
			<line x1="314" y1="0" x2="314" y2="2324"/>
		</g>
		<g style="--index: 5;">
			<path d="M324,1805" tabindex="0">
				<title>x76y1lyj</title>
			</path>
			<rect x="324" y="1805" width="0" height="0"/>
			<path d="M324,1805L324,1805" tabindex="0">
				<title>00:18.05 on 2023-02-03</title>
			</path>
			<line x1="0" y1="1805" x2="704" y2="1805"/>
			<line x1="324" y1="0" x2="324" y2="2324"/>
		</g>
		<g style="--index: 6;">
			<path d="M342,1669" tabindex="0">
				<title>jongn6l8</title>
			</path>
			<rect x="342" y="1669" width="0" height="0"/>
			<path d="M342,1669L342,1669" tabindex="0">
				<title>00:16.69 on 2023-02-21</title>
			</path>
			<line x1="0" y1="1669" x2="704" y2="1669"/>
			<line x1="342" y1="0" x2="342" y2="2324"/>
		</g>
		<g style="--index: 7;">
			<path d="M350,1663L701,1663L701,1436L702,1436L702,1426" tabindex="0">
				<title>jn2m23wj</title>
			</path>
			<rect x="350" y="1426" width="352" height="237"/>
			<path d="M350,1663L350,1663" tabindex="0">
				<title>00:16.63 on 2023-03-01</title>
			</path>
			<line x1="0" y1="1663" x2="704" y2="1663"/>
			<line x1="350" y1="0" x2="350" y2="2324"/>
			<path d="M701,1436L701,1436" tabindex="0">
				<title>00:14.36 on 2024-02-15</title>
			</path>
			<line x1="0" y1="1436" x2="704" y2="1436"/>
			<line x1="701" y1="0" x2="701" y2="2324"/>
			<path d="M702,1426L702,1426" tabindex="0">
				<title>00:14.26 on 2024-02-16</title>
			</path>
			<line x1="0" y1="1426" x2="704" y2="1426"/>
			<line x1="702" y1="0" x2="702" y2="2324"/>
		</g>
		<g style="--index: 8;">
			<path d="M350,1737" tabindex="0">
				<title>x3wdlvkj</title>
			</path>
			<rect x="350" y="1737" width="0" height="0"/>
			<path d="M350,1737L350,1737" tabindex="0">
				<title>00:17.37 on 2023-03-01</title>
			</path>
			<line x1="0" y1="1737" x2="704" y2="1737"/>
			<line x1="350" y1="0" x2="350" y2="2324"/>
		</g>
		<g style="--index: 9;">
			<path d="M527,1855" tabindex="0">
				<title>81mke9p8</title>
			</path>
			<rect x="527" y="1855" width="0" height="0"/>
			<path d="M527,1855L527,1855" tabindex="0">
				<title>00:18.55 on 2023-08-25</title>
			</path>
			<line x1="0" y1="1855" x2="704" y2="1855"/>
			<line x1="527" y1="0" x2="527" y2="2324"/>
		</g>
		<g style="--index: 10;">
			<path d="M550,1963L558,1963L558,1784" tabindex="0">
				<title>8v02q3nx</title>
			</path>
			<rect x="550" y="1784" width="8" height="179"/>
			<path d="M550,1963L550,1963" tabindex="0">
				<title>00:19.63 on 2023-09-17</title>
			</path>
			<line x1="0" y1="1963" x2="704" y2="1963"/>
			<line x1="550" y1="0" x2="550" y2="2324"/>
			<path d="M558,1784L558,1784" tabindex="0">
				<title>00:17.84 on 2023-09-25</title>
			</path>
			<line x1="0" y1="1784" x2="704" y2="1784"/>
			<line x1="558" y1="0" x2="558" y2="2324"/>
		</g>
		<g style="--index: 11;">
			<path d="M596,1747" tabindex="0">
				<title>xkpzggmj</title>
			</path>
			<rect x="596" y="1747" width="0" height="0"/>
			<path d="M596,1747L596,1747" tabindex="0">
				<title>00:17.47 on 2023-11-02</title>
			</path>
			<line x1="0" y1="1747" x2="704" y2="1747"/>
			<line x1="596" y1="0" x2="596" y2="2324"/>
		</g>
		<g style="--index: 12;">
			<path d="M660,1901" tabindex="0">
				<title>81mdk058</title>
			</path>
			<rect x="660" y="1901" width="0" height="0"/>
			<path d="M660,1901L660,1901" tabindex="0">
				<title>00:19.01 on 2024-01-05</title>
			</path>
			<line x1="0" y1="1901" x2="704" y2="1901"/>
			<line x1="660" y1="0" x2="660" y2="2324"/>
		</g>
		<g style="--index: 13;">
			<path d="M685,1676L686,1676L686,1648L703,1648L703,1526L704,1526L704,1478" tabindex="0">
				<title>jokvnml8</title>
			</path>
			<rect x="685" y="1478" width="19" height="198"/>
			<path d="M685,1676L685,1676" tabindex="0">
				<title>00:16.76 on 2024-01-30</title>
			</path>
			<line x1="0" y1="1676" x2="704" y2="1676"/>
			<line x1="685" y1="0" x2="685" y2="2324"/>
			<path d="M686,1648L686,1648" tabindex="0">
				<title>00:16.48 on 2024-01-31</title>
			</path>
			<line x1="0" y1="1648" x2="704" y2="1648"/>
			<line x1="686" y1="0" x2="686" y2="2324"/>
			<path d="M703,1526L703,1526" tabindex="0">
				<title>00:15.26 on 2024-02-17</title>
			</path>
			<line x1="0" y1="1526" x2="704" y2="1526"/>
			<line x1="703" y1="0" x2="703" y2="2324"/>
			<path d="M704,1478L704,1478" tabindex="0">
				<title>00:14.78 on 2024-02-18</title>
			</path>
			<line x1="0" y1="1478" x2="704" y2="1478"/>
			<line x1="704" y1="0" x2="704" y2="2324"/>
		</g>
	</g>
</svg>
