<svg xmlns="http://www.w3.org/2000/svg" viewBox="0 0 2028 7098" preserveAspectRatio="none" lang="en" style="color-scheme: dark light;">
	<title>Time by player for leaderboard l_495zlx39-9d8eewld-2lgr793n.21g8ownl</title>
	<style>
		svg {
			background: var(--canvas-background);
			fill: var(--canvas-background);
			stroke: var(--canvas-foreground);
			stroke-linejoin: round;
			stroke-linecap: round;
		}
		g &gt; path[tabindex] {
			vector-effect: non-scaling-stroke;
			fill: none;
			stroke: hsl(calc(var(--index) / var(--count) * 360), 50%, 50%);
			cursor: help;
		}
		g:is(:hover, :focus-within) &gt; path[tabindex] {
			stroke: var(--canvas-foreground);
		}
		g &gt; path[tabindex]:is(:hover, :focus-within) {
			outline: 0;
		}
		g &gt; path[tabindex]:first-of-type {
			stroke-width: 2;
		}
		g &gt; path[tabindex]:first-of-type:is(:hover, :focus-within) {
			stroke-width: 4;
		}
		g &gt; path[tabindex]:first-of-type:not(:last-of-type) {
			stroke-dasharray: 4 8;
		}
		g &gt; rect {
			vector-effect: non-scaling-stroke;
			fill: none;
			stroke: none;
			pointer-events: none;
		}
		g &gt; path[tabindex]:first-of-type:is(:hover, :focus-within) + rect {
			fill: var(--highlighted);
		}
		g &gt; path[tabindex]:first-of-type ~ path[tabindex] {
			stroke-width: 8;
		}
		g &gt; path[tabindex]:first-of-type ~ path[tabindex]:is(:hover, :focus-within) {
			stroke-width: 16;
		}
		g &gt; line {
			vector-effect: non-scaling-stroke;
			fill: none;
			stroke: none;
			stroke-width: 2;
			stroke-dasharray: 4 8;
			pointer-events: none;
		}
		g &gt; path[tabindex]:first-of-type:is(:hover, :focus-within) + rect + path[tabindex] + line,
		g &gt; path[tabindex]:first-of-type:is(:hover, :focus-within) + rect + path[tabindex] + line + line,
		g &gt; path[tabindex]:first-of-type:is(:hover, :focus-within) ~ path[tabindex]:last-of-type + line,
		g &gt; path[tabindex]:first-of-type:is(:hover, :focus-within) ~ path[tabindex]:last-of-type + line + line,
		g &gt; path[tabindex]:first-of-type ~ path[tabindex]:is(:hover, :focus-within) + line,
		g &gt; path[tabindex]:first-of-type ~ path[tabindex]:is(:hover, :focus-within) + line + line {
			stroke: var(--faded);
		}
		@media (prefers-color-scheme: dark) {
			:root {
				--canvas-background: #000;
				--canvas-foreground: #ccc;
				--highlighted: #6663;
				--faded: #9993;
			}
		}
		@media (prefers-color-scheme: light) {
			:root {
				--canvas-background: #fff;
				--canvas-foreground: #333;
				--highlighted: #9993;
				--faded: #6663;
			}
		}
	</style>
	<g transform="scale(1 -1)" transform-origin="center center" style="--count: 27;">
		<g style="--index: 0;">
			<path d="M0,4943" tabindex="0">
				<title>18qg9ndx</title>
			</path>
			<rect x="0" y="4943" width="0" height="0"/>
			<path d="M0,4943L0,4943" tabindex="0">
				<title>00:49.43 on 2018-04-10</title>
			</path>
			<line x1="0" y1="4943" x2="2028" y2="4943"/>
			<line x1="0" y1="0" x2="0" y2="7098"/>
		</g>
		<g style="--index: 1;">
			<path d="M86,3721" tabindex="0">
				<title>qj2pq1p8</title>
			</path>
			<rect x="86" y="3721" width="0" height="0"/>
			<path d="M86,3721L86,3721" tabindex="0">
				<title>00:37.21 on 2018-07-05</title>
			</path>
			<line x1="0" y1="3721" x2="2028" y2="3721"/>
			<line x1="86" y1="0" x2="86" y2="7098"/>
		</g>
		<g style="--index: 2;">
			<path d="M91,3550" tabindex="0">
				<title>y8dgoe98</title>
			</path>
			<rect x="91" y="3550" width="0" height="0"/>
			<path d="M91,3550L91,3550" tabindex="0">
				<title>00:35.50 on 2018-07-10</title>
			</path>
			<line x1="0" y1="3550" x2="2028" y2="3550"/>
			<line x1="91" y1="0" x2="91" y2="7098"/>
		</g>
		<g style="--index: 3;">
			<path d="M761,3201L882,3201L882,3148" tabindex="0">
				<title>x356nrej</title>
			</path>
			<rect x="761" y="3148" width="121" height="53"/>
			<path d="M761,3201L761,3201" tabindex="0">
				<title>00:32.01 on 2020-05-10</title>
			</path>
			<line x1="0" y1="3201" x2="2028" y2="3201"/>
			<line x1="761" y1="0" x2="761" y2="7098"/>
			<path d="M882,3148L882,3148" tabindex="0">
				<title>00:31.48 on 2020-09-08</title>
			</path>
			<line x1="0" y1="3148" x2="2028" y2="3148"/>
			<line x1="882" y1="0" x2="882" y2="7098"/>
		</g>
		<g style="--index: 4;">
			<path d="M819,3415" tabindex="0">
				<title>j92ldvv8</title>
			</path>
			<rect x="819" y="3415" width="0" height="0"/>
			<path d="M819,3415L819,3415" tabindex="0">
				<title>00:34.15 on 2020-07-07</title>
			</path>
			<line x1="0" y1="3415" x2="2028" y2="3415"/>
			<line x1="819" y1="0" x2="819" y2="7098"/>
		</g>
		<g style="--index: 5;">
			<path d="M873,3520" tabindex="0">
				<title>8dwnyqoj</title>
			</path>
			<rect x="873" y="3520" width="0" height="0"/>
			<path d="M873,3520L873,3520" tabindex="0">
				<title>00:35.20 on 2020-08-30</title>
			</path>
			<line x1="0" y1="3520" x2="2028" y2="3520"/>
			<line x1="873" y1="0" x2="873" y2="7098"/>
		</g>
		<g style="--index: 6;">
			<path d="M931,3107L964,3107L964,2902L971,2902L971,2885L979,2885L979,2875L991,2875L991,2804L1195,2804L1195,2612" tabindex="0">
				<title>xkon93k8</title>
			</path>
			<rect x="931" y="2612" width="264" height="495"/>
			<path d="M931,3107L931,3107" tabindex="0">
				<title>00:31.07 on 2020-10-27</title>
			</path>
			<line x1="0" y1="3107" x2="2028" y2="3107"/>
			<line x1="931" y1="0" x2="931" y2="7098"/>
			<path d="M964,2902L964,2902" tabindex="0">
				<title>00:29.02 on 2020-11-29</title>
			</path>
			<line x1="0" y1="2902" x2="2028" y2="2902"/>
			<line x1="964" y1="0" x2="964" y2="7098"/>
			<path d="M971,2885L971,2885" tabindex="0">
				<title>00:28.85 on 2020-12-06</title>
			</path>
			<line x1="0" y1="2885" x2="2028" y2="2885"/>
			<line x1="971" y1="0" x2="971" y2="7098"/>
			<path d="M979,2875L979,2875" tabindex="0">
				<title>00:28.75 on 2020-12-14</title>
			</path>
			<line x1="0" y1="2875" x2="2028" y2="2875"/>
			<line x1="979" y1="0" x2="979" y2="7098"/>
			<path d="M991,2804L991,2804" tabindex="0">
				<title>00:28.04 on 2020-12-26</title>
			</path>
			<line x1="0" y1="2804" x2="2028" y2="2804"/>
			<line x1="991" y1="0" x2="991" y2="7098"/>
			<path d="M1195,2612L1195,2612" tabindex="0">
				<title>00:26.12 on 2021-07-18</title>
			</path>
			<line x1="0" y1="2612" x2="2028" y2="2612"/>
			<line x1="1195" y1="0" x2="1195" y2="7098"/>
		</g>
		<g style="--index: 7;">
			<path d="M956,3447L988,3447L988,2905" tabindex="0">
				<title>x7q00668</title>
			</path>
			<rect x="956" y="2905" width="32" height="542"/>
			<path d="M956,3447L956,3447" tabindex="0">
				<title>00:34.47 on 2020-11-21</title>
			</path>
			<line x1="0" y1="3447" x2="2028" y2="3447"/>
			<line x1="956" y1="0" x2="956" y2="7098"/>
			<path d="M988,2905L988,2905" tabindex="0">
				<title>00:29.05 on 2020-12-23</title>
			</path>
			<line x1="0" y1="2905" x2="2028" y2="2905"/>
			<line x1="988" y1="0" x2="988" y2="7098"/>
		</g>
		<g style="--index: 8;">
			<path d="M958,3183L973,3183L973,2918L978,2918L978,2880L1194,2880L1194,2665L1551,2665L1551,2619" tabindex="0">
				<title>j0np7or8</title>
			</path>
			<rect x="958" y="2619" width="593" height="564"/>
			<path d="M958,3183L958,3183" tabindex="0">
				<title>00:31.83 on 2020-11-23</title>
			</path>
			<line x1="0" y1="3183" x2="2028" y2="3183"/>
			<line x1="958" y1="0" x2="958" y2="7098"/>
			<path d="M973,2918L973,2918" tabindex="0">
				<title>00:29.18 on 2020-12-08</title>
			</path>
			<line x1="0" y1="2918" x2="2028" y2="2918"/>
			<line x1="973" y1="0" x2="973" y2="7098"/>
			<path d="M978,2880L978,2880" tabindex="0">
				<title>00:28.80 on 2020-12-13</title>
			</path>
			<line x1="0" y1="2880" x2="2028" y2="2880"/>
			<line x1="978" y1="0" x2="978" y2="7098"/>
			<path d="M1194,2665L1194,2665" tabindex="0">
				<title>00:26.65 on 2021-07-17</title>
			</path>
			<line x1="0" y1="2665" x2="2028" y2="2665"/>
			<line x1="1194" y1="0" x2="1194" y2="7098"/>
			<path d="M1551,2619L1551,2619" tabindex="0">
				<title>00:26.19 on 2022-07-09</title>
			</path>
			<line x1="0" y1="2619" x2="2028" y2="2619"/>
			<line x1="1551" y1="0" x2="1551" y2="7098"/>
		</g>
		<g style="--index: 9;">
			<path d="M962,3361L963,3361L963,2983L1320,2983L1320,2589L1420,2589L1420,2586L1500,2586L1500,2529L1502,2529L1502,2520L1507,2520L1507,2498L1510,2498L1510,2489L1755,2489L1755,2454" tabindex="0">
				<title>8e9kl5dj</title>
			</path>
			<rect x="962" y="2454" width="793" height="907"/>
			<path d="M962,3361L962,3361" tabindex="0">
				<title>00:33.61 on 2020-11-27</title>
			</path>
			<line x1="0" y1="3361" x2="2028" y2="3361"/>
			<line x1="962" y1="0" x2="962" y2="7098"/>
			<path d="M963,2983L963,2983" tabindex="0">
				<title>00:29.83 on 2020-11-28</title>
			</path>
			<line x1="0" y1="2983" x2="2028" y2="2983"/>
			<line x1="963" y1="0" x2="963" y2="7098"/>
			<path d="M1320,2589L1320,2589" tabindex="0">
				<title>00:25.89 on 2021-11-20</title>
			</path>
			<line x1="0" y1="2589" x2="2028" y2="2589"/>
			<line x1="1320" y1="0" x2="1320" y2="7098"/>
			<path d="M1420,2586L1420,2586" tabindex="0">
				<title>00:25.86 on 2022-02-28</title>
			</path>
			<line x1="0" y1="2586" x2="2028" y2="2586"/>
			<line x1="1420" y1="0" x2="1420" y2="7098"/>
			<path d="M1500,2529L1500,2529" tabindex="0">
				<title>00:25.29 on 2022-05-19</title>
			</path>
			<line x1="0" y1="2529" x2="2028" y2="2529"/>
			<line x1="1500" y1="0" x2="1500" y2="7098"/>
			<path d="M1502,2520L1502,2520" tabindex="0">
				<title>00:25.20 on 2022-05-21</title>
			</path>
			<line x1="0" y1="2520" x2="2028" y2="2520"/>
			<line x1="1502" y1="0" x2="1502" y2="7098"/>
			<path d="M1507,2498L1507,2498" tabindex="0">
				<title>00:24.98 on 2022-05-26</title>
			</path>
			<line x1="0" y1="2498" x2="2028" y2="2498"/>
			<line x1="1507" y1="0" x2="1507" y2="7098"/>
			<path d="M1510,2489L1510,2489" tabindex="0">
				<title>00:24.89 on 2022-05-29</title>
			</path>
			<line x1="0" y1="2489" x2="2028" y2="2489"/>
			<line x1="1510" y1="0" x2="1510" y2="7098"/>
			<path d="M1755,2454L1755,2454" tabindex="0">
				<title>00:24.54 on 2023-01-29</title>
			</path>
			<line x1="0" y1="2454" x2="2028" y2="2454"/>
			<line x1="1755" y1="0" x2="1755" y2="7098"/>
		</g>
		<g style="--index: 10;">
			<path d="M963,3031L1059,3031L1059,2791L1423,2791L1423,2525L1508,2525L1508,2491L1536,2491L1536,2443" tabindex="0">
				<title>j2yr9lp8</title>
			</path>
			<rect x="963" y="2443" width="573" height="588"/>
			<path d="M963,3031L963,3031" tabindex="0">
				<title>00:30.31 on 2020-11-28</title>
			</path>
			<line x1="0" y1="3031" x2="2028" y2="3031"/>
			<line x1="963" y1="0" x2="963" y2="7098"/>
			<path d="M1059,2791L1059,2791" tabindex="0">
				<title>00:27.91 on 2021-03-04</title>
			</path>
			<line x1="0" y1="2791" x2="2028" y2="2791"/>
			<line x1="1059" y1="0" x2="1059" y2="7098"/>
			<path d="M1423,2525L1423,2525" tabindex="0">
				<title>00:25.25 on 2022-03-03</title>
			</path>
			<line x1="0" y1="2525" x2="2028" y2="2525"/>
			<line x1="1423" y1="0" x2="1423" y2="7098"/>
			<path d="M1508,2491L1508,2491" tabindex="0">
				<title>00:24.91 on 2022-05-27</title>
			</path>
			<line x1="0" y1="2491" x2="2028" y2="2491"/>
			<line x1="1508" y1="0" x2="1508" y2="7098"/>
			<path d="M1536,2443L1536,2443" tabindex="0">
				<title>00:24.43 on 2022-06-24</title>
			</path>
			<line x1="0" y1="2443" x2="2028" y2="2443"/>
			<line x1="1536" y1="0" x2="1536" y2="7098"/>
		</g>
		<g style="--index: 11;">
			<path d="M965,3270L966,3270L966,3133" tabindex="0">
				<title>x3507k7j</title>
			</path>
			<rect x="965" y="3133" width="1" height="137"/>
			<path d="M965,3270L965,3270" tabindex="0">
				<title>00:32.70 on 2020-11-30</title>
			</path>
			<line x1="0" y1="3270" x2="2028" y2="3270"/>
			<line x1="965" y1="0" x2="965" y2="7098"/>
			<path d="M966,3133L966,3133" tabindex="0">
				<title>00:31.33 on 2020-12-01</title>
			</path>
			<line x1="0" y1="3133" x2="2028" y2="3133"/>
			<line x1="966" y1="0" x2="966" y2="7098"/>
		</g>
		<g style="--index: 12;">
			<path d="M1045,3515" tabindex="0">
				<title>8en1p568</title>
			</path>
			<rect x="1045" y="3515" width="0" height="0"/>
			<path d="M1045,3515L1045,3515" tabindex="0">
				<title>00:35.15 on 2021-02-18</title>
			</path>
			<line x1="0" y1="3515" x2="2028" y2="3515"/>
			<line x1="1045" y1="0" x2="1045" y2="7098"/>
		</g>
		<g style="--index: 13;">
			<path d="M1107,7098" tabindex="0">
				<title>8l4g3z4j</title>
			</path>
			<rect x="1107" y="7098" width="0" height="0"/>
			<path d="M1107,7098L1107,7098" tabindex="0">
				<title>01:10.98 on 2021-04-21</title>
			</path>
			<line x1="0" y1="7098" x2="2028" y2="7098"/>
			<line x1="1107" y1="0" x2="1107" y2="7098"/>
		</g>
		<g style="--index: 14;">
			<path d="M1408,3679" tabindex="0">
				<title>81qn52qj</title>
			</path>
			<rect x="1408" y="3679" width="0" height="0"/>
			<path d="M1408,3679L1408,3679" tabindex="0">
				<title>00:36.79 on 2022-02-16</title>
			</path>
			<line x1="0" y1="3679" x2="2028" y2="3679"/>
			<line x1="1408" y1="0" x2="1408" y2="7098"/>
		</g>
		<g style="--index: 15;">
			<path d="M1436,5244" tabindex="0">
				<title>jpo31408</title>
			</path>
			<rect x="1436" y="5244" width="0" height="0"/>
			<path d="M1436,5244L1436,5244" tabindex="0">
				<title>00:52.44 on 2022-03-16</title>
			</path>
			<line x1="0" y1="5244" x2="2028" y2="5244"/>
			<line x1="1436" y1="0" x2="1436" y2="7098"/>
		</g>
		<g style="--index: 16;">
			<path d="M1446,3351" tabindex="0">
				<title>x72652r8</title>
			</path>
			<rect x="1446" y="3351" width="0" height="0"/>
			<path d="M1446,3351L1446,3351" tabindex="0">
				<title>00:33.51 on 2022-03-26</title>
			</path>
			<line x1="0" y1="3351" x2="2028" y2="3351"/>
			<line x1="1446" y1="0" x2="1446" y2="7098"/>
		</g>
		<g style="--index: 17;">
			<path d="M1449,3206" tabindex="0">
				<title>8dgwon98</title>
			</path>
			<rect x="1449" y="3206" width="0" height="0"/>
			<path d="M1449,3206L1449,3206" tabindex="0">
				<title>00:32.06 on 2022-03-29</title>
			</path>
			<line x1="0" y1="3206" x2="2028" y2="3206"/>
			<line x1="1449" y1="0" x2="1449" y2="7098"/>
		</g>
		<g style="--index: 18;">
			<path d="M1474,2946L1505,2946L1505,2563" tabindex="0">
				<title>xk3m6d68</title>
			</path>
			<rect x="1474" y="2563" width="31" height="383"/>
			<path d="M1474,2946L1474,2946" tabindex="0">
				<title>00:29.46 on 2022-04-23</title>
			</path>
			<line x1="0" y1="2946" x2="2028" y2="2946"/>
			<line x1="1474" y1="0" x2="1474" y2="7098"/>
			<path d="M1505,2563L1505,2563" tabindex="0">
				<title>00:25.63 on 2022-05-24</title>
			</path>
			<line x1="0" y1="2563" x2="2028" y2="2563"/>
			<line x1="1505" y1="0" x2="1505" y2="7098"/>
		</g>
		<g style="--index: 19;">
			<path d="M1520,2673" tabindex="0">
				<title>x3m3kle8</title>
			</path>
			<rect x="1520" y="2673" width="0" height="0"/>
			<path d="M1520,2673L1520,2673" tabindex="0">
				<title>00:26.73 on 2022-06-08</title>
			</path>
			<line x1="0" y1="2673" x2="2028" y2="2673"/>
			<line x1="1520" y1="0" x2="1520" y2="7098"/>
		</g>
		<g style="--index: 20;">
			<path d="M1555,2931" tabindex="0">
				<title>x33zmz7x</title>
			</path>
			<rect x="1555" y="2931" width="0" height="0"/>
			<path d="M1555,2931L1555,2931" tabindex="0">
				<title>00:29.31 on 2022-07-13</title>
			</path>
			<line x1="0" y1="2931" x2="2028" y2="2931"/>
			<line x1="1555" y1="0" x2="1555" y2="7098"/>
		</g>
		<g style="--index: 21;">
			<path d="M1693,3173" tabindex="0">
				<title>j06mpmwj</title>
			</path>
			<rect x="1693" y="3173" width="0" height="0"/>
			<path d="M1693,3173L1693,3173" tabindex="0">
				<title>00:31.73 on 2022-11-28</title>
			</path>
			<line x1="0" y1="3173" x2="2028" y2="3173"/>
			<line x1="1693" y1="0" x2="1693" y2="7098"/>
		</g>
		<g style="--index: 22;">
			<path d="M1706,3554" tabindex="0">
				<title>8lonqn28</title>
			</path>
			<rect x="1706" y="3554" width="0" height="0"/>
			<path d="M1706,3554L1706,3554" tabindex="0">
				<title>00:35.54 on 2022-12-11</title>
			</path>
			<line x1="0" y1="3554" x2="2028" y2="3554"/>
			<line x1="1706" y1="0" x2="1706" y2="7098"/>
		</g>
		<g style="--index: 23;">
			<path d="M1767,5367" tabindex="0">
				<title>jnplgpd8</title>
			</path>
			<rect x="1767" y="5367" width="0" height="0"/>
			<path d="M1767,5367L1767,5367" tabindex="0">
				<title>00:53.67 on 2023-02-10</title>
			</path>
			<line x1="0" y1="5367" x2="2028" y2="5367"/>
			<line x1="1767" y1="0" x2="1767" y2="7098"/>
		</g>
		<g style="--index: 24;">
			<path d="M1818,2927" tabindex="0">
				<title>j20zyvpx</title>
			</path>
			<rect x="1818" y="2927" width="0" height="0"/>
			<path d="M1818,2927L1818,2927" tabindex="0">
				<title>00:29.27 on 2023-04-02</title>
			</path>
			<line x1="0" y1="2927" x2="2028" y2="2927"/>
			<line x1="1818" y1="0" x2="1818" y2="7098"/>
		</g>
		<g style="--index: 25;">
			<path d="M1959,4430L2028,4430L2028,2766" tabindex="0">
				<title>8ew371p8</title>
			</path>
			<rect x="1959" y="2766" width="69" height="1664"/>
			<path d="M1959,4430L1959,4430" tabindex="0">
				<title>00:44.30 on 2023-08-21</title>
			</path>
			<line x1="0" y1="4430" x2="2028" y2="4430"/>
			<line x1="1959" y1="0" x2="1959" y2="7098"/>
			<path d="M2028,2766L2028,2766" tabindex="0">
				<title>00:27.66 on 2023-10-29</title>
			</path>
			<line x1="0" y1="2766" x2="2028" y2="2766"/>
			<line x1="2028" y1="0" x2="2028" y2="7098"/>
		</g>
		<g style="--index: 26;">
			<path d="M2026,2439" tabindex="0">
				<title>jn2m23wj</title>
			</path>
			<rect x="2026" y="2439" width="0" height="0"/>
			<path d="M2026,2439L2026,2439" tabindex="0">
				<title>00:24.39 on 2023-10-27</title>
			</path>
			<line x1="0" y1="2439" x2="2028" y2="2439"/>
			<line x1="2026" y1="0" x2="2026" y2="7098"/>
		</g>
	</g>
</svg>
