<svg xmlns="http://www.w3.org/2000/svg" viewBox="0 0 1893 66761" preserveAspectRatio="none" lang="en" style="color-scheme: dark light;">
		<title>Time by player for leaderboard l_495zlx39-9d8eewld-2lgr793n.p12dx07q</title>
		<style>
			svg {
				background: var(--canvas-background);
				fill: var(--canvas-background);
				stroke: var(--canvas-foreground);
				stroke-linejoin: round;
				stroke-linecap: round;
			}
			g &gt; path[tabindex] {
				vector-effect: non-scaling-stroke;
				fill: none;
				stroke: hsl(calc(var(--index) / var(--count) * 360), 50%, 50%);
				cursor: help;
			}
			g:is(:hover, :focus-within) &gt; path[tabindex] {
				stroke: var(--canvas-foreground);
			}
			g &gt; path[tabindex]:is(:hover, :focus-within) {
				outline: 0;
			}
			g &gt; path[tabindex]:first-of-type {
				stroke-width: 2;
			}
			g &gt; path[tabindex]:first-of-type:is(:hover, :focus-within) {
				stroke-width: 4;
			}
			g &gt; path[tabindex]:first-of-type:not(:last-of-type) {
				stroke-dasharray: 4 8;
			}
			g &gt; rect {
				vector-effect: non-scaling-stroke;
				fill: none;
				stroke: none;
				pointer-events: none;
			}
			g &gt; path[tabindex]:first-of-type:is(:hover, :focus-within) + rect {
				fill: var(--highlighted);
			}
			g &gt; path[tabindex]:first-of-type ~ path[tabindex] {
				stroke-width: 8;
			}
			g &gt; path[tabindex]:first-of-type ~ path[tabindex]:is(:hover, :focus-within) {
				stroke-width: 16;
			}
			g &gt; line {
				vector-effect: non-scaling-stroke;
				fill: none;
				stroke: none;
				stroke-width: 2;
				stroke-dasharray: 4 8;
				pointer-events: none;
			}
			g &gt; path[tabindex]:first-of-type:is(:hover, :focus-within) + rect + path[tabindex] + line,
			g &gt; path[tabindex]:first-of-type:is(:hover, :focus-within) + rect + path[tabindex] + line + line,
			g &gt; path[tabindex]:first-of-type:is(:hover, :focus-within) ~ path[tabindex]:last-of-type + line,
			g &gt; path[tabindex]:first-of-type:is(:hover, :focus-within) ~ path[tabindex]:last-of-type + line + line,
			g &gt; path[tabindex]:first-of-type ~ path[tabindex]:is(:hover, :focus-within) + line,
			g &gt; path[tabindex]:first-of-type ~ path[tabindex]:is(:hover, :focus-within) + line + line {
				stroke: var(--faded);
			}
			@media (prefers-color-scheme: dark) {
				:root {
					--canvas-background: #000;
					--canvas-foreground: #ccc;
					--highlighted: #6663;
					--faded: #9993;
				}
			}
			@media (prefers-color-scheme: light) {
				:root {
					--canvas-background: #fff;
					--canvas-foreground: #333;
					--highlighted: #9993;
					--faded: #6663;
				}
			}
		</style>
		<g transform="scale(1 -1)" transform-origin="center center" style="--count: 8;">
		<g style="--index: 0;">
			<path d="M0,66761" tabindex="0">
				<title>18qg9ndx</title>
			</path>
			<rect x="0" y="66761" width="0" height="0"/>
			<path d="M0,66761L0,66761" tabindex="0">
				<title>11:07.61 on 2018-04-12</title>
			</path>
			<line x1="0" y1="66761" x2="1893" y2="66761"/>
			<line x1="0" y1="0" x2="0" y2="66761"/>
		</g>
		<g style="--index: 1;">
			<path d="M89,54100L161,54100L161,48796L166,48796L166,40064L295,40064L295,35148" tabindex="0">
				<title>y8dgoe98</title>
			</path>
			<rect x="89" y="35148" width="206" height="18952"/>
			<path d="M89,54100L89,54100" tabindex="0">
				<title>09:01.00 on 2018-07-10</title>
			</path>
			<line x1="0" y1="54100" x2="1893" y2="54100"/>
			<line x1="89" y1="0" x2="89" y2="66761"/>
			<path d="M161,48796L161,48796" tabindex="0">
				<title>08:07.96 on 2018-09-20</title>
			</path>
			<line x1="0" y1="48796" x2="1893" y2="48796"/>
			<line x1="161" y1="0" x2="161" y2="66761"/>
			<path d="M166,40064L166,40064" tabindex="0">
				<title>06:40.64 on 2018-09-25</title>
			</path>
			<line x1="0" y1="40064" x2="1893" y2="40064"/>
			<line x1="166" y1="0" x2="166" y2="66761"/>
			<path d="M295,35148L295,35148" tabindex="0">
				<title>05:51.48 on 2019-02-01</title>
			</path>
			<line x1="0" y1="35148" x2="1893" y2="35148"/>
			<line x1="295" y1="0" x2="295" y2="66761"/>
		</g>
		<g style="--index: 2;">
			<path d="M781,32519" tabindex="0">
				<title>x356nrej</title>
			</path>
			<rect x="781" y="32519" width="0" height="0"/>
			<path d="M781,32519L781,32519" tabindex="0">
				<title>05:25.19 on 2020-06-01</title>
			</path>
			<line x1="0" y1="32519" x2="1893" y2="32519"/>
			<line x1="781" y1="0" x2="781" y2="66761"/>
		</g>
		<g style="--index: 3;">
			<path d="M934,32506L954,32506L954,29720L992,29720L992,28069L993,28069L993,25726" tabindex="0">
				<title>xkon93k8</title>
			</path>
			<rect x="934" y="25726" width="59" height="6780"/>
			<path d="M934,32506L934,32506" tabindex="0">
				<title>05:25.06 on 2020-11-01</title>
			</path>
			<line x1="0" y1="32506" x2="1893" y2="32506"/>
			<line x1="934" y1="0" x2="934" y2="66761"/>
			<path d="M954,29720L954,29720" tabindex="0">
				<title>04:57.20 on 2020-11-21</title>
			</path>
			<line x1="0" y1="29720" x2="1893" y2="29720"/>
			<line x1="954" y1="0" x2="954" y2="66761"/>
			<path d="M992,28069L992,28069" tabindex="0">
				<title>04:40.69 on 2020-12-29</title>
			</path>
			<line x1="0" y1="28069" x2="1893" y2="28069"/>
			<line x1="992" y1="0" x2="992" y2="66761"/>
			<path d="M993,25726L993,25726" tabindex="0">
				<title>04:17.26 on 2020-12-30</title>
			</path>
			<line x1="0" y1="25726" x2="1893" y2="25726"/>
			<line x1="993" y1="0" x2="993" y2="66761"/>
		</g>
		<g style="--index: 4;">
			<path d="M953,31497L991,31497L991,28658L992,28658L992,26456" tabindex="0">
				<title>x7q00668</title>
			</path>
			<rect x="953" y="26456" width="39" height="5041"/>
			<path d="M953,31497L953,31497" tabindex="0">
				<title>05:14.97 on 2020-11-20</title>
			</path>
			<line x1="0" y1="31497" x2="1893" y2="31497"/>
			<line x1="953" y1="0" x2="953" y2="66761"/>
			<path d="M991,28658L991,28658" tabindex="0">
				<title>04:46.58 on 2020-12-28</title>
			</path>
			<line x1="0" y1="28658" x2="1893" y2="28658"/>
			<line x1="991" y1="0" x2="991" y2="66761"/>
			<path d="M992,26456L992,26456" tabindex="0">
				<title>04:24.56 on 2020-12-29</title>
			</path>
			<line x1="0" y1="26456" x2="1893" y2="26456"/>
			<line x1="992" y1="0" x2="992" y2="66761"/>
		</g>
		<g style="--index: 5;">
			<path d="M1005,34958L1061,34958L1061,31072" tabindex="0">
				<title>j0np7or8</title>
			</path>
			<rect x="1005" y="31072" width="56" height="3886"/>
			<path d="M1005,34958L1005,34958" tabindex="0">
				<title>05:49.58 on 2021-01-11</title>
			</path>
			<line x1="0" y1="34958" x2="1893" y2="34958"/>
			<line x1="1005" y1="0" x2="1005" y2="66761"/>
			<path d="M1061,31072L1061,31072" tabindex="0">
				<title>05:10.72 on 2021-03-08</title>
			</path>
			<line x1="0" y1="31072" x2="1893" y2="31072"/>
			<line x1="1061" y1="0" x2="1061" y2="66761"/>
		</g>
		<g style="--index: 6;">
			<path d="M1500,24639" tabindex="0">
				<title>xk3m6d68</title>
			</path>
			<rect x="1500" y="24639" width="0" height="0"/>
			<path d="M1500,24639L1500,24639" tabindex="0">
				<title>04:06.39 on 2022-05-21</title>
			</path>
			<line x1="0" y1="24639" x2="1893" y2="24639"/>
			<line x1="1500" y1="0" x2="1500" y2="66761"/>
		</g>
		<g style="--index: 7;">
			<path d="M1724,24558L1893,24558L1893,23626" tabindex="0">
				<title>jn2m23wj</title>
			</path>
			<rect x="1724" y="23626" width="169" height="932"/>
			<path d="M1724,24558L1724,24558" tabindex="0">
				<title>04:05.58 on 2022-12-31</title>
			</path>
			<line x1="0" y1="24558" x2="1893" y2="24558"/>
			<line x1="1724" y1="0" x2="1724" y2="66761"/>
			<path d="M1893,23626L1893,23626" tabindex="0">
				<title>03:56.26 on 2023-06-18</title>
			</path>
			<line x1="0" y1="23626" x2="1893" y2="23626"/>
			<line x1="1893" y1="0" x2="1893" y2="66761"/>
		</g>
	</g>
</svg>
