<svg xmlns="http://www.w3.org/2000/svg" viewBox="0 0 465 3847" preserveAspectRatio="none" lang="en" style="color-scheme: dark light;">
		<title>Time by player for leaderboard l_495zlx39-9d8eewld-2lgr793n.21gp48n1</title>
		<style>
			svg {
				background: var(--canvas-background);
				fill: var(--canvas-background);
				stroke: var(--canvas-foreground);
				stroke-linejoin: round;
				stroke-linecap: round;
			}
			g &gt; path[tabindex] {
				vector-effect: non-scaling-stroke;
				fill: none;
				stroke: hsl(calc(var(--index) / var(--count) * 360), 50%, 50%);
				cursor: help;
			}
			g:is(:hover, :focus-within) &gt; path[tabindex] {
				stroke: var(--canvas-foreground);
			}
			g &gt; path[tabindex]:is(:hover, :focus-within) {
				outline: 0;
			}
			g &gt; path[tabindex]:first-of-type {
				stroke-width: 2;
			}
			g &gt; path[tabindex]:first-of-type:is(:hover, :focus-within) {
				stroke-width: 4;
			}
			g &gt; path[tabindex]:first-of-type:not(:last-of-type) {
				stroke-dasharray: 4 8;
			}
			g &gt; rect {
				vector-effect: non-scaling-stroke;
				fill: none;
				stroke: none;
				pointer-events: none;
			}
			g &gt; path[tabindex]:first-of-type:is(:hover, :focus-within) + rect {
				fill: var(--highlighted);
			}
			g &gt; path[tabindex]:first-of-type ~ path[tabindex] {
				stroke-width: 8;
			}
			g &gt; path[tabindex]:first-of-type ~ path[tabindex]:is(:hover, :focus-within) {
				stroke-width: 16;
			}
			g &gt; line {
				vector-effect: non-scaling-stroke;
				fill: none;
				stroke: none;
				stroke-width: 2;
				stroke-dasharray: 4 8;
				pointer-events: none;
			}
			g &gt; path[tabindex]:first-of-type:is(:hover, :focus-within) + rect + path[tabindex] + line,
			g &gt; path[tabindex]:first-of-type:is(:hover, :focus-within) + rect + path[tabindex] + line + line,
			g &gt; path[tabindex]:first-of-type:is(:hover, :focus-within) ~ path[tabindex]:last-of-type + line,
			g &gt; path[tabindex]:first-of-type:is(:hover, :focus-within) ~ path[tabindex]:last-of-type + line + line,
			g &gt; path[tabindex]:first-of-type ~ path[tabindex]:is(:hover, :focus-within) + line,
			g &gt; path[tabindex]:first-of-type ~ path[tabindex]:is(:hover, :focus-within) + line + line {
				stroke: var(--faded);
			}
			@media (prefers-color-scheme: dark) {
				:root {
					--canvas-background: #000;
					--canvas-foreground: #ccc;
					--highlighted: #6663;
					--faded: #9993;
				}
			}
			@media (prefers-color-scheme: light) {
				:root {
					--canvas-background: #fff;
					--canvas-foreground: #333;
					--highlighted: #9993;
					--faded: #6663;
				}
			}
		</style>
		<g style="--count: 7;">
		<g style="--index: 0;">
			<path d="M0,1521L420,1521L420,1820L423,1820L423,1911" tabindex="0">
				<title>jn2m23wj</title>
			</path>
			<rect x="0" y="1521" width="423" height="390"/>
			<path d="M0,1521L0,1521" tabindex="0">
				<title>00:23.26 on 2022-12-20</title>
			</path>
			<line x1="0" y1="1521" x2="465" y2="1521"/>
			<line x1="0" y1="3847" x2="0" y2="0"/>
			<path d="M420,1820L420,1820" tabindex="0">
				<title>00:20.27 on 2024-02-13</title>
			</path>
			<line x1="0" y1="1820" x2="465" y2="1820"/>
			<line x1="420" y1="3847" x2="420" y2="0"/>
			<path d="M423,1911L423,1911" tabindex="0">
				<title>00:19.36 on 2024-02-16</title>
			</path>
			<line x1="0" y1="1911" x2="465" y2="1911"/>
			<line x1="423" y1="3847" x2="423" y2="0"/>
		</g>
		<g style="--index: 1;">
			<path d="M44,0" tabindex="0">
				<title>x76y1lyj</title>
			</path>
			<rect x="44" y="0" width="0" height="0"/>
			<path d="M44,0L44,0" tabindex="0">
				<title>00:38.47 on 2023-02-02</title>
			</path>
			<line x1="0" y1="0" x2="465" y2="0"/>
			<line x1="44" y1="3847" x2="44" y2="0"/>
		</g>
		<g style="--index: 2;">
			<path d="M118,395" tabindex="0">
				<title>8ewdk0d8</title>
			</path>
			<rect x="118" y="395" width="0" height="0"/>
			<path d="M118,395L118,395" tabindex="0">
				<title>00:34.52 on 2023-04-17</title>
			</path>
			<line x1="0" y1="395" x2="465" y2="395"/>
			<line x1="118" y1="3847" x2="118" y2="0"/>
		</g>
		<g style="--index: 3;">
			<path d="M119,972" tabindex="0">
				<title>j5vg1ez8</title>
			</path>
			<rect x="119" y="972" width="0" height="0"/>
			<path d="M119,972L119,972" tabindex="0">
				<title>00:28.75 on 2023-04-18</title>
			</path>
			<line x1="0" y1="972" x2="465" y2="972"/>
			<line x1="119" y1="3847" x2="119" y2="0"/>
		</g>
		<g style="--index: 4;">
			<path d="M150,1250" tabindex="0">
				<title>x3wdlvkj</title>
			</path>
			<rect x="150" y="1250" width="0" height="0"/>
			<path d="M150,1250L150,1250" tabindex="0">
				<title>00:25.97 on 2023-05-19</title>
			</path>
			<line x1="0" y1="1250" x2="465" y2="1250"/>
			<line x1="150" y1="3847" x2="150" y2="0"/>
		</g>
		<g style="--index: 5;">
			<path d="M313,712" tabindex="0">
				<title>8rm6363j</title>
			</path>
			<rect x="313" y="712" width="0" height="0"/>
			<path d="M313,712L313,712" tabindex="0">
				<title>00:31.35 on 2023-10-29</title>
			</path>
			<line x1="0" y1="712" x2="465" y2="712"/>
			<line x1="313" y1="3847" x2="313" y2="0"/>
		</g>
		<g style="--index: 6;">
			<path d="M465,880" tabindex="0">
				<title>xz22lw4x</title>
			</path>
			<rect x="465" y="880" width="0" height="0"/>
			<path d="M465,880L465,880" tabindex="0">
				<title>00:29.67 on 2024-03-29</title>
			</path>
			<line x1="0" y1="880" x2="465" y2="880"/>
			<line x1="465" y1="3847" x2="465" y2="0"/>
		</g>
	</g>
</svg>
