<svg xmlns="http://www.w3.org/2000/svg" viewBox="0 0 237 9187" preserveAspectRatio="none" lang="en" style="color-scheme: dark light;">
		<title>Time by player for leaderboard l_495zlx39-9d8eewld-2lgr793n.mlno5r0q</title>
		<style>
			svg {
				background: var(--canvas-background);
				fill: var(--canvas-background);
				stroke: var(--canvas-foreground);
				stroke-linejoin: round;
				stroke-linecap: round;
			}
			g &gt; path[tabindex] {
				vector-effect: non-scaling-stroke;
				fill: none;
				stroke: hsl(calc(var(--index) / var(--count) * 360), 50%, 50%);
				cursor: help;
			}
			g:is(:hover, :focus-within) &gt; path[tabindex] {
				stroke: var(--canvas-foreground);
			}
			g &gt; path[tabindex]:is(:hover, :focus-within) {
				outline: 0;
			}
			g &gt; path[tabindex]:first-of-type {
				stroke-width: 2;
			}
			g &gt; path[tabindex]:first-of-type:is(:hover, :focus-within) {
				stroke-width: 4;
			}
			g &gt; path[tabindex]:first-of-type:not(:last-of-type) {
				stroke-dasharray: 4 8;
			}
			g &gt; rect {
				vector-effect: non-scaling-stroke;
				fill: none;
				stroke: none;
				pointer-events: none;
			}
			g &gt; path[tabindex]:first-of-type:is(:hover, :focus-within) + rect {
				fill: var(--highlighted);
			}
			g &gt; path[tabindex]:first-of-type ~ path[tabindex] {
				stroke-width: 8;
			}
			g &gt; path[tabindex]:first-of-type ~ path[tabindex]:is(:hover, :focus-within) {
				stroke-width: 16;
			}
			g &gt; line {
				vector-effect: non-scaling-stroke;
				fill: none;
				stroke: none;
				stroke-width: 2;
				stroke-dasharray: 4 8;
				pointer-events: none;
			}
			g &gt; path[tabindex]:first-of-type:is(:hover, :focus-within) + rect + path[tabindex] + line,
			g &gt; path[tabindex]:first-of-type:is(:hover, :focus-within) + rect + path[tabindex] + line + line,
			g &gt; path[tabindex]:first-of-type:is(:hover, :focus-within) ~ path[tabindex]:last-of-type + line,
			g &gt; path[tabindex]:first-of-type:is(:hover, :focus-within) ~ path[tabindex]:last-of-type + line + line,
			g &gt; path[tabindex]:first-of-type ~ path[tabindex]:is(:hover, :focus-within) + line,
			g &gt; path[tabindex]:first-of-type ~ path[tabindex]:is(:hover, :focus-within) + line + line {
				stroke: var(--faded);
			}
			@media (prefers-color-scheme: dark) {
				:root {
					--canvas-background: #000;
					--canvas-foreground: #ccc;
					--highlighted: #6663;
					--faded: #9993;
				}
			}
			@media (prefers-color-scheme: light) {
				:root {
					--canvas-background: #fff;
					--canvas-foreground: #333;
					--highlighted: #9993;
					--faded: #6663;
				}
			}
		</style>
		<g style="--count: 9;">
		<g style="--index: 0;">
			<path d="M0,2347" tabindex="0">
				<title>j5vg1ez8</title>
			</path>
			<rect x="0" y="2347" width="0" height="0"/>
			<path d="M0,2347L0,2347" tabindex="0">
				<title>01:08.40 on 2023-01-29</title>
			</path>
			<line x1="0" y1="2347" x2="237" y2="2347"/>
			<line x1="0" y1="9187" x2="0" y2="0"/>
		</g>
		<g style="--index: 1;">
			<path d="M19,0" tabindex="0">
				<title>jnp37d18</title>
			</path>
			<rect x="19" y="0" width="0" height="0"/>
			<path d="M19,0L19,0" tabindex="0">
				<title>01:31.87 on 2023-02-17</title>
			</path>
			<line x1="0" y1="0" x2="237" y2="0"/>
			<line x1="19" y1="9187" x2="19" y2="0"/>
		</g>
		<g style="--index: 2;">
			<path d="M22,230" tabindex="0">
				<title>8640og3j</title>
			</path>
			<rect x="22" y="230" width="0" height="0"/>
			<path d="M22,230L22,230" tabindex="0">
				<title>01:29.57 on 2023-02-20</title>
			</path>
			<line x1="0" y1="230" x2="237" y2="230"/>
			<line x1="22" y1="9187" x2="22" y2="0"/>
		</g>
		<g style="--index: 3;">
			<path d="M116,372" tabindex="0">
				<title>8101pdpx</title>
			</path>
			<rect x="116" y="372" width="0" height="0"/>
			<path d="M116,372L116,372" tabindex="0">
				<title>01:28.15 on 2023-05-25</title>
			</path>
			<line x1="0" y1="372" x2="237" y2="372"/>
			<line x1="116" y1="9187" x2="116" y2="0"/>
		</g>
		<g style="--index: 4;">
			<path d="M127,571" tabindex="0">
				<title>8rl1rq38</title>
			</path>
			<rect x="127" y="571" width="0" height="0"/>
			<path d="M127,571L127,571" tabindex="0">
				<title>01:26.16 on 2023-06-05</title>
			</path>
			<line x1="0" y1="571" x2="237" y2="571"/>
			<line x1="127" y1="9187" x2="127" y2="0"/>
		</g>
		<g style="--index: 5;">
			<path d="M133,2539L140,2539L140,2788" tabindex="0">
				<title>xkon93k8</title>
			</path>
			<rect x="133" y="2539" width="7" height="249"/>
			<path d="M133,2539L133,2539" tabindex="0">
				<title>01:06.48 on 2023-06-11</title>
			</path>
			<line x1="0" y1="2539" x2="237" y2="2539"/>
			<line x1="133" y1="9187" x2="133" y2="0"/>
			<path d="M140,2788L140,2788" tabindex="0">
				<title>01:03.99 on 2023-06-18</title>
			</path>
			<line x1="0" y1="2788" x2="237" y2="2788"/>
			<line x1="140" y1="9187" x2="140" y2="0"/>
		</g>
		<g style="--index: 6;">
			<path d="M137,2587L146,2587L146,2982" tabindex="0">
				<title>8g0ppzrx</title>
			</path>
			<rect x="137" y="2587" width="9" height="395"/>
			<path d="M137,2587L137,2587" tabindex="0">
				<title>01:06.00 on 2023-06-15</title>
			</path>
			<line x1="0" y1="2587" x2="237" y2="2587"/>
			<line x1="137" y1="9187" x2="137" y2="0"/>
			<path d="M146,2982L146,2982" tabindex="0">
				<title>01:02.05 on 2023-06-24</title>
			</path>
			<line x1="0" y1="2982" x2="237" y2="2982"/>
			<line x1="146" y1="9187" x2="146" y2="0"/>
		</g>
		<g style="--index: 7;">
			<path d="M167,2039" tabindex="0">
				<title>x3wdlvkj</title>
			</path>
			<rect x="167" y="2039" width="0" height="0"/>
			<path d="M167,2039L167,2039" tabindex="0">
				<title>01:11.48 on 2023-07-15</title>
			</path>
			<line x1="0" y1="2039" x2="237" y2="2039"/>
			<line x1="167" y1="9187" x2="167" y2="0"/>
		</g>
		<g style="--index: 8;">
			<path d="M237,3080" tabindex="0">
				<title>jn2m23wj</title>
			</path>
			<rect x="237" y="3080" width="0" height="0"/>
			<path d="M237,3080L237,3080" tabindex="0">
				<title>01:01.07 on 2023-09-23</title>
			</path>
			<line x1="0" y1="3080" x2="237" y2="3080"/>
			<line x1="237" y1="9187" x2="237" y2="0"/>
		</g>
	</g>
</svg>
