<svg xmlns="http://www.w3.org/2000/svg" viewBox="0 0 2071 3451" preserveAspectRatio="none" lang="en" style="color-scheme: dark light;">
		<title>Time by player for leaderboard l_495zlx39-9d8eewld-2lgr793n.z19m8p0l</title>
		<style>
			svg {
				background: var(--canvas-background);
				fill: var(--canvas-background);
				stroke: var(--canvas-foreground);
				stroke-linejoin: round;
				stroke-linecap: round;
			}
			g &gt; path[tabindex] {
				vector-effect: non-scaling-stroke;
				fill: none;
				stroke: hsl(calc(var(--index) / var(--count) * 360), 50%, 50%);
				cursor: help;
			}
			g:is(:hover, :focus-within) &gt; path[tabindex] {
				stroke: var(--canvas-foreground);
			}
			g &gt; path[tabindex]:is(:hover, :focus-within) {
				outline: 0;
			}
			g &gt; path[tabindex]:first-of-type {
				stroke-width: 2;
			}
			g &gt; path[tabindex]:first-of-type:is(:hover, :focus-within) {
				stroke-width: 4;
			}
			g &gt; path[tabindex]:first-of-type:not(:last-of-type) {
				stroke-dasharray: 4 8;
			}
			g &gt; rect {
				vector-effect: non-scaling-stroke;
				fill: none;
				stroke: none;
				pointer-events: none;
			}
			g &gt; path[tabindex]:first-of-type:is(:hover, :focus-within) + rect {
				fill: var(--highlighted);
			}
			g &gt; path[tabindex]:first-of-type ~ path[tabindex] {
				stroke-width: 8;
			}
			g &gt; path[tabindex]:first-of-type ~ path[tabindex]:is(:hover, :focus-within) {
				stroke-width: 16;
			}
			g &gt; line {
				vector-effect: non-scaling-stroke;
				fill: none;
				stroke: none;
				stroke-width: 2;
				stroke-dasharray: 4 8;
				pointer-events: none;
			}
			g &gt; path[tabindex]:first-of-type:is(:hover, :focus-within) + rect + path[tabindex] + line,
			g &gt; path[tabindex]:first-of-type:is(:hover, :focus-within) + rect + path[tabindex] + line + line,
			g &gt; path[tabindex]:first-of-type:is(:hover, :focus-within) ~ path[tabindex]:last-of-type + line,
			g &gt; path[tabindex]:first-of-type:is(:hover, :focus-within) ~ path[tabindex]:last-of-type + line + line,
			g &gt; path[tabindex]:first-of-type ~ path[tabindex]:is(:hover, :focus-within) + line,
			g &gt; path[tabindex]:first-of-type ~ path[tabindex]:is(:hover, :focus-within) + line + line {
				stroke: var(--faded);
			}
			@media (prefers-color-scheme: dark) {
				:root {
					--canvas-background: #000;
					--canvas-foreground: #ccc;
					--highlighted: #6663;
					--faded: #9993;
				}
			}
			@media (prefers-color-scheme: light) {
				:root {
					--canvas-background: #fff;
					--canvas-foreground: #333;
					--highlighted: #9993;
					--faded: #6663;
				}
			}
		</style>
		<g style="--count: 20;">
		<g style="--index: 0;">
			<path d="M0,0" tabindex="0">
				<title>18qg9ndx</title>
			</path>
			<rect x="0" y="0" width="0" height="0"/>
			<path d="M0,0L0,0" tabindex="0">
				<title>00:34.51 on 2018-04-09</title>
			</path>
			<line x1="0" y1="0" x2="2071" y2="0"/>
			<line x1="0" y1="3451" x2="0" y2="0"/>
		</g>
		<g style="--index: 1;">
			<path d="M92,1956" tabindex="0">
				<title>y8dgoe98</title>
			</path>
			<rect x="92" y="1956" width="0" height="0"/>
			<path d="M92,1956L92,1956" tabindex="0">
				<title>00:14.95 on 2018-07-10</title>
			</path>
			<line x1="0" y1="1956" x2="2071" y2="1956"/>
			<line x1="92" y1="3451" x2="92" y2="0"/>
		</g>
		<g style="--index: 2;">
			<path d="M773,1821L858,1821L858,1852L928,1852L928,2015" tabindex="0">
				<title>x356nrej</title>
			</path>
			<rect x="773" y="1821" width="155" height="194"/>
			<path d="M773,1821L773,1821" tabindex="0">
				<title>00:16.30 on 2020-05-21</title>
			</path>
			<line x1="0" y1="1821" x2="2071" y2="1821"/>
			<line x1="773" y1="3451" x2="773" y2="0"/>
			<path d="M858,1852L858,1852" tabindex="0">
				<title>00:15.99 on 2020-08-14</title>
			</path>
			<line x1="0" y1="1852" x2="2071" y2="1852"/>
			<line x1="858" y1="3451" x2="858" y2="0"/>
			<path d="M928,2015L928,2015" tabindex="0">
				<title>00:14.36 on 2020-10-23</title>
			</path>
			<line x1="0" y1="2015" x2="2071" y2="2015"/>
			<line x1="928" y1="3451" x2="928" y2="0"/>
		</g>
		<g style="--index: 3;">
			<path d="M956,2051L1425,2051L1425,2196L1509,2196L1509,2224L1540,2224L1540,2232" tabindex="0">
				<title>j2yr9lp8</title>
			</path>
			<rect x="956" y="2051" width="584" height="181"/>
			<path d="M956,2051L956,2051" tabindex="0">
				<title>00:14.00 on 2020-11-20</title>
			</path>
			<line x1="0" y1="2051" x2="2071" y2="2051"/>
			<line x1="956" y1="3451" x2="956" y2="0"/>
			<path d="M1425,2196L1425,2196" tabindex="0">
				<title>00:12.55 on 2022-03-04</title>
			</path>
			<line x1="0" y1="2196" x2="2071" y2="2196"/>
			<line x1="1425" y1="3451" x2="1425" y2="0"/>
			<path d="M1509,2224L1509,2224" tabindex="0">
				<title>00:12.27 on 2022-05-27</title>
			</path>
			<line x1="0" y1="2224" x2="2071" y2="2224"/>
			<line x1="1509" y1="3451" x2="1509" y2="0"/>
			<path d="M1540,2232L1540,2232" tabindex="0">
				<title>00:12.19 on 2022-06-27</title>
			</path>
			<line x1="0" y1="2232" x2="2071" y2="2232"/>
			<line x1="1540" y1="3451" x2="1540" y2="0"/>
		</g>
		<g style="--index: 4;">
			<path d="M959,1665L987,1665L987,2062" tabindex="0">
				<title>x7q00668</title>
			</path>
			<rect x="959" y="1665" width="28" height="397"/>
			<path d="M959,1665L959,1665" tabindex="0">
				<title>00:17.86 on 2020-11-23</title>
			</path>
			<line x1="0" y1="1665" x2="2071" y2="1665"/>
			<line x1="959" y1="3451" x2="959" y2="0"/>
			<path d="M987,2062L987,2062" tabindex="0">
				<title>00:13.89 on 2020-12-21</title>
			</path>
			<line x1="0" y1="2062" x2="2071" y2="2062"/>
			<line x1="987" y1="3451" x2="987" y2="0"/>
		</g>
		<g style="--index: 5;">
			<path d="M979,1669L1016,1669L1016,1883" tabindex="0">
				<title>j0np7or8</title>
			</path>
			<rect x="979" y="1669" width="37" height="214"/>
			<path d="M979,1669L979,1669" tabindex="0">
				<title>00:17.82 on 2020-12-13</title>
			</path>
			<line x1="0" y1="1669" x2="2071" y2="1669"/>
			<line x1="979" y1="3451" x2="979" y2="0"/>
			<path d="M1016,1883L1016,1883" tabindex="0">
				<title>00:15.68 on 2021-01-19</title>
			</path>
			<line x1="0" y1="1883" x2="2071" y2="1883"/>
			<line x1="1016" y1="3451" x2="1016" y2="0"/>
		</g>
		<g style="--index: 6;">
			<path d="M983,1893L988,1893L988,2052L1013,2052L1013,2092" tabindex="0">
				<title>814zn7l8</title>
			</path>
			<rect x="983" y="1893" width="30" height="199"/>
			<path d="M983,1893L983,1893" tabindex="0">
				<title>00:15.58 on 2020-12-17</title>
			</path>
			<line x1="0" y1="1893" x2="2071" y2="1893"/>
			<line x1="983" y1="3451" x2="983" y2="0"/>
			<path d="M988,2052L988,2052" tabindex="0">
				<title>00:13.99 on 2020-12-22</title>
			</path>
			<line x1="0" y1="2052" x2="2071" y2="2052"/>
			<line x1="988" y1="3451" x2="988" y2="0"/>
			<path d="M1013,2092L1013,2092" tabindex="0">
				<title>00:13.59 on 2021-01-16</title>
			</path>
			<line x1="0" y1="2092" x2="2071" y2="2092"/>
			<line x1="1013" y1="3451" x2="1013" y2="0"/>
		</g>
		<g style="--index: 7;">
			<path d="M988,2074L998,2074L998,2078L1021,2078L1021,2158" tabindex="0">
				<title>xkon93k8</title>
			</path>
			<rect x="988" y="2074" width="33" height="84"/>
			<path d="M988,2074L988,2074" tabindex="0">
				<title>00:13.77 on 2020-12-22</title>
			</path>
			<line x1="0" y1="2074" x2="2071" y2="2074"/>
			<line x1="988" y1="3451" x2="988" y2="0"/>
			<path d="M998,2078L998,2078" tabindex="0">
				<title>00:13.73 on 2021-01-01</title>
			</path>
			<line x1="0" y1="2078" x2="2071" y2="2078"/>
			<line x1="998" y1="3451" x2="998" y2="0"/>
			<path d="M1021,2158L1021,2158" tabindex="0">
				<title>00:12.93 on 2021-01-24</title>
			</path>
			<line x1="0" y1="2158" x2="2071" y2="2158"/>
			<line x1="1021" y1="3451" x2="1021" y2="0"/>
		</g>
		<g style="--index: 8;">
			<path d="M1436,807" tabindex="0">
				<title>jpo31408</title>
			</path>
			<rect x="1436" y="807" width="0" height="0"/>
			<path d="M1436,807L1436,807" tabindex="0">
				<title>00:26.44 on 2022-03-15</title>
			</path>
			<line x1="0" y1="807" x2="2071" y2="807"/>
			<line x1="1436" y1="3451" x2="1436" y2="0"/>
		</g>
		<g style="--index: 9;">
			<path d="M1507,2173L1508,2173L1508,2197L1538,2197L1538,2227" tabindex="0">
				<title>xk3m6d68</title>
			</path>
			<rect x="1507" y="2173" width="31" height="54"/>
			<path d="M1507,2173L1507,2173" tabindex="0">
				<title>00:12.78 on 2022-05-25</title>
			</path>
			<line x1="0" y1="2173" x2="2071" y2="2173"/>
			<line x1="1507" y1="3451" x2="1507" y2="0"/>
			<path d="M1508,2197L1508,2197" tabindex="0">
				<title>00:12.54 on 2022-05-26</title>
			</path>
			<line x1="0" y1="2197" x2="2071" y2="2197"/>
			<line x1="1508" y1="3451" x2="1508" y2="0"/>
			<path d="M1538,2227L1538,2227" tabindex="0">
				<title>00:12.24 on 2022-06-25</title>
			</path>
			<line x1="0" y1="2227" x2="2071" y2="2227"/>
			<line x1="1538" y1="3451" x2="1538" y2="0"/>
		</g>
		<g style="--index: 10;">
			<path d="M1516,1860L1517,1860L1517,1982" tabindex="0">
				<title>866k6d38</title>
			</path>
			<rect x="1516" y="1860" width="1" height="122"/>
			<path d="M1516,1860L1516,1860" tabindex="0">
				<title>00:15.91 on 2022-06-03</title>
			</path>
			<line x1="0" y1="1860" x2="2071" y2="1860"/>
			<line x1="1516" y1="3451" x2="1516" y2="0"/>
			<path d="M1517,1982L1517,1982" tabindex="0">
				<title>00:14.69 on 2022-06-04</title>
			</path>
			<line x1="0" y1="1982" x2="2071" y2="1982"/>
			<line x1="1517" y1="3451" x2="1517" y2="0"/>
		</g>
		<g style="--index: 11;">
			<path d="M1581,372" tabindex="0">
				<title>j0gyekmx</title>
			</path>
			<rect x="1581" y="372" width="0" height="0"/>
			<path d="M1581,372L1581,372" tabindex="0">
				<title>00:30.79 on 2022-08-07</title>
			</path>
			<line x1="0" y1="372" x2="2071" y2="372"/>
			<line x1="1581" y1="3451" x2="1581" y2="0"/>
		</g>
		<g style="--index: 12;">
			<path d="M1706,1321" tabindex="0">
				<title>8g0ezgyx</title>
			</path>
			<rect x="1706" y="1321" width="0" height="0"/>
			<path d="M1706,1321L1706,1321" tabindex="0">
				<title>00:21.30 on 2022-12-10</title>
			</path>
			<line x1="0" y1="1321" x2="2071" y2="1321"/>
			<line x1="1706" y1="3451" x2="1706" y2="0"/>
		</g>
		<g style="--index: 13;">
			<path d="M1707,1347" tabindex="0">
				<title>8lonqn28</title>
			</path>
			<rect x="1707" y="1347" width="0" height="0"/>
			<path d="M1707,1347L1707,1347" tabindex="0">
				<title>00:21.04 on 2022-12-11</title>
			</path>
			<line x1="0" y1="1347" x2="2071" y2="1347"/>
			<line x1="1707" y1="3451" x2="1707" y2="0"/>
		</g>
		<g style="--index: 14;">
			<path d="M1710,1542" tabindex="0">
				<title>8qoz5eoj</title>
			</path>
			<rect x="1710" y="1542" width="0" height="0"/>
			<path d="M1710,1542L1710,1542" tabindex="0">
				<title>00:19.09 on 2022-12-14</title>
			</path>
			<line x1="0" y1="1542" x2="2071" y2="1542"/>
			<line x1="1710" y1="3451" x2="1710" y2="0"/>
		</g>
		<g style="--index: 15;">
			<path d="M1714,1664" tabindex="0">
				<title>8w02wmvj</title>
			</path>
			<rect x="1714" y="1664" width="0" height="0"/>
			<path d="M1714,1664L1714,1664" tabindex="0">
				<title>00:17.87 on 2022-12-18</title>
			</path>
			<line x1="0" y1="1664" x2="2071" y2="1664"/>
			<line x1="1714" y1="3451" x2="1714" y2="0"/>
		</g>
		<g style="--index: 16;">
			<path d="M1801,1535" tabindex="0">
				<title>8rle6yd8</title>
			</path>
			<rect x="1801" y="1535" width="0" height="0"/>
			<path d="M1801,1535L1801,1535" tabindex="0">
				<title>00:19.16 on 2023-03-15</title>
			</path>
			<line x1="0" y1="1535" x2="2071" y2="1535"/>
			<line x1="1801" y1="3451" x2="1801" y2="0"/>
		</g>
		<g style="--index: 17;">
			<path d="M1808,2238" tabindex="0">
				<title>jn2m23wj</title>
			</path>
			<rect x="1808" y="2238" width="0" height="0"/>
			<path d="M1808,2238L1808,2238" tabindex="0">
				<title>00:12.13 on 2023-03-22</title>
			</path>
			<line x1="0" y1="2238" x2="2071" y2="2238"/>
			<line x1="1808" y1="3451" x2="1808" y2="0"/>
		</g>
		<g style="--index: 18;">
			<path d="M1954,1119" tabindex="0">
				<title>jng9el48</title>
			</path>
			<rect x="1954" y="1119" width="0" height="0"/>
			<path d="M1954,1119L1954,1119" tabindex="0">
				<title>00:23.32 on 2023-08-15</title>
			</path>
			<line x1="0" y1="1119" x2="2071" y2="1119"/>
			<line x1="1954" y1="3451" x2="1954" y2="0"/>
		</g>
		<g style="--index: 19;">
			<path d="M2071,80" tabindex="0">
				<title>x77ee56x</title>
			</path>
			<rect x="2071" y="80" width="0" height="0"/>
			<path d="M2071,80L2071,80" tabindex="0">
				<title>00:33.71 on 2023-12-10</title>
			</path>
			<line x1="0" y1="80" x2="2071" y2="80"/>
			<line x1="2071" y1="3451" x2="2071" y2="0"/>
		</g>
	</g>
</svg>
