<svg xmlns="http://www.w3.org/2000/svg" viewBox="0 0 2121 3714" preserveAspectRatio="none" lang="en" style="color-scheme: dark light;">
		<title>Time by player for leaderboard l_495zlx39-9d8eewld-2lgr793n.814y7w01</title>
		<style>
			svg {
				background: var(--canvas-background);
				fill: var(--canvas-background);
				stroke: var(--canvas-foreground);
				stroke-linejoin: round;
				stroke-linecap: round;
			}
			g &gt; path[tabindex] {
				vector-effect: non-scaling-stroke;
				fill: none;
				stroke: hsl(calc(var(--index) / var(--count) * 360), 50%, 50%);
				cursor: help;
			}
			g:is(:hover, :focus-within) &gt; path[tabindex] {
				stroke: var(--canvas-foreground);
			}
			g &gt; path[tabindex]:is(:hover, :focus-within) {
				outline: 0;
			}
			g &gt; path[tabindex]:first-of-type {
				stroke-width: 2;
			}
			g &gt; path[tabindex]:first-of-type:is(:hover, :focus-within) {
				stroke-width: 4;
			}
			g &gt; path[tabindex]:first-of-type:not(:last-of-type) {
				stroke-dasharray: 4 8;
			}
			g &gt; rect {
				vector-effect: non-scaling-stroke;
				fill: none;
				stroke: none;
				pointer-events: none;
			}
			g &gt; path[tabindex]:first-of-type:is(:hover, :focus-within) + rect {
				fill: var(--highlighted);
			}
			g &gt; path[tabindex]:first-of-type ~ path[tabindex] {
				stroke-width: 8;
			}
			g &gt; path[tabindex]:first-of-type ~ path[tabindex]:is(:hover, :focus-within) {
				stroke-width: 16;
			}
			g &gt; line {
				vector-effect: non-scaling-stroke;
				fill: none;
				stroke: none;
				stroke-width: 2;
				stroke-dasharray: 4 8;
				pointer-events: none;
			}
			g &gt; path[tabindex]:first-of-type:is(:hover, :focus-within) + rect + path[tabindex] + line,
			g &gt; path[tabindex]:first-of-type:is(:hover, :focus-within) + rect + path[tabindex] + line + line,
			g &gt; path[tabindex]:first-of-type:is(:hover, :focus-within) ~ path[tabindex]:last-of-type + line,
			g &gt; path[tabindex]:first-of-type:is(:hover, :focus-within) ~ path[tabindex]:last-of-type + line + line,
			g &gt; path[tabindex]:first-of-type ~ path[tabindex]:is(:hover, :focus-within) + line,
			g &gt; path[tabindex]:first-of-type ~ path[tabindex]:is(:hover, :focus-within) + line + line {
				stroke: var(--faded);
			}
			@media (prefers-color-scheme: dark) {
				:root {
					--canvas-background: #000;
					--canvas-foreground: #ccc;
					--highlighted: #6663;
					--faded: #9993;
				}
			}
			@media (prefers-color-scheme: light) {
				:root {
					--canvas-background: #fff;
					--canvas-foreground: #333;
					--highlighted: #9993;
					--faded: #6663;
				}
			}
		</style>
		<g style="--count: 20;">
		<g style="--index: 0;">
			<path d="M0,367" tabindex="0">
				<title>18qg9ndx</title>
			</path>
			<rect x="0" y="367" width="0" height="0"/>
			<path d="M0,367L0,367" tabindex="0">
				<title>00:33.47 on 2018-04-11</title>
			</path>
			<line x1="0" y1="367" x2="2121" y2="367"/>
			<line x1="0" y1="3714" x2="0" y2="0"/>
		</g>
		<g style="--index: 1;">
			<path d="M8,1260L89,1260L89,1798L870,1798L870,2231L966,2231L966,2330" tabindex="0">
				<title>y8dgoe98</title>
			</path>
			<rect x="8" y="1260" width="958" height="1070"/>
			<path d="M8,1260L8,1260" tabindex="0">
				<title>00:24.54 on 2018-04-19</title>
			</path>
			<line x1="0" y1="1260" x2="2121" y2="1260"/>
			<line x1="8" y1="3714" x2="8" y2="0"/>
			<path d="M89,1798L89,1798" tabindex="0">
				<title>00:19.16 on 2018-07-09</title>
			</path>
			<line x1="0" y1="1798" x2="2121" y2="1798"/>
			<line x1="89" y1="3714" x2="89" y2="0"/>
			<path d="M870,2231L870,2231" tabindex="0">
				<title>00:14.83 on 2020-08-28</title>
			</path>
			<line x1="0" y1="2231" x2="2121" y2="2231"/>
			<line x1="870" y1="3714" x2="870" y2="0"/>
			<path d="M966,2330L966,2330" tabindex="0">
				<title>00:13.84 on 2020-12-02</title>
			</path>
			<line x1="0" y1="2330" x2="2121" y2="2330"/>
			<line x1="966" y1="3714" x2="966" y2="0"/>
		</g>
		<g style="--index: 2;">
			<path d="M88,1763" tabindex="0">
				<title>qj2pq1p8</title>
			</path>
			<rect x="88" y="1763" width="0" height="0"/>
			<path d="M88,1763L88,1763" tabindex="0">
				<title>00:19.51 on 2018-07-08</title>
			</path>
			<line x1="0" y1="1763" x2="2121" y2="1763"/>
			<line x1="88" y1="3714" x2="88" y2="0"/>
		</g>
		<g style="--index: 3;">
			<path d="M764,2153L961,2153L961,2271" tabindex="0">
				<title>x356nrej</title>
			</path>
			<rect x="764" y="2153" width="197" height="118"/>
			<path d="M764,2153L764,2153" tabindex="0">
				<title>00:15.61 on 2020-05-14</title>
			</path>
			<line x1="0" y1="2153" x2="2121" y2="2153"/>
			<line x1="764" y1="3714" x2="764" y2="0"/>
			<path d="M961,2271L961,2271" tabindex="0">
				<title>00:14.43 on 2020-11-27</title>
			</path>
			<line x1="0" y1="2271" x2="2121" y2="2271"/>
			<line x1="961" y1="3714" x2="961" y2="0"/>
		</g>
		<g style="--index: 4;">
			<path d="M772,2229" tabindex="0">
				<title>8rp1o2qj</title>
			</path>
			<rect x="772" y="2229" width="0" height="0"/>
			<path d="M772,2229L772,2229" tabindex="0">
				<title>00:14.85 on 2020-05-22</title>
			</path>
			<line x1="0" y1="2229" x2="2121" y2="2229"/>
			<line x1="772" y1="3714" x2="772" y2="0"/>
		</g>
		<g style="--index: 5;">
			<path d="M955,2105L986,2105L986,2275" tabindex="0">
				<title>x7q00668</title>
			</path>
			<rect x="955" y="2105" width="31" height="170"/>
			<path d="M955,2105L955,2105" tabindex="0">
				<title>00:16.09 on 2020-11-21</title>
			</path>
			<line x1="0" y1="2105" x2="2121" y2="2105"/>
			<line x1="955" y1="3714" x2="955" y2="0"/>
			<path d="M986,2275L986,2275" tabindex="0">
				<title>00:14.39 on 2020-12-22</title>
			</path>
			<line x1="0" y1="2275" x2="2121" y2="2275"/>
			<line x1="986" y1="3714" x2="986" y2="0"/>
		</g>
		<g style="--index: 6;">
			<path d="M955,2262L1061,2262L1061,2350L1527,2350L1527,2378" tabindex="0">
				<title>j2yr9lp8</title>
			</path>
			<rect x="955" y="2262" width="572" height="116"/>
			<path d="M955,2262L955,2262" tabindex="0">
				<title>00:14.52 on 2020-11-21</title>
			</path>
			<line x1="0" y1="2262" x2="2121" y2="2262"/>
			<line x1="955" y1="3714" x2="955" y2="0"/>
			<path d="M1061,2350L1061,2350" tabindex="0">
				<title>00:13.64 on 2021-03-07</title>
			</path>
			<line x1="0" y1="2350" x2="2121" y2="2350"/>
			<line x1="1061" y1="3714" x2="1061" y2="0"/>
			<path d="M1527,2378L1527,2378" tabindex="0">
				<title>00:13.36 on 2022-06-16</title>
			</path>
			<line x1="0" y1="2378" x2="2121" y2="2378"/>
			<line x1="1527" y1="3714" x2="1527" y2="0"/>
		</g>
		<g style="--index: 7;">
			<path d="M958,2100" tabindex="0">
				<title>jn3kw0wx</title>
			</path>
			<rect x="958" y="2100" width="0" height="0"/>
			<path d="M958,2100L958,2100" tabindex="0">
				<title>00:16.14 on 2020-11-24</title>
			</path>
			<line x1="0" y1="2100" x2="2121" y2="2100"/>
			<line x1="958" y1="3714" x2="958" y2="0"/>
		</g>
		<g style="--index: 8;">
			<path d="M959,2241" tabindex="0">
				<title>j0np7or8</title>
			</path>
			<rect x="959" y="2241" width="0" height="0"/>
			<path d="M959,2241L959,2241" tabindex="0">
				<title>00:14.73 on 2020-11-25</title>
			</path>
			<line x1="0" y1="2241" x2="2121" y2="2241"/>
			<line x1="959" y1="3714" x2="959" y2="0"/>
		</g>
		<g style="--index: 9;">
			<path d="M961,2264" tabindex="0">
				<title>xkon93k8</title>
			</path>
			<rect x="961" y="2264" width="0" height="0"/>
			<path d="M961,2264L961,2264" tabindex="0">
				<title>00:14.50 on 2020-11-27</title>
			</path>
			<line x1="0" y1="2264" x2="2121" y2="2264"/>
			<line x1="961" y1="3714" x2="961" y2="0"/>
		</g>
		<g style="--index: 10;">
			<path d="M980,2300L985,2300L985,2344" tabindex="0">
				<title>0jmw6wex</title>
			</path>
			<rect x="980" y="2300" width="5" height="44"/>
			<path d="M980,2300L980,2300" tabindex="0">
				<title>00:14.14 on 2020-12-16</title>
			</path>
			<line x1="0" y1="2300" x2="2121" y2="2300"/>
			<line x1="980" y1="3714" x2="980" y2="0"/>
			<path d="M985,2344L985,2344" tabindex="0">
				<title>00:13.70 on 2020-12-21</title>
			</path>
			<line x1="0" y1="2344" x2="2121" y2="2344"/>
			<line x1="985" y1="3714" x2="985" y2="0"/>
		</g>
		<g style="--index: 11;">
			<path d="M1163,727" tabindex="0">
				<title>x7mk3z6x</title>
			</path>
			<rect x="1163" y="727" width="0" height="0"/>
			<path d="M1163,727L1163,727" tabindex="0">
				<title>00:29.87 on 2021-06-17</title>
			</path>
			<line x1="0" y1="727" x2="2121" y2="727"/>
			<line x1="1163" y1="3714" x2="1163" y2="0"/>
		</g>
		<g style="--index: 12;">
			<path d="M1434,0" tabindex="0">
				<title>jpo3e9y8</title>
			</path>
			<rect x="1434" y="0" width="0" height="0"/>
			<path d="M1434,0L1434,0" tabindex="0">
				<title>00:37.14 on 2022-03-15</title>
			</path>
			<line x1="0" y1="0" x2="2121" y2="0"/>
			<line x1="1434" y1="3714" x2="1434" y2="0"/>
		</g>
		<g style="--index: 13;">
			<path d="M1526,2370L1537,2370L1537,2378" tabindex="0">
				<title>xk3m6d68</title>
			</path>
			<rect x="1526" y="2370" width="11" height="8"/>
			<path d="M1526,2370L1526,2370" tabindex="0">
				<title>00:13.44 on 2022-06-15</title>
			</path>
			<line x1="0" y1="2370" x2="2121" y2="2370"/>
			<line x1="1526" y1="3714" x2="1526" y2="0"/>
			<path d="M1537,2378L1537,2378" tabindex="0">
				<title>00:13.36 on 2022-06-26</title>
			</path>
			<line x1="0" y1="2378" x2="2121" y2="2378"/>
			<line x1="1537" y1="3714" x2="1537" y2="0"/>
		</g>
		<g style="--index: 14;">
			<path d="M1609,2347L1800,2347L1800,2382L1809,2382L1809,2386" tabindex="0">
				<title>jn2m23wj</title>
			</path>
			<rect x="1609" y="2347" width="200" height="39"/>
			<path d="M1609,2347L1609,2347" tabindex="0">
				<title>00:13.67 on 2022-09-06</title>
			</path>
			<line x1="0" y1="2347" x2="2121" y2="2347"/>
			<line x1="1609" y1="3714" x2="1609" y2="0"/>
			<path d="M1800,2382L1800,2382" tabindex="0">
				<title>00:13.32 on 2023-03-16</title>
			</path>
			<line x1="0" y1="2382" x2="2121" y2="2382"/>
			<line x1="1800" y1="3714" x2="1800" y2="0"/>
			<path d="M1809,2386L1809,2386" tabindex="0">
				<title>00:13.28 on 2023-03-25</title>
			</path>
			<line x1="0" y1="2386" x2="2121" y2="2386"/>
			<line x1="1809" y1="3714" x2="1809" y2="0"/>
		</g>
		<g style="--index: 15;">
			<path d="M1704,1951" tabindex="0">
				<title>8g0ezgyx</title>
			</path>
			<rect x="1704" y="1951" width="0" height="0"/>
			<path d="M1704,1951L1704,1951" tabindex="0">
				<title>00:17.63 on 2022-12-10</title>
			</path>
			<line x1="0" y1="1951" x2="2121" y2="1951"/>
			<line x1="1704" y1="3714" x2="1704" y2="0"/>
		</g>
		<g style="--index: 16;">
			<path d="M1705,2007" tabindex="0">
				<title>8lonqn28</title>
			</path>
			<rect x="1705" y="2007" width="0" height="0"/>
			<path d="M1705,2007L1705,2007" tabindex="0">
				<title>00:17.07 on 2022-12-11</title>
			</path>
			<line x1="0" y1="2007" x2="2121" y2="2007"/>
			<line x1="1705" y1="3714" x2="1705" y2="0"/>
		</g>
		<g style="--index: 17;">
			<path d="M1749,192" tabindex="0">
				<title>8ewm6dd8</title>
			</path>
			<rect x="1749" y="192" width="0" height="0"/>
			<path d="M1749,192L1749,192" tabindex="0">
				<title>00:35.22 on 2023-01-24</title>
			</path>
			<line x1="0" y1="192" x2="2121" y2="192"/>
			<line x1="1749" y1="3714" x2="1749" y2="0"/>
		</g>
		<g style="--index: 18;">
			<path d="M1820,2094" tabindex="0">
				<title>j20zyvpx</title>
			</path>
			<rect x="1820" y="2094" width="0" height="0"/>
			<path d="M1820,2094L1820,2094" tabindex="0">
				<title>00:16.20 on 2023-04-05</title>
			</path>
			<line x1="0" y1="2094" x2="2121" y2="2094"/>
			<line x1="1820" y1="3714" x2="1820" y2="0"/>
		</g>
		<g style="--index: 19;">
			<path d="M2121,2092" tabindex="0">
				<title>jokvnml8</title>
			</path>
			<rect x="2121" y="2092" width="0" height="0"/>
			<path d="M2121,2092L2121,2092" tabindex="0">
				<title>00:16.22 on 2024-01-31</title>
			</path>
			<line x1="0" y1="2092" x2="2121" y2="2092"/>
			<line x1="2121" y1="3714" x2="2121" y2="0"/>
		</g>
	</g>
</svg>
