<svg xmlns="http://www.w3.org/2000/svg" viewBox="0 0 2081 14201" preserveAspectRatio="none" lang="en" style="color-scheme: dark light;">
	<title>Time by player for leaderboard l_495zlx39-9d8eewld-2lgr793n.4lxpe62q</title>
	<style>
		svg {
			background: var(--canvas-background);
			fill: var(--canvas-background);
			stroke: var(--canvas-foreground);
			stroke-linejoin: round;
			stroke-linecap: round;
		}
		g &gt; path[tabindex] {
			vector-effect: non-scaling-stroke;
			fill: none;
			stroke: hsl(calc(var(--index) / var(--count) * 360), 50%, 50%);
			cursor: help;
		}
		g:is(:hover, :focus-within) &gt; path[tabindex] {
			stroke: var(--canvas-foreground);
		}
		g &gt; path[tabindex]:is(:hover, :focus-within) {
			outline: 0;
		}
		g &gt; path[tabindex]:first-of-type {
			stroke-width: 2;
		}
		g &gt; path[tabindex]:first-of-type:is(:hover, :focus-within) {
			stroke-width: 4;
		}
		g &gt; path[tabindex]:first-of-type:not(:last-of-type) {
			stroke-dasharray: 4 8;
		}
		g &gt; rect {
			vector-effect: non-scaling-stroke;
			fill: none;
			stroke: none;
			pointer-events: none;
		}
		g &gt; path[tabindex]:first-of-type:is(:hover, :focus-within) + rect {
			fill: var(--highlighted);
		}
		g &gt; path[tabindex]:first-of-type ~ path[tabindex] {
			stroke-width: 8;
		}
		g &gt; path[tabindex]:first-of-type ~ path[tabindex]:is(:hover, :focus-within) {
			stroke-width: 16;
		}
		g &gt; line {
			vector-effect: non-scaling-stroke;
			fill: none;
			stroke: none;
			stroke-width: 2;
			stroke-dasharray: 4 8;
			pointer-events: none;
		}
		g &gt; path[tabindex]:first-of-type:is(:hover, :focus-within) + rect + path[tabindex] + line,
		g &gt; path[tabindex]:first-of-type:is(:hover, :focus-within) + rect + path[tabindex] + line + line,
		g &gt; path[tabindex]:first-of-type:is(:hover, :focus-within) ~ path[tabindex]:last-of-type + line,
		g &gt; path[tabindex]:first-of-type:is(:hover, :focus-within) ~ path[tabindex]:last-of-type + line + line,
		g &gt; path[tabindex]:first-of-type ~ path[tabindex]:is(:hover, :focus-within) + line,
		g &gt; path[tabindex]:first-of-type ~ path[tabindex]:is(:hover, :focus-within) + line + line {
			stroke: var(--faded);
		}
		@media (prefers-color-scheme: dark) {
			:root {
				--canvas-background: #000;
				--canvas-foreground: #ccc;
				--highlighted: #6663;
				--faded: #9993;
			}
		}
		@media (prefers-color-scheme: light) {
			:root {
				--canvas-background: #fff;
				--canvas-foreground: #333;
				--highlighted: #9993;
				--faded: #6663;
			}
		}
	</style>
	<g transform="scale(1 -1)" transform-origin="center center" style="--count: 12;">
		<g style="--index: 0;">
			<path d="M0,14201" tabindex="0">
				<title>18qg9ndx</title>
			</path>
			<rect x="0" y="14201" width="0" height="0"/>
			<path d="M0,14201L0,14201" tabindex="0">
				<title>02:22.01 on 2018-04-12</title>
			</path>
			<line x1="0" y1="14201" x2="2081" y2="14201"/>
			<line x1="0" y1="0" x2="0" y2="14201"/>
		</g>
		<g style="--index: 1;">
			<path d="M89,9967L169,9967L169,7148" tabindex="0">
				<title>y8dgoe98</title>
			</path>
			<rect x="89" y="7148" width="80" height="2819"/>
			<path d="M89,9967L89,9967" tabindex="0">
				<title>01:39.67 on 2018-07-10</title>
			</path>
			<line x1="0" y1="9967" x2="2081" y2="9967"/>
			<line x1="89" y1="0" x2="89" y2="14201"/>
			<path d="M169,7148L169,7148" tabindex="0">
				<title>01:11.48 on 2018-09-28</title>
			</path>
			<line x1="0" y1="7148" x2="2081" y2="7148"/>
			<line x1="169" y1="0" x2="169" y2="14201"/>
		</g>
		<g style="--index: 2;">
			<path d="M775,7048" tabindex="0">
				<title>x356nrej</title>
			</path>
			<rect x="775" y="7048" width="0" height="0"/>
			<path d="M775,7048L775,7048" tabindex="0">
				<title>01:10.48 on 2020-05-26</title>
			</path>
			<line x1="0" y1="7048" x2="2081" y2="7048"/>
			<line x1="775" y1="0" x2="775" y2="14201"/>
		</g>
		<g style="--index: 3;">
			<path d="M954,9456L1020,9456L1020,7290" tabindex="0">
				<title>x7q00668</title>
			</path>
			<rect x="954" y="7290" width="66" height="2166"/>
			<path d="M954,9456L954,9456" tabindex="0">
				<title>01:34.56 on 2020-11-21</title>
			</path>
			<line x1="0" y1="9456" x2="2081" y2="9456"/>
			<line x1="954" y1="0" x2="954" y2="14201"/>
			<path d="M1020,7290L1020,7290" tabindex="0">
				<title>01:12.90 on 2021-01-26</title>
			</path>
			<line x1="0" y1="7290" x2="2081" y2="7290"/>
			<line x1="1020" y1="0" x2="1020" y2="14201"/>
		</g>
		<g style="--index: 4;">
			<path d="M1005,7777L1047,7777L1047,7409" tabindex="0">
				<title>j0np7or8</title>
			</path>
			<rect x="1005" y="7409" width="42" height="368"/>
			<path d="M1005,7777L1005,7777" tabindex="0">
				<title>01:17.77 on 2021-01-11</title>
			</path>
			<line x1="0" y1="7777" x2="2081" y2="7777"/>
			<line x1="1005" y1="0" x2="1005" y2="14201"/>
			<path d="M1047,7409L1047,7409" tabindex="0">
				<title>01:14.09 on 2021-02-22</title>
			</path>
			<line x1="0" y1="7409" x2="2081" y2="7409"/>
			<line x1="1047" y1="0" x2="1047" y2="14201"/>
		</g>
		<g style="--index: 5;">
			<path d="M1021,6955" tabindex="0">
				<title>xkon93k8</title>
			</path>
			<rect x="1021" y="6955" width="0" height="0"/>
			<path d="M1021,6955L1021,6955" tabindex="0">
				<title>01:09.55 on 2021-01-27</title>
			</path>
			<line x1="0" y1="6955" x2="2081" y2="6955"/>
			<line x1="1021" y1="0" x2="1021" y2="14201"/>
		</g>
		<g style="--index: 6;">
			<path d="M1218,6783L1529,6783L1529,6530" tabindex="0">
				<title>j2yr9lp8</title>
			</path>
			<rect x="1218" y="6530" width="311" height="253"/>
			<path d="M1218,6783L1218,6783" tabindex="0">
				<title>01:07.83 on 2021-08-12</title>
			</path>
			<line x1="0" y1="6783" x2="2081" y2="6783"/>
			<line x1="1218" y1="0" x2="1218" y2="14201"/>
			<path d="M1529,6530L1529,6530" tabindex="0">
				<title>01:05.30 on 2022-06-19</title>
			</path>
			<line x1="0" y1="6530" x2="2081" y2="6530"/>
			<line x1="1529" y1="0" x2="1529" y2="14201"/>
		</g>
		<g style="--index: 7;">
			<path d="M1301,12761" tabindex="0">
				<title>81qdl4lj</title>
			</path>
			<rect x="1301" y="12761" width="0" height="0"/>
			<path d="M1301,12761L1301,12761" tabindex="0">
				<title>02:07.61 on 2021-11-03</title>
			</path>
			<line x1="0" y1="12761" x2="2081" y2="12761"/>
			<line x1="1301" y1="0" x2="1301" y2="14201"/>
		</g>
		<g style="--index: 8;">
			<path d="M1454,13157" tabindex="0">
				<title>8w9l6k3j</title>
			</path>
			<rect x="1454" y="13157" width="0" height="0"/>
			<path d="M1454,13157L1454,13157" tabindex="0">
				<title>02:11.57 on 2022-04-05</title>
			</path>
			<line x1="0" y1="13157" x2="2081" y2="13157"/>
			<line x1="1454" y1="0" x2="1454" y2="14201"/>
		</g>
		<g style="--index: 9;">
			<path d="M1527,6994L1552,6994L1552,6856L1570,6856L1570,6705" tabindex="0">
				<title>j5vg1ez8</title>
			</path>
			<rect x="1527" y="6705" width="43" height="289"/>
			<path d="M1527,6994L1527,6994" tabindex="0">
				<title>01:09.94 on 2022-06-17</title>
			</path>
			<line x1="0" y1="6994" x2="2081" y2="6994"/>
			<line x1="1527" y1="0" x2="1527" y2="14201"/>
			<path d="M1552,6856L1552,6856" tabindex="0">
				<title>01:08.56 on 2022-07-12</title>
			</path>
			<line x1="0" y1="6856" x2="2081" y2="6856"/>
			<line x1="1552" y1="0" x2="1552" y2="14201"/>
			<path d="M1570,6705L1570,6705" tabindex="0">
				<title>01:07.05 on 2022-07-30</title>
			</path>
			<line x1="0" y1="6705" x2="2081" y2="6705"/>
			<line x1="1570" y1="0" x2="1570" y2="14201"/>
		</g>
		<g style="--index: 10;">
			<path d="M1528,6729" tabindex="0">
				<title>xk3m6d68</title>
			</path>
			<rect x="1528" y="6729" width="0" height="0"/>
			<path d="M1528,6729L1528,6729" tabindex="0">
				<title>01:07.29 on 2022-06-18</title>
			</path>
			<line x1="0" y1="6729" x2="2081" y2="6729"/>
			<line x1="1528" y1="0" x2="1528" y2="14201"/>
		</g>
		<g style="--index: 11;">
			<path d="M2081,6458" tabindex="0">
				<title>jn2m23wj</title>
			</path>
			<rect x="2081" y="6458" width="0" height="0"/>
			<path d="M2081,6458L2081,6458" tabindex="0">
				<title>01:04.58 on 2023-12-23</title>
			</path>
			<line x1="0" y1="6458" x2="2081" y2="6458"/>
			<line x1="2081" y1="0" x2="2081" y2="14201"/>
		</g>
	</g>
</svg>
