<svg xmlns="http://www.w3.org/2000/svg" viewBox="0 0 2028 7098" preserveAspectRatio="none" lang="en" style="color-scheme: dark light;">
		<title>Time by player for leaderboard l_495zlx39-9d8eewld-2lgr793n.21g8ownl</title>
		<style>
			svg {
				background: var(--canvas-background);
				fill: var(--canvas-background);
				stroke: var(--canvas-foreground);
				stroke-linejoin: round;
				stroke-linecap: round;
			}
			g &gt; path[tabindex] {
				vector-effect: non-scaling-stroke;
				fill: none;
				stroke: hsl(calc(var(--index) / var(--count) * 360), 50%, 50%);
				cursor: help;
			}
			g:is(:hover, :focus-within) &gt; path[tabindex] {
				stroke: var(--canvas-foreground);
			}
			g &gt; path[tabindex]:is(:hover, :focus-within) {
				outline: 0;
			}
			g &gt; path[tabindex]:first-of-type {
				stroke-width: 2;
			}
			g &gt; path[tabindex]:first-of-type:is(:hover, :focus-within) {
				stroke-width: 4;
			}
			g &gt; path[tabindex]:first-of-type:not(:last-of-type) {
				stroke-dasharray: 4 8;
			}
			g &gt; rect {
				vector-effect: non-scaling-stroke;
				fill: none;
				stroke: none;
				pointer-events: none;
			}
			g &gt; path[tabindex]:first-of-type:is(:hover, :focus-within) + rect {
				fill: var(--highlighted);
			}
			g &gt; path[tabindex]:first-of-type ~ path[tabindex] {
				stroke-width: 8;
			}
			g &gt; path[tabindex]:first-of-type ~ path[tabindex]:is(:hover, :focus-within) {
				stroke-width: 16;
			}
			g &gt; line {
				vector-effect: non-scaling-stroke;
				fill: none;
				stroke: none;
				stroke-width: 2;
				stroke-dasharray: 4 8;
				pointer-events: none;
			}
			g &gt; path[tabindex]:first-of-type:is(:hover, :focus-within) + rect + path[tabindex] + line,
			g &gt; path[tabindex]:first-of-type:is(:hover, :focus-within) + rect + path[tabindex] + line + line,
			g &gt; path[tabindex]:first-of-type:is(:hover, :focus-within) ~ path[tabindex]:last-of-type + line,
			g &gt; path[tabindex]:first-of-type:is(:hover, :focus-within) ~ path[tabindex]:last-of-type + line + line,
			g &gt; path[tabindex]:first-of-type ~ path[tabindex]:is(:hover, :focus-within) + line,
			g &gt; path[tabindex]:first-of-type ~ path[tabindex]:is(:hover, :focus-within) + line + line {
				stroke: var(--faded);
			}
			@media (prefers-color-scheme: dark) {
				:root {
					--canvas-background: #000;
					--canvas-foreground: #ccc;
					--highlighted: #6663;
					--faded: #9993;
				}
			}
			@media (prefers-color-scheme: light) {
				:root {
					--canvas-background: #fff;
					--canvas-foreground: #333;
					--highlighted: #9993;
					--faded: #6663;
				}
			}
		</style>
		<g style="--count: 27;">
		<g style="--index: 0;">
			<path d="M0,2155" tabindex="0">
				<title>18qg9ndx</title>
			</path>
			<rect x="0" y="2155" width="0" height="0"/>
			<path d="M0,2155L0,2155" tabindex="0">
				<title>00:49.43 on 2018-04-10</title>
			</path>
			<line x1="0" y1="2155" x2="2028" y2="2155"/>
			<line x1="0" y1="7098" x2="0" y2="0"/>
		</g>
		<g style="--index: 1;">
			<path d="M86,3377" tabindex="0">
				<title>qj2pq1p8</title>
			</path>
			<rect x="86" y="3377" width="0" height="0"/>
			<path d="M86,3377L86,3377" tabindex="0">
				<title>00:37.21 on 2018-07-05</title>
			</path>
			<line x1="0" y1="3377" x2="2028" y2="3377"/>
			<line x1="86" y1="7098" x2="86" y2="0"/>
		</g>
		<g style="--index: 2;">
			<path d="M91,3548" tabindex="0">
				<title>y8dgoe98</title>
			</path>
			<rect x="91" y="3548" width="0" height="0"/>
			<path d="M91,3548L91,3548" tabindex="0">
				<title>00:35.50 on 2018-07-10</title>
			</path>
			<line x1="0" y1="3548" x2="2028" y2="3548"/>
			<line x1="91" y1="7098" x2="91" y2="0"/>
		</g>
		<g style="--index: 3;">
			<path d="M761,3897L882,3897L882,3950" tabindex="0">
				<title>x356nrej</title>
			</path>
			<rect x="761" y="3897" width="121" height="53"/>
			<path d="M761,3897L761,3897" tabindex="0">
				<title>00:32.01 on 2020-05-10</title>
			</path>
			<line x1="0" y1="3897" x2="2028" y2="3897"/>
			<line x1="761" y1="7098" x2="761" y2="0"/>
			<path d="M882,3950L882,3950" tabindex="0">
				<title>00:31.48 on 2020-09-08</title>
			</path>
			<line x1="0" y1="3950" x2="2028" y2="3950"/>
			<line x1="882" y1="7098" x2="882" y2="0"/>
		</g>
		<g style="--index: 4;">
			<path d="M819,3683" tabindex="0">
				<title>j92ldvv8</title>
			</path>
			<rect x="819" y="3683" width="0" height="0"/>
			<path d="M819,3683L819,3683" tabindex="0">
				<title>00:34.15 on 2020-07-07</title>
			</path>
			<line x1="0" y1="3683" x2="2028" y2="3683"/>
			<line x1="819" y1="7098" x2="819" y2="0"/>
		</g>
		<g style="--index: 5;">
			<path d="M873,3578" tabindex="0">
				<title>8dwnyqoj</title>
			</path>
			<rect x="873" y="3578" width="0" height="0"/>
			<path d="M873,3578L873,3578" tabindex="0">
				<title>00:35.20 on 2020-08-30</title>
			</path>
			<line x1="0" y1="3578" x2="2028" y2="3578"/>
			<line x1="873" y1="7098" x2="873" y2="0"/>
		</g>
		<g style="--index: 6;">
			<path d="M931,3991L964,3991L964,4196L971,4196L971,4213L979,4213L979,4223L991,4223L991,4294L1195,4294L1195,4486" tabindex="0">
				<title>xkon93k8</title>
			</path>
			<rect x="931" y="3991" width="264" height="495"/>
			<path d="M931,3991L931,3991" tabindex="0">
				<title>00:31.07 on 2020-10-27</title>
			</path>
			<line x1="0" y1="3991" x2="2028" y2="3991"/>
			<line x1="931" y1="7098" x2="931" y2="0"/>
			<path d="M964,4196L964,4196" tabindex="0">
				<title>00:29.02 on 2020-11-29</title>
			</path>
			<line x1="0" y1="4196" x2="2028" y2="4196"/>
			<line x1="964" y1="7098" x2="964" y2="0"/>
			<path d="M971,4213L971,4213" tabindex="0">
				<title>00:28.85 on 2020-12-06</title>
			</path>
			<line x1="0" y1="4213" x2="2028" y2="4213"/>
			<line x1="971" y1="7098" x2="971" y2="0"/>
			<path d="M979,4223L979,4223" tabindex="0">
				<title>00:28.75 on 2020-12-14</title>
			</path>
			<line x1="0" y1="4223" x2="2028" y2="4223"/>
			<line x1="979" y1="7098" x2="979" y2="0"/>
			<path d="M991,4294L991,4294" tabindex="0">
				<title>00:28.04 on 2020-12-26</title>
			</path>
			<line x1="0" y1="4294" x2="2028" y2="4294"/>
			<line x1="991" y1="7098" x2="991" y2="0"/>
			<path d="M1195,4486L1195,4486" tabindex="0">
				<title>00:26.12 on 2021-07-18</title>
			</path>
			<line x1="0" y1="4486" x2="2028" y2="4486"/>
			<line x1="1195" y1="7098" x2="1195" y2="0"/>
		</g>
		<g style="--index: 7;">
			<path d="M956,3651L988,3651L988,4193" tabindex="0">
				<title>x7q00668</title>
			</path>
			<rect x="956" y="3651" width="32" height="542"/>
			<path d="M956,3651L956,3651" tabindex="0">
				<title>00:34.47 on 2020-11-21</title>
			</path>
			<line x1="0" y1="3651" x2="2028" y2="3651"/>
			<line x1="956" y1="7098" x2="956" y2="0"/>
			<path d="M988,4193L988,4193" tabindex="0">
				<title>00:29.05 on 2020-12-23</title>
			</path>
			<line x1="0" y1="4193" x2="2028" y2="4193"/>
			<line x1="988" y1="7098" x2="988" y2="0"/>
		</g>
		<g style="--index: 8;">
			<path d="M958,3915L973,3915L973,4180L978,4180L978,4218L1194,4218L1194,4433L1551,4433L1551,4479" tabindex="0">
				<title>j0np7or8</title>
			</path>
			<rect x="958" y="3915" width="593" height="564"/>
			<path d="M958,3915L958,3915" tabindex="0">
				<title>00:31.83 on 2020-11-23</title>
			</path>
			<line x1="0" y1="3915" x2="2028" y2="3915"/>
			<line x1="958" y1="7098" x2="958" y2="0"/>
			<path d="M973,4180L973,4180" tabindex="0">
				<title>00:29.18 on 2020-12-08</title>
			</path>
			<line x1="0" y1="4180" x2="2028" y2="4180"/>
			<line x1="973" y1="7098" x2="973" y2="0"/>
			<path d="M978,4218L978,4218" tabindex="0">
				<title>00:28.80 on 2020-12-13</title>
			</path>
			<line x1="0" y1="4218" x2="2028" y2="4218"/>
			<line x1="978" y1="7098" x2="978" y2="0"/>
			<path d="M1194,4433L1194,4433" tabindex="0">
				<title>00:26.65 on 2021-07-17</title>
			</path>
			<line x1="0" y1="4433" x2="2028" y2="4433"/>
			<line x1="1194" y1="7098" x2="1194" y2="0"/>
			<path d="M1551,4479L1551,4479" tabindex="0">
				<title>00:26.19 on 2022-07-09</title>
			</path>
			<line x1="0" y1="4479" x2="2028" y2="4479"/>
			<line x1="1551" y1="7098" x2="1551" y2="0"/>
		</g>
		<g style="--index: 9;">
			<path d="M962,3737L963,3737L963,4115L1320,4115L1320,4509L1420,4509L1420,4512L1500,4512L1500,4569L1502,4569L1502,4578L1507,4578L1507,4600L1510,4600L1510,4609L1755,4609L1755,4644" tabindex="0">
				<title>8e9kl5dj</title>
			</path>
			<rect x="962" y="3737" width="793" height="907"/>
			<path d="M962,3737L962,3737" tabindex="0">
				<title>00:33.61 on 2020-11-27</title>
			</path>
			<line x1="0" y1="3737" x2="2028" y2="3737"/>
			<line x1="962" y1="7098" x2="962" y2="0"/>
			<path d="M963,4115L963,4115" tabindex="0">
				<title>00:29.83 on 2020-11-28</title>
			</path>
			<line x1="0" y1="4115" x2="2028" y2="4115"/>
			<line x1="963" y1="7098" x2="963" y2="0"/>
			<path d="M1320,4509L1320,4509" tabindex="0">
				<title>00:25.89 on 2021-11-20</title>
			</path>
			<line x1="0" y1="4509" x2="2028" y2="4509"/>
			<line x1="1320" y1="7098" x2="1320" y2="0"/>
			<path d="M1420,4512L1420,4512" tabindex="0">
				<title>00:25.86 on 2022-02-28</title>
			</path>
			<line x1="0" y1="4512" x2="2028" y2="4512"/>
			<line x1="1420" y1="7098" x2="1420" y2="0"/>
			<path d="M1500,4569L1500,4569" tabindex="0">
				<title>00:25.29 on 2022-05-19</title>
			</path>
			<line x1="0" y1="4569" x2="2028" y2="4569"/>
			<line x1="1500" y1="7098" x2="1500" y2="0"/>
			<path d="M1502,4578L1502,4578" tabindex="0">
				<title>00:25.20 on 2022-05-21</title>
			</path>
			<line x1="0" y1="4578" x2="2028" y2="4578"/>
			<line x1="1502" y1="7098" x2="1502" y2="0"/>
			<path d="M1507,4600L1507,4600" tabindex="0">
				<title>00:24.98 on 2022-05-26</title>
			</path>
			<line x1="0" y1="4600" x2="2028" y2="4600"/>
			<line x1="1507" y1="7098" x2="1507" y2="0"/>
			<path d="M1510,4609L1510,4609" tabindex="0">
				<title>00:24.89 on 2022-05-29</title>
			</path>
			<line x1="0" y1="4609" x2="2028" y2="4609"/>
			<line x1="1510" y1="7098" x2="1510" y2="0"/>
			<path d="M1755,4644L1755,4644" tabindex="0">
				<title>00:24.54 on 2023-01-29</title>
			</path>
			<line x1="0" y1="4644" x2="2028" y2="4644"/>
			<line x1="1755" y1="7098" x2="1755" y2="0"/>
		</g>
		<g style="--index: 10;">
			<path d="M963,4067L1059,4067L1059,4307L1423,4307L1423,4573L1508,4573L1508,4607L1536,4607L1536,4655" tabindex="0">
				<title>j2yr9lp8</title>
			</path>
			<rect x="963" y="4067" width="573" height="588"/>
			<path d="M963,4067L963,4067" tabindex="0">
				<title>00:30.31 on 2020-11-28</title>
			</path>
			<line x1="0" y1="4067" x2="2028" y2="4067"/>
			<line x1="963" y1="7098" x2="963" y2="0"/>
			<path d="M1059,4307L1059,4307" tabindex="0">
				<title>00:27.91 on 2021-03-04</title>
			</path>
			<line x1="0" y1="4307" x2="2028" y2="4307"/>
			<line x1="1059" y1="7098" x2="1059" y2="0"/>
			<path d="M1423,4573L1423,4573" tabindex="0">
				<title>00:25.25 on 2022-03-03</title>
			</path>
			<line x1="0" y1="4573" x2="2028" y2="4573"/>
			<line x1="1423" y1="7098" x2="1423" y2="0"/>
			<path d="M1508,4607L1508,4607" tabindex="0">
				<title>00:24.91 on 2022-05-27</title>
			</path>
			<line x1="0" y1="4607" x2="2028" y2="4607"/>
			<line x1="1508" y1="7098" x2="1508" y2="0"/>
			<path d="M1536,4655L1536,4655" tabindex="0">
				<title>00:24.43 on 2022-06-24</title>
			</path>
			<line x1="0" y1="4655" x2="2028" y2="4655"/>
			<line x1="1536" y1="7098" x2="1536" y2="0"/>
		</g>
		<g style="--index: 11;">
			<path d="M965,3828L966,3828L966,3965" tabindex="0">
				<title>x3507k7j</title>
			</path>
			<rect x="965" y="3828" width="1" height="137"/>
			<path d="M965,3828L965,3828" tabindex="0">
				<title>00:32.70 on 2020-11-30</title>
			</path>
			<line x1="0" y1="3828" x2="2028" y2="3828"/>
			<line x1="965" y1="7098" x2="965" y2="0"/>
			<path d="M966,3965L966,3965" tabindex="0">
				<title>00:31.33 on 2020-12-01</title>
			</path>
			<line x1="0" y1="3965" x2="2028" y2="3965"/>
			<line x1="966" y1="7098" x2="966" y2="0"/>
		</g>
		<g style="--index: 12;">
			<path d="M1045,3583" tabindex="0">
				<title>8en1p568</title>
			</path>
			<rect x="1045" y="3583" width="0" height="0"/>
			<path d="M1045,3583L1045,3583" tabindex="0">
				<title>00:35.15 on 2021-02-18</title>
			</path>
			<line x1="0" y1="3583" x2="2028" y2="3583"/>
			<line x1="1045" y1="7098" x2="1045" y2="0"/>
		</g>
		<g style="--index: 13;">
			<path d="M1107,0" tabindex="0">
				<title>8l4g3z4j</title>
			</path>
			<rect x="1107" y="0" width="0" height="0"/>
			<path d="M1107,0L1107,0" tabindex="0">
				<title>01:10.98 on 2021-04-21</title>
			</path>
			<line x1="0" y1="0" x2="2028" y2="0"/>
			<line x1="1107" y1="7098" x2="1107" y2="0"/>
		</g>
		<g style="--index: 14;">
			<path d="M1408,3419" tabindex="0">
				<title>81qn52qj</title>
			</path>
			<rect x="1408" y="3419" width="0" height="0"/>
			<path d="M1408,3419L1408,3419" tabindex="0">
				<title>00:36.79 on 2022-02-16</title>
			</path>
			<line x1="0" y1="3419" x2="2028" y2="3419"/>
			<line x1="1408" y1="7098" x2="1408" y2="0"/>
		</g>
		<g style="--index: 15;">
			<path d="M1436,1854" tabindex="0">
				<title>jpo31408</title>
			</path>
			<rect x="1436" y="1854" width="0" height="0"/>
			<path d="M1436,1854L1436,1854" tabindex="0">
				<title>00:52.44 on 2022-03-16</title>
			</path>
			<line x1="0" y1="1854" x2="2028" y2="1854"/>
			<line x1="1436" y1="7098" x2="1436" y2="0"/>
		</g>
		<g style="--index: 16;">
			<path d="M1446,3747" tabindex="0">
				<title>x72652r8</title>
			</path>
			<rect x="1446" y="3747" width="0" height="0"/>
			<path d="M1446,3747L1446,3747" tabindex="0">
				<title>00:33.51 on 2022-03-26</title>
			</path>
			<line x1="0" y1="3747" x2="2028" y2="3747"/>
			<line x1="1446" y1="7098" x2="1446" y2="0"/>
		</g>
		<g style="--index: 17;">
			<path d="M1449,3892" tabindex="0">
				<title>8dgwon98</title>
			</path>
			<rect x="1449" y="3892" width="0" height="0"/>
			<path d="M1449,3892L1449,3892" tabindex="0">
				<title>00:32.06 on 2022-03-29</title>
			</path>
			<line x1="0" y1="3892" x2="2028" y2="3892"/>
			<line x1="1449" y1="7098" x2="1449" y2="0"/>
		</g>
		<g style="--index: 18;">
			<path d="M1474,4152L1505,4152L1505,4535" tabindex="0">
				<title>xk3m6d68</title>
			</path>
			<rect x="1474" y="4152" width="31" height="383"/>
			<path d="M1474,4152L1474,4152" tabindex="0">
				<title>00:29.46 on 2022-04-23</title>
			</path>
			<line x1="0" y1="4152" x2="2028" y2="4152"/>
			<line x1="1474" y1="7098" x2="1474" y2="0"/>
			<path d="M1505,4535L1505,4535" tabindex="0">
				<title>00:25.63 on 2022-05-24</title>
			</path>
			<line x1="0" y1="4535" x2="2028" y2="4535"/>
			<line x1="1505" y1="7098" x2="1505" y2="0"/>
		</g>
		<g style="--index: 19;">
			<path d="M1520,4425" tabindex="0">
				<title>x3m3kle8</title>
			</path>
			<rect x="1520" y="4425" width="0" height="0"/>
			<path d="M1520,4425L1520,4425" tabindex="0">
				<title>00:26.73 on 2022-06-08</title>
			</path>
			<line x1="0" y1="4425" x2="2028" y2="4425"/>
			<line x1="1520" y1="7098" x2="1520" y2="0"/>
		</g>
		<g style="--index: 20;">
			<path d="M1555,4167" tabindex="0">
				<title>x33zmz7x</title>
			</path>
			<rect x="1555" y="4167" width="0" height="0"/>
			<path d="M1555,4167L1555,4167" tabindex="0">
				<title>00:29.31 on 2022-07-13</title>
			</path>
			<line x1="0" y1="4167" x2="2028" y2="4167"/>
			<line x1="1555" y1="7098" x2="1555" y2="0"/>
		</g>
		<g style="--index: 21;">
			<path d="M1693,3925" tabindex="0">
				<title>j06mpmwj</title>
			</path>
			<rect x="1693" y="3925" width="0" height="0"/>
			<path d="M1693,3925L1693,3925" tabindex="0">
				<title>00:31.73 on 2022-11-28</title>
			</path>
			<line x1="0" y1="3925" x2="2028" y2="3925"/>
			<line x1="1693" y1="7098" x2="1693" y2="0"/>
		</g>
		<g style="--index: 22;">
			<path d="M1706,3544" tabindex="0">
				<title>8lonqn28</title>
			</path>
			<rect x="1706" y="3544" width="0" height="0"/>
			<path d="M1706,3544L1706,3544" tabindex="0">
				<title>00:35.54 on 2022-12-11</title>
			</path>
			<line x1="0" y1="3544" x2="2028" y2="3544"/>
			<line x1="1706" y1="7098" x2="1706" y2="0"/>
		</g>
		<g style="--index: 23;">
			<path d="M1767,1731" tabindex="0">
				<title>jnplgpd8</title>
			</path>
			<rect x="1767" y="1731" width="0" height="0"/>
			<path d="M1767,1731L1767,1731" tabindex="0">
				<title>00:53.67 on 2023-02-10</title>
			</path>
			<line x1="0" y1="1731" x2="2028" y2="1731"/>
			<line x1="1767" y1="7098" x2="1767" y2="0"/>
		</g>
		<g style="--index: 24;">
			<path d="M1818,4171" tabindex="0">
				<title>j20zyvpx</title>
			</path>
			<rect x="1818" y="4171" width="0" height="0"/>
			<path d="M1818,4171L1818,4171" tabindex="0">
				<title>00:29.27 on 2023-04-02</title>
			</path>
			<line x1="0" y1="4171" x2="2028" y2="4171"/>
			<line x1="1818" y1="7098" x2="1818" y2="0"/>
		</g>
		<g style="--index: 25;">
			<path d="M1959,2668L2028,2668L2028,4332" tabindex="0">
				<title>8ew371p8</title>
			</path>
			<rect x="1959" y="2668" width="69" height="1664"/>
			<path d="M1959,2668L1959,2668" tabindex="0">
				<title>00:44.30 on 2023-08-21</title>
			</path>
			<line x1="0" y1="2668" x2="2028" y2="2668"/>
			<line x1="1959" y1="7098" x2="1959" y2="0"/>
			<path d="M2028,4332L2028,4332" tabindex="0">
				<title>00:27.66 on 2023-10-29</title>
			</path>
			<line x1="0" y1="4332" x2="2028" y2="4332"/>
			<line x1="2028" y1="7098" x2="2028" y2="0"/>
		</g>
		<g style="--index: 26;">
			<path d="M2026,4659" tabindex="0">
				<title>jn2m23wj</title>
			</path>
			<rect x="2026" y="4659" width="0" height="0"/>
			<path d="M2026,4659L2026,4659" tabindex="0">
				<title>00:24.39 on 2023-10-27</title>
			</path>
			<line x1="0" y1="4659" x2="2028" y2="4659"/>
			<line x1="2026" y1="7098" x2="2026" y2="0"/>
		</g>
	</g>
</svg>
