<svg xmlns="http://www.w3.org/2000/svg" viewBox="0 0 1672 4892" preserveAspectRatio="none" lang="en" style="color-scheme: dark light;">
		<title>Time by player for leaderboard l_495zlx39-9d8eewld-2lgr793n.81ppd5g1</title>
		<style>
			svg {
				background: var(--canvas-background);
				fill: var(--canvas-background);
				stroke: var(--canvas-foreground);
				stroke-linejoin: round;
				stroke-linecap: round;
			}
			g &gt; path[tabindex] {
				vector-effect: non-scaling-stroke;
				fill: none;
				stroke: hsl(calc(var(--index) / var(--count) * 360), 50%, 50%);
				cursor: help;
			}
			g:is(:hover, :focus-within) &gt; path[tabindex] {
				stroke: var(--canvas-foreground);
			}
			g &gt; path[tabindex]:is(:hover, :focus-within) {
				outline: 0;
			}
			g &gt; path[tabindex]:first-of-type {
				stroke-width: 2;
			}
			g &gt; path[tabindex]:first-of-type:is(:hover, :focus-within) {
				stroke-width: 4;
			}
			g &gt; path[tabindex]:first-of-type:not(:last-of-type) {
				stroke-dasharray: 4 8;
			}
			g &gt; rect {
				vector-effect: non-scaling-stroke;
				fill: none;
				stroke: none;
				pointer-events: none;
			}
			g &gt; path[tabindex]:first-of-type:is(:hover, :focus-within) + rect {
				fill: var(--highlighted);
			}
			g &gt; path[tabindex]:first-of-type ~ path[tabindex] {
				stroke-width: 8;
			}
			g &gt; path[tabindex]:first-of-type ~ path[tabindex]:is(:hover, :focus-within) {
				stroke-width: 16;
			}
			g &gt; line {
				vector-effect: non-scaling-stroke;
				fill: none;
				stroke: none;
				stroke-width: 2;
				stroke-dasharray: 4 8;
				pointer-events: none;
			}
			g &gt; path[tabindex]:first-of-type:is(:hover, :focus-within) + rect + path[tabindex] + line,
			g &gt; path[tabindex]:first-of-type:is(:hover, :focus-within) + rect + path[tabindex] + line + line,
			g &gt; path[tabindex]:first-of-type:is(:hover, :focus-within) ~ path[tabindex]:last-of-type + line,
			g &gt; path[tabindex]:first-of-type:is(:hover, :focus-within) ~ path[tabindex]:last-of-type + line + line,
			g &gt; path[tabindex]:first-of-type ~ path[tabindex]:is(:hover, :focus-within) + line,
			g &gt; path[tabindex]:first-of-type ~ path[tabindex]:is(:hover, :focus-within) + line + line {
				stroke: var(--faded);
			}
			@media (prefers-color-scheme: dark) {
				:root {
					--canvas-background: #000;
					--canvas-foreground: #ccc;
					--highlighted: #6663;
					--faded: #9993;
				}
			}
			@media (prefers-color-scheme: light) {
				:root {
					--canvas-background: #fff;
					--canvas-foreground: #333;
					--highlighted: #9993;
					--faded: #6663;
				}
			}
		</style>
		<g style="--count: 11;">
		<g style="--index: 0;">
			<path d="M0,0L2,0L2,892L4,892L4,1045" tabindex="0">
				<title>48grel1x</title>
			</path>
			<rect x="0" y="0" width="4" height="1045"/>
			<path d="M0,0L0,0" tabindex="0">
				<title>00:48.92 on 2018-04-09</title>
			</path>
			<line x1="0" y1="0" x2="1672" y2="0"/>
			<line x1="0" y1="4892" x2="0" y2="0"/>
			<path d="M2,892L2,892" tabindex="0">
				<title>00:40.00 on 2018-04-11</title>
			</path>
			<line x1="0" y1="892" x2="1672" y2="892"/>
			<line x1="2" y1="4892" x2="2" y2="0"/>
			<path d="M4,1045L4,1045" tabindex="0">
				<title>00:38.47 on 2018-04-13</title>
			</path>
			<line x1="0" y1="1045" x2="1672" y2="1045"/>
			<line x1="4" y1="4892" x2="4" y2="0"/>
		</g>
		<g style="--index: 1;">
			<path d="M2,841L3,841L3,995" tabindex="0">
				<title>18qg9ndx</title>
			</path>
			<rect x="2" y="841" width="1" height="154"/>
			<path d="M2,841L2,841" tabindex="0">
				<title>00:40.51 on 2018-04-11</title>
			</path>
			<line x1="0" y1="841" x2="1672" y2="841"/>
			<line x1="2" y1="4892" x2="2" y2="0"/>
			<path d="M3,995L3,995" tabindex="0">
				<title>00:38.97 on 2018-04-12</title>
			</path>
			<line x1="0" y1="995" x2="1672" y2="995"/>
			<line x1="3" y1="4892" x2="3" y2="0"/>
		</g>
		<g style="--index: 2;">
			<path d="M90,1547" tabindex="0">
				<title>qj2pq1p8</title>
			</path>
			<rect x="90" y="1547" width="0" height="0"/>
			<path d="M90,1547L90,1547" tabindex="0">
				<title>00:33.45 on 2018-07-08</title>
			</path>
			<line x1="0" y1="1547" x2="1672" y2="1547"/>
			<line x1="90" y1="4892" x2="90" y2="0"/>
		</g>
		<g style="--index: 3;">
			<path d="M91,2022" tabindex="0">
				<title>y8dgoe98</title>
			</path>
			<rect x="91" y="2022" width="0" height="0"/>
			<path d="M91,2022L91,2022" tabindex="0">
				<title>00:28.70 on 2018-07-09</title>
			</path>
			<line x1="0" y1="2022" x2="1672" y2="2022"/>
			<line x1="91" y1="4892" x2="91" y2="0"/>
		</g>
		<g style="--index: 4;">
			<path d="M772,2727" tabindex="0">
				<title>x356nrej</title>
			</path>
			<rect x="772" y="2727" width="0" height="0"/>
			<path d="M772,2727L772,2727" tabindex="0">
				<title>00:21.65 on 2020-05-20</title>
			</path>
			<line x1="0" y1="2727" x2="1672" y2="2727"/>
			<line x1="772" y1="4892" x2="772" y2="0"/>
		</g>
		<g style="--index: 5;">
			<path d="M956,2499" tabindex="0">
				<title>x7q00668</title>
			</path>
			<rect x="956" y="2499" width="0" height="0"/>
			<path d="M956,2499L956,2499" tabindex="0">
				<title>00:23.93 on 2020-11-20</title>
			</path>
			<line x1="0" y1="2499" x2="1672" y2="2499"/>
			<line x1="956" y1="4892" x2="956" y2="0"/>
		</g>
		<g style="--index: 6;">
			<path d="M964,2737L996,2737L996,2777L1054,2777L1054,2827" tabindex="0">
				<title>xkon93k8</title>
			</path>
			<rect x="964" y="2737" width="90" height="90"/>
			<path d="M964,2737L964,2737" tabindex="0">
				<title>00:21.55 on 2020-11-28</title>
			</path>
			<line x1="0" y1="2737" x2="1672" y2="2737"/>
			<line x1="964" y1="4892" x2="964" y2="0"/>
			<path d="M996,2777L996,2777" tabindex="0">
				<title>00:21.15 on 2020-12-30</title>
			</path>
			<line x1="0" y1="2777" x2="1672" y2="2777"/>
			<line x1="996" y1="4892" x2="996" y2="0"/>
			<path d="M1054,2827L1054,2827" tabindex="0">
				<title>00:20.65 on 2021-02-26</title>
			</path>
			<line x1="0" y1="2827" x2="1672" y2="2827"/>
			<line x1="1054" y1="4892" x2="1054" y2="0"/>
		</g>
		<g style="--index: 7;">
			<path d="M979,2222L1016,2222L1016,2554" tabindex="0">
				<title>j0np7or8</title>
			</path>
			<rect x="979" y="2222" width="37" height="332"/>
			<path d="M979,2222L979,2222" tabindex="0">
				<title>00:26.70 on 2020-12-13</title>
			</path>
			<line x1="0" y1="2222" x2="1672" y2="2222"/>
			<line x1="979" y1="4892" x2="979" y2="0"/>
			<path d="M1016,2554L1016,2554" tabindex="0">
				<title>00:23.38 on 2021-01-19</title>
			</path>
			<line x1="0" y1="2554" x2="1672" y2="2554"/>
			<line x1="1016" y1="4892" x2="1016" y2="0"/>
		</g>
		<g style="--index: 8;">
			<path d="M1054,2816" tabindex="0">
				<title>j2yr9lp8</title>
			</path>
			<rect x="1054" y="2816" width="0" height="0"/>
			<path d="M1054,2816L1054,2816" tabindex="0">
				<title>00:20.76 on 2021-02-26</title>
			</path>
			<line x1="0" y1="2816" x2="1672" y2="2816"/>
			<line x1="1054" y1="4892" x2="1054" y2="0"/>
		</g>
		<g style="--index: 9;">
			<path d="M1672,2910" tabindex="0">
				<title>jn2m23wj</title>
			</path>
			<rect x="1672" y="2910" width="0" height="0"/>
			<path d="M1672,2910L1672,2910" tabindex="0">
				<title>00:19.82 on 2022-11-06</title>
			</path>
			<line x1="0" y1="2910" x2="1672" y2="2910"/>
			<line x1="1672" y1="4892" x2="1672" y2="0"/>
		</g>
		<g style="--index: 10;">
			<path d="M1672,2872" tabindex="0">
				<title>0jmw6wex</title>
			</path>
			<rect x="1672" y="2872" width="0" height="0"/>
			<path d="M1672,2872L1672,2872" tabindex="0">
				<title>00:20.20 on 2022-11-06</title>
			</path>
			<line x1="0" y1="2872" x2="1672" y2="2872"/>
			<line x1="1672" y1="4892" x2="1672" y2="0"/>
		</g>
	</g>
</svg>
