<svg xmlns="http://www.w3.org/2000/svg" viewBox="0 0 641 49960" preserveAspectRatio="none" lang="en" style="color-scheme: dark light;">
	<title>Time by player for leaderboard l_495zlx39-xd144xzd-38dz6v1n.814y45w1</title>
	<style>
		svg {
			background: var(--canvas-background);
			fill: var(--canvas-background);
			stroke: var(--canvas-foreground);
			stroke-linejoin: round;
			stroke-linecap: round;
		}
		g &gt; path[tabindex] {
			vector-effect: non-scaling-stroke;
			fill: none;
			stroke: hsl(calc(var(--index) / var(--count) * 360), 50%, 50%);
			cursor: help;
		}
		g:is(:hover, :focus-within) &gt; path[tabindex] {
			stroke: var(--canvas-foreground);
		}
		g &gt; path[tabindex]:is(:hover, :focus-within) {
			outline: 0;
		}
		g &gt; path[tabindex]:first-of-type {
			stroke-width: 2;
		}
		g &gt; path[tabindex]:first-of-type:is(:hover, :focus-within) {
			stroke-width: 4;
		}
		g &gt; path[tabindex]:first-of-type:not(:last-of-type) {
			stroke-dasharray: 4 8;
		}
		g &gt; rect {
			vector-effect: non-scaling-stroke;
			fill: none;
			stroke: none;
			pointer-events: none;
		}
		g &gt; path[tabindex]:first-of-type:is(:hover, :focus-within) + rect {
			fill: var(--highlighted);
		}
		g &gt; path[tabindex]:first-of-type ~ path[tabindex] {
			stroke-width: 8;
		}
		g &gt; path[tabindex]:first-of-type ~ path[tabindex]:is(:hover, :focus-within) {
			stroke-width: 16;
		}
		g &gt; line {
			vector-effect: non-scaling-stroke;
			fill: none;
			stroke: none;
			stroke-width: 2;
			stroke-dasharray: 4 8;
			pointer-events: none;
		}
		g &gt; path[tabindex]:first-of-type:is(:hover, :focus-within) + rect + path[tabindex] + line,
		g &gt; path[tabindex]:first-of-type:is(:hover, :focus-within) + rect + path[tabindex] + line + line,
		g &gt; path[tabindex]:first-of-type:is(:hover, :focus-within) ~ path[tabindex]:last-of-type + line,
		g &gt; path[tabindex]:first-of-type:is(:hover, :focus-within) ~ path[tabindex]:last-of-type + line + line,
		g &gt; path[tabindex]:first-of-type ~ path[tabindex]:is(:hover, :focus-within) + line,
		g &gt; path[tabindex]:first-of-type ~ path[tabindex]:is(:hover, :focus-within) + line + line {
			stroke: var(--faded);
		}
		@media (prefers-color-scheme: dark) {
			:root {
				--canvas-background: #000;
				--canvas-foreground: #ccc;
				--highlighted: #6663;
				--faded: #9993;
			}
		}
		@media (prefers-color-scheme: light) {
			:root {
				--canvas-background: #fff;
				--canvas-foreground: #333;
				--highlighted: #9993;
				--faded: #6663;
			}
		}
	</style>
	<g transform="scale(1 -1)" transform-origin="center center" style="--count: 6;">
		<g style="--index: 0;">
			<path d="M0,27817L88,27817L88,17630L89,17630L89,16776" tabindex="0">
				<title>xkon93k8</title>
			</path>
			<rect x="0" y="16776" width="89" height="11041"/>
			<path d="M0,27817L0,27817" tabindex="0">
				<title>04:38.17 on 2020-10-13</title>
			</path>
			<line x1="0" y1="27817" x2="641" y2="27817"/>
			<line x1="0" y1="0" x2="0" y2="49960"/>
			<path d="M88,17630L88,17630" tabindex="0">
				<title>02:56.30 on 2021-01-09</title>
			</path>
			<line x1="0" y1="17630" x2="641" y2="17630"/>
			<line x1="88" y1="0" x2="88" y2="49960"/>
			<path d="M89,16776L89,16776" tabindex="0">
				<title>02:47.76 on 2021-01-10</title>
			</path>
			<line x1="0" y1="16776" x2="641" y2="16776"/>
			<line x1="89" y1="0" x2="89" y2="49960"/>
		</g>
		<g style="--index: 1;">
			<path d="M87,24454L140,24454L140,19882" tabindex="0">
				<title>j0np7or8</title>
			</path>
			<rect x="87" y="19882" width="53" height="4572"/>
			<path d="M87,24454L87,24454" tabindex="0">
				<title>04:04.54 on 2021-01-08</title>
			</path>
			<line x1="0" y1="24454" x2="641" y2="24454"/>
			<line x1="87" y1="0" x2="87" y2="49960"/>
			<path d="M140,19882L140,19882" tabindex="0">
				<title>03:18.82 on 2021-03-02</title>
			</path>
			<line x1="0" y1="19882" x2="641" y2="19882"/>
			<line x1="140" y1="0" x2="140" y2="49960"/>
		</g>
		<g style="--index: 2;">
			<path d="M88,17443" tabindex="0">
				<title>x356nrej</title>
			</path>
			<rect x="88" y="17443" width="0" height="0"/>
			<path d="M88,17443L88,17443" tabindex="0">
				<title>02:54.43 on 2021-01-09</title>
			</path>
			<line x1="0" y1="17443" x2="641" y2="17443"/>
			<line x1="88" y1="0" x2="88" y2="49960"/>
		</g>
		<g style="--index: 3;">
			<path d="M164,16683" tabindex="0">
				<title>x7q00668</title>
			</path>
			<rect x="164" y="16683" width="0" height="0"/>
			<path d="M164,16683L164,16683" tabindex="0">
				<title>02:46.83 on 2021-03-26</title>
			</path>
			<line x1="0" y1="16683" x2="641" y2="16683"/>
			<line x1="164" y1="0" x2="164" y2="49960"/>
		</g>
		<g style="--index: 4;">
			<path d="M608,16143" tabindex="0">
				<title>xk3m6d68</title>
			</path>
			<rect x="608" y="16143" width="0" height="0"/>
			<path d="M608,16143L608,16143" tabindex="0">
				<title>02:41.43 on 2022-06-13</title>
			</path>
			<line x1="0" y1="16143" x2="641" y2="16143"/>
			<line x1="608" y1="0" x2="608" y2="49960"/>
		</g>
		<g style="--index: 5;">
			<path d="M641,49960" tabindex="0">
				<title>x7wro1r8</title>
			</path>
			<rect x="641" y="49960" width="0" height="0"/>
			<path d="M641,49960L641,49960" tabindex="0">
				<title>08:19.60 on 2022-07-16</title>
			</path>
			<line x1="0" y1="49960" x2="641" y2="49960"/>
			<line x1="641" y1="0" x2="641" y2="49960"/>
		</g>
	</g>
</svg>
