<svg xmlns="http://www.w3.org/2000/svg" viewBox="0 0 641 49960" preserveAspectRatio="none" lang="en" style="color-scheme: dark light;">
		<title>Time by player for leaderboard l_495zlx39-xd144xzd-38dz6v1n.814y45w1</title>
		<style>
			svg {
				background: var(--canvas-background);
				fill: var(--canvas-background);
				stroke: var(--canvas-foreground);
				stroke-linejoin: round;
				stroke-linecap: round;
			}
			g &gt; path[tabindex] {
				vector-effect: non-scaling-stroke;
				fill: none;
				stroke: hsl(calc(var(--index) / var(--count) * 360), 50%, 50%);
				cursor: help;
			}
			g:is(:hover, :focus-within) &gt; path[tabindex] {
				stroke: var(--canvas-foreground);
			}
			g &gt; path[tabindex]:is(:hover, :focus-within) {
				outline: 0;
			}
			g &gt; path[tabindex]:first-of-type {
				stroke-width: 2;
			}
			g &gt; path[tabindex]:first-of-type:is(:hover, :focus-within) {
				stroke-width: 4;
			}
			g &gt; path[tabindex]:first-of-type:not(:last-of-type) {
				stroke-dasharray: 4 8;
			}
			g &gt; rect {
				vector-effect: non-scaling-stroke;
				fill: none;
				stroke: none;
				pointer-events: none;
			}
			g &gt; path[tabindex]:first-of-type:is(:hover, :focus-within) + rect {
				fill: var(--highlighted);
			}
			g &gt; path[tabindex]:first-of-type ~ path[tabindex] {
				stroke-width: 8;
			}
			g &gt; path[tabindex]:first-of-type ~ path[tabindex]:is(:hover, :focus-within) {
				stroke-width: 16;
			}
			g &gt; line {
				vector-effect: non-scaling-stroke;
				fill: none;
				stroke: none;
				stroke-width: 2;
				stroke-dasharray: 4 8;
				pointer-events: none;
			}
			g &gt; path[tabindex]:first-of-type:is(:hover, :focus-within) + rect + path[tabindex] + line,
			g &gt; path[tabindex]:first-of-type:is(:hover, :focus-within) + rect + path[tabindex] + line + line,
			g &gt; path[tabindex]:first-of-type:is(:hover, :focus-within) ~ path[tabindex]:last-of-type + line,
			g &gt; path[tabindex]:first-of-type:is(:hover, :focus-within) ~ path[tabindex]:last-of-type + line + line,
			g &gt; path[tabindex]:first-of-type ~ path[tabindex]:is(:hover, :focus-within) + line,
			g &gt; path[tabindex]:first-of-type ~ path[tabindex]:is(:hover, :focus-within) + line + line {
				stroke: var(--faded);
			}
			@media (prefers-color-scheme: dark) {
				:root {
					--canvas-background: #000;
					--canvas-foreground: #ccc;
					--highlighted: #6663;
					--faded: #9993;
				}
			}
			@media (prefers-color-scheme: light) {
				:root {
					--canvas-background: #fff;
					--canvas-foreground: #333;
					--highlighted: #9993;
					--faded: #6663;
				}
			}
		</style>
		<g style="--count: 6;">
		<g style="--index: 0;">
			<path d="M0,22143L88,22143L88,32330L89,32330L89,33184" tabindex="0">
				<title>xkon93k8</title>
			</path>
			<rect x="0" y="22143" width="89" height="11041"/>
			<path d="M0,22143L0,22143" tabindex="0">
				<title>04:38.17 on 2020-10-13</title>
			</path>
			<line x1="0" y1="22143" x2="641" y2="22143"/>
			<line x1="0" y1="49960" x2="0" y2="0"/>
			<path d="M88,32330L88,32330" tabindex="0">
				<title>02:56.30 on 2021-01-09</title>
			</path>
			<line x1="0" y1="32330" x2="641" y2="32330"/>
			<line x1="88" y1="49960" x2="88" y2="0"/>
			<path d="M89,33184L89,33184" tabindex="0">
				<title>02:47.76 on 2021-01-10</title>
			</path>
			<line x1="0" y1="33184" x2="641" y2="33184"/>
			<line x1="89" y1="49960" x2="89" y2="0"/>
		</g>
		<g style="--index: 1;">
			<path d="M87,25506L140,25506L140,30078" tabindex="0">
				<title>j0np7or8</title>
			</path>
			<rect x="87" y="25506" width="53" height="4572"/>
			<path d="M87,25506L87,25506" tabindex="0">
				<title>04:04.54 on 2021-01-08</title>
			</path>
			<line x1="0" y1="25506" x2="641" y2="25506"/>
			<line x1="87" y1="49960" x2="87" y2="0"/>
			<path d="M140,30078L140,30078" tabindex="0">
				<title>03:18.82 on 2021-03-02</title>
			</path>
			<line x1="0" y1="30078" x2="641" y2="30078"/>
			<line x1="140" y1="49960" x2="140" y2="0"/>
		</g>
		<g style="--index: 2;">
			<path d="M88,32517" tabindex="0">
				<title>x356nrej</title>
			</path>
			<rect x="88" y="32517" width="0" height="0"/>
			<path d="M88,32517L88,32517" tabindex="0">
				<title>02:54.43 on 2021-01-09</title>
			</path>
			<line x1="0" y1="32517" x2="641" y2="32517"/>
			<line x1="88" y1="49960" x2="88" y2="0"/>
		</g>
		<g style="--index: 3;">
			<path d="M164,33277" tabindex="0">
				<title>x7q00668</title>
			</path>
			<rect x="164" y="33277" width="0" height="0"/>
			<path d="M164,33277L164,33277" tabindex="0">
				<title>02:46.83 on 2021-03-26</title>
			</path>
			<line x1="0" y1="33277" x2="641" y2="33277"/>
			<line x1="164" y1="49960" x2="164" y2="0"/>
		</g>
		<g style="--index: 4;">
			<path d="M608,33817" tabindex="0">
				<title>xk3m6d68</title>
			</path>
			<rect x="608" y="33817" width="0" height="0"/>
			<path d="M608,33817L608,33817" tabindex="0">
				<title>02:41.43 on 2022-06-13</title>
			</path>
			<line x1="0" y1="33817" x2="641" y2="33817"/>
			<line x1="608" y1="49960" x2="608" y2="0"/>
		</g>
		<g style="--index: 5;">
			<path d="M641,0" tabindex="0">
				<title>x7wro1r8</title>
			</path>
			<rect x="641" y="0" width="0" height="0"/>
			<path d="M641,0L641,0" tabindex="0">
				<title>08:19.60 on 2022-07-16</title>
			</path>
			<line x1="0" y1="0" x2="641" y2="0"/>
			<line x1="641" y1="49960" x2="641" y2="0"/>
		</g>
	</g>
</svg>
