<svg xmlns="http://www.w3.org/2000/svg" viewBox="0 0 237 9187" preserveAspectRatio="none" lang="en" style="color-scheme: dark light;">
	<title>Time by player for leaderboard l_495zlx39-9d8eewld-2lgr793n.mlno5r0q</title>
	<style>
		svg {
			background: var(--canvas-background);
			fill: var(--canvas-background);
			stroke: var(--canvas-foreground);
			stroke-linejoin: round;
			stroke-linecap: round;
		}
		g &gt; path[tabindex] {
			vector-effect: non-scaling-stroke;
			fill: none;
			stroke: hsl(calc(var(--index) / var(--count) * 360), 50%, 50%);
			cursor: help;
		}
		g:is(:hover, :focus-within) &gt; path[tabindex] {
			stroke: var(--canvas-foreground);
		}
		g &gt; path[tabindex]:is(:hover, :focus-within) {
			outline: 0;
		}
		g &gt; path[tabindex]:first-of-type {
			stroke-width: 2;
		}
		g &gt; path[tabindex]:first-of-type:is(:hover, :focus-within) {
			stroke-width: 4;
		}
		g &gt; path[tabindex]:first-of-type:not(:last-of-type) {
			stroke-dasharray: 4 8;
		}
		g &gt; rect {
			vector-effect: non-scaling-stroke;
			fill: none;
			stroke: none;
			pointer-events: none;
		}
		g &gt; path[tabindex]:first-of-type:is(:hover, :focus-within) + rect {
			fill: var(--highlighted);
		}
		g &gt; path[tabindex]:first-of-type ~ path[tabindex] {
			stroke-width: 8;
		}
		g &gt; path[tabindex]:first-of-type ~ path[tabindex]:is(:hover, :focus-within) {
			stroke-width: 16;
		}
		g &gt; line {
			vector-effect: non-scaling-stroke;
			fill: none;
			stroke: none;
			stroke-width: 2;
			stroke-dasharray: 4 8;
			pointer-events: none;
		}
		g &gt; path[tabindex]:first-of-type:is(:hover, :focus-within) + rect + path[tabindex] + line,
		g &gt; path[tabindex]:first-of-type:is(:hover, :focus-within) + rect + path[tabindex] + line + line,
		g &gt; path[tabindex]:first-of-type:is(:hover, :focus-within) ~ path[tabindex]:last-of-type + line,
		g &gt; path[tabindex]:first-of-type:is(:hover, :focus-within) ~ path[tabindex]:last-of-type + line + line,
		g &gt; path[tabindex]:first-of-type ~ path[tabindex]:is(:hover, :focus-within) + line,
		g &gt; path[tabindex]:first-of-type ~ path[tabindex]:is(:hover, :focus-within) + line + line {
			stroke: var(--faded);
		}
		@media (prefers-color-scheme: dark) {
			:root {
				--canvas-background: #000;
				--canvas-foreground: #ccc;
				--highlighted: #6663;
				--faded: #9993;
			}
		}
		@media (prefers-color-scheme: light) {
			:root {
				--canvas-background: #fff;
				--canvas-foreground: #333;
				--highlighted: #9993;
				--faded: #6663;
			}
		}
	</style>
	<g transform="scale(1 -1)" transform-origin="center center" style="--count: 9;">
		<g style="--index: 0;">
			<path d="M0,6840" tabindex="0">
				<title>j5vg1ez8</title>
			</path>
			<rect x="0" y="6840" width="0" height="0"/>
			<path d="M0,6840L0,6840" tabindex="0">
				<title>01:08.40 on 2023-01-29</title>
			</path>
			<line x1="0" y1="6840" x2="237" y2="6840"/>
			<line x1="0" y1="0" x2="0" y2="9187"/>
		</g>
		<g style="--index: 1;">
			<path d="M19,9187" tabindex="0">
				<title>jnp37d18</title>
			</path>
			<rect x="19" y="9187" width="0" height="0"/>
			<path d="M19,9187L19,9187" tabindex="0">
				<title>01:31.87 on 2023-02-17</title>
			</path>
			<line x1="0" y1="9187" x2="237" y2="9187"/>
			<line x1="19" y1="0" x2="19" y2="9187"/>
		</g>
		<g style="--index: 2;">
			<path d="M22,8957" tabindex="0">
				<title>8640og3j</title>
			</path>
			<rect x="22" y="8957" width="0" height="0"/>
			<path d="M22,8957L22,8957" tabindex="0">
				<title>01:29.57 on 2023-02-20</title>
			</path>
			<line x1="0" y1="8957" x2="237" y2="8957"/>
			<line x1="22" y1="0" x2="22" y2="9187"/>
		</g>
		<g style="--index: 3;">
			<path d="M116,8815" tabindex="0">
				<title>8101pdpx</title>
			</path>
			<rect x="116" y="8815" width="0" height="0"/>
			<path d="M116,8815L116,8815" tabindex="0">
				<title>01:28.15 on 2023-05-25</title>
			</path>
			<line x1="0" y1="8815" x2="237" y2="8815"/>
			<line x1="116" y1="0" x2="116" y2="9187"/>
		</g>
		<g style="--index: 4;">
			<path d="M127,8616" tabindex="0">
				<title>8rl1rq38</title>
			</path>
			<rect x="127" y="8616" width="0" height="0"/>
			<path d="M127,8616L127,8616" tabindex="0">
				<title>01:26.16 on 2023-06-05</title>
			</path>
			<line x1="0" y1="8616" x2="237" y2="8616"/>
			<line x1="127" y1="0" x2="127" y2="9187"/>
		</g>
		<g style="--index: 5;">
			<path d="M133,6648L140,6648L140,6399" tabindex="0">
				<title>xkon93k8</title>
			</path>
			<rect x="133" y="6399" width="7" height="249"/>
			<path d="M133,6648L133,6648" tabindex="0">
				<title>01:06.48 on 2023-06-11</title>
			</path>
			<line x1="0" y1="6648" x2="237" y2="6648"/>
			<line x1="133" y1="0" x2="133" y2="9187"/>
			<path d="M140,6399L140,6399" tabindex="0">
				<title>01:03.99 on 2023-06-18</title>
			</path>
			<line x1="0" y1="6399" x2="237" y2="6399"/>
			<line x1="140" y1="0" x2="140" y2="9187"/>
		</g>
		<g style="--index: 6;">
			<path d="M137,6600L146,6600L146,6205" tabindex="0">
				<title>8g0ppzrx</title>
			</path>
			<rect x="137" y="6205" width="9" height="395"/>
			<path d="M137,6600L137,6600" tabindex="0">
				<title>01:06.00 on 2023-06-15</title>
			</path>
			<line x1="0" y1="6600" x2="237" y2="6600"/>
			<line x1="137" y1="0" x2="137" y2="9187"/>
			<path d="M146,6205L146,6205" tabindex="0">
				<title>01:02.05 on 2023-06-24</title>
			</path>
			<line x1="0" y1="6205" x2="237" y2="6205"/>
			<line x1="146" y1="0" x2="146" y2="9187"/>
		</g>
		<g style="--index: 7;">
			<path d="M167,7148" tabindex="0">
				<title>x3wdlvkj</title>
			</path>
			<rect x="167" y="7148" width="0" height="0"/>
			<path d="M167,7148L167,7148" tabindex="0">
				<title>01:11.48 on 2023-07-15</title>
			</path>
			<line x1="0" y1="7148" x2="237" y2="7148"/>
			<line x1="167" y1="0" x2="167" y2="9187"/>
		</g>
		<g style="--index: 8;">
			<path d="M237,6107" tabindex="0">
				<title>jn2m23wj</title>
			</path>
			<rect x="237" y="6107" width="0" height="0"/>
			<path d="M237,6107L237,6107" tabindex="0">
				<title>01:01.07 on 2023-09-23</title>
			</path>
			<line x1="0" y1="6107" x2="237" y2="6107"/>
			<line x1="237" y1="0" x2="237" y2="9187"/>
		</g>
	</g>
</svg>
