<svg xmlns="http://www.w3.org/2000/svg" viewBox="0 0 2081 14201" preserveAspectRatio="none" lang="en" style="color-scheme: dark light;">
		<title>Time by player for leaderboard l_495zlx39-9d8eewld-2lgr793n.4lxpe62q</title>
		<style>
			svg {
				background: var(--canvas-background);
				fill: var(--canvas-background);
				stroke: var(--canvas-foreground);
				stroke-linejoin: round;
				stroke-linecap: round;
			}
			g &gt; path[tabindex] {
				vector-effect: non-scaling-stroke;
				fill: none;
				stroke: hsl(calc(var(--index) / var(--count) * 360), 50%, 50%);
				cursor: help;
			}
			g:is(:hover, :focus-within) &gt; path[tabindex] {
				stroke: var(--canvas-foreground);
			}
			g &gt; path[tabindex]:is(:hover, :focus-within) {
				outline: 0;
			}
			g &gt; path[tabindex]:first-of-type {
				stroke-width: 2;
			}
			g &gt; path[tabindex]:first-of-type:is(:hover, :focus-within) {
				stroke-width: 4;
			}
			g &gt; path[tabindex]:first-of-type:not(:last-of-type) {
				stroke-dasharray: 4 8;
			}
			g &gt; rect {
				vector-effect: non-scaling-stroke;
				fill: none;
				stroke: none;
				pointer-events: none;
			}
			g &gt; path[tabindex]:first-of-type:is(:hover, :focus-within) + rect {
				fill: var(--highlighted);
			}
			g &gt; path[tabindex]:first-of-type ~ path[tabindex] {
				stroke-width: 8;
			}
			g &gt; path[tabindex]:first-of-type ~ path[tabindex]:is(:hover, :focus-within) {
				stroke-width: 16;
			}
			g &gt; line {
				vector-effect: non-scaling-stroke;
				fill: none;
				stroke: none;
				stroke-width: 2;
				stroke-dasharray: 4 8;
				pointer-events: none;
			}
			g &gt; path[tabindex]:first-of-type:is(:hover, :focus-within) + rect + path[tabindex] + line,
			g &gt; path[tabindex]:first-of-type:is(:hover, :focus-within) + rect + path[tabindex] + line + line,
			g &gt; path[tabindex]:first-of-type:is(:hover, :focus-within) ~ path[tabindex]:last-of-type + line,
			g &gt; path[tabindex]:first-of-type:is(:hover, :focus-within) ~ path[tabindex]:last-of-type + line + line,
			g &gt; path[tabindex]:first-of-type ~ path[tabindex]:is(:hover, :focus-within) + line,
			g &gt; path[tabindex]:first-of-type ~ path[tabindex]:is(:hover, :focus-within) + line + line {
				stroke: var(--faded);
			}
			@media (prefers-color-scheme: dark) {
				:root {
					--canvas-background: #000;
					--canvas-foreground: #ccc;
					--highlighted: #6663;
					--faded: #9993;
				}
			}
			@media (prefers-color-scheme: light) {
				:root {
					--canvas-background: #fff;
					--canvas-foreground: #333;
					--highlighted: #9993;
					--faded: #6663;
				}
			}
		</style>
		<g style="--count: 12;">
		<g style="--index: 0;">
			<path d="M0,0" tabindex="0">
				<title>18qg9ndx</title>
			</path>
			<rect x="0" y="0" width="0" height="0"/>
			<path d="M0,0L0,0" tabindex="0">
				<title>02:22.01 on 2018-04-12</title>
			</path>
			<line x1="0" y1="0" x2="2081" y2="0"/>
			<line x1="0" y1="14201" x2="0" y2="0"/>
		</g>
		<g style="--index: 1;">
			<path d="M89,4234L169,4234L169,7053" tabindex="0">
				<title>y8dgoe98</title>
			</path>
			<rect x="89" y="4234" width="80" height="2819"/>
			<path d="M89,4234L89,4234" tabindex="0">
				<title>01:39.67 on 2018-07-10</title>
			</path>
			<line x1="0" y1="4234" x2="2081" y2="4234"/>
			<line x1="89" y1="14201" x2="89" y2="0"/>
			<path d="M169,7053L169,7053" tabindex="0">
				<title>01:11.48 on 2018-09-28</title>
			</path>
			<line x1="0" y1="7053" x2="2081" y2="7053"/>
			<line x1="169" y1="14201" x2="169" y2="0"/>
		</g>
		<g style="--index: 2;">
			<path d="M775,7153" tabindex="0">
				<title>x356nrej</title>
			</path>
			<rect x="775" y="7153" width="0" height="0"/>
			<path d="M775,7153L775,7153" tabindex="0">
				<title>01:10.48 on 2020-05-26</title>
			</path>
			<line x1="0" y1="7153" x2="2081" y2="7153"/>
			<line x1="775" y1="14201" x2="775" y2="0"/>
		</g>
		<g style="--index: 3;">
			<path d="M954,4745L1020,4745L1020,6911" tabindex="0">
				<title>x7q00668</title>
			</path>
			<rect x="954" y="4745" width="66" height="2166"/>
			<path d="M954,4745L954,4745" tabindex="0">
				<title>01:34.56 on 2020-11-21</title>
			</path>
			<line x1="0" y1="4745" x2="2081" y2="4745"/>
			<line x1="954" y1="14201" x2="954" y2="0"/>
			<path d="M1020,6911L1020,6911" tabindex="0">
				<title>01:12.90 on 2021-01-26</title>
			</path>
			<line x1="0" y1="6911" x2="2081" y2="6911"/>
			<line x1="1020" y1="14201" x2="1020" y2="0"/>
		</g>
		<g style="--index: 4;">
			<path d="M1005,6424L1047,6424L1047,6792" tabindex="0">
				<title>j0np7or8</title>
			</path>
			<rect x="1005" y="6424" width="42" height="368"/>
			<path d="M1005,6424L1005,6424" tabindex="0">
				<title>01:17.77 on 2021-01-11</title>
			</path>
			<line x1="0" y1="6424" x2="2081" y2="6424"/>
			<line x1="1005" y1="14201" x2="1005" y2="0"/>
			<path d="M1047,6792L1047,6792" tabindex="0">
				<title>01:14.09 on 2021-02-22</title>
			</path>
			<line x1="0" y1="6792" x2="2081" y2="6792"/>
			<line x1="1047" y1="14201" x2="1047" y2="0"/>
		</g>
		<g style="--index: 5;">
			<path d="M1021,7246" tabindex="0">
				<title>xkon93k8</title>
			</path>
			<rect x="1021" y="7246" width="0" height="0"/>
			<path d="M1021,7246L1021,7246" tabindex="0">
				<title>01:09.55 on 2021-01-27</title>
			</path>
			<line x1="0" y1="7246" x2="2081" y2="7246"/>
			<line x1="1021" y1="14201" x2="1021" y2="0"/>
		</g>
		<g style="--index: 6;">
			<path d="M1218,7418L1529,7418L1529,7671" tabindex="0">
				<title>j2yr9lp8</title>
			</path>
			<rect x="1218" y="7418" width="311" height="253"/>
			<path d="M1218,7418L1218,7418" tabindex="0">
				<title>01:07.83 on 2021-08-12</title>
			</path>
			<line x1="0" y1="7418" x2="2081" y2="7418"/>
			<line x1="1218" y1="14201" x2="1218" y2="0"/>
			<path d="M1529,7671L1529,7671" tabindex="0">
				<title>01:05.30 on 2022-06-19</title>
			</path>
			<line x1="0" y1="7671" x2="2081" y2="7671"/>
			<line x1="1529" y1="14201" x2="1529" y2="0"/>
		</g>
		<g style="--index: 7;">
			<path d="M1301,1440" tabindex="0">
				<title>81qdl4lj</title>
			</path>
			<rect x="1301" y="1440" width="0" height="0"/>
			<path d="M1301,1440L1301,1440" tabindex="0">
				<title>02:07.61 on 2021-11-03</title>
			</path>
			<line x1="0" y1="1440" x2="2081" y2="1440"/>
			<line x1="1301" y1="14201" x2="1301" y2="0"/>
		</g>
		<g style="--index: 8;">
			<path d="M1454,1044" tabindex="0">
				<title>8w9l6k3j</title>
			</path>
			<rect x="1454" y="1044" width="0" height="0"/>
			<path d="M1454,1044L1454,1044" tabindex="0">
				<title>02:11.57 on 2022-04-05</title>
			</path>
			<line x1="0" y1="1044" x2="2081" y2="1044"/>
			<line x1="1454" y1="14201" x2="1454" y2="0"/>
		</g>
		<g style="--index: 9;">
			<path d="M1527,7207L1552,7207L1552,7345L1570,7345L1570,7496" tabindex="0">
				<title>j5vg1ez8</title>
			</path>
			<rect x="1527" y="7207" width="43" height="289"/>
			<path d="M1527,7207L1527,7207" tabindex="0">
				<title>01:09.94 on 2022-06-17</title>
			</path>
			<line x1="0" y1="7207" x2="2081" y2="7207"/>
			<line x1="1527" y1="14201" x2="1527" y2="0"/>
			<path d="M1552,7345L1552,7345" tabindex="0">
				<title>01:08.56 on 2022-07-12</title>
			</path>
			<line x1="0" y1="7345" x2="2081" y2="7345"/>
			<line x1="1552" y1="14201" x2="1552" y2="0"/>
			<path d="M1570,7496L1570,7496" tabindex="0">
				<title>01:07.05 on 2022-07-30</title>
			</path>
			<line x1="0" y1="7496" x2="2081" y2="7496"/>
			<line x1="1570" y1="14201" x2="1570" y2="0"/>
		</g>
		<g style="--index: 10;">
			<path d="M1528,7472" tabindex="0">
				<title>xk3m6d68</title>
			</path>
			<rect x="1528" y="7472" width="0" height="0"/>
			<path d="M1528,7472L1528,7472" tabindex="0">
				<title>01:07.29 on 2022-06-18</title>
			</path>
			<line x1="0" y1="7472" x2="2081" y2="7472"/>
			<line x1="1528" y1="14201" x2="1528" y2="0"/>
		</g>
		<g style="--index: 11;">
			<path d="M2081,7743" tabindex="0">
				<title>jn2m23wj</title>
			</path>
			<rect x="2081" y="7743" width="0" height="0"/>
			<path d="M2081,7743L2081,7743" tabindex="0">
				<title>01:04.58 on 2023-12-23</title>
			</path>
			<line x1="0" y1="7743" x2="2081" y2="7743"/>
			<line x1="2081" y1="14201" x2="2081" y2="0"/>
		</g>
	</g>
</svg>
