<svg xmlns="http://www.w3.org/2000/svg" viewBox="0 0 1672 4892" preserveAspectRatio="none" lang="en" style="color-scheme: dark light;">
	<title>Time by player for leaderboard l_495zlx39-9d8eewld-2lgr793n.81ppd5g1</title>
	<style>
		svg {
			background: var(--canvas-background);
			fill: var(--canvas-background);
			stroke: var(--canvas-foreground);
			stroke-linejoin: round;
			stroke-linecap: round;
		}
		g &gt; path[tabindex] {
			vector-effect: non-scaling-stroke;
			fill: none;
			stroke: hsl(calc(var(--index) / var(--count) * 360), 50%, 50%);
			cursor: help;
		}
		g:is(:hover, :focus-within) &gt; path[tabindex] {
			stroke: var(--canvas-foreground);
		}
		g &gt; path[tabindex]:is(:hover, :focus-within) {
			outline: 0;
		}
		g &gt; path[tabindex]:first-of-type {
			stroke-width: 2;
		}
		g &gt; path[tabindex]:first-of-type:is(:hover, :focus-within) {
			stroke-width: 4;
		}
		g &gt; path[tabindex]:first-of-type:not(:last-of-type) {
			stroke-dasharray: 4 8;
		}
		g &gt; rect {
			vector-effect: non-scaling-stroke;
			fill: none;
			stroke: none;
			pointer-events: none;
		}
		g &gt; path[tabindex]:first-of-type:is(:hover, :focus-within) + rect {
			fill: var(--highlighted);
		}
		g &gt; path[tabindex]:first-of-type ~ path[tabindex] {
			stroke-width: 8;
		}
		g &gt; path[tabindex]:first-of-type ~ path[tabindex]:is(:hover, :focus-within) {
			stroke-width: 16;
		}
		g &gt; line {
			vector-effect: non-scaling-stroke;
			fill: none;
			stroke: none;
			stroke-width: 2;
			stroke-dasharray: 4 8;
			pointer-events: none;
		}
		g &gt; path[tabindex]:first-of-type:is(:hover, :focus-within) + rect + path[tabindex] + line,
		g &gt; path[tabindex]:first-of-type:is(:hover, :focus-within) + rect + path[tabindex] + line + line,
		g &gt; path[tabindex]:first-of-type:is(:hover, :focus-within) ~ path[tabindex]:last-of-type + line,
		g &gt; path[tabindex]:first-of-type:is(:hover, :focus-within) ~ path[tabindex]:last-of-type + line + line,
		g &gt; path[tabindex]:first-of-type ~ path[tabindex]:is(:hover, :focus-within) + line,
		g &gt; path[tabindex]:first-of-type ~ path[tabindex]:is(:hover, :focus-within) + line + line {
			stroke: var(--faded);
		}
		@media (prefers-color-scheme: dark) {
			:root {
				--canvas-background: #000;
				--canvas-foreground: #ccc;
				--highlighted: #6663;
				--faded: #9993;
			}
		}
		@media (prefers-color-scheme: light) {
			:root {
				--canvas-background: #fff;
				--canvas-foreground: #333;
				--highlighted: #9993;
				--faded: #6663;
			}
		}
	</style>
	<g transform="scale(1 -1)" transform-origin="center center" style="--count: 11;">
		<g style="--index: 0;">
			<path d="M0,4892L2,4892L2,4000L4,4000L4,3847" tabindex="0">
				<title>48grel1x</title>
			</path>
			<rect x="0" y="3847" width="4" height="1045"/>
			<path d="M0,4892L0,4892" tabindex="0">
				<title>00:48.92 on 2018-04-09</title>
			</path>
			<line x1="0" y1="4892" x2="1672" y2="4892"/>
			<line x1="0" y1="0" x2="0" y2="4892"/>
			<path d="M2,4000L2,4000" tabindex="0">
				<title>00:40.00 on 2018-04-11</title>
			</path>
			<line x1="0" y1="4000" x2="1672" y2="4000"/>
			<line x1="2" y1="0" x2="2" y2="4892"/>
			<path d="M4,3847L4,3847" tabindex="0">
				<title>00:38.47 on 2018-04-13</title>
			</path>
			<line x1="0" y1="3847" x2="1672" y2="3847"/>
			<line x1="4" y1="0" x2="4" y2="4892"/>
		</g>
		<g style="--index: 1;">
			<path d="M2,4051L3,4051L3,3897" tabindex="0">
				<title>18qg9ndx</title>
			</path>
			<rect x="2" y="3897" width="1" height="154"/>
			<path d="M2,4051L2,4051" tabindex="0">
				<title>00:40.51 on 2018-04-11</title>
			</path>
			<line x1="0" y1="4051" x2="1672" y2="4051"/>
			<line x1="2" y1="0" x2="2" y2="4892"/>
			<path d="M3,3897L3,3897" tabindex="0">
				<title>00:38.97 on 2018-04-12</title>
			</path>
			<line x1="0" y1="3897" x2="1672" y2="3897"/>
			<line x1="3" y1="0" x2="3" y2="4892"/>
		</g>
		<g style="--index: 2;">
			<path d="M90,3345" tabindex="0">
				<title>qj2pq1p8</title>
			</path>
			<rect x="90" y="3345" width="0" height="0"/>
			<path d="M90,3345L90,3345" tabindex="0">
				<title>00:33.45 on 2018-07-08</title>
			</path>
			<line x1="0" y1="3345" x2="1672" y2="3345"/>
			<line x1="90" y1="0" x2="90" y2="4892"/>
		</g>
		<g style="--index: 3;">
			<path d="M91,2870" tabindex="0">
				<title>y8dgoe98</title>
			</path>
			<rect x="91" y="2870" width="0" height="0"/>
			<path d="M91,2870L91,2870" tabindex="0">
				<title>00:28.70 on 2018-07-09</title>
			</path>
			<line x1="0" y1="2870" x2="1672" y2="2870"/>
			<line x1="91" y1="0" x2="91" y2="4892"/>
		</g>
		<g style="--index: 4;">
			<path d="M772,2165" tabindex="0">
				<title>x356nrej</title>
			</path>
			<rect x="772" y="2165" width="0" height="0"/>
			<path d="M772,2165L772,2165" tabindex="0">
				<title>00:21.65 on 2020-05-20</title>
			</path>
			<line x1="0" y1="2165" x2="1672" y2="2165"/>
			<line x1="772" y1="0" x2="772" y2="4892"/>
		</g>
		<g style="--index: 5;">
			<path d="M956,2393" tabindex="0">
				<title>x7q00668</title>
			</path>
			<rect x="956" y="2393" width="0" height="0"/>
			<path d="M956,2393L956,2393" tabindex="0">
				<title>00:23.93 on 2020-11-20</title>
			</path>
			<line x1="0" y1="2393" x2="1672" y2="2393"/>
			<line x1="956" y1="0" x2="956" y2="4892"/>
		</g>
		<g style="--index: 6;">
			<path d="M964,2155L996,2155L996,2115L1054,2115L1054,2065" tabindex="0">
				<title>xkon93k8</title>
			</path>
			<rect x="964" y="2065" width="90" height="90"/>
			<path d="M964,2155L964,2155" tabindex="0">
				<title>00:21.55 on 2020-11-28</title>
			</path>
			<line x1="0" y1="2155" x2="1672" y2="2155"/>
			<line x1="964" y1="0" x2="964" y2="4892"/>
			<path d="M996,2115L996,2115" tabindex="0">
				<title>00:21.15 on 2020-12-30</title>
			</path>
			<line x1="0" y1="2115" x2="1672" y2="2115"/>
			<line x1="996" y1="0" x2="996" y2="4892"/>
			<path d="M1054,2065L1054,2065" tabindex="0">
				<title>00:20.65 on 2021-02-26</title>
			</path>
			<line x1="0" y1="2065" x2="1672" y2="2065"/>
			<line x1="1054" y1="0" x2="1054" y2="4892"/>
		</g>
		<g style="--index: 7;">
			<path d="M979,2670L1016,2670L1016,2338" tabindex="0">
				<title>j0np7or8</title>
			</path>
			<rect x="979" y="2338" width="37" height="332"/>
			<path d="M979,2670L979,2670" tabindex="0">
				<title>00:26.70 on 2020-12-13</title>
			</path>
			<line x1="0" y1="2670" x2="1672" y2="2670"/>
			<line x1="979" y1="0" x2="979" y2="4892"/>
			<path d="M1016,2338L1016,2338" tabindex="0">
				<title>00:23.38 on 2021-01-19</title>
			</path>
			<line x1="0" y1="2338" x2="1672" y2="2338"/>
			<line x1="1016" y1="0" x2="1016" y2="4892"/>
		</g>
		<g style="--index: 8;">
			<path d="M1054,2076" tabindex="0">
				<title>j2yr9lp8</title>
			</path>
			<rect x="1054" y="2076" width="0" height="0"/>
			<path d="M1054,2076L1054,2076" tabindex="0">
				<title>00:20.76 on 2021-02-26</title>
			</path>
			<line x1="0" y1="2076" x2="1672" y2="2076"/>
			<line x1="1054" y1="0" x2="1054" y2="4892"/>
		</g>
		<g style="--index: 9;">
			<path d="M1672,1982" tabindex="0">
				<title>jn2m23wj</title>
			</path>
			<rect x="1672" y="1982" width="0" height="0"/>
			<path d="M1672,1982L1672,1982" tabindex="0">
				<title>00:19.82 on 2022-11-06</title>
			</path>
			<line x1="0" y1="1982" x2="1672" y2="1982"/>
			<line x1="1672" y1="0" x2="1672" y2="4892"/>
		</g>
		<g style="--index: 10;">
			<path d="M1672,2020" tabindex="0">
				<title>0jmw6wex</title>
			</path>
			<rect x="1672" y="2020" width="0" height="0"/>
			<path d="M1672,2020L1672,2020" tabindex="0">
				<title>00:20.20 on 2022-11-06</title>
			</path>
			<line x1="0" y1="2020" x2="1672" y2="2020"/>
			<line x1="1672" y1="0" x2="1672" y2="4892"/>
		</g>
	</g>
</svg>
