<svg xmlns="http://www.w3.org/2000/svg" viewBox="0 0 465 3847" preserveAspectRatio="none" lang="en" style="color-scheme: dark light;">
		<title>Time by player for leaderboard l_495zlx39-9d8eewld-2lgr793n.21gp48n1</title>
		<style>
			svg {
				background: var(--canvas-background);
				fill: var(--canvas-background);
				stroke: var(--canvas-foreground);
				stroke-linejoin: round;
				stroke-linecap: round;
			}
			g &gt; path[tabindex] {
				vector-effect: non-scaling-stroke;
				fill: none;
				stroke: hsl(calc(var(--index) / var(--count) * 360), 50%, 50%);
				cursor: help;
			}
			g:is(:hover, :focus-within) &gt; path[tabindex] {
				stroke: var(--canvas-foreground);
			}
			g &gt; path[tabindex]:is(:hover, :focus-within) {
				outline: 0;
			}
			g &gt; path[tabindex]:first-of-type {
				stroke-width: 2;
			}
			g &gt; path[tabindex]:first-of-type:is(:hover, :focus-within) {
				stroke-width: 4;
			}
			g &gt; path[tabindex]:first-of-type:not(:last-of-type) {
				stroke-dasharray: 4 8;
			}
			g &gt; rect {
				vector-effect: non-scaling-stroke;
				fill: none;
				stroke: none;
				pointer-events: none;
			}
			g &gt; path[tabindex]:first-of-type:is(:hover, :focus-within) + rect {
				fill: var(--highlighted);
			}
			g &gt; path[tabindex]:first-of-type ~ path[tabindex] {
				stroke-width: 8;
			}
			g &gt; path[tabindex]:first-of-type ~ path[tabindex]:is(:hover, :focus-within) {
				stroke-width: 16;
			}
			g &gt; line {
				vector-effect: non-scaling-stroke;
				fill: none;
				stroke: none;
				stroke-width: 2;
				stroke-dasharray: 4 8;
				pointer-events: none;
			}
			g &gt; path[tabindex]:first-of-type:is(:hover, :focus-within) + rect + path[tabindex] + line,
			g &gt; path[tabindex]:first-of-type:is(:hover, :focus-within) + rect + path[tabindex] + line + line,
			g &gt; path[tabindex]:first-of-type:is(:hover, :focus-within) ~ path[tabindex]:last-of-type + line,
			g &gt; path[tabindex]:first-of-type:is(:hover, :focus-within) ~ path[tabindex]:last-of-type + line + line,
			g &gt; path[tabindex]:first-of-type ~ path[tabindex]:is(:hover, :focus-within) + line,
			g &gt; path[tabindex]:first-of-type ~ path[tabindex]:is(:hover, :focus-within) + line + line {
				stroke: var(--faded);
			}
			@media (prefers-color-scheme: dark) {
				:root {
					--canvas-background: #000;
					--canvas-foreground: #ccc;
					--highlighted: #6663;
					--faded: #9993;
				}
			}
			@media (prefers-color-scheme: light) {
				:root {
					--canvas-background: #fff;
					--canvas-foreground: #333;
					--highlighted: #9993;
					--faded: #6663;
				}
			}
		</style>
		<g transform="scale(1 -1)" transform-origin="center center" style="--count: 7;">
		<g style="--index: 0;">
			<path d="M0,2326L420,2326L420,2027L423,2027L423,1936" tabindex="0">
				<title>jn2m23wj</title>
			</path>
			<rect x="0" y="1936" width="423" height="390"/>
			<path d="M0,2326L0,2326" tabindex="0">
				<title>00:23.26 on 2022-12-20</title>
			</path>
			<line x1="0" y1="2326" x2="465" y2="2326"/>
			<line x1="0" y1="0" x2="0" y2="3847"/>
			<path d="M420,2027L420,2027" tabindex="0">
				<title>00:20.27 on 2024-02-13</title>
			</path>
			<line x1="0" y1="2027" x2="465" y2="2027"/>
			<line x1="420" y1="0" x2="420" y2="3847"/>
			<path d="M423,1936L423,1936" tabindex="0">
				<title>00:19.36 on 2024-02-16</title>
			</path>
			<line x1="0" y1="1936" x2="465" y2="1936"/>
			<line x1="423" y1="0" x2="423" y2="3847"/>
		</g>
		<g style="--index: 1;">
			<path d="M44,3847" tabindex="0">
				<title>x76y1lyj</title>
			</path>
			<rect x="44" y="3847" width="0" height="0"/>
			<path d="M44,3847L44,3847" tabindex="0">
				<title>00:38.47 on 2023-02-02</title>
			</path>
			<line x1="0" y1="3847" x2="465" y2="3847"/>
			<line x1="44" y1="0" x2="44" y2="3847"/>
		</g>
		<g style="--index: 2;">
			<path d="M118,3452" tabindex="0">
				<title>8ewdk0d8</title>
			</path>
			<rect x="118" y="3452" width="0" height="0"/>
			<path d="M118,3452L118,3452" tabindex="0">
				<title>00:34.52 on 2023-04-17</title>
			</path>
			<line x1="0" y1="3452" x2="465" y2="3452"/>
			<line x1="118" y1="0" x2="118" y2="3847"/>
		</g>
		<g style="--index: 3;">
			<path d="M119,2875" tabindex="0">
				<title>j5vg1ez8</title>
			</path>
			<rect x="119" y="2875" width="0" height="0"/>
			<path d="M119,2875L119,2875" tabindex="0">
				<title>00:28.75 on 2023-04-18</title>
			</path>
			<line x1="0" y1="2875" x2="465" y2="2875"/>
			<line x1="119" y1="0" x2="119" y2="3847"/>
		</g>
		<g style="--index: 4;">
			<path d="M150,2597" tabindex="0">
				<title>x3wdlvkj</title>
			</path>
			<rect x="150" y="2597" width="0" height="0"/>
			<path d="M150,2597L150,2597" tabindex="0">
				<title>00:25.97 on 2023-05-19</title>
			</path>
			<line x1="0" y1="2597" x2="465" y2="2597"/>
			<line x1="150" y1="0" x2="150" y2="3847"/>
		</g>
		<g style="--index: 5;">
			<path d="M313,3135" tabindex="0">
				<title>8rm6363j</title>
			</path>
			<rect x="313" y="3135" width="0" height="0"/>
			<path d="M313,3135L313,3135" tabindex="0">
				<title>00:31.35 on 2023-10-29</title>
			</path>
			<line x1="0" y1="3135" x2="465" y2="3135"/>
			<line x1="313" y1="0" x2="313" y2="3847"/>
		</g>
		<g style="--index: 6;">
			<path d="M465,2967" tabindex="0">
				<title>xz22lw4x</title>
			</path>
			<rect x="465" y="2967" width="0" height="0"/>
			<path d="M465,2967L465,2967" tabindex="0">
				<title>00:29.67 on 2024-03-29</title>
			</path>
			<line x1="0" y1="2967" x2="465" y2="2967"/>
			<line x1="465" y1="0" x2="465" y2="3847"/>
		</g>
	</g>
</svg>
