<svg xmlns="http://www.w3.org/2000/svg" viewBox="0 0 1675 2493" preserveAspectRatio="none" lang="en" style="color-scheme: dark light;">
		<title>Time by player for leaderboard l_495zlx39-9d8eewld-2lgr793n.gq7jzvvq</title>
		<style>
			svg {
				background: var(--canvas-background);
				fill: var(--canvas-background);
				stroke: var(--canvas-foreground);
				stroke-linejoin: round;
				stroke-linecap: round;
			}
			g &gt; path[tabindex] {
				vector-effect: non-scaling-stroke;
				fill: none;
				stroke: hsl(calc(var(--index) / var(--count) * 360), 50%, 50%);
				cursor: help;
			}
			g:is(:hover, :focus-within) &gt; path[tabindex] {
				stroke: var(--canvas-foreground);
			}
			g &gt; path[tabindex]:is(:hover, :focus-within) {
				outline: 0;
			}
			g &gt; path[tabindex]:first-of-type {
				stroke-width: 2;
			}
			g &gt; path[tabindex]:first-of-type:is(:hover, :focus-within) {
				stroke-width: 4;
			}
			g &gt; path[tabindex]:first-of-type:not(:last-of-type) {
				stroke-dasharray: 4 8;
			}
			g &gt; rect {
				vector-effect: non-scaling-stroke;
				fill: none;
				stroke: none;
				pointer-events: none;
			}
			g &gt; path[tabindex]:first-of-type:is(:hover, :focus-within) + rect {
				fill: var(--highlighted);
			}
			g &gt; path[tabindex]:first-of-type ~ path[tabindex] {
				stroke-width: 8;
			}
			g &gt; path[tabindex]:first-of-type ~ path[tabindex]:is(:hover, :focus-within) {
				stroke-width: 16;
			}
			g &gt; line {
				vector-effect: non-scaling-stroke;
				fill: none;
				stroke: none;
				stroke-width: 2;
				stroke-dasharray: 4 8;
				pointer-events: none;
			}
			g &gt; path[tabindex]:first-of-type:is(:hover, :focus-within) + rect + path[tabindex] + line,
			g &gt; path[tabindex]:first-of-type:is(:hover, :focus-within) + rect + path[tabindex] + line + line,
			g &gt; path[tabindex]:first-of-type:is(:hover, :focus-within) ~ path[tabindex]:last-of-type + line,
			g &gt; path[tabindex]:first-of-type:is(:hover, :focus-within) ~ path[tabindex]:last-of-type + line + line,
			g &gt; path[tabindex]:first-of-type ~ path[tabindex]:is(:hover, :focus-within) + line,
			g &gt; path[tabindex]:first-of-type ~ path[tabindex]:is(:hover, :focus-within) + line + line {
				stroke: var(--faded);
			}
			@media (prefers-color-scheme: dark) {
				:root {
					--canvas-background: #000;
					--canvas-foreground: #ccc;
					--highlighted: #6663;
					--faded: #9993;
				}
			}
			@media (prefers-color-scheme: light) {
				:root {
					--canvas-background: #fff;
					--canvas-foreground: #333;
					--highlighted: #9993;
					--faded: #6663;
				}
			}
		</style>
		<g transform="scale(1 -1)" transform-origin="center center" style="--count: 11;">
		<g style="--index: 0;">
			<path d="M0,2493" tabindex="0">
				<title>18qg9ndx</title>
			</path>
			<rect x="0" y="2493" width="0" height="0"/>
			<path d="M0,2493L0,2493" tabindex="0">
				<title>00:24.93 on 2018-04-09</title>
			</path>
			<line x1="0" y1="2493" x2="1675" y2="2493"/>
			<line x1="0" y1="0" x2="0" y2="2493"/>
		</g>
		<g style="--index: 1;">
			<path d="M9,1985" tabindex="0">
				<title>y8dgoe98</title>
			</path>
			<rect x="9" y="1985" width="0" height="0"/>
			<path d="M9,1985L9,1985" tabindex="0">
				<title>00:19.85 on 2018-04-18</title>
			</path>
			<line x1="0" y1="1985" x2="1675" y2="1985"/>
			<line x1="9" y1="0" x2="9" y2="2493"/>
		</g>
		<g style="--index: 2;">
			<path d="M771,1701" tabindex="0">
				<title>8146r4r8</title>
			</path>
			<rect x="771" y="1701" width="0" height="0"/>
			<path d="M771,1701L771,1701" tabindex="0">
				<title>00:17.01 on 2020-05-19</title>
			</path>
			<line x1="0" y1="1701" x2="1675" y2="1701"/>
			<line x1="771" y1="0" x2="771" y2="2493"/>
		</g>
		<g style="--index: 3;">
			<path d="M773,1591L960,1591L960,1515" tabindex="0">
				<title>x356nrej</title>
			</path>
			<rect x="773" y="1515" width="187" height="76"/>
			<path d="M773,1591L773,1591" tabindex="0">
				<title>00:15.91 on 2020-05-21</title>
			</path>
			<line x1="0" y1="1591" x2="1675" y2="1591"/>
			<line x1="773" y1="0" x2="773" y2="2493"/>
			<path d="M960,1515L960,1515" tabindex="0">
				<title>00:15.15 on 2020-11-24</title>
			</path>
			<line x1="0" y1="1515" x2="1675" y2="1515"/>
			<line x1="960" y1="0" x2="960" y2="2493"/>
		</g>
		<g style="--index: 4;">
			<path d="M959,1607" tabindex="0">
				<title>x7q00668</title>
			</path>
			<rect x="959" y="1607" width="0" height="0"/>
			<path d="M959,1607L959,1607" tabindex="0">
				<title>00:16.07 on 2020-11-23</title>
			</path>
			<line x1="0" y1="1607" x2="1675" y2="1607"/>
			<line x1="959" y1="0" x2="959" y2="2493"/>
		</g>
		<g style="--index: 5;">
			<path d="M959,1568L973,1568L973,1515" tabindex="0">
				<title>j0np7or8</title>
			</path>
			<rect x="959" y="1515" width="14" height="53"/>
			<path d="M959,1568L959,1568" tabindex="0">
				<title>00:15.68 on 2020-11-23</title>
			</path>
			<line x1="0" y1="1568" x2="1675" y2="1568"/>
			<line x1="959" y1="0" x2="959" y2="2493"/>
			<path d="M973,1515L973,1515" tabindex="0">
				<title>00:15.15 on 2020-12-07</title>
			</path>
			<line x1="0" y1="1515" x2="1675" y2="1515"/>
			<line x1="973" y1="0" x2="973" y2="2493"/>
		</g>
		<g style="--index: 6;">
			<path d="M989,1508L1055,1508L1055,1503" tabindex="0">
				<title>xkon93k8</title>
			</path>
			<rect x="989" y="1503" width="66" height="5"/>
			<path d="M989,1508L989,1508" tabindex="0">
				<title>00:15.08 on 2020-12-23</title>
			</path>
			<line x1="0" y1="1508" x2="1675" y2="1508"/>
			<line x1="989" y1="0" x2="989" y2="2493"/>
			<path d="M1055,1503L1055,1503" tabindex="0">
				<title>00:15.03 on 2021-02-27</title>
			</path>
			<line x1="0" y1="1503" x2="1675" y2="1503"/>
			<line x1="1055" y1="0" x2="1055" y2="2493"/>
		</g>
		<g style="--index: 7;">
			<path d="M1054,1503L1095,1503L1095,1487" tabindex="0">
				<title>j2yr9lp8</title>
			</path>
			<rect x="1054" y="1487" width="41" height="16"/>
			<path d="M1054,1503L1054,1503" tabindex="0">
				<title>00:15.03 on 2021-02-26</title>
			</path>
			<line x1="0" y1="1503" x2="1675" y2="1503"/>
			<line x1="1054" y1="0" x2="1054" y2="2493"/>
			<path d="M1095,1487L1095,1487" tabindex="0">
				<title>00:14.87 on 2021-04-08</title>
			</path>
			<line x1="0" y1="1487" x2="1675" y2="1487"/>
			<line x1="1095" y1="0" x2="1095" y2="2493"/>
		</g>
		<g style="--index: 8;">
			<path d="M1156,1559" tabindex="0">
				<title>jnzen32j</title>
			</path>
			<rect x="1156" y="1559" width="0" height="0"/>
			<path d="M1156,1559L1156,1559" tabindex="0">
				<title>00:15.59 on 2021-06-08</title>
			</path>
			<line x1="0" y1="1559" x2="1675" y2="1559"/>
			<line x1="1156" y1="0" x2="1156" y2="2493"/>
		</g>
		<g style="--index: 9;">
			<path d="M1514,1496" tabindex="0">
				<title>xk3m6d68</title>
			</path>
			<rect x="1514" y="1496" width="0" height="0"/>
			<path d="M1514,1496L1514,1496" tabindex="0">
				<title>00:14.96 on 2022-06-01</title>
			</path>
			<line x1="0" y1="1496" x2="1675" y2="1496"/>
			<line x1="1514" y1="0" x2="1514" y2="2493"/>
		</g>
		<g style="--index: 10;">
			<path d="M1675,1485" tabindex="0">
				<title>jn2m23wj</title>
			</path>
			<rect x="1675" y="1485" width="0" height="0"/>
			<path d="M1675,1485L1675,1485" tabindex="0">
				<title>00:14.85 on 2022-11-09</title>
			</path>
			<line x1="0" y1="1485" x2="1675" y2="1485"/>
			<line x1="1675" y1="0" x2="1675" y2="2493"/>
		</g>
	</g>
</svg>
