<svg xmlns="http://www.w3.org/2000/svg" viewBox="0 0 1893 66761" preserveAspectRatio="none" lang="en" style="color-scheme: dark light;">
		<title>Time by player for leaderboard l_495zlx39-9d8eewld-2lgr793n.p12dx07q</title>
		<style>
			svg {
				background: var(--canvas-background);
				fill: var(--canvas-background);
				stroke: var(--canvas-foreground);
				stroke-linejoin: round;
				stroke-linecap: round;
			}
			g &gt; path[tabindex] {
				vector-effect: non-scaling-stroke;
				fill: none;
				stroke: hsl(calc(var(--index) / var(--count) * 360), 50%, 50%);
				cursor: help;
			}
			g:is(:hover, :focus-within) &gt; path[tabindex] {
				stroke: var(--canvas-foreground);
			}
			g &gt; path[tabindex]:is(:hover, :focus-within) {
				outline: 0;
			}
			g &gt; path[tabindex]:first-of-type {
				stroke-width: 2;
			}
			g &gt; path[tabindex]:first-of-type:is(:hover, :focus-within) {
				stroke-width: 4;
			}
			g &gt; path[tabindex]:first-of-type:not(:last-of-type) {
				stroke-dasharray: 4 8;
			}
			g &gt; rect {
				vector-effect: non-scaling-stroke;
				fill: none;
				stroke: none;
				pointer-events: none;
			}
			g &gt; path[tabindex]:first-of-type:is(:hover, :focus-within) + rect {
				fill: var(--highlighted);
			}
			g &gt; path[tabindex]:first-of-type ~ path[tabindex] {
				stroke-width: 8;
			}
			g &gt; path[tabindex]:first-of-type ~ path[tabindex]:is(:hover, :focus-within) {
				stroke-width: 16;
			}
			g &gt; line {
				vector-effect: non-scaling-stroke;
				fill: none;
				stroke: none;
				stroke-width: 2;
				stroke-dasharray: 4 8;
				pointer-events: none;
			}
			g &gt; path[tabindex]:first-of-type:is(:hover, :focus-within) + rect + path[tabindex] + line,
			g &gt; path[tabindex]:first-of-type:is(:hover, :focus-within) + rect + path[tabindex] + line + line,
			g &gt; path[tabindex]:first-of-type:is(:hover, :focus-within) ~ path[tabindex]:last-of-type + line,
			g &gt; path[tabindex]:first-of-type:is(:hover, :focus-within) ~ path[tabindex]:last-of-type + line + line,
			g &gt; path[tabindex]:first-of-type ~ path[tabindex]:is(:hover, :focus-within) + line,
			g &gt; path[tabindex]:first-of-type ~ path[tabindex]:is(:hover, :focus-within) + line + line {
				stroke: var(--faded);
			}
			@media (prefers-color-scheme: dark) {
				:root {
					--canvas-background: #000;
					--canvas-foreground: #ccc;
					--highlighted: #6663;
					--faded: #9993;
				}
			}
			@media (prefers-color-scheme: light) {
				:root {
					--canvas-background: #fff;
					--canvas-foreground: #333;
					--highlighted: #9993;
					--faded: #6663;
				}
			}
		</style>
		<g style="--count: 8;">
		<g style="--index: 0;">
			<path d="M0,0" tabindex="0">
				<title>18qg9ndx</title>
			</path>
			<rect x="0" y="0" width="0" height="0"/>
			<path d="M0,0L0,0" tabindex="0">
				<title>11:07.61 on 2018-04-12</title>
			</path>
			<line x1="0" y1="0" x2="1893" y2="0"/>
			<line x1="0" y1="66761" x2="0" y2="0"/>
		</g>
		<g style="--index: 1;">
			<path d="M89,12661L161,12661L161,17965L166,17965L166,26697L295,26697L295,31613" tabindex="0">
				<title>y8dgoe98</title>
			</path>
			<rect x="89" y="12661" width="206" height="18952"/>
			<path d="M89,12661L89,12661" tabindex="0">
				<title>09:01.00 on 2018-07-10</title>
			</path>
			<line x1="0" y1="12661" x2="1893" y2="12661"/>
			<line x1="89" y1="66761" x2="89" y2="0"/>
			<path d="M161,17965L161,17965" tabindex="0">
				<title>08:07.96 on 2018-09-20</title>
			</path>
			<line x1="0" y1="17965" x2="1893" y2="17965"/>
			<line x1="161" y1="66761" x2="161" y2="0"/>
			<path d="M166,26697L166,26697" tabindex="0">
				<title>06:40.64 on 2018-09-25</title>
			</path>
			<line x1="0" y1="26697" x2="1893" y2="26697"/>
			<line x1="166" y1="66761" x2="166" y2="0"/>
			<path d="M295,31613L295,31613" tabindex="0">
				<title>05:51.48 on 2019-02-01</title>
			</path>
			<line x1="0" y1="31613" x2="1893" y2="31613"/>
			<line x1="295" y1="66761" x2="295" y2="0"/>
		</g>
		<g style="--index: 2;">
			<path d="M781,34242" tabindex="0">
				<title>x356nrej</title>
			</path>
			<rect x="781" y="34242" width="0" height="0"/>
			<path d="M781,34242L781,34242" tabindex="0">
				<title>05:25.19 on 2020-06-01</title>
			</path>
			<line x1="0" y1="34242" x2="1893" y2="34242"/>
			<line x1="781" y1="66761" x2="781" y2="0"/>
		</g>
		<g style="--index: 3;">
			<path d="M934,34255L954,34255L954,37041L992,37041L992,38692L993,38692L993,41035" tabindex="0">
				<title>xkon93k8</title>
			</path>
			<rect x="934" y="34255" width="59" height="6780"/>
			<path d="M934,34255L934,34255" tabindex="0">
				<title>05:25.06 on 2020-11-01</title>
			</path>
			<line x1="0" y1="34255" x2="1893" y2="34255"/>
			<line x1="934" y1="66761" x2="934" y2="0"/>
			<path d="M954,37041L954,37041" tabindex="0">
				<title>04:57.20 on 2020-11-21</title>
			</path>
			<line x1="0" y1="37041" x2="1893" y2="37041"/>
			<line x1="954" y1="66761" x2="954" y2="0"/>
			<path d="M992,38692L992,38692" tabindex="0">
				<title>04:40.69 on 2020-12-29</title>
			</path>
			<line x1="0" y1="38692" x2="1893" y2="38692"/>
			<line x1="992" y1="66761" x2="992" y2="0"/>
			<path d="M993,41035L993,41035" tabindex="0">
				<title>04:17.26 on 2020-12-30</title>
			</path>
			<line x1="0" y1="41035" x2="1893" y2="41035"/>
			<line x1="993" y1="66761" x2="993" y2="0"/>
		</g>
		<g style="--index: 4;">
			<path d="M953,35264L991,35264L991,38103L992,38103L992,40305" tabindex="0">
				<title>x7q00668</title>
			</path>
			<rect x="953" y="35264" width="39" height="5041"/>
			<path d="M953,35264L953,35264" tabindex="0">
				<title>05:14.97 on 2020-11-20</title>
			</path>
			<line x1="0" y1="35264" x2="1893" y2="35264"/>
			<line x1="953" y1="66761" x2="953" y2="0"/>
			<path d="M991,38103L991,38103" tabindex="0">
				<title>04:46.58 on 2020-12-28</title>
			</path>
			<line x1="0" y1="38103" x2="1893" y2="38103"/>
			<line x1="991" y1="66761" x2="991" y2="0"/>
			<path d="M992,40305L992,40305" tabindex="0">
				<title>04:24.56 on 2020-12-29</title>
			</path>
			<line x1="0" y1="40305" x2="1893" y2="40305"/>
			<line x1="992" y1="66761" x2="992" y2="0"/>
		</g>
		<g style="--index: 5;">
			<path d="M1005,31803L1061,31803L1061,35689" tabindex="0">
				<title>j0np7or8</title>
			</path>
			<rect x="1005" y="31803" width="56" height="3886"/>
			<path d="M1005,31803L1005,31803" tabindex="0">
				<title>05:49.58 on 2021-01-11</title>
			</path>
			<line x1="0" y1="31803" x2="1893" y2="31803"/>
			<line x1="1005" y1="66761" x2="1005" y2="0"/>
			<path d="M1061,35689L1061,35689" tabindex="0">
				<title>05:10.72 on 2021-03-08</title>
			</path>
			<line x1="0" y1="35689" x2="1893" y2="35689"/>
			<line x1="1061" y1="66761" x2="1061" y2="0"/>
		</g>
		<g style="--index: 6;">
			<path d="M1500,42122" tabindex="0">
				<title>xk3m6d68</title>
			</path>
			<rect x="1500" y="42122" width="0" height="0"/>
			<path d="M1500,42122L1500,42122" tabindex="0">
				<title>04:06.39 on 2022-05-21</title>
			</path>
			<line x1="0" y1="42122" x2="1893" y2="42122"/>
			<line x1="1500" y1="66761" x2="1500" y2="0"/>
		</g>
		<g style="--index: 7;">
			<path d="M1724,42203L1893,42203L1893,43135" tabindex="0">
				<title>jn2m23wj</title>
			</path>
			<rect x="1724" y="42203" width="169" height="932"/>
			<path d="M1724,42203L1724,42203" tabindex="0">
				<title>04:05.58 on 2022-12-31</title>
			</path>
			<line x1="0" y1="42203" x2="1893" y2="42203"/>
			<line x1="1724" y1="66761" x2="1724" y2="0"/>
			<path d="M1893,43135L1893,43135" tabindex="0">
				<title>03:56.26 on 2023-06-18</title>
			</path>
			<line x1="0" y1="43135" x2="1893" y2="43135"/>
			<line x1="1893" y1="66761" x2="1893" y2="0"/>
		</g>
	</g>
</svg>
