<svg xmlns="http://www.w3.org/2000/svg" viewBox="0 0 318 34407" preserveAspectRatio="none" lang="en" style="color-scheme: dark light;">
	<title>Time by player for leaderboard l_gdr5onk9-rkl3znrk-rn1g06dn.qj77o50q</title>
	<style>
		svg {
			background: var(--canvas-background);
			fill: var(--canvas-background);
			stroke: var(--canvas-foreground);
			stroke-linejoin: round;
			stroke-linecap: round;
		}
		g &gt; path[tabindex] {
			vector-effect: non-scaling-stroke;
			fill: none;
			stroke: hsl(calc(var(--index) / var(--count) * 360), 50%, 50%);
			cursor: help;
		}
		g:is(:hover, :focus-within) &gt; path[tabindex] {
			stroke: var(--canvas-foreground);
		}
		g &gt; path[tabindex]:is(:hover, :focus-within) {
			outline: 0;
		}
		g &gt; path[tabindex]:first-of-type {
			stroke-width: 2;
		}
		g &gt; path[tabindex]:first-of-type:is(:hover, :focus-within) {
			stroke-width: 4;
		}
		g &gt; path[tabindex]:first-of-type:not(:last-of-type) {
			stroke-dasharray: 4 8;
		}
		g &gt; rect {
			vector-effect: non-scaling-stroke;
			fill: none;
			stroke: none;
			pointer-events: none;
		}
		g &gt; path[tabindex]:first-of-type:is(:hover, :focus-within) + rect {
			fill: var(--highlighted);
		}
		g &gt; path[tabindex]:first-of-type ~ path[tabindex] {
			stroke-width: 8;
		}
		g &gt; path[tabindex]:first-of-type ~ path[tabindex]:is(:hover, :focus-within) {
			stroke-width: 16;
		}
		g &gt; line {
			vector-effect: non-scaling-stroke;
			fill: none;
			stroke: none;
			stroke-width: 2;
			stroke-dasharray: 4 8;
			pointer-events: none;
		}
		g &gt; path[tabindex]:first-of-type:is(:hover, :focus-within) + rect + path[tabindex] + line,
		g &gt; path[tabindex]:first-of-type:is(:hover, :focus-within) + rect + path[tabindex] + line + line,
		g &gt; path[tabindex]:first-of-type:is(:hover, :focus-within) ~ path[tabindex]:last-of-type + line,
		g &gt; path[tabindex]:first-of-type:is(:hover, :focus-within) ~ path[tabindex]:last-of-type + line + line,
		g &gt; path[tabindex]:first-of-type ~ path[tabindex]:is(:hover, :focus-within) + line,
		g &gt; path[tabindex]:first-of-type ~ path[tabindex]:is(:hover, :focus-within) + line + line {
			stroke: var(--faded);
		}
		@media (prefers-color-scheme: dark) {
			:root {
				--canvas-background: #000;
				--canvas-foreground: #ccc;
				--highlighted: #6663;
				--faded: #9993;
			}
		}
		@media (prefers-color-scheme: light) {
			:root {
				--canvas-background: #fff;
				--canvas-foreground: #333;
				--highlighted: #9993;
				--faded: #6663;
			}
		}
	</style>
	<g transform="scale(1 -1)" transform-origin="center center" style="--count: 6;">
		<g style="--index: 0;">
			<path d="M0,23672" tabindex="0">
				<title>xkon93k8</title>
			</path>
			<rect x="0" y="23672" width="0" height="0"/>
			<path d="M0,23672L0,23672" tabindex="0">
				<title>03:56.72 on 2023-06-10</title>
			</path>
			<line x1="0" y1="23672" x2="318" y2="23672"/>
			<line x1="0" y1="0" x2="0" y2="34407"/>
		</g>
		<g style="--index: 1;">
			<path d="M0,25650" tabindex="0">
				<title>x3wdlvkj</title>
			</path>
			<rect x="0" y="25650" width="0" height="0"/>
			<path d="M0,25650L0,25650" tabindex="0">
				<title>04:16.50 on 2023-06-10</title>
			</path>
			<line x1="0" y1="25650" x2="318" y2="25650"/>
			<line x1="0" y1="0" x2="0" y2="34407"/>
		</g>
		<g style="--index: 2;">
			<path d="M2,22925" tabindex="0">
				<title>jn2m23wj</title>
			</path>
			<rect x="2" y="22925" width="0" height="0"/>
			<path d="M2,22925L2,22925" tabindex="0">
				<title>03:49.25 on 2023-06-12</title>
			</path>
			<line x1="0" y1="22925" x2="318" y2="22925"/>
			<line x1="2" y1="0" x2="2" y2="34407"/>
		</g>
		<g style="--index: 3;">
			<path d="M28,32149" tabindex="0">
				<title>jng4o428</title>
			</path>
			<rect x="28" y="32149" width="0" height="0"/>
			<path d="M28,32149L28,32149" tabindex="0">
				<title>05:21.49 on 2023-07-08</title>
			</path>
			<line x1="0" y1="32149" x2="318" y2="32149"/>
			<line x1="28" y1="0" x2="28" y2="34407"/>
		</g>
		<g style="--index: 4;">
			<path d="M83,34407L187,34407L187,29864L189,29864L189,24810L190,24810L190,24540" tabindex="0">
				<title>8w3l21qj</title>
			</path>
			<rect x="83" y="24540" width="107" height="9867"/>
			<path d="M83,34407L83,34407" tabindex="0">
				<title>05:44.07 on 2023-09-01</title>
			</path>
			<line x1="0" y1="34407" x2="318" y2="34407"/>
			<line x1="83" y1="0" x2="83" y2="34407"/>
			<path d="M187,29864L187,29864" tabindex="0">
				<title>04:58.64 on 2023-12-14</title>
			</path>
			<line x1="0" y1="29864" x2="318" y2="29864"/>
			<line x1="187" y1="0" x2="187" y2="34407"/>
			<path d="M189,24810L189,24810" tabindex="0">
				<title>04:08.10 on 2023-12-16</title>
			</path>
			<line x1="0" y1="24810" x2="318" y2="24810"/>
			<line x1="189" y1="0" x2="189" y2="34407"/>
			<path d="M190,24540L190,24540" tabindex="0">
				<title>04:05.40 on 2023-12-17</title>
			</path>
			<line x1="0" y1="24540" x2="318" y2="24540"/>
			<line x1="190" y1="0" x2="190" y2="34407"/>
		</g>
		<g style="--index: 5;">
			<path d="M318,30614" tabindex="0">
				<title>8g2qe9pj</title>
			</path>
			<rect x="318" y="30614" width="0" height="0"/>
			<path d="M318,30614L318,30614" tabindex="0">
				<title>05:06.14 on 2024-04-23</title>
			</path>
			<line x1="0" y1="30614" x2="318" y2="30614"/>
			<line x1="318" y1="0" x2="318" y2="34407"/>
		</g>
	</g>
</svg>
