<svg xmlns="http://www.w3.org/2000/svg" viewBox="0 0 123 3404" preserveAspectRatio="none" lang="en" style="color-scheme: dark light;">
	<title>Time by player for leaderboard l_ldykv1zw-rkl3znrk-wl3059ol.lx5xe821</title>
	<style>
		svg {
			background: var(--canvas-background);
			fill: var(--canvas-background);
			stroke: var(--canvas-foreground);
			stroke-linejoin: round;
			stroke-linecap: round;
		}
		g &gt; path[tabindex] {
			vector-effect: non-scaling-stroke;
			fill: none;
			stroke: hsl(calc(var(--index) / var(--count) * 360), 50%, 50%);
			cursor: help;
		}
		g:is(:hover, :focus-within) &gt; path[tabindex] {
			stroke: var(--canvas-foreground);
		}
		g &gt; path[tabindex]:is(:hover, :focus-within) {
			outline: 0;
		}
		g &gt; path[tabindex]:first-of-type {
			stroke-width: 2;
		}
		g &gt; path[tabindex]:first-of-type:is(:hover, :focus-within) {
			stroke-width: 4;
		}
		g &gt; path[tabindex]:first-of-type:not(:last-of-type) {
			stroke-dasharray: 4 8;
		}
		g &gt; rect {
			vector-effect: non-scaling-stroke;
			fill: none;
			stroke: none;
			pointer-events: none;
		}
		g &gt; path[tabindex]:first-of-type:is(:hover, :focus-within) + rect {
			fill: var(--highlighted);
		}
		g &gt; path[tabindex]:first-of-type ~ path[tabindex] {
			stroke-width: 8;
		}
		g &gt; path[tabindex]:first-of-type ~ path[tabindex]:is(:hover, :focus-within) {
			stroke-width: 16;
		}
		g &gt; line {
			vector-effect: non-scaling-stroke;
			fill: none;
			stroke: none;
			stroke-width: 2;
			stroke-dasharray: 4 8;
			pointer-events: none;
		}
		g &gt; path[tabindex]:first-of-type:is(:hover, :focus-within) + rect + path[tabindex] + line,
		g &gt; path[tabindex]:first-of-type:is(:hover, :focus-within) + rect + path[tabindex] + line + line,
		g &gt; path[tabindex]:first-of-type:is(:hover, :focus-within) ~ path[tabindex]:last-of-type + line,
		g &gt; path[tabindex]:first-of-type:is(:hover, :focus-within) ~ path[tabindex]:last-of-type + line + line,
		g &gt; path[tabindex]:first-of-type ~ path[tabindex]:is(:hover, :focus-within) + line,
		g &gt; path[tabindex]:first-of-type ~ path[tabindex]:is(:hover, :focus-within) + line + line {
			stroke: var(--faded);
		}
		@media (prefers-color-scheme: dark) {
			:root {
				--canvas-background: #000;
				--canvas-foreground: #ccc;
				--highlighted: #6663;
				--faded: #9993;
			}
		}
		@media (prefers-color-scheme: light) {
			:root {
				--canvas-background: #fff;
				--canvas-foreground: #333;
				--highlighted: #9993;
				--faded: #6663;
			}
		}
	</style>
	<g transform="scale(1 -1)" transform-origin="center center" style="--count: 5;">
		<g style="--index: 0;">
			<path d="M0,3349L27,3349L27,3315" tabindex="0">
				<title>x3wdlvkj</title>
			</path>
			<rect x="0" y="3315" width="27" height="34"/>
			<path d="M0,3349L0,3349" tabindex="0">
				<title>00:33.49 on 2023-12-12</title>
			</path>
			<line x1="0" y1="3349" x2="123" y2="3349"/>
			<line x1="0" y1="0" x2="0" y2="3404"/>
			<path d="M27,3315L27,3315" tabindex="0">
				<title>00:33.15 on 2024-01-08</title>
			</path>
			<line x1="0" y1="3315" x2="123" y2="3315"/>
			<line x1="27" y1="0" x2="27" y2="3404"/>
		</g>
		<g style="--index: 1;">
			<path d="M3,3404L25,3404L25,3343" tabindex="0">
				<title>8w3l21qj</title>
			</path>
			<rect x="3" y="3343" width="22" height="61"/>
			<path d="M3,3404L3,3404" tabindex="0">
				<title>00:34.04 on 2023-12-15</title>
			</path>
			<line x1="0" y1="3404" x2="123" y2="3404"/>
			<line x1="3" y1="0" x2="3" y2="3404"/>
			<path d="M25,3343L25,3343" tabindex="0">
				<title>00:33.43 on 2024-01-06</title>
			</path>
			<line x1="0" y1="3343" x2="123" y2="3343"/>
			<line x1="25" y1="0" x2="25" y2="3404"/>
		</g>
		<g style="--index: 2;">
			<path d="M96,3214L122,3214L122,3157" tabindex="0">
				<title>8rme6wwj</title>
			</path>
			<rect x="96" y="3157" width="26" height="57"/>
			<path d="M96,3214L96,3214" tabindex="0">
				<title>00:32.14 on 2024-03-17</title>
			</path>
			<line x1="0" y1="3214" x2="123" y2="3214"/>
			<line x1="96" y1="0" x2="96" y2="3404"/>
			<path d="M122,3157L122,3157" tabindex="0">
				<title>00:31.57 on 2024-04-12</title>
			</path>
			<line x1="0" y1="3157" x2="123" y2="3157"/>
			<line x1="122" y1="0" x2="122" y2="3404"/>
		</g>
		<g style="--index: 3;">
			<path d="M117,3359" tabindex="0">
				<title>xkp59okj</title>
			</path>
			<rect x="117" y="3359" width="0" height="0"/>
			<path d="M117,3359L117,3359" tabindex="0">
				<title>00:33.59 on 2024-04-07</title>
			</path>
			<line x1="0" y1="3359" x2="123" y2="3359"/>
			<line x1="117" y1="0" x2="117" y2="3404"/>
		</g>
		<g style="--index: 4;">
			<path d="M123,3263" tabindex="0">
				<title>8v0d7qyx</title>
			</path>
			<rect x="123" y="3263" width="0" height="0"/>
			<path d="M123,3263L123,3263" tabindex="0">
				<title>00:32.63 on 2024-04-13</title>
			</path>
			<line x1="0" y1="3263" x2="123" y2="3263"/>
			<line x1="123" y1="0" x2="123" y2="3404"/>
		</g>
	</g>
</svg>
