<svg xmlns="http://www.w3.org/2000/svg" viewBox="0 0 1081 3850" preserveAspectRatio="none" lang="en" style="color-scheme: dark light;">
		<title>Time by player for leaderboard l_ldykv1zw-rkl3znrk-wl3059ol.mlnwjz0l</title>
		<style>
			svg {
				background: var(--canvas-background);
				fill: var(--canvas-background);
				stroke: var(--canvas-foreground);
				stroke-linejoin: round;
				stroke-linecap: round;
			}
			g &gt; path[tabindex] {
				vector-effect: non-scaling-stroke;
				fill: none;
				stroke: hsl(calc(var(--index) / var(--count) * 360), 50%, 50%);
				cursor: help;
			}
			g:is(:hover, :focus-within) &gt; path[tabindex] {
				stroke: var(--canvas-foreground);
			}
			g &gt; path[tabindex]:is(:hover, :focus-within) {
				outline: 0;
			}
			g &gt; path[tabindex]:first-of-type {
				stroke-width: 2;
			}
			g &gt; path[tabindex]:first-of-type:is(:hover, :focus-within) {
				stroke-width: 4;
			}
			g &gt; path[tabindex]:first-of-type:not(:last-of-type) {
				stroke-dasharray: 4 8;
			}
			g &gt; rect {
				vector-effect: non-scaling-stroke;
				fill: none;
				stroke: none;
				pointer-events: none;
			}
			g &gt; path[tabindex]:first-of-type:is(:hover, :focus-within) + rect {
				fill: var(--highlighted);
			}
			g &gt; path[tabindex]:first-of-type ~ path[tabindex] {
				stroke-width: 8;
			}
			g &gt; path[tabindex]:first-of-type ~ path[tabindex]:is(:hover, :focus-within) {
				stroke-width: 16;
			}
			g &gt; line {
				vector-effect: non-scaling-stroke;
				fill: none;
				stroke: none;
				stroke-width: 2;
				stroke-dasharray: 4 8;
				pointer-events: none;
			}
			g &gt; path[tabindex]:first-of-type:is(:hover, :focus-within) + rect + path[tabindex] + line,
			g &gt; path[tabindex]:first-of-type:is(:hover, :focus-within) + rect + path[tabindex] + line + line,
			g &gt; path[tabindex]:first-of-type:is(:hover, :focus-within) ~ path[tabindex]:last-of-type + line,
			g &gt; path[tabindex]:first-of-type:is(:hover, :focus-within) ~ path[tabindex]:last-of-type + line + line,
			g &gt; path[tabindex]:first-of-type ~ path[tabindex]:is(:hover, :focus-within) + line,
			g &gt; path[tabindex]:first-of-type ~ path[tabindex]:is(:hover, :focus-within) + line + line {
				stroke: var(--faded);
			}
			@media (prefers-color-scheme: dark) {
				:root {
					--canvas-background: #000;
					--canvas-foreground: #ccc;
					--highlighted: #6663;
					--faded: #9993;
				}
			}
			@media (prefers-color-scheme: light) {
				:root {
					--canvas-background: #fff;
					--canvas-foreground: #333;
					--highlighted: #9993;
					--faded: #6663;
				}
			}
		</style>
		<g transform="scale(1 -1)" transform-origin="center center" style="--count: 9;">
		<g style="--index: 0;">
			<path d="M0,3668" tabindex="0">
				<title>8e94kq6j</title>
			</path>
			<rect x="0" y="3668" width="0" height="0"/>
			<path d="M0,3668L0,3668" tabindex="0">
				<title>00:36.68 on 2020-11-05</title>
			</path>
			<line x1="0" y1="3668" x2="1081" y2="3668"/>
			<line x1="0" y1="0" x2="0" y2="3850"/>
		</g>
		<g style="--index: 1;">
			<path d="M67,3457L219,3457L219,3242" tabindex="0">
				<title>x356nrej</title>
			</path>
			<rect x="67" y="3242" width="152" height="215"/>
			<path d="M67,3457L67,3457" tabindex="0">
				<title>00:34.57 on 2021-01-11</title>
			</path>
			<line x1="0" y1="3457" x2="1081" y2="3457"/>
			<line x1="67" y1="0" x2="67" y2="3850"/>
			<path d="M219,3242L219,3242" tabindex="0">
				<title>00:32.42 on 2021-06-12</title>
			</path>
			<line x1="0" y1="3242" x2="1081" y2="3242"/>
			<line x1="219" y1="0" x2="219" y2="3850"/>
		</g>
		<g style="--index: 2;">
			<path d="M89,3657" tabindex="0">
				<title>j0np7or8</title>
			</path>
			<rect x="89" y="3657" width="0" height="0"/>
			<path d="M89,3657L89,3657" tabindex="0">
				<title>00:36.57 on 2021-02-02</title>
			</path>
			<line x1="0" y1="3657" x2="1081" y2="3657"/>
			<line x1="89" y1="0" x2="89" y2="3850"/>
		</g>
		<g style="--index: 3;">
			<path d="M89,3388" tabindex="0">
				<title>jnz1zy2j</title>
			</path>
			<rect x="89" y="3388" width="0" height="0"/>
			<path d="M89,3388L89,3388" tabindex="0">
				<title>00:33.88 on 2021-02-02</title>
			</path>
			<line x1="0" y1="3388" x2="1081" y2="3388"/>
			<line x1="89" y1="0" x2="89" y2="3850"/>
		</g>
		<g style="--index: 4;">
			<path d="M219,3326L238,3326L238,3211" tabindex="0">
				<title>jnzen32j</title>
			</path>
			<rect x="219" y="3211" width="19" height="115"/>
			<path d="M219,3326L219,3326" tabindex="0">
				<title>00:33.26 on 2021-06-12</title>
			</path>
			<line x1="0" y1="3326" x2="1081" y2="3326"/>
			<line x1="219" y1="0" x2="219" y2="3850"/>
			<path d="M238,3211L238,3211" tabindex="0">
				<title>00:32.11 on 2021-07-01</title>
			</path>
			<line x1="0" y1="3211" x2="1081" y2="3211"/>
			<line x1="238" y1="0" x2="238" y2="3850"/>
		</g>
		<g style="--index: 5;">
			<path d="M254,3159L659,3159L659,3129" tabindex="0">
				<title>j2yr9lp8</title>
			</path>
			<rect x="254" y="3129" width="405" height="30"/>
			<path d="M254,3159L254,3159" tabindex="0">
				<title>00:31.59 on 2021-07-17</title>
			</path>
			<line x1="0" y1="3159" x2="1081" y2="3159"/>
			<line x1="254" y1="0" x2="254" y2="3850"/>
			<path d="M659,3129L659,3129" tabindex="0">
				<title>00:31.29 on 2022-08-26</title>
			</path>
			<line x1="0" y1="3129" x2="1081" y2="3129"/>
			<line x1="659" y1="0" x2="659" y2="3850"/>
		</g>
		<g style="--index: 6;">
			<path d="M932,3103" tabindex="0">
				<title>jmz3rlox</title>
			</path>
			<rect x="932" y="3103" width="0" height="0"/>
			<path d="M932,3103L932,3103" tabindex="0">
				<title>00:31.03 on 2023-05-26</title>
			</path>
			<line x1="0" y1="3103" x2="1081" y2="3103"/>
			<line x1="932" y1="0" x2="932" y2="3850"/>
		</g>
		<g style="--index: 7;">
			<path d="M1022,3801" tabindex="0">
				<title>j40p60d8</title>
			</path>
			<rect x="1022" y="3801" width="0" height="0"/>
			<path d="M1022,3801L1022,3801" tabindex="0">
				<title>00:38.01 on 2023-08-24</title>
			</path>
			<line x1="0" y1="3801" x2="1081" y2="3801"/>
			<line x1="1022" y1="0" x2="1022" y2="3850"/>
		</g>
		<g style="--index: 8;">
			<path d="M1081,3850" tabindex="0">
				<title>8w3l21qj</title>
			</path>
			<rect x="1081" y="3850" width="0" height="0"/>
			<path d="M1081,3850L1081,3850" tabindex="0">
				<title>00:38.50 on 2023-10-22</title>
			</path>
			<line x1="0" y1="3850" x2="1081" y2="3850"/>
			<line x1="1081" y1="0" x2="1081" y2="3850"/>
		</g>
	</g>
</svg>
