<svg xmlns="http://www.w3.org/2000/svg" viewBox="0 0 1124 5731" preserveAspectRatio="none" lang="en" style="color-scheme: dark light;">
	<title>Time by player for leaderboard l_ldykv1zw-rkl3znrk-wl3059ol.9qj0kxel</title>
	<style>
		svg {
			background: var(--canvas-background);
			fill: var(--canvas-background);
			stroke: var(--canvas-foreground);
			stroke-linejoin: round;
			stroke-linecap: round;
		}
		g &gt; path[tabindex] {
			vector-effect: non-scaling-stroke;
			fill: none;
			stroke: hsl(calc(var(--index) / var(--count) * 360), 50%, 50%);
			cursor: help;
		}
		g:is(:hover, :focus-within) &gt; path[tabindex] {
			stroke: var(--canvas-foreground);
		}
		g &gt; path[tabindex]:is(:hover, :focus-within) {
			outline: 0;
		}
		g &gt; path[tabindex]:first-of-type {
			stroke-width: 2;
		}
		g &gt; path[tabindex]:first-of-type:is(:hover, :focus-within) {
			stroke-width: 4;
		}
		g &gt; path[tabindex]:first-of-type:not(:last-of-type) {
			stroke-dasharray: 4 8;
		}
		g &gt; rect {
			vector-effect: non-scaling-stroke;
			fill: none;
			stroke: none;
			pointer-events: none;
		}
		g &gt; path[tabindex]:first-of-type:is(:hover, :focus-within) + rect {
			fill: var(--highlighted);
		}
		g &gt; path[tabindex]:first-of-type ~ path[tabindex] {
			stroke-width: 8;
		}
		g &gt; path[tabindex]:first-of-type ~ path[tabindex]:is(:hover, :focus-within) {
			stroke-width: 16;
		}
		g &gt; line {
			vector-effect: non-scaling-stroke;
			fill: none;
			stroke: none;
			stroke-width: 2;
			stroke-dasharray: 4 8;
			pointer-events: none;
		}
		g &gt; path[tabindex]:first-of-type:is(:hover, :focus-within) + rect + path[tabindex] + line,
		g &gt; path[tabindex]:first-of-type:is(:hover, :focus-within) + rect + path[tabindex] + line + line,
		g &gt; path[tabindex]:first-of-type:is(:hover, :focus-within) ~ path[tabindex]:last-of-type + line,
		g &gt; path[tabindex]:first-of-type:is(:hover, :focus-within) ~ path[tabindex]:last-of-type + line + line,
		g &gt; path[tabindex]:first-of-type ~ path[tabindex]:is(:hover, :focus-within) + line,
		g &gt; path[tabindex]:first-of-type ~ path[tabindex]:is(:hover, :focus-within) + line + line {
			stroke: var(--faded);
		}
		@media (prefers-color-scheme: dark) {
			:root {
				--canvas-background: #000;
				--canvas-foreground: #ccc;
				--highlighted: #6663;
				--faded: #9993;
			}
		}
		@media (prefers-color-scheme: light) {
			:root {
				--canvas-background: #fff;
				--canvas-foreground: #333;
				--highlighted: #9993;
				--faded: #6663;
			}
		}
	</style>
	<g transform="scale(1 -1)" transform-origin="center center" style="--count: 6;">
		<g style="--index: 0;">
			<path d="M0,3790L253,3790L253,3577" tabindex="0">
				<title>x356nrej</title>
			</path>
			<rect x="0" y="3577" width="253" height="213"/>
			<path d="M0,3790L0,3790" tabindex="0">
				<title>00:37.90 on 2020-10-02</title>
			</path>
			<line x1="0" y1="3790" x2="1124" y2="3790"/>
			<line x1="0" y1="0" x2="0" y2="5731"/>
			<path d="M253,3577L253,3577" tabindex="0">
				<title>00:35.77 on 2021-06-12</title>
			</path>
			<line x1="0" y1="3577" x2="1124" y2="3577"/>
			<line x1="253" y1="0" x2="253" y2="5731"/>
		</g>
		<g style="--index: 1;">
			<path d="M123,4238" tabindex="0">
				<title>j0np7or8</title>
			</path>
			<rect x="123" y="4238" width="0" height="0"/>
			<path d="M123,4238L123,4238" tabindex="0">
				<title>00:42.38 on 2021-02-02</title>
			</path>
			<line x1="0" y1="4238" x2="1124" y2="4238"/>
			<line x1="123" y1="0" x2="123" y2="5731"/>
		</g>
		<g style="--index: 2;">
			<path d="M123,3701L124,3701L124,3651" tabindex="0">
				<title>jnz1zy2j</title>
			</path>
			<rect x="123" y="3651" width="1" height="50"/>
			<path d="M123,3701L123,3701" tabindex="0">
				<title>00:37.01 on 2021-02-02</title>
			</path>
			<line x1="0" y1="3701" x2="1124" y2="3701"/>
			<line x1="123" y1="0" x2="123" y2="5731"/>
			<path d="M124,3651L124,3651" tabindex="0">
				<title>00:36.51 on 2021-02-03</title>
			</path>
			<line x1="0" y1="3651" x2="1124" y2="3651"/>
			<line x1="124" y1="0" x2="124" y2="5731"/>
		</g>
		<g style="--index: 3;">
			<path d="M264,3565L649,3565L649,3408" tabindex="0">
				<title>jnzen32j</title>
			</path>
			<rect x="264" y="3408" width="385" height="157"/>
			<path d="M264,3565L264,3565" tabindex="0">
				<title>00:35.65 on 2021-06-23</title>
			</path>
			<line x1="0" y1="3565" x2="1124" y2="3565"/>
			<line x1="264" y1="0" x2="264" y2="5731"/>
			<path d="M649,3408L649,3408" tabindex="0">
				<title>00:34.08 on 2022-07-13</title>
			</path>
			<line x1="0" y1="3408" x2="1124" y2="3408"/>
			<line x1="649" y1="0" x2="649" y2="5731"/>
		</g>
		<g style="--index: 4;">
			<path d="M307,3417L693,3417L693,3393" tabindex="0">
				<title>j2yr9lp8</title>
			</path>
			<rect x="307" y="3393" width="386" height="24"/>
			<path d="M307,3417L307,3417" tabindex="0">
				<title>00:34.17 on 2021-08-05</title>
			</path>
			<line x1="0" y1="3417" x2="1124" y2="3417"/>
			<line x1="307" y1="0" x2="307" y2="5731"/>
			<path d="M693,3393L693,3393" tabindex="0">
				<title>00:33.93 on 2022-08-26</title>
			</path>
			<line x1="0" y1="3393" x2="1124" y2="3393"/>
			<line x1="693" y1="0" x2="693" y2="5731"/>
		</g>
		<g style="--index: 5;">
			<path d="M1124,5731" tabindex="0">
				<title>8w3l21qj</title>
			</path>
			<rect x="1124" y="5731" width="0" height="0"/>
			<path d="M1124,5731L1124,5731" tabindex="0">
				<title>00:57.31 on 2023-10-31</title>
			</path>
			<line x1="0" y1="5731" x2="1124" y2="5731"/>
			<line x1="1124" y1="0" x2="1124" y2="5731"/>
		</g>
	</g>
</svg>
