<svg xmlns="http://www.w3.org/2000/svg" viewBox="0 0 2168 11379" preserveAspectRatio="none" lang="en" style="color-scheme: dark light;">
		<title>Time by player for leaderboard l_o9xo3rp9-9d8eewld-7896y468.810zwdwq</title>
		<style>
			svg {
				background: var(--canvas-background);
				fill: var(--canvas-background);
				stroke: var(--canvas-foreground);
				stroke-linejoin: round;
				stroke-linecap: round;
			}
			g &gt; path[tabindex] {
				vector-effect: non-scaling-stroke;
				fill: none;
				stroke: hsl(calc(var(--index) / var(--count) * 360), 50%, 50%);
				cursor: help;
			}
			g:is(:hover, :focus-within) &gt; path[tabindex] {
				stroke: var(--canvas-foreground);
			}
			g &gt; path[tabindex]:is(:hover, :focus-within) {
				outline: 0;
			}
			g &gt; path[tabindex]:first-of-type {
				stroke-width: 2;
			}
			g &gt; path[tabindex]:first-of-type:is(:hover, :focus-within) {
				stroke-width: 4;
			}
			g &gt; path[tabindex]:first-of-type:not(:last-of-type) {
				stroke-dasharray: 4 8;
			}
			g &gt; rect {
				vector-effect: non-scaling-stroke;
				fill: none;
				stroke: none;
				pointer-events: none;
			}
			g &gt; path[tabindex]:first-of-type:is(:hover, :focus-within) + rect {
				fill: var(--highlighted);
			}
			g &gt; path[tabindex]:first-of-type ~ path[tabindex] {
				stroke-width: 8;
			}
			g &gt; path[tabindex]:first-of-type ~ path[tabindex]:is(:hover, :focus-within) {
				stroke-width: 16;
			}
			g &gt; line {
				vector-effect: non-scaling-stroke;
				fill: none;
				stroke: none;
				stroke-width: 2;
				stroke-dasharray: 4 8;
				pointer-events: none;
			}
			g &gt; path[tabindex]:first-of-type:is(:hover, :focus-within) + rect + path[tabindex] + line,
			g &gt; path[tabindex]:first-of-type:is(:hover, :focus-within) + rect + path[tabindex] + line + line,
			g &gt; path[tabindex]:first-of-type:is(:hover, :focus-within) ~ path[tabindex]:last-of-type + line,
			g &gt; path[tabindex]:first-of-type:is(:hover, :focus-within) ~ path[tabindex]:last-of-type + line + line,
			g &gt; path[tabindex]:first-of-type ~ path[tabindex]:is(:hover, :focus-within) + line,
			g &gt; path[tabindex]:first-of-type ~ path[tabindex]:is(:hover, :focus-within) + line + line {
				stroke: var(--faded);
			}
			@media (prefers-color-scheme: dark) {
				:root {
					--canvas-background: #000;
					--canvas-foreground: #ccc;
					--highlighted: #6663;
					--faded: #9993;
				}
			}
			@media (prefers-color-scheme: light) {
				:root {
					--canvas-background: #fff;
					--canvas-foreground: #333;
					--highlighted: #9993;
					--faded: #6663;
				}
			}
		</style>
		<g style="--count: 24;">
		<g style="--index: 0;">
			<path d="M0,1628L10,1628L10,1801L50,1801L50,1888" tabindex="0">
				<title>qj2pq1p8</title>
			</path>
			<rect x="0" y="1628" width="50" height="260"/>
			<path d="M0,1628L0,1628" tabindex="0">
				<title>01:37.51 on 2018-01-15</title>
			</path>
			<line x1="0" y1="1628" x2="2168" y2="1628"/>
			<line x1="0" y1="11379" x2="0" y2="0"/>
			<path d="M10,1801L10,1801" tabindex="0">
				<title>01:35.78 on 2018-01-25</title>
			</path>
			<line x1="0" y1="1801" x2="2168" y2="1801"/>
			<line x1="10" y1="11379" x2="10" y2="0"/>
			<path d="M50,1888L50,1888" tabindex="0">
				<title>01:34.91 on 2018-03-06</title>
			</path>
			<line x1="0" y1="1888" x2="2168" y2="1888"/>
			<line x1="50" y1="11379" x2="50" y2="0"/>
		</g>
		<g style="--index: 1;">
			<path d="M66,1283" tabindex="0">
				<title>18qg9ndx</title>
			</path>
			<rect x="66" y="1283" width="0" height="0"/>
			<path d="M66,1283L66,1283" tabindex="0">
				<title>01:40.96 on 2018-03-22</title>
			</path>
			<line x1="0" y1="1283" x2="2168" y2="1283"/>
			<line x1="66" y1="11379" x2="66" y2="0"/>
		</g>
		<g style="--index: 2;">
			<path d="M179,1989" tabindex="0">
				<title>y8dgoe98</title>
			</path>
			<rect x="179" y="1989" width="0" height="0"/>
			<path d="M179,1989L179,1989" tabindex="0">
				<title>01:33.90 on 2018-07-13</title>
			</path>
			<line x1="0" y1="1989" x2="2168" y2="1989"/>
			<line x1="179" y1="11379" x2="179" y2="0"/>
		</g>
		<g style="--index: 3;">
			<path d="M588,1167" tabindex="0">
				<title>j9rlkzoj</title>
			</path>
			<rect x="588" y="1167" width="0" height="0"/>
			<path d="M588,1167L588,1167" tabindex="0">
				<title>01:42.12 on 2019-08-26</title>
			</path>
			<line x1="0" y1="1167" x2="2168" y2="1167"/>
			<line x1="588" y1="11379" x2="588" y2="0"/>
		</g>
		<g style="--index: 4;">
			<path d="M751,1548" tabindex="0">
				<title>8146r4r8</title>
			</path>
			<rect x="751" y="1548" width="0" height="0"/>
			<path d="M751,1548L751,1548" tabindex="0">
				<title>01:38.31 on 2020-02-05</title>
			</path>
			<line x1="0" y1="1548" x2="2168" y2="1548"/>
			<line x1="751" y1="11379" x2="751" y2="0"/>
		</g>
		<g style="--index: 5;">
			<path d="M881,1992L988,1992L988,2129" tabindex="0">
				<title>x356nrej</title>
			</path>
			<rect x="881" y="1992" width="107" height="137"/>
			<path d="M881,1992L881,1992" tabindex="0">
				<title>01:33.87 on 2020-06-14</title>
			</path>
			<line x1="0" y1="1992" x2="2168" y2="1992"/>
			<line x1="881" y1="11379" x2="881" y2="0"/>
			<path d="M988,2129L988,2129" tabindex="0">
				<title>01:32.50 on 2020-09-29</title>
			</path>
			<line x1="0" y1="2129" x2="2168" y2="2129"/>
			<line x1="988" y1="11379" x2="988" y2="0"/>
		</g>
		<g style="--index: 6;">
			<path d="M1027,1926L1099,1926L1099,2022" tabindex="0">
				<title>j0np7or8</title>
			</path>
			<rect x="1027" y="1926" width="72" height="96"/>
			<path d="M1027,1926L1027,1926" tabindex="0">
				<title>01:34.53 on 2020-11-07</title>
			</path>
			<line x1="0" y1="1926" x2="2168" y2="1926"/>
			<line x1="1027" y1="11379" x2="1027" y2="0"/>
			<path d="M1099,2022L1099,2022" tabindex="0">
				<title>01:33.57 on 2021-01-18</title>
			</path>
			<line x1="0" y1="2022" x2="2168" y2="2022"/>
			<line x1="1099" y1="11379" x2="1099" y2="0"/>
		</g>
		<g style="--index: 7;">
			<path d="M1040,2133" tabindex="0">
				<title>x7q00668</title>
			</path>
			<rect x="1040" y="2133" width="0" height="0"/>
			<path d="M1040,2133L1040,2133" tabindex="0">
				<title>01:32.46 on 2020-11-20</title>
			</path>
			<line x1="0" y1="2133" x2="2168" y2="2133"/>
			<line x1="1040" y1="11379" x2="1040" y2="0"/>
		</g>
		<g style="--index: 8;">
			<path d="M1052,1817" tabindex="0">
				<title>j92wdlw8</title>
			</path>
			<rect x="1052" y="1817" width="0" height="0"/>
			<path d="M1052,1817L1052,1817" tabindex="0">
				<title>01:35.62 on 2020-12-02</title>
			</path>
			<line x1="0" y1="1817" x2="2168" y2="1817"/>
			<line x1="1052" y1="11379" x2="1052" y2="0"/>
		</g>
		<g style="--index: 9;">
			<path d="M1066,1994" tabindex="0">
				<title>86ngl5wx</title>
			</path>
			<rect x="1066" y="1994" width="0" height="0"/>
			<path d="M1066,1994L1066,1994" tabindex="0">
				<title>01:33.85 on 2020-12-16</title>
			</path>
			<line x1="0" y1="1994" x2="2168" y2="1994"/>
			<line x1="1066" y1="11379" x2="1066" y2="0"/>
		</g>
		<g style="--index: 10;">
			<path d="M1109,2137" tabindex="0">
				<title>xkon93k8</title>
			</path>
			<rect x="1109" y="2137" width="0" height="0"/>
			<path d="M1109,2137L1109,2137" tabindex="0">
				<title>01:32.42 on 2021-01-28</title>
			</path>
			<line x1="0" y1="2137" x2="2168" y2="2137"/>
			<line x1="1109" y1="11379" x2="1109" y2="0"/>
		</g>
		<g style="--index: 11;">
			<path d="M1143,1631" tabindex="0">
				<title>8grypo7x</title>
			</path>
			<rect x="1143" y="1631" width="0" height="0"/>
			<path d="M1143,1631L1143,1631" tabindex="0">
				<title>01:37.48 on 2021-03-03</title>
			</path>
			<line x1="0" y1="1631" x2="2168" y2="1631"/>
			<line x1="1143" y1="11379" x2="1143" y2="0"/>
		</g>
		<g style="--index: 12;">
			<path d="M1176,2190" tabindex="0">
				<title>814zn7l8</title>
			</path>
			<rect x="1176" y="2190" width="0" height="0"/>
			<path d="M1176,2190L1176,2190" tabindex="0">
				<title>01:31.89 on 2021-04-05</title>
			</path>
			<line x1="0" y1="2190" x2="2168" y2="2190"/>
			<line x1="1176" y1="11379" x2="1176" y2="0"/>
		</g>
		<g style="--index: 13;">
			<path d="M1249,1214" tabindex="0">
				<title>x7mk3z6x</title>
			</path>
			<rect x="1249" y="1214" width="0" height="0"/>
			<path d="M1249,1214L1249,1214" tabindex="0">
				<title>01:41.65 on 2021-06-17</title>
			</path>
			<line x1="0" y1="1214" x2="2168" y2="1214"/>
			<line x1="1249" y1="11379" x2="1249" y2="0"/>
		</g>
		<g style="--index: 14;">
			<path d="M1369,208" tabindex="0">
				<title>8w16l2zx</title>
			</path>
			<rect x="1369" y="208" width="0" height="0"/>
			<path d="M1369,208L1369,208" tabindex="0">
				<title>01:51.71 on 2021-10-15</title>
			</path>
			<line x1="0" y1="208" x2="2168" y2="208"/>
			<line x1="1369" y1="11379" x2="1369" y2="0"/>
		</g>
		<g style="--index: 15;">
			<path d="M1384,39" tabindex="0">
				<title>81qdl4lj</title>
			</path>
			<rect x="1384" y="39" width="0" height="0"/>
			<path d="M1384,39L1384,39" tabindex="0">
				<title>01:53.40 on 2021-10-30</title>
			</path>
			<line x1="0" y1="39" x2="2168" y2="39"/>
			<line x1="1384" y1="11379" x2="1384" y2="0"/>
		</g>
		<g style="--index: 16;">
			<path d="M1514,300" tabindex="0">
				<title>866gn938</title>
			</path>
			<rect x="1514" y="300" width="0" height="0"/>
			<path d="M1514,300L1514,300" tabindex="0">
				<title>01:50.79 on 2022-03-09</title>
			</path>
			<line x1="0" y1="300" x2="2168" y2="300"/>
			<line x1="1514" y1="11379" x2="1514" y2="0"/>
		</g>
		<g style="--index: 17;">
			<path d="M1516,0" tabindex="0">
				<title>8ek1yoo8</title>
			</path>
			<rect x="1516" y="0" width="0" height="0"/>
			<path d="M1516,0L1516,0" tabindex="0">
				<title>01:53.79 on 2022-03-11</title>
			</path>
			<line x1="0" y1="0" x2="2168" y2="0"/>
			<line x1="1516" y1="11379" x2="1516" y2="0"/>
		</g>
		<g style="--index: 18;">
			<path d="M1576,93" tabindex="0">
				<title>8gm02d18</title>
			</path>
			<rect x="1576" y="93" width="0" height="0"/>
			<path d="M1576,93L1576,93" tabindex="0">
				<title>01:52.86 on 2022-05-10</title>
			</path>
			<line x1="0" y1="93" x2="2168" y2="93"/>
			<line x1="1576" y1="11379" x2="1576" y2="0"/>
		</g>
		<g style="--index: 19;">
			<path d="M1630,526" tabindex="0">
				<title>joovynnj</title>
			</path>
			<rect x="1630" y="526" width="0" height="0"/>
			<path d="M1630,526L1630,526" tabindex="0">
				<title>01:48.53 on 2022-07-03</title>
			</path>
			<line x1="0" y1="526" x2="2168" y2="526"/>
			<line x1="1630" y1="11379" x2="1630" y2="0"/>
		</g>
		<g style="--index: 20;">
			<path d="M1674,138" tabindex="0">
				<title>j9p1q7ox</title>
			</path>
			<rect x="1674" y="138" width="0" height="0"/>
			<path d="M1674,138L1674,138" tabindex="0">
				<title>01:52.41 on 2022-08-16</title>
			</path>
			<line x1="0" y1="138" x2="2168" y2="138"/>
			<line x1="1674" y1="11379" x2="1674" y2="0"/>
		</g>
		<g style="--index: 21;">
			<path d="M1709,69" tabindex="0">
				<title>xk115v9j</title>
			</path>
			<rect x="1709" y="69" width="0" height="0"/>
			<path d="M1709,69L1709,69" tabindex="0">
				<title>01:53.10 on 2022-09-20</title>
			</path>
			<line x1="0" y1="69" x2="2168" y2="69"/>
			<line x1="1709" y1="11379" x2="1709" y2="0"/>
		</g>
		<g style="--index: 22;">
			<path d="M1764,91" tabindex="0">
				<title>8rlrzvd8</title>
			</path>
			<rect x="1764" y="91" width="0" height="0"/>
			<path d="M1764,91L1764,91" tabindex="0">
				<title>01:52.88 on 2022-11-14</title>
			</path>
			<line x1="0" y1="91" x2="2168" y2="91"/>
			<line x1="1764" y1="11379" x2="1764" y2="0"/>
		</g>
		<g style="--index: 23;">
			<path d="M2168,2191" tabindex="0">
				<title>jn2m23wj</title>
			</path>
			<rect x="2168" y="2191" width="0" height="0"/>
			<path d="M2168,2191L2168,2191" tabindex="0">
				<title>01:31.88 on 2023-12-23</title>
			</path>
			<line x1="0" y1="2191" x2="2168" y2="2191"/>
			<line x1="2168" y1="11379" x2="2168" y2="0"/>
		</g>
	</g>
</svg>
