<svg xmlns="http://www.w3.org/2000/svg" viewBox="0 0 681 52762" preserveAspectRatio="none" lang="en" style="color-scheme: dark light;">
		<title>Time by player for leaderboard l_o9xo3rp9-xd144xzd-38dz6v1n.z19md2jl</title>
		<style>
			svg {
				background: var(--canvas-background);
				fill: var(--canvas-background);
				stroke: var(--canvas-foreground);
				stroke-linejoin: round;
				stroke-linecap: round;
			}
			g &gt; path[tabindex] {
				vector-effect: non-scaling-stroke;
				fill: none;
				stroke: hsl(calc(var(--index) / var(--count) * 360), 50%, 50%);
				cursor: help;
			}
			g:is(:hover, :focus-within) &gt; path[tabindex] {
				stroke: var(--canvas-foreground);
			}
			g &gt; path[tabindex]:is(:hover, :focus-within) {
				outline: 0;
			}
			g &gt; path[tabindex]:first-of-type {
				stroke-width: 2;
			}
			g &gt; path[tabindex]:first-of-type:is(:hover, :focus-within) {
				stroke-width: 4;
			}
			g &gt; path[tabindex]:first-of-type:not(:last-of-type) {
				stroke-dasharray: 4 8;
			}
			g &gt; rect {
				vector-effect: non-scaling-stroke;
				fill: none;
				stroke: none;
				pointer-events: none;
			}
			g &gt; path[tabindex]:first-of-type:is(:hover, :focus-within) + rect {
				fill: var(--highlighted);
			}
			g &gt; path[tabindex]:first-of-type ~ path[tabindex] {
				stroke-width: 8;
			}
			g &gt; path[tabindex]:first-of-type ~ path[tabindex]:is(:hover, :focus-within) {
				stroke-width: 16;
			}
			g &gt; line {
				vector-effect: non-scaling-stroke;
				fill: none;
				stroke: none;
				stroke-width: 2;
				stroke-dasharray: 4 8;
				pointer-events: none;
			}
			g &gt; path[tabindex]:first-of-type:is(:hover, :focus-within) + rect + path[tabindex] + line,
			g &gt; path[tabindex]:first-of-type:is(:hover, :focus-within) + rect + path[tabindex] + line + line,
			g &gt; path[tabindex]:first-of-type:is(:hover, :focus-within) ~ path[tabindex]:last-of-type + line,
			g &gt; path[tabindex]:first-of-type:is(:hover, :focus-within) ~ path[tabindex]:last-of-type + line + line,
			g &gt; path[tabindex]:first-of-type ~ path[tabindex]:is(:hover, :focus-within) + line,
			g &gt; path[tabindex]:first-of-type ~ path[tabindex]:is(:hover, :focus-within) + line + line {
				stroke: var(--faded);
			}
			@media (prefers-color-scheme: dark) {
				:root {
					--canvas-background: #000;
					--canvas-foreground: #ccc;
					--highlighted: #6663;
					--faded: #9993;
				}
			}
			@media (prefers-color-scheme: light) {
				:root {
					--canvas-background: #fff;
					--canvas-foreground: #333;
					--highlighted: #9993;
					--faded: #6663;
				}
			}
		</style>
		<g style="--count: 4;">
		<g style="--index: 0;">
			<path d="M0,0L76,0L76,11547L121,11547L121,21077" tabindex="0">
				<title>xkon93k8</title>
			</path>
			<rect x="0" y="0" width="121" height="21077"/>
			<path d="M0,0L0,0" tabindex="0">
				<title>08:47.62 on 2020-10-14</title>
			</path>
			<line x1="0" y1="0" x2="681" y2="0"/>
			<line x1="0" y1="52762" x2="0" y2="0"/>
			<path d="M76,11547L76,11547" tabindex="0">
				<title>06:52.15 on 2020-12-29</title>
			</path>
			<line x1="0" y1="11547" x2="681" y2="11547"/>
			<line x1="76" y1="52762" x2="76" y2="0"/>
			<path d="M121,21077L121,21077" tabindex="0">
				<title>05:16.85 on 2021-02-12</title>
			</path>
			<line x1="0" y1="21077" x2="681" y2="21077"/>
			<line x1="121" y1="52762" x2="121" y2="0"/>
		</g>
		<g style="--index: 1;">
			<path d="M75,6735L115,6735L115,11617" tabindex="0">
				<title>j0np7or8</title>
			</path>
			<rect x="75" y="6735" width="40" height="4882"/>
			<path d="M75,6735L75,6735" tabindex="0">
				<title>07:40.27 on 2020-12-28</title>
			</path>
			<line x1="0" y1="6735" x2="681" y2="6735"/>
			<line x1="75" y1="52762" x2="75" y2="0"/>
			<path d="M115,11617L115,11617" tabindex="0">
				<title>06:51.45 on 2021-02-06</title>
			</path>
			<line x1="0" y1="11617" x2="681" y2="11617"/>
			<line x1="115" y1="52762" x2="115" y2="0"/>
		</g>
		<g style="--index: 2;">
			<path d="M676,21285" tabindex="0">
				<title>x356nrej</title>
			</path>
			<rect x="676" y="21285" width="0" height="0"/>
			<path d="M676,21285L676,21285" tabindex="0">
				<title>05:14.77 on 2022-08-21</title>
			</path>
			<line x1="0" y1="21285" x2="681" y2="21285"/>
			<line x1="676" y1="52762" x2="676" y2="0"/>
		</g>
		<g style="--index: 3;">
			<path d="M681,17722" tabindex="0">
				<title>j4235d5x</title>
			</path>
			<rect x="681" y="17722" width="0" height="0"/>
			<path d="M681,17722L681,17722" tabindex="0">
				<title>05:50.40 on 2022-08-26</title>
			</path>
			<line x1="0" y1="17722" x2="681" y2="17722"/>
			<line x1="681" y1="52762" x2="681" y2="0"/>
		</g>
	</g>
</svg>
