<svg xmlns="http://www.w3.org/2000/svg" viewBox="0 0 2190 3261" preserveAspectRatio="none" lang="en" style="color-scheme: dark light;">
		<title>Time by player for leaderboard l_o9xo3rp9-9d8eewld-7896y468.9qj0x8el</title>
		<style>
			svg {
				background: var(--canvas-background);
				fill: var(--canvas-background);
				stroke: var(--canvas-foreground);
				stroke-linejoin: round;
				stroke-linecap: round;
			}
			g &gt; path[tabindex] {
				vector-effect: non-scaling-stroke;
				fill: none;
				stroke: hsl(calc(var(--index) / var(--count) * 360), 50%, 50%);
				cursor: help;
			}
			g:is(:hover, :focus-within) &gt; path[tabindex] {
				stroke: var(--canvas-foreground);
			}
			g &gt; path[tabindex]:is(:hover, :focus-within) {
				outline: 0;
			}
			g &gt; path[tabindex]:first-of-type {
				stroke-width: 2;
			}
			g &gt; path[tabindex]:first-of-type:is(:hover, :focus-within) {
				stroke-width: 4;
			}
			g &gt; path[tabindex]:first-of-type:not(:last-of-type) {
				stroke-dasharray: 4 8;
			}
			g &gt; rect {
				vector-effect: non-scaling-stroke;
				fill: none;
				stroke: none;
				pointer-events: none;
			}
			g &gt; path[tabindex]:first-of-type:is(:hover, :focus-within) + rect {
				fill: var(--highlighted);
			}
			g &gt; path[tabindex]:first-of-type ~ path[tabindex] {
				stroke-width: 8;
			}
			g &gt; path[tabindex]:first-of-type ~ path[tabindex]:is(:hover, :focus-within) {
				stroke-width: 16;
			}
			g &gt; line {
				vector-effect: non-scaling-stroke;
				fill: none;
				stroke: none;
				stroke-width: 2;
				stroke-dasharray: 4 8;
				pointer-events: none;
			}
			g &gt; path[tabindex]:first-of-type:is(:hover, :focus-within) + rect + path[tabindex] + line,
			g &gt; path[tabindex]:first-of-type:is(:hover, :focus-within) + rect + path[tabindex] + line + line,
			g &gt; path[tabindex]:first-of-type:is(:hover, :focus-within) ~ path[tabindex]:last-of-type + line,
			g &gt; path[tabindex]:first-of-type:is(:hover, :focus-within) ~ path[tabindex]:last-of-type + line + line,
			g &gt; path[tabindex]:first-of-type ~ path[tabindex]:is(:hover, :focus-within) + line,
			g &gt; path[tabindex]:first-of-type ~ path[tabindex]:is(:hover, :focus-within) + line + line {
				stroke: var(--faded);
			}
			@media (prefers-color-scheme: dark) {
				:root {
					--canvas-background: #000;
					--canvas-foreground: #ccc;
					--highlighted: #6663;
					--faded: #9993;
				}
			}
			@media (prefers-color-scheme: light) {
				:root {
					--canvas-background: #fff;
					--canvas-foreground: #333;
					--highlighted: #9993;
					--faded: #6663;
				}
			}
		</style>
		<g style="--count: 22;">
		<g style="--index: 0;">
			<path d="M0,970L361,970L361,1284" tabindex="0">
				<title>qj2pq1p8</title>
			</path>
			<rect x="0" y="970" width="361" height="314"/>
			<path d="M0,970L0,970" tabindex="0">
				<title>00:22.91 on 2018-03-06</title>
			</path>
			<line x1="0" y1="970" x2="2190" y2="970"/>
			<line x1="0" y1="3261" x2="0" y2="0"/>
			<path d="M361,1284L361,1284" tabindex="0">
				<title>00:19.77 on 2019-03-02</title>
			</path>
			<line x1="0" y1="1284" x2="2190" y2="1284"/>
			<line x1="361" y1="3261" x2="361" y2="0"/>
		</g>
		<g style="--index: 1;">
			<path d="M16,317" tabindex="0">
				<title>18qg9ndx</title>
			</path>
			<rect x="16" y="317" width="0" height="0"/>
			<path d="M16,317L16,317" tabindex="0">
				<title>00:29.44 on 2018-03-22</title>
			</path>
			<line x1="0" y1="317" x2="2190" y2="317"/>
			<line x1="16" y1="3261" x2="16" y2="0"/>
		</g>
		<g style="--index: 2;">
			<path d="M47,1279L908,1279L908,1610L913,1610L913,1805" tabindex="0">
				<title>y8dgoe98</title>
			</path>
			<rect x="47" y="1279" width="866" height="526"/>
			<path d="M47,1279L47,1279" tabindex="0">
				<title>00:19.82 on 2018-04-22</title>
			</path>
			<line x1="0" y1="1279" x2="2190" y2="1279"/>
			<line x1="47" y1="3261" x2="47" y2="0"/>
			<path d="M908,1610L908,1610" tabindex="0">
				<title>00:16.51 on 2020-08-30</title>
			</path>
			<line x1="0" y1="1610" x2="2190" y2="1610"/>
			<line x1="908" y1="3261" x2="908" y2="0"/>
			<path d="M913,1805L913,1805" tabindex="0">
				<title>00:14.56 on 2020-09-04</title>
			</path>
			<line x1="0" y1="1805" x2="2190" y2="1805"/>
			<line x1="913" y1="3261" x2="913" y2="0"/>
		</g>
		<g style="--index: 3;">
			<path d="M785,1325L911,1325L911,1638" tabindex="0">
				<title>8146r4r8</title>
			</path>
			<rect x="785" y="1325" width="126" height="313"/>
			<path d="M785,1325L785,1325" tabindex="0">
				<title>00:19.36 on 2020-04-29</title>
			</path>
			<line x1="0" y1="1325" x2="2190" y2="1325"/>
			<line x1="785" y1="3261" x2="785" y2="0"/>
			<path d="M911,1638L911,1638" tabindex="0">
				<title>00:16.23 on 2020-09-02</title>
			</path>
			<line x1="0" y1="1638" x2="2190" y2="1638"/>
			<line x1="911" y1="3261" x2="911" y2="0"/>
		</g>
		<g style="--index: 4;">
			<path d="M811,1560" tabindex="0">
				<title>x356nrej</title>
			</path>
			<rect x="811" y="1560" width="0" height="0"/>
			<path d="M811,1560L811,1560" tabindex="0">
				<title>00:17.01 on 2020-05-25</title>
			</path>
			<line x1="0" y1="1560" x2="2190" y2="1560"/>
			<line x1="811" y1="3261" x2="811" y2="0"/>
		</g>
		<g style="--index: 5;">
			<path d="M973,1794L1054,1794L1054,1874L1116,1874L1116,1888L1117,1888L1117,1906" tabindex="0">
				<title>xkon93k8</title>
			</path>
			<rect x="973" y="1794" width="144" height="112"/>
			<path d="M973,1794L973,1794" tabindex="0">
				<title>00:14.67 on 2020-11-03</title>
			</path>
			<line x1="0" y1="1794" x2="2190" y2="1794"/>
			<line x1="973" y1="3261" x2="973" y2="0"/>
			<path d="M1054,1874L1054,1874" tabindex="0">
				<title>00:13.87 on 2021-01-23</title>
			</path>
			<line x1="0" y1="1874" x2="2190" y2="1874"/>
			<line x1="1054" y1="3261" x2="1054" y2="0"/>
			<path d="M1116,1888L1116,1888" tabindex="0">
				<title>00:13.73 on 2021-03-26</title>
			</path>
			<line x1="0" y1="1888" x2="2190" y2="1888"/>
			<line x1="1116" y1="3261" x2="1116" y2="0"/>
			<path d="M1117,1906L1117,1906" tabindex="0">
				<title>00:13.55 on 2021-03-27</title>
			</path>
			<line x1="0" y1="1906" x2="2190" y2="1906"/>
			<line x1="1117" y1="3261" x2="1117" y2="0"/>
		</g>
		<g style="--index: 6;">
			<path d="M990,1654L1049,1654L1049,1818L1051,1818L1051,1838" tabindex="0">
				<title>x7q00668</title>
			</path>
			<rect x="990" y="1654" width="61" height="184"/>
			<path d="M990,1654L990,1654" tabindex="0">
				<title>00:16.07 on 2020-11-20</title>
			</path>
			<line x1="0" y1="1654" x2="2190" y2="1654"/>
			<line x1="990" y1="3261" x2="990" y2="0"/>
			<path d="M1049,1818L1049,1818" tabindex="0">
				<title>00:14.43 on 2021-01-18</title>
			</path>
			<line x1="0" y1="1818" x2="2190" y2="1818"/>
			<line x1="1049" y1="3261" x2="1049" y2="0"/>
			<path d="M1051,1838L1051,1838" tabindex="0">
				<title>00:14.23 on 2021-01-20</title>
			</path>
			<line x1="0" y1="1838" x2="2190" y2="1838"/>
			<line x1="1051" y1="3261" x2="1051" y2="0"/>
		</g>
		<g style="--index: 7;">
			<path d="M995,1190" tabindex="0">
				<title>jn3kw0wx</title>
			</path>
			<rect x="995" y="1190" width="0" height="0"/>
			<path d="M995,1190L995,1190" tabindex="0">
				<title>00:20.71 on 2020-11-25</title>
			</path>
			<line x1="0" y1="1190" x2="2190" y2="1190"/>
			<line x1="995" y1="3261" x2="995" y2="0"/>
		</g>
		<g style="--index: 8;">
			<path d="M1020,1679L1047,1679L1047,1813L1051,1813L1051,1857L1081,1857L1081,1876" tabindex="0">
				<title>814zn7l8</title>
			</path>
			<rect x="1020" y="1679" width="61" height="197"/>
			<path d="M1020,1679L1020,1679" tabindex="0">
				<title>00:15.82 on 2020-12-20</title>
			</path>
			<line x1="0" y1="1679" x2="2190" y2="1679"/>
			<line x1="1020" y1="3261" x2="1020" y2="0"/>
			<path d="M1047,1813L1047,1813" tabindex="0">
				<title>00:14.48 on 2021-01-16</title>
			</path>
			<line x1="0" y1="1813" x2="2190" y2="1813"/>
			<line x1="1047" y1="3261" x2="1047" y2="0"/>
			<path d="M1051,1857L1051,1857" tabindex="0">
				<title>00:14.04 on 2021-01-20</title>
			</path>
			<line x1="0" y1="1857" x2="2190" y2="1857"/>
			<line x1="1051" y1="3261" x2="1051" y2="0"/>
			<path d="M1081,1876L1081,1876" tabindex="0">
				<title>00:13.85 on 2021-02-19</title>
			</path>
			<line x1="0" y1="1876" x2="2190" y2="1876"/>
			<line x1="1081" y1="3261" x2="1081" y2="0"/>
		</g>
		<g style="--index: 9;">
			<path d="M1047,1585L1125,1585L1125,1622" tabindex="0">
				<title>j0np7or8</title>
			</path>
			<rect x="1047" y="1585" width="78" height="37"/>
			<path d="M1047,1585L1047,1585" tabindex="0">
				<title>00:16.76 on 2021-01-16</title>
			</path>
			<line x1="0" y1="1585" x2="2190" y2="1585"/>
			<line x1="1047" y1="3261" x2="1047" y2="0"/>
			<path d="M1125,1622L1125,1622" tabindex="0">
				<title>00:16.39 on 2021-04-04</title>
			</path>
			<line x1="0" y1="1622" x2="2190" y2="1622"/>
			<line x1="1125" y1="3261" x2="1125" y2="0"/>
		</g>
		<g style="--index: 10;">
			<path d="M1101,1888L1116,1888L1116,1905L1117,1905L1117,1918L1584,1918L1584,1970" tabindex="0">
				<title>j2yr9lp8</title>
			</path>
			<rect x="1101" y="1888" width="483" height="82"/>
			<path d="M1101,1888L1101,1888" tabindex="0">
				<title>00:13.73 on 2021-03-11</title>
			</path>
			<line x1="0" y1="1888" x2="2190" y2="1888"/>
			<line x1="1101" y1="3261" x2="1101" y2="0"/>
			<path d="M1116,1905L1116,1905" tabindex="0">
				<title>00:13.56 on 2021-03-26</title>
			</path>
			<line x1="0" y1="1905" x2="2190" y2="1905"/>
			<line x1="1116" y1="3261" x2="1116" y2="0"/>
			<path d="M1117,1918L1117,1918" tabindex="0">
				<title>00:13.43 on 2021-03-27</title>
			</path>
			<line x1="0" y1="1918" x2="2190" y2="1918"/>
			<line x1="1117" y1="3261" x2="1117" y2="0"/>
			<path d="M1584,1970L1584,1970" tabindex="0">
				<title>00:12.91 on 2022-07-07</title>
			</path>
			<line x1="0" y1="1970" x2="2190" y2="1970"/>
			<line x1="1584" y1="3261" x2="1584" y2="0"/>
		</g>
		<g style="--index: 11;">
			<path d="M1281,1479L1290,1479L1290,1600L1519,1600L1519,1665" tabindex="0">
				<title>j5vg1ez8</title>
			</path>
			<rect x="1281" y="1479" width="238" height="186"/>
			<path d="M1281,1479L1281,1479" tabindex="0">
				<title>00:17.82 on 2021-09-07</title>
			</path>
			<line x1="0" y1="1479" x2="2190" y2="1479"/>
			<line x1="1281" y1="3261" x2="1281" y2="0"/>
			<path d="M1290,1600L1290,1600" tabindex="0">
				<title>00:16.61 on 2021-09-16</title>
			</path>
			<line x1="0" y1="1600" x2="2190" y2="1600"/>
			<line x1="1290" y1="3261" x2="1290" y2="0"/>
			<path d="M1519,1665L1519,1665" tabindex="0">
				<title>00:15.96 on 2022-05-03</title>
			</path>
			<line x1="0" y1="1665" x2="2190" y2="1665"/>
			<line x1="1519" y1="3261" x2="1519" y2="0"/>
		</g>
		<g style="--index: 12;">
			<path d="M1586,1650L1645,1650L1645,1881L1678,1881L1678,1931" tabindex="0">
				<title>j4235d5x</title>
			</path>
			<rect x="1586" y="1650" width="92" height="281"/>
			<path d="M1586,1650L1586,1650" tabindex="0">
				<title>00:16.11 on 2022-07-09</title>
			</path>
			<line x1="0" y1="1650" x2="2190" y2="1650"/>
			<line x1="1586" y1="3261" x2="1586" y2="0"/>
			<path d="M1645,1881L1645,1881" tabindex="0">
				<title>00:13.80 on 2022-09-06</title>
			</path>
			<line x1="0" y1="1881" x2="2190" y2="1881"/>
			<line x1="1645" y1="3261" x2="1645" y2="0"/>
			<path d="M1678,1931L1678,1931" tabindex="0">
				<title>00:13.30 on 2022-10-09</title>
			</path>
			<line x1="0" y1="1931" x2="2190" y2="1931"/>
			<line x1="1678" y1="3261" x2="1678" y2="0"/>
		</g>
		<g style="--index: 13;">
			<path d="M1645,1921L1678,1921L1678,1933L1734,1933L1734,2005L1743,2005L1743,2050L1769,2050L1769,2057L1836,2057L1836,2062L1843,2062L1843,2066L1852,2066L1852,2090L1893,2090L1893,2113L2005,2113L2005,2116" tabindex="0">
				<title>jn2m23wj</title>
			</path>
			<rect x="1645" y="1921" width="360" height="195"/>
			<path d="M1645,1921L1645,1921" tabindex="0">
				<title>00:13.40 on 2022-09-06</title>
			</path>
			<line x1="0" y1="1921" x2="2190" y2="1921"/>
			<line x1="1645" y1="3261" x2="1645" y2="0"/>
			<path d="M1678,1933L1678,1933" tabindex="0">
				<title>00:13.28 on 2022-10-09</title>
			</path>
			<line x1="0" y1="1933" x2="2190" y2="1933"/>
			<line x1="1678" y1="3261" x2="1678" y2="0"/>
			<path d="M1734,2005L1734,2005" tabindex="0">
				<title>00:12.56 on 2022-12-04</title>
			</path>
			<line x1="0" y1="2005" x2="2190" y2="2005"/>
			<line x1="1734" y1="3261" x2="1734" y2="0"/>
			<path d="M1743,2050L1743,2050" tabindex="0">
				<title>00:12.11 on 2022-12-13</title>
			</path>
			<line x1="0" y1="2050" x2="2190" y2="2050"/>
			<line x1="1743" y1="3261" x2="1743" y2="0"/>
			<path d="M1769,2057L1769,2057" tabindex="0">
				<title>00:12.04 on 2023-01-08</title>
			</path>
			<line x1="0" y1="2057" x2="2190" y2="2057"/>
			<line x1="1769" y1="3261" x2="1769" y2="0"/>
			<path d="M1836,2062L1836,2062" tabindex="0">
				<title>00:11.99 on 2023-03-16</title>
			</path>
			<line x1="0" y1="2062" x2="2190" y2="2062"/>
			<line x1="1836" y1="3261" x2="1836" y2="0"/>
			<path d="M1843,2066L1843,2066" tabindex="0">
				<title>00:11.95 on 2023-03-23</title>
			</path>
			<line x1="0" y1="2066" x2="2190" y2="2066"/>
			<line x1="1843" y1="3261" x2="1843" y2="0"/>
			<path d="M1852,2090L1852,2090" tabindex="0">
				<title>00:11.71 on 2023-04-01</title>
			</path>
			<line x1="0" y1="2090" x2="2190" y2="2090"/>
			<line x1="1852" y1="3261" x2="1852" y2="0"/>
			<path d="M1893,2113L1893,2113" tabindex="0">
				<title>00:11.48 on 2023-05-12</title>
			</path>
			<line x1="0" y1="2113" x2="2190" y2="2113"/>
			<line x1="1893" y1="3261" x2="1893" y2="0"/>
			<path d="M2005,2116L2005,2116" tabindex="0">
				<title>00:11.45 on 2023-09-01</title>
			</path>
			<line x1="0" y1="2116" x2="2190" y2="2116"/>
			<line x1="2005" y1="3261" x2="2005" y2="0"/>
		</g>
		<g style="--index: 14;">
			<path d="M1672,1439" tabindex="0">
				<title>xk1oze6j</title>
			</path>
			<rect x="1672" y="1439" width="0" height="0"/>
			<path d="M1672,1439L1672,1439" tabindex="0">
				<title>00:18.22 on 2022-10-03</title>
			</path>
			<line x1="0" y1="1439" x2="2190" y2="1439"/>
			<line x1="1672" y1="3261" x2="1672" y2="0"/>
		</g>
		<g style="--index: 15;">
			<path d="M1741,1384" tabindex="0">
				<title>8lonqn28</title>
			</path>
			<rect x="1741" y="1384" width="0" height="0"/>
			<path d="M1741,1384L1741,1384" tabindex="0">
				<title>00:18.77 on 2022-12-11</title>
			</path>
			<line x1="0" y1="1384" x2="2190" y2="1384"/>
			<line x1="1741" y1="3261" x2="1741" y2="0"/>
		</g>
		<g style="--index: 16;">
			<path d="M1852,1399" tabindex="0">
				<title>j20zyvpx</title>
			</path>
			<rect x="1852" y="1399" width="0" height="0"/>
			<path d="M1852,1399L1852,1399" tabindex="0">
				<title>00:18.62 on 2023-04-01</title>
			</path>
			<line x1="0" y1="1399" x2="2190" y2="1399"/>
			<line x1="1852" y1="3261" x2="1852" y2="0"/>
		</g>
		<g style="--index: 17;">
			<path d="M1908,1895" tabindex="0">
				<title>x3wdlvkj</title>
			</path>
			<rect x="1908" y="1895" width="0" height="0"/>
			<path d="M1908,1895L1908,1895" tabindex="0">
				<title>00:13.66 on 2023-05-27</title>
			</path>
			<line x1="0" y1="1895" x2="2190" y2="1895"/>
			<line x1="1908" y1="3261" x2="1908" y2="0"/>
		</g>
		<g style="--index: 18;">
			<path d="M1926,0" tabindex="0">
				<title>jp65w608</title>
			</path>
			<rect x="1926" y="0" width="0" height="0"/>
			<path d="M1926,0L1926,0" tabindex="0">
				<title>00:32.61 on 2023-06-14</title>
			</path>
			<line x1="0" y1="0" x2="2190" y2="0"/>
			<line x1="1926" y1="3261" x2="1926" y2="0"/>
		</g>
		<g style="--index: 19;">
			<path d="M1993,962" tabindex="0">
				<title>jng9el48</title>
			</path>
			<rect x="1993" y="962" width="0" height="0"/>
			<path d="M1993,962L1993,962" tabindex="0">
				<title>00:22.99 on 2023-08-20</title>
			</path>
			<line x1="0" y1="962" x2="2190" y2="962"/>
			<line x1="1993" y1="3261" x2="1993" y2="0"/>
		</g>
		<g style="--index: 20;">
			<path d="M2032,1173" tabindex="0">
				<title>j59qvzzx</title>
			</path>
			<rect x="2032" y="1173" width="0" height="0"/>
			<path d="M2032,1173L2032,1173" tabindex="0">
				<title>00:20.88 on 2023-09-28</title>
			</path>
			<line x1="0" y1="1173" x2="2190" y2="1173"/>
			<line x1="2032" y1="3261" x2="2032" y2="0"/>
		</g>
		<g style="--index: 21;">
			<path d="M2190,1360" tabindex="0">
				<title>8w3l21qj</title>
			</path>
			<rect x="2190" y="1360" width="0" height="0"/>
			<path d="M2190,1360L2190,1360" tabindex="0">
				<title>00:19.01 on 2024-03-04</title>
			</path>
			<line x1="0" y1="1360" x2="2190" y2="1360"/>
			<line x1="2190" y1="3261" x2="2190" y2="0"/>
		</g>
	</g>
</svg>
