<svg xmlns="http://www.w3.org/2000/svg" viewBox="0 0 2246 2082" preserveAspectRatio="none" lang="en" style="color-scheme: dark light;">
		<title>Time by player for leaderboard l_o9xo3rp9-9d8eewld-7896y468.jq60ze3q</title>
		<style>
			svg {
				background: var(--canvas-background);
				fill: var(--canvas-background);
				stroke: var(--canvas-foreground);
				stroke-linejoin: round;
				stroke-linecap: round;
			}
			g &gt; path[tabindex] {
				vector-effect: non-scaling-stroke;
				fill: none;
				stroke: hsl(calc(var(--index) / var(--count) * 360), 50%, 50%);
				cursor: help;
			}
			g:is(:hover, :focus-within) &gt; path[tabindex] {
				stroke: var(--canvas-foreground);
			}
			g &gt; path[tabindex]:is(:hover, :focus-within) {
				outline: 0;
			}
			g &gt; path[tabindex]:first-of-type {
				stroke-width: 2;
			}
			g &gt; path[tabindex]:first-of-type:is(:hover, :focus-within) {
				stroke-width: 4;
			}
			g &gt; path[tabindex]:first-of-type:not(:last-of-type) {
				stroke-dasharray: 4 8;
			}
			g &gt; rect {
				vector-effect: non-scaling-stroke;
				fill: none;
				stroke: none;
				pointer-events: none;
			}
			g &gt; path[tabindex]:first-of-type:is(:hover, :focus-within) + rect {
				fill: var(--highlighted);
			}
			g &gt; path[tabindex]:first-of-type ~ path[tabindex] {
				stroke-width: 8;
			}
			g &gt; path[tabindex]:first-of-type ~ path[tabindex]:is(:hover, :focus-within) {
				stroke-width: 16;
			}
			g &gt; line {
				vector-effect: non-scaling-stroke;
				fill: none;
				stroke: none;
				stroke-width: 2;
				stroke-dasharray: 4 8;
				pointer-events: none;
			}
			g &gt; path[tabindex]:first-of-type:is(:hover, :focus-within) + rect + path[tabindex] + line,
			g &gt; path[tabindex]:first-of-type:is(:hover, :focus-within) + rect + path[tabindex] + line + line,
			g &gt; path[tabindex]:first-of-type:is(:hover, :focus-within) ~ path[tabindex]:last-of-type + line,
			g &gt; path[tabindex]:first-of-type:is(:hover, :focus-within) ~ path[tabindex]:last-of-type + line + line,
			g &gt; path[tabindex]:first-of-type ~ path[tabindex]:is(:hover, :focus-within) + line,
			g &gt; path[tabindex]:first-of-type ~ path[tabindex]:is(:hover, :focus-within) + line + line {
				stroke: var(--faded);
			}
			@media (prefers-color-scheme: dark) {
				:root {
					--canvas-background: #000;
					--canvas-foreground: #ccc;
					--highlighted: #6663;
					--faded: #9993;
				}
			}
			@media (prefers-color-scheme: light) {
				:root {
					--canvas-background: #fff;
					--canvas-foreground: #333;
					--highlighted: #9993;
					--faded: #6663;
				}
			}
		</style>
		<g transform="scale(1 -1)" transform-origin="center center" style="--count: 37;">
		<g style="--index: 0;">
			<path d="M0,1886L30,1886L30,1841" tabindex="0">
				<title>qj2pq1p8</title>
			</path>
			<rect x="0" y="1841" width="30" height="45"/>
			<path d="M0,1886L0,1886" tabindex="0">
				<title>00:18.86 on 2018-01-09</title>
			</path>
			<line x1="0" y1="1886" x2="2246" y2="1886"/>
			<line x1="0" y1="0" x2="0" y2="2082"/>
			<path d="M30,1841L30,1841" tabindex="0">
				<title>00:18.41 on 2018-02-08</title>
			</path>
			<line x1="0" y1="1841" x2="2246" y2="1841"/>
			<line x1="30" y1="0" x2="30" y2="2082"/>
		</g>
		<g style="--index: 1;">
			<path d="M4,1853" tabindex="0">
				<title>5j5gggn8</title>
			</path>
			<rect x="4" y="1853" width="0" height="0"/>
			<path d="M4,1853L4,1853" tabindex="0">
				<title>00:18.53 on 2018-01-13</title>
			</path>
			<line x1="0" y1="1853" x2="2246" y2="1853"/>
			<line x1="4" y1="0" x2="4" y2="2082"/>
		</g>
		<g style="--index: 2;">
			<path d="M72,1864" tabindex="0">
				<title>18qg9ndx</title>
			</path>
			<rect x="72" y="1864" width="0" height="0"/>
			<path d="M72,1864L72,1864" tabindex="0">
				<title>00:18.64 on 2018-03-22</title>
			</path>
			<line x1="0" y1="1864" x2="2246" y2="1864"/>
			<line x1="72" y1="0" x2="72" y2="2082"/>
		</g>
		<g style="--index: 3;">
			<path d="M102,1639L964,1639L964,986" tabindex="0">
				<title>y8dgoe98</title>
			</path>
			<rect x="102" y="986" width="862" height="653"/>
			<path d="M102,1639L102,1639" tabindex="0">
				<title>00:16.39 on 2018-04-21</title>
			</path>
			<line x1="0" y1="1639" x2="2246" y2="1639"/>
			<line x1="102" y1="0" x2="102" y2="2082"/>
			<path d="M964,986L964,986" tabindex="0">
				<title>00:09.86 on 2020-08-30</title>
			</path>
			<line x1="0" y1="986" x2="2246" y2="986"/>
			<line x1="964" y1="0" x2="964" y2="2082"/>
		</g>
		<g style="--index: 4;">
			<path d="M594,2082" tabindex="0">
				<title>j9rlkzoj</title>
			</path>
			<rect x="594" y="2082" width="0" height="0"/>
			<path d="M594,2082L594,2082" tabindex="0">
				<title>00:20.82 on 2019-08-26</title>
			</path>
			<line x1="0" y1="2082" x2="2246" y2="2082"/>
			<line x1="594" y1="0" x2="594" y2="2082"/>
		</g>
		<g style="--index: 5;">
			<path d="M839,1091L869,1091L869,1057" tabindex="0">
				<title>x356nrej</title>
			</path>
			<rect x="839" y="1057" width="30" height="34"/>
			<path d="M839,1091L839,1091" tabindex="0">
				<title>00:10.91 on 2020-04-27</title>
			</path>
			<line x1="0" y1="1091" x2="2246" y2="1091"/>
			<line x1="839" y1="0" x2="839" y2="2082"/>
			<path d="M869,1057L869,1057" tabindex="0">
				<title>00:10.57 on 2020-05-27</title>
			</path>
			<line x1="0" y1="1057" x2="2246" y2="1057"/>
			<line x1="869" y1="0" x2="869" y2="2082"/>
		</g>
		<g style="--index: 6;">
			<path d="M841,1630L846,1630L846,1481" tabindex="0">
				<title>8146r4r8</title>
			</path>
			<rect x="841" y="1481" width="5" height="149"/>
			<path d="M841,1630L841,1630" tabindex="0">
				<title>00:16.30 on 2020-04-29</title>
			</path>
			<line x1="0" y1="1630" x2="2246" y2="1630"/>
			<line x1="841" y1="0" x2="841" y2="2082"/>
			<path d="M846,1481L846,1481" tabindex="0">
				<title>00:14.81 on 2020-05-04</title>
			</path>
			<line x1="0" y1="1481" x2="2246" y2="1481"/>
			<line x1="846" y1="0" x2="846" y2="2082"/>
		</g>
		<g style="--index: 7;">
			<path d="M845,1601" tabindex="0">
				<title>xy5q62n8</title>
			</path>
			<rect x="845" y="1601" width="0" height="0"/>
			<path d="M845,1601L845,1601" tabindex="0">
				<title>00:16.01 on 2020-05-03</title>
			</path>
			<line x1="0" y1="1601" x2="2246" y2="1601"/>
			<line x1="845" y1="0" x2="845" y2="2082"/>
		</g>
		<g style="--index: 8;">
			<path d="M859,1258" tabindex="0">
				<title>xz9y0z08</title>
			</path>
			<rect x="859" y="1258" width="0" height="0"/>
			<path d="M859,1258L859,1258" tabindex="0">
				<title>00:12.58 on 2020-05-17</title>
			</path>
			<line x1="0" y1="1258" x2="2246" y2="1258"/>
			<line x1="859" y1="0" x2="859" y2="2082"/>
		</g>
		<g style="--index: 9;">
			<path d="M950,1558" tabindex="0">
				<title>86vm1mqj</title>
			</path>
			<rect x="950" y="1558" width="0" height="0"/>
			<path d="M950,1558L950,1558" tabindex="0">
				<title>00:15.58 on 2020-08-16</title>
			</path>
			<line x1="0" y1="1558" x2="2246" y2="1558"/>
			<line x1="950" y1="0" x2="950" y2="2082"/>
		</g>
		<g style="--index: 10;">
			<path d="M976,1047" tabindex="0">
				<title>jmo50gy8</title>
			</path>
			<rect x="976" y="1047" width="0" height="0"/>
			<path d="M976,1047L976,1047" tabindex="0">
				<title>00:10.47 on 2020-09-11</title>
			</path>
			<line x1="0" y1="1047" x2="2246" y2="1047"/>
			<line x1="976" y1="0" x2="976" y2="2082"/>
		</g>
		<g style="--index: 11;">
			<path d="M1026,975L1070,975L1070,890L1111,890L1111,856" tabindex="0">
				<title>xkon93k8</title>
			</path>
			<rect x="1026" y="856" width="85" height="119"/>
			<path d="M1026,975L1026,975" tabindex="0">
				<title>00:09.75 on 2020-10-31</title>
			</path>
			<line x1="0" y1="975" x2="2246" y2="975"/>
			<line x1="1026" y1="0" x2="1026" y2="2082"/>
			<path d="M1070,890L1070,890" tabindex="0">
				<title>00:08.90 on 2020-12-14</title>
			</path>
			<line x1="0" y1="890" x2="2246" y2="890"/>
			<line x1="1070" y1="0" x2="1070" y2="2082"/>
			<path d="M1111,856L1111,856" tabindex="0">
				<title>00:08.56 on 2021-01-24</title>
			</path>
			<line x1="0" y1="856" x2="2246" y2="856"/>
			<line x1="1111" y1="0" x2="1111" y2="2082"/>
		</g>
		<g style="--index: 12;">
			<path d="M1044,1328" tabindex="0">
				<title>j0np7or8</title>
			</path>
			<rect x="1044" y="1328" width="0" height="0"/>
			<path d="M1044,1328L1044,1328" tabindex="0">
				<title>00:13.28 on 2020-11-18</title>
			</path>
			<line x1="0" y1="1328" x2="2246" y2="1328"/>
			<line x1="1044" y1="0" x2="1044" y2="2082"/>
		</g>
		<g style="--index: 13;">
			<path d="M1046,924L1181,924L1181,831" tabindex="0">
				<title>j2yr9lp8</title>
			</path>
			<rect x="1046" y="831" width="135" height="93"/>
			<path d="M1046,924L1046,924" tabindex="0">
				<title>00:09.24 on 2020-11-20</title>
			</path>
			<line x1="0" y1="924" x2="2246" y2="924"/>
			<line x1="1046" y1="0" x2="1046" y2="2082"/>
			<path d="M1181,831L1181,831" tabindex="0">
				<title>00:08.31 on 2021-04-04</title>
			</path>
			<line x1="0" y1="831" x2="2246" y2="831"/>
			<line x1="1181" y1="0" x2="1181" y2="2082"/>
		</g>
		<g style="--index: 14;">
			<path d="M1051,1227" tabindex="0">
				<title>jn3kw0wx</title>
			</path>
			<rect x="1051" y="1227" width="0" height="0"/>
			<path d="M1051,1227L1051,1227" tabindex="0">
				<title>00:12.27 on 2020-11-25</title>
			</path>
			<line x1="0" y1="1227" x2="2246" y2="1227"/>
			<line x1="1051" y1="0" x2="1051" y2="2082"/>
		</g>
		<g style="--index: 15;">
			<path d="M1053,1292L1071,1292L1071,944L1273,944L1273,882" tabindex="0">
				<title>x7q00668</title>
			</path>
			<rect x="1053" y="882" width="220" height="410"/>
			<path d="M1053,1292L1053,1292" tabindex="0">
				<title>00:12.92 on 2020-11-27</title>
			</path>
			<line x1="0" y1="1292" x2="2246" y2="1292"/>
			<line x1="1053" y1="0" x2="1053" y2="2082"/>
			<path d="M1071,944L1071,944" tabindex="0">
				<title>00:09.44 on 2020-12-15</title>
			</path>
			<line x1="0" y1="944" x2="2246" y2="944"/>
			<line x1="1071" y1="0" x2="1071" y2="2082"/>
			<path d="M1273,882L1273,882" tabindex="0">
				<title>00:08.82 on 2021-07-05</title>
			</path>
			<line x1="0" y1="882" x2="2246" y2="882"/>
			<line x1="1273" y1="0" x2="1273" y2="2082"/>
		</g>
		<g style="--index: 16;">
			<path d="M1102,864" tabindex="0">
				<title>814zn7l8</title>
			</path>
			<rect x="1102" y="864" width="0" height="0"/>
			<path d="M1102,864L1102,864" tabindex="0">
				<title>00:08.64 on 2021-01-15</title>
			</path>
			<line x1="0" y1="864" x2="2246" y2="864"/>
			<line x1="1102" y1="0" x2="1102" y2="2082"/>
		</g>
		<g style="--index: 17;">
			<path d="M1149,1755" tabindex="0">
				<title>8grypo7x</title>
			</path>
			<rect x="1149" y="1755" width="0" height="0"/>
			<path d="M1149,1755L1149,1755" tabindex="0">
				<title>00:17.55 on 2021-03-03</title>
			</path>
			<line x1="0" y1="1755" x2="2246" y2="1755"/>
			<line x1="1149" y1="0" x2="1149" y2="2082"/>
		</g>
		<g style="--index: 18;">
			<path d="M1393,1315L1420,1315L1420,1256" tabindex="0">
				<title>j5vg1ez8</title>
			</path>
			<rect x="1393" y="1256" width="27" height="59"/>
			<path d="M1393,1315L1393,1315" tabindex="0">
				<title>00:13.15 on 2021-11-02</title>
			</path>
			<line x1="0" y1="1315" x2="2246" y2="1315"/>
			<line x1="1393" y1="0" x2="1393" y2="2082"/>
			<path d="M1420,1256L1420,1256" tabindex="0">
				<title>00:12.56 on 2021-11-29</title>
			</path>
			<line x1="0" y1="1256" x2="2246" y2="1256"/>
			<line x1="1420" y1="0" x2="1420" y2="2082"/>
		</g>
		<g style="--index: 19;">
			<path d="M1451,1555" tabindex="0">
				<title>jpm0rokj</title>
			</path>
			<rect x="1451" y="1555" width="0" height="0"/>
			<path d="M1451,1555L1451,1555" tabindex="0">
				<title>00:15.55 on 2021-12-30</title>
			</path>
			<line x1="0" y1="1555" x2="2246" y2="1555"/>
			<line x1="1451" y1="0" x2="1451" y2="2082"/>
		</g>
		<g style="--index: 20;">
			<path d="M1636,1552" tabindex="0">
				<title>joovynnj</title>
			</path>
			<rect x="1636" y="1552" width="0" height="0"/>
			<path d="M1636,1552L1636,1552" tabindex="0">
				<title>00:15.52 on 2022-07-03</title>
			</path>
			<line x1="0" y1="1552" x2="2246" y2="1552"/>
			<line x1="1636" y1="0" x2="1636" y2="2082"/>
		</g>
		<g style="--index: 21;">
			<path d="M1642,1144" tabindex="0">
				<title>j4235d5x</title>
			</path>
			<rect x="1642" y="1144" width="0" height="0"/>
			<path d="M1642,1144L1642,1144" tabindex="0">
				<title>00:11.44 on 2022-07-09</title>
			</path>
			<line x1="0" y1="1144" x2="2246" y2="1144"/>
			<line x1="1642" y1="0" x2="1642" y2="2082"/>
		</g>
		<g style="--index: 22;">
			<path d="M1662,1559" tabindex="0">
				<title>jm3nrmo8</title>
			</path>
			<rect x="1662" y="1559" width="0" height="0"/>
			<path d="M1662,1559L1662,1559" tabindex="0">
				<title>00:15.59 on 2022-07-29</title>
			</path>
			<line x1="0" y1="1559" x2="2246" y2="1559"/>
			<line x1="1662" y1="0" x2="1662" y2="2082"/>
		</g>
		<g style="--index: 23;">
			<path d="M1692,1475" tabindex="0">
				<title>8rl7w568</title>
			</path>
			<rect x="1692" y="1475" width="0" height="0"/>
			<path d="M1692,1475L1692,1475" tabindex="0">
				<title>00:14.75 on 2022-08-28</title>
			</path>
			<line x1="0" y1="1475" x2="2246" y2="1475"/>
			<line x1="1692" y1="0" x2="1692" y2="2082"/>
		</g>
		<g style="--index: 24;">
			<path d="M1714,1777" tabindex="0">
				<title>8w00vw4j</title>
			</path>
			<rect x="1714" y="1777" width="0" height="0"/>
			<path d="M1714,1777L1714,1777" tabindex="0">
				<title>00:17.77 on 2022-09-19</title>
			</path>
			<line x1="0" y1="1777" x2="2246" y2="1777"/>
			<line x1="1714" y1="0" x2="1714" y2="2082"/>
		</g>
		<g style="--index: 25;">
			<path d="M1716,1065" tabindex="0">
				<title>xz00rqe8</title>
			</path>
			<rect x="1716" y="1065" width="0" height="0"/>
			<path d="M1716,1065L1716,1065" tabindex="0">
				<title>00:10.65 on 2022-09-21</title>
			</path>
			<line x1="0" y1="1065" x2="2246" y2="1065"/>
			<line x1="1716" y1="0" x2="1716" y2="2082"/>
		</g>
		<g style="--index: 26;">
			<path d="M1730,1189" tabindex="0">
				<title>xk1oze6j</title>
			</path>
			<rect x="1730" y="1189" width="0" height="0"/>
			<path d="M1730,1189L1730,1189" tabindex="0">
				<title>00:11.89 on 2022-10-05</title>
			</path>
			<line x1="0" y1="1189" x2="2246" y2="1189"/>
			<line x1="1730" y1="0" x2="1730" y2="2082"/>
		</g>
		<g style="--index: 27;">
			<path d="M1796,1175" tabindex="0">
				<title>8g0ezgyx</title>
			</path>
			<rect x="1796" y="1175" width="0" height="0"/>
			<path d="M1796,1175L1796,1175" tabindex="0">
				<title>00:11.75 on 2022-12-10</title>
			</path>
			<line x1="0" y1="1175" x2="2246" y2="1175"/>
			<line x1="1796" y1="0" x2="1796" y2="2082"/>
		</g>
		<g style="--index: 28;">
			<path d="M1827,825L1877,825L1877,811L1981,811L1981,795" tabindex="0">
				<title>jn2m23wj</title>
			</path>
			<rect x="1827" y="795" width="154" height="30"/>
			<path d="M1827,825L1827,825" tabindex="0">
				<title>00:08.25 on 2023-01-10</title>
			</path>
			<line x1="0" y1="825" x2="2246" y2="825"/>
			<line x1="1827" y1="0" x2="1827" y2="2082"/>
			<path d="M1877,811L1877,811" tabindex="0">
				<title>00:08.11 on 2023-03-01</title>
			</path>
			<line x1="0" y1="811" x2="2246" y2="811"/>
			<line x1="1877" y1="0" x2="1877" y2="2082"/>
			<path d="M1981,795L1981,795" tabindex="0">
				<title>00:07.95 on 2023-06-13</title>
			</path>
			<line x1="0" y1="795" x2="2246" y2="795"/>
			<line x1="1981" y1="0" x2="1981" y2="2082"/>
		</g>
		<g style="--index: 29;">
			<path d="M1829,1531" tabindex="0">
				<title>810yp1px</title>
			</path>
			<rect x="1829" y="1531" width="0" height="0"/>
			<path d="M1829,1531L1829,1531" tabindex="0">
				<title>00:15.31 on 2023-01-12</title>
			</path>
			<line x1="0" y1="1531" x2="2246" y2="1531"/>
			<line x1="1829" y1="0" x2="1829" y2="2082"/>
		</g>
		<g style="--index: 30;">
			<path d="M1913,1092" tabindex="0">
				<title>j9pkl7vx</title>
			</path>
			<rect x="1913" y="1092" width="0" height="0"/>
			<path d="M1913,1092L1913,1092" tabindex="0">
				<title>00:10.92 on 2023-04-06</title>
			</path>
			<line x1="0" y1="1092" x2="2246" y2="1092"/>
			<line x1="1913" y1="0" x2="1913" y2="2082"/>
		</g>
		<g style="--index: 31;">
			<path d="M1938,1510" tabindex="0">
				<title>8ew394p8</title>
			</path>
			<rect x="1938" y="1510" width="0" height="0"/>
			<path d="M1938,1510L1938,1510" tabindex="0">
				<title>00:15.10 on 2023-05-01</title>
			</path>
			<line x1="0" y1="1510" x2="2246" y2="1510"/>
			<line x1="1938" y1="0" x2="1938" y2="2082"/>
		</g>
		<g style="--index: 32;">
			<path d="M2058,1472" tabindex="0">
				<title>8eek2l78</title>
			</path>
			<rect x="2058" y="1472" width="0" height="0"/>
			<path d="M2058,1472L2058,1472" tabindex="0">
				<title>00:14.72 on 2023-08-29</title>
			</path>
			<line x1="0" y1="1472" x2="2246" y2="1472"/>
			<line x1="2058" y1="0" x2="2058" y2="2082"/>
		</g>
		<g style="--index: 33;">
			<path d="M2075,1623" tabindex="0">
				<title>xkp1dv9j</title>
			</path>
			<rect x="2075" y="1623" width="0" height="0"/>
			<path d="M2075,1623L2075,1623" tabindex="0">
				<title>00:16.23 on 2023-09-15</title>
			</path>
			<line x1="0" y1="1623" x2="2246" y2="1623"/>
			<line x1="2075" y1="0" x2="2075" y2="2082"/>
		</g>
		<g style="--index: 34;">
			<path d="M2118,1643" tabindex="0">
				<title>jp6yqok8</title>
			</path>
			<rect x="2118" y="1643" width="0" height="0"/>
			<path d="M2118,1643L2118,1643" tabindex="0">
				<title>00:16.43 on 2023-10-28</title>
			</path>
			<line x1="0" y1="1643" x2="2246" y2="1643"/>
			<line x1="2118" y1="0" x2="2118" y2="2082"/>
		</g>
		<g style="--index: 35;">
			<path d="M2172,1043" tabindex="0">
				<title>j06ll3wj</title>
			</path>
			<rect x="2172" y="1043" width="0" height="0"/>
			<path d="M2172,1043L2172,1043" tabindex="0">
				<title>00:10.43 on 2023-12-21</title>
			</path>
			<line x1="0" y1="1043" x2="2246" y2="1043"/>
			<line x1="2172" y1="0" x2="2172" y2="2082"/>
		</g>
		<g style="--index: 36;">
			<path d="M2246,1688" tabindex="0">
				<title>8w3l21qj</title>
			</path>
			<rect x="2246" y="1688" width="0" height="0"/>
			<path d="M2246,1688L2246,1688" tabindex="0">
				<title>00:16.88 on 2024-03-04</title>
			</path>
			<line x1="0" y1="1688" x2="2246" y2="1688"/>
			<line x1="2246" y1="0" x2="2246" y2="2082"/>
		</g>
	</g>
</svg>
