<svg xmlns="http://www.w3.org/2000/svg" viewBox="0 0 2246 2082" preserveAspectRatio="none" lang="en" style="color-scheme: dark light;">
		<title>Time by player for leaderboard l_o9xo3rp9-9d8eewld-7896y468.jq60ze3q</title>
		<style>
			svg {
				background: var(--canvas-background);
				fill: var(--canvas-background);
				stroke: var(--canvas-foreground);
				stroke-linejoin: round;
				stroke-linecap: round;
			}
			g &gt; path[tabindex] {
				vector-effect: non-scaling-stroke;
				fill: none;
				stroke: hsl(calc(var(--index) / var(--count) * 360), 50%, 50%);
				cursor: help;
			}
			g:is(:hover, :focus-within) &gt; path[tabindex] {
				stroke: var(--canvas-foreground);
			}
			g &gt; path[tabindex]:is(:hover, :focus-within) {
				outline: 0;
			}
			g &gt; path[tabindex]:first-of-type {
				stroke-width: 2;
			}
			g &gt; path[tabindex]:first-of-type:is(:hover, :focus-within) {
				stroke-width: 4;
			}
			g &gt; path[tabindex]:first-of-type:not(:last-of-type) {
				stroke-dasharray: 4 8;
			}
			g &gt; rect {
				vector-effect: non-scaling-stroke;
				fill: none;
				stroke: none;
				pointer-events: none;
			}
			g &gt; path[tabindex]:first-of-type:is(:hover, :focus-within) + rect {
				fill: var(--highlighted);
			}
			g &gt; path[tabindex]:first-of-type ~ path[tabindex] {
				stroke-width: 8;
			}
			g &gt; path[tabindex]:first-of-type ~ path[tabindex]:is(:hover, :focus-within) {
				stroke-width: 16;
			}
			g &gt; line {
				vector-effect: non-scaling-stroke;
				fill: none;
				stroke: none;
				stroke-width: 2;
				stroke-dasharray: 4 8;
				pointer-events: none;
			}
			g &gt; path[tabindex]:first-of-type:is(:hover, :focus-within) + rect + path[tabindex] + line,
			g &gt; path[tabindex]:first-of-type:is(:hover, :focus-within) + rect + path[tabindex] + line + line,
			g &gt; path[tabindex]:first-of-type:is(:hover, :focus-within) ~ path[tabindex]:last-of-type + line,
			g &gt; path[tabindex]:first-of-type:is(:hover, :focus-within) ~ path[tabindex]:last-of-type + line + line,
			g &gt; path[tabindex]:first-of-type ~ path[tabindex]:is(:hover, :focus-within) + line,
			g &gt; path[tabindex]:first-of-type ~ path[tabindex]:is(:hover, :focus-within) + line + line {
				stroke: var(--faded);
			}
			@media (prefers-color-scheme: dark) {
				:root {
					--canvas-background: #000;
					--canvas-foreground: #ccc;
					--highlighted: #6663;
					--faded: #9993;
				}
			}
			@media (prefers-color-scheme: light) {
				:root {
					--canvas-background: #fff;
					--canvas-foreground: #333;
					--highlighted: #9993;
					--faded: #6663;
				}
			}
		</style>
		<g style="--count: 37;">
		<g style="--index: 0;">
			<path d="M0,196L30,196L30,241" tabindex="0">
				<title>qj2pq1p8</title>
			</path>
			<rect x="0" y="196" width="30" height="45"/>
			<path d="M0,196L0,196" tabindex="0">
				<title>00:18.86 on 2018-01-09</title>
			</path>
			<line x1="0" y1="196" x2="2246" y2="196"/>
			<line x1="0" y1="2082" x2="0" y2="0"/>
			<path d="M30,241L30,241" tabindex="0">
				<title>00:18.41 on 2018-02-08</title>
			</path>
			<line x1="0" y1="241" x2="2246" y2="241"/>
			<line x1="30" y1="2082" x2="30" y2="0"/>
		</g>
		<g style="--index: 1;">
			<path d="M4,229" tabindex="0">
				<title>5j5gggn8</title>
			</path>
			<rect x="4" y="229" width="0" height="0"/>
			<path d="M4,229L4,229" tabindex="0">
				<title>00:18.53 on 2018-01-13</title>
			</path>
			<line x1="0" y1="229" x2="2246" y2="229"/>
			<line x1="4" y1="2082" x2="4" y2="0"/>
		</g>
		<g style="--index: 2;">
			<path d="M72,218" tabindex="0">
				<title>18qg9ndx</title>
			</path>
			<rect x="72" y="218" width="0" height="0"/>
			<path d="M72,218L72,218" tabindex="0">
				<title>00:18.64 on 2018-03-22</title>
			</path>
			<line x1="0" y1="218" x2="2246" y2="218"/>
			<line x1="72" y1="2082" x2="72" y2="0"/>
		</g>
		<g style="--index: 3;">
			<path d="M102,443L964,443L964,1096" tabindex="0">
				<title>y8dgoe98</title>
			</path>
			<rect x="102" y="443" width="862" height="653"/>
			<path d="M102,443L102,443" tabindex="0">
				<title>00:16.39 on 2018-04-21</title>
			</path>
			<line x1="0" y1="443" x2="2246" y2="443"/>
			<line x1="102" y1="2082" x2="102" y2="0"/>
			<path d="M964,1096L964,1096" tabindex="0">
				<title>00:09.86 on 2020-08-30</title>
			</path>
			<line x1="0" y1="1096" x2="2246" y2="1096"/>
			<line x1="964" y1="2082" x2="964" y2="0"/>
		</g>
		<g style="--index: 4;">
			<path d="M594,0" tabindex="0">
				<title>j9rlkzoj</title>
			</path>
			<rect x="594" y="0" width="0" height="0"/>
			<path d="M594,0L594,0" tabindex="0">
				<title>00:20.82 on 2019-08-26</title>
			</path>
			<line x1="0" y1="0" x2="2246" y2="0"/>
			<line x1="594" y1="2082" x2="594" y2="0"/>
		</g>
		<g style="--index: 5;">
			<path d="M839,991L869,991L869,1025" tabindex="0">
				<title>x356nrej</title>
			</path>
			<rect x="839" y="991" width="30" height="34"/>
			<path d="M839,991L839,991" tabindex="0">
				<title>00:10.91 on 2020-04-27</title>
			</path>
			<line x1="0" y1="991" x2="2246" y2="991"/>
			<line x1="839" y1="2082" x2="839" y2="0"/>
			<path d="M869,1025L869,1025" tabindex="0">
				<title>00:10.57 on 2020-05-27</title>
			</path>
			<line x1="0" y1="1025" x2="2246" y2="1025"/>
			<line x1="869" y1="2082" x2="869" y2="0"/>
		</g>
		<g style="--index: 6;">
			<path d="M841,452L846,452L846,601" tabindex="0">
				<title>8146r4r8</title>
			</path>
			<rect x="841" y="452" width="5" height="149"/>
			<path d="M841,452L841,452" tabindex="0">
				<title>00:16.30 on 2020-04-29</title>
			</path>
			<line x1="0" y1="452" x2="2246" y2="452"/>
			<line x1="841" y1="2082" x2="841" y2="0"/>
			<path d="M846,601L846,601" tabindex="0">
				<title>00:14.81 on 2020-05-04</title>
			</path>
			<line x1="0" y1="601" x2="2246" y2="601"/>
			<line x1="846" y1="2082" x2="846" y2="0"/>
		</g>
		<g style="--index: 7;">
			<path d="M845,481" tabindex="0">
				<title>xy5q62n8</title>
			</path>
			<rect x="845" y="481" width="0" height="0"/>
			<path d="M845,481L845,481" tabindex="0">
				<title>00:16.01 on 2020-05-03</title>
			</path>
			<line x1="0" y1="481" x2="2246" y2="481"/>
			<line x1="845" y1="2082" x2="845" y2="0"/>
		</g>
		<g style="--index: 8;">
			<path d="M859,824" tabindex="0">
				<title>xz9y0z08</title>
			</path>
			<rect x="859" y="824" width="0" height="0"/>
			<path d="M859,824L859,824" tabindex="0">
				<title>00:12.58 on 2020-05-17</title>
			</path>
			<line x1="0" y1="824" x2="2246" y2="824"/>
			<line x1="859" y1="2082" x2="859" y2="0"/>
		</g>
		<g style="--index: 9;">
			<path d="M950,524" tabindex="0">
				<title>86vm1mqj</title>
			</path>
			<rect x="950" y="524" width="0" height="0"/>
			<path d="M950,524L950,524" tabindex="0">
				<title>00:15.58 on 2020-08-16</title>
			</path>
			<line x1="0" y1="524" x2="2246" y2="524"/>
			<line x1="950" y1="2082" x2="950" y2="0"/>
		</g>
		<g style="--index: 10;">
			<path d="M976,1035" tabindex="0">
				<title>jmo50gy8</title>
			</path>
			<rect x="976" y="1035" width="0" height="0"/>
			<path d="M976,1035L976,1035" tabindex="0">
				<title>00:10.47 on 2020-09-11</title>
			</path>
			<line x1="0" y1="1035" x2="2246" y2="1035"/>
			<line x1="976" y1="2082" x2="976" y2="0"/>
		</g>
		<g style="--index: 11;">
			<path d="M1026,1107L1070,1107L1070,1192L1111,1192L1111,1226" tabindex="0">
				<title>xkon93k8</title>
			</path>
			<rect x="1026" y="1107" width="85" height="119"/>
			<path d="M1026,1107L1026,1107" tabindex="0">
				<title>00:09.75 on 2020-10-31</title>
			</path>
			<line x1="0" y1="1107" x2="2246" y2="1107"/>
			<line x1="1026" y1="2082" x2="1026" y2="0"/>
			<path d="M1070,1192L1070,1192" tabindex="0">
				<title>00:08.90 on 2020-12-14</title>
			</path>
			<line x1="0" y1="1192" x2="2246" y2="1192"/>
			<line x1="1070" y1="2082" x2="1070" y2="0"/>
			<path d="M1111,1226L1111,1226" tabindex="0">
				<title>00:08.56 on 2021-01-24</title>
			</path>
			<line x1="0" y1="1226" x2="2246" y2="1226"/>
			<line x1="1111" y1="2082" x2="1111" y2="0"/>
		</g>
		<g style="--index: 12;">
			<path d="M1044,754" tabindex="0">
				<title>j0np7or8</title>
			</path>
			<rect x="1044" y="754" width="0" height="0"/>
			<path d="M1044,754L1044,754" tabindex="0">
				<title>00:13.28 on 2020-11-18</title>
			</path>
			<line x1="0" y1="754" x2="2246" y2="754"/>
			<line x1="1044" y1="2082" x2="1044" y2="0"/>
		</g>
		<g style="--index: 13;">
			<path d="M1046,1158L1181,1158L1181,1251" tabindex="0">
				<title>j2yr9lp8</title>
			</path>
			<rect x="1046" y="1158" width="135" height="93"/>
			<path d="M1046,1158L1046,1158" tabindex="0">
				<title>00:09.24 on 2020-11-20</title>
			</path>
			<line x1="0" y1="1158" x2="2246" y2="1158"/>
			<line x1="1046" y1="2082" x2="1046" y2="0"/>
			<path d="M1181,1251L1181,1251" tabindex="0">
				<title>00:08.31 on 2021-04-04</title>
			</path>
			<line x1="0" y1="1251" x2="2246" y2="1251"/>
			<line x1="1181" y1="2082" x2="1181" y2="0"/>
		</g>
		<g style="--index: 14;">
			<path d="M1051,855" tabindex="0">
				<title>jn3kw0wx</title>
			</path>
			<rect x="1051" y="855" width="0" height="0"/>
			<path d="M1051,855L1051,855" tabindex="0">
				<title>00:12.27 on 2020-11-25</title>
			</path>
			<line x1="0" y1="855" x2="2246" y2="855"/>
			<line x1="1051" y1="2082" x2="1051" y2="0"/>
		</g>
		<g style="--index: 15;">
			<path d="M1053,790L1071,790L1071,1138L1273,1138L1273,1200" tabindex="0">
				<title>x7q00668</title>
			</path>
			<rect x="1053" y="790" width="220" height="410"/>
			<path d="M1053,790L1053,790" tabindex="0">
				<title>00:12.92 on 2020-11-27</title>
			</path>
			<line x1="0" y1="790" x2="2246" y2="790"/>
			<line x1="1053" y1="2082" x2="1053" y2="0"/>
			<path d="M1071,1138L1071,1138" tabindex="0">
				<title>00:09.44 on 2020-12-15</title>
			</path>
			<line x1="0" y1="1138" x2="2246" y2="1138"/>
			<line x1="1071" y1="2082" x2="1071" y2="0"/>
			<path d="M1273,1200L1273,1200" tabindex="0">
				<title>00:08.82 on 2021-07-05</title>
			</path>
			<line x1="0" y1="1200" x2="2246" y2="1200"/>
			<line x1="1273" y1="2082" x2="1273" y2="0"/>
		</g>
		<g style="--index: 16;">
			<path d="M1102,1218" tabindex="0">
				<title>814zn7l8</title>
			</path>
			<rect x="1102" y="1218" width="0" height="0"/>
			<path d="M1102,1218L1102,1218" tabindex="0">
				<title>00:08.64 on 2021-01-15</title>
			</path>
			<line x1="0" y1="1218" x2="2246" y2="1218"/>
			<line x1="1102" y1="2082" x2="1102" y2="0"/>
		</g>
		<g style="--index: 17;">
			<path d="M1149,327" tabindex="0">
				<title>8grypo7x</title>
			</path>
			<rect x="1149" y="327" width="0" height="0"/>
			<path d="M1149,327L1149,327" tabindex="0">
				<title>00:17.55 on 2021-03-03</title>
			</path>
			<line x1="0" y1="327" x2="2246" y2="327"/>
			<line x1="1149" y1="2082" x2="1149" y2="0"/>
		</g>
		<g style="--index: 18;">
			<path d="M1393,767L1420,767L1420,826" tabindex="0">
				<title>j5vg1ez8</title>
			</path>
			<rect x="1393" y="767" width="27" height="59"/>
			<path d="M1393,767L1393,767" tabindex="0">
				<title>00:13.15 on 2021-11-02</title>
			</path>
			<line x1="0" y1="767" x2="2246" y2="767"/>
			<line x1="1393" y1="2082" x2="1393" y2="0"/>
			<path d="M1420,826L1420,826" tabindex="0">
				<title>00:12.56 on 2021-11-29</title>
			</path>
			<line x1="0" y1="826" x2="2246" y2="826"/>
			<line x1="1420" y1="2082" x2="1420" y2="0"/>
		</g>
		<g style="--index: 19;">
			<path d="M1451,527" tabindex="0">
				<title>jpm0rokj</title>
			</path>
			<rect x="1451" y="527" width="0" height="0"/>
			<path d="M1451,527L1451,527" tabindex="0">
				<title>00:15.55 on 2021-12-30</title>
			</path>
			<line x1="0" y1="527" x2="2246" y2="527"/>
			<line x1="1451" y1="2082" x2="1451" y2="0"/>
		</g>
		<g style="--index: 20;">
			<path d="M1636,530" tabindex="0">
				<title>joovynnj</title>
			</path>
			<rect x="1636" y="530" width="0" height="0"/>
			<path d="M1636,530L1636,530" tabindex="0">
				<title>00:15.52 on 2022-07-03</title>
			</path>
			<line x1="0" y1="530" x2="2246" y2="530"/>
			<line x1="1636" y1="2082" x2="1636" y2="0"/>
		</g>
		<g style="--index: 21;">
			<path d="M1642,938" tabindex="0">
				<title>j4235d5x</title>
			</path>
			<rect x="1642" y="938" width="0" height="0"/>
			<path d="M1642,938L1642,938" tabindex="0">
				<title>00:11.44 on 2022-07-09</title>
			</path>
			<line x1="0" y1="938" x2="2246" y2="938"/>
			<line x1="1642" y1="2082" x2="1642" y2="0"/>
		</g>
		<g style="--index: 22;">
			<path d="M1662,523" tabindex="0">
				<title>jm3nrmo8</title>
			</path>
			<rect x="1662" y="523" width="0" height="0"/>
			<path d="M1662,523L1662,523" tabindex="0">
				<title>00:15.59 on 2022-07-29</title>
			</path>
			<line x1="0" y1="523" x2="2246" y2="523"/>
			<line x1="1662" y1="2082" x2="1662" y2="0"/>
		</g>
		<g style="--index: 23;">
			<path d="M1692,607" tabindex="0">
				<title>8rl7w568</title>
			</path>
			<rect x="1692" y="607" width="0" height="0"/>
			<path d="M1692,607L1692,607" tabindex="0">
				<title>00:14.75 on 2022-08-28</title>
			</path>
			<line x1="0" y1="607" x2="2246" y2="607"/>
			<line x1="1692" y1="2082" x2="1692" y2="0"/>
		</g>
		<g style="--index: 24;">
			<path d="M1714,305" tabindex="0">
				<title>8w00vw4j</title>
			</path>
			<rect x="1714" y="305" width="0" height="0"/>
			<path d="M1714,305L1714,305" tabindex="0">
				<title>00:17.77 on 2022-09-19</title>
			</path>
			<line x1="0" y1="305" x2="2246" y2="305"/>
			<line x1="1714" y1="2082" x2="1714" y2="0"/>
		</g>
		<g style="--index: 25;">
			<path d="M1716,1017" tabindex="0">
				<title>xz00rqe8</title>
			</path>
			<rect x="1716" y="1017" width="0" height="0"/>
			<path d="M1716,1017L1716,1017" tabindex="0">
				<title>00:10.65 on 2022-09-21</title>
			</path>
			<line x1="0" y1="1017" x2="2246" y2="1017"/>
			<line x1="1716" y1="2082" x2="1716" y2="0"/>
		</g>
		<g style="--index: 26;">
			<path d="M1730,893" tabindex="0">
				<title>xk1oze6j</title>
			</path>
			<rect x="1730" y="893" width="0" height="0"/>
			<path d="M1730,893L1730,893" tabindex="0">
				<title>00:11.89 on 2022-10-05</title>
			</path>
			<line x1="0" y1="893" x2="2246" y2="893"/>
			<line x1="1730" y1="2082" x2="1730" y2="0"/>
		</g>
		<g style="--index: 27;">
			<path d="M1796,907" tabindex="0">
				<title>8g0ezgyx</title>
			</path>
			<rect x="1796" y="907" width="0" height="0"/>
			<path d="M1796,907L1796,907" tabindex="0">
				<title>00:11.75 on 2022-12-10</title>
			</path>
			<line x1="0" y1="907" x2="2246" y2="907"/>
			<line x1="1796" y1="2082" x2="1796" y2="0"/>
		</g>
		<g style="--index: 28;">
			<path d="M1827,1257L1877,1257L1877,1271L1981,1271L1981,1287" tabindex="0">
				<title>jn2m23wj</title>
			</path>
			<rect x="1827" y="1257" width="154" height="30"/>
			<path d="M1827,1257L1827,1257" tabindex="0">
				<title>00:08.25 on 2023-01-10</title>
			</path>
			<line x1="0" y1="1257" x2="2246" y2="1257"/>
			<line x1="1827" y1="2082" x2="1827" y2="0"/>
			<path d="M1877,1271L1877,1271" tabindex="0">
				<title>00:08.11 on 2023-03-01</title>
			</path>
			<line x1="0" y1="1271" x2="2246" y2="1271"/>
			<line x1="1877" y1="2082" x2="1877" y2="0"/>
			<path d="M1981,1287L1981,1287" tabindex="0">
				<title>00:07.95 on 2023-06-13</title>
			</path>
			<line x1="0" y1="1287" x2="2246" y2="1287"/>
			<line x1="1981" y1="2082" x2="1981" y2="0"/>
		</g>
		<g style="--index: 29;">
			<path d="M1829,551" tabindex="0">
				<title>810yp1px</title>
			</path>
			<rect x="1829" y="551" width="0" height="0"/>
			<path d="M1829,551L1829,551" tabindex="0">
				<title>00:15.31 on 2023-01-12</title>
			</path>
			<line x1="0" y1="551" x2="2246" y2="551"/>
			<line x1="1829" y1="2082" x2="1829" y2="0"/>
		</g>
		<g style="--index: 30;">
			<path d="M1913,990" tabindex="0">
				<title>j9pkl7vx</title>
			</path>
			<rect x="1913" y="990" width="0" height="0"/>
			<path d="M1913,990L1913,990" tabindex="0">
				<title>00:10.92 on 2023-04-06</title>
			</path>
			<line x1="0" y1="990" x2="2246" y2="990"/>
			<line x1="1913" y1="2082" x2="1913" y2="0"/>
		</g>
		<g style="--index: 31;">
			<path d="M1938,572" tabindex="0">
				<title>8ew394p8</title>
			</path>
			<rect x="1938" y="572" width="0" height="0"/>
			<path d="M1938,572L1938,572" tabindex="0">
				<title>00:15.10 on 2023-05-01</title>
			</path>
			<line x1="0" y1="572" x2="2246" y2="572"/>
			<line x1="1938" y1="2082" x2="1938" y2="0"/>
		</g>
		<g style="--index: 32;">
			<path d="M2058,610" tabindex="0">
				<title>8eek2l78</title>
			</path>
			<rect x="2058" y="610" width="0" height="0"/>
			<path d="M2058,610L2058,610" tabindex="0">
				<title>00:14.72 on 2023-08-29</title>
			</path>
			<line x1="0" y1="610" x2="2246" y2="610"/>
			<line x1="2058" y1="2082" x2="2058" y2="0"/>
		</g>
		<g style="--index: 33;">
			<path d="M2075,459" tabindex="0">
				<title>xkp1dv9j</title>
			</path>
			<rect x="2075" y="459" width="0" height="0"/>
			<path d="M2075,459L2075,459" tabindex="0">
				<title>00:16.23 on 2023-09-15</title>
			</path>
			<line x1="0" y1="459" x2="2246" y2="459"/>
			<line x1="2075" y1="2082" x2="2075" y2="0"/>
		</g>
		<g style="--index: 34;">
			<path d="M2118,439" tabindex="0">
				<title>jp6yqok8</title>
			</path>
			<rect x="2118" y="439" width="0" height="0"/>
			<path d="M2118,439L2118,439" tabindex="0">
				<title>00:16.43 on 2023-10-28</title>
			</path>
			<line x1="0" y1="439" x2="2246" y2="439"/>
			<line x1="2118" y1="2082" x2="2118" y2="0"/>
		</g>
		<g style="--index: 35;">
			<path d="M2172,1039" tabindex="0">
				<title>j06ll3wj</title>
			</path>
			<rect x="2172" y="1039" width="0" height="0"/>
			<path d="M2172,1039L2172,1039" tabindex="0">
				<title>00:10.43 on 2023-12-21</title>
			</path>
			<line x1="0" y1="1039" x2="2246" y2="1039"/>
			<line x1="2172" y1="2082" x2="2172" y2="0"/>
		</g>
		<g style="--index: 36;">
			<path d="M2246,394" tabindex="0">
				<title>8w3l21qj</title>
			</path>
			<rect x="2246" y="394" width="0" height="0"/>
			<path d="M2246,394L2246,394" tabindex="0">
				<title>00:16.88 on 2024-03-04</title>
			</path>
			<line x1="0" y1="394" x2="2246" y2="394"/>
			<line x1="2246" y1="2082" x2="2246" y2="0"/>
		</g>
	</g>
</svg>
