<svg xmlns="http://www.w3.org/2000/svg" viewBox="0 0 2240 2207" preserveAspectRatio="none" lang="en" style="color-scheme: dark light;">
		<title>Time by player for leaderboard l_o9xo3rp9-9d8eewld-7896y468.rqvpey7q</title>
		<style>
			svg {
				background: var(--canvas-background);
				fill: var(--canvas-background);
				stroke: var(--canvas-foreground);
				stroke-linejoin: round;
				stroke-linecap: round;
			}
			g &gt; path[tabindex] {
				vector-effect: non-scaling-stroke;
				fill: none;
				stroke: hsl(calc(var(--index) / var(--count) * 360), 50%, 50%);
				cursor: help;
			}
			g:is(:hover, :focus-within) &gt; path[tabindex] {
				stroke: var(--canvas-foreground);
			}
			g &gt; path[tabindex]:is(:hover, :focus-within) {
				outline: 0;
			}
			g &gt; path[tabindex]:first-of-type {
				stroke-width: 2;
			}
			g &gt; path[tabindex]:first-of-type:is(:hover, :focus-within) {
				stroke-width: 4;
			}
			g &gt; path[tabindex]:first-of-type:not(:last-of-type) {
				stroke-dasharray: 4 8;
			}
			g &gt; rect {
				vector-effect: non-scaling-stroke;
				fill: none;
				stroke: none;
				pointer-events: none;
			}
			g &gt; path[tabindex]:first-of-type:is(:hover, :focus-within) + rect {
				fill: var(--highlighted);
			}
			g &gt; path[tabindex]:first-of-type ~ path[tabindex] {
				stroke-width: 8;
			}
			g &gt; path[tabindex]:first-of-type ~ path[tabindex]:is(:hover, :focus-within) {
				stroke-width: 16;
			}
			g &gt; line {
				vector-effect: non-scaling-stroke;
				fill: none;
				stroke: none;
				stroke-width: 2;
				stroke-dasharray: 4 8;
				pointer-events: none;
			}
			g &gt; path[tabindex]:first-of-type:is(:hover, :focus-within) + rect + path[tabindex] + line,
			g &gt; path[tabindex]:first-of-type:is(:hover, :focus-within) + rect + path[tabindex] + line + line,
			g &gt; path[tabindex]:first-of-type:is(:hover, :focus-within) ~ path[tabindex]:last-of-type + line,
			g &gt; path[tabindex]:first-of-type:is(:hover, :focus-within) ~ path[tabindex]:last-of-type + line + line,
			g &gt; path[tabindex]:first-of-type ~ path[tabindex]:is(:hover, :focus-within) + line,
			g &gt; path[tabindex]:first-of-type ~ path[tabindex]:is(:hover, :focus-within) + line + line {
				stroke: var(--faded);
			}
			@media (prefers-color-scheme: dark) {
				:root {
					--canvas-background: #000;
					--canvas-foreground: #ccc;
					--highlighted: #6663;
					--faded: #9993;
				}
			}
			@media (prefers-color-scheme: light) {
				:root {
					--canvas-background: #fff;
					--canvas-foreground: #333;
					--highlighted: #9993;
					--faded: #6663;
				}
			}
		</style>
		<g style="--count: 29;">
		<g style="--index: 0;">
			<path d="M0,361" tabindex="0">
				<title>5j5gggn8</title>
			</path>
			<rect x="0" y="361" width="0" height="0"/>
			<path d="M0,361L0,361" tabindex="0">
				<title>00:18.46 on 2018-01-15</title>
			</path>
			<line x1="0" y1="361" x2="2240" y2="361"/>
			<line x1="0" y1="2207" x2="0" y2="0"/>
		</g>
		<g style="--index: 1;">
			<path d="M2,284" tabindex="0">
				<title>qj2pq1p8</title>
			</path>
			<rect x="2" y="284" width="0" height="0"/>
			<path d="M2,284L2,284" tabindex="0">
				<title>00:19.23 on 2018-01-17</title>
			</path>
			<line x1="0" y1="284" x2="2240" y2="284"/>
			<line x1="2" y1="2207" x2="2" y2="0"/>
		</g>
		<g style="--index: 2;">
			<path d="M66,0" tabindex="0">
				<title>18qg9ndx</title>
			</path>
			<rect x="66" y="0" width="0" height="0"/>
			<path d="M66,0L66,0" tabindex="0">
				<title>00:22.07 on 2018-03-22</title>
			</path>
			<line x1="0" y1="0" x2="2240" y2="0"/>
			<line x1="66" y1="2207" x2="66" y2="0"/>
		</g>
		<g style="--index: 3;">
			<path d="M99,741" tabindex="0">
				<title>y8dgoe98</title>
			</path>
			<rect x="99" y="741" width="0" height="0"/>
			<path d="M99,741L99,741" tabindex="0">
				<title>00:14.66 on 2018-04-24</title>
			</path>
			<line x1="0" y1="741" x2="2240" y2="741"/>
			<line x1="99" y1="2207" x2="99" y2="0"/>
		</g>
		<g style="--index: 4;">
			<path d="M734,264" tabindex="0">
				<title>j9rlkzoj</title>
			</path>
			<rect x="734" y="264" width="0" height="0"/>
			<path d="M734,264L734,264" tabindex="0">
				<title>00:19.43 on 2020-01-19</title>
			</path>
			<line x1="0" y1="264" x2="2240" y2="264"/>
			<line x1="734" y1="2207" x2="734" y2="0"/>
		</g>
		<g style="--index: 5;">
			<path d="M860,671L862,671L862,716L1006,716L1006,759" tabindex="0">
				<title>x356nrej</title>
			</path>
			<rect x="860" y="671" width="146" height="88"/>
			<path d="M860,671L860,671" tabindex="0">
				<title>00:15.36 on 2020-05-24</title>
			</path>
			<line x1="0" y1="671" x2="2240" y2="671"/>
			<line x1="860" y1="2207" x2="860" y2="0"/>
			<path d="M862,716L862,716" tabindex="0">
				<title>00:14.91 on 2020-05-26</title>
			</path>
			<line x1="0" y1="716" x2="2240" y2="716"/>
			<line x1="862" y1="2207" x2="862" y2="0"/>
			<path d="M1006,759L1006,759" tabindex="0">
				<title>00:14.48 on 2020-10-17</title>
			</path>
			<line x1="0" y1="759" x2="2240" y2="759"/>
			<line x1="1006" y1="2207" x2="1006" y2="0"/>
		</g>
		<g style="--index: 6;">
			<path d="M1033,616L1148,616L1148,637" tabindex="0">
				<title>j0np7or8</title>
			</path>
			<rect x="1033" y="616" width="115" height="21"/>
			<path d="M1033,616L1033,616" tabindex="0">
				<title>00:15.91 on 2020-11-13</title>
			</path>
			<line x1="0" y1="616" x2="2240" y2="616"/>
			<line x1="1033" y1="2207" x2="1033" y2="0"/>
			<path d="M1148,637L1148,637" tabindex="0">
				<title>00:15.70 on 2021-03-08</title>
			</path>
			<line x1="0" y1="637" x2="2240" y2="637"/>
			<line x1="1148" y1="2207" x2="1148" y2="0"/>
		</g>
		<g style="--index: 7;">
			<path d="M1047,784L1080,784L1080,814L1166,814L1166,837L1167,837L1167,877" tabindex="0">
				<title>xkon93k8</title>
			</path>
			<rect x="1047" y="784" width="120" height="93"/>
			<path d="M1047,784L1047,784" tabindex="0">
				<title>00:14.23 on 2020-11-27</title>
			</path>
			<line x1="0" y1="784" x2="2240" y2="784"/>
			<line x1="1047" y1="2207" x2="1047" y2="0"/>
			<path d="M1080,814L1080,814" tabindex="0">
				<title>00:13.93 on 2020-12-30</title>
			</path>
			<line x1="0" y1="814" x2="2240" y2="814"/>
			<line x1="1080" y1="2207" x2="1080" y2="0"/>
			<path d="M1166,837L1166,837" tabindex="0">
				<title>00:13.70 on 2021-03-26</title>
			</path>
			<line x1="0" y1="837" x2="2240" y2="837"/>
			<line x1="1166" y1="2207" x2="1166" y2="0"/>
			<path d="M1167,877L1167,877" tabindex="0">
				<title>00:13.30 on 2021-03-27</title>
			</path>
			<line x1="0" y1="877" x2="2240" y2="877"/>
			<line x1="1167" y1="2207" x2="1167" y2="0"/>
		</g>
		<g style="--index: 8;">
			<path d="M1047,559L1082,559L1082,782" tabindex="0">
				<title>x7q00668</title>
			</path>
			<rect x="1047" y="559" width="35" height="223"/>
			<path d="M1047,559L1047,559" tabindex="0">
				<title>00:16.48 on 2020-11-27</title>
			</path>
			<line x1="0" y1="559" x2="2240" y2="559"/>
			<line x1="1047" y1="2207" x2="1047" y2="0"/>
			<path d="M1082,782L1082,782" tabindex="0">
				<title>00:14.25 on 2021-01-01</title>
			</path>
			<line x1="0" y1="782" x2="2240" y2="782"/>
			<line x1="1082" y1="2207" x2="1082" y2="0"/>
		</g>
		<g style="--index: 9;">
			<path d="M1080,745" tabindex="0">
				<title>86ngl5wx</title>
			</path>
			<rect x="1080" y="745" width="0" height="0"/>
			<path d="M1080,745L1080,745" tabindex="0">
				<title>00:14.62 on 2020-12-30</title>
			</path>
			<line x1="0" y1="745" x2="2240" y2="745"/>
			<line x1="1080" y1="2207" x2="1080" y2="0"/>
		</g>
		<g style="--index: 10;">
			<path d="M1138,824L1166,824L1166,844L1593,844L1593,928" tabindex="0">
				<title>j2yr9lp8</title>
			</path>
			<rect x="1138" y="824" width="455" height="104"/>
			<path d="M1138,824L1138,824" tabindex="0">
				<title>00:13.83 on 2021-02-26</title>
			</path>
			<line x1="0" y1="824" x2="2240" y2="824"/>
			<line x1="1138" y1="2207" x2="1138" y2="0"/>
			<path d="M1166,844L1166,844" tabindex="0">
				<title>00:13.63 on 2021-03-26</title>
			</path>
			<line x1="0" y1="844" x2="2240" y2="844"/>
			<line x1="1166" y1="2207" x2="1166" y2="0"/>
			<path d="M1593,928L1593,928" tabindex="0">
				<title>00:12.79 on 2022-05-27</title>
			</path>
			<line x1="0" y1="928" x2="2240" y2="928"/>
			<line x1="1593" y1="2207" x2="1593" y2="0"/>
		</g>
		<g style="--index: 11;">
			<path d="M1141,471L1473,471L1473,764L1476,764L1476,795" tabindex="0">
				<title>8grypo7x</title>
			</path>
			<rect x="1141" y="471" width="335" height="324"/>
			<path d="M1141,471L1141,471" tabindex="0">
				<title>00:17.36 on 2021-03-01</title>
			</path>
			<line x1="0" y1="471" x2="2240" y2="471"/>
			<line x1="1141" y1="2207" x2="1141" y2="0"/>
			<path d="M1473,764L1473,764" tabindex="0">
				<title>00:14.43 on 2022-01-27</title>
			</path>
			<line x1="0" y1="764" x2="2240" y2="764"/>
			<line x1="1473" y1="2207" x2="1473" y2="0"/>
			<path d="M1476,795L1476,795" tabindex="0">
				<title>00:14.12 on 2022-01-30</title>
			</path>
			<line x1="0" y1="795" x2="2240" y2="795"/>
			<line x1="1476" y1="2207" x2="1476" y2="0"/>
		</g>
		<g style="--index: 12;">
			<path d="M1478,648" tabindex="0">
				<title>8g5g6g1j</title>
			</path>
			<rect x="1478" y="648" width="0" height="0"/>
			<path d="M1478,648L1478,648" tabindex="0">
				<title>00:15.59 on 2022-02-01</title>
			</path>
			<line x1="0" y1="648" x2="2240" y2="648"/>
			<line x1="1478" y1="2207" x2="1478" y2="0"/>
		</g>
		<g style="--index: 13;">
			<path d="M1532,753L1533,753L1533,779L1536,779L1536,795" tabindex="0">
				<title>8w1d07qx</title>
			</path>
			<rect x="1532" y="753" width="4" height="42"/>
			<path d="M1532,753L1532,753" tabindex="0">
				<title>00:14.54 on 2022-03-27</title>
			</path>
			<line x1="0" y1="753" x2="2240" y2="753"/>
			<line x1="1532" y1="2207" x2="1532" y2="0"/>
			<path d="M1533,779L1533,779" tabindex="0">
				<title>00:14.28 on 2022-03-28</title>
			</path>
			<line x1="0" y1="779" x2="2240" y2="779"/>
			<line x1="1533" y1="2207" x2="1533" y2="0"/>
			<path d="M1536,795L1536,795" tabindex="0">
				<title>00:14.12 on 2022-03-31</title>
			</path>
			<line x1="0" y1="795" x2="2240" y2="795"/>
			<line x1="1536" y1="2207" x2="1536" y2="0"/>
		</g>
		<g style="--index: 14;">
			<path d="M1600,422" tabindex="0">
				<title>8r36oog8</title>
			</path>
			<rect x="1600" y="422" width="0" height="0"/>
			<path d="M1600,422L1600,422" tabindex="0">
				<title>00:17.85 on 2022-06-03</title>
			</path>
			<line x1="0" y1="422" x2="2240" y2="422"/>
			<line x1="1600" y1="2207" x2="1600" y2="0"/>
		</g>
		<g style="--index: 15;">
			<path d="M1618,304" tabindex="0">
				<title>8gmn55y8</title>
			</path>
			<rect x="1618" y="304" width="0" height="0"/>
			<path d="M1618,304L1618,304" tabindex="0">
				<title>00:19.03 on 2022-06-21</title>
			</path>
			<line x1="0" y1="304" x2="2240" y2="304"/>
			<line x1="1618" y1="2207" x2="1618" y2="0"/>
		</g>
		<g style="--index: 16;">
			<path d="M1636,727" tabindex="0">
				<title>j4235d5x</title>
			</path>
			<rect x="1636" y="727" width="0" height="0"/>
			<path d="M1636,727L1636,727" tabindex="0">
				<title>00:14.80 on 2022-07-09</title>
			</path>
			<line x1="0" y1="727" x2="2240" y2="727"/>
			<line x1="1636" y1="2207" x2="1636" y2="0"/>
		</g>
		<g style="--index: 17;">
			<path d="M1637,611" tabindex="0">
				<title>xk3knqk8</title>
			</path>
			<rect x="1637" y="611" width="0" height="0"/>
			<path d="M1637,611L1637,611" tabindex="0">
				<title>00:15.96 on 2022-07-10</title>
			</path>
			<line x1="0" y1="611" x2="2240" y2="611"/>
			<line x1="1637" y1="2207" x2="1637" y2="0"/>
		</g>
		<g style="--index: 18;">
			<path d="M1658,309" tabindex="0">
				<title>8dgdoo58</title>
			</path>
			<rect x="1658" y="309" width="0" height="0"/>
			<path d="M1658,309L1658,309" tabindex="0">
				<title>00:18.98 on 2022-07-31</title>
			</path>
			<line x1="0" y1="309" x2="2240" y2="309"/>
			<line x1="1658" y1="2207" x2="1658" y2="0"/>
		</g>
		<g style="--index: 19;">
			<path d="M1664,72" tabindex="0">
				<title>x7wpmr68</title>
			</path>
			<rect x="1664" y="72" width="0" height="0"/>
			<path d="M1664,72L1664,72" tabindex="0">
				<title>00:21.35 on 2022-08-06</title>
			</path>
			<line x1="0" y1="72" x2="2240" y2="72"/>
			<line x1="1664" y1="2207" x2="1664" y2="0"/>
		</g>
		<g style="--index: 20;">
			<path d="M1694,902L2047,902L2047,958" tabindex="0">
				<title>jn2m23wj</title>
			</path>
			<rect x="1694" y="902" width="353" height="56"/>
			<path d="M1694,902L1694,902" tabindex="0">
				<title>00:13.05 on 2022-09-05</title>
			</path>
			<line x1="0" y1="902" x2="2240" y2="902"/>
			<line x1="1694" y1="2207" x2="1694" y2="0"/>
			<path d="M2047,958L2047,958" tabindex="0">
				<title>00:12.49 on 2023-08-24</title>
			</path>
			<line x1="0" y1="958" x2="2240" y2="958"/>
			<line x1="2047" y1="2207" x2="2047" y2="0"/>
		</g>
		<g style="--index: 21;">
			<path d="M1699,275" tabindex="0">
				<title>8rl3eog8</title>
			</path>
			<rect x="1699" y="275" width="0" height="0"/>
			<path d="M1699,275L1699,275" tabindex="0">
				<title>00:19.32 on 2022-09-10</title>
			</path>
			<line x1="0" y1="275" x2="2240" y2="275"/>
			<line x1="1699" y1="2207" x2="1699" y2="0"/>
		</g>
		<g style="--index: 22;">
			<path d="M1767,720" tabindex="0">
				<title>8ewg6np8</title>
			</path>
			<rect x="1767" y="720" width="0" height="0"/>
			<path d="M1767,720L1767,720" tabindex="0">
				<title>00:14.87 on 2022-11-17</title>
			</path>
			<line x1="0" y1="720" x2="2240" y2="720"/>
			<line x1="1767" y1="2207" x2="1767" y2="0"/>
		</g>
		<g style="--index: 23;">
			<path d="M1773,774" tabindex="0">
				<title>xk1oze6j</title>
			</path>
			<rect x="1773" y="774" width="0" height="0"/>
			<path d="M1773,774L1773,774" tabindex="0">
				<title>00:14.33 on 2022-11-23</title>
			</path>
			<line x1="0" y1="774" x2="2240" y2="774"/>
			<line x1="1773" y1="2207" x2="1773" y2="0"/>
		</g>
		<g style="--index: 24;">
			<path d="M1880,638" tabindex="0">
				<title>x3wz4ykj</title>
			</path>
			<rect x="1880" y="638" width="0" height="0"/>
			<path d="M1880,638L1880,638" tabindex="0">
				<title>00:15.69 on 2023-03-10</title>
			</path>
			<line x1="0" y1="638" x2="2240" y2="638"/>
			<line x1="1880" y1="2207" x2="1880" y2="0"/>
		</g>
		<g style="--index: 25;">
			<path d="M1932,416" tabindex="0">
				<title>8ew394p8</title>
			</path>
			<rect x="1932" y="416" width="0" height="0"/>
			<path d="M1932,416L1932,416" tabindex="0">
				<title>00:17.91 on 2023-05-01</title>
			</path>
			<line x1="0" y1="416" x2="2240" y2="416"/>
			<line x1="1932" y1="2207" x2="1932" y2="0"/>
		</g>
		<g style="--index: 26;">
			<path d="M2007,877" tabindex="0">
				<title>x3wdlvkj</title>
			</path>
			<rect x="2007" y="877" width="0" height="0"/>
			<path d="M2007,877L2007,877" tabindex="0">
				<title>00:13.30 on 2023-07-15</title>
			</path>
			<line x1="0" y1="877" x2="2240" y2="877"/>
			<line x1="2007" y1="2207" x2="2007" y2="0"/>
		</g>
		<g style="--index: 27;">
			<path d="M2201,756" tabindex="0">
				<title>8dpl6o58</title>
			</path>
			<rect x="2201" y="756" width="0" height="0"/>
			<path d="M2201,756L2201,756" tabindex="0">
				<title>00:14.51 on 2024-01-25</title>
			</path>
			<line x1="0" y1="756" x2="2240" y2="756"/>
			<line x1="2201" y1="2207" x2="2201" y2="0"/>
		</g>
		<g style="--index: 28;">
			<path d="M2240,580" tabindex="0">
				<title>8w3l21qj</title>
			</path>
			<rect x="2240" y="580" width="0" height="0"/>
			<path d="M2240,580L2240,580" tabindex="0">
				<title>00:16.27 on 2024-03-04</title>
			</path>
			<line x1="0" y1="580" x2="2240" y2="580"/>
			<line x1="2240" y1="2207" x2="2240" y2="0"/>
		</g>
	</g>
</svg>
