<svg xmlns="http://www.w3.org/2000/svg" viewBox="0 0 2060 35527" preserveAspectRatio="none" lang="en" style="color-scheme: dark light;">
	<title>Time by player for leaderboard l_o9xo3rp9-9d8eewld-7896y468.5lmkgmjq</title>
	<style>
		svg {
			background: var(--canvas-background);
			fill: var(--canvas-background);
			stroke: var(--canvas-foreground);
			stroke-linejoin: round;
			stroke-linecap: round;
		}
		g &gt; path[tabindex] {
			vector-effect: non-scaling-stroke;
			fill: none;
			stroke: hsl(calc(var(--index) / var(--count) * 360), 50%, 50%);
			cursor: help;
		}
		g:is(:hover, :focus-within) &gt; path[tabindex] {
			stroke: var(--canvas-foreground);
		}
		g &gt; path[tabindex]:is(:hover, :focus-within) {
			outline: 0;
		}
		g &gt; path[tabindex]:first-of-type {
			stroke-width: 2;
		}
		g &gt; path[tabindex]:first-of-type:is(:hover, :focus-within) {
			stroke-width: 4;
		}
		g &gt; path[tabindex]:first-of-type:not(:last-of-type) {
			stroke-dasharray: 4 8;
		}
		g &gt; rect {
			vector-effect: non-scaling-stroke;
			fill: none;
			stroke: none;
			pointer-events: none;
		}
		g &gt; path[tabindex]:first-of-type:is(:hover, :focus-within) + rect {
			fill: var(--highlighted);
		}
		g &gt; path[tabindex]:first-of-type ~ path[tabindex] {
			stroke-width: 8;
		}
		g &gt; path[tabindex]:first-of-type ~ path[tabindex]:is(:hover, :focus-within) {
			stroke-width: 16;
		}
		g &gt; line {
			vector-effect: non-scaling-stroke;
			fill: none;
			stroke: none;
			stroke-width: 2;
			stroke-dasharray: 4 8;
			pointer-events: none;
		}
		g &gt; path[tabindex]:first-of-type:is(:hover, :focus-within) + rect + path[tabindex] + line,
		g &gt; path[tabindex]:first-of-type:is(:hover, :focus-within) + rect + path[tabindex] + line + line,
		g &gt; path[tabindex]:first-of-type:is(:hover, :focus-within) ~ path[tabindex]:last-of-type + line,
		g &gt; path[tabindex]:first-of-type:is(:hover, :focus-within) ~ path[tabindex]:last-of-type + line + line,
		g &gt; path[tabindex]:first-of-type ~ path[tabindex]:is(:hover, :focus-within) + line,
		g &gt; path[tabindex]:first-of-type ~ path[tabindex]:is(:hover, :focus-within) + line + line {
			stroke: var(--faded);
		}
		@media (prefers-color-scheme: dark) {
			:root {
				--canvas-background: #000;
				--canvas-foreground: #ccc;
				--highlighted: #6663;
				--faded: #9993;
			}
		}
		@media (prefers-color-scheme: light) {
			:root {
				--canvas-background: #fff;
				--canvas-foreground: #333;
				--highlighted: #9993;
				--faded: #6663;
			}
		}
	</style>
	<g transform="scale(1 -1)" transform-origin="center center" style="--count: 12;">
		<g style="--index: 0;">
			<path d="M0,35527L67,35527L67,28483" tabindex="0">
				<title>y8dgoe98</title>
			</path>
			<rect x="0" y="28483" width="67" height="7044"/>
			<path d="M0,35527L0,35527" tabindex="0">
				<title>05:55.27 on 2018-07-13</title>
			</path>
			<line x1="0" y1="35527" x2="2060" y2="35527"/>
			<line x1="0" y1="0" x2="0" y2="35527"/>
			<path d="M67,28483L67,28483" tabindex="0">
				<title>04:44.83 on 2018-09-18</title>
			</path>
			<line x1="0" y1="28483" x2="2060" y2="28483"/>
			<line x1="67" y1="0" x2="67" y2="35527"/>
		</g>
		<g style="--index: 1;">
			<path d="M689,20393" tabindex="0">
				<title>x356nrej</title>
			</path>
			<rect x="689" y="20393" width="0" height="0"/>
			<path d="M689,20393L689,20393" tabindex="0">
				<title>03:23.93 on 2020-06-01</title>
			</path>
			<line x1="0" y1="20393" x2="2060" y2="20393"/>
			<line x1="689" y1="0" x2="689" y2="35527"/>
		</g>
		<g style="--index: 2;">
			<path d="M777,25342" tabindex="0">
				<title>8dwnyqoj</title>
			</path>
			<rect x="777" y="25342" width="0" height="0"/>
			<path d="M777,25342L777,25342" tabindex="0">
				<title>04:13.42 on 2020-08-28</title>
			</path>
			<line x1="0" y1="25342" x2="2060" y2="25342"/>
			<line x1="777" y1="0" x2="777" y2="35527"/>
		</g>
		<g style="--index: 3;">
			<path d="M842,17055L911,17055L911,14465L926,14465L926,14065" tabindex="0">
				<title>xkon93k8</title>
			</path>
			<rect x="842" y="14065" width="84" height="2990"/>
			<path d="M842,17055L842,17055" tabindex="0">
				<title>02:50.55 on 2020-11-01</title>
			</path>
			<line x1="0" y1="17055" x2="2060" y2="17055"/>
			<line x1="842" y1="0" x2="842" y2="35527"/>
			<path d="M911,14465L911,14465" tabindex="0">
				<title>02:24.65 on 2021-01-09</title>
			</path>
			<line x1="0" y1="14465" x2="2060" y2="14465"/>
			<line x1="911" y1="0" x2="911" y2="35527"/>
			<path d="M926,14065L926,14065" tabindex="0">
				<title>02:20.65 on 2021-01-24</title>
			</path>
			<line x1="0" y1="14065" x2="2060" y2="14065"/>
			<line x1="926" y1="0" x2="926" y2="35527"/>
		</g>
		<g style="--index: 4;">
			<path d="M868,19891L909,19891L909,16075" tabindex="0">
				<title>x7q00668</title>
			</path>
			<rect x="868" y="16075" width="41" height="3816"/>
			<path d="M868,19891L868,19891" tabindex="0">
				<title>03:18.91 on 2020-11-27</title>
			</path>
			<line x1="0" y1="19891" x2="2060" y2="19891"/>
			<line x1="868" y1="0" x2="868" y2="35527"/>
			<path d="M909,16075L909,16075" tabindex="0">
				<title>02:40.75 on 2021-01-07</title>
			</path>
			<line x1="0" y1="16075" x2="2060" y2="16075"/>
			<line x1="909" y1="0" x2="909" y2="35527"/>
		</g>
		<g style="--index: 5;">
			<path d="M897,18751L919,18751L919,14128" tabindex="0">
				<title>814zn7l8</title>
			</path>
			<rect x="897" y="14128" width="22" height="4623"/>
			<path d="M897,18751L897,18751" tabindex="0">
				<title>03:07.51 on 2020-12-26</title>
			</path>
			<line x1="0" y1="18751" x2="2060" y2="18751"/>
			<line x1="897" y1="0" x2="897" y2="35527"/>
			<path d="M919,14128L919,14128" tabindex="0">
				<title>02:21.28 on 2021-01-17</title>
			</path>
			<line x1="0" y1="14128" x2="2060" y2="14128"/>
			<line x1="919" y1="0" x2="919" y2="35527"/>
		</g>
		<g style="--index: 6;">
			<path d="M905,20865" tabindex="0">
				<title>j0np7or8</title>
			</path>
			<rect x="905" y="20865" width="0" height="0"/>
			<path d="M905,20865L905,20865" tabindex="0">
				<title>03:28.65 on 2021-01-03</title>
			</path>
			<line x1="0" y1="20865" x2="2060" y2="20865"/>
			<line x1="905" y1="0" x2="905" y2="35527"/>
		</g>
		<g style="--index: 7;">
			<path d="M970,13241" tabindex="0">
				<title>j2yr9lp8</title>
			</path>
			<rect x="970" y="13241" width="0" height="0"/>
			<path d="M970,13241L970,13241" tabindex="0">
				<title>02:12.41 on 2021-03-09</title>
			</path>
			<line x1="0" y1="13241" x2="2060" y2="13241"/>
			<line x1="970" y1="0" x2="970" y2="35527"/>
		</g>
		<g style="--index: 8;">
			<path d="M1454,12969" tabindex="0">
				<title>xk3m6d68</title>
			</path>
			<rect x="1454" y="12969" width="0" height="0"/>
			<path d="M1454,12969L1454,12969" tabindex="0">
				<title>02:09.69 on 2022-07-06</title>
			</path>
			<line x1="0" y1="12969" x2="2060" y2="12969"/>
			<line x1="1454" y1="0" x2="1454" y2="35527"/>
		</g>
		<g style="--index: 9;">
			<path d="M1457,16611L1823,16611L1823,12798" tabindex="0">
				<title>j4235d5x</title>
			</path>
			<rect x="1457" y="12798" width="366" height="3813"/>
			<path d="M1457,16611L1457,16611" tabindex="0">
				<title>02:46.11 on 2022-07-09</title>
			</path>
			<line x1="0" y1="16611" x2="2060" y2="16611"/>
			<line x1="1457" y1="0" x2="1457" y2="35527"/>
			<path d="M1823,12798L1823,12798" tabindex="0">
				<title>02:07.98 on 2023-07-10</title>
			</path>
			<line x1="0" y1="12798" x2="2060" y2="12798"/>
			<line x1="1823" y1="0" x2="1823" y2="35527"/>
		</g>
		<g style="--index: 10;">
			<path d="M1992,11965" tabindex="0">
				<title>jn2m23wj</title>
			</path>
			<rect x="1992" y="11965" width="0" height="0"/>
			<path d="M1992,11965L1992,11965" tabindex="0">
				<title>01:59.65 on 2023-12-26</title>
			</path>
			<line x1="0" y1="11965" x2="2060" y2="11965"/>
			<line x1="1992" y1="0" x2="1992" y2="35527"/>
		</g>
		<g style="--index: 11;">
			<path d="M2060,15403" tabindex="0">
				<title>8w3l21qj</title>
			</path>
			<rect x="2060" y="15403" width="0" height="0"/>
			<path d="M2060,15403L2060,15403" tabindex="0">
				<title>02:34.03 on 2024-03-03</title>
			</path>
			<line x1="0" y1="15403" x2="2060" y2="15403"/>
			<line x1="2060" y1="0" x2="2060" y2="35527"/>
		</g>
	</g>
</svg>
