<svg xmlns="http://www.w3.org/2000/svg" viewBox="0 0 681 52762" preserveAspectRatio="none" lang="en" style="color-scheme: dark light;">
		<title>Time by player for leaderboard l_o9xo3rp9-xd144xzd-38dz6v1n.z19md2jl</title>
		<style>
			svg {
				background: var(--canvas-background);
				fill: var(--canvas-background);
				stroke: var(--canvas-foreground);
				stroke-linejoin: round;
				stroke-linecap: round;
			}
			g &gt; path[tabindex] {
				vector-effect: non-scaling-stroke;
				fill: none;
				stroke: hsl(calc(var(--index) / var(--count) * 360), 50%, 50%);
				cursor: help;
			}
			g:is(:hover, :focus-within) &gt; path[tabindex] {
				stroke: var(--canvas-foreground);
			}
			g &gt; path[tabindex]:is(:hover, :focus-within) {
				outline: 0;
			}
			g &gt; path[tabindex]:first-of-type {
				stroke-width: 2;
			}
			g &gt; path[tabindex]:first-of-type:is(:hover, :focus-within) {
				stroke-width: 4;
			}
			g &gt; path[tabindex]:first-of-type:not(:last-of-type) {
				stroke-dasharray: 4 8;
			}
			g &gt; rect {
				vector-effect: non-scaling-stroke;
				fill: none;
				stroke: none;
				pointer-events: none;
			}
			g &gt; path[tabindex]:first-of-type:is(:hover, :focus-within) + rect {
				fill: var(--highlighted);
			}
			g &gt; path[tabindex]:first-of-type ~ path[tabindex] {
				stroke-width: 8;
			}
			g &gt; path[tabindex]:first-of-type ~ path[tabindex]:is(:hover, :focus-within) {
				stroke-width: 16;
			}
			g &gt; line {
				vector-effect: non-scaling-stroke;
				fill: none;
				stroke: none;
				stroke-width: 2;
				stroke-dasharray: 4 8;
				pointer-events: none;
			}
			g &gt; path[tabindex]:first-of-type:is(:hover, :focus-within) + rect + path[tabindex] + line,
			g &gt; path[tabindex]:first-of-type:is(:hover, :focus-within) + rect + path[tabindex] + line + line,
			g &gt; path[tabindex]:first-of-type:is(:hover, :focus-within) ~ path[tabindex]:last-of-type + line,
			g &gt; path[tabindex]:first-of-type:is(:hover, :focus-within) ~ path[tabindex]:last-of-type + line + line,
			g &gt; path[tabindex]:first-of-type ~ path[tabindex]:is(:hover, :focus-within) + line,
			g &gt; path[tabindex]:first-of-type ~ path[tabindex]:is(:hover, :focus-within) + line + line {
				stroke: var(--faded);
			}
			@media (prefers-color-scheme: dark) {
				:root {
					--canvas-background: #000;
					--canvas-foreground: #ccc;
					--highlighted: #6663;
					--faded: #9993;
				}
			}
			@media (prefers-color-scheme: light) {
				:root {
					--canvas-background: #fff;
					--canvas-foreground: #333;
					--highlighted: #9993;
					--faded: #6663;
				}
			}
		</style>
		<g transform="scale(1 -1)" transform-origin="center center" style="--count: 4;">
		<g style="--index: 0;">
			<path d="M0,52762L76,52762L76,41215L121,41215L121,31685" tabindex="0">
				<title>xkon93k8</title>
			</path>
			<rect x="0" y="31685" width="121" height="21077"/>
			<path d="M0,52762L0,52762" tabindex="0">
				<title>08:47.62 on 2020-10-14</title>
			</path>
			<line x1="0" y1="52762" x2="681" y2="52762"/>
			<line x1="0" y1="0" x2="0" y2="52762"/>
			<path d="M76,41215L76,41215" tabindex="0">
				<title>06:52.15 on 2020-12-29</title>
			</path>
			<line x1="0" y1="41215" x2="681" y2="41215"/>
			<line x1="76" y1="0" x2="76" y2="52762"/>
			<path d="M121,31685L121,31685" tabindex="0">
				<title>05:16.85 on 2021-02-12</title>
			</path>
			<line x1="0" y1="31685" x2="681" y2="31685"/>
			<line x1="121" y1="0" x2="121" y2="52762"/>
		</g>
		<g style="--index: 1;">
			<path d="M75,46027L115,46027L115,41145" tabindex="0">
				<title>j0np7or8</title>
			</path>
			<rect x="75" y="41145" width="40" height="4882"/>
			<path d="M75,46027L75,46027" tabindex="0">
				<title>07:40.27 on 2020-12-28</title>
			</path>
			<line x1="0" y1="46027" x2="681" y2="46027"/>
			<line x1="75" y1="0" x2="75" y2="52762"/>
			<path d="M115,41145L115,41145" tabindex="0">
				<title>06:51.45 on 2021-02-06</title>
			</path>
			<line x1="0" y1="41145" x2="681" y2="41145"/>
			<line x1="115" y1="0" x2="115" y2="52762"/>
		</g>
		<g style="--index: 2;">
			<path d="M676,31477" tabindex="0">
				<title>x356nrej</title>
			</path>
			<rect x="676" y="31477" width="0" height="0"/>
			<path d="M676,31477L676,31477" tabindex="0">
				<title>05:14.77 on 2022-08-21</title>
			</path>
			<line x1="0" y1="31477" x2="681" y2="31477"/>
			<line x1="676" y1="0" x2="676" y2="52762"/>
		</g>
		<g style="--index: 3;">
			<path d="M681,35040" tabindex="0">
				<title>j4235d5x</title>
			</path>
			<rect x="681" y="35040" width="0" height="0"/>
			<path d="M681,35040L681,35040" tabindex="0">
				<title>05:50.40 on 2022-08-26</title>
			</path>
			<line x1="0" y1="35040" x2="681" y2="35040"/>
			<line x1="681" y1="0" x2="681" y2="52762"/>
		</g>
	</g>
</svg>
