<svg xmlns="http://www.w3.org/2000/svg" viewBox="0 0 2246 3036" preserveAspectRatio="none" lang="en" style="color-scheme: dark light;">
		<title>Time by player for leaderboard l_o9xo3rp9-9d8eewld-7896y468.81wp50oq</title>
		<style>
			svg {
				background: var(--canvas-background);
				fill: var(--canvas-background);
				stroke: var(--canvas-foreground);
				stroke-linejoin: round;
				stroke-linecap: round;
			}
			g &gt; path[tabindex] {
				vector-effect: non-scaling-stroke;
				fill: none;
				stroke: hsl(calc(var(--index) / var(--count) * 360), 50%, 50%);
				cursor: help;
			}
			g:is(:hover, :focus-within) &gt; path[tabindex] {
				stroke: var(--canvas-foreground);
			}
			g &gt; path[tabindex]:is(:hover, :focus-within) {
				outline: 0;
			}
			g &gt; path[tabindex]:first-of-type {
				stroke-width: 2;
			}
			g &gt; path[tabindex]:first-of-type:is(:hover, :focus-within) {
				stroke-width: 4;
			}
			g &gt; path[tabindex]:first-of-type:not(:last-of-type) {
				stroke-dasharray: 4 8;
			}
			g &gt; rect {
				vector-effect: non-scaling-stroke;
				fill: none;
				stroke: none;
				pointer-events: none;
			}
			g &gt; path[tabindex]:first-of-type:is(:hover, :focus-within) + rect {
				fill: var(--highlighted);
			}
			g &gt; path[tabindex]:first-of-type ~ path[tabindex] {
				stroke-width: 8;
			}
			g &gt; path[tabindex]:first-of-type ~ path[tabindex]:is(:hover, :focus-within) {
				stroke-width: 16;
			}
			g &gt; line {
				vector-effect: non-scaling-stroke;
				fill: none;
				stroke: none;
				stroke-width: 2;
				stroke-dasharray: 4 8;
				pointer-events: none;
			}
			g &gt; path[tabindex]:first-of-type:is(:hover, :focus-within) + rect + path[tabindex] + line,
			g &gt; path[tabindex]:first-of-type:is(:hover, :focus-within) + rect + path[tabindex] + line + line,
			g &gt; path[tabindex]:first-of-type:is(:hover, :focus-within) ~ path[tabindex]:last-of-type + line,
			g &gt; path[tabindex]:first-of-type:is(:hover, :focus-within) ~ path[tabindex]:last-of-type + line + line,
			g &gt; path[tabindex]:first-of-type ~ path[tabindex]:is(:hover, :focus-within) + line,
			g &gt; path[tabindex]:first-of-type ~ path[tabindex]:is(:hover, :focus-within) + line + line {
				stroke: var(--faded);
			}
			@media (prefers-color-scheme: dark) {
				:root {
					--canvas-background: #000;
					--canvas-foreground: #ccc;
					--highlighted: #6663;
					--faded: #9993;
				}
			}
			@media (prefers-color-scheme: light) {
				:root {
					--canvas-background: #fff;
					--canvas-foreground: #333;
					--highlighted: #9993;
					--faded: #6663;
				}
			}
		</style>
		<g style="--count: 32;">
		<g style="--index: 0;">
			<path d="M0,1131" tabindex="0">
				<title>7j47r25j</title>
			</path>
			<rect x="0" y="1131" width="0" height="0"/>
			<path d="M0,1131L0,1131" tabindex="0">
				<title>00:19.05 on 2018-01-09</title>
			</path>
			<line x1="0" y1="1131" x2="2246" y2="1131"/>
			<line x1="0" y1="3036" x2="0" y2="0"/>
		</g>
		<g style="--index: 1;">
			<path d="M94,0" tabindex="0">
				<title>18qg9ndx</title>
			</path>
			<rect x="94" y="0" width="0" height="0"/>
			<path d="M94,0L94,0" tabindex="0">
				<title>00:30.36 on 2018-04-13</title>
			</path>
			<line x1="0" y1="0" x2="2246" y2="0"/>
			<line x1="94" y1="3036" x2="94" y2="0"/>
		</g>
		<g style="--index: 2;">
			<path d="M105,1234L962,1234L962,1638" tabindex="0">
				<title>y8dgoe98</title>
			</path>
			<rect x="105" y="1234" width="857" height="404"/>
			<path d="M105,1234L105,1234" tabindex="0">
				<title>00:18.02 on 2018-04-24</title>
			</path>
			<line x1="0" y1="1234" x2="2246" y2="1234"/>
			<line x1="105" y1="3036" x2="105" y2="0"/>
			<path d="M962,1638L962,1638" tabindex="0">
				<title>00:13.98 on 2020-08-28</title>
			</path>
			<line x1="0" y1="1638" x2="2246" y2="1638"/>
			<line x1="962" y1="3036" x2="962" y2="0"/>
		</g>
		<g style="--index: 3;">
			<path d="M864,1188L922,1188L922,1377L958,1377L958,1480L1102,1480L1102,1599" tabindex="0">
				<title>x356nrej</title>
			</path>
			<rect x="864" y="1188" width="238" height="411"/>
			<path d="M864,1188L864,1188" tabindex="0">
				<title>00:18.48 on 2020-05-22</title>
			</path>
			<line x1="0" y1="1188" x2="2246" y2="1188"/>
			<line x1="864" y1="3036" x2="864" y2="0"/>
			<path d="M922,1377L922,1377" tabindex="0">
				<title>00:16.59 on 2020-07-19</title>
			</path>
			<line x1="0" y1="1377" x2="2246" y2="1377"/>
			<line x1="922" y1="3036" x2="922" y2="0"/>
			<path d="M958,1480L958,1480" tabindex="0">
				<title>00:15.56 on 2020-08-24</title>
			</path>
			<line x1="0" y1="1480" x2="2246" y2="1480"/>
			<line x1="958" y1="3036" x2="958" y2="0"/>
			<path d="M1102,1599L1102,1599" tabindex="0">
				<title>00:14.37 on 2021-01-15</title>
			</path>
			<line x1="0" y1="1599" x2="2246" y2="1599"/>
			<line x1="1102" y1="3036" x2="1102" y2="0"/>
		</g>
		<g style="--index: 4;">
			<path d="M922,1270L924,1270L924,1573" tabindex="0">
				<title>18vm2258</title>
			</path>
			<rect x="922" y="1270" width="2" height="303"/>
			<path d="M922,1270L922,1270" tabindex="0">
				<title>00:17.66 on 2020-07-19</title>
			</path>
			<line x1="0" y1="1270" x2="2246" y2="1270"/>
			<line x1="922" y1="3036" x2="922" y2="0"/>
			<path d="M924,1573L924,1573" tabindex="0">
				<title>00:14.63 on 2020-07-21</title>
			</path>
			<line x1="0" y1="1573" x2="2246" y2="1573"/>
			<line x1="924" y1="3036" x2="924" y2="0"/>
		</g>
		<g style="--index: 5;">
			<path d="M1039,1213L1181,1213L1181,1381" tabindex="0">
				<title>j0np7or8</title>
			</path>
			<rect x="1039" y="1213" width="142" height="168"/>
			<path d="M1039,1213L1039,1213" tabindex="0">
				<title>00:18.23 on 2020-11-13</title>
			</path>
			<line x1="0" y1="1213" x2="2246" y2="1213"/>
			<line x1="1039" y1="3036" x2="1039" y2="0"/>
			<path d="M1181,1381L1181,1381" tabindex="0">
				<title>00:16.55 on 2021-04-04</title>
			</path>
			<line x1="0" y1="1381" x2="2246" y2="1381"/>
			<line x1="1181" y1="3036" x2="1181" y2="0"/>
		</g>
		<g style="--index: 6;">
			<path d="M1046,1698L1173,1698L1173,1770L1633,1770L1633,1951L1640,1951L1640,1985" tabindex="0">
				<title>j2yr9lp8</title>
			</path>
			<rect x="1046" y="1698" width="594" height="287"/>
			<path d="M1046,1698L1046,1698" tabindex="0">
				<title>00:13.38 on 2020-11-20</title>
			</path>
			<line x1="0" y1="1698" x2="2246" y2="1698"/>
			<line x1="1046" y1="3036" x2="1046" y2="0"/>
			<path d="M1173,1770L1173,1770" tabindex="0">
				<title>00:12.66 on 2021-03-27</title>
			</path>
			<line x1="0" y1="1770" x2="2246" y2="1770"/>
			<line x1="1173" y1="3036" x2="1173" y2="0"/>
			<path d="M1633,1951L1633,1951" tabindex="0">
				<title>00:10.85 on 2022-06-30</title>
			</path>
			<line x1="0" y1="1951" x2="2246" y2="1951"/>
			<line x1="1633" y1="3036" x2="1633" y2="0"/>
			<path d="M1640,1985L1640,1985" tabindex="0">
				<title>00:10.51 on 2022-07-07</title>
			</path>
			<line x1="0" y1="1985" x2="2246" y2="1985"/>
			<line x1="1640" y1="3036" x2="1640" y2="0"/>
		</g>
		<g style="--index: 7;">
			<path d="M1049,1460L1097,1460L1097,1649" tabindex="0">
				<title>x7q00668</title>
			</path>
			<rect x="1049" y="1460" width="48" height="189"/>
			<path d="M1049,1460L1049,1460" tabindex="0">
				<title>00:15.76 on 2020-11-23</title>
			</path>
			<line x1="0" y1="1460" x2="2246" y2="1460"/>
			<line x1="1049" y1="3036" x2="1049" y2="0"/>
			<path d="M1097,1649L1097,1649" tabindex="0">
				<title>00:13.87 on 2021-01-10</title>
			</path>
			<line x1="0" y1="1649" x2="2246" y2="1649"/>
			<line x1="1097" y1="3036" x2="1097" y2="0"/>
		</g>
		<g style="--index: 8;">
			<path d="M1071,1333" tabindex="0">
				<title>86ngl5wx</title>
			</path>
			<rect x="1071" y="1333" width="0" height="0"/>
			<path d="M1071,1333L1071,1333" tabindex="0">
				<title>00:17.03 on 2020-12-15</title>
			</path>
			<line x1="0" y1="1333" x2="2246" y2="1333"/>
			<line x1="1071" y1="3036" x2="1071" y2="0"/>
		</g>
		<g style="--index: 9;">
			<path d="M1075,1707" tabindex="0">
				<title>xkon93k8</title>
			</path>
			<rect x="1075" y="1707" width="0" height="0"/>
			<path d="M1075,1707L1075,1707" tabindex="0">
				<title>00:13.29 on 2020-12-19</title>
			</path>
			<line x1="0" y1="1707" x2="2246" y2="1707"/>
			<line x1="1075" y1="3036" x2="1075" y2="0"/>
		</g>
		<g style="--index: 10;">
			<path d="M1148,626" tabindex="0">
				<title>8grypo7x</title>
			</path>
			<rect x="1148" y="626" width="0" height="0"/>
			<path d="M1148,626L1148,626" tabindex="0">
				<title>00:24.10 on 2021-03-02</title>
			</path>
			<line x1="0" y1="626" x2="2246" y2="626"/>
			<line x1="1148" y1="3036" x2="1148" y2="0"/>
		</g>
		<g style="--index: 11;">
			<path d="M1259,138" tabindex="0">
				<title>x7mk3z6x</title>
			</path>
			<rect x="1259" y="138" width="0" height="0"/>
			<path d="M1259,138L1259,138" tabindex="0">
				<title>00:28.98 on 2021-06-21</title>
			</path>
			<line x1="0" y1="138" x2="2246" y2="138"/>
			<line x1="1259" y1="3036" x2="1259" y2="0"/>
		</g>
		<g style="--index: 12;">
			<path d="M1541,1401" tabindex="0">
				<title>x33q437x</title>
			</path>
			<rect x="1541" y="1401" width="0" height="0"/>
			<path d="M1541,1401L1541,1401" tabindex="0">
				<title>00:16.35 on 2022-03-30</title>
			</path>
			<line x1="0" y1="1401" x2="2246" y2="1401"/>
			<line x1="1541" y1="3036" x2="1541" y2="0"/>
		</g>
		<g style="--index: 13;">
			<path d="M1605,1339L1607,1339L1607,1661" tabindex="0">
				<title>866k6d38</title>
			</path>
			<rect x="1605" y="1339" width="2" height="322"/>
			<path d="M1605,1339L1605,1339" tabindex="0">
				<title>00:16.97 on 2022-06-02</title>
			</path>
			<line x1="0" y1="1339" x2="2246" y2="1339"/>
			<line x1="1605" y1="3036" x2="1605" y2="0"/>
			<path d="M1607,1661L1607,1661" tabindex="0">
				<title>00:13.75 on 2022-06-04</title>
			</path>
			<line x1="0" y1="1661" x2="2246" y2="1661"/>
			<line x1="1607" y1="3036" x2="1607" y2="0"/>
		</g>
		<g style="--index: 14;">
			<path d="M1606,995" tabindex="0">
				<title>8r36oog8</title>
			</path>
			<rect x="1606" y="995" width="0" height="0"/>
			<path d="M1606,995L1606,995" tabindex="0">
				<title>00:20.41 on 2022-06-03</title>
			</path>
			<line x1="0" y1="995" x2="2246" y2="995"/>
			<line x1="1606" y1="3036" x2="1606" y2="0"/>
		</g>
		<g style="--index: 15;">
			<path d="M1633,1777L1635,1777L1635,1963" tabindex="0">
				<title>xk3m6d68</title>
			</path>
			<rect x="1633" y="1777" width="2" height="186"/>
			<path d="M1633,1777L1633,1777" tabindex="0">
				<title>00:12.59 on 2022-06-30</title>
			</path>
			<line x1="0" y1="1777" x2="2246" y2="1777"/>
			<line x1="1633" y1="3036" x2="1633" y2="0"/>
			<path d="M1635,1963L1635,1963" tabindex="0">
				<title>00:10.73 on 2022-07-02</title>
			</path>
			<line x1="0" y1="1963" x2="2246" y2="1963"/>
			<line x1="1635" y1="3036" x2="1635" y2="0"/>
		</g>
		<g style="--index: 16;">
			<path d="M1633,1771" tabindex="0">
				<title>jpog5w58</title>
			</path>
			<rect x="1633" y="1771" width="0" height="0"/>
			<path d="M1633,1771L1633,1771" tabindex="0">
				<title>00:12.65 on 2022-06-30</title>
			</path>
			<line x1="0" y1="1771" x2="2246" y2="1771"/>
			<line x1="1633" y1="3036" x2="1633" y2="0"/>
		</g>
		<g style="--index: 17;">
			<path d="M1642,1508" tabindex="0">
				<title>j4235d5x</title>
			</path>
			<rect x="1642" y="1508" width="0" height="0"/>
			<path d="M1642,1508L1642,1508" tabindex="0">
				<title>00:15.28 on 2022-07-09</title>
			</path>
			<line x1="0" y1="1508" x2="2246" y2="1508"/>
			<line x1="1642" y1="3036" x2="1642" y2="0"/>
		</g>
		<g style="--index: 18;">
			<path d="M1647,744" tabindex="0">
				<title>jooe13ej</title>
			</path>
			<rect x="1647" y="744" width="0" height="0"/>
			<path d="M1647,744L1647,744" tabindex="0">
				<title>00:22.92 on 2022-07-14</title>
			</path>
			<line x1="0" y1="744" x2="2246" y2="744"/>
			<line x1="1647" y1="3036" x2="1647" y2="0"/>
		</g>
		<g style="--index: 19;">
			<path d="M1738,1352" tabindex="0">
				<title>xk1oze6j</title>
			</path>
			<rect x="1738" y="1352" width="0" height="0"/>
			<path d="M1738,1352L1738,1352" tabindex="0">
				<title>00:16.84 on 2022-10-13</title>
			</path>
			<line x1="0" y1="1352" x2="2246" y2="1352"/>
			<line x1="1738" y1="3036" x2="1738" y2="0"/>
		</g>
		<g style="--index: 20;">
			<path d="M1743,1397" tabindex="0">
				<title>8v27295j</title>
			</path>
			<rect x="1743" y="1397" width="0" height="0"/>
			<path d="M1743,1397L1743,1397" tabindex="0">
				<title>00:16.39 on 2022-10-18</title>
			</path>
			<line x1="0" y1="1397" x2="2246" y2="1397"/>
			<line x1="1743" y1="3036" x2="1743" y2="0"/>
		</g>
		<g style="--index: 21;">
			<path d="M1797,1182" tabindex="0">
				<title>j9p7powx</title>
			</path>
			<rect x="1797" y="1182" width="0" height="0"/>
			<path d="M1797,1182L1797,1182" tabindex="0">
				<title>00:18.54 on 2022-12-11</title>
			</path>
			<line x1="0" y1="1182" x2="2246" y2="1182"/>
			<line x1="1797" y1="3036" x2="1797" y2="0"/>
		</g>
		<g style="--index: 22;">
			<path d="M1799,1279" tabindex="0">
				<title>8g0kl3yx</title>
			</path>
			<rect x="1799" y="1279" width="0" height="0"/>
			<path d="M1799,1279L1799,1279" tabindex="0">
				<title>00:17.57 on 2022-12-13</title>
			</path>
			<line x1="0" y1="1279" x2="2246" y2="1279"/>
			<line x1="1799" y1="3036" x2="1799" y2="0"/>
		</g>
		<g style="--index: 23;">
			<path d="M1804,1022" tabindex="0">
				<title>8qoz5eoj</title>
			</path>
			<rect x="1804" y="1022" width="0" height="0"/>
			<path d="M1804,1022L1804,1022" tabindex="0">
				<title>00:20.14 on 2022-12-18</title>
			</path>
			<line x1="0" y1="1022" x2="2246" y2="1022"/>
			<line x1="1804" y1="3036" x2="1804" y2="0"/>
		</g>
		<g style="--index: 24;">
			<path d="M1912,1989" tabindex="0">
				<title>jn2m23wj</title>
			</path>
			<rect x="1912" y="1989" width="0" height="0"/>
			<path d="M1912,1989L1912,1989" tabindex="0">
				<title>00:10.47 on 2023-04-05</title>
			</path>
			<line x1="0" y1="1989" x2="2246" y2="1989"/>
			<line x1="1912" y1="3036" x2="1912" y2="0"/>
		</g>
		<g style="--index: 25;">
			<path d="M1938,446" tabindex="0">
				<title>8ew394p8</title>
			</path>
			<rect x="1938" y="446" width="0" height="0"/>
			<path d="M1938,446L1938,446" tabindex="0">
				<title>00:25.90 on 2023-05-01</title>
			</path>
			<line x1="0" y1="446" x2="2246" y2="446"/>
			<line x1="1938" y1="3036" x2="1938" y2="0"/>
		</g>
		<g style="--index: 26;">
			<path d="M1943,980" tabindex="0">
				<title>jmzwyzex</title>
			</path>
			<rect x="1943" y="980" width="0" height="0"/>
			<path d="M1943,980L1943,980" tabindex="0">
				<title>00:20.56 on 2023-05-06</title>
			</path>
			<line x1="0" y1="980" x2="2246" y2="980"/>
			<line x1="1943" y1="3036" x2="1943" y2="0"/>
		</g>
		<g style="--index: 27;">
			<path d="M1975,1594" tabindex="0">
				<title>8w045k3j</title>
			</path>
			<rect x="1975" y="1594" width="0" height="0"/>
			<path d="M1975,1594L1975,1594" tabindex="0">
				<title>00:14.42 on 2023-06-07</title>
			</path>
			<line x1="0" y1="1594" x2="2246" y2="1594"/>
			<line x1="1975" y1="3036" x2="1975" y2="0"/>
		</g>
		<g style="--index: 28;">
			<path d="M2112,1422" tabindex="0">
				<title>86r6og08</title>
			</path>
			<rect x="2112" y="1422" width="0" height="0"/>
			<path d="M2112,1422L2112,1422" tabindex="0">
				<title>00:16.14 on 2023-10-22</title>
			</path>
			<line x1="0" y1="1422" x2="2246" y2="1422"/>
			<line x1="2112" y1="3036" x2="2112" y2="0"/>
		</g>
		<g style="--index: 29;">
			<path d="M2133,668" tabindex="0">
				<title>8w3gpdvj</title>
			</path>
			<rect x="2133" y="668" width="0" height="0"/>
			<path d="M2133,668L2133,668" tabindex="0">
				<title>00:23.68 on 2023-11-12</title>
			</path>
			<line x1="0" y1="668" x2="2246" y2="668"/>
			<line x1="2133" y1="3036" x2="2133" y2="0"/>
		</g>
		<g style="--index: 30;">
			<path d="M2184,597L2194,597L2194,1147" tabindex="0">
				<title>8dpl6o58</title>
			</path>
			<rect x="2184" y="597" width="10" height="550"/>
			<path d="M2184,597L2184,597" tabindex="0">
				<title>00:24.39 on 2024-01-02</title>
			</path>
			<line x1="0" y1="597" x2="2246" y2="597"/>
			<line x1="2184" y1="3036" x2="2184" y2="0"/>
			<path d="M2194,1147L2194,1147" tabindex="0">
				<title>00:18.89 on 2024-01-12</title>
			</path>
			<line x1="0" y1="1147" x2="2246" y2="1147"/>
			<line x1="2194" y1="3036" x2="2194" y2="0"/>
		</g>
		<g style="--index: 31;">
			<path d="M2246,925" tabindex="0">
				<title>8w3l21qj</title>
			</path>
			<rect x="2246" y="925" width="0" height="0"/>
			<path d="M2246,925L2246,925" tabindex="0">
				<title>00:21.11 on 2024-03-04</title>
			</path>
			<line x1="0" y1="925" x2="2246" y2="925"/>
			<line x1="2246" y1="3036" x2="2246" y2="0"/>
		</g>
	</g>
</svg>
