<svg xmlns="http://www.w3.org/2000/svg" viewBox="0 0 2060 35527" preserveAspectRatio="none" lang="en" style="color-scheme: dark light;">
		<title>Time by player for leaderboard l_o9xo3rp9-9d8eewld-7896y468.5lmkgmjq</title>
		<style>
			svg {
				background: var(--canvas-background);
				fill: var(--canvas-background);
				stroke: var(--canvas-foreground);
				stroke-linejoin: round;
				stroke-linecap: round;
			}
			g &gt; path[tabindex] {
				vector-effect: non-scaling-stroke;
				fill: none;
				stroke: hsl(calc(var(--index) / var(--count) * 360), 50%, 50%);
				cursor: help;
			}
			g:is(:hover, :focus-within) &gt; path[tabindex] {
				stroke: var(--canvas-foreground);
			}
			g &gt; path[tabindex]:is(:hover, :focus-within) {
				outline: 0;
			}
			g &gt; path[tabindex]:first-of-type {
				stroke-width: 2;
			}
			g &gt; path[tabindex]:first-of-type:is(:hover, :focus-within) {
				stroke-width: 4;
			}
			g &gt; path[tabindex]:first-of-type:not(:last-of-type) {
				stroke-dasharray: 4 8;
			}
			g &gt; rect {
				vector-effect: non-scaling-stroke;
				fill: none;
				stroke: none;
				pointer-events: none;
			}
			g &gt; path[tabindex]:first-of-type:is(:hover, :focus-within) + rect {
				fill: var(--highlighted);
			}
			g &gt; path[tabindex]:first-of-type ~ path[tabindex] {
				stroke-width: 8;
			}
			g &gt; path[tabindex]:first-of-type ~ path[tabindex]:is(:hover, :focus-within) {
				stroke-width: 16;
			}
			g &gt; line {
				vector-effect: non-scaling-stroke;
				fill: none;
				stroke: none;
				stroke-width: 2;
				stroke-dasharray: 4 8;
				pointer-events: none;
			}
			g &gt; path[tabindex]:first-of-type:is(:hover, :focus-within) + rect + path[tabindex] + line,
			g &gt; path[tabindex]:first-of-type:is(:hover, :focus-within) + rect + path[tabindex] + line + line,
			g &gt; path[tabindex]:first-of-type:is(:hover, :focus-within) ~ path[tabindex]:last-of-type + line,
			g &gt; path[tabindex]:first-of-type:is(:hover, :focus-within) ~ path[tabindex]:last-of-type + line + line,
			g &gt; path[tabindex]:first-of-type ~ path[tabindex]:is(:hover, :focus-within) + line,
			g &gt; path[tabindex]:first-of-type ~ path[tabindex]:is(:hover, :focus-within) + line + line {
				stroke: var(--faded);
			}
			@media (prefers-color-scheme: dark) {
				:root {
					--canvas-background: #000;
					--canvas-foreground: #ccc;
					--highlighted: #6663;
					--faded: #9993;
				}
			}
			@media (prefers-color-scheme: light) {
				:root {
					--canvas-background: #fff;
					--canvas-foreground: #333;
					--highlighted: #9993;
					--faded: #6663;
				}
			}
		</style>
		<g style="--count: 12;">
		<g style="--index: 0;">
			<path d="M0,0L67,0L67,7044" tabindex="0">
				<title>y8dgoe98</title>
			</path>
			<rect x="0" y="0" width="67" height="7044"/>
			<path d="M0,0L0,0" tabindex="0">
				<title>05:55.27 on 2018-07-13</title>
			</path>
			<line x1="0" y1="0" x2="2060" y2="0"/>
			<line x1="0" y1="35527" x2="0" y2="0"/>
			<path d="M67,7044L67,7044" tabindex="0">
				<title>04:44.83 on 2018-09-18</title>
			</path>
			<line x1="0" y1="7044" x2="2060" y2="7044"/>
			<line x1="67" y1="35527" x2="67" y2="0"/>
		</g>
		<g style="--index: 1;">
			<path d="M689,15134" tabindex="0">
				<title>x356nrej</title>
			</path>
			<rect x="689" y="15134" width="0" height="0"/>
			<path d="M689,15134L689,15134" tabindex="0">
				<title>03:23.93 on 2020-06-01</title>
			</path>
			<line x1="0" y1="15134" x2="2060" y2="15134"/>
			<line x1="689" y1="35527" x2="689" y2="0"/>
		</g>
		<g style="--index: 2;">
			<path d="M777,10185" tabindex="0">
				<title>8dwnyqoj</title>
			</path>
			<rect x="777" y="10185" width="0" height="0"/>
			<path d="M777,10185L777,10185" tabindex="0">
				<title>04:13.42 on 2020-08-28</title>
			</path>
			<line x1="0" y1="10185" x2="2060" y2="10185"/>
			<line x1="777" y1="35527" x2="777" y2="0"/>
		</g>
		<g style="--index: 3;">
			<path d="M842,18472L911,18472L911,21062L926,21062L926,21462" tabindex="0">
				<title>xkon93k8</title>
			</path>
			<rect x="842" y="18472" width="84" height="2990"/>
			<path d="M842,18472L842,18472" tabindex="0">
				<title>02:50.55 on 2020-11-01</title>
			</path>
			<line x1="0" y1="18472" x2="2060" y2="18472"/>
			<line x1="842" y1="35527" x2="842" y2="0"/>
			<path d="M911,21062L911,21062" tabindex="0">
				<title>02:24.65 on 2021-01-09</title>
			</path>
			<line x1="0" y1="21062" x2="2060" y2="21062"/>
			<line x1="911" y1="35527" x2="911" y2="0"/>
			<path d="M926,21462L926,21462" tabindex="0">
				<title>02:20.65 on 2021-01-24</title>
			</path>
			<line x1="0" y1="21462" x2="2060" y2="21462"/>
			<line x1="926" y1="35527" x2="926" y2="0"/>
		</g>
		<g style="--index: 4;">
			<path d="M868,15636L909,15636L909,19452" tabindex="0">
				<title>x7q00668</title>
			</path>
			<rect x="868" y="15636" width="41" height="3816"/>
			<path d="M868,15636L868,15636" tabindex="0">
				<title>03:18.91 on 2020-11-27</title>
			</path>
			<line x1="0" y1="15636" x2="2060" y2="15636"/>
			<line x1="868" y1="35527" x2="868" y2="0"/>
			<path d="M909,19452L909,19452" tabindex="0">
				<title>02:40.75 on 2021-01-07</title>
			</path>
			<line x1="0" y1="19452" x2="2060" y2="19452"/>
			<line x1="909" y1="35527" x2="909" y2="0"/>
		</g>
		<g style="--index: 5;">
			<path d="M897,16776L919,16776L919,21399" tabindex="0">
				<title>814zn7l8</title>
			</path>
			<rect x="897" y="16776" width="22" height="4623"/>
			<path d="M897,16776L897,16776" tabindex="0">
				<title>03:07.51 on 2020-12-26</title>
			</path>
			<line x1="0" y1="16776" x2="2060" y2="16776"/>
			<line x1="897" y1="35527" x2="897" y2="0"/>
			<path d="M919,21399L919,21399" tabindex="0">
				<title>02:21.28 on 2021-01-17</title>
			</path>
			<line x1="0" y1="21399" x2="2060" y2="21399"/>
			<line x1="919" y1="35527" x2="919" y2="0"/>
		</g>
		<g style="--index: 6;">
			<path d="M905,14662" tabindex="0">
				<title>j0np7or8</title>
			</path>
			<rect x="905" y="14662" width="0" height="0"/>
			<path d="M905,14662L905,14662" tabindex="0">
				<title>03:28.65 on 2021-01-03</title>
			</path>
			<line x1="0" y1="14662" x2="2060" y2="14662"/>
			<line x1="905" y1="35527" x2="905" y2="0"/>
		</g>
		<g style="--index: 7;">
			<path d="M970,22286" tabindex="0">
				<title>j2yr9lp8</title>
			</path>
			<rect x="970" y="22286" width="0" height="0"/>
			<path d="M970,22286L970,22286" tabindex="0">
				<title>02:12.41 on 2021-03-09</title>
			</path>
			<line x1="0" y1="22286" x2="2060" y2="22286"/>
			<line x1="970" y1="35527" x2="970" y2="0"/>
		</g>
		<g style="--index: 8;">
			<path d="M1454,22558" tabindex="0">
				<title>xk3m6d68</title>
			</path>
			<rect x="1454" y="22558" width="0" height="0"/>
			<path d="M1454,22558L1454,22558" tabindex="0">
				<title>02:09.69 on 2022-07-06</title>
			</path>
			<line x1="0" y1="22558" x2="2060" y2="22558"/>
			<line x1="1454" y1="35527" x2="1454" y2="0"/>
		</g>
		<g style="--index: 9;">
			<path d="M1457,18916L1823,18916L1823,22729" tabindex="0">
				<title>j4235d5x</title>
			</path>
			<rect x="1457" y="18916" width="366" height="3813"/>
			<path d="M1457,18916L1457,18916" tabindex="0">
				<title>02:46.11 on 2022-07-09</title>
			</path>
			<line x1="0" y1="18916" x2="2060" y2="18916"/>
			<line x1="1457" y1="35527" x2="1457" y2="0"/>
			<path d="M1823,22729L1823,22729" tabindex="0">
				<title>02:07.98 on 2023-07-10</title>
			</path>
			<line x1="0" y1="22729" x2="2060" y2="22729"/>
			<line x1="1823" y1="35527" x2="1823" y2="0"/>
		</g>
		<g style="--index: 10;">
			<path d="M1992,23562" tabindex="0">
				<title>jn2m23wj</title>
			</path>
			<rect x="1992" y="23562" width="0" height="0"/>
			<path d="M1992,23562L1992,23562" tabindex="0">
				<title>01:59.65 on 2023-12-26</title>
			</path>
			<line x1="0" y1="23562" x2="2060" y2="23562"/>
			<line x1="1992" y1="35527" x2="1992" y2="0"/>
		</g>
		<g style="--index: 11;">
			<path d="M2060,20124" tabindex="0">
				<title>8w3l21qj</title>
			</path>
			<rect x="2060" y="20124" width="0" height="0"/>
			<path d="M2060,20124L2060,20124" tabindex="0">
				<title>02:34.03 on 2024-03-03</title>
			</path>
			<line x1="0" y1="20124" x2="2060" y2="20124"/>
			<line x1="2060" y1="35527" x2="2060" y2="0"/>
		</g>
	</g>
</svg>
