<svg xmlns="http://www.w3.org/2000/svg" viewBox="0 0 2246 3036" preserveAspectRatio="none" lang="en" style="color-scheme: dark light;">
		<title>Time by player for leaderboard l_o9xo3rp9-9d8eewld-7896y468.81wp50oq</title>
		<style>
			svg {
				background: var(--canvas-background);
				fill: var(--canvas-background);
				stroke: var(--canvas-foreground);
				stroke-linejoin: round;
				stroke-linecap: round;
			}
			g &gt; path[tabindex] {
				vector-effect: non-scaling-stroke;
				fill: none;
				stroke: hsl(calc(var(--index) / var(--count) * 360), 50%, 50%);
				cursor: help;
			}
			g:is(:hover, :focus-within) &gt; path[tabindex] {
				stroke: var(--canvas-foreground);
			}
			g &gt; path[tabindex]:is(:hover, :focus-within) {
				outline: 0;
			}
			g &gt; path[tabindex]:first-of-type {
				stroke-width: 2;
			}
			g &gt; path[tabindex]:first-of-type:is(:hover, :focus-within) {
				stroke-width: 4;
			}
			g &gt; path[tabindex]:first-of-type:not(:last-of-type) {
				stroke-dasharray: 4 8;
			}
			g &gt; rect {
				vector-effect: non-scaling-stroke;
				fill: none;
				stroke: none;
				pointer-events: none;
			}
			g &gt; path[tabindex]:first-of-type:is(:hover, :focus-within) + rect {
				fill: var(--highlighted);
			}
			g &gt; path[tabindex]:first-of-type ~ path[tabindex] {
				stroke-width: 8;
			}
			g &gt; path[tabindex]:first-of-type ~ path[tabindex]:is(:hover, :focus-within) {
				stroke-width: 16;
			}
			g &gt; line {
				vector-effect: non-scaling-stroke;
				fill: none;
				stroke: none;
				stroke-width: 2;
				stroke-dasharray: 4 8;
				pointer-events: none;
			}
			g &gt; path[tabindex]:first-of-type:is(:hover, :focus-within) + rect + path[tabindex] + line,
			g &gt; path[tabindex]:first-of-type:is(:hover, :focus-within) + rect + path[tabindex] + line + line,
			g &gt; path[tabindex]:first-of-type:is(:hover, :focus-within) ~ path[tabindex]:last-of-type + line,
			g &gt; path[tabindex]:first-of-type:is(:hover, :focus-within) ~ path[tabindex]:last-of-type + line + line,
			g &gt; path[tabindex]:first-of-type ~ path[tabindex]:is(:hover, :focus-within) + line,
			g &gt; path[tabindex]:first-of-type ~ path[tabindex]:is(:hover, :focus-within) + line + line {
				stroke: var(--faded);
			}
			@media (prefers-color-scheme: dark) {
				:root {
					--canvas-background: #000;
					--canvas-foreground: #ccc;
					--highlighted: #6663;
					--faded: #9993;
				}
			}
			@media (prefers-color-scheme: light) {
				:root {
					--canvas-background: #fff;
					--canvas-foreground: #333;
					--highlighted: #9993;
					--faded: #6663;
				}
			}
		</style>
		<g transform="scale(1 -1)" transform-origin="center center" style="--count: 32;">
		<g style="--index: 0;">
			<path d="M0,1905" tabindex="0">
				<title>7j47r25j</title>
			</path>
			<rect x="0" y="1905" width="0" height="0"/>
			<path d="M0,1905L0,1905" tabindex="0">
				<title>00:19.05 on 2018-01-09</title>
			</path>
			<line x1="0" y1="1905" x2="2246" y2="1905"/>
			<line x1="0" y1="0" x2="0" y2="3036"/>
		</g>
		<g style="--index: 1;">
			<path d="M94,3036" tabindex="0">
				<title>18qg9ndx</title>
			</path>
			<rect x="94" y="3036" width="0" height="0"/>
			<path d="M94,3036L94,3036" tabindex="0">
				<title>00:30.36 on 2018-04-13</title>
			</path>
			<line x1="0" y1="3036" x2="2246" y2="3036"/>
			<line x1="94" y1="0" x2="94" y2="3036"/>
		</g>
		<g style="--index: 2;">
			<path d="M105,1802L962,1802L962,1398" tabindex="0">
				<title>y8dgoe98</title>
			</path>
			<rect x="105" y="1398" width="857" height="404"/>
			<path d="M105,1802L105,1802" tabindex="0">
				<title>00:18.02 on 2018-04-24</title>
			</path>
			<line x1="0" y1="1802" x2="2246" y2="1802"/>
			<line x1="105" y1="0" x2="105" y2="3036"/>
			<path d="M962,1398L962,1398" tabindex="0">
				<title>00:13.98 on 2020-08-28</title>
			</path>
			<line x1="0" y1="1398" x2="2246" y2="1398"/>
			<line x1="962" y1="0" x2="962" y2="3036"/>
		</g>
		<g style="--index: 3;">
			<path d="M864,1848L922,1848L922,1659L958,1659L958,1556L1102,1556L1102,1437" tabindex="0">
				<title>x356nrej</title>
			</path>
			<rect x="864" y="1437" width="238" height="411"/>
			<path d="M864,1848L864,1848" tabindex="0">
				<title>00:18.48 on 2020-05-22</title>
			</path>
			<line x1="0" y1="1848" x2="2246" y2="1848"/>
			<line x1="864" y1="0" x2="864" y2="3036"/>
			<path d="M922,1659L922,1659" tabindex="0">
				<title>00:16.59 on 2020-07-19</title>
			</path>
			<line x1="0" y1="1659" x2="2246" y2="1659"/>
			<line x1="922" y1="0" x2="922" y2="3036"/>
			<path d="M958,1556L958,1556" tabindex="0">
				<title>00:15.56 on 2020-08-24</title>
			</path>
			<line x1="0" y1="1556" x2="2246" y2="1556"/>
			<line x1="958" y1="0" x2="958" y2="3036"/>
			<path d="M1102,1437L1102,1437" tabindex="0">
				<title>00:14.37 on 2021-01-15</title>
			</path>
			<line x1="0" y1="1437" x2="2246" y2="1437"/>
			<line x1="1102" y1="0" x2="1102" y2="3036"/>
		</g>
		<g style="--index: 4;">
			<path d="M922,1766L924,1766L924,1463" tabindex="0">
				<title>18vm2258</title>
			</path>
			<rect x="922" y="1463" width="2" height="303"/>
			<path d="M922,1766L922,1766" tabindex="0">
				<title>00:17.66 on 2020-07-19</title>
			</path>
			<line x1="0" y1="1766" x2="2246" y2="1766"/>
			<line x1="922" y1="0" x2="922" y2="3036"/>
			<path d="M924,1463L924,1463" tabindex="0">
				<title>00:14.63 on 2020-07-21</title>
			</path>
			<line x1="0" y1="1463" x2="2246" y2="1463"/>
			<line x1="924" y1="0" x2="924" y2="3036"/>
		</g>
		<g style="--index: 5;">
			<path d="M1039,1823L1181,1823L1181,1655" tabindex="0">
				<title>j0np7or8</title>
			</path>
			<rect x="1039" y="1655" width="142" height="168"/>
			<path d="M1039,1823L1039,1823" tabindex="0">
				<title>00:18.23 on 2020-11-13</title>
			</path>
			<line x1="0" y1="1823" x2="2246" y2="1823"/>
			<line x1="1039" y1="0" x2="1039" y2="3036"/>
			<path d="M1181,1655L1181,1655" tabindex="0">
				<title>00:16.55 on 2021-04-04</title>
			</path>
			<line x1="0" y1="1655" x2="2246" y2="1655"/>
			<line x1="1181" y1="0" x2="1181" y2="3036"/>
		</g>
		<g style="--index: 6;">
			<path d="M1046,1338L1173,1338L1173,1266L1633,1266L1633,1085L1640,1085L1640,1051" tabindex="0">
				<title>j2yr9lp8</title>
			</path>
			<rect x="1046" y="1051" width="594" height="287"/>
			<path d="M1046,1338L1046,1338" tabindex="0">
				<title>00:13.38 on 2020-11-20</title>
			</path>
			<line x1="0" y1="1338" x2="2246" y2="1338"/>
			<line x1="1046" y1="0" x2="1046" y2="3036"/>
			<path d="M1173,1266L1173,1266" tabindex="0">
				<title>00:12.66 on 2021-03-27</title>
			</path>
			<line x1="0" y1="1266" x2="2246" y2="1266"/>
			<line x1="1173" y1="0" x2="1173" y2="3036"/>
			<path d="M1633,1085L1633,1085" tabindex="0">
				<title>00:10.85 on 2022-06-30</title>
			</path>
			<line x1="0" y1="1085" x2="2246" y2="1085"/>
			<line x1="1633" y1="0" x2="1633" y2="3036"/>
			<path d="M1640,1051L1640,1051" tabindex="0">
				<title>00:10.51 on 2022-07-07</title>
			</path>
			<line x1="0" y1="1051" x2="2246" y2="1051"/>
			<line x1="1640" y1="0" x2="1640" y2="3036"/>
		</g>
		<g style="--index: 7;">
			<path d="M1049,1576L1097,1576L1097,1387" tabindex="0">
				<title>x7q00668</title>
			</path>
			<rect x="1049" y="1387" width="48" height="189"/>
			<path d="M1049,1576L1049,1576" tabindex="0">
				<title>00:15.76 on 2020-11-23</title>
			</path>
			<line x1="0" y1="1576" x2="2246" y2="1576"/>
			<line x1="1049" y1="0" x2="1049" y2="3036"/>
			<path d="M1097,1387L1097,1387" tabindex="0">
				<title>00:13.87 on 2021-01-10</title>
			</path>
			<line x1="0" y1="1387" x2="2246" y2="1387"/>
			<line x1="1097" y1="0" x2="1097" y2="3036"/>
		</g>
		<g style="--index: 8;">
			<path d="M1071,1703" tabindex="0">
				<title>86ngl5wx</title>
			</path>
			<rect x="1071" y="1703" width="0" height="0"/>
			<path d="M1071,1703L1071,1703" tabindex="0">
				<title>00:17.03 on 2020-12-15</title>
			</path>
			<line x1="0" y1="1703" x2="2246" y2="1703"/>
			<line x1="1071" y1="0" x2="1071" y2="3036"/>
		</g>
		<g style="--index: 9;">
			<path d="M1075,1329" tabindex="0">
				<title>xkon93k8</title>
			</path>
			<rect x="1075" y="1329" width="0" height="0"/>
			<path d="M1075,1329L1075,1329" tabindex="0">
				<title>00:13.29 on 2020-12-19</title>
			</path>
			<line x1="0" y1="1329" x2="2246" y2="1329"/>
			<line x1="1075" y1="0" x2="1075" y2="3036"/>
		</g>
		<g style="--index: 10;">
			<path d="M1148,2410" tabindex="0">
				<title>8grypo7x</title>
			</path>
			<rect x="1148" y="2410" width="0" height="0"/>
			<path d="M1148,2410L1148,2410" tabindex="0">
				<title>00:24.10 on 2021-03-02</title>
			</path>
			<line x1="0" y1="2410" x2="2246" y2="2410"/>
			<line x1="1148" y1="0" x2="1148" y2="3036"/>
		</g>
		<g style="--index: 11;">
			<path d="M1259,2898" tabindex="0">
				<title>x7mk3z6x</title>
			</path>
			<rect x="1259" y="2898" width="0" height="0"/>
			<path d="M1259,2898L1259,2898" tabindex="0">
				<title>00:28.98 on 2021-06-21</title>
			</path>
			<line x1="0" y1="2898" x2="2246" y2="2898"/>
			<line x1="1259" y1="0" x2="1259" y2="3036"/>
		</g>
		<g style="--index: 12;">
			<path d="M1541,1635" tabindex="0">
				<title>x33q437x</title>
			</path>
			<rect x="1541" y="1635" width="0" height="0"/>
			<path d="M1541,1635L1541,1635" tabindex="0">
				<title>00:16.35 on 2022-03-30</title>
			</path>
			<line x1="0" y1="1635" x2="2246" y2="1635"/>
			<line x1="1541" y1="0" x2="1541" y2="3036"/>
		</g>
		<g style="--index: 13;">
			<path d="M1605,1697L1607,1697L1607,1375" tabindex="0">
				<title>866k6d38</title>
			</path>
			<rect x="1605" y="1375" width="2" height="322"/>
			<path d="M1605,1697L1605,1697" tabindex="0">
				<title>00:16.97 on 2022-06-02</title>
			</path>
			<line x1="0" y1="1697" x2="2246" y2="1697"/>
			<line x1="1605" y1="0" x2="1605" y2="3036"/>
			<path d="M1607,1375L1607,1375" tabindex="0">
				<title>00:13.75 on 2022-06-04</title>
			</path>
			<line x1="0" y1="1375" x2="2246" y2="1375"/>
			<line x1="1607" y1="0" x2="1607" y2="3036"/>
		</g>
		<g style="--index: 14;">
			<path d="M1606,2041" tabindex="0">
				<title>8r36oog8</title>
			</path>
			<rect x="1606" y="2041" width="0" height="0"/>
			<path d="M1606,2041L1606,2041" tabindex="0">
				<title>00:20.41 on 2022-06-03</title>
			</path>
			<line x1="0" y1="2041" x2="2246" y2="2041"/>
			<line x1="1606" y1="0" x2="1606" y2="3036"/>
		</g>
		<g style="--index: 15;">
			<path d="M1633,1259L1635,1259L1635,1073" tabindex="0">
				<title>xk3m6d68</title>
			</path>
			<rect x="1633" y="1073" width="2" height="186"/>
			<path d="M1633,1259L1633,1259" tabindex="0">
				<title>00:12.59 on 2022-06-30</title>
			</path>
			<line x1="0" y1="1259" x2="2246" y2="1259"/>
			<line x1="1633" y1="0" x2="1633" y2="3036"/>
			<path d="M1635,1073L1635,1073" tabindex="0">
				<title>00:10.73 on 2022-07-02</title>
			</path>
			<line x1="0" y1="1073" x2="2246" y2="1073"/>
			<line x1="1635" y1="0" x2="1635" y2="3036"/>
		</g>
		<g style="--index: 16;">
			<path d="M1633,1265" tabindex="0">
				<title>jpog5w58</title>
			</path>
			<rect x="1633" y="1265" width="0" height="0"/>
			<path d="M1633,1265L1633,1265" tabindex="0">
				<title>00:12.65 on 2022-06-30</title>
			</path>
			<line x1="0" y1="1265" x2="2246" y2="1265"/>
			<line x1="1633" y1="0" x2="1633" y2="3036"/>
		</g>
		<g style="--index: 17;">
			<path d="M1642,1528" tabindex="0">
				<title>j4235d5x</title>
			</path>
			<rect x="1642" y="1528" width="0" height="0"/>
			<path d="M1642,1528L1642,1528" tabindex="0">
				<title>00:15.28 on 2022-07-09</title>
			</path>
			<line x1="0" y1="1528" x2="2246" y2="1528"/>
			<line x1="1642" y1="0" x2="1642" y2="3036"/>
		</g>
		<g style="--index: 18;">
			<path d="M1647,2292" tabindex="0">
				<title>jooe13ej</title>
			</path>
			<rect x="1647" y="2292" width="0" height="0"/>
			<path d="M1647,2292L1647,2292" tabindex="0">
				<title>00:22.92 on 2022-07-14</title>
			</path>
			<line x1="0" y1="2292" x2="2246" y2="2292"/>
			<line x1="1647" y1="0" x2="1647" y2="3036"/>
		</g>
		<g style="--index: 19;">
			<path d="M1738,1684" tabindex="0">
				<title>xk1oze6j</title>
			</path>
			<rect x="1738" y="1684" width="0" height="0"/>
			<path d="M1738,1684L1738,1684" tabindex="0">
				<title>00:16.84 on 2022-10-13</title>
			</path>
			<line x1="0" y1="1684" x2="2246" y2="1684"/>
			<line x1="1738" y1="0" x2="1738" y2="3036"/>
		</g>
		<g style="--index: 20;">
			<path d="M1743,1639" tabindex="0">
				<title>8v27295j</title>
			</path>
			<rect x="1743" y="1639" width="0" height="0"/>
			<path d="M1743,1639L1743,1639" tabindex="0">
				<title>00:16.39 on 2022-10-18</title>
			</path>
			<line x1="0" y1="1639" x2="2246" y2="1639"/>
			<line x1="1743" y1="0" x2="1743" y2="3036"/>
		</g>
		<g style="--index: 21;">
			<path d="M1797,1854" tabindex="0">
				<title>j9p7powx</title>
			</path>
			<rect x="1797" y="1854" width="0" height="0"/>
			<path d="M1797,1854L1797,1854" tabindex="0">
				<title>00:18.54 on 2022-12-11</title>
			</path>
			<line x1="0" y1="1854" x2="2246" y2="1854"/>
			<line x1="1797" y1="0" x2="1797" y2="3036"/>
		</g>
		<g style="--index: 22;">
			<path d="M1799,1757" tabindex="0">
				<title>8g0kl3yx</title>
			</path>
			<rect x="1799" y="1757" width="0" height="0"/>
			<path d="M1799,1757L1799,1757" tabindex="0">
				<title>00:17.57 on 2022-12-13</title>
			</path>
			<line x1="0" y1="1757" x2="2246" y2="1757"/>
			<line x1="1799" y1="0" x2="1799" y2="3036"/>
		</g>
		<g style="--index: 23;">
			<path d="M1804,2014" tabindex="0">
				<title>8qoz5eoj</title>
			</path>
			<rect x="1804" y="2014" width="0" height="0"/>
			<path d="M1804,2014L1804,2014" tabindex="0">
				<title>00:20.14 on 2022-12-18</title>
			</path>
			<line x1="0" y1="2014" x2="2246" y2="2014"/>
			<line x1="1804" y1="0" x2="1804" y2="3036"/>
		</g>
		<g style="--index: 24;">
			<path d="M1912,1047" tabindex="0">
				<title>jn2m23wj</title>
			</path>
			<rect x="1912" y="1047" width="0" height="0"/>
			<path d="M1912,1047L1912,1047" tabindex="0">
				<title>00:10.47 on 2023-04-05</title>
			</path>
			<line x1="0" y1="1047" x2="2246" y2="1047"/>
			<line x1="1912" y1="0" x2="1912" y2="3036"/>
		</g>
		<g style="--index: 25;">
			<path d="M1938,2590" tabindex="0">
				<title>8ew394p8</title>
			</path>
			<rect x="1938" y="2590" width="0" height="0"/>
			<path d="M1938,2590L1938,2590" tabindex="0">
				<title>00:25.90 on 2023-05-01</title>
			</path>
			<line x1="0" y1="2590" x2="2246" y2="2590"/>
			<line x1="1938" y1="0" x2="1938" y2="3036"/>
		</g>
		<g style="--index: 26;">
			<path d="M1943,2056" tabindex="0">
				<title>jmzwyzex</title>
			</path>
			<rect x="1943" y="2056" width="0" height="0"/>
			<path d="M1943,2056L1943,2056" tabindex="0">
				<title>00:20.56 on 2023-05-06</title>
			</path>
			<line x1="0" y1="2056" x2="2246" y2="2056"/>
			<line x1="1943" y1="0" x2="1943" y2="3036"/>
		</g>
		<g style="--index: 27;">
			<path d="M1975,1442" tabindex="0">
				<title>8w045k3j</title>
			</path>
			<rect x="1975" y="1442" width="0" height="0"/>
			<path d="M1975,1442L1975,1442" tabindex="0">
				<title>00:14.42 on 2023-06-07</title>
			</path>
			<line x1="0" y1="1442" x2="2246" y2="1442"/>
			<line x1="1975" y1="0" x2="1975" y2="3036"/>
		</g>
		<g style="--index: 28;">
			<path d="M2112,1614" tabindex="0">
				<title>86r6og08</title>
			</path>
			<rect x="2112" y="1614" width="0" height="0"/>
			<path d="M2112,1614L2112,1614" tabindex="0">
				<title>00:16.14 on 2023-10-22</title>
			</path>
			<line x1="0" y1="1614" x2="2246" y2="1614"/>
			<line x1="2112" y1="0" x2="2112" y2="3036"/>
		</g>
		<g style="--index: 29;">
			<path d="M2133,2368" tabindex="0">
				<title>8w3gpdvj</title>
			</path>
			<rect x="2133" y="2368" width="0" height="0"/>
			<path d="M2133,2368L2133,2368" tabindex="0">
				<title>00:23.68 on 2023-11-12</title>
			</path>
			<line x1="0" y1="2368" x2="2246" y2="2368"/>
			<line x1="2133" y1="0" x2="2133" y2="3036"/>
		</g>
		<g style="--index: 30;">
			<path d="M2184,2439L2194,2439L2194,1889" tabindex="0">
				<title>8dpl6o58</title>
			</path>
			<rect x="2184" y="1889" width="10" height="550"/>
			<path d="M2184,2439L2184,2439" tabindex="0">
				<title>00:24.39 on 2024-01-02</title>
			</path>
			<line x1="0" y1="2439" x2="2246" y2="2439"/>
			<line x1="2184" y1="0" x2="2184" y2="3036"/>
			<path d="M2194,1889L2194,1889" tabindex="0">
				<title>00:18.89 on 2024-01-12</title>
			</path>
			<line x1="0" y1="1889" x2="2246" y2="1889"/>
			<line x1="2194" y1="0" x2="2194" y2="3036"/>
		</g>
		<g style="--index: 31;">
			<path d="M2246,2111" tabindex="0">
				<title>8w3l21qj</title>
			</path>
			<rect x="2246" y="2111" width="0" height="0"/>
			<path d="M2246,2111L2246,2111" tabindex="0">
				<title>00:21.11 on 2024-03-04</title>
			</path>
			<line x1="0" y1="2111" x2="2246" y2="2111"/>
			<line x1="2246" y1="0" x2="2246" y2="3036"/>
		</g>
	</g>
</svg>
