<svg xmlns="http://www.w3.org/2000/svg" viewBox="0 0 2276 2032" preserveAspectRatio="none" lang="en" style="color-scheme: dark light;">
		<title>Time by player for leaderboard l_o9xo3rp9-9d8eewld-7896y468.013856dq</title>
		<style>
			svg {
				background: var(--canvas-background);
				fill: var(--canvas-background);
				stroke: var(--canvas-foreground);
				stroke-linejoin: round;
				stroke-linecap: round;
			}
			g &gt; path[tabindex] {
				vector-effect: non-scaling-stroke;
				fill: none;
				stroke: hsl(calc(var(--index) / var(--count) * 360), 50%, 50%);
				cursor: help;
			}
			g:is(:hover, :focus-within) &gt; path[tabindex] {
				stroke: var(--canvas-foreground);
			}
			g &gt; path[tabindex]:is(:hover, :focus-within) {
				outline: 0;
			}
			g &gt; path[tabindex]:first-of-type {
				stroke-width: 2;
			}
			g &gt; path[tabindex]:first-of-type:is(:hover, :focus-within) {
				stroke-width: 4;
			}
			g &gt; path[tabindex]:first-of-type:not(:last-of-type) {
				stroke-dasharray: 4 8;
			}
			g &gt; rect {
				vector-effect: non-scaling-stroke;
				fill: none;
				stroke: none;
				pointer-events: none;
			}
			g &gt; path[tabindex]:first-of-type:is(:hover, :focus-within) + rect {
				fill: var(--highlighted);
			}
			g &gt; path[tabindex]:first-of-type ~ path[tabindex] {
				stroke-width: 8;
			}
			g &gt; path[tabindex]:first-of-type ~ path[tabindex]:is(:hover, :focus-within) {
				stroke-width: 16;
			}
			g &gt; line {
				vector-effect: non-scaling-stroke;
				fill: none;
				stroke: none;
				stroke-width: 2;
				stroke-dasharray: 4 8;
				pointer-events: none;
			}
			g &gt; path[tabindex]:first-of-type:is(:hover, :focus-within) + rect + path[tabindex] + line,
			g &gt; path[tabindex]:first-of-type:is(:hover, :focus-within) + rect + path[tabindex] + line + line,
			g &gt; path[tabindex]:first-of-type:is(:hover, :focus-within) ~ path[tabindex]:last-of-type + line,
			g &gt; path[tabindex]:first-of-type:is(:hover, :focus-within) ~ path[tabindex]:last-of-type + line + line,
			g &gt; path[tabindex]:first-of-type ~ path[tabindex]:is(:hover, :focus-within) + line,
			g &gt; path[tabindex]:first-of-type ~ path[tabindex]:is(:hover, :focus-within) + line + line {
				stroke: var(--faded);
			}
			@media (prefers-color-scheme: dark) {
				:root {
					--canvas-background: #000;
					--canvas-foreground: #ccc;
					--highlighted: #6663;
					--faded: #9993;
				}
			}
			@media (prefers-color-scheme: light) {
				:root {
					--canvas-background: #fff;
					--canvas-foreground: #333;
					--highlighted: #9993;
					--faded: #6663;
				}
			}
		</style>
		<g style="--count: 47;">
		<g style="--index: 0;">
			<path d="M0,1036" tabindex="0">
				<title>qj2pq1p8</title>
			</path>
			<rect x="0" y="1036" width="0" height="0"/>
			<path d="M0,1036L0,1036" tabindex="0">
				<title>00:09.96 on 2018-01-08</title>
			</path>
			<line x1="0" y1="1036" x2="2276" y2="1036"/>
			<line x1="0" y1="2032" x2="0" y2="0"/>
		</g>
		<g style="--index: 1;">
			<path d="M1,1093" tabindex="0">
				<title>e8e935oj</title>
			</path>
			<rect x="1" y="1093" width="0" height="0"/>
			<path d="M1,1093L1,1093" tabindex="0">
				<title>00:09.39 on 2018-01-09</title>
			</path>
			<line x1="0" y1="1093" x2="2276" y2="1093"/>
			<line x1="1" y1="2032" x2="1" y2="0"/>
		</g>
		<g style="--index: 2;">
			<path d="M1,1090" tabindex="0">
				<title>7j47r25j</title>
			</path>
			<rect x="1" y="1090" width="0" height="0"/>
			<path d="M1,1090L1,1090" tabindex="0">
				<title>00:09.42 on 2018-01-09</title>
			</path>
			<line x1="0" y1="1090" x2="2276" y2="1090"/>
			<line x1="1" y1="2032" x2="1" y2="0"/>
		</g>
		<g style="--index: 3;">
			<path d="M5,1104L14,1104L14,1135" tabindex="0">
				<title>5j5gggn8</title>
			</path>
			<rect x="5" y="1104" width="9" height="31"/>
			<path d="M5,1104L5,1104" tabindex="0">
				<title>00:09.28 on 2018-01-13</title>
			</path>
			<line x1="0" y1="1104" x2="2276" y2="1104"/>
			<line x1="5" y1="2032" x2="5" y2="0"/>
			<path d="M14,1135L14,1135" tabindex="0">
				<title>00:08.97 on 2018-01-22</title>
			</path>
			<line x1="0" y1="1135" x2="2276" y2="1135"/>
			<line x1="14" y1="2032" x2="14" y2="0"/>
		</g>
		<g style="--index: 4;">
			<path d="M71,1063" tabindex="0">
				<title>18qg9ndx</title>
			</path>
			<rect x="71" y="1063" width="0" height="0"/>
			<path d="M71,1063L71,1063" tabindex="0">
				<title>00:09.69 on 2018-03-20</title>
			</path>
			<line x1="0" y1="1063" x2="2276" y2="1063"/>
			<line x1="71" y1="2032" x2="71" y2="0"/>
		</g>
		<g style="--index: 5;">
			<path d="M104,1152L965,1152L965,1191L1143,1191L1143,1236" tabindex="0">
				<title>y8dgoe98</title>
			</path>
			<rect x="104" y="1152" width="1039" height="84"/>
			<path d="M104,1152L104,1152" tabindex="0">
				<title>00:08.80 on 2018-04-22</title>
			</path>
			<line x1="0" y1="1152" x2="2276" y2="1152"/>
			<line x1="104" y1="2032" x2="104" y2="0"/>
			<path d="M965,1191L965,1191" tabindex="0">
				<title>00:08.41 on 2020-08-30</title>
			</path>
			<line x1="0" y1="1191" x2="2276" y2="1191"/>
			<line x1="965" y1="2032" x2="965" y2="0"/>
			<path d="M1143,1236L1143,1236" tabindex="0">
				<title>00:07.96 on 2021-02-24</title>
			</path>
			<line x1="0" y1="1236" x2="2276" y2="1236"/>
			<line x1="1143" y1="2032" x2="1143" y2="0"/>
		</g>
		<g style="--index: 6;">
			<path d="M595,910" tabindex="0">
				<title>j9rlkzoj</title>
			</path>
			<rect x="595" y="910" width="0" height="0"/>
			<path d="M595,910L595,910" tabindex="0">
				<title>00:11.22 on 2019-08-26</title>
			</path>
			<line x1="0" y1="910" x2="2276" y2="910"/>
			<line x1="595" y1="2032" x2="595" y2="0"/>
		</g>
		<g style="--index: 7;">
			<path d="M870,1174" tabindex="0">
				<title>x356nrej</title>
			</path>
			<rect x="870" y="1174" width="0" height="0"/>
			<path d="M870,1174L870,1174" tabindex="0">
				<title>00:08.58 on 2020-05-27</title>
			</path>
			<line x1="0" y1="1174" x2="2276" y2="1174"/>
			<line x1="870" y1="2032" x2="870" y2="0"/>
		</g>
		<g style="--index: 8;">
			<path d="M1029,1077L1104,1077L1104,1161L1182,1161L1182,1169" tabindex="0">
				<title>j0np7or8</title>
			</path>
			<rect x="1029" y="1077" width="153" height="92"/>
			<path d="M1029,1077L1029,1077" tabindex="0">
				<title>00:09.55 on 2020-11-02</title>
			</path>
			<line x1="0" y1="1077" x2="2276" y2="1077"/>
			<line x1="1029" y1="2032" x2="1029" y2="0"/>
			<path d="M1104,1161L1104,1161" tabindex="0">
				<title>00:08.71 on 2021-01-16</title>
			</path>
			<line x1="0" y1="1161" x2="2276" y2="1161"/>
			<line x1="1104" y1="2032" x2="1104" y2="0"/>
			<path d="M1182,1169L1182,1169" tabindex="0">
				<title>00:08.63 on 2021-04-04</title>
			</path>
			<line x1="0" y1="1169" x2="2276" y2="1169"/>
			<line x1="1182" y1="2032" x2="1182" y2="0"/>
		</g>
		<g style="--index: 9;">
			<path d="M1047,1201L1151,1201L1151,1245L1173,1245L1173,1253L1602,1253L1602,1271" tabindex="0">
				<title>j2yr9lp8</title>
			</path>
			<rect x="1047" y="1201" width="555" height="70"/>
			<path d="M1047,1201L1047,1201" tabindex="0">
				<title>00:08.31 on 2020-11-20</title>
			</path>
			<line x1="0" y1="1201" x2="2276" y2="1201"/>
			<line x1="1047" y1="2032" x2="1047" y2="0"/>
			<path d="M1151,1245L1151,1245" tabindex="0">
				<title>00:07.87 on 2021-03-04</title>
			</path>
			<line x1="0" y1="1245" x2="2276" y2="1245"/>
			<line x1="1151" y1="2032" x2="1151" y2="0"/>
			<path d="M1173,1253L1173,1253" tabindex="0">
				<title>00:07.79 on 2021-03-26</title>
			</path>
			<line x1="0" y1="1253" x2="2276" y2="1253"/>
			<line x1="1173" y1="2032" x2="1173" y2="0"/>
			<path d="M1602,1271L1602,1271" tabindex="0">
				<title>00:07.61 on 2022-05-29</title>
			</path>
			<line x1="0" y1="1271" x2="2276" y2="1271"/>
			<line x1="1602" y1="2032" x2="1602" y2="0"/>
		</g>
		<g style="--index: 10;">
			<path d="M1047,1114L1077,1114L1077,1177" tabindex="0">
				<title>x7q00668</title>
			</path>
			<rect x="1047" y="1114" width="30" height="63"/>
			<path d="M1047,1114L1047,1114" tabindex="0">
				<title>00:09.18 on 2020-11-20</title>
			</path>
			<line x1="0" y1="1114" x2="2276" y2="1114"/>
			<line x1="1047" y1="2032" x2="1047" y2="0"/>
			<path d="M1077,1177L1077,1177" tabindex="0">
				<title>00:08.55 on 2020-12-20</title>
			</path>
			<line x1="0" y1="1177" x2="2276" y2="1177"/>
			<line x1="1077" y1="2032" x2="1077" y2="0"/>
		</g>
		<g style="--index: 11;">
			<path d="M1054,1207L1173,1207L1173,1247" tabindex="0">
				<title>xkon93k8</title>
			</path>
			<rect x="1054" y="1207" width="119" height="40"/>
			<path d="M1054,1207L1054,1207" tabindex="0">
				<title>00:08.25 on 2020-11-27</title>
			</path>
			<line x1="0" y1="1207" x2="2276" y2="1207"/>
			<line x1="1054" y1="2032" x2="1054" y2="0"/>
			<path d="M1173,1247L1173,1247" tabindex="0">
				<title>00:07.85 on 2021-03-26</title>
			</path>
			<line x1="0" y1="1247" x2="2276" y2="1247"/>
			<line x1="1173" y1="2032" x2="1173" y2="0"/>
		</g>
		<g style="--index: 12;">
			<path d="M1140,1041L1143,1041L1143,1056L1144,1056L1144,1079L1145,1079L1145,1089L1147,1089L1147,1092L1148,1092L1148,1099L1478,1099L1478,1147L1479,1147L1479,1174" tabindex="0">
				<title>8grypo7x</title>
			</path>
			<rect x="1140" y="1041" width="339" height="133"/>
			<path d="M1140,1041L1140,1041" tabindex="0">
				<title>00:09.91 on 2021-02-21</title>
			</path>
			<line x1="0" y1="1041" x2="2276" y2="1041"/>
			<line x1="1140" y1="2032" x2="1140" y2="0"/>
			<path d="M1143,1056L1143,1056" tabindex="0">
				<title>00:09.76 on 2021-02-24</title>
			</path>
			<line x1="0" y1="1056" x2="2276" y2="1056"/>
			<line x1="1143" y1="2032" x2="1143" y2="0"/>
			<path d="M1144,1079L1144,1079" tabindex="0">
				<title>00:09.53 on 2021-02-25</title>
			</path>
			<line x1="0" y1="1079" x2="2276" y2="1079"/>
			<line x1="1144" y1="2032" x2="1144" y2="0"/>
			<path d="M1145,1089L1145,1089" tabindex="0">
				<title>00:09.43 on 2021-02-26</title>
			</path>
			<line x1="0" y1="1089" x2="2276" y2="1089"/>
			<line x1="1145" y1="2032" x2="1145" y2="0"/>
			<path d="M1147,1092L1147,1092" tabindex="0">
				<title>00:09.40 on 2021-02-28</title>
			</path>
			<line x1="0" y1="1092" x2="2276" y2="1092"/>
			<line x1="1147" y1="2032" x2="1147" y2="0"/>
			<path d="M1148,1099L1148,1099" tabindex="0">
				<title>00:09.33 on 2021-03-01</title>
			</path>
			<line x1="0" y1="1099" x2="2276" y2="1099"/>
			<line x1="1148" y1="2032" x2="1148" y2="0"/>
			<path d="M1478,1147L1478,1147" tabindex="0">
				<title>00:08.85 on 2022-01-25</title>
			</path>
			<line x1="0" y1="1147" x2="2276" y2="1147"/>
			<line x1="1478" y1="2032" x2="1478" y2="0"/>
			<path d="M1479,1174L1479,1174" tabindex="0">
				<title>00:08.58 on 2022-01-26</title>
			</path>
			<line x1="0" y1="1174" x2="2276" y2="1174"/>
			<line x1="1479" y1="2032" x2="1479" y2="0"/>
		</g>
		<g style="--index: 13;">
			<path d="M1516,981" tabindex="0">
				<title>8ek11068</title>
			</path>
			<rect x="1516" y="981" width="0" height="0"/>
			<path d="M1516,981L1516,981" tabindex="0">
				<title>00:10.51 on 2022-03-04</title>
			</path>
			<line x1="0" y1="981" x2="2276" y2="981"/>
			<line x1="1516" y1="2032" x2="1516" y2="0"/>
		</g>
		<g style="--index: 14;">
			<path d="M1548,760" tabindex="0">
				<title>8w9l6k3j</title>
			</path>
			<rect x="1548" y="760" width="0" height="0"/>
			<path d="M1548,760L1548,760" tabindex="0">
				<title>00:12.72 on 2022-04-05</title>
			</path>
			<line x1="0" y1="760" x2="2276" y2="760"/>
			<line x1="1548" y1="2032" x2="1548" y2="0"/>
		</g>
		<g style="--index: 15;">
			<path d="M1574,1067" tabindex="0">
				<title>j4vv6g5j</title>
			</path>
			<rect x="1574" y="1067" width="0" height="0"/>
			<path d="M1574,1067L1574,1067" tabindex="0">
				<title>00:09.65 on 2022-05-01</title>
			</path>
			<line x1="0" y1="1067" x2="2276" y2="1067"/>
			<line x1="1574" y1="2032" x2="1574" y2="0"/>
		</g>
		<g style="--index: 16;">
			<path d="M1601,1256" tabindex="0">
				<title>xk3m6d68</title>
			</path>
			<rect x="1601" y="1256" width="0" height="0"/>
			<path d="M1601,1256L1601,1256" tabindex="0">
				<title>00:07.76 on 2022-05-28</title>
			</path>
			<line x1="0" y1="1256" x2="2276" y2="1256"/>
			<line x1="1601" y1="2032" x2="1601" y2="0"/>
		</g>
		<g style="--index: 17;">
			<path d="M1643,1173L1702,1173L1702,1219L1705,1219L1705,1238" tabindex="0">
				<title>j4235d5x</title>
			</path>
			<rect x="1643" y="1173" width="62" height="65"/>
			<path d="M1643,1173L1643,1173" tabindex="0">
				<title>00:08.59 on 2022-07-09</title>
			</path>
			<line x1="0" y1="1173" x2="2276" y2="1173"/>
			<line x1="1643" y1="2032" x2="1643" y2="0"/>
			<path d="M1702,1219L1702,1219" tabindex="0">
				<title>00:08.13 on 2022-09-06</title>
			</path>
			<line x1="0" y1="1219" x2="2276" y2="1219"/>
			<line x1="1702" y1="2032" x2="1702" y2="0"/>
			<path d="M1705,1238L1705,1238" tabindex="0">
				<title>00:07.94 on 2022-09-09</title>
			</path>
			<line x1="0" y1="1238" x2="2276" y2="1238"/>
			<line x1="1705" y1="2032" x2="1705" y2="0"/>
		</g>
		<g style="--index: 18;">
			<path d="M1661,1155" tabindex="0">
				<title>x72652r8</title>
			</path>
			<rect x="1661" y="1155" width="0" height="0"/>
			<path d="M1661,1155L1661,1155" tabindex="0">
				<title>00:08.77 on 2022-07-27</title>
			</path>
			<line x1="0" y1="1155" x2="2276" y2="1155"/>
			<line x1="1661" y1="2032" x2="1661" y2="0"/>
		</g>
		<g style="--index: 19;">
			<path d="M1663,886L2106,886L2106,979" tabindex="0">
				<title>jm3nrmo8</title>
			</path>
			<rect x="1663" y="886" width="443" height="93"/>
			<path d="M1663,886L1663,886" tabindex="0">
				<title>00:11.46 on 2022-07-29</title>
			</path>
			<line x1="0" y1="886" x2="2276" y2="886"/>
			<line x1="1663" y1="2032" x2="1663" y2="0"/>
			<path d="M2106,979L2106,979" tabindex="0">
				<title>00:10.53 on 2023-10-15</title>
			</path>
			<line x1="0" y1="979" x2="2276" y2="979"/>
			<line x1="2106" y1="2032" x2="2106" y2="0"/>
		</g>
		<g style="--index: 20;">
			<path d="M1667,979" tabindex="0">
				<title>8dgdoo58</title>
			</path>
			<rect x="1667" y="979" width="0" height="0"/>
			<path d="M1667,979L1667,979" tabindex="0">
				<title>00:10.53 on 2022-08-02</title>
			</path>
			<line x1="0" y1="979" x2="2276" y2="979"/>
			<line x1="1667" y1="2032" x2="1667" y2="0"/>
		</g>
		<g style="--index: 21;">
			<path d="M1669,1029" tabindex="0">
				<title>8qom42wj</title>
			</path>
			<rect x="1669" y="1029" width="0" height="0"/>
			<path d="M1669,1029L1669,1029" tabindex="0">
				<title>00:10.03 on 2022-08-04</title>
			</path>
			<line x1="0" y1="1029" x2="2276" y2="1029"/>
			<line x1="1669" y1="2032" x2="1669" y2="0"/>
		</g>
		<g style="--index: 22;">
			<path d="M1701,829" tabindex="0">
				<title>810kqzlx</title>
			</path>
			<rect x="1701" y="829" width="0" height="0"/>
			<path d="M1701,829L1701,829" tabindex="0">
				<title>00:12.03 on 2022-09-05</title>
			</path>
			<line x1="0" y1="829" x2="2276" y2="829"/>
			<line x1="1701" y1="2032" x2="1701" y2="0"/>
		</g>
		<g style="--index: 23;">
			<path d="M1731,1100" tabindex="0">
				<title>jon1own8</title>
			</path>
			<rect x="1731" y="1100" width="0" height="0"/>
			<path d="M1731,1100L1731,1100" tabindex="0">
				<title>00:09.32 on 2022-10-05</title>
			</path>
			<line x1="0" y1="1100" x2="2276" y2="1100"/>
			<line x1="1731" y1="2032" x2="1731" y2="0"/>
		</g>
		<g style="--index: 24;">
			<path d="M1778,1067" tabindex="0">
				<title>xk1oze6j</title>
			</path>
			<rect x="1778" y="1067" width="0" height="0"/>
			<path d="M1778,1067L1778,1067" tabindex="0">
				<title>00:09.65 on 2022-11-21</title>
			</path>
			<line x1="0" y1="1067" x2="2276" y2="1067"/>
			<line x1="1778" y1="2032" x2="1778" y2="0"/>
		</g>
		<g style="--index: 25;">
			<path d="M1785,1010" tabindex="0">
				<title>jmzrkdyx</title>
			</path>
			<rect x="1785" y="1010" width="0" height="0"/>
			<path d="M1785,1010L1785,1010" tabindex="0">
				<title>00:10.22 on 2022-11-28</title>
			</path>
			<line x1="0" y1="1010" x2="2276" y2="1010"/>
			<line x1="1785" y1="2032" x2="1785" y2="0"/>
		</g>
		<g style="--index: 26;">
			<path d="M1797,1030" tabindex="0">
				<title>8g0ezgyx</title>
			</path>
			<rect x="1797" y="1030" width="0" height="0"/>
			<path d="M1797,1030L1797,1030" tabindex="0">
				<title>00:10.02 on 2022-12-10</title>
			</path>
			<line x1="0" y1="1030" x2="2276" y2="1030"/>
			<line x1="1797" y1="2032" x2="1797" y2="0"/>
		</g>
		<g style="--index: 27;">
			<path d="M1849,1186" tabindex="0">
				<title>8e9kl5dj</title>
			</path>
			<rect x="1849" y="1186" width="0" height="0"/>
			<path d="M1849,1186L1849,1186" tabindex="0">
				<title>00:08.46 on 2023-01-31</title>
			</path>
			<line x1="0" y1="1186" x2="2276" y2="1186"/>
			<line x1="1849" y1="2032" x2="1849" y2="0"/>
		</g>
		<g style="--index: 28;">
			<path d="M1861,934" tabindex="0">
				<title>jnplgpd8</title>
			</path>
			<rect x="1861" y="934" width="0" height="0"/>
			<path d="M1861,934L1861,934" tabindex="0">
				<title>00:10.98 on 2023-02-12</title>
			</path>
			<line x1="0" y1="934" x2="2276" y2="934"/>
			<line x1="1861" y1="2032" x2="1861" y2="0"/>
		</g>
		<g style="--index: 29;">
			<path d="M1902,1048" tabindex="0">
				<title>864zov3j</title>
			</path>
			<rect x="1902" y="1048" width="0" height="0"/>
			<path d="M1902,1048L1902,1048" tabindex="0">
				<title>00:09.84 on 2023-03-25</title>
			</path>
			<line x1="0" y1="1048" x2="2276" y2="1048"/>
			<line x1="1902" y1="2032" x2="1902" y2="0"/>
		</g>
		<g style="--index: 30;">
			<path d="M1908,1036" tabindex="0">
				<title>j20zyvpx</title>
			</path>
			<rect x="1908" y="1036" width="0" height="0"/>
			<path d="M1908,1036L1908,1036" tabindex="0">
				<title>00:09.96 on 2023-03-31</title>
			</path>
			<line x1="0" y1="1036" x2="2276" y2="1036"/>
			<line x1="1908" y1="2032" x2="1908" y2="0"/>
		</g>
		<g style="--index: 31;">
			<path d="M1911,1273L1914,1273L1914,1276" tabindex="0">
				<title>jn2m23wj</title>
			</path>
			<rect x="1911" y="1273" width="3" height="3"/>
			<path d="M1911,1273L1911,1273" tabindex="0">
				<title>00:07.59 on 2023-04-03</title>
			</path>
			<line x1="0" y1="1273" x2="2276" y2="1273"/>
			<line x1="1911" y1="2032" x2="1911" y2="0"/>
			<path d="M1914,1276L1914,1276" tabindex="0">
				<title>00:07.56 on 2023-04-06</title>
			</path>
			<line x1="0" y1="1276" x2="2276" y2="1276"/>
			<line x1="1914" y1="2032" x2="1914" y2="0"/>
		</g>
		<g style="--index: 32;">
			<path d="M1918,1138" tabindex="0">
				<title>8g072p2x</title>
			</path>
			<rect x="1918" y="1138" width="0" height="0"/>
			<path d="M1918,1138L1918,1138" tabindex="0">
				<title>00:08.94 on 2023-04-10</title>
			</path>
			<line x1="0" y1="1138" x2="2276" y2="1138"/>
			<line x1="1918" y1="2032" x2="1918" y2="0"/>
		</g>
		<g style="--index: 33;">
			<path d="M1927,987" tabindex="0">
				<title>jooe13ej</title>
			</path>
			<rect x="1927" y="987" width="0" height="0"/>
			<path d="M1927,987L1927,987" tabindex="0">
				<title>00:10.45 on 2023-04-19</title>
			</path>
			<line x1="0" y1="987" x2="2276" y2="987"/>
			<line x1="1927" y1="2032" x2="1927" y2="0"/>
		</g>
		<g style="--index: 34;">
			<path d="M1940,1057" tabindex="0">
				<title>8ew394p8</title>
			</path>
			<rect x="1940" y="1057" width="0" height="0"/>
			<path d="M1940,1057L1940,1057" tabindex="0">
				<title>00:09.75 on 2023-05-02</title>
			</path>
			<line x1="0" y1="1057" x2="2276" y2="1057"/>
			<line x1="1940" y1="2032" x2="1940" y2="0"/>
		</g>
		<g style="--index: 35;">
			<path d="M1969,1199" tabindex="0">
				<title>jon0gdl8</title>
			</path>
			<rect x="1969" y="1199" width="0" height="0"/>
			<path d="M1969,1199L1969,1199" tabindex="0">
				<title>00:08.33 on 2023-05-31</title>
			</path>
			<line x1="0" y1="1199" x2="2276" y2="1199"/>
			<line x1="1969" y1="2032" x2="1969" y2="0"/>
		</g>
		<g style="--index: 36;">
			<path d="M1981,1010" tabindex="0">
				<title>8v21onej</title>
			</path>
			<rect x="1981" y="1010" width="0" height="0"/>
			<path d="M1981,1010L1981,1010" tabindex="0">
				<title>00:10.22 on 2023-06-12</title>
			</path>
			<line x1="0" y1="1010" x2="2276" y2="1010"/>
			<line x1="1981" y1="2032" x2="1981" y2="0"/>
		</g>
		<g style="--index: 37;">
			<path d="M2050,1013" tabindex="0">
				<title>jng9el48</title>
			</path>
			<rect x="2050" y="1013" width="0" height="0"/>
			<path d="M2050,1013L2050,1013" tabindex="0">
				<title>00:10.19 on 2023-08-20</title>
			</path>
			<line x1="0" y1="1013" x2="2276" y2="1013"/>
			<line x1="2050" y1="2032" x2="2050" y2="0"/>
		</g>
		<g style="--index: 38;">
			<path d="M2074,0" tabindex="0">
				<title>8v029nex</title>
			</path>
			<rect x="2074" y="0" width="0" height="0"/>
			<path d="M2074,0L2074,0" tabindex="0">
				<title>00:20.32 on 2023-09-13</title>
			</path>
			<line x1="0" y1="0" x2="2276" y2="0"/>
			<line x1="2074" y1="2032" x2="2074" y2="0"/>
		</g>
		<g style="--index: 39;">
			<path d="M2083,891" tabindex="0">
				<title>86rrv2p8</title>
			</path>
			<rect x="2083" y="891" width="0" height="0"/>
			<path d="M2083,891L2083,891" tabindex="0">
				<title>00:11.41 on 2023-09-22</title>
			</path>
			<line x1="0" y1="891" x2="2276" y2="891"/>
			<line x1="2083" y1="2032" x2="2083" y2="0"/>
		</g>
		<g style="--index: 40;">
			<path d="M2119,1019" tabindex="0">
				<title>jp6yqok8</title>
			</path>
			<rect x="2119" y="1019" width="0" height="0"/>
			<path d="M2119,1019L2119,1019" tabindex="0">
				<title>00:10.13 on 2023-10-28</title>
			</path>
			<line x1="0" y1="1019" x2="2276" y2="1019"/>
			<line x1="2119" y1="2032" x2="2119" y2="0"/>
		</g>
		<g style="--index: 41;">
			<path d="M2122,1135" tabindex="0">
				<title>86rpw3p8</title>
			</path>
			<rect x="2122" y="1135" width="0" height="0"/>
			<path d="M2122,1135L2122,1135" tabindex="0">
				<title>00:08.97 on 2023-10-31</title>
			</path>
			<line x1="0" y1="1135" x2="2276" y2="1135"/>
			<line x1="2122" y1="2032" x2="2122" y2="0"/>
		</g>
		<g style="--index: 42;">
			<path d="M2124,1156" tabindex="0">
				<title>xkpzggmj</title>
			</path>
			<rect x="2124" y="1156" width="0" height="0"/>
			<path d="M2124,1156L2124,1156" tabindex="0">
				<title>00:08.76 on 2023-11-02</title>
			</path>
			<line x1="0" y1="1156" x2="2276" y2="1156"/>
			<line x1="2124" y1="2032" x2="2124" y2="0"/>
		</g>
		<g style="--index: 43;">
			<path d="M2165,1055" tabindex="0">
				<title>j46e9mm8</title>
			</path>
			<rect x="2165" y="1055" width="0" height="0"/>
			<path d="M2165,1055L2165,1055" tabindex="0">
				<title>00:09.77 on 2023-12-13</title>
			</path>
			<line x1="0" y1="1055" x2="2276" y2="1055"/>
			<line x1="2165" y1="2032" x2="2165" y2="0"/>
		</g>
		<g style="--index: 44;">
			<path d="M2247,1188" tabindex="0">
				<title>8w3l21qj</title>
			</path>
			<rect x="2247" y="1188" width="0" height="0"/>
			<path d="M2247,1188L2247,1188" tabindex="0">
				<title>00:08.44 on 2024-03-04</title>
			</path>
			<line x1="0" y1="1188" x2="2276" y2="1188"/>
			<line x1="2247" y1="2032" x2="2247" y2="0"/>
		</g>
		<g style="--index: 45;">
			<path d="M2274,1071" tabindex="0">
				<title>xkp5qmmj</title>
			</path>
			<rect x="2274" y="1071" width="0" height="0"/>
			<path d="M2274,1071L2274,1071" tabindex="0">
				<title>00:09.61 on 2024-03-31</title>
			</path>
			<line x1="0" y1="1071" x2="2276" y2="1071"/>
			<line x1="2274" y1="2032" x2="2274" y2="0"/>
		</g>
		<g style="--index: 46;">
			<path d="M2276,986" tabindex="0">
				<title>8w3vrkvj</title>
			</path>
			<rect x="2276" y="986" width="0" height="0"/>
			<path d="M2276,986L2276,986" tabindex="0">
				<title>00:10.46 on 2024-04-02</title>
			</path>
			<line x1="0" y1="986" x2="2276" y2="986"/>
			<line x1="2276" y1="2032" x2="2276" y2="0"/>
		</g>
	</g>
</svg>
