<svg xmlns="http://www.w3.org/2000/svg" viewBox="0 0 2219 2918" preserveAspectRatio="none" lang="en" style="color-scheme: dark light;">
		<title>Time by player for leaderboard l_r9gn1qpd-9d8eewld-0nwoqwkl.xqkjmxnl</title>
		<style>
			svg {
				background: var(--canvas-background);
				fill: var(--canvas-background);
				stroke: var(--canvas-foreground);
				stroke-linejoin: round;
				stroke-linecap: round;
			}
			g &gt; path[tabindex] {
				vector-effect: non-scaling-stroke;
				fill: none;
				stroke: hsl(calc(var(--index) / var(--count) * 360), 50%, 50%);
				cursor: help;
			}
			g:is(:hover, :focus-within) &gt; path[tabindex] {
				stroke: var(--canvas-foreground);
			}
			g &gt; path[tabindex]:is(:hover, :focus-within) {
				outline: 0;
			}
			g &gt; path[tabindex]:first-of-type {
				stroke-width: 2;
			}
			g &gt; path[tabindex]:first-of-type:is(:hover, :focus-within) {
				stroke-width: 4;
			}
			g &gt; path[tabindex]:first-of-type:not(:last-of-type) {
				stroke-dasharray: 4 8;
			}
			g &gt; rect {
				vector-effect: non-scaling-stroke;
				fill: none;
				stroke: none;
				pointer-events: none;
			}
			g &gt; path[tabindex]:first-of-type:is(:hover, :focus-within) + rect {
				fill: var(--highlighted);
			}
			g &gt; path[tabindex]:first-of-type ~ path[tabindex] {
				stroke-width: 8;
			}
			g &gt; path[tabindex]:first-of-type ~ path[tabindex]:is(:hover, :focus-within) {
				stroke-width: 16;
			}
			g &gt; line {
				vector-effect: non-scaling-stroke;
				fill: none;
				stroke: none;
				stroke-width: 2;
				stroke-dasharray: 4 8;
				pointer-events: none;
			}
			g &gt; path[tabindex]:first-of-type:is(:hover, :focus-within) + rect + path[tabindex] + line,
			g &gt; path[tabindex]:first-of-type:is(:hover, :focus-within) + rect + path[tabindex] + line + line,
			g &gt; path[tabindex]:first-of-type:is(:hover, :focus-within) ~ path[tabindex]:last-of-type + line,
			g &gt; path[tabindex]:first-of-type:is(:hover, :focus-within) ~ path[tabindex]:last-of-type + line + line,
			g &gt; path[tabindex]:first-of-type ~ path[tabindex]:is(:hover, :focus-within) + line,
			g &gt; path[tabindex]:first-of-type ~ path[tabindex]:is(:hover, :focus-within) + line + line {
				stroke: var(--faded);
			}
			@media (prefers-color-scheme: dark) {
				:root {
					--canvas-background: #000;
					--canvas-foreground: #ccc;
					--highlighted: #6663;
					--faded: #9993;
				}
			}
			@media (prefers-color-scheme: light) {
				:root {
					--canvas-background: #fff;
					--canvas-foreground: #333;
					--highlighted: #9993;
					--faded: #6663;
				}
			}
		</style>
		<g style="--count: 73;">
		<g style="--index: 0;">
			<path d="M0,327L17,327L17,619L29,619L29,874" tabindex="0">
				<title>qj2pq1p8</title>
			</path>
			<rect x="0" y="327" width="29" height="547"/>
			<path d="M0,327L0,327" tabindex="0">
				<title>00:25.91 on 2018-01-09</title>
			</path>
			<line x1="0" y1="327" x2="2219" y2="327"/>
			<line x1="0" y1="2918" x2="0" y2="0"/>
			<path d="M17,619L17,619" tabindex="0">
				<title>00:22.99 on 2018-01-26</title>
			</path>
			<line x1="0" y1="619" x2="2219" y2="619"/>
			<line x1="17" y1="2918" x2="17" y2="0"/>
			<path d="M29,874L29,874" tabindex="0">
				<title>00:20.44 on 2018-02-07</title>
			</path>
			<line x1="0" y1="874" x2="2219" y2="874"/>
			<line x1="29" y1="2918" x2="29" y2="0"/>
		</g>
		<g style="--index: 1;">
			<path d="M4,552" tabindex="0">
				<title>5j5gggn8</title>
			</path>
			<rect x="4" y="552" width="0" height="0"/>
			<path d="M4,552L4,552" tabindex="0">
				<title>00:23.66 on 2018-01-13</title>
			</path>
			<line x1="0" y1="552" x2="2219" y2="552"/>
			<line x1="4" y1="2918" x2="4" y2="0"/>
		</g>
		<g style="--index: 2;">
			<path d="M8,311L10,311L10,496L26,496L26,820" tabindex="0">
				<title>kj9kz6r8</title>
			</path>
			<rect x="8" y="311" width="18" height="509"/>
			<path d="M8,311L8,311" tabindex="0">
				<title>00:26.07 on 2018-01-17</title>
			</path>
			<line x1="0" y1="311" x2="2219" y2="311"/>
			<line x1="8" y1="2918" x2="8" y2="0"/>
			<path d="M10,496L10,496" tabindex="0">
				<title>00:24.22 on 2018-01-19</title>
			</path>
			<line x1="0" y1="496" x2="2219" y2="496"/>
			<line x1="10" y1="2918" x2="10" y2="0"/>
			<path d="M26,820L26,820" tabindex="0">
				<title>00:20.98 on 2018-02-04</title>
			</path>
			<line x1="0" y1="820" x2="2219" y2="820"/>
			<line x1="26" y1="2918" x2="26" y2="0"/>
		</g>
		<g style="--index: 3;">
			<path d="M10,786" tabindex="0">
				<title>0jm3onz8</title>
			</path>
			<rect x="10" y="786" width="0" height="0"/>
			<path d="M10,786L10,786" tabindex="0">
				<title>00:21.32 on 2018-01-19</title>
			</path>
			<line x1="0" y1="786" x2="2219" y2="786"/>
			<line x1="10" y1="2918" x2="10" y2="0"/>
		</g>
		<g style="--index: 4;">
			<path d="M17,817" tabindex="0">
				<title>48grel1x</title>
			</path>
			<rect x="17" y="817" width="0" height="0"/>
			<path d="M17,817L17,817" tabindex="0">
				<title>00:21.01 on 2018-01-26</title>
			</path>
			<line x1="0" y1="817" x2="2219" y2="817"/>
			<line x1="17" y1="2918" x2="17" y2="0"/>
		</g>
		<g style="--index: 5;">
			<path d="M72,722" tabindex="0">
				<title>zx7eerr8</title>
			</path>
			<rect x="72" y="722" width="0" height="0"/>
			<path d="M72,722L72,722" tabindex="0">
				<title>00:21.96 on 2018-03-22</title>
			</path>
			<line x1="0" y1="722" x2="2219" y2="722"/>
			<line x1="72" y1="2918" x2="72" y2="0"/>
		</g>
		<g style="--index: 6;">
			<path d="M72,714" tabindex="0">
				<title>18qg9ndx</title>
			</path>
			<rect x="72" y="714" width="0" height="0"/>
			<path d="M72,714L72,714" tabindex="0">
				<title>00:22.04 on 2018-03-22</title>
			</path>
			<line x1="0" y1="714" x2="2219" y2="714"/>
			<line x1="72" y1="2918" x2="72" y2="0"/>
		</g>
		<g style="--index: 7;">
			<path d="M93,1126" tabindex="0">
				<title>e8e935oj</title>
			</path>
			<rect x="93" y="1126" width="0" height="0"/>
			<path d="M93,1126L93,1126" tabindex="0">
				<title>00:17.92 on 2018-04-12</title>
			</path>
			<line x1="0" y1="1126" x2="2219" y2="1126"/>
			<line x1="93" y1="2918" x2="93" y2="0"/>
		</g>
		<g style="--index: 8;">
			<path d="M100,1140L958,1140L958,1525L1054,1525L1054,1542" tabindex="0">
				<title>y8dgoe98</title>
			</path>
			<rect x="100" y="1140" width="954" height="402"/>
			<path d="M100,1140L100,1140" tabindex="0">
				<title>00:17.78 on 2018-04-19</title>
			</path>
			<line x1="0" y1="1140" x2="2219" y2="1140"/>
			<line x1="100" y1="2918" x2="100" y2="0"/>
			<path d="M958,1525L958,1525" tabindex="0">
				<title>00:13.93 on 2020-08-24</title>
			</path>
			<line x1="0" y1="1525" x2="2219" y2="1525"/>
			<line x1="958" y1="2918" x2="958" y2="0"/>
			<path d="M1054,1542L1054,1542" tabindex="0">
				<title>00:13.76 on 2020-11-28</title>
			</path>
			<line x1="0" y1="1542" x2="2219" y2="1542"/>
			<line x1="1054" y1="2918" x2="1054" y2="0"/>
		</g>
		<g style="--index: 9;">
			<path d="M582,785" tabindex="0">
				<title>j9rlkzoj</title>
			</path>
			<rect x="582" y="785" width="0" height="0"/>
			<path d="M582,785L582,785" tabindex="0">
				<title>00:21.33 on 2019-08-14</title>
			</path>
			<line x1="0" y1="785" x2="2219" y2="785"/>
			<line x1="582" y1="2918" x2="582" y2="0"/>
		</g>
		<g style="--index: 10;">
			<path d="M642,1298L713,1298L713,1368" tabindex="0">
				<title>7j4y0zmj</title>
			</path>
			<rect x="642" y="1298" width="71" height="70"/>
			<path d="M642,1298L642,1298" tabindex="0">
				<title>00:16.20 on 2019-10-13</title>
			</path>
			<line x1="0" y1="1298" x2="2219" y2="1298"/>
			<line x1="642" y1="2918" x2="642" y2="0"/>
			<path d="M713,1368L713,1368" tabindex="0">
				<title>00:15.50 on 2019-12-23</title>
			</path>
			<line x1="0" y1="1368" x2="2219" y2="1368"/>
			<line x1="713" y1="2918" x2="713" y2="0"/>
		</g>
		<g style="--index: 11;">
			<path d="M842,1345" tabindex="0">
				<title>8146r4r8</title>
			</path>
			<rect x="842" y="1345" width="0" height="0"/>
			<path d="M842,1345L842,1345" tabindex="0">
				<title>00:15.73 on 2020-04-30</title>
			</path>
			<line x1="0" y1="1345" x2="2219" y2="1345"/>
			<line x1="842" y1="2918" x2="842" y2="0"/>
		</g>
		<g style="--index: 12;">
			<path d="M856,1510" tabindex="0">
				<title>x356nrej</title>
			</path>
			<rect x="856" y="1510" width="0" height="0"/>
			<path d="M856,1510L856,1510" tabindex="0">
				<title>00:14.08 on 2020-05-14</title>
			</path>
			<line x1="0" y1="1510" x2="2219" y2="1510"/>
			<line x1="856" y1="2918" x2="856" y2="0"/>
		</g>
		<g style="--index: 13;">
			<path d="M893,1522" tabindex="0">
				<title>qjo6dp0j</title>
			</path>
			<rect x="893" y="1522" width="0" height="0"/>
			<path d="M893,1522L893,1522" tabindex="0">
				<title>00:13.96 on 2020-06-20</title>
			</path>
			<line x1="0" y1="1522" x2="2219" y2="1522"/>
			<line x1="893" y1="2918" x2="893" y2="0"/>
		</g>
		<g style="--index: 14;">
			<path d="M918,1385L1110,1385L1110,1543L1118,1543L1118,1576L1130,1576L1130,1596L1133,1596L1133,1606" tabindex="0">
				<title>xkon93k8</title>
			</path>
			<rect x="918" y="1385" width="215" height="221"/>
			<path d="M918,1385L918,1385" tabindex="0">
				<title>00:15.33 on 2020-07-15</title>
			</path>
			<line x1="0" y1="1385" x2="2219" y2="1385"/>
			<line x1="918" y1="2918" x2="918" y2="0"/>
			<path d="M1110,1543L1110,1543" tabindex="0">
				<title>00:13.75 on 2021-01-23</title>
			</path>
			<line x1="0" y1="1543" x2="2219" y2="1543"/>
			<line x1="1110" y1="2918" x2="1110" y2="0"/>
			<path d="M1118,1576L1118,1576" tabindex="0">
				<title>00:13.42 on 2021-01-31</title>
			</path>
			<line x1="0" y1="1576" x2="2219" y2="1576"/>
			<line x1="1118" y1="2918" x2="1118" y2="0"/>
			<path d="M1130,1596L1130,1596" tabindex="0">
				<title>00:13.22 on 2021-02-12</title>
			</path>
			<line x1="0" y1="1596" x2="2219" y2="1596"/>
			<line x1="1130" y1="2918" x2="1130" y2="0"/>
			<path d="M1133,1606L1133,1606" tabindex="0">
				<title>00:13.12 on 2021-02-15</title>
			</path>
			<line x1="0" y1="1606" x2="2219" y2="1606"/>
			<line x1="1133" y1="2918" x2="1133" y2="0"/>
		</g>
		<g style="--index: 15;">
			<path d="M1033,1352L1185,1352L1185,1364" tabindex="0">
				<title>j0np7or8</title>
			</path>
			<rect x="1033" y="1352" width="152" height="12"/>
			<path d="M1033,1352L1033,1352" tabindex="0">
				<title>00:15.66 on 2020-11-07</title>
			</path>
			<line x1="0" y1="1352" x2="2219" y2="1352"/>
			<line x1="1033" y1="2918" x2="1033" y2="0"/>
			<path d="M1185,1364L1185,1364" tabindex="0">
				<title>00:15.54 on 2021-04-08</title>
			</path>
			<line x1="0" y1="1364" x2="2219" y2="1364"/>
			<line x1="1185" y1="2918" x2="1185" y2="0"/>
		</g>
		<g style="--index: 16;">
			<path d="M1049,1439L1056,1439L1056,1459" tabindex="0">
				<title>x7q00668</title>
			</path>
			<rect x="1049" y="1439" width="7" height="20"/>
			<path d="M1049,1439L1049,1439" tabindex="0">
				<title>00:14.79 on 2020-11-23</title>
			</path>
			<line x1="0" y1="1439" x2="2219" y2="1439"/>
			<line x1="1049" y1="2918" x2="1049" y2="0"/>
			<path d="M1056,1459L1056,1459" tabindex="0">
				<title>00:14.59 on 2020-11-30</title>
			</path>
			<line x1="0" y1="1459" x2="2219" y2="1459"/>
			<line x1="1056" y1="2918" x2="1056" y2="0"/>
		</g>
		<g style="--index: 17;">
			<path d="M1050,1059" tabindex="0">
				<title>jn3kw0wx</title>
			</path>
			<rect x="1050" y="1059" width="0" height="0"/>
			<path d="M1050,1059L1050,1059" tabindex="0">
				<title>00:18.59 on 2020-11-24</title>
			</path>
			<line x1="0" y1="1059" x2="2219" y2="1059"/>
			<line x1="1050" y1="2918" x2="1050" y2="0"/>
		</g>
		<g style="--index: 18;">
			<path d="M1110,1059" tabindex="0">
				<title>8qr54wdj</title>
			</path>
			<rect x="1110" y="1059" width="0" height="0"/>
			<path d="M1110,1059L1110,1059" tabindex="0">
				<title>00:18.59 on 2021-01-23</title>
			</path>
			<line x1="0" y1="1059" x2="2219" y2="1059"/>
			<line x1="1110" y1="2918" x2="1110" y2="0"/>
		</g>
		<g style="--index: 19;">
			<path d="M1117,1563L1124,1563L1124,1579L1131,1579L1131,1605" tabindex="0">
				<title>jnzg27dj</title>
			</path>
			<rect x="1117" y="1563" width="14" height="42"/>
			<path d="M1117,1563L1117,1563" tabindex="0">
				<title>00:13.55 on 2021-01-30</title>
			</path>
			<line x1="0" y1="1563" x2="2219" y2="1563"/>
			<line x1="1117" y1="2918" x2="1117" y2="0"/>
			<path d="M1124,1579L1124,1579" tabindex="0">
				<title>00:13.39 on 2021-02-06</title>
			</path>
			<line x1="0" y1="1579" x2="2219" y2="1579"/>
			<line x1="1124" y1="2918" x2="1124" y2="0"/>
			<path d="M1131,1605L1131,1605" tabindex="0">
				<title>00:13.13 on 2021-02-13</title>
			</path>
			<line x1="0" y1="1605" x2="2219" y2="1605"/>
			<line x1="1131" y1="2918" x2="1131" y2="0"/>
		</g>
		<g style="--index: 20;">
			<path d="M1124,694" tabindex="0">
				<title>j031913j</title>
			</path>
			<rect x="1124" y="694" width="0" height="0"/>
			<path d="M1124,694L1124,694" tabindex="0">
				<title>00:22.24 on 2021-02-06</title>
			</path>
			<line x1="0" y1="694" x2="2219" y2="694"/>
			<line x1="1124" y1="2918" x2="1124" y2="0"/>
		</g>
		<g style="--index: 21;">
			<path d="M1125,871" tabindex="0">
				<title>8d3yw99x</title>
			</path>
			<rect x="1125" y="871" width="0" height="0"/>
			<path d="M1125,871L1125,871" tabindex="0">
				<title>00:20.47 on 2021-02-07</title>
			</path>
			<line x1="0" y1="871" x2="2219" y2="871"/>
			<line x1="1125" y1="2918" x2="1125" y2="0"/>
		</g>
		<g style="--index: 22;">
			<path d="M1129,1002" tabindex="0">
				<title>8l4kqm7j</title>
			</path>
			<rect x="1129" y="1002" width="0" height="0"/>
			<path d="M1129,1002L1129,1002" tabindex="0">
				<title>00:19.16 on 2021-02-11</title>
			</path>
			<line x1="0" y1="1002" x2="2219" y2="1002"/>
			<line x1="1129" y1="2918" x2="1129" y2="0"/>
		</g>
		<g style="--index: 23;">
			<path d="M1139,863" tabindex="0">
				<title>8qrgz37j</title>
			</path>
			<rect x="1139" y="863" width="0" height="0"/>
			<path d="M1139,863L1139,863" tabindex="0">
				<title>00:20.55 on 2021-02-21</title>
			</path>
			<line x1="0" y1="863" x2="2219" y2="863"/>
			<line x1="1139" y1="2918" x2="1139" y2="0"/>
		</g>
		<g style="--index: 24;">
			<path d="M1148,481" tabindex="0">
				<title>8vkp092j</title>
			</path>
			<rect x="1148" y="481" width="0" height="0"/>
			<path d="M1148,481L1148,481" tabindex="0">
				<title>00:24.37 on 2021-03-02</title>
			</path>
			<line x1="0" y1="481" x2="2219" y2="481"/>
			<line x1="1148" y1="2918" x2="1148" y2="0"/>
		</g>
		<g style="--index: 25;">
			<path d="M1165,1168L1166,1168L1166,1270L1472,1270L1472,1363" tabindex="0">
				<title>xk4vgv7j</title>
			</path>
			<rect x="1165" y="1168" width="307" height="195"/>
			<path d="M1165,1168L1165,1168" tabindex="0">
				<title>00:17.50 on 2021-03-19</title>
			</path>
			<line x1="0" y1="1168" x2="2219" y2="1168"/>
			<line x1="1165" y1="2918" x2="1165" y2="0"/>
			<path d="M1166,1270L1166,1270" tabindex="0">
				<title>00:16.48 on 2021-03-20</title>
			</path>
			<line x1="0" y1="1270" x2="2219" y2="1270"/>
			<line x1="1166" y1="2918" x2="1166" y2="0"/>
			<path d="M1472,1363L1472,1363" tabindex="0">
				<title>00:15.55 on 2022-01-20</title>
			</path>
			<line x1="0" y1="1363" x2="2219" y2="1363"/>
			<line x1="1472" y1="2918" x2="1472" y2="0"/>
		</g>
		<g style="--index: 26;">
			<path d="M1185,1643" tabindex="0">
				<title>j2yr9lp8</title>
			</path>
			<rect x="1185" y="1643" width="0" height="0"/>
			<path d="M1185,1643L1185,1643" tabindex="0">
				<title>00:12.75 on 2021-04-08</title>
			</path>
			<line x1="0" y1="1643" x2="2219" y2="1643"/>
			<line x1="1185" y1="2918" x2="1185" y2="0"/>
		</g>
		<g style="--index: 27;">
			<path d="M1193,1232" tabindex="0">
				<title>jnzen32j</title>
			</path>
			<rect x="1193" y="1232" width="0" height="0"/>
			<path d="M1193,1232L1193,1232" tabindex="0">
				<title>00:16.86 on 2021-04-16</title>
			</path>
			<line x1="0" y1="1232" x2="2219" y2="1232"/>
			<line x1="1193" y1="2918" x2="1193" y2="0"/>
		</g>
		<g style="--index: 28;">
			<path d="M1196,708" tabindex="0">
				<title>8vkq15yj</title>
			</path>
			<rect x="1196" y="708" width="0" height="0"/>
			<path d="M1196,708L1196,708" tabindex="0">
				<title>00:22.10 on 2021-04-19</title>
			</path>
			<line x1="0" y1="708" x2="2219" y2="708"/>
			<line x1="1196" y1="2918" x2="1196" y2="0"/>
		</g>
		<g style="--index: 29;">
			<path d="M1206,1063" tabindex="0">
				<title>xk4w4k6j</title>
			</path>
			<rect x="1206" y="1063" width="0" height="0"/>
			<path d="M1206,1063L1206,1063" tabindex="0">
				<title>00:18.55 on 2021-04-29</title>
			</path>
			<line x1="0" y1="1063" x2="2219" y2="1063"/>
			<line x1="1206" y1="2918" x2="1206" y2="0"/>
		</g>
		<g style="--index: 30;">
			<path d="M1208,1373" tabindex="0">
				<title>8rp0ezwj</title>
			</path>
			<rect x="1208" y="1373" width="0" height="0"/>
			<path d="M1208,1373L1208,1373" tabindex="0">
				<title>00:15.45 on 2021-05-01</title>
			</path>
			<line x1="0" y1="1373" x2="2219" y2="1373"/>
			<line x1="1208" y1="2918" x2="1208" y2="0"/>
		</g>
		<g style="--index: 31;">
			<path d="M1362,769" tabindex="0">
				<title>8vo9gyyx</title>
			</path>
			<rect x="1362" y="769" width="0" height="0"/>
			<path d="M1362,769L1362,769" tabindex="0">
				<title>00:21.49 on 2021-10-02</title>
			</path>
			<line x1="0" y1="769" x2="2219" y2="769"/>
			<line x1="1362" y1="2918" x2="1362" y2="0"/>
		</g>
		<g style="--index: 32;">
			<path d="M1394,835L1522,835L1522,997" tabindex="0">
				<title>863mv638</title>
			</path>
			<rect x="1394" y="835" width="128" height="162"/>
			<path d="M1394,835L1394,835" tabindex="0">
				<title>00:20.83 on 2021-11-03</title>
			</path>
			<line x1="0" y1="835" x2="2219" y2="835"/>
			<line x1="1394" y1="2918" x2="1394" y2="0"/>
			<path d="M1522,997L1522,997" tabindex="0">
				<title>00:19.21 on 2022-03-11</title>
			</path>
			<line x1="0" y1="997" x2="2219" y2="997"/>
			<line x1="1522" y1="2918" x2="1522" y2="0"/>
		</g>
		<g style="--index: 33;">
			<path d="M1465,1250" tabindex="0">
				<title>xyl625yj</title>
			</path>
			<rect x="1465" y="1250" width="0" height="0"/>
			<path d="M1465,1250L1465,1250" tabindex="0">
				<title>00:16.68 on 2022-01-13</title>
			</path>
			<line x1="0" y1="1250" x2="2219" y2="1250"/>
			<line x1="1465" y1="2918" x2="1465" y2="0"/>
		</g>
		<g style="--index: 34;">
			<path d="M1470,1353" tabindex="0">
				<title>x3m9d3k8</title>
			</path>
			<rect x="1470" y="1353" width="0" height="0"/>
			<path d="M1470,1353L1470,1353" tabindex="0">
				<title>00:15.65 on 2022-01-18</title>
			</path>
			<line x1="0" y1="1353" x2="2219" y2="1353"/>
			<line x1="1470" y1="2918" x2="1470" y2="0"/>
		</g>
		<g style="--index: 35;">
			<path d="M1480,1332" tabindex="0">
				<title>8g5g6g1j</title>
			</path>
			<rect x="1480" y="1332" width="0" height="0"/>
			<path d="M1480,1332L1480,1332" tabindex="0">
				<title>00:15.86 on 2022-01-28</title>
			</path>
			<line x1="0" y1="1332" x2="2219" y2="1332"/>
			<line x1="1480" y1="2918" x2="1480" y2="0"/>
		</g>
		<g style="--index: 36;">
			<path d="M1481,505" tabindex="0">
				<title>8q34rqdj</title>
			</path>
			<rect x="1481" y="505" width="0" height="0"/>
			<path d="M1481,505L1481,505" tabindex="0">
				<title>00:24.13 on 2022-01-29</title>
			</path>
			<line x1="0" y1="505" x2="2219" y2="505"/>
			<line x1="1481" y1="2918" x2="1481" y2="0"/>
		</g>
		<g style="--index: 37;">
			<path d="M1501,0" tabindex="0">
				<title>8w14orqx</title>
			</path>
			<rect x="1501" y="0" width="0" height="0"/>
			<path d="M1501,0L1501,0" tabindex="0">
				<title>00:29.18 on 2022-02-18</title>
			</path>
			<line x1="0" y1="0" x2="2219" y2="0"/>
			<line x1="1501" y1="2918" x2="1501" y2="0"/>
		</g>
		<g style="--index: 38;">
			<path d="M1517,1498" tabindex="0">
				<title>81qlgylj</title>
			</path>
			<rect x="1517" y="1498" width="0" height="0"/>
			<path d="M1517,1498L1517,1498" tabindex="0">
				<title>00:14.20 on 2022-03-06</title>
			</path>
			<line x1="0" y1="1498" x2="2219" y2="1498"/>
			<line x1="1517" y1="2918" x2="1517" y2="0"/>
		</g>
		<g style="--index: 39;">
			<path d="M1517,1388" tabindex="0">
				<title>8ende728</title>
			</path>
			<rect x="1517" y="1388" width="0" height="0"/>
			<path d="M1517,1388L1517,1388" tabindex="0">
				<title>00:15.30 on 2022-03-06</title>
			</path>
			<line x1="0" y1="1388" x2="2219" y2="1388"/>
			<line x1="1517" y1="2918" x2="1517" y2="0"/>
		</g>
		<g style="--index: 40;">
			<path d="M1521,1238" tabindex="0">
				<title>866gn938</title>
			</path>
			<rect x="1521" y="1238" width="0" height="0"/>
			<path d="M1521,1238L1521,1238" tabindex="0">
				<title>00:16.80 on 2022-03-10</title>
			</path>
			<line x1="0" y1="1238" x2="2219" y2="1238"/>
			<line x1="1521" y1="2918" x2="1521" y2="0"/>
		</g>
		<g style="--index: 41;">
			<path d="M1523,362" tabindex="0">
				<title>8dglvzo8</title>
			</path>
			<rect x="1523" y="362" width="0" height="0"/>
			<path d="M1523,362L1523,362" tabindex="0">
				<title>00:25.56 on 2022-03-12</title>
			</path>
			<line x1="0" y1="362" x2="2219" y2="362"/>
			<line x1="1523" y1="2918" x2="1523" y2="0"/>
		</g>
		<g style="--index: 42;">
			<path d="M1572,1205" tabindex="0">
				<title>8w99243j</title>
			</path>
			<rect x="1572" y="1205" width="0" height="0"/>
			<path d="M1572,1205L1572,1205" tabindex="0">
				<title>00:17.13 on 2022-04-30</title>
			</path>
			<line x1="0" y1="1205" x2="2219" y2="1205"/>
			<line x1="1572" y1="2918" x2="1572" y2="0"/>
		</g>
		<g style="--index: 43;">
			<path d="M1603,972" tabindex="0">
				<title>8e645e6j</title>
			</path>
			<rect x="1603" y="972" width="0" height="0"/>
			<path d="M1603,972L1603,972" tabindex="0">
				<title>00:19.46 on 2022-05-31</title>
			</path>
			<line x1="0" y1="972" x2="2219" y2="972"/>
			<line x1="1603" y1="2918" x2="1603" y2="0"/>
		</g>
		<g style="--index: 44;">
			<path d="M1631,632" tabindex="0">
				<title>8w9m16zj</title>
			</path>
			<rect x="1631" y="632" width="0" height="0"/>
			<path d="M1631,632L1631,632" tabindex="0">
				<title>00:22.86 on 2022-06-28</title>
			</path>
			<line x1="0" y1="632" x2="2219" y2="632"/>
			<line x1="1631" y1="2918" x2="1631" y2="0"/>
		</g>
		<g style="--index: 45;">
			<path d="M1638,1378" tabindex="0">
				<title>j4235d5x</title>
			</path>
			<rect x="1638" y="1378" width="0" height="0"/>
			<path d="M1638,1378L1638,1378" tabindex="0">
				<title>00:15.40 on 2022-07-05</title>
			</path>
			<line x1="0" y1="1378" x2="2219" y2="1378"/>
			<line x1="1638" y1="2918" x2="1638" y2="0"/>
		</g>
		<g style="--index: 46;">
			<path d="M1642,1174" tabindex="0">
				<title>8gmvl418</title>
			</path>
			<rect x="1642" y="1174" width="0" height="0"/>
			<path d="M1642,1174L1642,1174" tabindex="0">
				<title>00:17.44 on 2022-07-09</title>
			</path>
			<line x1="0" y1="1174" x2="2219" y2="1174"/>
			<line x1="1642" y1="2918" x2="1642" y2="0"/>
		</g>
		<g style="--index: 47;">
			<path d="M1643,1339" tabindex="0">
				<title>xk3knqk8</title>
			</path>
			<rect x="1643" y="1339" width="0" height="0"/>
			<path d="M1643,1339L1643,1339" tabindex="0">
				<title>00:15.79 on 2022-07-10</title>
			</path>
			<line x1="0" y1="1339" x2="2219" y2="1339"/>
			<line x1="1643" y1="2918" x2="1643" y2="0"/>
		</g>
		<g style="--index: 48;">
			<path d="M1661,1038" tabindex="0">
				<title>j0grn39x</title>
			</path>
			<rect x="1661" y="1038" width="0" height="0"/>
			<path d="M1661,1038L1661,1038" tabindex="0">
				<title>00:18.80 on 2022-07-28</title>
			</path>
			<line x1="0" y1="1038" x2="2219" y2="1038"/>
			<line x1="1661" y1="2918" x2="1661" y2="0"/>
		</g>
		<g style="--index: 49;">
			<path d="M1674,1092" tabindex="0">
				<title>j0gyr64x</title>
			</path>
			<rect x="1674" y="1092" width="0" height="0"/>
			<path d="M1674,1092L1674,1092" tabindex="0">
				<title>00:18.26 on 2022-08-10</title>
			</path>
			<line x1="0" y1="1092" x2="2219" y2="1092"/>
			<line x1="1674" y1="2918" x2="1674" y2="0"/>
		</g>
		<g style="--index: 50;">
			<path d="M1686,1049L1699,1049L1699,1323" tabindex="0">
				<title>xk1oze6j</title>
			</path>
			<rect x="1686" y="1049" width="13" height="274"/>
			<path d="M1686,1049L1686,1049" tabindex="0">
				<title>00:18.69 on 2022-08-22</title>
			</path>
			<line x1="0" y1="1049" x2="2219" y2="1049"/>
			<line x1="1686" y1="2918" x2="1686" y2="0"/>
			<path d="M1699,1323L1699,1323" tabindex="0">
				<title>00:15.95 on 2022-09-04</title>
			</path>
			<line x1="0" y1="1323" x2="2219" y2="1323"/>
			<line x1="1699" y1="2918" x2="1699" y2="0"/>
		</g>
		<g style="--index: 51;">
			<path d="M1690,1390" tabindex="0">
				<title>xyo5kmwj</title>
			</path>
			<rect x="1690" y="1390" width="0" height="0"/>
			<path d="M1690,1390L1690,1390" tabindex="0">
				<title>00:15.28 on 2022-08-26</title>
			</path>
			<line x1="0" y1="1390" x2="2219" y2="1390"/>
			<line x1="1690" y1="2918" x2="1690" y2="0"/>
		</g>
		<g style="--index: 52;">
			<path d="M1701,888" tabindex="0">
				<title>810kqzlx</title>
			</path>
			<rect x="1701" y="888" width="0" height="0"/>
			<path d="M1701,888L1701,888" tabindex="0">
				<title>00:20.30 on 2022-09-06</title>
			</path>
			<line x1="0" y1="888" x2="2219" y2="888"/>
			<line x1="1701" y1="2918" x2="1701" y2="0"/>
		</g>
		<g style="--index: 53;">
			<path d="M1702,1121" tabindex="0">
				<title>8qom42wj</title>
			</path>
			<rect x="1702" y="1121" width="0" height="0"/>
			<path d="M1702,1121L1702,1121" tabindex="0">
				<title>00:17.97 on 2022-09-07</title>
			</path>
			<line x1="0" y1="1121" x2="2219" y2="1121"/>
			<line x1="1702" y1="2918" x2="1702" y2="0"/>
		</g>
		<g style="--index: 54;">
			<path d="M1736,594" tabindex="0">
				<title>8w07d2vj</title>
			</path>
			<rect x="1736" y="594" width="0" height="0"/>
			<path d="M1736,594L1736,594" tabindex="0">
				<title>00:23.24 on 2022-10-11</title>
			</path>
			<line x1="0" y1="594" x2="2219" y2="594"/>
			<line x1="1736" y1="2918" x2="1736" y2="0"/>
		</g>
		<g style="--index: 55;">
			<path d="M1755,675" tabindex="0">
				<title>8ew519p8</title>
			</path>
			<rect x="1755" y="675" width="0" height="0"/>
			<path d="M1755,675L1755,675" tabindex="0">
				<title>00:22.43 on 2022-10-30</title>
			</path>
			<line x1="0" y1="675" x2="2219" y2="675"/>
			<line x1="1755" y1="2918" x2="1755" y2="0"/>
		</g>
		<g style="--index: 56;">
			<path d="M1758,1129L1827,1129L1827,1206L1828,1206L1828,1434" tabindex="0">
				<title>j9pl5nwx</title>
			</path>
			<rect x="1758" y="1129" width="70" height="305"/>
			<path d="M1758,1129L1758,1129" tabindex="0">
				<title>00:17.89 on 2022-11-02</title>
			</path>
			<line x1="0" y1="1129" x2="2219" y2="1129"/>
			<line x1="1758" y1="2918" x2="1758" y2="0"/>
			<path d="M1827,1206L1827,1206" tabindex="0">
				<title>00:17.12 on 2023-01-10</title>
			</path>
			<line x1="0" y1="1206" x2="2219" y2="1206"/>
			<line x1="1827" y1="2918" x2="1827" y2="0"/>
			<path d="M1828,1434L1828,1434" tabindex="0">
				<title>00:14.84 on 2023-01-11</title>
			</path>
			<line x1="0" y1="1434" x2="2219" y2="1434"/>
			<line x1="1828" y1="2918" x2="1828" y2="0"/>
		</g>
		<g style="--index: 57;">
			<path d="M1804,749" tabindex="0">
				<title>8d0rdwgx</title>
			</path>
			<rect x="1804" y="749" width="0" height="0"/>
			<path d="M1804,749L1804,749" tabindex="0">
				<title>00:21.69 on 2022-12-18</title>
			</path>
			<line x1="0" y1="749" x2="2219" y2="749"/>
			<line x1="1804" y1="2918" x2="1804" y2="0"/>
		</g>
		<g style="--index: 58;">
			<path d="M1845,663" tabindex="0">
				<title>8w0z5mqj</title>
			</path>
			<rect x="1845" y="663" width="0" height="0"/>
			<path d="M1845,663L1845,663" tabindex="0">
				<title>00:22.55 on 2023-01-28</title>
			</path>
			<line x1="0" y1="663" x2="2219" y2="663"/>
			<line x1="1845" y1="2918" x2="1845" y2="0"/>
		</g>
		<g style="--index: 59;">
			<path d="M1893,1646" tabindex="0">
				<title>jn2m23wj</title>
			</path>
			<rect x="1893" y="1646" width="0" height="0"/>
			<path d="M1893,1646L1893,1646" tabindex="0">
				<title>00:12.72 on 2023-03-17</title>
			</path>
			<line x1="0" y1="1646" x2="2219" y2="1646"/>
			<line x1="1893" y1="2918" x2="1893" y2="0"/>
		</g>
		<g style="--index: 60;">
			<path d="M1897,1100" tabindex="0">
				<title>810z203x</title>
			</path>
			<rect x="1897" y="1100" width="0" height="0"/>
			<path d="M1897,1100L1897,1100" tabindex="0">
				<title>00:18.18 on 2023-03-21</title>
			</path>
			<line x1="0" y1="1100" x2="2219" y2="1100"/>
			<line x1="1897" y1="2918" x2="1897" y2="0"/>
		</g>
		<g style="--index: 61;">
			<path d="M1908,1125" tabindex="0">
				<title>j20zyvpx</title>
			</path>
			<rect x="1908" y="1125" width="0" height="0"/>
			<path d="M1908,1125L1908,1125" tabindex="0">
				<title>00:17.93 on 2023-04-01</title>
			</path>
			<line x1="0" y1="1125" x2="2219" y2="1125"/>
			<line x1="1908" y1="2918" x2="1908" y2="0"/>
		</g>
		<g style="--index: 62;">
			<path d="M1937,979" tabindex="0">
				<title>8w0wk0zj</title>
			</path>
			<rect x="1937" y="979" width="0" height="0"/>
			<path d="M1937,979L1937,979" tabindex="0">
				<title>00:19.39 on 2023-04-30</title>
			</path>
			<line x1="0" y1="979" x2="2219" y2="979"/>
			<line x1="1937" y1="2918" x2="1937" y2="0"/>
		</g>
		<g style="--index: 63;">
			<path d="M1937,1011" tabindex="0">
				<title>x76nqwrj</title>
			</path>
			<rect x="1937" y="1011" width="0" height="0"/>
			<path d="M1937,1011L1937,1011" tabindex="0">
				<title>00:19.07 on 2023-04-30</title>
			</path>
			<line x1="0" y1="1011" x2="2219" y2="1011"/>
			<line x1="1937" y1="2918" x2="1937" y2="0"/>
		</g>
		<g style="--index: 64;">
			<path d="M1944,730" tabindex="0">
				<title>8q6r1noj</title>
			</path>
			<rect x="1944" y="730" width="0" height="0"/>
			<path d="M1944,730L1944,730" tabindex="0">
				<title>00:21.88 on 2023-05-07</title>
			</path>
			<line x1="0" y1="730" x2="2219" y2="730"/>
			<line x1="1944" y1="2918" x2="1944" y2="0"/>
		</g>
		<g style="--index: 65;">
			<path d="M1951,1077" tabindex="0">
				<title>xk1wl26j</title>
			</path>
			<rect x="1951" y="1077" width="0" height="0"/>
			<path d="M1951,1077L1951,1077" tabindex="0">
				<title>00:18.41 on 2023-05-14</title>
			</path>
			<line x1="0" y1="1077" x2="2219" y2="1077"/>
			<line x1="1951" y1="2918" x2="1951" y2="0"/>
		</g>
		<g style="--index: 66;">
			<path d="M1986,1088" tabindex="0">
				<title>8v2lo3vj</title>
			</path>
			<rect x="1986" y="1088" width="0" height="0"/>
			<path d="M1986,1088L1986,1088" tabindex="0">
				<title>00:18.30 on 2023-06-18</title>
			</path>
			<line x1="0" y1="1088" x2="2219" y2="1088"/>
			<line x1="1986" y1="2918" x2="1986" y2="0"/>
		</g>
		<g style="--index: 67;">
			<path d="M1998,1165" tabindex="0">
				<title>8q573kw8</title>
			</path>
			<rect x="1998" y="1165" width="0" height="0"/>
			<path d="M1998,1165L1998,1165" tabindex="0">
				<title>00:17.53 on 2023-06-30</title>
			</path>
			<line x1="0" y1="1165" x2="2219" y2="1165"/>
			<line x1="1998" y1="2918" x2="1998" y2="0"/>
		</g>
		<g style="--index: 68;">
			<path d="M2043,171" tabindex="0">
				<title>jon6e378</title>
			</path>
			<rect x="2043" y="171" width="0" height="0"/>
			<path d="M2043,171L2043,171" tabindex="0">
				<title>00:27.47 on 2023-08-14</title>
			</path>
			<line x1="0" y1="171" x2="2219" y2="171"/>
			<line x1="2043" y1="2918" x2="2043" y2="0"/>
		</g>
		<g style="--index: 69;">
			<path d="M2049,913" tabindex="0">
				<title>8ew371p8</title>
			</path>
			<rect x="2049" y="913" width="0" height="0"/>
			<path d="M2049,913L2049,913" tabindex="0">
				<title>00:20.05 on 2023-08-20</title>
			</path>
			<line x1="0" y1="913" x2="2219" y2="913"/>
			<line x1="2049" y1="2918" x2="2049" y2="0"/>
		</g>
		<g style="--index: 70;">
			<path d="M2160,1331L2219,1331L2219,1530" tabindex="0">
				<title>8w3l21qj</title>
			</path>
			<rect x="2160" y="1331" width="59" height="199"/>
			<path d="M2160,1331L2160,1331" tabindex="0">
				<title>00:15.87 on 2023-12-09</title>
			</path>
			<line x1="0" y1="1331" x2="2219" y2="1331"/>
			<line x1="2160" y1="2918" x2="2160" y2="0"/>
			<path d="M2219,1530L2219,1530" tabindex="0">
				<title>00:13.88 on 2024-02-06</title>
			</path>
			<line x1="0" y1="1530" x2="2219" y2="1530"/>
			<line x1="2219" y1="2918" x2="2219" y2="0"/>
		</g>
		<g style="--index: 71;">
			<path d="M2167,1195" tabindex="0">
				<title>jokgmv78</title>
			</path>
			<rect x="2167" y="1195" width="0" height="0"/>
			<path d="M2167,1195L2167,1195" tabindex="0">
				<title>00:17.23 on 2023-12-16</title>
			</path>
			<line x1="0" y1="1195" x2="2219" y2="1195"/>
			<line x1="2167" y1="2918" x2="2167" y2="0"/>
		</g>
		<g style="--index: 72;">
			<path d="M2197,1395" tabindex="0">
				<title>81mw6wq8</title>
			</path>
			<rect x="2197" y="1395" width="0" height="0"/>
			<path d="M2197,1395L2197,1395" tabindex="0">
				<title>00:15.23 on 2024-01-15</title>
			</path>
			<line x1="0" y1="1395" x2="2219" y2="1395"/>
			<line x1="2197" y1="2918" x2="2197" y2="0"/>
		</g>
	</g>
</svg>
