<svg xmlns="http://www.w3.org/2000/svg" viewBox="0 0 2203 41523" preserveAspectRatio="none" lang="en" style="color-scheme: dark light;">
	<title>Time by player for leaderboard l_r9gn1qpd-xd144xzd-38dz6v1n.z19md2jl</title>
	<style>
		svg {
			background: var(--canvas-background);
			fill: var(--canvas-background);
			stroke: var(--canvas-foreground);
			stroke-linejoin: round;
			stroke-linecap: round;
		}
		g &gt; path[tabindex] {
			vector-effect: non-scaling-stroke;
			fill: none;
			stroke: hsl(calc(var(--index) / var(--count) * 360), 50%, 50%);
			cursor: help;
		}
		g:is(:hover, :focus-within) &gt; path[tabindex] {
			stroke: var(--canvas-foreground);
		}
		g &gt; path[tabindex]:is(:hover, :focus-within) {
			outline: 0;
		}
		g &gt; path[tabindex]:first-of-type {
			stroke-width: 2;
		}
		g &gt; path[tabindex]:first-of-type:is(:hover, :focus-within) {
			stroke-width: 4;
		}
		g &gt; path[tabindex]:first-of-type:not(:last-of-type) {
			stroke-dasharray: 4 8;
		}
		g &gt; rect {
			vector-effect: non-scaling-stroke;
			fill: none;
			stroke: none;
			pointer-events: none;
		}
		g &gt; path[tabindex]:first-of-type:is(:hover, :focus-within) + rect {
			fill: var(--highlighted);
		}
		g &gt; path[tabindex]:first-of-type ~ path[tabindex] {
			stroke-width: 8;
		}
		g &gt; path[tabindex]:first-of-type ~ path[tabindex]:is(:hover, :focus-within) {
			stroke-width: 16;
		}
		g &gt; line {
			vector-effect: non-scaling-stroke;
			fill: none;
			stroke: none;
			stroke-width: 2;
			stroke-dasharray: 4 8;
			pointer-events: none;
		}
		g &gt; path[tabindex]:first-of-type:is(:hover, :focus-within) + rect + path[tabindex] + line,
		g &gt; path[tabindex]:first-of-type:is(:hover, :focus-within) + rect + path[tabindex] + line + line,
		g &gt; path[tabindex]:first-of-type:is(:hover, :focus-within) ~ path[tabindex]:last-of-type + line,
		g &gt; path[tabindex]:first-of-type:is(:hover, :focus-within) ~ path[tabindex]:last-of-type + line + line,
		g &gt; path[tabindex]:first-of-type ~ path[tabindex]:is(:hover, :focus-within) + line,
		g &gt; path[tabindex]:first-of-type ~ path[tabindex]:is(:hover, :focus-within) + line + line {
			stroke: var(--faded);
		}
		@media (prefers-color-scheme: dark) {
			:root {
				--canvas-background: #000;
				--canvas-foreground: #ccc;
				--highlighted: #6663;
				--faded: #9993;
			}
		}
		@media (prefers-color-scheme: light) {
			:root {
				--canvas-background: #fff;
				--canvas-foreground: #333;
				--highlighted: #9993;
				--faded: #6663;
			}
		}
	</style>
	<g transform="scale(1 -1)" transform-origin="center center" style="--count: 7;">
		<g style="--index: 0;">
			<path d="M0,41523" tabindex="0">
				<title>qj2pq1p8</title>
			</path>
			<rect x="0" y="41523" width="0" height="0"/>
			<path d="M0,41523L0,41523" tabindex="0">
				<title>06:55.23 on 2018-02-09</title>
			</path>
			<line x1="0" y1="41523" x2="2203" y2="41523"/>
			<line x1="0" y1="0" x2="0" y2="41523"/>
		</g>
		<g style="--index: 1;">
			<path d="M155,40140" tabindex="0">
				<title>y8dgoe98</title>
			</path>
			<rect x="155" y="40140" width="0" height="0"/>
			<path d="M155,40140L155,40140" tabindex="0">
				<title>06:41.40 on 2018-07-14</title>
			</path>
			<line x1="0" y1="40140" x2="2203" y2="40140"/>
			<line x1="155" y1="0" x2="155" y2="41523"/>
		</g>
		<g style="--index: 2;">
			<path d="M1027,31066L1059,31066L1059,28145L1080,28145L1080,26801L1948,26801L1948,25232" tabindex="0">
				<title>xkon93k8</title>
			</path>
			<rect x="1027" y="25232" width="921" height="5834"/>
			<path d="M1027,31066L1027,31066" tabindex="0">
				<title>05:10.66 on 2020-12-02</title>
			</path>
			<line x1="0" y1="31066" x2="2203" y2="31066"/>
			<line x1="1027" y1="0" x2="1027" y2="41523"/>
			<path d="M1059,28145L1059,28145" tabindex="0">
				<title>04:41.45 on 2021-01-03</title>
			</path>
			<line x1="0" y1="28145" x2="2203" y2="28145"/>
			<line x1="1059" y1="0" x2="1059" y2="41523"/>
			<path d="M1080,26801L1080,26801" tabindex="0">
				<title>04:28.01 on 2021-01-24</title>
			</path>
			<line x1="0" y1="26801" x2="2203" y2="26801"/>
			<line x1="1080" y1="0" x2="1080" y2="41523"/>
			<path d="M1948,25232L1948,25232" tabindex="0">
				<title>04:12.32 on 2023-06-11</title>
			</path>
			<line x1="0" y1="25232" x2="2203" y2="25232"/>
			<line x1="1948" y1="0" x2="1948" y2="41523"/>
		</g>
		<g style="--index: 3;">
			<path d="M1047,32558L1058,32558L1058,28973L1059,28973L1059,27266" tabindex="0">
				<title>814zn7l8</title>
			</path>
			<rect x="1047" y="27266" width="12" height="5292"/>
			<path d="M1047,32558L1047,32558" tabindex="0">
				<title>05:25.58 on 2020-12-22</title>
			</path>
			<line x1="0" y1="32558" x2="2203" y2="32558"/>
			<line x1="1047" y1="0" x2="1047" y2="41523"/>
			<path d="M1058,28973L1058,28973" tabindex="0">
				<title>04:49.73 on 2021-01-02</title>
			</path>
			<line x1="0" y1="28973" x2="2203" y2="28973"/>
			<line x1="1058" y1="0" x2="1058" y2="41523"/>
			<path d="M1059,27266L1059,27266" tabindex="0">
				<title>04:32.66 on 2021-01-03</title>
			</path>
			<line x1="0" y1="27266" x2="2203" y2="27266"/>
			<line x1="1059" y1="0" x2="1059" y2="41523"/>
		</g>
		<g style="--index: 4;">
			<path d="M1093,41170" tabindex="0">
				<title>j0np7or8</title>
			</path>
			<rect x="1093" y="41170" width="0" height="0"/>
			<path d="M1093,41170L1093,41170" tabindex="0">
				<title>06:51.70 on 2021-02-06</title>
			</path>
			<line x1="0" y1="41170" x2="2203" y2="41170"/>
			<line x1="1093" y1="0" x2="1093" y2="41523"/>
		</g>
		<g style="--index: 5;">
			<path d="M1488,26120" tabindex="0">
				<title>x356nrej</title>
			</path>
			<rect x="1488" y="26120" width="0" height="0"/>
			<path d="M1488,26120L1488,26120" tabindex="0">
				<title>04:21.20 on 2022-03-08</title>
			</path>
			<line x1="0" y1="26120" x2="2203" y2="26120"/>
			<line x1="1488" y1="0" x2="1488" y2="41523"/>
		</g>
		<g style="--index: 6;">
			<path d="M2131,34483L2190,34483L2190,28901L2203,28901L2203,27156" tabindex="0">
				<title>8w3l21qj</title>
			</path>
			<rect x="2131" y="27156" width="72" height="7327"/>
			<path d="M2131,34483L2131,34483" tabindex="0">
				<title>05:44.83 on 2023-12-11</title>
			</path>
			<line x1="0" y1="34483" x2="2203" y2="34483"/>
			<line x1="2131" y1="0" x2="2131" y2="41523"/>
			<path d="M2190,28901L2190,28901" tabindex="0">
				<title>04:49.01 on 2024-02-08</title>
			</path>
			<line x1="0" y1="28901" x2="2203" y2="28901"/>
			<line x1="2190" y1="0" x2="2190" y2="41523"/>
			<path d="M2203,27156L2203,27156" tabindex="0">
				<title>04:31.56 on 2024-02-21</title>
			</path>
			<line x1="0" y1="27156" x2="2203" y2="27156"/>
			<line x1="2203" y1="0" x2="2203" y2="41523"/>
		</g>
	</g>
</svg>
