<svg xmlns="http://www.w3.org/2000/svg" viewBox="0 0 802 3324" preserveAspectRatio="none" lang="en" style="color-scheme: dark light;">
		<title>Time by player for leaderboard l_r9gnozkd-rkl3znrk-wledz9en.4lxp7e2q</title>
		<style>
			svg {
				background: var(--canvas-background);
				fill: var(--canvas-background);
				stroke: var(--canvas-foreground);
				stroke-linejoin: round;
				stroke-linecap: round;
			}
			g &gt; path[tabindex] {
				vector-effect: non-scaling-stroke;
				fill: none;
				stroke: hsl(calc(var(--index) / var(--count) * 360), 50%, 50%);
				cursor: help;
			}
			g:is(:hover, :focus-within) &gt; path[tabindex] {
				stroke: var(--canvas-foreground);
			}
			g &gt; path[tabindex]:is(:hover, :focus-within) {
				outline: 0;
			}
			g &gt; path[tabindex]:first-of-type {
				stroke-width: 2;
			}
			g &gt; path[tabindex]:first-of-type:is(:hover, :focus-within) {
				stroke-width: 4;
			}
			g &gt; path[tabindex]:first-of-type:not(:last-of-type) {
				stroke-dasharray: 4 8;
			}
			g &gt; rect {
				vector-effect: non-scaling-stroke;
				fill: none;
				stroke: none;
				pointer-events: none;
			}
			g &gt; path[tabindex]:first-of-type:is(:hover, :focus-within) + rect {
				fill: var(--highlighted);
			}
			g &gt; path[tabindex]:first-of-type ~ path[tabindex] {
				stroke-width: 8;
			}
			g &gt; path[tabindex]:first-of-type ~ path[tabindex]:is(:hover, :focus-within) {
				stroke-width: 16;
			}
			g &gt; line {
				vector-effect: non-scaling-stroke;
				fill: none;
				stroke: none;
				stroke-width: 2;
				stroke-dasharray: 4 8;
				pointer-events: none;
			}
			g &gt; path[tabindex]:first-of-type:is(:hover, :focus-within) + rect + path[tabindex] + line,
			g &gt; path[tabindex]:first-of-type:is(:hover, :focus-within) + rect + path[tabindex] + line + line,
			g &gt; path[tabindex]:first-of-type:is(:hover, :focus-within) ~ path[tabindex]:last-of-type + line,
			g &gt; path[tabindex]:first-of-type:is(:hover, :focus-within) ~ path[tabindex]:last-of-type + line + line,
			g &gt; path[tabindex]:first-of-type ~ path[tabindex]:is(:hover, :focus-within) + line,
			g &gt; path[tabindex]:first-of-type ~ path[tabindex]:is(:hover, :focus-within) + line + line {
				stroke: var(--faded);
			}
			@media (prefers-color-scheme: dark) {
				:root {
					--canvas-background: #000;
					--canvas-foreground: #ccc;
					--highlighted: #6663;
					--faded: #9993;
				}
			}
			@media (prefers-color-scheme: light) {
				:root {
					--canvas-background: #fff;
					--canvas-foreground: #333;
					--highlighted: #9993;
					--faded: #6663;
				}
			}
		</style>
		<g transform="scale(1 -1)" transform-origin="center center" style="--count: 4;">
		<g style="--index: 0;">
			<path d="M0,3121" tabindex="0">
				<title>x356nrej</title>
			</path>
			<rect x="0" y="3121" width="0" height="0"/>
			<path d="M0,3121L0,3121" tabindex="0">
				<title>00:31.21 on 2020-11-02</title>
			</path>
			<line x1="0" y1="3121" x2="802" y2="3121"/>
			<line x1="0" y1="0" x2="0" y2="3324"/>
		</g>
		<g style="--index: 1;">
			<path d="M5,3324L11,3324L11,3105L283,3105L283,3011" tabindex="0">
				<title>j0np7or8</title>
			</path>
			<rect x="5" y="3011" width="278" height="313"/>
			<path d="M5,3324L5,3324" tabindex="0">
				<title>00:33.24 on 2020-11-07</title>
			</path>
			<line x1="0" y1="3324" x2="802" y2="3324"/>
			<line x1="5" y1="0" x2="5" y2="3324"/>
			<path d="M11,3105L11,3105" tabindex="0">
				<title>00:31.05 on 2020-11-13</title>
			</path>
			<line x1="0" y1="3105" x2="802" y2="3105"/>
			<line x1="11" y1="0" x2="11" y2="3324"/>
			<path d="M283,3011L283,3011" tabindex="0">
				<title>00:30.11 on 2021-08-12</title>
			</path>
			<line x1="0" y1="3011" x2="802" y2="3011"/>
			<line x1="283" y1="0" x2="283" y2="3324"/>
		</g>
		<g style="--index: 2;">
			<path d="M41,3015L283,3015L283,2997" tabindex="0">
				<title>x7q00668</title>
			</path>
			<rect x="41" y="2997" width="242" height="18"/>
			<path d="M41,3015L41,3015" tabindex="0">
				<title>00:30.15 on 2020-12-13</title>
			</path>
			<line x1="0" y1="3015" x2="802" y2="3015"/>
			<line x1="41" y1="0" x2="41" y2="3324"/>
			<path d="M283,2997L283,2997" tabindex="0">
				<title>00:29.97 on 2021-08-12</title>
			</path>
			<line x1="0" y1="2997" x2="802" y2="2997"/>
			<line x1="283" y1="0" x2="283" y2="3324"/>
		</g>
		<g style="--index: 3;">
			<path d="M547,2972L558,2972L558,2940L559,2940L559,2897L690,2897L690,2875L800,2875L800,2854L802,2854L802,2847" tabindex="0">
				<title>x3m3kle8</title>
			</path>
			<rect x="547" y="2847" width="255" height="125"/>
			<path d="M547,2972L547,2972" tabindex="0">
				<title>00:29.72 on 2022-05-03</title>
			</path>
			<line x1="0" y1="2972" x2="802" y2="2972"/>
			<line x1="547" y1="0" x2="547" y2="3324"/>
			<path d="M558,2940L558,2940" tabindex="0">
				<title>00:29.40 on 2022-05-14</title>
			</path>
			<line x1="0" y1="2940" x2="802" y2="2940"/>
			<line x1="558" y1="0" x2="558" y2="3324"/>
			<path d="M559,2897L559,2897" tabindex="0">
				<title>00:28.97 on 2022-05-15</title>
			</path>
			<line x1="0" y1="2897" x2="802" y2="2897"/>
			<line x1="559" y1="0" x2="559" y2="3324"/>
			<path d="M690,2875L690,2875" tabindex="0">
				<title>00:28.75 on 2022-09-23</title>
			</path>
			<line x1="0" y1="2875" x2="802" y2="2875"/>
			<line x1="690" y1="0" x2="690" y2="3324"/>
			<path d="M800,2854L800,2854" tabindex="0">
				<title>00:28.54 on 2023-01-11</title>
			</path>
			<line x1="0" y1="2854" x2="802" y2="2854"/>
			<line x1="800" y1="0" x2="800" y2="3324"/>
			<path d="M802,2847L802,2847" tabindex="0">
				<title>00:28.47 on 2023-01-13</title>
			</path>
			<line x1="0" y1="2847" x2="802" y2="2847"/>
			<line x1="802" y1="0" x2="802" y2="3324"/>
		</g>
	</g>
</svg>
