<svg xmlns="http://www.w3.org/2000/svg" viewBox="0 0 2229 4840" preserveAspectRatio="none" lang="en" style="color-scheme: dark light;">
		<title>Time by player for leaderboard l_r9gn1qpd-9d8eewld-0nwoqwkl.klrpy2jq</title>
		<style>
			svg {
				background: var(--canvas-background);
				fill: var(--canvas-background);
				stroke: var(--canvas-foreground);
				stroke-linejoin: round;
				stroke-linecap: round;
			}
			g &gt; path[tabindex] {
				vector-effect: non-scaling-stroke;
				fill: none;
				stroke: hsl(calc(var(--index) / var(--count) * 360), 50%, 50%);
				cursor: help;
			}
			g:is(:hover, :focus-within) &gt; path[tabindex] {
				stroke: var(--canvas-foreground);
			}
			g &gt; path[tabindex]:is(:hover, :focus-within) {
				outline: 0;
			}
			g &gt; path[tabindex]:first-of-type {
				stroke-width: 2;
			}
			g &gt; path[tabindex]:first-of-type:is(:hover, :focus-within) {
				stroke-width: 4;
			}
			g &gt; path[tabindex]:first-of-type:not(:last-of-type) {
				stroke-dasharray: 4 8;
			}
			g &gt; rect {
				vector-effect: non-scaling-stroke;
				fill: none;
				stroke: none;
				pointer-events: none;
			}
			g &gt; path[tabindex]:first-of-type:is(:hover, :focus-within) + rect {
				fill: var(--highlighted);
			}
			g &gt; path[tabindex]:first-of-type ~ path[tabindex] {
				stroke-width: 8;
			}
			g &gt; path[tabindex]:first-of-type ~ path[tabindex]:is(:hover, :focus-within) {
				stroke-width: 16;
			}
			g &gt; line {
				vector-effect: non-scaling-stroke;
				fill: none;
				stroke: none;
				stroke-width: 2;
				stroke-dasharray: 4 8;
				pointer-events: none;
			}
			g &gt; path[tabindex]:first-of-type:is(:hover, :focus-within) + rect + path[tabindex] + line,
			g &gt; path[tabindex]:first-of-type:is(:hover, :focus-within) + rect + path[tabindex] + line + line,
			g &gt; path[tabindex]:first-of-type:is(:hover, :focus-within) ~ path[tabindex]:last-of-type + line,
			g &gt; path[tabindex]:first-of-type:is(:hover, :focus-within) ~ path[tabindex]:last-of-type + line + line,
			g &gt; path[tabindex]:first-of-type ~ path[tabindex]:is(:hover, :focus-within) + line,
			g &gt; path[tabindex]:first-of-type ~ path[tabindex]:is(:hover, :focus-within) + line + line {
				stroke: var(--faded);
			}
			@media (prefers-color-scheme: dark) {
				:root {
					--canvas-background: #000;
					--canvas-foreground: #ccc;
					--highlighted: #6663;
					--faded: #9993;
				}
			}
			@media (prefers-color-scheme: light) {
				:root {
					--canvas-background: #fff;
					--canvas-foreground: #333;
					--highlighted: #9993;
					--faded: #6663;
				}
			}
		</style>
		<g style="--count: 39;">
		<g style="--index: 0;">
			<path d="M0,2470L2,2470L2,2591L14,2591L14,2670L16,2670L16,2756" tabindex="0">
				<title>qj2pq1p8</title>
			</path>
			<rect x="0" y="2470" width="16" height="286"/>
			<path d="M0,2470L0,2470" tabindex="0">
				<title>00:23.70 on 2018-01-17</title>
			</path>
			<line x1="0" y1="2470" x2="2229" y2="2470"/>
			<line x1="0" y1="4840" x2="0" y2="0"/>
			<path d="M2,2591L2,2591" tabindex="0">
				<title>00:22.49 on 2018-01-19</title>
			</path>
			<line x1="0" y1="2591" x2="2229" y2="2591"/>
			<line x1="2" y1="4840" x2="2" y2="0"/>
			<path d="M14,2670L14,2670" tabindex="0">
				<title>00:21.70 on 2018-01-31</title>
			</path>
			<line x1="0" y1="2670" x2="2229" y2="2670"/>
			<line x1="14" y1="4840" x2="14" y2="0"/>
			<path d="M16,2756L16,2756" tabindex="0">
				<title>00:20.84 on 2018-02-02</title>
			</path>
			<line x1="0" y1="2756" x2="2229" y2="2756"/>
			<line x1="16" y1="4840" x2="16" y2="0"/>
		</g>
		<g style="--index: 1;">
			<path d="M16,2731L17,2731L17,2889" tabindex="0">
				<title>kj9kz6r8</title>
			</path>
			<rect x="16" y="2731" width="1" height="158"/>
			<path d="M16,2731L16,2731" tabindex="0">
				<title>00:21.09 on 2018-02-02</title>
			</path>
			<line x1="0" y1="2731" x2="2229" y2="2731"/>
			<line x1="16" y1="4840" x2="16" y2="0"/>
			<path d="M17,2889L17,2889" tabindex="0">
				<title>00:19.51 on 2018-02-03</title>
			</path>
			<line x1="0" y1="2889" x2="2229" y2="2889"/>
			<line x1="17" y1="4840" x2="17" y2="0"/>
		</g>
		<g style="--index: 2;">
			<path d="M60,2781" tabindex="0">
				<title>18qg9ndx</title>
			</path>
			<rect x="60" y="2781" width="0" height="0"/>
			<path d="M60,2781L60,2781" tabindex="0">
				<title>00:20.59 on 2018-03-18</title>
			</path>
			<line x1="0" y1="2781" x2="2229" y2="2781"/>
			<line x1="60" y1="4840" x2="60" y2="0"/>
		</g>
		<g style="--index: 3;">
			<path d="M90,3005L96,3005L96,3073" tabindex="0">
				<title>y8dgoe98</title>
			</path>
			<rect x="90" y="3005" width="6" height="68"/>
			<path d="M90,3005L90,3005" tabindex="0">
				<title>00:18.35 on 2018-04-17</title>
			</path>
			<line x1="0" y1="3005" x2="2229" y2="3005"/>
			<line x1="90" y1="4840" x2="90" y2="0"/>
			<path d="M96,3073L96,3073" tabindex="0">
				<title>00:17.67 on 2018-04-23</title>
			</path>
			<line x1="0" y1="3073" x2="2229" y2="3073"/>
			<line x1="96" y1="4840" x2="96" y2="0"/>
		</g>
		<g style="--index: 4;">
			<path d="M574,2237" tabindex="0">
				<title>j9rlkzoj</title>
			</path>
			<rect x="574" y="2237" width="0" height="0"/>
			<path d="M574,2237L574,2237" tabindex="0">
				<title>00:26.03 on 2019-08-14</title>
			</path>
			<line x1="0" y1="2237" x2="2229" y2="2237"/>
			<line x1="574" y1="4840" x2="574" y2="0"/>
		</g>
		<g style="--index: 5;">
			<path d="M859,3062L965,3062L965,3121L1091,3121L1091,3245" tabindex="0">
				<title>x356nrej</title>
			</path>
			<rect x="859" y="3062" width="232" height="183"/>
			<path d="M859,3062L859,3062" tabindex="0">
				<title>00:17.78 on 2020-05-25</title>
			</path>
			<line x1="0" y1="3062" x2="2229" y2="3062"/>
			<line x1="859" y1="4840" x2="859" y2="0"/>
			<path d="M965,3121L965,3121" tabindex="0">
				<title>00:17.19 on 2020-09-08</title>
			</path>
			<line x1="0" y1="3121" x2="2229" y2="3121"/>
			<line x1="965" y1="4840" x2="965" y2="0"/>
			<path d="M1091,3245L1091,3245" tabindex="0">
				<title>00:15.95 on 2021-01-12</title>
			</path>
			<line x1="0" y1="3245" x2="2229" y2="3245"/>
			<line x1="1091" y1="4840" x2="1091" y2="0"/>
		</g>
		<g style="--index: 6;">
			<path d="M956,3183L987,3183L987,3269L1190,3269L1190,3369L1467,3369L1467,3410" tabindex="0">
				<title>j2yr9lp8</title>
			</path>
			<rect x="956" y="3183" width="511" height="227"/>
			<path d="M956,3183L956,3183" tabindex="0">
				<title>00:16.57 on 2020-08-30</title>
			</path>
			<line x1="0" y1="3183" x2="2229" y2="3183"/>
			<line x1="956" y1="4840" x2="956" y2="0"/>
			<path d="M987,3269L987,3269" tabindex="0">
				<title>00:15.71 on 2020-09-30</title>
			</path>
			<line x1="0" y1="3269" x2="2229" y2="3269"/>
			<line x1="987" y1="4840" x2="987" y2="0"/>
			<path d="M1190,3369L1190,3369" tabindex="0">
				<title>00:14.71 on 2021-04-21</title>
			</path>
			<line x1="0" y1="3369" x2="2229" y2="3369"/>
			<line x1="1190" y1="4840" x2="1190" y2="0"/>
			<path d="M1467,3410L1467,3410" tabindex="0">
				<title>00:14.30 on 2022-01-23</title>
			</path>
			<line x1="0" y1="3410" x2="2229" y2="3410"/>
			<line x1="1467" y1="4840" x2="1467" y2="0"/>
		</g>
		<g style="--index: 7;">
			<path d="M1041,2943L1050,2943L1050,3142L1140,3142L1140,3286" tabindex="0">
				<title>x7q00668</title>
			</path>
			<rect x="1041" y="2943" width="99" height="343"/>
			<path d="M1041,2943L1041,2943" tabindex="0">
				<title>00:18.97 on 2020-11-23</title>
			</path>
			<line x1="0" y1="2943" x2="2229" y2="2943"/>
			<line x1="1041" y1="4840" x2="1041" y2="0"/>
			<path d="M1050,3142L1050,3142" tabindex="0">
				<title>00:16.98 on 2020-12-02</title>
			</path>
			<line x1="0" y1="3142" x2="2229" y2="3142"/>
			<line x1="1050" y1="4840" x2="1050" y2="0"/>
			<path d="M1140,3286L1140,3286" tabindex="0">
				<title>00:15.54 on 2021-03-02</title>
			</path>
			<line x1="0" y1="3286" x2="2229" y2="3286"/>
			<line x1="1140" y1="4840" x2="1140" y2="0"/>
		</g>
		<g style="--index: 8;">
			<path d="M1081,3300L1122,3300L1122,3322L1124,3322L1124,3365" tabindex="0">
				<title>xkon93k8</title>
			</path>
			<rect x="1081" y="3300" width="43" height="65"/>
			<path d="M1081,3300L1081,3300" tabindex="0">
				<title>00:15.40 on 2021-01-02</title>
			</path>
			<line x1="0" y1="3300" x2="2229" y2="3300"/>
			<line x1="1081" y1="4840" x2="1081" y2="0"/>
			<path d="M1122,3322L1122,3322" tabindex="0">
				<title>00:15.18 on 2021-02-12</title>
			</path>
			<line x1="0" y1="3322" x2="2229" y2="3322"/>
			<line x1="1122" y1="4840" x2="1122" y2="0"/>
			<path d="M1124,3365L1124,3365" tabindex="0">
				<title>00:14.75 on 2021-02-14</title>
			</path>
			<line x1="0" y1="3365" x2="2229" y2="3365"/>
			<line x1="1124" y1="4840" x2="1124" y2="0"/>
		</g>
		<g style="--index: 9;">
			<path d="M1090,3060L1139,3060L1139,3208" tabindex="0">
				<title>j0np7or8</title>
			</path>
			<rect x="1090" y="3060" width="49" height="148"/>
			<path d="M1090,3060L1090,3060" tabindex="0">
				<title>00:17.80 on 2021-01-11</title>
			</path>
			<line x1="0" y1="3060" x2="2229" y2="3060"/>
			<line x1="1090" y1="4840" x2="1090" y2="0"/>
			<path d="M1139,3208L1139,3208" tabindex="0">
				<title>00:16.32 on 2021-03-01</title>
			</path>
			<line x1="0" y1="3208" x2="2229" y2="3208"/>
			<line x1="1139" y1="4840" x2="1139" y2="0"/>
		</g>
		<g style="--index: 10;">
			<path d="M1116,3305L1123,3305L1123,3350" tabindex="0">
				<title>jnzg27dj</title>
			</path>
			<rect x="1116" y="3305" width="7" height="45"/>
			<path d="M1116,3305L1116,3305" tabindex="0">
				<title>00:15.35 on 2021-02-06</title>
			</path>
			<line x1="0" y1="3305" x2="2229" y2="3305"/>
			<line x1="1116" y1="4840" x2="1116" y2="0"/>
			<path d="M1123,3350L1123,3350" tabindex="0">
				<title>00:14.90 on 2021-02-13</title>
			</path>
			<line x1="0" y1="3350" x2="2229" y2="3350"/>
			<line x1="1123" y1="4840" x2="1123" y2="0"/>
		</g>
		<g style="--index: 11;">
			<path d="M1190,2851" tabindex="0">
				<title>j2w76dnj</title>
			</path>
			<rect x="1190" y="2851" width="0" height="0"/>
			<path d="M1190,2851L1190,2851" tabindex="0">
				<title>00:19.89 on 2021-04-21</title>
			</path>
			<line x1="0" y1="2851" x2="2229" y2="2851"/>
			<line x1="1190" y1="4840" x2="1190" y2="0"/>
		</g>
		<g style="--index: 12;">
			<path d="M1630,2937" tabindex="0">
				<title>xk3knqk8</title>
			</path>
			<rect x="1630" y="2937" width="0" height="0"/>
			<path d="M1630,2937L1630,2937" tabindex="0">
				<title>00:19.03 on 2022-07-05</title>
			</path>
			<line x1="0" y1="2937" x2="2229" y2="2937"/>
			<line x1="1630" y1="4840" x2="1630" y2="0"/>
		</g>
		<g style="--index: 13;">
			<path d="M1634,2952" tabindex="0">
				<title>8gmvl418</title>
			</path>
			<rect x="1634" y="2952" width="0" height="0"/>
			<path d="M1634,2952L1634,2952" tabindex="0">
				<title>00:18.88 on 2022-07-09</title>
			</path>
			<line x1="0" y1="2952" x2="2229" y2="2952"/>
			<line x1="1634" y1="4840" x2="1634" y2="0"/>
		</g>
		<g style="--index: 14;">
			<path d="M1653,1911" tabindex="0">
				<title>j0grn39x</title>
			</path>
			<rect x="1653" y="1911" width="0" height="0"/>
			<path d="M1653,1911L1653,1911" tabindex="0">
				<title>00:29.29 on 2022-07-28</title>
			</path>
			<line x1="0" y1="1911" x2="2229" y2="1911"/>
			<line x1="1653" y1="4840" x2="1653" y2="0"/>
		</g>
		<g style="--index: 15;">
			<path d="M1665,2547" tabindex="0">
				<title>j0gyr64x</title>
			</path>
			<rect x="1665" y="2547" width="0" height="0"/>
			<path d="M1665,2547L1665,2547" tabindex="0">
				<title>00:22.93 on 2022-08-09</title>
			</path>
			<line x1="0" y1="2547" x2="2229" y2="2547"/>
			<line x1="1665" y1="4840" x2="1665" y2="0"/>
		</g>
		<g style="--index: 16;">
			<path d="M1679,2498L1690,2498L1690,2715" tabindex="0">
				<title>xk1oze6j</title>
			</path>
			<rect x="1679" y="2498" width="11" height="217"/>
			<path d="M1679,2498L1679,2498" tabindex="0">
				<title>00:23.42 on 2022-08-23</title>
			</path>
			<line x1="0" y1="2498" x2="2229" y2="2498"/>
			<line x1="1679" y1="4840" x2="1679" y2="0"/>
			<path d="M1690,2715L1690,2715" tabindex="0">
				<title>00:21.25 on 2022-09-03</title>
			</path>
			<line x1="0" y1="2715" x2="2229" y2="2715"/>
			<line x1="1690" y1="4840" x2="1690" y2="0"/>
		</g>
		<g style="--index: 17;">
			<path d="M1683,1201" tabindex="0">
				<title>8v2ke1ej</title>
			</path>
			<rect x="1683" y="1201" width="0" height="0"/>
			<path d="M1683,1201L1683,1201" tabindex="0">
				<title>00:36.39 on 2022-08-27</title>
			</path>
			<line x1="0" y1="1201" x2="2229" y2="1201"/>
			<line x1="1683" y1="4840" x2="1683" y2="0"/>
		</g>
		<g style="--index: 18;">
			<path d="M1694,2464" tabindex="0">
				<title>8v2ky15j</title>
			</path>
			<rect x="1694" y="2464" width="0" height="0"/>
			<path d="M1694,2464L1694,2464" tabindex="0">
				<title>00:23.76 on 2022-09-07</title>
			</path>
			<line x1="0" y1="2464" x2="2229" y2="2464"/>
			<line x1="1694" y1="4840" x2="1694" y2="0"/>
		</g>
		<g style="--index: 19;">
			<path d="M1697,3360" tabindex="0">
				<title>j4235d5x</title>
			</path>
			<rect x="1697" y="3360" width="0" height="0"/>
			<path d="M1697,3360L1697,3360" tabindex="0">
				<title>00:14.80 on 2022-09-10</title>
			</path>
			<line x1="0" y1="3360" x2="2229" y2="3360"/>
			<line x1="1697" y1="4840" x2="1697" y2="0"/>
		</g>
		<g style="--index: 20;">
			<path d="M1759,3043" tabindex="0">
				<title>8d0y16gx</title>
			</path>
			<rect x="1759" y="3043" width="0" height="0"/>
			<path d="M1759,3043L1759,3043" tabindex="0">
				<title>00:17.97 on 2022-11-11</title>
			</path>
			<line x1="0" y1="3043" x2="2229" y2="3043"/>
			<line x1="1759" y1="4840" x2="1759" y2="0"/>
		</g>
		<g style="--index: 21;">
			<path d="M1786,2723" tabindex="0">
				<title>8g0ezgyx</title>
			</path>
			<rect x="1786" y="2723" width="0" height="0"/>
			<path d="M1786,2723L1786,2723" tabindex="0">
				<title>00:21.17 on 2022-12-08</title>
			</path>
			<line x1="0" y1="2723" x2="2229" y2="2723"/>
			<line x1="1786" y1="4840" x2="1786" y2="0"/>
		</g>
		<g style="--index: 22;">
			<path d="M1798,3423L2004,3423L2004,3449" tabindex="0">
				<title>jn2m23wj</title>
			</path>
			<rect x="1798" y="3423" width="206" height="26"/>
			<path d="M1798,3423L1798,3423" tabindex="0">
				<title>00:14.17 on 2022-12-20</title>
			</path>
			<line x1="0" y1="3423" x2="2229" y2="3423"/>
			<line x1="1798" y1="4840" x2="1798" y2="0"/>
			<path d="M2004,3449L2004,3449" tabindex="0">
				<title>00:13.91 on 2023-07-14</title>
			</path>
			<line x1="0" y1="3449" x2="2229" y2="3449"/>
			<line x1="2004" y1="4840" x2="2004" y2="0"/>
		</g>
		<g style="--index: 23;">
			<path d="M1834,2634" tabindex="0">
				<title>8ewm6dd8</title>
			</path>
			<rect x="1834" y="2634" width="0" height="0"/>
			<path d="M1834,2634L1834,2634" tabindex="0">
				<title>00:22.06 on 2023-01-25</title>
			</path>
			<line x1="0" y1="2634" x2="2229" y2="2634"/>
			<line x1="1834" y1="4840" x2="1834" y2="0"/>
		</g>
		<g style="--index: 24;">
			<path d="M1851,2711" tabindex="0">
				<title>8g0voerx</title>
			</path>
			<rect x="1851" y="2711" width="0" height="0"/>
			<path d="M1851,2711L1851,2711" tabindex="0">
				<title>00:21.29 on 2023-02-11</title>
			</path>
			<line x1="0" y1="2711" x2="2229" y2="2711"/>
			<line x1="1851" y1="4840" x2="1851" y2="0"/>
		</g>
		<g style="--index: 25;">
			<path d="M1875,3183" tabindex="0">
				<title>8q6d47oj</title>
			</path>
			<rect x="1875" y="3183" width="0" height="0"/>
			<path d="M1875,3183L1875,3183" tabindex="0">
				<title>00:16.57 on 2023-03-07</title>
			</path>
			<line x1="0" y1="3183" x2="2229" y2="3183"/>
			<line x1="1875" y1="4840" x2="1875" y2="0"/>
		</g>
		<g style="--index: 26;">
			<path d="M1887,3127" tabindex="0">
				<title>x7w44nr8</title>
			</path>
			<rect x="1887" y="3127" width="0" height="0"/>
			<path d="M1887,3127L1887,3127" tabindex="0">
				<title>00:17.13 on 2023-03-19</title>
			</path>
			<line x1="0" y1="3127" x2="2229" y2="3127"/>
			<line x1="1887" y1="4840" x2="1887" y2="0"/>
		</g>
		<g style="--index: 27;">
			<path d="M1887,0" tabindex="0">
				<title>jone7r08</title>
			</path>
			<rect x="1887" y="0" width="0" height="0"/>
			<path d="M1887,0L1887,0" tabindex="0">
				<title>00:48.40 on 2023-03-19</title>
			</path>
			<line x1="0" y1="0" x2="2229" y2="0"/>
			<line x1="1887" y1="4840" x2="1887" y2="0"/>
		</g>
		<g style="--index: 28;">
			<path d="M1901,2967" tabindex="0">
				<title>j20zyvpx</title>
			</path>
			<rect x="1901" y="2967" width="0" height="0"/>
			<path d="M1901,2967L1901,2967" tabindex="0">
				<title>00:18.73 on 2023-04-02</title>
			</path>
			<line x1="0" y1="2967" x2="2229" y2="2967"/>
			<line x1="1901" y1="4840" x2="1901" y2="0"/>
		</g>
		<g style="--index: 29;">
			<path d="M1955,3372" tabindex="0">
				<title>x3wdlvkj</title>
			</path>
			<rect x="1955" y="3372" width="0" height="0"/>
			<path d="M1955,3372L1955,3372" tabindex="0">
				<title>00:14.68 on 2023-05-26</title>
			</path>
			<line x1="0" y1="3372" x2="2229" y2="3372"/>
			<line x1="1955" y1="4840" x2="1955" y2="0"/>
		</g>
		<g style="--index: 30;">
			<path d="M1984,3336" tabindex="0">
				<title>81qlgylj</title>
			</path>
			<rect x="1984" y="3336" width="0" height="0"/>
			<path d="M1984,3336L1984,3336" tabindex="0">
				<title>00:15.04 on 2023-06-24</title>
			</path>
			<line x1="0" y1="3336" x2="2229" y2="3336"/>
			<line x1="1984" y1="4840" x2="1984" y2="0"/>
		</g>
		<g style="--index: 31;">
			<path d="M1997,3079" tabindex="0">
				<title>86rg9y38</title>
			</path>
			<rect x="1997" y="3079" width="0" height="0"/>
			<path d="M1997,3079L1997,3079" tabindex="0">
				<title>00:17.61 on 2023-07-07</title>
			</path>
			<line x1="0" y1="3079" x2="2229" y2="3079"/>
			<line x1="1997" y1="4840" x2="1997" y2="0"/>
		</g>
		<g style="--index: 32;">
			<path d="M2002,2669" tabindex="0">
				<title>8q5zpro8</title>
			</path>
			<rect x="2002" y="2669" width="0" height="0"/>
			<path d="M2002,2669L2002,2669" tabindex="0">
				<title>00:21.71 on 2023-07-12</title>
			</path>
			<line x1="0" y1="2669" x2="2229" y2="2669"/>
			<line x1="2002" y1="4840" x2="2002" y2="0"/>
		</g>
		<g style="--index: 33;">
			<path d="M2145,2970" tabindex="0">
				<title>8dpyq2m8</title>
			</path>
			<rect x="2145" y="2970" width="0" height="0"/>
			<path d="M2145,2970L2145,2970" tabindex="0">
				<title>00:18.70 on 2023-12-02</title>
			</path>
			<line x1="0" y1="2970" x2="2229" y2="2970"/>
			<line x1="2145" y1="4840" x2="2145" y2="0"/>
		</g>
		<g style="--index: 34;">
			<path d="M2152,2919L2229,2919L2229,3273" tabindex="0">
				<title>8w3l21qj</title>
			</path>
			<rect x="2152" y="2919" width="77" height="354"/>
			<path d="M2152,2919L2152,2919" tabindex="0">
				<title>00:19.21 on 2023-12-09</title>
			</path>
			<line x1="0" y1="2919" x2="2229" y2="2919"/>
			<line x1="2152" y1="4840" x2="2152" y2="0"/>
			<path d="M2229,3273L2229,3273" tabindex="0">
				<title>00:15.67 on 2024-02-24</title>
			</path>
			<line x1="0" y1="3273" x2="2229" y2="3273"/>
			<line x1="2229" y1="4840" x2="2229" y2="0"/>
		</g>
		<g style="--index: 35;">
			<path d="M2155,2671" tabindex="0">
				<title>8v0m9e5x</title>
			</path>
			<rect x="2155" y="2671" width="0" height="0"/>
			<path d="M2155,2671L2155,2671" tabindex="0">
				<title>00:21.69 on 2023-12-12</title>
			</path>
			<line x1="0" y1="2671" x2="2229" y2="2671"/>
			<line x1="2155" y1="4840" x2="2155" y2="0"/>
		</g>
		<g style="--index: 36;">
			<path d="M2177,2876L2191,2876L2191,3094" tabindex="0">
				<title>8dpl6o58</title>
			</path>
			<rect x="2177" y="2876" width="14" height="218"/>
			<path d="M2177,2876L2177,2876" tabindex="0">
				<title>00:19.64 on 2024-01-03</title>
			</path>
			<line x1="0" y1="2876" x2="2229" y2="2876"/>
			<line x1="2177" y1="4840" x2="2177" y2="0"/>
			<path d="M2191,3094L2191,3094" tabindex="0">
				<title>00:17.46 on 2024-01-17</title>
			</path>
			<line x1="0" y1="3094" x2="2229" y2="3094"/>
			<line x1="2191" y1="4840" x2="2191" y2="0"/>
		</g>
		<g style="--index: 37;">
			<path d="M2216,2527" tabindex="0">
				<title>x770ozqx</title>
			</path>
			<rect x="2216" y="2527" width="0" height="0"/>
			<path d="M2216,2527L2216,2527" tabindex="0">
				<title>00:23.13 on 2024-02-11</title>
			</path>
			<line x1="0" y1="2527" x2="2229" y2="2527"/>
			<line x1="2216" y1="4840" x2="2216" y2="0"/>
		</g>
		<g style="--index: 38;">
			<path d="M2219,2968" tabindex="0">
				<title>jpyn610j</title>
			</path>
			<rect x="2219" y="2968" width="0" height="0"/>
			<path d="M2219,2968L2219,2968" tabindex="0">
				<title>00:18.72 on 2024-02-14</title>
			</path>
			<line x1="0" y1="2968" x2="2229" y2="2968"/>
			<line x1="2219" y1="4840" x2="2219" y2="0"/>
		</g>
	</g>
</svg>
