<svg xmlns="http://www.w3.org/2000/svg" viewBox="0 0 1141 3981" preserveAspectRatio="none" lang="en" style="color-scheme: dark light;">
		<title>Time by player for leaderboard l_r9gnozkd-rkl3znrk-wledz9en.rqvp5e7q</title>
		<style>
			svg {
				background: var(--canvas-background);
				fill: var(--canvas-background);
				stroke: var(--canvas-foreground);
				stroke-linejoin: round;
				stroke-linecap: round;
			}
			g &gt; path[tabindex] {
				vector-effect: non-scaling-stroke;
				fill: none;
				stroke: hsl(calc(var(--index) / var(--count) * 360), 50%, 50%);
				cursor: help;
			}
			g:is(:hover, :focus-within) &gt; path[tabindex] {
				stroke: var(--canvas-foreground);
			}
			g &gt; path[tabindex]:is(:hover, :focus-within) {
				outline: 0;
			}
			g &gt; path[tabindex]:first-of-type {
				stroke-width: 2;
			}
			g &gt; path[tabindex]:first-of-type:is(:hover, :focus-within) {
				stroke-width: 4;
			}
			g &gt; path[tabindex]:first-of-type:not(:last-of-type) {
				stroke-dasharray: 4 8;
			}
			g &gt; rect {
				vector-effect: non-scaling-stroke;
				fill: none;
				stroke: none;
				pointer-events: none;
			}
			g &gt; path[tabindex]:first-of-type:is(:hover, :focus-within) + rect {
				fill: var(--highlighted);
			}
			g &gt; path[tabindex]:first-of-type ~ path[tabindex] {
				stroke-width: 8;
			}
			g &gt; path[tabindex]:first-of-type ~ path[tabindex]:is(:hover, :focus-within) {
				stroke-width: 16;
			}
			g &gt; line {
				vector-effect: non-scaling-stroke;
				fill: none;
				stroke: none;
				stroke-width: 2;
				stroke-dasharray: 4 8;
				pointer-events: none;
			}
			g &gt; path[tabindex]:first-of-type:is(:hover, :focus-within) + rect + path[tabindex] + line,
			g &gt; path[tabindex]:first-of-type:is(:hover, :focus-within) + rect + path[tabindex] + line + line,
			g &gt; path[tabindex]:first-of-type:is(:hover, :focus-within) ~ path[tabindex]:last-of-type + line,
			g &gt; path[tabindex]:first-of-type:is(:hover, :focus-within) ~ path[tabindex]:last-of-type + line + line,
			g &gt; path[tabindex]:first-of-type ~ path[tabindex]:is(:hover, :focus-within) + line,
			g &gt; path[tabindex]:first-of-type ~ path[tabindex]:is(:hover, :focus-within) + line + line {
				stroke: var(--faded);
			}
			@media (prefers-color-scheme: dark) {
				:root {
					--canvas-background: #000;
					--canvas-foreground: #ccc;
					--highlighted: #6663;
					--faded: #9993;
				}
			}
			@media (prefers-color-scheme: light) {
				:root {
					--canvas-background: #fff;
					--canvas-foreground: #333;
					--highlighted: #9993;
					--faded: #6663;
				}
			}
		</style>
		<g transform="scale(1 -1)" transform-origin="center center" style="--count: 10;">
		<g style="--index: 0;">
			<path d="M0,1214L22,1214L22,1188L35,1188L35,1179L51,1179L51,1161L60,1161L60,1139L86,1139L86,1119" tabindex="0">
				<title>8e94kq6j</title>
			</path>
			<rect x="0" y="1119" width="86" height="95"/>
			<path d="M0,1214L0,1214" tabindex="0">
				<title>00:12.14 on 2020-10-30</title>
			</path>
			<line x1="0" y1="1214" x2="1141" y2="1214"/>
			<line x1="0" y1="0" x2="0" y2="3981"/>
			<path d="M22,1188L22,1188" tabindex="0">
				<title>00:11.88 on 2020-11-21</title>
			</path>
			<line x1="0" y1="1188" x2="1141" y2="1188"/>
			<line x1="22" y1="0" x2="22" y2="3981"/>
			<path d="M35,1179L35,1179" tabindex="0">
				<title>00:11.79 on 2020-12-04</title>
			</path>
			<line x1="0" y1="1179" x2="1141" y2="1179"/>
			<line x1="35" y1="0" x2="35" y2="3981"/>
			<path d="M51,1161L51,1161" tabindex="0">
				<title>00:11.61 on 2020-12-20</title>
			</path>
			<line x1="0" y1="1161" x2="1141" y2="1161"/>
			<line x1="51" y1="0" x2="51" y2="3981"/>
			<path d="M60,1139L60,1139" tabindex="0">
				<title>00:11.39 on 2020-12-29</title>
			</path>
			<line x1="0" y1="1139" x2="1141" y2="1139"/>
			<line x1="60" y1="0" x2="60" y2="3981"/>
			<path d="M86,1119L86,1119" tabindex="0">
				<title>00:11.19 on 2021-01-24</title>
			</path>
			<line x1="0" y1="1119" x2="1141" y2="1119"/>
			<line x1="86" y1="0" x2="86" y2="3981"/>
		</g>
		<g style="--index: 1;">
			<path d="M0,1283" tabindex="0">
				<title>x356nrej</title>
			</path>
			<rect x="0" y="1283" width="0" height="0"/>
			<path d="M0,1283L0,1283" tabindex="0">
				<title>00:12.83 on 2020-10-30</title>
			</path>
			<line x1="0" y1="1283" x2="1141" y2="1283"/>
			<line x1="0" y1="0" x2="0" y2="3981"/>
		</g>
		<g style="--index: 2;">
			<path d="M8,1695" tabindex="0">
				<title>j0np7or8</title>
			</path>
			<rect x="8" y="1695" width="0" height="0"/>
			<path d="M8,1695L8,1695" tabindex="0">
				<title>00:16.95 on 2020-11-07</title>
			</path>
			<line x1="0" y1="1695" x2="1141" y2="1695"/>
			<line x1="8" y1="0" x2="8" y2="3981"/>
		</g>
		<g style="--index: 3;">
			<path d="M20,1213L30,1213L30,1188L51,1188L51,1177L60,1177L60,1158L85,1158L85,1130" tabindex="0">
				<title>xkon93k8</title>
			</path>
			<rect x="20" y="1130" width="65" height="83"/>
			<path d="M20,1213L20,1213" tabindex="0">
				<title>00:12.13 on 2020-11-19</title>
			</path>
			<line x1="0" y1="1213" x2="1141" y2="1213"/>
			<line x1="20" y1="0" x2="20" y2="3981"/>
			<path d="M30,1188L30,1188" tabindex="0">
				<title>00:11.88 on 2020-11-29</title>
			</path>
			<line x1="0" y1="1188" x2="1141" y2="1188"/>
			<line x1="30" y1="0" x2="30" y2="3981"/>
			<path d="M51,1177L51,1177" tabindex="0">
				<title>00:11.77 on 2020-12-20</title>
			</path>
			<line x1="0" y1="1177" x2="1141" y2="1177"/>
			<line x1="51" y1="0" x2="51" y2="3981"/>
			<path d="M60,1158L60,1158" tabindex="0">
				<title>00:11.58 on 2020-12-29</title>
			</path>
			<line x1="0" y1="1158" x2="1141" y2="1158"/>
			<line x1="60" y1="0" x2="60" y2="3981"/>
			<path d="M85,1130L85,1130" tabindex="0">
				<title>00:11.30 on 2021-01-23</title>
			</path>
			<line x1="0" y1="1130" x2="1141" y2="1130"/>
			<line x1="85" y1="0" x2="85" y2="3981"/>
		</g>
		<g style="--index: 4;">
			<path d="M41,1291" tabindex="0">
				<title>x7q00668</title>
			</path>
			<rect x="41" y="1291" width="0" height="0"/>
			<path d="M41,1291L41,1291" tabindex="0">
				<title>00:12.91 on 2020-12-10</title>
			</path>
			<line x1="0" y1="1291" x2="1141" y2="1291"/>
			<line x1="41" y1="0" x2="41" y2="3981"/>
		</g>
		<g style="--index: 5;">
			<path d="M118,1098L119,1098L119,1069" tabindex="0">
				<title>j2yr9lp8</title>
			</path>
			<rect x="118" y="1069" width="1" height="29"/>
			<path d="M118,1098L118,1098" tabindex="0">
				<title>00:10.98 on 2021-02-25</title>
			</path>
			<line x1="0" y1="1098" x2="1141" y2="1098"/>
			<line x1="118" y1="0" x2="118" y2="3981"/>
			<path d="M119,1069L119,1069" tabindex="0">
				<title>00:10.69 on 2021-02-26</title>
			</path>
			<line x1="0" y1="1069" x2="1141" y2="1069"/>
			<line x1="119" y1="0" x2="119" y2="3981"/>
		</g>
		<g style="--index: 6;">
			<path d="M779,1942" tabindex="0">
				<title>8lonqn28</title>
			</path>
			<rect x="779" y="1942" width="0" height="0"/>
			<path d="M779,1942L779,1942" tabindex="0">
				<title>00:19.42 on 2022-12-18</title>
			</path>
			<line x1="0" y1="1942" x2="1141" y2="1942"/>
			<line x1="779" y1="0" x2="779" y2="3981"/>
		</g>
		<g style="--index: 7;">
			<path d="M937,1068" tabindex="0">
				<title>jn2m23wj</title>
			</path>
			<rect x="937" y="1068" width="0" height="0"/>
			<path d="M937,1068L937,1068" tabindex="0">
				<title>00:10.68 on 2023-05-25</title>
			</path>
			<line x1="0" y1="1068" x2="1141" y2="1068"/>
			<line x1="937" y1="0" x2="937" y2="3981"/>
		</g>
		<g style="--index: 8;">
			<path d="M1084,3981L1141,3981L1141,2159" tabindex="0">
				<title>8w3l21qj</title>
			</path>
			<rect x="1084" y="2159" width="57" height="1822"/>
			<path d="M1084,3981L1084,3981" tabindex="0">
				<title>00:39.81 on 2023-10-19</title>
			</path>
			<line x1="0" y1="3981" x2="1141" y2="3981"/>
			<line x1="1084" y1="0" x2="1084" y2="3981"/>
			<path d="M1141,2159L1141,2159" tabindex="0">
				<title>00:21.59 on 2023-12-15</title>
			</path>
			<line x1="0" y1="2159" x2="1141" y2="2159"/>
			<line x1="1141" y1="0" x2="1141" y2="3981"/>
		</g>
		<g style="--index: 9;">
			<path d="M1119,1150" tabindex="0">
				<title>x3wdlvkj</title>
			</path>
			<rect x="1119" y="1150" width="0" height="0"/>
			<path d="M1119,1150L1119,1150" tabindex="0">
				<title>00:11.50 on 2023-11-23</title>
			</path>
			<line x1="0" y1="1150" x2="1141" y2="1150"/>
			<line x1="1119" y1="0" x2="1119" y2="3981"/>
		</g>
	</g>
</svg>
