<svg xmlns="http://www.w3.org/2000/svg" viewBox="0 0 712 3795" preserveAspectRatio="none" lang="en" style="color-scheme: dark light;">
		<title>Time by player for leaderboard l_r9gnozkd-rkl3znrk-wledz9en.81wpx5oq</title>
		<style>
			svg {
				background: var(--canvas-background);
				fill: var(--canvas-background);
				stroke: var(--canvas-foreground);
				stroke-linejoin: round;
				stroke-linecap: round;
			}
			g &gt; path[tabindex] {
				vector-effect: non-scaling-stroke;
				fill: none;
				stroke: hsl(calc(var(--index) / var(--count) * 360), 50%, 50%);
				cursor: help;
			}
			g:is(:hover, :focus-within) &gt; path[tabindex] {
				stroke: var(--canvas-foreground);
			}
			g &gt; path[tabindex]:is(:hover, :focus-within) {
				outline: 0;
			}
			g &gt; path[tabindex]:first-of-type {
				stroke-width: 2;
			}
			g &gt; path[tabindex]:first-of-type:is(:hover, :focus-within) {
				stroke-width: 4;
			}
			g &gt; path[tabindex]:first-of-type:not(:last-of-type) {
				stroke-dasharray: 4 8;
			}
			g &gt; rect {
				vector-effect: non-scaling-stroke;
				fill: none;
				stroke: none;
				pointer-events: none;
			}
			g &gt; path[tabindex]:first-of-type:is(:hover, :focus-within) + rect {
				fill: var(--highlighted);
			}
			g &gt; path[tabindex]:first-of-type ~ path[tabindex] {
				stroke-width: 8;
			}
			g &gt; path[tabindex]:first-of-type ~ path[tabindex]:is(:hover, :focus-within) {
				stroke-width: 16;
			}
			g &gt; line {
				vector-effect: non-scaling-stroke;
				fill: none;
				stroke: none;
				stroke-width: 2;
				stroke-dasharray: 4 8;
				pointer-events: none;
			}
			g &gt; path[tabindex]:first-of-type:is(:hover, :focus-within) + rect + path[tabindex] + line,
			g &gt; path[tabindex]:first-of-type:is(:hover, :focus-within) + rect + path[tabindex] + line + line,
			g &gt; path[tabindex]:first-of-type:is(:hover, :focus-within) ~ path[tabindex]:last-of-type + line,
			g &gt; path[tabindex]:first-of-type:is(:hover, :focus-within) ~ path[tabindex]:last-of-type + line + line,
			g &gt; path[tabindex]:first-of-type ~ path[tabindex]:is(:hover, :focus-within) + line,
			g &gt; path[tabindex]:first-of-type ~ path[tabindex]:is(:hover, :focus-within) + line + line {
				stroke: var(--faded);
			}
			@media (prefers-color-scheme: dark) {
				:root {
					--canvas-background: #000;
					--canvas-foreground: #ccc;
					--highlighted: #6663;
					--faded: #9993;
				}
			}
			@media (prefers-color-scheme: light) {
				:root {
					--canvas-background: #fff;
					--canvas-foreground: #333;
					--highlighted: #9993;
					--faded: #6663;
				}
			}
		</style>
		<g transform="scale(1 -1)" transform-origin="center center" style="--count: 7;">
		<g style="--index: 0;">
			<path d="M0,1495" tabindex="0">
				<title>x356nrej</title>
			</path>
			<rect x="0" y="1495" width="0" height="0"/>
			<path d="M0,1495L0,1495" tabindex="0">
				<title>00:14.95 on 2020-10-27</title>
			</path>
			<line x1="0" y1="1495" x2="712" y2="1495"/>
			<line x1="0" y1="0" x2="0" y2="3795"/>
		</g>
		<g style="--index: 1;">
			<path d="M51,3795" tabindex="0">
				<title>8en1p568</title>
			</path>
			<rect x="51" y="3795" width="0" height="0"/>
			<path d="M51,3795L51,3795" tabindex="0">
				<title>00:37.95 on 2020-12-17</title>
			</path>
			<line x1="0" y1="3795" x2="712" y2="3795"/>
			<line x1="51" y1="0" x2="51" y2="3795"/>
		</g>
		<g style="--index: 2;">
			<path d="M61,1218L96,1218L96,1127" tabindex="0">
				<title>x7q00668</title>
			</path>
			<rect x="61" y="1127" width="35" height="91"/>
			<path d="M61,1218L61,1218" tabindex="0">
				<title>00:12.18 on 2020-12-27</title>
			</path>
			<line x1="0" y1="1218" x2="712" y2="1218"/>
			<line x1="61" y1="0" x2="61" y2="3795"/>
			<path d="M96,1127L96,1127" tabindex="0">
				<title>00:11.27 on 2021-01-31</title>
			</path>
			<line x1="0" y1="1127" x2="712" y2="1127"/>
			<line x1="96" y1="0" x2="96" y2="3795"/>
		</g>
		<g style="--index: 3;">
			<path d="M85,1885" tabindex="0">
				<title>j0np7or8</title>
			</path>
			<rect x="85" y="1885" width="0" height="0"/>
			<path d="M85,1885L85,1885" tabindex="0">
				<title>00:18.85 on 2021-01-20</title>
			</path>
			<line x1="0" y1="1885" x2="712" y2="1885"/>
			<line x1="85" y1="0" x2="85" y2="3795"/>
		</g>
		<g style="--index: 4;">
			<path d="M96,1208L107,1208L107,1109" tabindex="0">
				<title>xkon93k8</title>
			</path>
			<rect x="96" y="1109" width="11" height="99"/>
			<path d="M96,1208L96,1208" tabindex="0">
				<title>00:12.08 on 2021-01-31</title>
			</path>
			<line x1="0" y1="1208" x2="712" y2="1208"/>
			<line x1="96" y1="0" x2="96" y2="3795"/>
			<path d="M107,1109L107,1109" tabindex="0">
				<title>00:11.09 on 2021-02-11</title>
			</path>
			<line x1="0" y1="1109" x2="712" y2="1109"/>
			<line x1="107" y1="0" x2="107" y2="3795"/>
		</g>
		<g style="--index: 5;">
			<path d="M558,1238L712,1238L712,1091" tabindex="0">
				<title>j5vg1ez8</title>
			</path>
			<rect x="558" y="1091" width="154" height="147"/>
			<path d="M558,1238L558,1238" tabindex="0">
				<title>00:12.38 on 2022-05-08</title>
			</path>
			<line x1="0" y1="1238" x2="712" y2="1238"/>
			<line x1="558" y1="0" x2="558" y2="3795"/>
			<path d="M712,1091L712,1091" tabindex="0">
				<title>00:10.91 on 2022-10-09</title>
			</path>
			<line x1="0" y1="1091" x2="712" y2="1091"/>
			<line x1="712" y1="0" x2="712" y2="3795"/>
		</g>
		<g style="--index: 6;">
			<path d="M705,1096L712,1096L712,1054" tabindex="0">
				<title>jn2m23wj</title>
			</path>
			<rect x="705" y="1054" width="7" height="42"/>
			<path d="M705,1096L705,1096" tabindex="0">
				<title>00:10.96 on 2022-10-02</title>
			</path>
			<line x1="0" y1="1096" x2="712" y2="1096"/>
			<line x1="705" y1="0" x2="705" y2="3795"/>
			<path d="M712,1054L712,1054" tabindex="0">
				<title>00:10.54 on 2022-10-09</title>
			</path>
			<line x1="0" y1="1054" x2="712" y2="1054"/>
			<line x1="712" y1="0" x2="712" y2="3795"/>
		</g>
	</g>
</svg>
