<svg xmlns="http://www.w3.org/2000/svg" viewBox="0 0 1070 3972" preserveAspectRatio="none" lang="en" style="color-scheme: dark light;">
		<title>Time by player for leaderboard l_r9gnozkd-rkl3znrk-wledz9en.jq606z3q</title>
		<style>
			svg {
				background: var(--canvas-background);
				fill: var(--canvas-background);
				stroke: var(--canvas-foreground);
				stroke-linejoin: round;
				stroke-linecap: round;
			}
			g &gt; path[tabindex] {
				vector-effect: non-scaling-stroke;
				fill: none;
				stroke: hsl(calc(var(--index) / var(--count) * 360), 50%, 50%);
				cursor: help;
			}
			g:is(:hover, :focus-within) &gt; path[tabindex] {
				stroke: var(--canvas-foreground);
			}
			g &gt; path[tabindex]:is(:hover, :focus-within) {
				outline: 0;
			}
			g &gt; path[tabindex]:first-of-type {
				stroke-width: 2;
			}
			g &gt; path[tabindex]:first-of-type:is(:hover, :focus-within) {
				stroke-width: 4;
			}
			g &gt; path[tabindex]:first-of-type:not(:last-of-type) {
				stroke-dasharray: 4 8;
			}
			g &gt; rect {
				vector-effect: non-scaling-stroke;
				fill: none;
				stroke: none;
				pointer-events: none;
			}
			g &gt; path[tabindex]:first-of-type:is(:hover, :focus-within) + rect {
				fill: var(--highlighted);
			}
			g &gt; path[tabindex]:first-of-type ~ path[tabindex] {
				stroke-width: 8;
			}
			g &gt; path[tabindex]:first-of-type ~ path[tabindex]:is(:hover, :focus-within) {
				stroke-width: 16;
			}
			g &gt; line {
				vector-effect: non-scaling-stroke;
				fill: none;
				stroke: none;
				stroke-width: 2;
				stroke-dasharray: 4 8;
				pointer-events: none;
			}
			g &gt; path[tabindex]:first-of-type:is(:hover, :focus-within) + rect + path[tabindex] + line,
			g &gt; path[tabindex]:first-of-type:is(:hover, :focus-within) + rect + path[tabindex] + line + line,
			g &gt; path[tabindex]:first-of-type:is(:hover, :focus-within) ~ path[tabindex]:last-of-type + line,
			g &gt; path[tabindex]:first-of-type:is(:hover, :focus-within) ~ path[tabindex]:last-of-type + line + line,
			g &gt; path[tabindex]:first-of-type ~ path[tabindex]:is(:hover, :focus-within) + line,
			g &gt; path[tabindex]:first-of-type ~ path[tabindex]:is(:hover, :focus-within) + line + line {
				stroke: var(--faded);
			}
			@media (prefers-color-scheme: dark) {
				:root {
					--canvas-background: #000;
					--canvas-foreground: #ccc;
					--highlighted: #6663;
					--faded: #9993;
				}
			}
			@media (prefers-color-scheme: light) {
				:root {
					--canvas-background: #fff;
					--canvas-foreground: #333;
					--highlighted: #9993;
					--faded: #6663;
				}
			}
		</style>
		<g transform="scale(1 -1)" transform-origin="center center" style="--count: 7;">
		<g style="--index: 0;">
			<path d="M0,1923" tabindex="0">
				<title>x356nrej</title>
			</path>
			<rect x="0" y="1923" width="0" height="0"/>
			<path d="M0,1923L0,1923" tabindex="0">
				<title>00:19.23 on 2020-11-04</title>
			</path>
			<line x1="0" y1="1923" x2="1070" y2="1923"/>
			<line x1="0" y1="0" x2="0" y2="3972"/>
		</g>
		<g style="--index: 1;">
			<path d="M3,2651L155,2651L155,1729" tabindex="0">
				<title>j0np7or8</title>
			</path>
			<rect x="3" y="1729" width="152" height="922"/>
			<path d="M3,2651L3,2651" tabindex="0">
				<title>00:26.51 on 2020-11-07</title>
			</path>
			<line x1="0" y1="2651" x2="1070" y2="2651"/>
			<line x1="3" y1="0" x2="3" y2="3972"/>
			<path d="M155,1729L155,1729" tabindex="0">
				<title>00:17.29 on 2021-04-08</title>
			</path>
			<line x1="0" y1="1729" x2="1070" y2="1729"/>
			<line x1="155" y1="0" x2="155" y2="3972"/>
		</g>
		<g style="--index: 2;">
			<path d="M10,1837L30,1837L30,1498L86,1498L86,1433" tabindex="0">
				<title>xkon93k8</title>
			</path>
			<rect x="10" y="1433" width="76" height="404"/>
			<path d="M10,1837L10,1837" tabindex="0">
				<title>00:18.37 on 2020-11-14</title>
			</path>
			<line x1="0" y1="1837" x2="1070" y2="1837"/>
			<line x1="10" y1="0" x2="10" y2="3972"/>
			<path d="M30,1498L30,1498" tabindex="0">
				<title>00:14.98 on 2020-12-04</title>
			</path>
			<line x1="0" y1="1498" x2="1070" y2="1498"/>
			<line x1="30" y1="0" x2="30" y2="3972"/>
			<path d="M86,1433L86,1433" tabindex="0">
				<title>00:14.33 on 2021-01-29</title>
			</path>
			<line x1="0" y1="1433" x2="1070" y2="1433"/>
			<line x1="86" y1="0" x2="86" y2="3972"/>
		</g>
		<g style="--index: 3;">
			<path d="M16,1678L30,1678L30,1474L207,1474L207,1396" tabindex="0">
				<title>j2yr9lp8</title>
			</path>
			<rect x="16" y="1396" width="191" height="282"/>
			<path d="M16,1678L16,1678" tabindex="0">
				<title>00:16.78 on 2020-11-20</title>
			</path>
			<line x1="0" y1="1678" x2="1070" y2="1678"/>
			<line x1="16" y1="0" x2="16" y2="3972"/>
			<path d="M30,1474L30,1474" tabindex="0">
				<title>00:14.74 on 2020-12-04</title>
			</path>
			<line x1="0" y1="1474" x2="1070" y2="1474"/>
			<line x1="30" y1="0" x2="30" y2="3972"/>
			<path d="M207,1396L207,1396" tabindex="0">
				<title>00:13.96 on 2021-05-30</title>
			</path>
			<line x1="0" y1="1396" x2="1070" y2="1396"/>
			<line x1="207" y1="0" x2="207" y2="3972"/>
		</g>
		<g style="--index: 4;">
			<path d="M61,1471L152,1471L152,1420" tabindex="0">
				<title>x7q00668</title>
			</path>
			<rect x="61" y="1420" width="91" height="51"/>
			<path d="M61,1471L61,1471" tabindex="0">
				<title>00:14.71 on 2021-01-04</title>
			</path>
			<line x1="0" y1="1471" x2="1070" y2="1471"/>
			<line x1="61" y1="0" x2="61" y2="3972"/>
			<path d="M152,1420L152,1420" tabindex="0">
				<title>00:14.20 on 2021-04-05</title>
			</path>
			<line x1="0" y1="1420" x2="1070" y2="1420"/>
			<line x1="152" y1="0" x2="152" y2="3972"/>
		</g>
		<g style="--index: 5;">
			<path d="M119,3164" tabindex="0">
				<title>j9rlkzoj</title>
			</path>
			<rect x="119" y="3164" width="0" height="0"/>
			<path d="M119,3164L119,3164" tabindex="0">
				<title>00:31.64 on 2021-03-03</title>
			</path>
			<line x1="0" y1="3164" x2="1070" y2="3164"/>
			<line x1="119" y1="0" x2="119" y2="3972"/>
		</g>
		<g style="--index: 6;">
			<path d="M1070,3972" tabindex="0">
				<title>8w3l21qj</title>
			</path>
			<rect x="1070" y="3972" width="0" height="0"/>
			<path d="M1070,3972L1070,3972" tabindex="0">
				<title>00:39.72 on 2023-10-10</title>
			</path>
			<line x1="0" y1="3972" x2="1070" y2="3972"/>
			<line x1="1070" y1="0" x2="1070" y2="3972"/>
		</g>
	</g>
</svg>
