<svg xmlns="http://www.w3.org/2000/svg" viewBox="0 0 2156 41835" preserveAspectRatio="none" lang="en" style="color-scheme: dark light;">
		<title>Time by player for leaderboard l_r9gn1qpd-9d8eewld-0nwoqwkl.gq7jrxvq</title>
		<style>
			svg {
				background: var(--canvas-background);
				fill: var(--canvas-background);
				stroke: var(--canvas-foreground);
				stroke-linejoin: round;
				stroke-linecap: round;
			}
			g &gt; path[tabindex] {
				vector-effect: non-scaling-stroke;
				fill: none;
				stroke: hsl(calc(var(--index) / var(--count) * 360), 50%, 50%);
				cursor: help;
			}
			g:is(:hover, :focus-within) &gt; path[tabindex] {
				stroke: var(--canvas-foreground);
			}
			g &gt; path[tabindex]:is(:hover, :focus-within) {
				outline: 0;
			}
			g &gt; path[tabindex]:first-of-type {
				stroke-width: 2;
			}
			g &gt; path[tabindex]:first-of-type:is(:hover, :focus-within) {
				stroke-width: 4;
			}
			g &gt; path[tabindex]:first-of-type:not(:last-of-type) {
				stroke-dasharray: 4 8;
			}
			g &gt; rect {
				vector-effect: non-scaling-stroke;
				fill: none;
				stroke: none;
				pointer-events: none;
			}
			g &gt; path[tabindex]:first-of-type:is(:hover, :focus-within) + rect {
				fill: var(--highlighted);
			}
			g &gt; path[tabindex]:first-of-type ~ path[tabindex] {
				stroke-width: 8;
			}
			g &gt; path[tabindex]:first-of-type ~ path[tabindex]:is(:hover, :focus-within) {
				stroke-width: 16;
			}
			g &gt; line {
				vector-effect: non-scaling-stroke;
				fill: none;
				stroke: none;
				stroke-width: 2;
				stroke-dasharray: 4 8;
				pointer-events: none;
			}
			g &gt; path[tabindex]:first-of-type:is(:hover, :focus-within) + rect + path[tabindex] + line,
			g &gt; path[tabindex]:first-of-type:is(:hover, :focus-within) + rect + path[tabindex] + line + line,
			g &gt; path[tabindex]:first-of-type:is(:hover, :focus-within) ~ path[tabindex]:last-of-type + line,
			g &gt; path[tabindex]:first-of-type:is(:hover, :focus-within) ~ path[tabindex]:last-of-type + line + line,
			g &gt; path[tabindex]:first-of-type ~ path[tabindex]:is(:hover, :focus-within) + line,
			g &gt; path[tabindex]:first-of-type ~ path[tabindex]:is(:hover, :focus-within) + line + line {
				stroke: var(--faded);
			}
			@media (prefers-color-scheme: dark) {
				:root {
					--canvas-background: #000;
					--canvas-foreground: #ccc;
					--highlighted: #6663;
					--faded: #9993;
				}
			}
			@media (prefers-color-scheme: light) {
				:root {
					--canvas-background: #fff;
					--canvas-foreground: #333;
					--highlighted: #9993;
					--faded: #6663;
				}
			}
		</style>
		<g style="--count: 17;">
		<g style="--index: 0;">
			<path d="M0,0" tabindex="0">
				<title>kj9kz6r8</title>
			</path>
			<rect x="0" y="0" width="0" height="0"/>
			<path d="M0,0L0,0" tabindex="0">
				<title>06:58.35 on 2018-02-05</title>
			</path>
			<line x1="0" y1="0" x2="2156" y2="0"/>
			<line x1="0" y1="41835" x2="0" y2="0"/>
		</g>
		<g style="--index: 1;">
			<path d="M3,8980L390,8980L390,13793" tabindex="0">
				<title>qj2pq1p8</title>
			</path>
			<rect x="3" y="8980" width="387" height="4813"/>
			<path d="M3,8980L3,8980" tabindex="0">
				<title>05:28.55 on 2018-02-08</title>
			</path>
			<line x1="0" y1="8980" x2="2156" y2="8980"/>
			<line x1="3" y1="41835" x2="3" y2="0"/>
			<path d="M390,13793L390,13793" tabindex="0">
				<title>04:40.42 on 2019-03-02</title>
			</path>
			<line x1="0" y1="13793" x2="2156" y2="13793"/>
			<line x1="390" y1="41835" x2="390" y2="0"/>
		</g>
		<g style="--index: 2;">
			<path d="M73,10694" tabindex="0">
				<title>y8dgoe98</title>
			</path>
			<rect x="73" y="10694" width="0" height="0"/>
			<path d="M73,10694L73,10694" tabindex="0">
				<title>05:11.41 on 2018-04-19</title>
			</path>
			<line x1="0" y1="10694" x2="2156" y2="10694"/>
			<line x1="73" y1="41835" x2="73" y2="0"/>
		</g>
		<g style="--index: 3;">
			<path d="M555,6987" tabindex="0">
				<title>j9rlkzoj</title>
			</path>
			<rect x="555" y="6987" width="0" height="0"/>
			<path d="M555,6987L555,6987" tabindex="0">
				<title>05:48.48 on 2019-08-14</title>
			</path>
			<line x1="0" y1="6987" x2="2156" y2="6987"/>
			<line x1="555" y1="41835" x2="555" y2="0"/>
		</g>
		<g style="--index: 4;">
			<path d="M730,10215L731,10215L731,15019L738,15019L738,17912L741,17912L741,18885L749,18885L749,18890L795,18890L795,19834L868,19834L868,25499" tabindex="0">
				<title>8146r4r8</title>
			</path>
			<rect x="730" y="10215" width="138" height="15284"/>
			<path d="M730,10215L730,10215" tabindex="0">
				<title>05:16.20 on 2020-02-05</title>
			</path>
			<line x1="0" y1="10215" x2="2156" y2="10215"/>
			<line x1="730" y1="41835" x2="730" y2="0"/>
			<path d="M731,15019L731,15019" tabindex="0">
				<title>04:28.16 on 2020-02-06</title>
			</path>
			<line x1="0" y1="15019" x2="2156" y2="15019"/>
			<line x1="731" y1="41835" x2="731" y2="0"/>
			<path d="M738,17912L738,17912" tabindex="0">
				<title>03:59.23 on 2020-02-13</title>
			</path>
			<line x1="0" y1="17912" x2="2156" y2="17912"/>
			<line x1="738" y1="41835" x2="738" y2="0"/>
			<path d="M741,18885L741,18885" tabindex="0">
				<title>03:49.50 on 2020-02-16</title>
			</path>
			<line x1="0" y1="18885" x2="2156" y2="18885"/>
			<line x1="741" y1="41835" x2="741" y2="0"/>
			<path d="M749,18890L749,18890" tabindex="0">
				<title>03:49.45 on 2020-02-24</title>
			</path>
			<line x1="0" y1="18890" x2="2156" y2="18890"/>
			<line x1="749" y1="41835" x2="749" y2="0"/>
			<path d="M795,19834L795,19834" tabindex="0">
				<title>03:40.01 on 2020-04-10</title>
			</path>
			<line x1="0" y1="19834" x2="2156" y2="19834"/>
			<line x1="795" y1="41835" x2="795" y2="0"/>
			<path d="M868,25499L868,25499" tabindex="0">
				<title>02:43.36 on 2020-06-22</title>
			</path>
			<line x1="0" y1="25499" x2="2156" y2="25499"/>
			<line x1="868" y1="41835" x2="868" y2="0"/>
		</g>
		<g style="--index: 5;">
			<path d="M845,24805" tabindex="0">
				<title>x356nrej</title>
			</path>
			<rect x="845" y="24805" width="0" height="0"/>
			<path d="M845,24805L845,24805" tabindex="0">
				<title>02:50.30 on 2020-05-30</title>
			</path>
			<line x1="0" y1="24805" x2="2156" y2="24805"/>
			<line x1="845" y1="41835" x2="845" y2="0"/>
		</g>
		<g style="--index: 6;">
			<path d="M873,28413" tabindex="0">
				<title>qjo6dp0j</title>
			</path>
			<rect x="873" y="28413" width="0" height="0"/>
			<path d="M873,28413L873,28413" tabindex="0">
				<title>02:14.22 on 2020-06-27</title>
			</path>
			<line x1="0" y1="28413" x2="2156" y2="28413"/>
			<line x1="873" y1="41835" x2="873" y2="0"/>
		</g>
		<g style="--index: 7;">
			<path d="M938,16038" tabindex="0">
				<title>8dwnyqoj</title>
			</path>
			<rect x="938" y="16038" width="0" height="0"/>
			<path d="M938,16038L938,16038" tabindex="0">
				<title>04:17.97 on 2020-08-31</title>
			</path>
			<line x1="0" y1="16038" x2="2156" y2="16038"/>
			<line x1="938" y1="41835" x2="938" y2="0"/>
		</g>
		<g style="--index: 8;">
			<path d="M1022,25638L1073,25638L1073,28666" tabindex="0">
				<title>x7q00668</title>
			</path>
			<rect x="1022" y="25638" width="51" height="3028"/>
			<path d="M1022,25638L1022,25638" tabindex="0">
				<title>02:41.97 on 2020-11-23</title>
			</path>
			<line x1="0" y1="25638" x2="2156" y2="25638"/>
			<line x1="1022" y1="41835" x2="1022" y2="0"/>
			<path d="M1073,28666L1073,28666" tabindex="0">
				<title>02:11.69 on 2021-01-13</title>
			</path>
			<line x1="0" y1="28666" x2="2156" y2="28666"/>
			<line x1="1073" y1="41835" x2="1073" y2="0"/>
		</g>
		<g style="--index: 9;">
			<path d="M1050,25686L1051,25686L1051,26761L1071,26761L1071,28563L1074,28563L1074,28814" tabindex="0">
				<title>814zn7l8</title>
			</path>
			<rect x="1050" y="25686" width="24" height="3128"/>
			<path d="M1050,25686L1050,25686" tabindex="0">
				<title>02:41.49 on 2020-12-21</title>
			</path>
			<line x1="0" y1="25686" x2="2156" y2="25686"/>
			<line x1="1050" y1="41835" x2="1050" y2="0"/>
			<path d="M1051,26761L1051,26761" tabindex="0">
				<title>02:30.74 on 2020-12-22</title>
			</path>
			<line x1="0" y1="26761" x2="2156" y2="26761"/>
			<line x1="1051" y1="41835" x2="1051" y2="0"/>
			<path d="M1071,28563L1071,28563" tabindex="0">
				<title>02:12.72 on 2021-01-11</title>
			</path>
			<line x1="0" y1="28563" x2="2156" y2="28563"/>
			<line x1="1071" y1="41835" x2="1071" y2="0"/>
			<path d="M1074,28814L1074,28814" tabindex="0">
				<title>02:10.21 on 2021-01-14</title>
			</path>
			<line x1="0" y1="28814" x2="2156" y2="28814"/>
			<line x1="1074" y1="41835" x2="1074" y2="0"/>
		</g>
		<g style="--index: 10;">
			<path d="M1071,21051" tabindex="0">
				<title>j0np7or8</title>
			</path>
			<rect x="1071" y="21051" width="0" height="0"/>
			<path d="M1071,21051L1071,21051" tabindex="0">
				<title>03:27.84 on 2021-01-11</title>
			</path>
			<line x1="0" y1="21051" x2="2156" y2="21051"/>
			<line x1="1071" y1="41835" x2="1071" y2="0"/>
		</g>
		<g style="--index: 11;">
			<path d="M1090,29090" tabindex="0">
				<title>xkon93k8</title>
			</path>
			<rect x="1090" y="29090" width="0" height="0"/>
			<path d="M1090,29090L1090,29090" tabindex="0">
				<title>02:07.45 on 2021-01-30</title>
			</path>
			<line x1="0" y1="29090" x2="2156" y2="29090"/>
			<line x1="1090" y1="41835" x2="1090" y2="0"/>
		</g>
		<g style="--index: 12;">
			<path d="M1112,29655L1118,29655L1118,29892" tabindex="0">
				<title>j2yr9lp8</title>
			</path>
			<rect x="1112" y="29655" width="6" height="237"/>
			<path d="M1112,29655L1112,29655" tabindex="0">
				<title>02:01.80 on 2021-02-21</title>
			</path>
			<line x1="0" y1="29655" x2="2156" y2="29655"/>
			<line x1="1112" y1="41835" x2="1112" y2="0"/>
			<path d="M1118,29892L1118,29892" tabindex="0">
				<title>01:59.43 on 2021-02-27</title>
			</path>
			<line x1="0" y1="29892" x2="2156" y2="29892"/>
			<line x1="1118" y1="41835" x2="1118" y2="0"/>
		</g>
		<g style="--index: 13;">
			<path d="M1789,29972L2156,29972L2156,31314" tabindex="0">
				<title>jn2m23wj</title>
			</path>
			<rect x="1789" y="29972" width="367" height="1342"/>
			<path d="M1789,29972L1789,29972" tabindex="0">
				<title>01:58.63 on 2022-12-30</title>
			</path>
			<line x1="0" y1="29972" x2="2156" y2="29972"/>
			<line x1="1789" y1="41835" x2="1789" y2="0"/>
			<path d="M2156,31314L2156,31314" tabindex="0">
				<title>01:45.21 on 2024-01-01</title>
			</path>
			<line x1="0" y1="31314" x2="2156" y2="31314"/>
			<line x1="2156" y1="41835" x2="2156" y2="0"/>
		</g>
		<g style="--index: 14;">
			<path d="M1891,24080" tabindex="0">
				<title>j9pkl7vx</title>
			</path>
			<rect x="1891" y="24080" width="0" height="0"/>
			<path d="M1891,24080L1891,24080" tabindex="0">
				<title>02:57.55 on 2023-04-11</title>
			</path>
			<line x1="0" y1="24080" x2="2156" y2="24080"/>
			<line x1="1891" y1="41835" x2="1891" y2="0"/>
		</g>
		<g style="--index: 15;">
			<path d="M1979,29995" tabindex="0">
				<title>j4235d5x</title>
			</path>
			<rect x="1979" y="29995" width="0" height="0"/>
			<path d="M1979,29995L1979,29995" tabindex="0">
				<title>01:58.40 on 2023-07-08</title>
			</path>
			<line x1="0" y1="29995" x2="2156" y2="29995"/>
			<line x1="1979" y1="41835" x2="1979" y2="0"/>
		</g>
		<g style="--index: 16;">
			<path d="M2133,24153L2147,24153L2147,28644" tabindex="0">
				<title>8w3l21qj</title>
			</path>
			<rect x="2133" y="24153" width="14" height="4491"/>
			<path d="M2133,24153L2133,24153" tabindex="0">
				<title>02:56.82 on 2023-12-09</title>
			</path>
			<line x1="0" y1="24153" x2="2156" y2="24153"/>
			<line x1="2133" y1="41835" x2="2133" y2="0"/>
			<path d="M2147,28644L2147,28644" tabindex="0">
				<title>02:11.91 on 2023-12-23</title>
			</path>
			<line x1="0" y1="28644" x2="2156" y2="28644"/>
			<line x1="2147" y1="41835" x2="2147" y2="0"/>
		</g>
	</g>
</svg>
