<svg xmlns="http://www.w3.org/2000/svg" viewBox="0 0 140 2998" preserveAspectRatio="none" lang="en" style="color-scheme: dark light;">
	<title>Time by player for leaderboard l_r9gnozkd-rkl3znrk-wledz9en.0q5njgmq</title>
	<style>
		svg {
			background: var(--canvas-background);
			fill: var(--canvas-background);
			stroke: var(--canvas-foreground);
			stroke-linejoin: round;
			stroke-linecap: round;
		}
		g &gt; path[tabindex] {
			vector-effect: non-scaling-stroke;
			fill: none;
			stroke: hsl(calc(var(--index) / var(--count) * 360), 50%, 50%);
			cursor: help;
		}
		g:is(:hover, :focus-within) &gt; path[tabindex] {
			stroke: var(--canvas-foreground);
		}
		g &gt; path[tabindex]:is(:hover, :focus-within) {
			outline: 0;
		}
		g &gt; path[tabindex]:first-of-type {
			stroke-width: 2;
		}
		g &gt; path[tabindex]:first-of-type:is(:hover, :focus-within) {
			stroke-width: 4;
		}
		g &gt; path[tabindex]:first-of-type:not(:last-of-type) {
			stroke-dasharray: 4 8;
		}
		g &gt; rect {
			vector-effect: non-scaling-stroke;
			fill: none;
			stroke: none;
			pointer-events: none;
		}
		g &gt; path[tabindex]:first-of-type:is(:hover, :focus-within) + rect {
			fill: var(--highlighted);
		}
		g &gt; path[tabindex]:first-of-type ~ path[tabindex] {
			stroke-width: 8;
		}
		g &gt; path[tabindex]:first-of-type ~ path[tabindex]:is(:hover, :focus-within) {
			stroke-width: 16;
		}
		g &gt; line {
			vector-effect: non-scaling-stroke;
			fill: none;
			stroke: none;
			stroke-width: 2;
			stroke-dasharray: 4 8;
			pointer-events: none;
		}
		g &gt; path[tabindex]:first-of-type:is(:hover, :focus-within) + rect + path[tabindex] + line,
		g &gt; path[tabindex]:first-of-type:is(:hover, :focus-within) + rect + path[tabindex] + line + line,
		g &gt; path[tabindex]:first-of-type:is(:hover, :focus-within) ~ path[tabindex]:last-of-type + line,
		g &gt; path[tabindex]:first-of-type:is(:hover, :focus-within) ~ path[tabindex]:last-of-type + line + line,
		g &gt; path[tabindex]:first-of-type ~ path[tabindex]:is(:hover, :focus-within) + line,
		g &gt; path[tabindex]:first-of-type ~ path[tabindex]:is(:hover, :focus-within) + line + line {
			stroke: var(--faded);
		}
		@media (prefers-color-scheme: dark) {
			:root {
				--canvas-background: #000;
				--canvas-foreground: #ccc;
				--highlighted: #6663;
				--faded: #9993;
			}
		}
		@media (prefers-color-scheme: light) {
			:root {
				--canvas-background: #fff;
				--canvas-foreground: #333;
				--highlighted: #9993;
				--faded: #6663;
			}
		}
	</style>
	<g transform="scale(1 -1)" transform-origin="center center" style="--count: 4;">
		<g style="--index: 0;">
			<path d="M0,2544" tabindex="0">
				<title>x356nrej</title>
			</path>
			<rect x="0" y="2544" width="0" height="0"/>
			<path d="M0,2544L0,2544" tabindex="0">
				<title>00:25.44 on 2020-11-01</title>
			</path>
			<line x1="0" y1="2544" x2="140" y2="2544"/>
			<line x1="0" y1="0" x2="0" y2="2998"/>
		</g>
		<g style="--index: 1;">
			<path d="M6,2998L62,2998L62,2570L118,2570L118,2486" tabindex="0">
				<title>j0np7or8</title>
			</path>
			<rect x="6" y="2486" width="112" height="512"/>
			<path d="M6,2998L6,2998" tabindex="0">
				<title>00:29.98 on 2020-11-07</title>
			</path>
			<line x1="0" y1="2998" x2="140" y2="2998"/>
			<line x1="6" y1="0" x2="6" y2="2998"/>
			<path d="M62,2570L62,2570" tabindex="0">
				<title>00:25.70 on 2021-01-02</title>
			</path>
			<line x1="0" y1="2570" x2="140" y2="2570"/>
			<line x1="62" y1="0" x2="62" y2="2998"/>
			<path d="M118,2486L118,2486" tabindex="0">
				<title>00:24.86 on 2021-02-27</title>
			</path>
			<line x1="0" y1="2486" x2="140" y2="2486"/>
			<line x1="118" y1="0" x2="118" y2="2998"/>
		</g>
		<g style="--index: 2;">
			<path d="M30,2380L119,2380L119,2147" tabindex="0">
				<title>x7q00668</title>
			</path>
			<rect x="30" y="2147" width="89" height="233"/>
			<path d="M30,2380L30,2380" tabindex="0">
				<title>00:23.80 on 2020-12-01</title>
			</path>
			<line x1="0" y1="2380" x2="140" y2="2380"/>
			<line x1="30" y1="0" x2="30" y2="2998"/>
			<path d="M119,2147L119,2147" tabindex="0">
				<title>00:21.47 on 2021-02-28</title>
			</path>
			<line x1="0" y1="2147" x2="140" y2="2147"/>
			<line x1="119" y1="0" x2="119" y2="2998"/>
		</g>
		<g style="--index: 3;">
			<path d="M118,2171L140,2171L140,2097" tabindex="0">
				<title>j2yr9lp8</title>
			</path>
			<rect x="118" y="2097" width="22" height="74"/>
			<path d="M118,2171L118,2171" tabindex="0">
				<title>00:21.71 on 2021-02-27</title>
			</path>
			<line x1="0" y1="2171" x2="140" y2="2171"/>
			<line x1="118" y1="0" x2="118" y2="2998"/>
			<path d="M140,2097L140,2097" tabindex="0">
				<title>00:20.97 on 2021-03-21</title>
			</path>
			<line x1="0" y1="2097" x2="140" y2="2097"/>
			<line x1="140" y1="0" x2="140" y2="2998"/>
		</g>
	</g>
</svg>
