<svg xmlns="http://www.w3.org/2000/svg" viewBox="0 0 2273 2177" preserveAspectRatio="none" lang="en" style="color-scheme: dark light;">
		<title>Time by player for leaderboard l_r9gn1qpd-9d8eewld-0nwoqwkl.81ppdgg1</title>
		<style>
			svg {
				background: var(--canvas-background);
				fill: var(--canvas-background);
				stroke: var(--canvas-foreground);
				stroke-linejoin: round;
				stroke-linecap: round;
			}
			g &gt; path[tabindex] {
				vector-effect: non-scaling-stroke;
				fill: none;
				stroke: hsl(calc(var(--index) / var(--count) * 360), 50%, 50%);
				cursor: help;
			}
			g:is(:hover, :focus-within) &gt; path[tabindex] {
				stroke: var(--canvas-foreground);
			}
			g &gt; path[tabindex]:is(:hover, :focus-within) {
				outline: 0;
			}
			g &gt; path[tabindex]:first-of-type {
				stroke-width: 2;
			}
			g &gt; path[tabindex]:first-of-type:is(:hover, :focus-within) {
				stroke-width: 4;
			}
			g &gt; path[tabindex]:first-of-type:not(:last-of-type) {
				stroke-dasharray: 4 8;
			}
			g &gt; rect {
				vector-effect: non-scaling-stroke;
				fill: none;
				stroke: none;
				pointer-events: none;
			}
			g &gt; path[tabindex]:first-of-type:is(:hover, :focus-within) + rect {
				fill: var(--highlighted);
			}
			g &gt; path[tabindex]:first-of-type ~ path[tabindex] {
				stroke-width: 8;
			}
			g &gt; path[tabindex]:first-of-type ~ path[tabindex]:is(:hover, :focus-within) {
				stroke-width: 16;
			}
			g &gt; line {
				vector-effect: non-scaling-stroke;
				fill: none;
				stroke: none;
				stroke-width: 2;
				stroke-dasharray: 4 8;
				pointer-events: none;
			}
			g &gt; path[tabindex]:first-of-type:is(:hover, :focus-within) + rect + path[tabindex] + line,
			g &gt; path[tabindex]:first-of-type:is(:hover, :focus-within) + rect + path[tabindex] + line + line,
			g &gt; path[tabindex]:first-of-type:is(:hover, :focus-within) ~ path[tabindex]:last-of-type + line,
			g &gt; path[tabindex]:first-of-type:is(:hover, :focus-within) ~ path[tabindex]:last-of-type + line + line,
			g &gt; path[tabindex]:first-of-type ~ path[tabindex]:is(:hover, :focus-within) + line,
			g &gt; path[tabindex]:first-of-type ~ path[tabindex]:is(:hover, :focus-within) + line + line {
				stroke: var(--faded);
			}
			@media (prefers-color-scheme: dark) {
				:root {
					--canvas-background: #000;
					--canvas-foreground: #ccc;
					--highlighted: #6663;
					--faded: #9993;
				}
			}
			@media (prefers-color-scheme: light) {
				:root {
					--canvas-background: #fff;
					--canvas-foreground: #333;
					--highlighted: #9993;
					--faded: #6663;
				}
			}
		</style>
		<g style="--count: 91;">
		<g style="--index: 0;">
			<path d="M0,627L6,627L6,916L10,916L10,1043L15,1043L15,1102L17,1102L17,1120L18,1120L18,1125L29,1125L29,1132" tabindex="0">
				<title>qj2pq1p8</title>
			</path>
			<rect x="0" y="627" width="29" height="505"/>
			<path d="M0,627L0,627" tabindex="0">
				<title>00:15.50 on 2018-01-09</title>
			</path>
			<line x1="0" y1="627" x2="2273" y2="627"/>
			<line x1="0" y1="2177" x2="0" y2="0"/>
			<path d="M6,916L6,916" tabindex="0">
				<title>00:12.61 on 2018-01-15</title>
			</path>
			<line x1="0" y1="916" x2="2273" y2="916"/>
			<line x1="6" y1="2177" x2="6" y2="0"/>
			<path d="M10,1043L10,1043" tabindex="0">
				<title>00:11.34 on 2018-01-19</title>
			</path>
			<line x1="0" y1="1043" x2="2273" y2="1043"/>
			<line x1="10" y1="2177" x2="10" y2="0"/>
			<path d="M15,1102L15,1102" tabindex="0">
				<title>00:10.75 on 2018-01-24</title>
			</path>
			<line x1="0" y1="1102" x2="2273" y2="1102"/>
			<line x1="15" y1="2177" x2="15" y2="0"/>
			<path d="M17,1120L17,1120" tabindex="0">
				<title>00:10.57 on 2018-01-26</title>
			</path>
			<line x1="0" y1="1120" x2="2273" y2="1120"/>
			<line x1="17" y1="2177" x2="17" y2="0"/>
			<path d="M18,1125L18,1125" tabindex="0">
				<title>00:10.52 on 2018-01-27</title>
			</path>
			<line x1="0" y1="1125" x2="2273" y2="1125"/>
			<line x1="18" y1="2177" x2="18" y2="0"/>
			<path d="M29,1132L29,1132" tabindex="0">
				<title>00:10.45 on 2018-02-07</title>
			</path>
			<line x1="0" y1="1132" x2="2273" y2="1132"/>
			<line x1="29" y1="2177" x2="29" y2="0"/>
		</g>
		<g style="--index: 1;">
			<path d="M4,671L13,671L13,1096" tabindex="0">
				<title>5j5gggn8</title>
			</path>
			<rect x="4" y="671" width="9" height="425"/>
			<path d="M4,671L4,671" tabindex="0">
				<title>00:15.06 on 2018-01-13</title>
			</path>
			<line x1="0" y1="671" x2="2273" y2="671"/>
			<line x1="4" y1="2177" x2="4" y2="0"/>
			<path d="M13,1096L13,1096" tabindex="0">
				<title>00:10.81 on 2018-01-22</title>
			</path>
			<line x1="0" y1="1096" x2="2273" y2="1096"/>
			<line x1="13" y1="2177" x2="13" y2="0"/>
		</g>
		<g style="--index: 2;">
			<path d="M8,468L27,468L27,1126" tabindex="0">
				<title>kj9kz6r8</title>
			</path>
			<rect x="8" y="468" width="19" height="658"/>
			<path d="M8,468L8,468" tabindex="0">
				<title>00:17.09 on 2018-01-17</title>
			</path>
			<line x1="0" y1="468" x2="2273" y2="468"/>
			<line x1="8" y1="2177" x2="8" y2="0"/>
			<path d="M27,1126L27,1126" tabindex="0">
				<title>00:10.51 on 2018-02-05</title>
			</path>
			<line x1="0" y1="1126" x2="2273" y2="1126"/>
			<line x1="27" y1="2177" x2="27" y2="0"/>
		</g>
		<g style="--index: 3;">
			<path d="M9,955" tabindex="0">
				<title>0jm3onz8</title>
			</path>
			<rect x="9" y="955" width="0" height="0"/>
			<path d="M9,955L9,955" tabindex="0">
				<title>00:12.22 on 2018-01-18</title>
			</path>
			<line x1="0" y1="955" x2="2273" y2="955"/>
			<line x1="9" y1="2177" x2="9" y2="0"/>
		</g>
		<g style="--index: 4;">
			<path d="M17,1104L18,1104L18,1125" tabindex="0">
				<title>48grel1x</title>
			</path>
			<rect x="17" y="1104" width="1" height="21"/>
			<path d="M17,1104L17,1104" tabindex="0">
				<title>00:10.73 on 2018-01-26</title>
			</path>
			<line x1="0" y1="1104" x2="2273" y2="1104"/>
			<line x1="17" y1="2177" x2="17" y2="0"/>
			<path d="M18,1125L18,1125" tabindex="0">
				<title>00:10.52 on 2018-01-27</title>
			</path>
			<line x1="0" y1="1125" x2="2273" y2="1125"/>
			<line x1="18" y1="2177" x2="18" y2="0"/>
		</g>
		<g style="--index: 5;">
			<path d="M69,1134L93,1134L93,1159" tabindex="0">
				<title>18qg9ndx</title>
			</path>
			<rect x="69" y="1134" width="24" height="25"/>
			<path d="M69,1134L69,1134" tabindex="0">
				<title>00:10.43 on 2018-03-19</title>
			</path>
			<line x1="0" y1="1134" x2="2273" y2="1134"/>
			<line x1="69" y1="2177" x2="69" y2="0"/>
			<path d="M93,1159L93,1159" tabindex="0">
				<title>00:10.18 on 2018-04-12</title>
			</path>
			<line x1="0" y1="1159" x2="2273" y2="1159"/>
			<line x1="93" y1="2177" x2="93" y2="0"/>
		</g>
		<g style="--index: 6;">
			<path d="M69,977" tabindex="0">
				<title>zx7eerr8</title>
			</path>
			<rect x="69" y="977" width="0" height="0"/>
			<path d="M69,977L69,977" tabindex="0">
				<title>00:12.00 on 2018-03-19</title>
			</path>
			<line x1="0" y1="977" x2="2273" y2="977"/>
			<line x1="69" y1="2177" x2="69" y2="0"/>
		</g>
		<g style="--index: 7;">
			<path d="M82,1151L94,1151L94,1191" tabindex="0">
				<title>e8e935oj</title>
			</path>
			<rect x="82" y="1151" width="12" height="40"/>
			<path d="M82,1151L82,1151" tabindex="0">
				<title>00:10.26 on 2018-04-01</title>
			</path>
			<line x1="0" y1="1151" x2="2273" y2="1151"/>
			<line x1="82" y1="2177" x2="82" y2="0"/>
			<path d="M94,1191L94,1191" tabindex="0">
				<title>00:09.86 on 2018-04-13</title>
			</path>
			<line x1="0" y1="1191" x2="2273" y2="1191"/>
			<line x1="94" y1="2177" x2="94" y2="0"/>
		</g>
		<g style="--index: 8;">
			<path d="M100,1192L966,1192L966,1254" tabindex="0">
				<title>y8dgoe98</title>
			</path>
			<rect x="100" y="1192" width="866" height="62"/>
			<path d="M100,1192L100,1192" tabindex="0">
				<title>00:09.85 on 2018-04-19</title>
			</path>
			<line x1="0" y1="1192" x2="2273" y2="1192"/>
			<line x1="100" y1="2177" x2="100" y2="0"/>
			<path d="M966,1254L966,1254" tabindex="0">
				<title>00:09.23 on 2020-09-01</title>
			</path>
			<line x1="0" y1="1254" x2="2273" y2="1254"/>
			<line x1="966" y1="2177" x2="966" y2="0"/>
		</g>
		<g style="--index: 9;">
			<path d="M414,1178L415,1178L415,1199" tabindex="0">
				<title>1xye35n8</title>
			</path>
			<rect x="414" y="1178" width="1" height="21"/>
			<path d="M414,1178L414,1178" tabindex="0">
				<title>00:09.99 on 2019-02-27</title>
			</path>
			<line x1="0" y1="1178" x2="2273" y2="1178"/>
			<line x1="414" y1="2177" x2="414" y2="0"/>
			<path d="M415,1199L415,1199" tabindex="0">
				<title>00:09.78 on 2019-02-28</title>
			</path>
			<line x1="0" y1="1199" x2="2273" y2="1199"/>
			<line x1="415" y1="2177" x2="415" y2="0"/>
		</g>
		<g style="--index: 10;">
			<path d="M581,27L1580,27L1580,1161" tabindex="0">
				<title>j9rlkzoj</title>
			</path>
			<rect x="581" y="27" width="999" height="1134"/>
			<path d="M581,27L581,27" tabindex="0">
				<title>00:21.50 on 2019-08-13</title>
			</path>
			<line x1="0" y1="27" x2="2273" y2="27"/>
			<line x1="581" y1="2177" x2="581" y2="0"/>
			<path d="M1580,1161L1580,1161" tabindex="0">
				<title>00:10.16 on 2022-05-08</title>
			</path>
			<line x1="0" y1="1161" x2="2273" y2="1161"/>
			<line x1="1580" y1="2177" x2="1580" y2="0"/>
		</g>
		<g style="--index: 11;">
			<path d="M641,788L644,788L644,989" tabindex="0">
				<title>7j4y0zmj</title>
			</path>
			<rect x="641" y="788" width="3" height="201"/>
			<path d="M641,788L641,788" tabindex="0">
				<title>00:13.89 on 2019-10-12</title>
			</path>
			<line x1="0" y1="788" x2="2273" y2="788"/>
			<line x1="641" y1="2177" x2="641" y2="0"/>
			<path d="M644,989L644,989" tabindex="0">
				<title>00:11.88 on 2019-10-15</title>
			</path>
			<line x1="0" y1="989" x2="2273" y2="989"/>
			<line x1="644" y1="2177" x2="644" y2="0"/>
		</g>
		<g style="--index: 12;">
			<path d="M853,1210L870,1210L870,1241" tabindex="0">
				<title>x356nrej</title>
			</path>
			<rect x="853" y="1210" width="17" height="31"/>
			<path d="M853,1210L853,1210" tabindex="0">
				<title>00:09.67 on 2020-05-11</title>
			</path>
			<line x1="0" y1="1210" x2="2273" y2="1210"/>
			<line x1="853" y1="2177" x2="853" y2="0"/>
			<path d="M870,1241L870,1241" tabindex="0">
				<title>00:09.36 on 2020-05-28</title>
			</path>
			<line x1="0" y1="1241" x2="2273" y2="1241"/>
			<line x1="870" y1="2177" x2="870" y2="0"/>
		</g>
		<g style="--index: 13;">
			<path d="M871,1245" tabindex="0">
				<title>xz9mo9n8</title>
			</path>
			<rect x="871" y="1245" width="0" height="0"/>
			<path d="M871,1245L871,1245" tabindex="0">
				<title>00:09.32 on 2020-05-29</title>
			</path>
			<line x1="0" y1="1245" x2="2273" y2="1245"/>
			<line x1="871" y1="2177" x2="871" y2="0"/>
		</g>
		<g style="--index: 14;">
			<path d="M1033,1074L1185,1074L1185,1171" tabindex="0">
				<title>j0np7or8</title>
			</path>
			<rect x="1033" y="1074" width="152" height="97"/>
			<path d="M1033,1074L1033,1074" tabindex="0">
				<title>00:11.03 on 2020-11-07</title>
			</path>
			<line x1="0" y1="1074" x2="2273" y2="1074"/>
			<line x1="1033" y1="2177" x2="1033" y2="0"/>
			<path d="M1185,1171L1185,1171" tabindex="0">
				<title>00:10.06 on 2021-04-08</title>
			</path>
			<line x1="0" y1="1171" x2="2273" y2="1171"/>
			<line x1="1185" y1="2177" x2="1185" y2="0"/>
		</g>
		<g style="--index: 15;">
			<path d="M1046,1160L1096,1160L1096,1228" tabindex="0">
				<title>x7q00668</title>
			</path>
			<rect x="1046" y="1160" width="50" height="68"/>
			<path d="M1046,1160L1046,1160" tabindex="0">
				<title>00:10.17 on 2020-11-20</title>
			</path>
			<line x1="0" y1="1160" x2="2273" y2="1160"/>
			<line x1="1046" y1="2177" x2="1046" y2="0"/>
			<path d="M1096,1228L1096,1228" tabindex="0">
				<title>00:09.49 on 2021-01-09</title>
			</path>
			<line x1="0" y1="1228" x2="2273" y2="1228"/>
			<line x1="1096" y1="2177" x2="1096" y2="0"/>
		</g>
		<g style="--index: 16;">
			<path d="M1055,1258" tabindex="0">
				<title>0jmw6wex</title>
			</path>
			<rect x="1055" y="1258" width="0" height="0"/>
			<path d="M1055,1258L1055,1258" tabindex="0">
				<title>00:09.19 on 2020-11-29</title>
			</path>
			<line x1="0" y1="1258" x2="2273" y2="1258"/>
			<line x1="1055" y1="2177" x2="1055" y2="0"/>
		</g>
		<g style="--index: 17;">
			<path d="M1072,948" tabindex="0">
				<title>8en1p568</title>
			</path>
			<rect x="1072" y="948" width="0" height="0"/>
			<path d="M1072,948L1072,948" tabindex="0">
				<title>00:12.29 on 2020-12-16</title>
			</path>
			<line x1="0" y1="948" x2="2273" y2="948"/>
			<line x1="1072" y1="2177" x2="1072" y2="0"/>
		</g>
		<g style="--index: 18;">
			<path d="M1105,1070L1106,1070L1106,1217L1107,1217L1107,1251L1113,1251L1113,1261" tabindex="0">
				<title>jnzg27dj</title>
			</path>
			<rect x="1105" y="1070" width="8" height="191"/>
			<path d="M1105,1070L1105,1070" tabindex="0">
				<title>00:11.07 on 2021-01-18</title>
			</path>
			<line x1="0" y1="1070" x2="2273" y2="1070"/>
			<line x1="1105" y1="2177" x2="1105" y2="0"/>
			<path d="M1106,1217L1106,1217" tabindex="0">
				<title>00:09.60 on 2021-01-19</title>
			</path>
			<line x1="0" y1="1217" x2="2273" y2="1217"/>
			<line x1="1106" y1="2177" x2="1106" y2="0"/>
			<path d="M1107,1251L1107,1251" tabindex="0">
				<title>00:09.26 on 2021-01-20</title>
			</path>
			<line x1="0" y1="1251" x2="2273" y2="1251"/>
			<line x1="1107" y1="2177" x2="1107" y2="0"/>
			<path d="M1113,1261L1113,1261" tabindex="0">
				<title>00:09.16 on 2021-01-26</title>
			</path>
			<line x1="0" y1="1261" x2="2273" y2="1261"/>
			<line x1="1113" y1="2177" x2="1113" y2="0"/>
		</g>
		<g style="--index: 19;">
			<path d="M1111,1259L1114,1259L1114,1261L1287,1261L1287,1297" tabindex="0">
				<title>xkon93k8</title>
			</path>
			<rect x="1111" y="1259" width="176" height="38"/>
			<path d="M1111,1259L1111,1259" tabindex="0">
				<title>00:09.18 on 2021-01-24</title>
			</path>
			<line x1="0" y1="1259" x2="2273" y2="1259"/>
			<line x1="1111" y1="2177" x2="1111" y2="0"/>
			<path d="M1114,1261L1114,1261" tabindex="0">
				<title>00:09.16 on 2021-01-27</title>
			</path>
			<line x1="0" y1="1261" x2="2273" y2="1261"/>
			<line x1="1114" y1="2177" x2="1114" y2="0"/>
			<path d="M1287,1297L1287,1297" tabindex="0">
				<title>00:08.80 on 2021-07-19</title>
			</path>
			<line x1="0" y1="1297" x2="2273" y2="1297"/>
			<line x1="1287" y1="2177" x2="1287" y2="0"/>
		</g>
		<g style="--index: 20;">
			<path d="M1140,1283L1143,1283L1143,1294L1368,1294L1368,1309" tabindex="0">
				<title>j2yr9lp8</title>
			</path>
			<rect x="1140" y="1283" width="228" height="26"/>
			<path d="M1140,1283L1140,1283" tabindex="0">
				<title>00:08.94 on 2021-02-22</title>
			</path>
			<line x1="0" y1="1283" x2="2273" y2="1283"/>
			<line x1="1140" y1="2177" x2="1140" y2="0"/>
			<path d="M1143,1294L1143,1294" tabindex="0">
				<title>00:08.83 on 2021-02-25</title>
			</path>
			<line x1="0" y1="1294" x2="2273" y2="1294"/>
			<line x1="1143" y1="2177" x2="1143" y2="0"/>
			<path d="M1368,1309L1368,1309" tabindex="0">
				<title>00:08.68 on 2021-10-08</title>
			</path>
			<line x1="0" y1="1309" x2="2273" y2="1309"/>
			<line x1="1368" y1="2177" x2="1368" y2="0"/>
		</g>
		<g style="--index: 21;">
			<path d="M1148,858" tabindex="0">
				<title>8vkprm2j</title>
			</path>
			<rect x="1148" y="858" width="0" height="0"/>
			<path d="M1148,858L1148,858" tabindex="0">
				<title>00:13.19 on 2021-03-02</title>
			</path>
			<line x1="0" y1="858" x2="2273" y2="858"/>
			<line x1="1148" y1="2177" x2="1148" y2="0"/>
		</g>
		<g style="--index: 22;">
			<path d="M1199,936" tabindex="0">
				<title>8r7nmdgj</title>
			</path>
			<rect x="1199" y="936" width="0" height="0"/>
			<path d="M1199,936L1199,936" tabindex="0">
				<title>00:12.41 on 2021-04-22</title>
			</path>
			<line x1="0" y1="936" x2="2273" y2="936"/>
			<line x1="1199" y1="2177" x2="1199" y2="0"/>
		</g>
		<g style="--index: 23;">
			<path d="M1202,880" tabindex="0">
				<title>xz7qdq4j</title>
			</path>
			<rect x="1202" y="880" width="0" height="0"/>
			<path d="M1202,880L1202,880" tabindex="0">
				<title>00:12.97 on 2021-04-25</title>
			</path>
			<line x1="0" y1="880" x2="2273" y2="880"/>
			<line x1="1202" y1="2177" x2="1202" y2="0"/>
		</g>
		<g style="--index: 24;">
			<path d="M1399,645" tabindex="0">
				<title>x7m0llyx</title>
			</path>
			<rect x="1399" y="645" width="0" height="0"/>
			<path d="M1399,645L1399,645" tabindex="0">
				<title>00:15.32 on 2021-11-08</title>
			</path>
			<line x1="0" y1="645" x2="2273" y2="645"/>
			<line x1="1399" y1="2177" x2="1399" y2="0"/>
		</g>
		<g style="--index: 25;">
			<path d="M1425,724" tabindex="0">
				<title>8vo9gyyx</title>
			</path>
			<rect x="1425" y="724" width="0" height="0"/>
			<path d="M1425,724L1425,724" tabindex="0">
				<title>00:14.53 on 2021-12-04</title>
			</path>
			<line x1="0" y1="724" x2="2273" y2="724"/>
			<line x1="1425" y1="2177" x2="1425" y2="0"/>
		</g>
		<g style="--index: 26;">
			<path d="M1428,625" tabindex="0">
				<title>x3mn3ok8</title>
			</path>
			<rect x="1428" y="625" width="0" height="0"/>
			<path d="M1428,625L1428,625" tabindex="0">
				<title>00:15.52 on 2021-12-07</title>
			</path>
			<line x1="0" y1="625" x2="2273" y2="625"/>
			<line x1="1428" y1="2177" x2="1428" y2="0"/>
		</g>
		<g style="--index: 27;">
			<path d="M1429,777" tabindex="0">
				<title>x3m9d3k8</title>
			</path>
			<rect x="1429" y="777" width="0" height="0"/>
			<path d="M1429,777L1429,777" tabindex="0">
				<title>00:14.00 on 2021-12-08</title>
			</path>
			<line x1="0" y1="777" x2="2273" y2="777"/>
			<line x1="1429" y1="2177" x2="1429" y2="0"/>
		</g>
		<g style="--index: 28;">
			<path d="M1454,1192" tabindex="0">
				<title>8g5g6g1j</title>
			</path>
			<rect x="1454" y="1192" width="0" height="0"/>
			<path d="M1454,1192L1454,1192" tabindex="0">
				<title>00:09.85 on 2022-01-02</title>
			</path>
			<line x1="0" y1="1192" x2="2273" y2="1192"/>
			<line x1="1454" y1="2177" x2="1454" y2="0"/>
		</g>
		<g style="--index: 29;">
			<path d="M1484,393" tabindex="0">
				<title>j4q3e7vx</title>
			</path>
			<rect x="1484" y="393" width="0" height="0"/>
			<path d="M1484,393L1484,393" tabindex="0">
				<title>00:17.84 on 2022-02-01</title>
			</path>
			<line x1="0" y1="393" x2="2273" y2="393"/>
			<line x1="1484" y1="2177" x2="1484" y2="0"/>
		</g>
		<g style="--index: 30;">
			<path d="M1485,947" tabindex="0">
				<title>xkml2r6j</title>
			</path>
			<rect x="1485" y="947" width="0" height="0"/>
			<path d="M1485,947L1485,947" tabindex="0">
				<title>00:12.30 on 2022-02-02</title>
			</path>
			<line x1="0" y1="947" x2="2273" y2="947"/>
			<line x1="1485" y1="2177" x2="1485" y2="0"/>
		</g>
		<g style="--index: 31;">
			<path d="M1513,1098" tabindex="0">
				<title>81qlgylj</title>
			</path>
			<rect x="1513" y="1098" width="0" height="0"/>
			<path d="M1513,1098L1513,1098" tabindex="0">
				<title>00:10.79 on 2022-03-02</title>
			</path>
			<line x1="0" y1="1098" x2="2273" y2="1098"/>
			<line x1="1513" y1="2177" x2="1513" y2="0"/>
		</g>
		<g style="--index: 32;">
			<path d="M1518,911" tabindex="0">
				<title>863mv638</title>
			</path>
			<rect x="1518" y="911" width="0" height="0"/>
			<path d="M1518,911L1518,911" tabindex="0">
				<title>00:12.66 on 2022-03-07</title>
			</path>
			<line x1="0" y1="911" x2="2273" y2="911"/>
			<line x1="1518" y1="2177" x2="1518" y2="0"/>
		</g>
		<g style="--index: 33;">
			<path d="M1537,1070L1538,1070L1538,1177" tabindex="0">
				<title>j23yz0px</title>
			</path>
			<rect x="1537" y="1070" width="1" height="107"/>
			<path d="M1537,1070L1537,1070" tabindex="0">
				<title>00:11.07 on 2022-03-26</title>
			</path>
			<line x1="0" y1="1070" x2="2273" y2="1070"/>
			<line x1="1537" y1="2177" x2="1537" y2="0"/>
			<path d="M1538,1177L1538,1177" tabindex="0">
				<title>00:10.00 on 2022-03-27</title>
			</path>
			<line x1="0" y1="1177" x2="2273" y2="1177"/>
			<line x1="1538" y1="2177" x2="1538" y2="0"/>
		</g>
		<g style="--index: 34;">
			<path d="M1553,669" tabindex="0">
				<title>j5214nzj</title>
			</path>
			<rect x="1553" y="669" width="0" height="0"/>
			<path d="M1553,669L1553,669" tabindex="0">
				<title>00:15.08 on 2022-04-11</title>
			</path>
			<line x1="0" y1="669" x2="2273" y2="669"/>
			<line x1="1553" y1="2177" x2="1553" y2="0"/>
		</g>
		<g style="--index: 35;">
			<path d="M1573,787" tabindex="0">
				<title>8w99243j</title>
			</path>
			<rect x="1573" y="787" width="0" height="0"/>
			<path d="M1573,787L1573,787" tabindex="0">
				<title>00:13.90 on 2022-05-01</title>
			</path>
			<line x1="0" y1="787" x2="2273" y2="787"/>
			<line x1="1573" y1="2177" x2="1573" y2="0"/>
		</g>
		<g style="--index: 36;">
			<path d="M1578,875" tabindex="0">
				<title>jm3l6oo8</title>
			</path>
			<rect x="1578" y="875" width="0" height="0"/>
			<path d="M1578,875L1578,875" tabindex="0">
				<title>00:13.02 on 2022-05-06</title>
			</path>
			<line x1="0" y1="875" x2="2273" y2="875"/>
			<line x1="1578" y1="2177" x2="1578" y2="0"/>
		</g>
		<g style="--index: 37;">
			<path d="M1582,640" tabindex="0">
				<title>8gm02g18</title>
			</path>
			<rect x="1582" y="640" width="0" height="0"/>
			<path d="M1582,640L1582,640" tabindex="0">
				<title>00:15.37 on 2022-05-10</title>
			</path>
			<line x1="0" y1="640" x2="2273" y2="640"/>
			<line x1="1582" y1="2177" x2="1582" y2="0"/>
		</g>
		<g style="--index: 38;">
			<path d="M1600,1264" tabindex="0">
				<title>jnz0k52j</title>
			</path>
			<rect x="1600" y="1264" width="0" height="0"/>
			<path d="M1600,1264L1600,1264" tabindex="0">
				<title>00:09.13 on 2022-05-28</title>
			</path>
			<line x1="0" y1="1264" x2="2273" y2="1264"/>
			<line x1="1600" y1="2177" x2="1600" y2="0"/>
		</g>
		<g style="--index: 39;">
			<path d="M1602,695" tabindex="0">
				<title>8e645e6j</title>
			</path>
			<rect x="1602" y="695" width="0" height="0"/>
			<path d="M1602,695L1602,695" tabindex="0">
				<title>00:14.82 on 2022-05-30</title>
			</path>
			<line x1="0" y1="695" x2="2273" y2="695"/>
			<line x1="1602" y1="2177" x2="1602" y2="0"/>
		</g>
		<g style="--index: 40;">
			<path d="M1614,602" tabindex="0">
				<title>jm3ygn48</title>
			</path>
			<rect x="1614" y="602" width="0" height="0"/>
			<path d="M1614,602L1614,602" tabindex="0">
				<title>00:15.75 on 2022-06-11</title>
			</path>
			<line x1="0" y1="602" x2="2273" y2="602"/>
			<line x1="1614" y1="2177" x2="1614" y2="0"/>
		</g>
		<g style="--index: 41;">
			<path d="M1641,913" tabindex="0">
				<title>8gmvl418</title>
			</path>
			<rect x="1641" y="913" width="0" height="0"/>
			<path d="M1641,913L1641,913" tabindex="0">
				<title>00:12.64 on 2022-07-08</title>
			</path>
			<line x1="0" y1="913" x2="2273" y2="913"/>
			<line x1="1641" y1="2177" x2="1641" y2="0"/>
		</g>
		<g style="--index: 42;">
			<path d="M1661,878" tabindex="0">
				<title>j0grn39x</title>
			</path>
			<rect x="1661" y="878" width="0" height="0"/>
			<path d="M1661,878L1661,878" tabindex="0">
				<title>00:12.99 on 2022-07-28</title>
			</path>
			<line x1="0" y1="878" x2="2273" y2="878"/>
			<line x1="1661" y1="2177" x2="1661" y2="0"/>
		</g>
		<g style="--index: 43;">
			<path d="M1666,1061" tabindex="0">
				<title>8gmpngr8</title>
			</path>
			<rect x="1666" y="1061" width="0" height="0"/>
			<path d="M1666,1061L1666,1061" tabindex="0">
				<title>00:11.16 on 2022-08-02</title>
			</path>
			<line x1="0" y1="1061" x2="2273" y2="1061"/>
			<line x1="1666" y1="2177" x2="1666" y2="0"/>
		</g>
		<g style="--index: 44;">
			<path d="M1683,1001L1865,1001L1865,1077" tabindex="0">
				<title>jnp37d18</title>
			</path>
			<rect x="1683" y="1001" width="182" height="76"/>
			<path d="M1683,1001L1683,1001" tabindex="0">
				<title>00:11.76 on 2022-08-19</title>
			</path>
			<line x1="0" y1="1001" x2="2273" y2="1001"/>
			<line x1="1683" y1="2177" x2="1683" y2="0"/>
			<path d="M1865,1077L1865,1077" tabindex="0">
				<title>00:11.00 on 2023-02-17</title>
			</path>
			<line x1="0" y1="1077" x2="2273" y2="1077"/>
			<line x1="1865" y1="2177" x2="1865" y2="0"/>
		</g>
		<g style="--index: 45;">
			<path d="M1704,249" tabindex="0">
				<title>8d0gvnmx</title>
			</path>
			<rect x="1704" y="249" width="0" height="0"/>
			<path d="M1704,249L1704,249" tabindex="0">
				<title>00:19.28 on 2022-09-09</title>
			</path>
			<line x1="0" y1="249" x2="2273" y2="249"/>
			<line x1="1704" y1="2177" x2="1704" y2="0"/>
		</g>
		<g style="--index: 46;">
			<path d="M1706,1068" tabindex="0">
				<title>xk1oze6j</title>
			</path>
			<rect x="1706" y="1068" width="0" height="0"/>
			<path d="M1706,1068L1706,1068" tabindex="0">
				<title>00:11.09 on 2022-09-11</title>
			</path>
			<line x1="0" y1="1068" x2="2273" y2="1068"/>
			<line x1="1706" y1="2177" x2="1706" y2="0"/>
		</g>
		<g style="--index: 47;">
			<path d="M1710,1040" tabindex="0">
				<title>x766z2rj</title>
			</path>
			<rect x="1710" y="1040" width="0" height="0"/>
			<path d="M1710,1040L1710,1040" tabindex="0">
				<title>00:11.37 on 2022-09-15</title>
			</path>
			<line x1="0" y1="1040" x2="2273" y2="1040"/>
			<line x1="1710" y1="2177" x2="1710" y2="0"/>
		</g>
		<g style="--index: 48;">
			<path d="M1772,932" tabindex="0">
				<title>8ewg6np8</title>
			</path>
			<rect x="1772" y="932" width="0" height="0"/>
			<path d="M1772,932L1772,932" tabindex="0">
				<title>00:12.45 on 2022-11-16</title>
			</path>
			<line x1="0" y1="932" x2="2273" y2="932"/>
			<line x1="1772" y1="2177" x2="1772" y2="0"/>
		</g>
		<g style="--index: 49;">
			<path d="M1778,1071L1807,1071L1807,1120" tabindex="0">
				<title>jm3y0go8</title>
			</path>
			<rect x="1778" y="1071" width="29" height="49"/>
			<path d="M1778,1071L1778,1071" tabindex="0">
				<title>00:11.06 on 2022-11-22</title>
			</path>
			<line x1="0" y1="1071" x2="2273" y2="1071"/>
			<line x1="1778" y1="2177" x2="1778" y2="0"/>
			<path d="M1807,1120L1807,1120" tabindex="0">
				<title>00:10.57 on 2022-12-21</title>
			</path>
			<line x1="0" y1="1120" x2="2273" y2="1120"/>
			<line x1="1807" y1="2177" x2="1807" y2="0"/>
		</g>
		<g style="--index: 50;">
			<path d="M1842,585" tabindex="0">
				<title>8ewm6dd8</title>
			</path>
			<rect x="1842" y="585" width="0" height="0"/>
			<path d="M1842,585L1842,585" tabindex="0">
				<title>00:15.92 on 2023-01-25</title>
			</path>
			<line x1="0" y1="585" x2="2273" y2="585"/>
			<line x1="1842" y1="2177" x2="1842" y2="0"/>
		</g>
		<g style="--index: 51;">
			<path d="M1887,1014" tabindex="0">
				<title>jp6e4l58</title>
			</path>
			<rect x="1887" y="1014" width="0" height="0"/>
			<path d="M1887,1014L1887,1014" tabindex="0">
				<title>00:11.63 on 2023-03-11</title>
			</path>
			<line x1="0" y1="1014" x2="2273" y2="1014"/>
			<line x1="1887" y1="2177" x2="1887" y2="0"/>
		</g>
		<g style="--index: 52;">
			<path d="M1892,1326L1950,1326L1950,1363L1983,1363L1983,1367" tabindex="0">
				<title>jn2m23wj</title>
			</path>
			<rect x="1892" y="1326" width="91" height="41"/>
			<path d="M1892,1326L1892,1326" tabindex="0">
				<title>00:08.51 on 2023-03-16</title>
			</path>
			<line x1="0" y1="1326" x2="2273" y2="1326"/>
			<line x1="1892" y1="2177" x2="1892" y2="0"/>
			<path d="M1950,1363L1950,1363" tabindex="0">
				<title>00:08.14 on 2023-05-13</title>
			</path>
			<line x1="0" y1="1363" x2="2273" y2="1363"/>
			<line x1="1950" y1="2177" x2="1950" y2="0"/>
			<path d="M1983,1367L1983,1367" tabindex="0">
				<title>00:08.10 on 2023-06-15</title>
			</path>
			<line x1="0" y1="1367" x2="2273" y2="1367"/>
			<line x1="1983" y1="2177" x2="1983" y2="0"/>
		</g>
		<g style="--index: 53;">
			<path d="M1895,1073" tabindex="0">
				<title>x7w44nr8</title>
			</path>
			<rect x="1895" y="1073" width="0" height="0"/>
			<path d="M1895,1073L1895,1073" tabindex="0">
				<title>00:11.04 on 2023-03-19</title>
			</path>
			<line x1="0" y1="1073" x2="2273" y2="1073"/>
			<line x1="1895" y1="2177" x2="1895" y2="0"/>
		</g>
		<g style="--index: 54;">
			<path d="M1897,844" tabindex="0">
				<title>810z203x</title>
			</path>
			<rect x="1897" y="844" width="0" height="0"/>
			<path d="M1897,844L1897,844" tabindex="0">
				<title>00:13.33 on 2023-03-21</title>
			</path>
			<line x1="0" y1="844" x2="2273" y2="844"/>
			<line x1="1897" y1="2177" x2="1897" y2="0"/>
		</g>
		<g style="--index: 55;">
			<path d="M1908,885" tabindex="0">
				<title>j20g1oox</title>
			</path>
			<rect x="1908" y="885" width="0" height="0"/>
			<path d="M1908,885L1908,885" tabindex="0">
				<title>00:12.92 on 2023-04-01</title>
			</path>
			<line x1="0" y1="885" x2="2273" y2="885"/>
			<line x1="1908" y1="2177" x2="1908" y2="0"/>
		</g>
		<g style="--index: 56;">
			<path d="M1908,476" tabindex="0">
				<title>8ewvzpd8</title>
			</path>
			<rect x="1908" y="476" width="0" height="0"/>
			<path d="M1908,476L1908,476" tabindex="0">
				<title>00:17.01 on 2023-04-01</title>
			</path>
			<line x1="0" y1="476" x2="2273" y2="476"/>
			<line x1="1908" y1="2177" x2="1908" y2="0"/>
		</g>
		<g style="--index: 57;">
			<path d="M1908,0" tabindex="0">
				<title>jmz90o4x</title>
			</path>
			<rect x="1908" y="0" width="0" height="0"/>
			<path d="M1908,0L1908,0" tabindex="0">
				<title>00:21.77 on 2023-04-01</title>
			</path>
			<line x1="0" y1="0" x2="2273" y2="0"/>
			<line x1="1908" y1="2177" x2="1908" y2="0"/>
		</g>
		<g style="--index: 58;">
			<path d="M1937,891" tabindex="0">
				<title>x76nqwrj</title>
			</path>
			<rect x="1937" y="891" width="0" height="0"/>
			<path d="M1937,891L1937,891" tabindex="0">
				<title>00:12.86 on 2023-04-30</title>
			</path>
			<line x1="0" y1="891" x2="2273" y2="891"/>
			<line x1="1937" y1="2177" x2="1937" y2="0"/>
		</g>
		<g style="--index: 59;">
			<path d="M1946,774" tabindex="0">
				<title>x72n4768</title>
			</path>
			<rect x="1946" y="774" width="0" height="0"/>
			<path d="M1946,774L1946,774" tabindex="0">
				<title>00:14.03 on 2023-05-09</title>
			</path>
			<line x1="0" y1="774" x2="2273" y2="774"/>
			<line x1="1946" y1="2177" x2="1946" y2="0"/>
		</g>
		<g style="--index: 60;">
			<path d="M1948,818" tabindex="0">
				<title>j5qyodzj</title>
			</path>
			<rect x="1948" y="818" width="0" height="0"/>
			<path d="M1948,818L1948,818" tabindex="0">
				<title>00:13.59 on 2023-05-11</title>
			</path>
			<line x1="0" y1="818" x2="2273" y2="818"/>
			<line x1="1948" y1="2177" x2="1948" y2="0"/>
		</g>
		<g style="--index: 61;">
			<path d="M1951,937" tabindex="0">
				<title>xk1wl26j</title>
			</path>
			<rect x="1951" y="937" width="0" height="0"/>
			<path d="M1951,937L1951,937" tabindex="0">
				<title>00:12.40 on 2023-05-14</title>
			</path>
			<line x1="0" y1="937" x2="2273" y2="937"/>
			<line x1="1951" y1="2177" x2="1951" y2="0"/>
		</g>
		<g style="--index: 62;">
			<path d="M1965,529" tabindex="0">
				<title>jmzn974x</title>
			</path>
			<rect x="1965" y="529" width="0" height="0"/>
			<path d="M1965,529L1965,529" tabindex="0">
				<title>00:16.48 on 2023-05-28</title>
			</path>
			<line x1="0" y1="529" x2="2273" y2="529"/>
			<line x1="1965" y1="2177" x2="1965" y2="0"/>
		</g>
		<g style="--index: 63;">
			<path d="M1965,884" tabindex="0">
				<title>x76vr3vj</title>
			</path>
			<rect x="1965" y="884" width="0" height="0"/>
			<path d="M1965,884L1965,884" tabindex="0">
				<title>00:12.93 on 2023-05-28</title>
			</path>
			<line x1="0" y1="884" x2="2273" y2="884"/>
			<line x1="1965" y1="2177" x2="1965" y2="0"/>
		</g>
		<g style="--index: 64;">
			<path d="M1971,764L1981,764L1981,1139L2004,1139L2004,1199" tabindex="0">
				<title>8v21onej</title>
			</path>
			<rect x="1971" y="764" width="33" height="435"/>
			<path d="M1971,764L1971,764" tabindex="0">
				<title>00:14.13 on 2023-06-03</title>
			</path>
			<line x1="0" y1="764" x2="2273" y2="764"/>
			<line x1="1971" y1="2177" x2="1971" y2="0"/>
			<path d="M1981,1139L1981,1139" tabindex="0">
				<title>00:10.38 on 2023-06-13</title>
			</path>
			<line x1="0" y1="1139" x2="2273" y2="1139"/>
			<line x1="1981" y1="2177" x2="1981" y2="0"/>
			<path d="M2004,1199L2004,1199" tabindex="0">
				<title>00:09.78 on 2023-07-06</title>
			</path>
			<line x1="0" y1="1199" x2="2273" y2="1199"/>
			<line x1="2004" y1="2177" x2="2004" y2="0"/>
		</g>
		<g style="--index: 65;">
			<path d="M1979,740" tabindex="0">
				<title>864o0kqj</title>
			</path>
			<rect x="1979" y="740" width="0" height="0"/>
			<path d="M1979,740L1979,740" tabindex="0">
				<title>00:14.37 on 2023-06-11</title>
			</path>
			<line x1="0" y1="740" x2="2273" y2="740"/>
			<line x1="1979" y1="2177" x2="1979" y2="0"/>
		</g>
		<g style="--index: 66;">
			<path d="M1990,830" tabindex="0">
				<title>j06yo5wj</title>
			</path>
			<rect x="1990" y="830" width="0" height="0"/>
			<path d="M1990,830L1990,830" tabindex="0">
				<title>00:13.47 on 2023-06-22</title>
			</path>
			<line x1="0" y1="830" x2="2273" y2="830"/>
			<line x1="1990" y1="2177" x2="1990" y2="0"/>
		</g>
		<g style="--index: 67;">
			<path d="M2009,812" tabindex="0">
				<title>j9k252w8</title>
			</path>
			<rect x="2009" y="812" width="0" height="0"/>
			<path d="M2009,812L2009,812" tabindex="0">
				<title>00:13.65 on 2023-07-11</title>
			</path>
			<line x1="0" y1="812" x2="2273" y2="812"/>
			<line x1="2009" y1="2177" x2="2009" y2="0"/>
		</g>
		<g style="--index: 68;">
			<path d="M2017,1071" tabindex="0">
				<title>xkpo50kj</title>
			</path>
			<rect x="2017" y="1071" width="0" height="0"/>
			<path d="M2017,1071L2017,1071" tabindex="0">
				<title>00:11.06 on 2023-07-19</title>
			</path>
			<line x1="0" y1="1071" x2="2273" y2="1071"/>
			<line x1="2017" y1="2177" x2="2017" y2="0"/>
		</g>
		<g style="--index: 69;">
			<path d="M2021,677" tabindex="0">
				<title>8q57o978</title>
			</path>
			<rect x="2021" y="677" width="0" height="0"/>
			<path d="M2021,677L2021,677" tabindex="0">
				<title>00:15.00 on 2023-07-23</title>
			</path>
			<line x1="0" y1="677" x2="2273" y2="677"/>
			<line x1="2021" y1="2177" x2="2021" y2="0"/>
		</g>
		<g style="--index: 70;">
			<path d="M2021,713" tabindex="0">
				<title>xk136v6j</title>
			</path>
			<rect x="2021" y="713" width="0" height="0"/>
			<path d="M2021,713L2021,713" tabindex="0">
				<title>00:14.64 on 2023-07-23</title>
			</path>
			<line x1="0" y1="713" x2="2273" y2="713"/>
			<line x1="2021" y1="2177" x2="2021" y2="0"/>
		</g>
		<g style="--index: 71;">
			<path d="M2034,1074" tabindex="0">
				<title>jm7lpgoj</title>
			</path>
			<rect x="2034" y="1074" width="0" height="0"/>
			<path d="M2034,1074L2034,1074" tabindex="0">
				<title>00:11.03 on 2023-08-05</title>
			</path>
			<line x1="0" y1="1074" x2="2273" y2="1074"/>
			<line x1="2034" y1="2177" x2="2034" y2="0"/>
		</g>
		<g style="--index: 72;">
			<path d="M2037,1106" tabindex="0">
				<title>xyqlkgy8</title>
			</path>
			<rect x="2037" y="1106" width="0" height="0"/>
			<path d="M2037,1106L2037,1106" tabindex="0">
				<title>00:10.71 on 2023-08-08</title>
			</path>
			<line x1="0" y1="1106" x2="2273" y2="1106"/>
			<line x1="2037" y1="2177" x2="2037" y2="0"/>
		</g>
		<g style="--index: 73;">
			<path d="M2043,163" tabindex="0">
				<title>jon6e378</title>
			</path>
			<rect x="2043" y="163" width="0" height="0"/>
			<path d="M2043,163L2043,163" tabindex="0">
				<title>00:20.14 on 2023-08-14</title>
			</path>
			<line x1="0" y1="163" x2="2273" y2="163"/>
			<line x1="2043" y1="2177" x2="2043" y2="0"/>
		</g>
		<g style="--index: 74;">
			<path d="M2049,683" tabindex="0">
				<title>8rm3p63j</title>
			</path>
			<rect x="2049" y="683" width="0" height="0"/>
			<path d="M2049,683L2049,683" tabindex="0">
				<title>00:14.94 on 2023-08-20</title>
			</path>
			<line x1="0" y1="683" x2="2273" y2="683"/>
			<line x1="2049" y1="2177" x2="2049" y2="0"/>
		</g>
		<g style="--index: 75;">
			<path d="M2054,1061" tabindex="0">
				<title>jng34ld8</title>
			</path>
			<rect x="2054" y="1061" width="0" height="0"/>
			<path d="M2054,1061L2054,1061" tabindex="0">
				<title>00:11.16 on 2023-08-25</title>
			</path>
			<line x1="0" y1="1061" x2="2273" y2="1061"/>
			<line x1="2054" y1="2177" x2="2054" y2="0"/>
		</g>
		<g style="--index: 76;">
			<path d="M2084,1203" tabindex="0">
				<title>j2qq3mlj</title>
			</path>
			<rect x="2084" y="1203" width="0" height="0"/>
			<path d="M2084,1203L2084,1203" tabindex="0">
				<title>00:09.74 on 2023-09-24</title>
			</path>
			<line x1="0" y1="1203" x2="2273" y2="1203"/>
			<line x1="2084" y1="2177" x2="2084" y2="0"/>
		</g>
		<g style="--index: 77;">
			<path d="M2097,612" tabindex="0">
				<title>jpyz4k4j</title>
			</path>
			<rect x="2097" y="612" width="0" height="0"/>
			<path d="M2097,612L2097,612" tabindex="0">
				<title>00:15.65 on 2023-10-07</title>
			</path>
			<line x1="0" y1="612" x2="2273" y2="612"/>
			<line x1="2097" y1="2177" x2="2097" y2="0"/>
		</g>
		<g style="--index: 78;">
			<path d="M2098,559" tabindex="0">
				<title>xz0yo5r8</title>
			</path>
			<rect x="2098" y="559" width="0" height="0"/>
			<path d="M2098,559L2098,559" tabindex="0">
				<title>00:16.18 on 2023-10-08</title>
			</path>
			<line x1="0" y1="559" x2="2273" y2="559"/>
			<line x1="2098" y1="2177" x2="2098" y2="0"/>
		</g>
		<g style="--index: 79;">
			<path d="M2101,1261" tabindex="0">
				<title>8w045k3j</title>
			</path>
			<rect x="2101" y="1261" width="0" height="0"/>
			<path d="M2101,1261L2101,1261" tabindex="0">
				<title>00:09.16 on 2023-10-11</title>
			</path>
			<line x1="0" y1="1261" x2="2273" y2="1261"/>
			<line x1="2101" y1="2177" x2="2101" y2="0"/>
		</g>
		<g style="--index: 80;">
			<path d="M2107,994" tabindex="0">
				<title>xyqkv0m8</title>
			</path>
			<rect x="2107" y="994" width="0" height="0"/>
			<path d="M2107,994L2107,994" tabindex="0">
				<title>00:11.83 on 2023-10-17</title>
			</path>
			<line x1="0" y1="994" x2="2273" y2="994"/>
			<line x1="2107" y1="2177" x2="2107" y2="0"/>
		</g>
		<g style="--index: 81;">
			<path d="M2160,612L2220,612L2220,1158" tabindex="0">
				<title>8w3l21qj</title>
			</path>
			<rect x="2160" y="612" width="60" height="546"/>
			<path d="M2160,612L2160,612" tabindex="0">
				<title>00:15.65 on 2023-12-09</title>
			</path>
			<line x1="0" y1="612" x2="2273" y2="612"/>
			<line x1="2160" y1="2177" x2="2160" y2="0"/>
			<path d="M2220,1158L2220,1158" tabindex="0">
				<title>00:10.19 on 2024-02-07</title>
			</path>
			<line x1="0" y1="1158" x2="2273" y2="1158"/>
			<line x1="2220" y1="2177" x2="2220" y2="0"/>
		</g>
		<g style="--index: 82;">
			<path d="M2164,1139" tabindex="0">
				<title>xz2o4k9x</title>
			</path>
			<rect x="2164" y="1139" width="0" height="0"/>
			<path d="M2164,1139L2164,1139" tabindex="0">
				<title>00:10.38 on 2023-12-13</title>
			</path>
			<line x1="0" y1="1139" x2="2273" y2="1139"/>
			<line x1="2164" y1="2177" x2="2164" y2="0"/>
		</g>
		<g style="--index: 83;">
			<path d="M2215,1011" tabindex="0">
				<title>81mov058</title>
			</path>
			<rect x="2215" y="1011" width="0" height="0"/>
			<path d="M2215,1011L2215,1011" tabindex="0">
				<title>00:11.66 on 2024-02-02</title>
			</path>
			<line x1="0" y1="1011" x2="2273" y2="1011"/>
			<line x1="2215" y1="2177" x2="2215" y2="0"/>
		</g>
		<g style="--index: 84;">
			<path d="M2216,830" tabindex="0">
				<title>jngvqz28</title>
			</path>
			<rect x="2216" y="830" width="0" height="0"/>
			<path d="M2216,830L2216,830" tabindex="0">
				<title>00:13.47 on 2024-02-03</title>
			</path>
			<line x1="0" y1="830" x2="2273" y2="830"/>
			<line x1="2216" y1="2177" x2="2216" y2="0"/>
		</g>
		<g style="--index: 85;">
			<path d="M2218,1132" tabindex="0">
				<title>8rm563gj</title>
			</path>
			<rect x="2218" y="1132" width="0" height="0"/>
			<path d="M2218,1132L2218,1132" tabindex="0">
				<title>00:10.45 on 2024-02-05</title>
			</path>
			<line x1="0" y1="1132" x2="2273" y2="1132"/>
			<line x1="2218" y1="2177" x2="2218" y2="0"/>
		</g>
		<g style="--index: 86;">
			<path d="M2219,727" tabindex="0">
				<title>xkpvey7j</title>
			</path>
			<rect x="2219" y="727" width="0" height="0"/>
			<path d="M2219,727L2219,727" tabindex="0">
				<title>00:14.50 on 2024-02-06</title>
			</path>
			<line x1="0" y1="727" x2="2273" y2="727"/>
			<line x1="2219" y1="2177" x2="2219" y2="0"/>
		</g>
		<g style="--index: 87;">
			<path d="M2239,704" tabindex="0">
				<title>jm7m6rej</title>
			</path>
			<rect x="2239" y="704" width="0" height="0"/>
			<path d="M2239,704L2239,704" tabindex="0">
				<title>00:14.73 on 2024-02-26</title>
			</path>
			<line x1="0" y1="704" x2="2273" y2="704"/>
			<line x1="2239" y1="2177" x2="2239" y2="0"/>
		</g>
		<g style="--index: 88;">
			<path d="M2261,841" tabindex="0">
				<title>86rz9rw8</title>
			</path>
			<rect x="2261" y="841" width="0" height="0"/>
			<path d="M2261,841L2261,841" tabindex="0">
				<title>00:13.36 on 2024-03-19</title>
			</path>
			<line x1="0" y1="841" x2="2273" y2="841"/>
			<line x1="2261" y1="2177" x2="2261" y2="0"/>
		</g>
		<g style="--index: 89;">
			<path d="M2267,740" tabindex="0">
				<title>8dp2w958</title>
			</path>
			<rect x="2267" y="740" width="0" height="0"/>
			<path d="M2267,740L2267,740" tabindex="0">
				<title>00:14.37 on 2024-03-25</title>
			</path>
			<line x1="0" y1="740" x2="2273" y2="740"/>
			<line x1="2267" y1="2177" x2="2267" y2="0"/>
		</g>
		<g style="--index: 90;">
			<path d="M2273,799" tabindex="0">
				<title>jpy07v2j</title>
			</path>
			<rect x="2273" y="799" width="0" height="0"/>
			<path d="M2273,799L2273,799" tabindex="0">
				<title>00:13.78 on 2024-03-31</title>
			</path>
			<line x1="0" y1="799" x2="2273" y2="799"/>
			<line x1="2273" y1="2177" x2="2273" y2="0"/>
		</g>
	</g>
</svg>
