<svg xmlns="http://www.w3.org/2000/svg" viewBox="0 0 1366 16362" preserveAspectRatio="none" lang="en" style="color-scheme: dark light;">
		<title>Time by player for leaderboard l_r9gn1qpd-9kv66g32-onv7r45n.9qj08g7l</title>
		<style>
			svg {
				background: var(--canvas-background);
				fill: var(--canvas-background);
				stroke: var(--canvas-foreground);
				stroke-linejoin: round;
				stroke-linecap: round;
			}
			g &gt; path[tabindex] {
				vector-effect: non-scaling-stroke;
				fill: none;
				stroke: hsl(calc(var(--index) / var(--count) * 360), 50%, 50%);
				cursor: help;
			}
			g:is(:hover, :focus-within) &gt; path[tabindex] {
				stroke: var(--canvas-foreground);
			}
			g &gt; path[tabindex]:is(:hover, :focus-within) {
				outline: 0;
			}
			g &gt; path[tabindex]:first-of-type {
				stroke-width: 2;
			}
			g &gt; path[tabindex]:first-of-type:is(:hover, :focus-within) {
				stroke-width: 4;
			}
			g &gt; path[tabindex]:first-of-type:not(:last-of-type) {
				stroke-dasharray: 4 8;
			}
			g &gt; rect {
				vector-effect: non-scaling-stroke;
				fill: none;
				stroke: none;
				pointer-events: none;
			}
			g &gt; path[tabindex]:first-of-type:is(:hover, :focus-within) + rect {
				fill: var(--highlighted);
			}
			g &gt; path[tabindex]:first-of-type ~ path[tabindex] {
				stroke-width: 8;
			}
			g &gt; path[tabindex]:first-of-type ~ path[tabindex]:is(:hover, :focus-within) {
				stroke-width: 16;
			}
			g &gt; line {
				vector-effect: non-scaling-stroke;
				fill: none;
				stroke: none;
				stroke-width: 2;
				stroke-dasharray: 4 8;
				pointer-events: none;
			}
			g &gt; path[tabindex]:first-of-type:is(:hover, :focus-within) + rect + path[tabindex] + line,
			g &gt; path[tabindex]:first-of-type:is(:hover, :focus-within) + rect + path[tabindex] + line + line,
			g &gt; path[tabindex]:first-of-type:is(:hover, :focus-within) ~ path[tabindex]:last-of-type + line,
			g &gt; path[tabindex]:first-of-type:is(:hover, :focus-within) ~ path[tabindex]:last-of-type + line + line,
			g &gt; path[tabindex]:first-of-type ~ path[tabindex]:is(:hover, :focus-within) + line,
			g &gt; path[tabindex]:first-of-type ~ path[tabindex]:is(:hover, :focus-within) + line + line {
				stroke: var(--faded);
			}
			@media (prefers-color-scheme: dark) {
				:root {
					--canvas-background: #000;
					--canvas-foreground: #ccc;
					--highlighted: #6663;
					--faded: #9993;
				}
			}
			@media (prefers-color-scheme: light) {
				:root {
					--canvas-background: #fff;
					--canvas-foreground: #333;
					--highlighted: #9993;
					--faded: #6663;
				}
			}
		</style>
		<g transform="scale(1 -1)" transform-origin="center center" style="--count: 10;">
		<g style="--index: 0;">
			<path d="M0,13911" tabindex="0">
				<title>8146r4r8</title>
			</path>
			<rect x="0" y="13911" width="0" height="0"/>
			<path d="M0,13911L0,13911" tabindex="0">
				<title>02:19.11 on 2020-06-21</title>
			</path>
			<line x1="0" y1="13911" x2="1366" y2="13911"/>
			<line x1="0" y1="0" x2="0" y2="16362"/>
		</g>
		<g style="--index: 1;">
			<path d="M6,13794" tabindex="0">
				<title>qjo6dp0j</title>
			</path>
			<rect x="6" y="13794" width="0" height="0"/>
			<path d="M6,13794L6,13794" tabindex="0">
				<title>02:17.94 on 2020-06-27</title>
			</path>
			<line x1="0" y1="13794" x2="1366" y2="13794"/>
			<line x1="6" y1="0" x2="6" y2="16362"/>
		</g>
		<g style="--index: 2;">
			<path d="M66,13486" tabindex="0">
				<title>y8dgoe98</title>
			</path>
			<rect x="66" y="13486" width="0" height="0"/>
			<path d="M66,13486L66,13486" tabindex="0">
				<title>02:14.86 on 2020-08-26</title>
			</path>
			<line x1="0" y1="13486" x2="1366" y2="13486"/>
			<line x1="66" y1="0" x2="66" y2="16362"/>
		</g>
		<g style="--index: 3;">
			<path d="M141,13618" tabindex="0">
				<title>x356nrej</title>
			</path>
			<rect x="141" y="13618" width="0" height="0"/>
			<path d="M141,13618L141,13618" tabindex="0">
				<title>02:16.18 on 2020-11-09</title>
			</path>
			<line x1="0" y1="13618" x2="1366" y2="13618"/>
			<line x1="141" y1="0" x2="141" y2="16362"/>
		</g>
		<g style="--index: 4;">
			<path d="M159,12728" tabindex="0">
				<title>0jmw6wex</title>
			</path>
			<rect x="159" y="12728" width="0" height="0"/>
			<path d="M159,12728L159,12728" tabindex="0">
				<title>02:07.28 on 2020-11-27</title>
			</path>
			<line x1="0" y1="12728" x2="1366" y2="12728"/>
			<line x1="159" y1="0" x2="159" y2="16362"/>
		</g>
		<g style="--index: 5;">
			<path d="M199,12538L476,12538L476,11306" tabindex="0">
				<title>814zn7l8</title>
			</path>
			<rect x="199" y="11306" width="277" height="1232"/>
			<path d="M199,12538L199,12538" tabindex="0">
				<title>02:05.38 on 2021-01-06</title>
			</path>
			<line x1="0" y1="12538" x2="1366" y2="12538"/>
			<line x1="199" y1="0" x2="199" y2="16362"/>
			<path d="M476,11306L476,11306" tabindex="0">
				<title>01:53.06 on 2021-10-10</title>
			</path>
			<line x1="0" y1="11306" x2="1366" y2="11306"/>
			<line x1="476" y1="0" x2="476" y2="16362"/>
		</g>
		<g style="--index: 6;">
			<path d="M205,14694" tabindex="0">
				<title>j0np7or8</title>
			</path>
			<rect x="205" y="14694" width="0" height="0"/>
			<path d="M205,14694L205,14694" tabindex="0">
				<title>02:26.94 on 2021-01-12</title>
			</path>
			<line x1="0" y1="14694" x2="1366" y2="14694"/>
			<line x1="205" y1="0" x2="205" y2="16362"/>
		</g>
		<g style="--index: 7;">
			<path d="M221,11905L1084,11905L1084,11021" tabindex="0">
				<title>xkon93k8</title>
			</path>
			<rect x="221" y="11021" width="863" height="884"/>
			<path d="M221,11905L221,11905" tabindex="0">
				<title>01:59.05 on 2021-01-28</title>
			</path>
			<line x1="0" y1="11905" x2="1366" y2="11905"/>
			<line x1="221" y1="0" x2="221" y2="16362"/>
			<path d="M1084,11021L1084,11021" tabindex="0">
				<title>01:50.21 on 2023-06-10</title>
			</path>
			<line x1="0" y1="11021" x2="1366" y2="11021"/>
			<line x1="1084" y1="0" x2="1084" y2="16362"/>
		</g>
		<g style="--index: 8;">
			<path d="M812,13606L832,13606L832,13147" tabindex="0">
				<title>xk1oze6j</title>
			</path>
			<rect x="812" y="13147" width="20" height="459"/>
			<path d="M812,13606L812,13606" tabindex="0">
				<title>02:16.06 on 2022-09-11</title>
			</path>
			<line x1="0" y1="13606" x2="1366" y2="13606"/>
			<line x1="812" y1="0" x2="812" y2="16362"/>
			<path d="M832,13147L832,13147" tabindex="0">
				<title>02:11.47 on 2022-10-01</title>
			</path>
			<line x1="0" y1="13147" x2="1366" y2="13147"/>
			<line x1="832" y1="0" x2="832" y2="16362"/>
		</g>
		<g style="--index: 9;">
			<path d="M1268,16362L1366,16362L1366,12529" tabindex="0">
				<title>8w3l21qj</title>
			</path>
			<rect x="1268" y="12529" width="98" height="3833"/>
			<path d="M1268,16362L1268,16362" tabindex="0">
				<title>02:43.62 on 2023-12-11</title>
			</path>
			<line x1="0" y1="16362" x2="1366" y2="16362"/>
			<line x1="1268" y1="0" x2="1268" y2="16362"/>
			<path d="M1366,12529L1366,12529" tabindex="0">
				<title>02:05.29 on 2024-03-18</title>
			</path>
			<line x1="0" y1="12529" x2="1366" y2="12529"/>
			<line x1="1366" y1="0" x2="1366" y2="16362"/>
		</g>
	</g>
</svg>
