<svg xmlns="http://www.w3.org/2000/svg" viewBox="0 0 2251 41835" preserveAspectRatio="none" lang="en" style="color-scheme: dark light;">
	<title>Time by player for leaderboard l_r9gn1qpd-9d8eewld-0nwoqwkl.gq7jrxvq</title>
	<style>
		svg {
			background: var(--canvas-background);
			fill: var(--canvas-background);
			stroke: var(--canvas-foreground);
			stroke-linejoin: round;
			stroke-linecap: round;
		}
		g &gt; path[tabindex] {
			vector-effect: non-scaling-stroke;
			fill: none;
			stroke: hsl(calc(var(--index) / var(--count) * 360), 50%, 50%);
			cursor: help;
		}
		g:is(:hover, :focus-within) &gt; path[tabindex] {
			stroke: var(--canvas-foreground);
		}
		g &gt; path[tabindex]:is(:hover, :focus-within) {
			outline: 0;
		}
		g &gt; path[tabindex]:first-of-type {
			stroke-width: 2;
		}
		g &gt; path[tabindex]:first-of-type:is(:hover, :focus-within) {
			stroke-width: 4;
		}
		g &gt; path[tabindex]:first-of-type:not(:last-of-type) {
			stroke-dasharray: 4 8;
		}
		g &gt; rect {
			vector-effect: non-scaling-stroke;
			fill: none;
			stroke: none;
			pointer-events: none;
		}
		g &gt; path[tabindex]:first-of-type:is(:hover, :focus-within) + rect {
			fill: var(--highlighted);
		}
		g &gt; path[tabindex]:first-of-type ~ path[tabindex] {
			stroke-width: 8;
		}
		g &gt; path[tabindex]:first-of-type ~ path[tabindex]:is(:hover, :focus-within) {
			stroke-width: 16;
		}
		g &gt; line {
			vector-effect: non-scaling-stroke;
			fill: none;
			stroke: none;
			stroke-width: 2;
			stroke-dasharray: 4 8;
			pointer-events: none;
		}
		g &gt; path[tabindex]:first-of-type:is(:hover, :focus-within) + rect + path[tabindex] + line,
		g &gt; path[tabindex]:first-of-type:is(:hover, :focus-within) + rect + path[tabindex] + line + line,
		g &gt; path[tabindex]:first-of-type:is(:hover, :focus-within) ~ path[tabindex]:last-of-type + line,
		g &gt; path[tabindex]:first-of-type:is(:hover, :focus-within) ~ path[tabindex]:last-of-type + line + line,
		g &gt; path[tabindex]:first-of-type ~ path[tabindex]:is(:hover, :focus-within) + line,
		g &gt; path[tabindex]:first-of-type ~ path[tabindex]:is(:hover, :focus-within) + line + line {
			stroke: var(--faded);
		}
		@media (prefers-color-scheme: dark) {
			:root {
				--canvas-background: #000;
				--canvas-foreground: #ccc;
				--highlighted: #6663;
				--faded: #9993;
			}
		}
		@media (prefers-color-scheme: light) {
			:root {
				--canvas-background: #fff;
				--canvas-foreground: #333;
				--highlighted: #9993;
				--faded: #6663;
			}
		}
	</style>
	<g transform="scale(1 -1)" transform-origin="center center" style="--count: 17;">
		<g style="--index: 0;">
			<path d="M0,41835" tabindex="0">
				<title>kj9kz6r8</title>
			</path>
			<rect x="0" y="41835" width="0" height="0"/>
			<path d="M0,41835L0,41835" tabindex="0">
				<title>06:58.35 on 2018-02-05</title>
			</path>
			<line x1="0" y1="41835" x2="2251" y2="41835"/>
			<line x1="0" y1="0" x2="0" y2="41835"/>
		</g>
		<g style="--index: 1;">
			<path d="M3,32855L390,32855L390,28042" tabindex="0">
				<title>qj2pq1p8</title>
			</path>
			<rect x="3" y="28042" width="387" height="4813"/>
			<path d="M3,32855L3,32855" tabindex="0">
				<title>05:28.55 on 2018-02-08</title>
			</path>
			<line x1="0" y1="32855" x2="2251" y2="32855"/>
			<line x1="3" y1="0" x2="3" y2="41835"/>
			<path d="M390,28042L390,28042" tabindex="0">
				<title>04:40.42 on 2019-03-02</title>
			</path>
			<line x1="0" y1="28042" x2="2251" y2="28042"/>
			<line x1="390" y1="0" x2="390" y2="41835"/>
		</g>
		<g style="--index: 2;">
			<path d="M73,31141" tabindex="0">
				<title>y8dgoe98</title>
			</path>
			<rect x="73" y="31141" width="0" height="0"/>
			<path d="M73,31141L73,31141" tabindex="0">
				<title>05:11.41 on 2018-04-19</title>
			</path>
			<line x1="0" y1="31141" x2="2251" y2="31141"/>
			<line x1="73" y1="0" x2="73" y2="41835"/>
		</g>
		<g style="--index: 3;">
			<path d="M555,34848" tabindex="0">
				<title>j9rlkzoj</title>
			</path>
			<rect x="555" y="34848" width="0" height="0"/>
			<path d="M555,34848L555,34848" tabindex="0">
				<title>05:48.48 on 2019-08-14</title>
			</path>
			<line x1="0" y1="34848" x2="2251" y2="34848"/>
			<line x1="555" y1="0" x2="555" y2="41835"/>
		</g>
		<g style="--index: 4;">
			<path d="M730,31620L731,31620L731,26816L738,26816L738,23923L741,23923L741,22950L749,22950L749,22945L795,22945L795,22001L868,22001L868,16336" tabindex="0">
				<title>8146r4r8</title>
			</path>
			<rect x="730" y="16336" width="138" height="15284"/>
			<path d="M730,31620L730,31620" tabindex="0">
				<title>05:16.20 on 2020-02-05</title>
			</path>
			<line x1="0" y1="31620" x2="2251" y2="31620"/>
			<line x1="730" y1="0" x2="730" y2="41835"/>
			<path d="M731,26816L731,26816" tabindex="0">
				<title>04:28.16 on 2020-02-06</title>
			</path>
			<line x1="0" y1="26816" x2="2251" y2="26816"/>
			<line x1="731" y1="0" x2="731" y2="41835"/>
			<path d="M738,23923L738,23923" tabindex="0">
				<title>03:59.23 on 2020-02-13</title>
			</path>
			<line x1="0" y1="23923" x2="2251" y2="23923"/>
			<line x1="738" y1="0" x2="738" y2="41835"/>
			<path d="M741,22950L741,22950" tabindex="0">
				<title>03:49.50 on 2020-02-16</title>
			</path>
			<line x1="0" y1="22950" x2="2251" y2="22950"/>
			<line x1="741" y1="0" x2="741" y2="41835"/>
			<path d="M749,22945L749,22945" tabindex="0">
				<title>03:49.45 on 2020-02-24</title>
			</path>
			<line x1="0" y1="22945" x2="2251" y2="22945"/>
			<line x1="749" y1="0" x2="749" y2="41835"/>
			<path d="M795,22001L795,22001" tabindex="0">
				<title>03:40.01 on 2020-04-10</title>
			</path>
			<line x1="0" y1="22001" x2="2251" y2="22001"/>
			<line x1="795" y1="0" x2="795" y2="41835"/>
			<path d="M868,16336L868,16336" tabindex="0">
				<title>02:43.36 on 2020-06-22</title>
			</path>
			<line x1="0" y1="16336" x2="2251" y2="16336"/>
			<line x1="868" y1="0" x2="868" y2="41835"/>
		</g>
		<g style="--index: 5;">
			<path d="M845,17030" tabindex="0">
				<title>x356nrej</title>
			</path>
			<rect x="845" y="17030" width="0" height="0"/>
			<path d="M845,17030L845,17030" tabindex="0">
				<title>02:50.30 on 2020-05-30</title>
			</path>
			<line x1="0" y1="17030" x2="2251" y2="17030"/>
			<line x1="845" y1="0" x2="845" y2="41835"/>
		</g>
		<g style="--index: 6;">
			<path d="M873,13422" tabindex="0">
				<title>qjo6dp0j</title>
			</path>
			<rect x="873" y="13422" width="0" height="0"/>
			<path d="M873,13422L873,13422" tabindex="0">
				<title>02:14.22 on 2020-06-27</title>
			</path>
			<line x1="0" y1="13422" x2="2251" y2="13422"/>
			<line x1="873" y1="0" x2="873" y2="41835"/>
		</g>
		<g style="--index: 7;">
			<path d="M938,25797" tabindex="0">
				<title>8dwnyqoj</title>
			</path>
			<rect x="938" y="25797" width="0" height="0"/>
			<path d="M938,25797L938,25797" tabindex="0">
				<title>04:17.97 on 2020-08-31</title>
			</path>
			<line x1="0" y1="25797" x2="2251" y2="25797"/>
			<line x1="938" y1="0" x2="938" y2="41835"/>
		</g>
		<g style="--index: 8;">
			<path d="M1022,16197L1073,16197L1073,13169" tabindex="0">
				<title>x7q00668</title>
			</path>
			<rect x="1022" y="13169" width="51" height="3028"/>
			<path d="M1022,16197L1022,16197" tabindex="0">
				<title>02:41.97 on 2020-11-23</title>
			</path>
			<line x1="0" y1="16197" x2="2251" y2="16197"/>
			<line x1="1022" y1="0" x2="1022" y2="41835"/>
			<path d="M1073,13169L1073,13169" tabindex="0">
				<title>02:11.69 on 2021-01-13</title>
			</path>
			<line x1="0" y1="13169" x2="2251" y2="13169"/>
			<line x1="1073" y1="0" x2="1073" y2="41835"/>
		</g>
		<g style="--index: 9;">
			<path d="M1050,16149L1051,16149L1051,15074L1071,15074L1071,13272L1074,13272L1074,13021" tabindex="0">
				<title>814zn7l8</title>
			</path>
			<rect x="1050" y="13021" width="24" height="3128"/>
			<path d="M1050,16149L1050,16149" tabindex="0">
				<title>02:41.49 on 2020-12-21</title>
			</path>
			<line x1="0" y1="16149" x2="2251" y2="16149"/>
			<line x1="1050" y1="0" x2="1050" y2="41835"/>
			<path d="M1051,15074L1051,15074" tabindex="0">
				<title>02:30.74 on 2020-12-22</title>
			</path>
			<line x1="0" y1="15074" x2="2251" y2="15074"/>
			<line x1="1051" y1="0" x2="1051" y2="41835"/>
			<path d="M1071,13272L1071,13272" tabindex="0">
				<title>02:12.72 on 2021-01-11</title>
			</path>
			<line x1="0" y1="13272" x2="2251" y2="13272"/>
			<line x1="1071" y1="0" x2="1071" y2="41835"/>
			<path d="M1074,13021L1074,13021" tabindex="0">
				<title>02:10.21 on 2021-01-14</title>
			</path>
			<line x1="0" y1="13021" x2="2251" y2="13021"/>
			<line x1="1074" y1="0" x2="1074" y2="41835"/>
		</g>
		<g style="--index: 10;">
			<path d="M1071,20784" tabindex="0">
				<title>j0np7or8</title>
			</path>
			<rect x="1071" y="20784" width="0" height="0"/>
			<path d="M1071,20784L1071,20784" tabindex="0">
				<title>03:27.84 on 2021-01-11</title>
			</path>
			<line x1="0" y1="20784" x2="2251" y2="20784"/>
			<line x1="1071" y1="0" x2="1071" y2="41835"/>
		</g>
		<g style="--index: 11;">
			<path d="M1090,12745" tabindex="0">
				<title>xkon93k8</title>
			</path>
			<rect x="1090" y="12745" width="0" height="0"/>
			<path d="M1090,12745L1090,12745" tabindex="0">
				<title>02:07.45 on 2021-01-30</title>
			</path>
			<line x1="0" y1="12745" x2="2251" y2="12745"/>
			<line x1="1090" y1="0" x2="1090" y2="41835"/>
		</g>
		<g style="--index: 12;">
			<path d="M1112,12180L1118,12180L1118,11943" tabindex="0">
				<title>j2yr9lp8</title>
			</path>
			<rect x="1112" y="11943" width="6" height="237"/>
			<path d="M1112,12180L1112,12180" tabindex="0">
				<title>02:01.80 on 2021-02-21</title>
			</path>
			<line x1="0" y1="12180" x2="2251" y2="12180"/>
			<line x1="1112" y1="0" x2="1112" y2="41835"/>
			<path d="M1118,11943L1118,11943" tabindex="0">
				<title>01:59.43 on 2021-02-27</title>
			</path>
			<line x1="0" y1="11943" x2="2251" y2="11943"/>
			<line x1="1118" y1="0" x2="1118" y2="41835"/>
		</g>
		<g style="--index: 13;">
			<path d="M1789,11863L2156,11863L2156,10521" tabindex="0">
				<title>jn2m23wj</title>
			</path>
			<rect x="1789" y="10521" width="367" height="1342"/>
			<path d="M1789,11863L1789,11863" tabindex="0">
				<title>01:58.63 on 2022-12-30</title>
			</path>
			<line x1="0" y1="11863" x2="2251" y2="11863"/>
			<line x1="1789" y1="0" x2="1789" y2="41835"/>
			<path d="M2156,10521L2156,10521" tabindex="0">
				<title>01:45.21 on 2024-01-01</title>
			</path>
			<line x1="0" y1="10521" x2="2251" y2="10521"/>
			<line x1="2156" y1="0" x2="2156" y2="41835"/>
		</g>
		<g style="--index: 14;">
			<path d="M1891,17755" tabindex="0">
				<title>j9pkl7vx</title>
			</path>
			<rect x="1891" y="17755" width="0" height="0"/>
			<path d="M1891,17755L1891,17755" tabindex="0">
				<title>02:57.55 on 2023-04-11</title>
			</path>
			<line x1="0" y1="17755" x2="2251" y2="17755"/>
			<line x1="1891" y1="0" x2="1891" y2="41835"/>
		</g>
		<g style="--index: 15;">
			<path d="M1979,11840" tabindex="0">
				<title>j4235d5x</title>
			</path>
			<rect x="1979" y="11840" width="0" height="0"/>
			<path d="M1979,11840L1979,11840" tabindex="0">
				<title>01:58.40 on 2023-07-08</title>
			</path>
			<line x1="0" y1="11840" x2="2251" y2="11840"/>
			<line x1="1979" y1="0" x2="1979" y2="41835"/>
		</g>
		<g style="--index: 16;">
			<path d="M2133,17682L2147,17682L2147,13191L2251,13191L2251,12513" tabindex="0">
				<title>8w3l21qj</title>
			</path>
			<rect x="2133" y="12513" width="118" height="5169"/>
			<path d="M2133,17682L2133,17682" tabindex="0">
				<title>02:56.82 on 2023-12-09</title>
			</path>
			<line x1="0" y1="17682" x2="2251" y2="17682"/>
			<line x1="2133" y1="0" x2="2133" y2="41835"/>
			<path d="M2147,13191L2147,13191" tabindex="0">
				<title>02:11.91 on 2023-12-23</title>
			</path>
			<line x1="0" y1="13191" x2="2251" y2="13191"/>
			<line x1="2147" y1="0" x2="2147" y2="41835"/>
			<path d="M2251,12513L2251,12513" tabindex="0">
				<title>02:05.13 on 2024-04-05</title>
			</path>
			<line x1="0" y1="12513" x2="2251" y2="12513"/>
			<line x1="2251" y1="0" x2="2251" y2="41835"/>
		</g>
	</g>
</svg>
