<svg xmlns="http://www.w3.org/2000/svg" viewBox="0 0 373 10607" preserveAspectRatio="none" lang="en" style="color-scheme: dark light;">
		<title>Time by player for leaderboard l_r9gn1qpd-xd144xzd-38dz6v1n.q755eky1</title>
		<style>
			svg {
				background: var(--canvas-background);
				fill: var(--canvas-background);
				stroke: var(--canvas-foreground);
				stroke-linejoin: round;
				stroke-linecap: round;
			}
			g &gt; path[tabindex] {
				vector-effect: non-scaling-stroke;
				fill: none;
				stroke: hsl(calc(var(--index) / var(--count) * 360), 50%, 50%);
				cursor: help;
			}
			g:is(:hover, :focus-within) &gt; path[tabindex] {
				stroke: var(--canvas-foreground);
			}
			g &gt; path[tabindex]:is(:hover, :focus-within) {
				outline: 0;
			}
			g &gt; path[tabindex]:first-of-type {
				stroke-width: 2;
			}
			g &gt; path[tabindex]:first-of-type:is(:hover, :focus-within) {
				stroke-width: 4;
			}
			g &gt; path[tabindex]:first-of-type:not(:last-of-type) {
				stroke-dasharray: 4 8;
			}
			g &gt; rect {
				vector-effect: non-scaling-stroke;
				fill: none;
				stroke: none;
				pointer-events: none;
			}
			g &gt; path[tabindex]:first-of-type:is(:hover, :focus-within) + rect {
				fill: var(--highlighted);
			}
			g &gt; path[tabindex]:first-of-type ~ path[tabindex] {
				stroke-width: 8;
			}
			g &gt; path[tabindex]:first-of-type ~ path[tabindex]:is(:hover, :focus-within) {
				stroke-width: 16;
			}
			g &gt; line {
				vector-effect: non-scaling-stroke;
				fill: none;
				stroke: none;
				stroke-width: 2;
				stroke-dasharray: 4 8;
				pointer-events: none;
			}
			g &gt; path[tabindex]:first-of-type:is(:hover, :focus-within) + rect + path[tabindex] + line,
			g &gt; path[tabindex]:first-of-type:is(:hover, :focus-within) + rect + path[tabindex] + line + line,
			g &gt; path[tabindex]:first-of-type:is(:hover, :focus-within) ~ path[tabindex]:last-of-type + line,
			g &gt; path[tabindex]:first-of-type:is(:hover, :focus-within) ~ path[tabindex]:last-of-type + line + line,
			g &gt; path[tabindex]:first-of-type ~ path[tabindex]:is(:hover, :focus-within) + line,
			g &gt; path[tabindex]:first-of-type ~ path[tabindex]:is(:hover, :focus-within) + line + line {
				stroke: var(--faded);
			}
			@media (prefers-color-scheme: dark) {
				:root {
					--canvas-background: #000;
					--canvas-foreground: #ccc;
					--highlighted: #6663;
					--faded: #9993;
				}
			}
			@media (prefers-color-scheme: light) {
				:root {
					--canvas-background: #fff;
					--canvas-foreground: #333;
					--highlighted: #9993;
					--faded: #6663;
				}
			}
		</style>
		<g transform="scale(1 -1)" transform-origin="center center" style="--count: 5;">
		<g style="--index: 0;">
			<path d="M0,9245" tabindex="0">
				<title>x7w44nr8</title>
			</path>
			<rect x="0" y="9245" width="0" height="0"/>
			<path d="M0,9245L0,9245" tabindex="0">
				<title>01:32.45 on 2023-03-19</title>
			</path>
			<line x1="0" y1="9245" x2="373" y2="9245"/>
			<line x1="0" y1="0" x2="0" y2="10607"/>
		</g>
		<g style="--index: 1;">
			<path d="M83,7495" tabindex="0">
				<title>xkon93k8</title>
			</path>
			<rect x="83" y="7495" width="0" height="0"/>
			<path d="M83,7495L83,7495" tabindex="0">
				<title>01:14.95 on 2023-06-10</title>
			</path>
			<line x1="0" y1="7495" x2="373" y2="7495"/>
			<line x1="83" y1="0" x2="83" y2="10607"/>
		</g>
		<g style="--index: 2;">
			<path d="M267,10469L325,10469L325,8105L326,8105L326,7931" tabindex="0">
				<title>8w3l21qj</title>
			</path>
			<rect x="267" y="7931" width="59" height="2538"/>
			<path d="M267,10469L267,10469" tabindex="0">
				<title>01:44.69 on 2023-12-11</title>
			</path>
			<line x1="0" y1="10469" x2="373" y2="10469"/>
			<line x1="267" y1="0" x2="267" y2="10607"/>
			<path d="M325,8105L325,8105" tabindex="0">
				<title>01:21.05 on 2024-02-07</title>
			</path>
			<line x1="0" y1="8105" x2="373" y2="8105"/>
			<line x1="325" y1="0" x2="325" y2="10607"/>
			<path d="M326,7931L326,7931" tabindex="0">
				<title>01:19.31 on 2024-02-08</title>
			</path>
			<line x1="0" y1="7931" x2="373" y2="7931"/>
			<line x1="326" y1="0" x2="326" y2="10607"/>
		</g>
		<g style="--index: 3;">
			<path d="M299,10607" tabindex="0">
				<title>8dpl6o58</title>
			</path>
			<rect x="299" y="10607" width="0" height="0"/>
			<path d="M299,10607L299,10607" tabindex="0">
				<title>01:46.07 on 2024-01-12</title>
			</path>
			<line x1="0" y1="10607" x2="373" y2="10607"/>
			<line x1="299" y1="0" x2="299" y2="10607"/>
		</g>
		<g style="--index: 4;">
			<path d="M373,8928" tabindex="0">
				<title>81m34w58</title>
			</path>
			<rect x="373" y="8928" width="0" height="0"/>
			<path d="M373,8928L373,8928" tabindex="0">
				<title>01:29.28 on 2024-03-26</title>
			</path>
			<line x1="0" y1="8928" x2="373" y2="8928"/>
			<line x1="373" y1="0" x2="373" y2="10607"/>
		</g>
	</g>
</svg>
