<svg xmlns="http://www.w3.org/2000/svg" viewBox="0 0 2273 2177" preserveAspectRatio="none" lang="en" style="color-scheme: dark light;">
		<title>Time by player for leaderboard l_r9gn1qpd-9d8eewld-0nwoqwkl.81ppdgg1</title>
		<style>
			svg {
				background: var(--canvas-background);
				fill: var(--canvas-background);
				stroke: var(--canvas-foreground);
				stroke-linejoin: round;
				stroke-linecap: round;
			}
			g &gt; path[tabindex] {
				vector-effect: non-scaling-stroke;
				fill: none;
				stroke: hsl(calc(var(--index) / var(--count) * 360), 50%, 50%);
				cursor: help;
			}
			g:is(:hover, :focus-within) &gt; path[tabindex] {
				stroke: var(--canvas-foreground);
			}
			g &gt; path[tabindex]:is(:hover, :focus-within) {
				outline: 0;
			}
			g &gt; path[tabindex]:first-of-type {
				stroke-width: 2;
			}
			g &gt; path[tabindex]:first-of-type:is(:hover, :focus-within) {
				stroke-width: 4;
			}
			g &gt; path[tabindex]:first-of-type:not(:last-of-type) {
				stroke-dasharray: 4 8;
			}
			g &gt; rect {
				vector-effect: non-scaling-stroke;
				fill: none;
				stroke: none;
				pointer-events: none;
			}
			g &gt; path[tabindex]:first-of-type:is(:hover, :focus-within) + rect {
				fill: var(--highlighted);
			}
			g &gt; path[tabindex]:first-of-type ~ path[tabindex] {
				stroke-width: 8;
			}
			g &gt; path[tabindex]:first-of-type ~ path[tabindex]:is(:hover, :focus-within) {
				stroke-width: 16;
			}
			g &gt; line {
				vector-effect: non-scaling-stroke;
				fill: none;
				stroke: none;
				stroke-width: 2;
				stroke-dasharray: 4 8;
				pointer-events: none;
			}
			g &gt; path[tabindex]:first-of-type:is(:hover, :focus-within) + rect + path[tabindex] + line,
			g &gt; path[tabindex]:first-of-type:is(:hover, :focus-within) + rect + path[tabindex] + line + line,
			g &gt; path[tabindex]:first-of-type:is(:hover, :focus-within) ~ path[tabindex]:last-of-type + line,
			g &gt; path[tabindex]:first-of-type:is(:hover, :focus-within) ~ path[tabindex]:last-of-type + line + line,
			g &gt; path[tabindex]:first-of-type ~ path[tabindex]:is(:hover, :focus-within) + line,
			g &gt; path[tabindex]:first-of-type ~ path[tabindex]:is(:hover, :focus-within) + line + line {
				stroke: var(--faded);
			}
			@media (prefers-color-scheme: dark) {
				:root {
					--canvas-background: #000;
					--canvas-foreground: #ccc;
					--highlighted: #6663;
					--faded: #9993;
				}
			}
			@media (prefers-color-scheme: light) {
				:root {
					--canvas-background: #fff;
					--canvas-foreground: #333;
					--highlighted: #9993;
					--faded: #6663;
				}
			}
		</style>
		<g transform="scale(1 -1)" transform-origin="center center" style="--count: 91;">
		<g style="--index: 0;">
			<path d="M0,1550L6,1550L6,1261L10,1261L10,1134L15,1134L15,1075L17,1075L17,1057L18,1057L18,1052L29,1052L29,1045" tabindex="0">
				<title>qj2pq1p8</title>
			</path>
			<rect x="0" y="1045" width="29" height="505"/>
			<path d="M0,1550L0,1550" tabindex="0">
				<title>00:15.50 on 2018-01-09</title>
			</path>
			<line x1="0" y1="1550" x2="2273" y2="1550"/>
			<line x1="0" y1="0" x2="0" y2="2177"/>
			<path d="M6,1261L6,1261" tabindex="0">
				<title>00:12.61 on 2018-01-15</title>
			</path>
			<line x1="0" y1="1261" x2="2273" y2="1261"/>
			<line x1="6" y1="0" x2="6" y2="2177"/>
			<path d="M10,1134L10,1134" tabindex="0">
				<title>00:11.34 on 2018-01-19</title>
			</path>
			<line x1="0" y1="1134" x2="2273" y2="1134"/>
			<line x1="10" y1="0" x2="10" y2="2177"/>
			<path d="M15,1075L15,1075" tabindex="0">
				<title>00:10.75 on 2018-01-24</title>
			</path>
			<line x1="0" y1="1075" x2="2273" y2="1075"/>
			<line x1="15" y1="0" x2="15" y2="2177"/>
			<path d="M17,1057L17,1057" tabindex="0">
				<title>00:10.57 on 2018-01-26</title>
			</path>
			<line x1="0" y1="1057" x2="2273" y2="1057"/>
			<line x1="17" y1="0" x2="17" y2="2177"/>
			<path d="M18,1052L18,1052" tabindex="0">
				<title>00:10.52 on 2018-01-27</title>
			</path>
			<line x1="0" y1="1052" x2="2273" y2="1052"/>
			<line x1="18" y1="0" x2="18" y2="2177"/>
			<path d="M29,1045L29,1045" tabindex="0">
				<title>00:10.45 on 2018-02-07</title>
			</path>
			<line x1="0" y1="1045" x2="2273" y2="1045"/>
			<line x1="29" y1="0" x2="29" y2="2177"/>
		</g>
		<g style="--index: 1;">
			<path d="M4,1506L13,1506L13,1081" tabindex="0">
				<title>5j5gggn8</title>
			</path>
			<rect x="4" y="1081" width="9" height="425"/>
			<path d="M4,1506L4,1506" tabindex="0">
				<title>00:15.06 on 2018-01-13</title>
			</path>
			<line x1="0" y1="1506" x2="2273" y2="1506"/>
			<line x1="4" y1="0" x2="4" y2="2177"/>
			<path d="M13,1081L13,1081" tabindex="0">
				<title>00:10.81 on 2018-01-22</title>
			</path>
			<line x1="0" y1="1081" x2="2273" y2="1081"/>
			<line x1="13" y1="0" x2="13" y2="2177"/>
		</g>
		<g style="--index: 2;">
			<path d="M8,1709L27,1709L27,1051" tabindex="0">
				<title>kj9kz6r8</title>
			</path>
			<rect x="8" y="1051" width="19" height="658"/>
			<path d="M8,1709L8,1709" tabindex="0">
				<title>00:17.09 on 2018-01-17</title>
			</path>
			<line x1="0" y1="1709" x2="2273" y2="1709"/>
			<line x1="8" y1="0" x2="8" y2="2177"/>
			<path d="M27,1051L27,1051" tabindex="0">
				<title>00:10.51 on 2018-02-05</title>
			</path>
			<line x1="0" y1="1051" x2="2273" y2="1051"/>
			<line x1="27" y1="0" x2="27" y2="2177"/>
		</g>
		<g style="--index: 3;">
			<path d="M9,1222" tabindex="0">
				<title>0jm3onz8</title>
			</path>
			<rect x="9" y="1222" width="0" height="0"/>
			<path d="M9,1222L9,1222" tabindex="0">
				<title>00:12.22 on 2018-01-18</title>
			</path>
			<line x1="0" y1="1222" x2="2273" y2="1222"/>
			<line x1="9" y1="0" x2="9" y2="2177"/>
		</g>
		<g style="--index: 4;">
			<path d="M17,1073L18,1073L18,1052" tabindex="0">
				<title>48grel1x</title>
			</path>
			<rect x="17" y="1052" width="1" height="21"/>
			<path d="M17,1073L17,1073" tabindex="0">
				<title>00:10.73 on 2018-01-26</title>
			</path>
			<line x1="0" y1="1073" x2="2273" y2="1073"/>
			<line x1="17" y1="0" x2="17" y2="2177"/>
			<path d="M18,1052L18,1052" tabindex="0">
				<title>00:10.52 on 2018-01-27</title>
			</path>
			<line x1="0" y1="1052" x2="2273" y2="1052"/>
			<line x1="18" y1="0" x2="18" y2="2177"/>
		</g>
		<g style="--index: 5;">
			<path d="M69,1043L93,1043L93,1018" tabindex="0">
				<title>18qg9ndx</title>
			</path>
			<rect x="69" y="1018" width="24" height="25"/>
			<path d="M69,1043L69,1043" tabindex="0">
				<title>00:10.43 on 2018-03-19</title>
			</path>
			<line x1="0" y1="1043" x2="2273" y2="1043"/>
			<line x1="69" y1="0" x2="69" y2="2177"/>
			<path d="M93,1018L93,1018" tabindex="0">
				<title>00:10.18 on 2018-04-12</title>
			</path>
			<line x1="0" y1="1018" x2="2273" y2="1018"/>
			<line x1="93" y1="0" x2="93" y2="2177"/>
		</g>
		<g style="--index: 6;">
			<path d="M69,1200" tabindex="0">
				<title>zx7eerr8</title>
			</path>
			<rect x="69" y="1200" width="0" height="0"/>
			<path d="M69,1200L69,1200" tabindex="0">
				<title>00:12.00 on 2018-03-19</title>
			</path>
			<line x1="0" y1="1200" x2="2273" y2="1200"/>
			<line x1="69" y1="0" x2="69" y2="2177"/>
		</g>
		<g style="--index: 7;">
			<path d="M82,1026L94,1026L94,986" tabindex="0">
				<title>e8e935oj</title>
			</path>
			<rect x="82" y="986" width="12" height="40"/>
			<path d="M82,1026L82,1026" tabindex="0">
				<title>00:10.26 on 2018-04-01</title>
			</path>
			<line x1="0" y1="1026" x2="2273" y2="1026"/>
			<line x1="82" y1="0" x2="82" y2="2177"/>
			<path d="M94,986L94,986" tabindex="0">
				<title>00:09.86 on 2018-04-13</title>
			</path>
			<line x1="0" y1="986" x2="2273" y2="986"/>
			<line x1="94" y1="0" x2="94" y2="2177"/>
		</g>
		<g style="--index: 8;">
			<path d="M100,985L966,985L966,923" tabindex="0">
				<title>y8dgoe98</title>
			</path>
			<rect x="100" y="923" width="866" height="62"/>
			<path d="M100,985L100,985" tabindex="0">
				<title>00:09.85 on 2018-04-19</title>
			</path>
			<line x1="0" y1="985" x2="2273" y2="985"/>
			<line x1="100" y1="0" x2="100" y2="2177"/>
			<path d="M966,923L966,923" tabindex="0">
				<title>00:09.23 on 2020-09-01</title>
			</path>
			<line x1="0" y1="923" x2="2273" y2="923"/>
			<line x1="966" y1="0" x2="966" y2="2177"/>
		</g>
		<g style="--index: 9;">
			<path d="M414,999L415,999L415,978" tabindex="0">
				<title>1xye35n8</title>
			</path>
			<rect x="414" y="978" width="1" height="21"/>
			<path d="M414,999L414,999" tabindex="0">
				<title>00:09.99 on 2019-02-27</title>
			</path>
			<line x1="0" y1="999" x2="2273" y2="999"/>
			<line x1="414" y1="0" x2="414" y2="2177"/>
			<path d="M415,978L415,978" tabindex="0">
				<title>00:09.78 on 2019-02-28</title>
			</path>
			<line x1="0" y1="978" x2="2273" y2="978"/>
			<line x1="415" y1="0" x2="415" y2="2177"/>
		</g>
		<g style="--index: 10;">
			<path d="M581,2150L1580,2150L1580,1016" tabindex="0">
				<title>j9rlkzoj</title>
			</path>
			<rect x="581" y="1016" width="999" height="1134"/>
			<path d="M581,2150L581,2150" tabindex="0">
				<title>00:21.50 on 2019-08-13</title>
			</path>
			<line x1="0" y1="2150" x2="2273" y2="2150"/>
			<line x1="581" y1="0" x2="581" y2="2177"/>
			<path d="M1580,1016L1580,1016" tabindex="0">
				<title>00:10.16 on 2022-05-08</title>
			</path>
			<line x1="0" y1="1016" x2="2273" y2="1016"/>
			<line x1="1580" y1="0" x2="1580" y2="2177"/>
		</g>
		<g style="--index: 11;">
			<path d="M641,1389L644,1389L644,1188" tabindex="0">
				<title>7j4y0zmj</title>
			</path>
			<rect x="641" y="1188" width="3" height="201"/>
			<path d="M641,1389L641,1389" tabindex="0">
				<title>00:13.89 on 2019-10-12</title>
			</path>
			<line x1="0" y1="1389" x2="2273" y2="1389"/>
			<line x1="641" y1="0" x2="641" y2="2177"/>
			<path d="M644,1188L644,1188" tabindex="0">
				<title>00:11.88 on 2019-10-15</title>
			</path>
			<line x1="0" y1="1188" x2="2273" y2="1188"/>
			<line x1="644" y1="0" x2="644" y2="2177"/>
		</g>
		<g style="--index: 12;">
			<path d="M853,967L870,967L870,936" tabindex="0">
				<title>x356nrej</title>
			</path>
			<rect x="853" y="936" width="17" height="31"/>
			<path d="M853,967L853,967" tabindex="0">
				<title>00:09.67 on 2020-05-11</title>
			</path>
			<line x1="0" y1="967" x2="2273" y2="967"/>
			<line x1="853" y1="0" x2="853" y2="2177"/>
			<path d="M870,936L870,936" tabindex="0">
				<title>00:09.36 on 2020-05-28</title>
			</path>
			<line x1="0" y1="936" x2="2273" y2="936"/>
			<line x1="870" y1="0" x2="870" y2="2177"/>
		</g>
		<g style="--index: 13;">
			<path d="M871,932" tabindex="0">
				<title>xz9mo9n8</title>
			</path>
			<rect x="871" y="932" width="0" height="0"/>
			<path d="M871,932L871,932" tabindex="0">
				<title>00:09.32 on 2020-05-29</title>
			</path>
			<line x1="0" y1="932" x2="2273" y2="932"/>
			<line x1="871" y1="0" x2="871" y2="2177"/>
		</g>
		<g style="--index: 14;">
			<path d="M1033,1103L1185,1103L1185,1006" tabindex="0">
				<title>j0np7or8</title>
			</path>
			<rect x="1033" y="1006" width="152" height="97"/>
			<path d="M1033,1103L1033,1103" tabindex="0">
				<title>00:11.03 on 2020-11-07</title>
			</path>
			<line x1="0" y1="1103" x2="2273" y2="1103"/>
			<line x1="1033" y1="0" x2="1033" y2="2177"/>
			<path d="M1185,1006L1185,1006" tabindex="0">
				<title>00:10.06 on 2021-04-08</title>
			</path>
			<line x1="0" y1="1006" x2="2273" y2="1006"/>
			<line x1="1185" y1="0" x2="1185" y2="2177"/>
		</g>
		<g style="--index: 15;">
			<path d="M1046,1017L1096,1017L1096,949" tabindex="0">
				<title>x7q00668</title>
			</path>
			<rect x="1046" y="949" width="50" height="68"/>
			<path d="M1046,1017L1046,1017" tabindex="0">
				<title>00:10.17 on 2020-11-20</title>
			</path>
			<line x1="0" y1="1017" x2="2273" y2="1017"/>
			<line x1="1046" y1="0" x2="1046" y2="2177"/>
			<path d="M1096,949L1096,949" tabindex="0">
				<title>00:09.49 on 2021-01-09</title>
			</path>
			<line x1="0" y1="949" x2="2273" y2="949"/>
			<line x1="1096" y1="0" x2="1096" y2="2177"/>
		</g>
		<g style="--index: 16;">
			<path d="M1055,919" tabindex="0">
				<title>0jmw6wex</title>
			</path>
			<rect x="1055" y="919" width="0" height="0"/>
			<path d="M1055,919L1055,919" tabindex="0">
				<title>00:09.19 on 2020-11-29</title>
			</path>
			<line x1="0" y1="919" x2="2273" y2="919"/>
			<line x1="1055" y1="0" x2="1055" y2="2177"/>
		</g>
		<g style="--index: 17;">
			<path d="M1072,1229" tabindex="0">
				<title>8en1p568</title>
			</path>
			<rect x="1072" y="1229" width="0" height="0"/>
			<path d="M1072,1229L1072,1229" tabindex="0">
				<title>00:12.29 on 2020-12-16</title>
			</path>
			<line x1="0" y1="1229" x2="2273" y2="1229"/>
			<line x1="1072" y1="0" x2="1072" y2="2177"/>
		</g>
		<g style="--index: 18;">
			<path d="M1105,1107L1106,1107L1106,960L1107,960L1107,926L1113,926L1113,916" tabindex="0">
				<title>jnzg27dj</title>
			</path>
			<rect x="1105" y="916" width="8" height="191"/>
			<path d="M1105,1107L1105,1107" tabindex="0">
				<title>00:11.07 on 2021-01-18</title>
			</path>
			<line x1="0" y1="1107" x2="2273" y2="1107"/>
			<line x1="1105" y1="0" x2="1105" y2="2177"/>
			<path d="M1106,960L1106,960" tabindex="0">
				<title>00:09.60 on 2021-01-19</title>
			</path>
			<line x1="0" y1="960" x2="2273" y2="960"/>
			<line x1="1106" y1="0" x2="1106" y2="2177"/>
			<path d="M1107,926L1107,926" tabindex="0">
				<title>00:09.26 on 2021-01-20</title>
			</path>
			<line x1="0" y1="926" x2="2273" y2="926"/>
			<line x1="1107" y1="0" x2="1107" y2="2177"/>
			<path d="M1113,916L1113,916" tabindex="0">
				<title>00:09.16 on 2021-01-26</title>
			</path>
			<line x1="0" y1="916" x2="2273" y2="916"/>
			<line x1="1113" y1="0" x2="1113" y2="2177"/>
		</g>
		<g style="--index: 19;">
			<path d="M1111,918L1114,918L1114,916L1287,916L1287,880" tabindex="0">
				<title>xkon93k8</title>
			</path>
			<rect x="1111" y="880" width="176" height="38"/>
			<path d="M1111,918L1111,918" tabindex="0">
				<title>00:09.18 on 2021-01-24</title>
			</path>
			<line x1="0" y1="918" x2="2273" y2="918"/>
			<line x1="1111" y1="0" x2="1111" y2="2177"/>
			<path d="M1114,916L1114,916" tabindex="0">
				<title>00:09.16 on 2021-01-27</title>
			</path>
			<line x1="0" y1="916" x2="2273" y2="916"/>
			<line x1="1114" y1="0" x2="1114" y2="2177"/>
			<path d="M1287,880L1287,880" tabindex="0">
				<title>00:08.80 on 2021-07-19</title>
			</path>
			<line x1="0" y1="880" x2="2273" y2="880"/>
			<line x1="1287" y1="0" x2="1287" y2="2177"/>
		</g>
		<g style="--index: 20;">
			<path d="M1140,894L1143,894L1143,883L1368,883L1368,868" tabindex="0">
				<title>j2yr9lp8</title>
			</path>
			<rect x="1140" y="868" width="228" height="26"/>
			<path d="M1140,894L1140,894" tabindex="0">
				<title>00:08.94 on 2021-02-22</title>
			</path>
			<line x1="0" y1="894" x2="2273" y2="894"/>
			<line x1="1140" y1="0" x2="1140" y2="2177"/>
			<path d="M1143,883L1143,883" tabindex="0">
				<title>00:08.83 on 2021-02-25</title>
			</path>
			<line x1="0" y1="883" x2="2273" y2="883"/>
			<line x1="1143" y1="0" x2="1143" y2="2177"/>
			<path d="M1368,868L1368,868" tabindex="0">
				<title>00:08.68 on 2021-10-08</title>
			</path>
			<line x1="0" y1="868" x2="2273" y2="868"/>
			<line x1="1368" y1="0" x2="1368" y2="2177"/>
		</g>
		<g style="--index: 21;">
			<path d="M1148,1319" tabindex="0">
				<title>8vkprm2j</title>
			</path>
			<rect x="1148" y="1319" width="0" height="0"/>
			<path d="M1148,1319L1148,1319" tabindex="0">
				<title>00:13.19 on 2021-03-02</title>
			</path>
			<line x1="0" y1="1319" x2="2273" y2="1319"/>
			<line x1="1148" y1="0" x2="1148" y2="2177"/>
		</g>
		<g style="--index: 22;">
			<path d="M1199,1241" tabindex="0">
				<title>8r7nmdgj</title>
			</path>
			<rect x="1199" y="1241" width="0" height="0"/>
			<path d="M1199,1241L1199,1241" tabindex="0">
				<title>00:12.41 on 2021-04-22</title>
			</path>
			<line x1="0" y1="1241" x2="2273" y2="1241"/>
			<line x1="1199" y1="0" x2="1199" y2="2177"/>
		</g>
		<g style="--index: 23;">
			<path d="M1202,1297" tabindex="0">
				<title>xz7qdq4j</title>
			</path>
			<rect x="1202" y="1297" width="0" height="0"/>
			<path d="M1202,1297L1202,1297" tabindex="0">
				<title>00:12.97 on 2021-04-25</title>
			</path>
			<line x1="0" y1="1297" x2="2273" y2="1297"/>
			<line x1="1202" y1="0" x2="1202" y2="2177"/>
		</g>
		<g style="--index: 24;">
			<path d="M1399,1532" tabindex="0">
				<title>x7m0llyx</title>
			</path>
			<rect x="1399" y="1532" width="0" height="0"/>
			<path d="M1399,1532L1399,1532" tabindex="0">
				<title>00:15.32 on 2021-11-08</title>
			</path>
			<line x1="0" y1="1532" x2="2273" y2="1532"/>
			<line x1="1399" y1="0" x2="1399" y2="2177"/>
		</g>
		<g style="--index: 25;">
			<path d="M1425,1453" tabindex="0">
				<title>8vo9gyyx</title>
			</path>
			<rect x="1425" y="1453" width="0" height="0"/>
			<path d="M1425,1453L1425,1453" tabindex="0">
				<title>00:14.53 on 2021-12-04</title>
			</path>
			<line x1="0" y1="1453" x2="2273" y2="1453"/>
			<line x1="1425" y1="0" x2="1425" y2="2177"/>
		</g>
		<g style="--index: 26;">
			<path d="M1428,1552" tabindex="0">
				<title>x3mn3ok8</title>
			</path>
			<rect x="1428" y="1552" width="0" height="0"/>
			<path d="M1428,1552L1428,1552" tabindex="0">
				<title>00:15.52 on 2021-12-07</title>
			</path>
			<line x1="0" y1="1552" x2="2273" y2="1552"/>
			<line x1="1428" y1="0" x2="1428" y2="2177"/>
		</g>
		<g style="--index: 27;">
			<path d="M1429,1400" tabindex="0">
				<title>x3m9d3k8</title>
			</path>
			<rect x="1429" y="1400" width="0" height="0"/>
			<path d="M1429,1400L1429,1400" tabindex="0">
				<title>00:14.00 on 2021-12-08</title>
			</path>
			<line x1="0" y1="1400" x2="2273" y2="1400"/>
			<line x1="1429" y1="0" x2="1429" y2="2177"/>
		</g>
		<g style="--index: 28;">
			<path d="M1454,985" tabindex="0">
				<title>8g5g6g1j</title>
			</path>
			<rect x="1454" y="985" width="0" height="0"/>
			<path d="M1454,985L1454,985" tabindex="0">
				<title>00:09.85 on 2022-01-02</title>
			</path>
			<line x1="0" y1="985" x2="2273" y2="985"/>
			<line x1="1454" y1="0" x2="1454" y2="2177"/>
		</g>
		<g style="--index: 29;">
			<path d="M1484,1784" tabindex="0">
				<title>j4q3e7vx</title>
			</path>
			<rect x="1484" y="1784" width="0" height="0"/>
			<path d="M1484,1784L1484,1784" tabindex="0">
				<title>00:17.84 on 2022-02-01</title>
			</path>
			<line x1="0" y1="1784" x2="2273" y2="1784"/>
			<line x1="1484" y1="0" x2="1484" y2="2177"/>
		</g>
		<g style="--index: 30;">
			<path d="M1485,1230" tabindex="0">
				<title>xkml2r6j</title>
			</path>
			<rect x="1485" y="1230" width="0" height="0"/>
			<path d="M1485,1230L1485,1230" tabindex="0">
				<title>00:12.30 on 2022-02-02</title>
			</path>
			<line x1="0" y1="1230" x2="2273" y2="1230"/>
			<line x1="1485" y1="0" x2="1485" y2="2177"/>
		</g>
		<g style="--index: 31;">
			<path d="M1513,1079" tabindex="0">
				<title>81qlgylj</title>
			</path>
			<rect x="1513" y="1079" width="0" height="0"/>
			<path d="M1513,1079L1513,1079" tabindex="0">
				<title>00:10.79 on 2022-03-02</title>
			</path>
			<line x1="0" y1="1079" x2="2273" y2="1079"/>
			<line x1="1513" y1="0" x2="1513" y2="2177"/>
		</g>
		<g style="--index: 32;">
			<path d="M1518,1266" tabindex="0">
				<title>863mv638</title>
			</path>
			<rect x="1518" y="1266" width="0" height="0"/>
			<path d="M1518,1266L1518,1266" tabindex="0">
				<title>00:12.66 on 2022-03-07</title>
			</path>
			<line x1="0" y1="1266" x2="2273" y2="1266"/>
			<line x1="1518" y1="0" x2="1518" y2="2177"/>
		</g>
		<g style="--index: 33;">
			<path d="M1537,1107L1538,1107L1538,1000" tabindex="0">
				<title>j23yz0px</title>
			</path>
			<rect x="1537" y="1000" width="1" height="107"/>
			<path d="M1537,1107L1537,1107" tabindex="0">
				<title>00:11.07 on 2022-03-26</title>
			</path>
			<line x1="0" y1="1107" x2="2273" y2="1107"/>
			<line x1="1537" y1="0" x2="1537" y2="2177"/>
			<path d="M1538,1000L1538,1000" tabindex="0">
				<title>00:10.00 on 2022-03-27</title>
			</path>
			<line x1="0" y1="1000" x2="2273" y2="1000"/>
			<line x1="1538" y1="0" x2="1538" y2="2177"/>
		</g>
		<g style="--index: 34;">
			<path d="M1553,1508" tabindex="0">
				<title>j5214nzj</title>
			</path>
			<rect x="1553" y="1508" width="0" height="0"/>
			<path d="M1553,1508L1553,1508" tabindex="0">
				<title>00:15.08 on 2022-04-11</title>
			</path>
			<line x1="0" y1="1508" x2="2273" y2="1508"/>
			<line x1="1553" y1="0" x2="1553" y2="2177"/>
		</g>
		<g style="--index: 35;">
			<path d="M1573,1390" tabindex="0">
				<title>8w99243j</title>
			</path>
			<rect x="1573" y="1390" width="0" height="0"/>
			<path d="M1573,1390L1573,1390" tabindex="0">
				<title>00:13.90 on 2022-05-01</title>
			</path>
			<line x1="0" y1="1390" x2="2273" y2="1390"/>
			<line x1="1573" y1="0" x2="1573" y2="2177"/>
		</g>
		<g style="--index: 36;">
			<path d="M1578,1302" tabindex="0">
				<title>jm3l6oo8</title>
			</path>
			<rect x="1578" y="1302" width="0" height="0"/>
			<path d="M1578,1302L1578,1302" tabindex="0">
				<title>00:13.02 on 2022-05-06</title>
			</path>
			<line x1="0" y1="1302" x2="2273" y2="1302"/>
			<line x1="1578" y1="0" x2="1578" y2="2177"/>
		</g>
		<g style="--index: 37;">
			<path d="M1582,1537" tabindex="0">
				<title>8gm02g18</title>
			</path>
			<rect x="1582" y="1537" width="0" height="0"/>
			<path d="M1582,1537L1582,1537" tabindex="0">
				<title>00:15.37 on 2022-05-10</title>
			</path>
			<line x1="0" y1="1537" x2="2273" y2="1537"/>
			<line x1="1582" y1="0" x2="1582" y2="2177"/>
		</g>
		<g style="--index: 38;">
			<path d="M1600,913" tabindex="0">
				<title>jnz0k52j</title>
			</path>
			<rect x="1600" y="913" width="0" height="0"/>
			<path d="M1600,913L1600,913" tabindex="0">
				<title>00:09.13 on 2022-05-28</title>
			</path>
			<line x1="0" y1="913" x2="2273" y2="913"/>
			<line x1="1600" y1="0" x2="1600" y2="2177"/>
		</g>
		<g style="--index: 39;">
			<path d="M1602,1482" tabindex="0">
				<title>8e645e6j</title>
			</path>
			<rect x="1602" y="1482" width="0" height="0"/>
			<path d="M1602,1482L1602,1482" tabindex="0">
				<title>00:14.82 on 2022-05-30</title>
			</path>
			<line x1="0" y1="1482" x2="2273" y2="1482"/>
			<line x1="1602" y1="0" x2="1602" y2="2177"/>
		</g>
		<g style="--index: 40;">
			<path d="M1614,1575" tabindex="0">
				<title>jm3ygn48</title>
			</path>
			<rect x="1614" y="1575" width="0" height="0"/>
			<path d="M1614,1575L1614,1575" tabindex="0">
				<title>00:15.75 on 2022-06-11</title>
			</path>
			<line x1="0" y1="1575" x2="2273" y2="1575"/>
			<line x1="1614" y1="0" x2="1614" y2="2177"/>
		</g>
		<g style="--index: 41;">
			<path d="M1641,1264" tabindex="0">
				<title>8gmvl418</title>
			</path>
			<rect x="1641" y="1264" width="0" height="0"/>
			<path d="M1641,1264L1641,1264" tabindex="0">
				<title>00:12.64 on 2022-07-08</title>
			</path>
			<line x1="0" y1="1264" x2="2273" y2="1264"/>
			<line x1="1641" y1="0" x2="1641" y2="2177"/>
		</g>
		<g style="--index: 42;">
			<path d="M1661,1299" tabindex="0">
				<title>j0grn39x</title>
			</path>
			<rect x="1661" y="1299" width="0" height="0"/>
			<path d="M1661,1299L1661,1299" tabindex="0">
				<title>00:12.99 on 2022-07-28</title>
			</path>
			<line x1="0" y1="1299" x2="2273" y2="1299"/>
			<line x1="1661" y1="0" x2="1661" y2="2177"/>
		</g>
		<g style="--index: 43;">
			<path d="M1666,1116" tabindex="0">
				<title>8gmpngr8</title>
			</path>
			<rect x="1666" y="1116" width="0" height="0"/>
			<path d="M1666,1116L1666,1116" tabindex="0">
				<title>00:11.16 on 2022-08-02</title>
			</path>
			<line x1="0" y1="1116" x2="2273" y2="1116"/>
			<line x1="1666" y1="0" x2="1666" y2="2177"/>
		</g>
		<g style="--index: 44;">
			<path d="M1683,1176L1865,1176L1865,1100" tabindex="0">
				<title>jnp37d18</title>
			</path>
			<rect x="1683" y="1100" width="182" height="76"/>
			<path d="M1683,1176L1683,1176" tabindex="0">
				<title>00:11.76 on 2022-08-19</title>
			</path>
			<line x1="0" y1="1176" x2="2273" y2="1176"/>
			<line x1="1683" y1="0" x2="1683" y2="2177"/>
			<path d="M1865,1100L1865,1100" tabindex="0">
				<title>00:11.00 on 2023-02-17</title>
			</path>
			<line x1="0" y1="1100" x2="2273" y2="1100"/>
			<line x1="1865" y1="0" x2="1865" y2="2177"/>
		</g>
		<g style="--index: 45;">
			<path d="M1704,1928" tabindex="0">
				<title>8d0gvnmx</title>
			</path>
			<rect x="1704" y="1928" width="0" height="0"/>
			<path d="M1704,1928L1704,1928" tabindex="0">
				<title>00:19.28 on 2022-09-09</title>
			</path>
			<line x1="0" y1="1928" x2="2273" y2="1928"/>
			<line x1="1704" y1="0" x2="1704" y2="2177"/>
		</g>
		<g style="--index: 46;">
			<path d="M1706,1109" tabindex="0">
				<title>xk1oze6j</title>
			</path>
			<rect x="1706" y="1109" width="0" height="0"/>
			<path d="M1706,1109L1706,1109" tabindex="0">
				<title>00:11.09 on 2022-09-11</title>
			</path>
			<line x1="0" y1="1109" x2="2273" y2="1109"/>
			<line x1="1706" y1="0" x2="1706" y2="2177"/>
		</g>
		<g style="--index: 47;">
			<path d="M1710,1137" tabindex="0">
				<title>x766z2rj</title>
			</path>
			<rect x="1710" y="1137" width="0" height="0"/>
			<path d="M1710,1137L1710,1137" tabindex="0">
				<title>00:11.37 on 2022-09-15</title>
			</path>
			<line x1="0" y1="1137" x2="2273" y2="1137"/>
			<line x1="1710" y1="0" x2="1710" y2="2177"/>
		</g>
		<g style="--index: 48;">
			<path d="M1772,1245" tabindex="0">
				<title>8ewg6np8</title>
			</path>
			<rect x="1772" y="1245" width="0" height="0"/>
			<path d="M1772,1245L1772,1245" tabindex="0">
				<title>00:12.45 on 2022-11-16</title>
			</path>
			<line x1="0" y1="1245" x2="2273" y2="1245"/>
			<line x1="1772" y1="0" x2="1772" y2="2177"/>
		</g>
		<g style="--index: 49;">
			<path d="M1778,1106L1807,1106L1807,1057" tabindex="0">
				<title>jm3y0go8</title>
			</path>
			<rect x="1778" y="1057" width="29" height="49"/>
			<path d="M1778,1106L1778,1106" tabindex="0">
				<title>00:11.06 on 2022-11-22</title>
			</path>
			<line x1="0" y1="1106" x2="2273" y2="1106"/>
			<line x1="1778" y1="0" x2="1778" y2="2177"/>
			<path d="M1807,1057L1807,1057" tabindex="0">
				<title>00:10.57 on 2022-12-21</title>
			</path>
			<line x1="0" y1="1057" x2="2273" y2="1057"/>
			<line x1="1807" y1="0" x2="1807" y2="2177"/>
		</g>
		<g style="--index: 50;">
			<path d="M1842,1592" tabindex="0">
				<title>8ewm6dd8</title>
			</path>
			<rect x="1842" y="1592" width="0" height="0"/>
			<path d="M1842,1592L1842,1592" tabindex="0">
				<title>00:15.92 on 2023-01-25</title>
			</path>
			<line x1="0" y1="1592" x2="2273" y2="1592"/>
			<line x1="1842" y1="0" x2="1842" y2="2177"/>
		</g>
		<g style="--index: 51;">
			<path d="M1887,1163" tabindex="0">
				<title>jp6e4l58</title>
			</path>
			<rect x="1887" y="1163" width="0" height="0"/>
			<path d="M1887,1163L1887,1163" tabindex="0">
				<title>00:11.63 on 2023-03-11</title>
			</path>
			<line x1="0" y1="1163" x2="2273" y2="1163"/>
			<line x1="1887" y1="0" x2="1887" y2="2177"/>
		</g>
		<g style="--index: 52;">
			<path d="M1892,851L1950,851L1950,814L1983,814L1983,810" tabindex="0">
				<title>jn2m23wj</title>
			</path>
			<rect x="1892" y="810" width="91" height="41"/>
			<path d="M1892,851L1892,851" tabindex="0">
				<title>00:08.51 on 2023-03-16</title>
			</path>
			<line x1="0" y1="851" x2="2273" y2="851"/>
			<line x1="1892" y1="0" x2="1892" y2="2177"/>
			<path d="M1950,814L1950,814" tabindex="0">
				<title>00:08.14 on 2023-05-13</title>
			</path>
			<line x1="0" y1="814" x2="2273" y2="814"/>
			<line x1="1950" y1="0" x2="1950" y2="2177"/>
			<path d="M1983,810L1983,810" tabindex="0">
				<title>00:08.10 on 2023-06-15</title>
			</path>
			<line x1="0" y1="810" x2="2273" y2="810"/>
			<line x1="1983" y1="0" x2="1983" y2="2177"/>
		</g>
		<g style="--index: 53;">
			<path d="M1895,1104" tabindex="0">
				<title>x7w44nr8</title>
			</path>
			<rect x="1895" y="1104" width="0" height="0"/>
			<path d="M1895,1104L1895,1104" tabindex="0">
				<title>00:11.04 on 2023-03-19</title>
			</path>
			<line x1="0" y1="1104" x2="2273" y2="1104"/>
			<line x1="1895" y1="0" x2="1895" y2="2177"/>
		</g>
		<g style="--index: 54;">
			<path d="M1897,1333" tabindex="0">
				<title>810z203x</title>
			</path>
			<rect x="1897" y="1333" width="0" height="0"/>
			<path d="M1897,1333L1897,1333" tabindex="0">
				<title>00:13.33 on 2023-03-21</title>
			</path>
			<line x1="0" y1="1333" x2="2273" y2="1333"/>
			<line x1="1897" y1="0" x2="1897" y2="2177"/>
		</g>
		<g style="--index: 55;">
			<path d="M1908,1292" tabindex="0">
				<title>j20g1oox</title>
			</path>
			<rect x="1908" y="1292" width="0" height="0"/>
			<path d="M1908,1292L1908,1292" tabindex="0">
				<title>00:12.92 on 2023-04-01</title>
			</path>
			<line x1="0" y1="1292" x2="2273" y2="1292"/>
			<line x1="1908" y1="0" x2="1908" y2="2177"/>
		</g>
		<g style="--index: 56;">
			<path d="M1908,1701" tabindex="0">
				<title>8ewvzpd8</title>
			</path>
			<rect x="1908" y="1701" width="0" height="0"/>
			<path d="M1908,1701L1908,1701" tabindex="0">
				<title>00:17.01 on 2023-04-01</title>
			</path>
			<line x1="0" y1="1701" x2="2273" y2="1701"/>
			<line x1="1908" y1="0" x2="1908" y2="2177"/>
		</g>
		<g style="--index: 57;">
			<path d="M1908,2177" tabindex="0">
				<title>jmz90o4x</title>
			</path>
			<rect x="1908" y="2177" width="0" height="0"/>
			<path d="M1908,2177L1908,2177" tabindex="0">
				<title>00:21.77 on 2023-04-01</title>
			</path>
			<line x1="0" y1="2177" x2="2273" y2="2177"/>
			<line x1="1908" y1="0" x2="1908" y2="2177"/>
		</g>
		<g style="--index: 58;">
			<path d="M1937,1286" tabindex="0">
				<title>x76nqwrj</title>
			</path>
			<rect x="1937" y="1286" width="0" height="0"/>
			<path d="M1937,1286L1937,1286" tabindex="0">
				<title>00:12.86 on 2023-04-30</title>
			</path>
			<line x1="0" y1="1286" x2="2273" y2="1286"/>
			<line x1="1937" y1="0" x2="1937" y2="2177"/>
		</g>
		<g style="--index: 59;">
			<path d="M1946,1403" tabindex="0">
				<title>x72n4768</title>
			</path>
			<rect x="1946" y="1403" width="0" height="0"/>
			<path d="M1946,1403L1946,1403" tabindex="0">
				<title>00:14.03 on 2023-05-09</title>
			</path>
			<line x1="0" y1="1403" x2="2273" y2="1403"/>
			<line x1="1946" y1="0" x2="1946" y2="2177"/>
		</g>
		<g style="--index: 60;">
			<path d="M1948,1359" tabindex="0">
				<title>j5qyodzj</title>
			</path>
			<rect x="1948" y="1359" width="0" height="0"/>
			<path d="M1948,1359L1948,1359" tabindex="0">
				<title>00:13.59 on 2023-05-11</title>
			</path>
			<line x1="0" y1="1359" x2="2273" y2="1359"/>
			<line x1="1948" y1="0" x2="1948" y2="2177"/>
		</g>
		<g style="--index: 61;">
			<path d="M1951,1240" tabindex="0">
				<title>xk1wl26j</title>
			</path>
			<rect x="1951" y="1240" width="0" height="0"/>
			<path d="M1951,1240L1951,1240" tabindex="0">
				<title>00:12.40 on 2023-05-14</title>
			</path>
			<line x1="0" y1="1240" x2="2273" y2="1240"/>
			<line x1="1951" y1="0" x2="1951" y2="2177"/>
		</g>
		<g style="--index: 62;">
			<path d="M1965,1648" tabindex="0">
				<title>jmzn974x</title>
			</path>
			<rect x="1965" y="1648" width="0" height="0"/>
			<path d="M1965,1648L1965,1648" tabindex="0">
				<title>00:16.48 on 2023-05-28</title>
			</path>
			<line x1="0" y1="1648" x2="2273" y2="1648"/>
			<line x1="1965" y1="0" x2="1965" y2="2177"/>
		</g>
		<g style="--index: 63;">
			<path d="M1965,1293" tabindex="0">
				<title>x76vr3vj</title>
			</path>
			<rect x="1965" y="1293" width="0" height="0"/>
			<path d="M1965,1293L1965,1293" tabindex="0">
				<title>00:12.93 on 2023-05-28</title>
			</path>
			<line x1="0" y1="1293" x2="2273" y2="1293"/>
			<line x1="1965" y1="0" x2="1965" y2="2177"/>
		</g>
		<g style="--index: 64;">
			<path d="M1971,1413L1981,1413L1981,1038L2004,1038L2004,978" tabindex="0">
				<title>8v21onej</title>
			</path>
			<rect x="1971" y="978" width="33" height="435"/>
			<path d="M1971,1413L1971,1413" tabindex="0">
				<title>00:14.13 on 2023-06-03</title>
			</path>
			<line x1="0" y1="1413" x2="2273" y2="1413"/>
			<line x1="1971" y1="0" x2="1971" y2="2177"/>
			<path d="M1981,1038L1981,1038" tabindex="0">
				<title>00:10.38 on 2023-06-13</title>
			</path>
			<line x1="0" y1="1038" x2="2273" y2="1038"/>
			<line x1="1981" y1="0" x2="1981" y2="2177"/>
			<path d="M2004,978L2004,978" tabindex="0">
				<title>00:09.78 on 2023-07-06</title>
			</path>
			<line x1="0" y1="978" x2="2273" y2="978"/>
			<line x1="2004" y1="0" x2="2004" y2="2177"/>
		</g>
		<g style="--index: 65;">
			<path d="M1979,1437" tabindex="0">
				<title>864o0kqj</title>
			</path>
			<rect x="1979" y="1437" width="0" height="0"/>
			<path d="M1979,1437L1979,1437" tabindex="0">
				<title>00:14.37 on 2023-06-11</title>
			</path>
			<line x1="0" y1="1437" x2="2273" y2="1437"/>
			<line x1="1979" y1="0" x2="1979" y2="2177"/>
		</g>
		<g style="--index: 66;">
			<path d="M1990,1347" tabindex="0">
				<title>j06yo5wj</title>
			</path>
			<rect x="1990" y="1347" width="0" height="0"/>
			<path d="M1990,1347L1990,1347" tabindex="0">
				<title>00:13.47 on 2023-06-22</title>
			</path>
			<line x1="0" y1="1347" x2="2273" y2="1347"/>
			<line x1="1990" y1="0" x2="1990" y2="2177"/>
		</g>
		<g style="--index: 67;">
			<path d="M2009,1365" tabindex="0">
				<title>j9k252w8</title>
			</path>
			<rect x="2009" y="1365" width="0" height="0"/>
			<path d="M2009,1365L2009,1365" tabindex="0">
				<title>00:13.65 on 2023-07-11</title>
			</path>
			<line x1="0" y1="1365" x2="2273" y2="1365"/>
			<line x1="2009" y1="0" x2="2009" y2="2177"/>
		</g>
		<g style="--index: 68;">
			<path d="M2017,1106" tabindex="0">
				<title>xkpo50kj</title>
			</path>
			<rect x="2017" y="1106" width="0" height="0"/>
			<path d="M2017,1106L2017,1106" tabindex="0">
				<title>00:11.06 on 2023-07-19</title>
			</path>
			<line x1="0" y1="1106" x2="2273" y2="1106"/>
			<line x1="2017" y1="0" x2="2017" y2="2177"/>
		</g>
		<g style="--index: 69;">
			<path d="M2021,1500" tabindex="0">
				<title>8q57o978</title>
			</path>
			<rect x="2021" y="1500" width="0" height="0"/>
			<path d="M2021,1500L2021,1500" tabindex="0">
				<title>00:15.00 on 2023-07-23</title>
			</path>
			<line x1="0" y1="1500" x2="2273" y2="1500"/>
			<line x1="2021" y1="0" x2="2021" y2="2177"/>
		</g>
		<g style="--index: 70;">
			<path d="M2021,1464" tabindex="0">
				<title>xk136v6j</title>
			</path>
			<rect x="2021" y="1464" width="0" height="0"/>
			<path d="M2021,1464L2021,1464" tabindex="0">
				<title>00:14.64 on 2023-07-23</title>
			</path>
			<line x1="0" y1="1464" x2="2273" y2="1464"/>
			<line x1="2021" y1="0" x2="2021" y2="2177"/>
		</g>
		<g style="--index: 71;">
			<path d="M2034,1103" tabindex="0">
				<title>jm7lpgoj</title>
			</path>
			<rect x="2034" y="1103" width="0" height="0"/>
			<path d="M2034,1103L2034,1103" tabindex="0">
				<title>00:11.03 on 2023-08-05</title>
			</path>
			<line x1="0" y1="1103" x2="2273" y2="1103"/>
			<line x1="2034" y1="0" x2="2034" y2="2177"/>
		</g>
		<g style="--index: 72;">
			<path d="M2037,1071" tabindex="0">
				<title>xyqlkgy8</title>
			</path>
			<rect x="2037" y="1071" width="0" height="0"/>
			<path d="M2037,1071L2037,1071" tabindex="0">
				<title>00:10.71 on 2023-08-08</title>
			</path>
			<line x1="0" y1="1071" x2="2273" y2="1071"/>
			<line x1="2037" y1="0" x2="2037" y2="2177"/>
		</g>
		<g style="--index: 73;">
			<path d="M2043,2014" tabindex="0">
				<title>jon6e378</title>
			</path>
			<rect x="2043" y="2014" width="0" height="0"/>
			<path d="M2043,2014L2043,2014" tabindex="0">
				<title>00:20.14 on 2023-08-14</title>
			</path>
			<line x1="0" y1="2014" x2="2273" y2="2014"/>
			<line x1="2043" y1="0" x2="2043" y2="2177"/>
		</g>
		<g style="--index: 74;">
			<path d="M2049,1494" tabindex="0">
				<title>8rm3p63j</title>
			</path>
			<rect x="2049" y="1494" width="0" height="0"/>
			<path d="M2049,1494L2049,1494" tabindex="0">
				<title>00:14.94 on 2023-08-20</title>
			</path>
			<line x1="0" y1="1494" x2="2273" y2="1494"/>
			<line x1="2049" y1="0" x2="2049" y2="2177"/>
		</g>
		<g style="--index: 75;">
			<path d="M2054,1116" tabindex="0">
				<title>jng34ld8</title>
			</path>
			<rect x="2054" y="1116" width="0" height="0"/>
			<path d="M2054,1116L2054,1116" tabindex="0">
				<title>00:11.16 on 2023-08-25</title>
			</path>
			<line x1="0" y1="1116" x2="2273" y2="1116"/>
			<line x1="2054" y1="0" x2="2054" y2="2177"/>
		</g>
		<g style="--index: 76;">
			<path d="M2084,974" tabindex="0">
				<title>j2qq3mlj</title>
			</path>
			<rect x="2084" y="974" width="0" height="0"/>
			<path d="M2084,974L2084,974" tabindex="0">
				<title>00:09.74 on 2023-09-24</title>
			</path>
			<line x1="0" y1="974" x2="2273" y2="974"/>
			<line x1="2084" y1="0" x2="2084" y2="2177"/>
		</g>
		<g style="--index: 77;">
			<path d="M2097,1565" tabindex="0">
				<title>jpyz4k4j</title>
			</path>
			<rect x="2097" y="1565" width="0" height="0"/>
			<path d="M2097,1565L2097,1565" tabindex="0">
				<title>00:15.65 on 2023-10-07</title>
			</path>
			<line x1="0" y1="1565" x2="2273" y2="1565"/>
			<line x1="2097" y1="0" x2="2097" y2="2177"/>
		</g>
		<g style="--index: 78;">
			<path d="M2098,1618" tabindex="0">
				<title>xz0yo5r8</title>
			</path>
			<rect x="2098" y="1618" width="0" height="0"/>
			<path d="M2098,1618L2098,1618" tabindex="0">
				<title>00:16.18 on 2023-10-08</title>
			</path>
			<line x1="0" y1="1618" x2="2273" y2="1618"/>
			<line x1="2098" y1="0" x2="2098" y2="2177"/>
		</g>
		<g style="--index: 79;">
			<path d="M2101,916" tabindex="0">
				<title>8w045k3j</title>
			</path>
			<rect x="2101" y="916" width="0" height="0"/>
			<path d="M2101,916L2101,916" tabindex="0">
				<title>00:09.16 on 2023-10-11</title>
			</path>
			<line x1="0" y1="916" x2="2273" y2="916"/>
			<line x1="2101" y1="0" x2="2101" y2="2177"/>
		</g>
		<g style="--index: 80;">
			<path d="M2107,1183" tabindex="0">
				<title>xyqkv0m8</title>
			</path>
			<rect x="2107" y="1183" width="0" height="0"/>
			<path d="M2107,1183L2107,1183" tabindex="0">
				<title>00:11.83 on 2023-10-17</title>
			</path>
			<line x1="0" y1="1183" x2="2273" y2="1183"/>
			<line x1="2107" y1="0" x2="2107" y2="2177"/>
		</g>
		<g style="--index: 81;">
			<path d="M2160,1565L2220,1565L2220,1019" tabindex="0">
				<title>8w3l21qj</title>
			</path>
			<rect x="2160" y="1019" width="60" height="546"/>
			<path d="M2160,1565L2160,1565" tabindex="0">
				<title>00:15.65 on 2023-12-09</title>
			</path>
			<line x1="0" y1="1565" x2="2273" y2="1565"/>
			<line x1="2160" y1="0" x2="2160" y2="2177"/>
			<path d="M2220,1019L2220,1019" tabindex="0">
				<title>00:10.19 on 2024-02-07</title>
			</path>
			<line x1="0" y1="1019" x2="2273" y2="1019"/>
			<line x1="2220" y1="0" x2="2220" y2="2177"/>
		</g>
		<g style="--index: 82;">
			<path d="M2164,1038" tabindex="0">
				<title>xz2o4k9x</title>
			</path>
			<rect x="2164" y="1038" width="0" height="0"/>
			<path d="M2164,1038L2164,1038" tabindex="0">
				<title>00:10.38 on 2023-12-13</title>
			</path>
			<line x1="0" y1="1038" x2="2273" y2="1038"/>
			<line x1="2164" y1="0" x2="2164" y2="2177"/>
		</g>
		<g style="--index: 83;">
			<path d="M2215,1166" tabindex="0">
				<title>81mov058</title>
			</path>
			<rect x="2215" y="1166" width="0" height="0"/>
			<path d="M2215,1166L2215,1166" tabindex="0">
				<title>00:11.66 on 2024-02-02</title>
			</path>
			<line x1="0" y1="1166" x2="2273" y2="1166"/>
			<line x1="2215" y1="0" x2="2215" y2="2177"/>
		</g>
		<g style="--index: 84;">
			<path d="M2216,1347" tabindex="0">
				<title>jngvqz28</title>
			</path>
			<rect x="2216" y="1347" width="0" height="0"/>
			<path d="M2216,1347L2216,1347" tabindex="0">
				<title>00:13.47 on 2024-02-03</title>
			</path>
			<line x1="0" y1="1347" x2="2273" y2="1347"/>
			<line x1="2216" y1="0" x2="2216" y2="2177"/>
		</g>
		<g style="--index: 85;">
			<path d="M2218,1045" tabindex="0">
				<title>8rm563gj</title>
			</path>
			<rect x="2218" y="1045" width="0" height="0"/>
			<path d="M2218,1045L2218,1045" tabindex="0">
				<title>00:10.45 on 2024-02-05</title>
			</path>
			<line x1="0" y1="1045" x2="2273" y2="1045"/>
			<line x1="2218" y1="0" x2="2218" y2="2177"/>
		</g>
		<g style="--index: 86;">
			<path d="M2219,1450" tabindex="0">
				<title>xkpvey7j</title>
			</path>
			<rect x="2219" y="1450" width="0" height="0"/>
			<path d="M2219,1450L2219,1450" tabindex="0">
				<title>00:14.50 on 2024-02-06</title>
			</path>
			<line x1="0" y1="1450" x2="2273" y2="1450"/>
			<line x1="2219" y1="0" x2="2219" y2="2177"/>
		</g>
		<g style="--index: 87;">
			<path d="M2239,1473" tabindex="0">
				<title>jm7m6rej</title>
			</path>
			<rect x="2239" y="1473" width="0" height="0"/>
			<path d="M2239,1473L2239,1473" tabindex="0">
				<title>00:14.73 on 2024-02-26</title>
			</path>
			<line x1="0" y1="1473" x2="2273" y2="1473"/>
			<line x1="2239" y1="0" x2="2239" y2="2177"/>
		</g>
		<g style="--index: 88;">
			<path d="M2261,1336" tabindex="0">
				<title>86rz9rw8</title>
			</path>
			<rect x="2261" y="1336" width="0" height="0"/>
			<path d="M2261,1336L2261,1336" tabindex="0">
				<title>00:13.36 on 2024-03-19</title>
			</path>
			<line x1="0" y1="1336" x2="2273" y2="1336"/>
			<line x1="2261" y1="0" x2="2261" y2="2177"/>
		</g>
		<g style="--index: 89;">
			<path d="M2267,1437" tabindex="0">
				<title>8dp2w958</title>
			</path>
			<rect x="2267" y="1437" width="0" height="0"/>
			<path d="M2267,1437L2267,1437" tabindex="0">
				<title>00:14.37 on 2024-03-25</title>
			</path>
			<line x1="0" y1="1437" x2="2273" y2="1437"/>
			<line x1="2267" y1="0" x2="2267" y2="2177"/>
		</g>
		<g style="--index: 90;">
			<path d="M2273,1378" tabindex="0">
				<title>jpy07v2j</title>
			</path>
			<rect x="2273" y="1378" width="0" height="0"/>
			<path d="M2273,1378L2273,1378" tabindex="0">
				<title>00:13.78 on 2024-03-31</title>
			</path>
			<line x1="0" y1="1378" x2="2273" y2="1378"/>
			<line x1="2273" y1="0" x2="2273" y2="2177"/>
		</g>
	</g>
</svg>
