<svg xmlns="http://www.w3.org/2000/svg" viewBox="0 0 1137 4590" preserveAspectRatio="none" lang="en" style="color-scheme: dark light;">
		<title>Time by player for leaderboard l_r9gnozkd-rkl3znrk-wledz9en.zqop6rp1</title>
		<style>
			svg {
				background: var(--canvas-background);
				fill: var(--canvas-background);
				stroke: var(--canvas-foreground);
				stroke-linejoin: round;
				stroke-linecap: round;
			}
			g &gt; path[tabindex] {
				vector-effect: non-scaling-stroke;
				fill: none;
				stroke: hsl(calc(var(--index) / var(--count) * 360), 50%, 50%);
				cursor: help;
			}
			g:is(:hover, :focus-within) &gt; path[tabindex] {
				stroke: var(--canvas-foreground);
			}
			g &gt; path[tabindex]:is(:hover, :focus-within) {
				outline: 0;
			}
			g &gt; path[tabindex]:first-of-type {
				stroke-width: 2;
			}
			g &gt; path[tabindex]:first-of-type:is(:hover, :focus-within) {
				stroke-width: 4;
			}
			g &gt; path[tabindex]:first-of-type:not(:last-of-type) {
				stroke-dasharray: 4 8;
			}
			g &gt; rect {
				vector-effect: non-scaling-stroke;
				fill: none;
				stroke: none;
				pointer-events: none;
			}
			g &gt; path[tabindex]:first-of-type:is(:hover, :focus-within) + rect {
				fill: var(--highlighted);
			}
			g &gt; path[tabindex]:first-of-type ~ path[tabindex] {
				stroke-width: 8;
			}
			g &gt; path[tabindex]:first-of-type ~ path[tabindex]:is(:hover, :focus-within) {
				stroke-width: 16;
			}
			g &gt; line {
				vector-effect: non-scaling-stroke;
				fill: none;
				stroke: none;
				stroke-width: 2;
				stroke-dasharray: 4 8;
				pointer-events: none;
			}
			g &gt; path[tabindex]:first-of-type:is(:hover, :focus-within) + rect + path[tabindex] + line,
			g &gt; path[tabindex]:first-of-type:is(:hover, :focus-within) + rect + path[tabindex] + line + line,
			g &gt; path[tabindex]:first-of-type:is(:hover, :focus-within) ~ path[tabindex]:last-of-type + line,
			g &gt; path[tabindex]:first-of-type:is(:hover, :focus-within) ~ path[tabindex]:last-of-type + line + line,
			g &gt; path[tabindex]:first-of-type ~ path[tabindex]:is(:hover, :focus-within) + line,
			g &gt; path[tabindex]:first-of-type ~ path[tabindex]:is(:hover, :focus-within) + line + line {
				stroke: var(--faded);
			}
			@media (prefers-color-scheme: dark) {
				:root {
					--canvas-background: #000;
					--canvas-foreground: #ccc;
					--highlighted: #6663;
					--faded: #9993;
				}
			}
			@media (prefers-color-scheme: light) {
				:root {
					--canvas-background: #fff;
					--canvas-foreground: #333;
					--highlighted: #9993;
					--faded: #6663;
				}
			}
		</style>
		<g style="--count: 7;">
		<g style="--index: 0;">
			<path d="M0,893" tabindex="0">
				<title>x356nrej</title>
			</path>
			<rect x="0" y="893" width="0" height="0"/>
			<path d="M0,893L0,893" tabindex="0">
				<title>00:36.97 on 2020-10-28</title>
			</path>
			<line x1="0" y1="893" x2="1137" y2="893"/>
			<line x1="0" y1="4590" x2="0" y2="0"/>
		</g>
		<g style="--index: 1;">
			<path d="M23,1361L119,1361L119,1406" tabindex="0">
				<title>j2yr9lp8</title>
			</path>
			<rect x="23" y="1361" width="96" height="45"/>
			<path d="M23,1361L23,1361" tabindex="0">
				<title>00:32.29 on 2020-11-20</title>
			</path>
			<line x1="0" y1="1361" x2="1137" y2="1361"/>
			<line x1="23" y1="4590" x2="23" y2="0"/>
			<path d="M119,1406L119,1406" tabindex="0">
				<title>00:31.84 on 2021-02-24</title>
			</path>
			<line x1="0" y1="1406" x2="1137" y2="1406"/>
			<line x1="119" y1="4590" x2="119" y2="0"/>
		</g>
		<g style="--index: 2;">
			<path d="M86,0" tabindex="0">
				<title>j0np7or8</title>
			</path>
			<rect x="86" y="0" width="0" height="0"/>
			<path d="M86,0L86,0" tabindex="0">
				<title>00:45.90 on 2021-01-22</title>
			</path>
			<line x1="0" y1="0" x2="1137" y2="0"/>
			<line x1="86" y1="4590" x2="86" y2="0"/>
		</g>
		<g style="--index: 3;">
			<path d="M283,1301" tabindex="0">
				<title>x7q00668</title>
			</path>
			<rect x="283" y="1301" width="0" height="0"/>
			<path d="M283,1301L283,1301" tabindex="0">
				<title>00:32.89 on 2021-08-07</title>
			</path>
			<line x1="0" y1="1301" x2="1137" y2="1301"/>
			<line x1="283" y1="4590" x2="283" y2="0"/>
		</g>
		<g style="--index: 4;">
			<path d="M316,806" tabindex="0">
				<title>j9rlkzoj</title>
			</path>
			<rect x="316" y="806" width="0" height="0"/>
			<path d="M316,806L316,806" tabindex="0">
				<title>00:37.84 on 2021-09-09</title>
			</path>
			<line x1="0" y1="806" x2="1137" y2="806"/>
			<line x1="316" y1="4590" x2="316" y2="0"/>
		</g>
		<g style="--index: 5;">
			<path d="M900,1490" tabindex="0">
				<title>jn2m23wj</title>
			</path>
			<rect x="900" y="1490" width="0" height="0"/>
			<path d="M900,1490L900,1490" tabindex="0">
				<title>00:31.00 on 2023-04-16</title>
			</path>
			<line x1="0" y1="1490" x2="1137" y2="1490"/>
			<line x1="900" y1="4590" x2="900" y2="0"/>
		</g>
		<g style="--index: 6;">
			<path d="M1137,317" tabindex="0">
				<title>8w3l21qj</title>
			</path>
			<rect x="1137" y="317" width="0" height="0"/>
			<path d="M1137,317L1137,317" tabindex="0">
				<title>00:42.73 on 2023-12-09</title>
			</path>
			<line x1="0" y1="317" x2="1137" y2="317"/>
			<line x1="1137" y1="4590" x2="1137" y2="0"/>
		</g>
	</g>
</svg>
