<svg xmlns="http://www.w3.org/2000/svg" viewBox="0 0 1855 58976" preserveAspectRatio="none" lang="en" style="color-scheme: dark light;">
		<title>Time by player for leaderboard l_r9gn1qpd-xd144xwd</title>
		<style>
			svg {
				background: var(--canvas-background);
				fill: var(--canvas-background);
				stroke: var(--canvas-foreground);
				stroke-linejoin: round;
				stroke-linecap: round;
			}
			g &gt; path[tabindex] {
				vector-effect: non-scaling-stroke;
				fill: none;
				stroke: hsl(calc(var(--index) / var(--count) * 360), 50%, 50%);
				cursor: help;
			}
			g:is(:hover, :focus-within) &gt; path[tabindex] {
				stroke: var(--canvas-foreground);
			}
			g &gt; path[tabindex]:is(:hover, :focus-within) {
				outline: 0;
			}
			g &gt; path[tabindex]:first-of-type {
				stroke-width: 2;
			}
			g &gt; path[tabindex]:first-of-type:is(:hover, :focus-within) {
				stroke-width: 4;
			}
			g &gt; path[tabindex]:first-of-type:not(:last-of-type) {
				stroke-dasharray: 4 8;
			}
			g &gt; rect {
				vector-effect: non-scaling-stroke;
				fill: none;
				stroke: none;
				pointer-events: none;
			}
			g &gt; path[tabindex]:first-of-type:is(:hover, :focus-within) + rect {
				fill: var(--highlighted);
			}
			g &gt; path[tabindex]:first-of-type ~ path[tabindex] {
				stroke-width: 8;
			}
			g &gt; path[tabindex]:first-of-type ~ path[tabindex]:is(:hover, :focus-within) {
				stroke-width: 16;
			}
			g &gt; line {
				vector-effect: non-scaling-stroke;
				fill: none;
				stroke: none;
				stroke-width: 2;
				stroke-dasharray: 4 8;
				pointer-events: none;
			}
			g &gt; path[tabindex]:first-of-type:is(:hover, :focus-within) + rect + path[tabindex] + line,
			g &gt; path[tabindex]:first-of-type:is(:hover, :focus-within) + rect + path[tabindex] + line + line,
			g &gt; path[tabindex]:first-of-type:is(:hover, :focus-within) ~ path[tabindex]:last-of-type + line,
			g &gt; path[tabindex]:first-of-type:is(:hover, :focus-within) ~ path[tabindex]:last-of-type + line + line,
			g &gt; path[tabindex]:first-of-type ~ path[tabindex]:is(:hover, :focus-within) + line,
			g &gt; path[tabindex]:first-of-type ~ path[tabindex]:is(:hover, :focus-within) + line + line {
				stroke: var(--faded);
			}
			@media (prefers-color-scheme: dark) {
				:root {
					--canvas-background: #000;
					--canvas-foreground: #ccc;
					--highlighted: #6663;
					--faded: #9993;
				}
			}
			@media (prefers-color-scheme: light) {
				:root {
					--canvas-background: #fff;
					--canvas-foreground: #333;
					--highlighted: #9993;
					--faded: #6663;
				}
			}
		</style>
		<g transform="scale(1 -1)" transform-origin="center center" style="--count: 12;">
		<g style="--index: 0;">
			<path d="M0,40285L1,40285L1,39898" tabindex="0">
				<title>qj2pq1p8</title>
			</path>
			<rect x="0" y="39898" width="1" height="387"/>
			<path d="M0,40285L0,40285" tabindex="0">
				<title>06:42.85 on 2019-02-28</title>
			</path>
			<line x1="0" y1="40285" x2="1855" y2="40285"/>
			<line x1="0" y1="0" x2="0" y2="58976"/>
			<path d="M1,39898L1,39898" tabindex="0">
				<title>06:38.98 on 2019-03-01</title>
			</path>
			<line x1="0" y1="39898" x2="1855" y2="39898"/>
			<line x1="1" y1="0" x2="1" y2="58976"/>
		</g>
		<g style="--index: 1;">
			<path d="M479,26260" tabindex="0">
				<title>qjo6dp0j</title>
			</path>
			<rect x="479" y="26260" width="0" height="0"/>
			<path d="M479,26260L479,26260" tabindex="0">
				<title>04:22.60 on 2020-06-21</title>
			</path>
			<line x1="0" y1="26260" x2="1855" y2="26260"/>
			<line x1="479" y1="0" x2="479" y2="58976"/>
		</g>
		<g style="--index: 2;">
			<path d="M638,25152" tabindex="0">
				<title>0jmw6wex</title>
			</path>
			<rect x="638" y="25152" width="0" height="0"/>
			<path d="M638,25152L638,25152" tabindex="0">
				<title>04:11.52 on 2020-11-27</title>
			</path>
			<line x1="0" y1="25152" x2="1855" y2="25152"/>
			<line x1="638" y1="0" x2="638" y2="58976"/>
		</g>
		<g style="--index: 3;">
			<path d="M674,36491" tabindex="0">
				<title>j0np7or8</title>
			</path>
			<rect x="674" y="36491" width="0" height="0"/>
			<path d="M674,36491L674,36491" tabindex="0">
				<title>06:04.91 on 2021-01-02</title>
			</path>
			<line x1="0" y1="36491" x2="1855" y2="36491"/>
			<line x1="674" y1="0" x2="674" y2="58976"/>
		</g>
		<g style="--index: 4;">
			<path d="M690,23046" tabindex="0">
				<title>814zn7l8</title>
			</path>
			<rect x="690" y="23046" width="0" height="0"/>
			<path d="M690,23046L690,23046" tabindex="0">
				<title>03:50.46 on 2021-01-18</title>
			</path>
			<line x1="0" y1="23046" x2="1855" y2="23046"/>
			<line x1="690" y1="0" x2="690" y2="58976"/>
		</g>
		<g style="--index: 5;">
			<path d="M700,22778L1564,22778L1564,20095" tabindex="0">
				<title>xkon93k8</title>
			</path>
			<rect x="700" y="20095" width="864" height="2683"/>
			<path d="M700,22778L700,22778" tabindex="0">
				<title>03:47.78 on 2021-01-28</title>
			</path>
			<line x1="0" y1="22778" x2="1855" y2="22778"/>
			<line x1="700" y1="0" x2="700" y2="58976"/>
			<path d="M1564,20095L1564,20095" tabindex="0">
				<title>03:20.95 on 2023-06-11</title>
			</path>
			<line x1="0" y1="20095" x2="1855" y2="20095"/>
			<line x1="1564" y1="0" x2="1564" y2="58976"/>
		</g>
		<g style="--index: 6;">
			<path d="M774,21984" tabindex="0">
				<title>x356nrej</title>
			</path>
			<rect x="774" y="21984" width="0" height="0"/>
			<path d="M774,21984L774,21984" tabindex="0">
				<title>03:39.84 on 2021-04-12</title>
			</path>
			<line x1="0" y1="21984" x2="1855" y2="21984"/>
			<line x1="774" y1="0" x2="774" y2="58976"/>
		</g>
		<g style="--index: 7;">
			<path d="M1515,58976" tabindex="0">
				<title>j5qyodzj</title>
			</path>
			<rect x="1515" y="58976" width="0" height="0"/>
			<path d="M1515,58976L1515,58976" tabindex="0">
				<title>09:49.76 on 2023-04-23</title>
			</path>
			<line x1="0" y1="58976" x2="1855" y2="58976"/>
			<line x1="1515" y1="0" x2="1515" y2="58976"/>
		</g>
		<g style="--index: 8;">
			<path d="M1656,58455" tabindex="0">
				<title>joknry08</title>
			</path>
			<rect x="1656" y="58455" width="0" height="0"/>
			<path d="M1656,58455L1656,58455" tabindex="0">
				<title>09:44.55 on 2023-09-11</title>
			</path>
			<line x1="0" y1="58455" x2="1855" y2="58455"/>
			<line x1="1656" y1="0" x2="1656" y2="58976"/>
		</g>
		<g style="--index: 9;">
			<path d="M1701,37175" tabindex="0">
				<title>8g2z637j</title>
			</path>
			<rect x="1701" y="37175" width="0" height="0"/>
			<path d="M1701,37175L1701,37175" tabindex="0">
				<title>06:11.75 on 2023-10-26</title>
			</path>
			<line x1="0" y1="37175" x2="1855" y2="37175"/>
			<line x1="1701" y1="0" x2="1701" y2="58976"/>
		</g>
		<g style="--index: 10;">
			<path d="M1747,24482L1808,24482L1808,24289L1845,24289L1845,22965" tabindex="0">
				<title>8w3l21qj</title>
			</path>
			<rect x="1747" y="22965" width="98" height="1517"/>
			<path d="M1747,24482L1747,24482" tabindex="0">
				<title>04:04.82 on 2023-12-11</title>
			</path>
			<line x1="0" y1="24482" x2="1855" y2="24482"/>
			<line x1="1747" y1="0" x2="1747" y2="58976"/>
			<path d="M1808,24289L1808,24289" tabindex="0">
				<title>04:02.89 on 2024-02-10</title>
			</path>
			<line x1="0" y1="24289" x2="1855" y2="24289"/>
			<line x1="1808" y1="0" x2="1808" y2="58976"/>
			<path d="M1845,22965L1845,22965" tabindex="0">
				<title>03:49.65 on 2024-03-18</title>
			</path>
			<line x1="0" y1="22965" x2="1855" y2="22965"/>
			<line x1="1845" y1="0" x2="1845" y2="58976"/>
		</g>
		<g style="--index: 11;">
			<path d="M1855,45119" tabindex="0">
				<title>j5959zwx</title>
			</path>
			<rect x="1855" y="45119" width="0" height="0"/>
			<path d="M1855,45119L1855,45119" tabindex="0">
				<title>07:31.19 on 2024-03-28</title>
			</path>
			<line x1="0" y1="45119" x2="1855" y2="45119"/>
			<line x1="1855" y1="0" x2="1855" y2="58976"/>
		</g>
	</g>
</svg>
