<svg xmlns="http://www.w3.org/2000/svg" viewBox="0 0 481 4471" preserveAspectRatio="none" lang="en" style="color-scheme: dark light;">
		<title>Time by player for leaderboard l_r9gnozkd-rkl3znrk-wledz9en.5lmk0gjq</title>
		<style>
			svg {
				background: var(--canvas-background);
				fill: var(--canvas-background);
				stroke: var(--canvas-foreground);
				stroke-linejoin: round;
				stroke-linecap: round;
			}
			g &gt; path[tabindex] {
				vector-effect: non-scaling-stroke;
				fill: none;
				stroke: hsl(calc(var(--index) / var(--count) * 360), 50%, 50%);
				cursor: help;
			}
			g:is(:hover, :focus-within) &gt; path[tabindex] {
				stroke: var(--canvas-foreground);
			}
			g &gt; path[tabindex]:is(:hover, :focus-within) {
				outline: 0;
			}
			g &gt; path[tabindex]:first-of-type {
				stroke-width: 2;
			}
			g &gt; path[tabindex]:first-of-type:is(:hover, :focus-within) {
				stroke-width: 4;
			}
			g &gt; path[tabindex]:first-of-type:not(:last-of-type) {
				stroke-dasharray: 4 8;
			}
			g &gt; rect {
				vector-effect: non-scaling-stroke;
				fill: none;
				stroke: none;
				pointer-events: none;
			}
			g &gt; path[tabindex]:first-of-type:is(:hover, :focus-within) + rect {
				fill: var(--highlighted);
			}
			g &gt; path[tabindex]:first-of-type ~ path[tabindex] {
				stroke-width: 8;
			}
			g &gt; path[tabindex]:first-of-type ~ path[tabindex]:is(:hover, :focus-within) {
				stroke-width: 16;
			}
			g &gt; line {
				vector-effect: non-scaling-stroke;
				fill: none;
				stroke: none;
				stroke-width: 2;
				stroke-dasharray: 4 8;
				pointer-events: none;
			}
			g &gt; path[tabindex]:first-of-type:is(:hover, :focus-within) + rect + path[tabindex] + line,
			g &gt; path[tabindex]:first-of-type:is(:hover, :focus-within) + rect + path[tabindex] + line + line,
			g &gt; path[tabindex]:first-of-type:is(:hover, :focus-within) ~ path[tabindex]:last-of-type + line,
			g &gt; path[tabindex]:first-of-type:is(:hover, :focus-within) ~ path[tabindex]:last-of-type + line + line,
			g &gt; path[tabindex]:first-of-type ~ path[tabindex]:is(:hover, :focus-within) + line,
			g &gt; path[tabindex]:first-of-type ~ path[tabindex]:is(:hover, :focus-within) + line + line {
				stroke: var(--faded);
			}
			@media (prefers-color-scheme: dark) {
				:root {
					--canvas-background: #000;
					--canvas-foreground: #ccc;
					--highlighted: #6663;
					--faded: #9993;
				}
			}
			@media (prefers-color-scheme: light) {
				:root {
					--canvas-background: #fff;
					--canvas-foreground: #333;
					--highlighted: #9993;
					--faded: #6663;
				}
			}
		</style>
		<g transform="scale(1 -1)" transform-origin="center center" style="--count: 6;">
		<g style="--index: 0;">
			<path d="M0,4411" tabindex="0">
				<title>8e94kq6j</title>
			</path>
			<rect x="0" y="4411" width="0" height="0"/>
			<path d="M0,4411L0,4411" tabindex="0">
				<title>00:44.11 on 2021-01-22</title>
			</path>
			<line x1="0" y1="4411" x2="481" y2="4411"/>
			<line x1="0" y1="0" x2="0" y2="4471"/>
		</g>
		<g style="--index: 1;">
			<path d="M5,4471L8,4471L8,4374L9,4374L9,4255L76,4255L76,4117" tabindex="0">
				<title>j0np7or8</title>
			</path>
			<rect x="5" y="4117" width="71" height="354"/>
			<path d="M5,4471L5,4471" tabindex="0">
				<title>00:44.71 on 2021-01-27</title>
			</path>
			<line x1="0" y1="4471" x2="481" y2="4471"/>
			<line x1="5" y1="0" x2="5" y2="4471"/>
			<path d="M8,4374L8,4374" tabindex="0">
				<title>00:43.74 on 2021-01-30</title>
			</path>
			<line x1="0" y1="4374" x2="481" y2="4374"/>
			<line x1="8" y1="0" x2="8" y2="4471"/>
			<path d="M9,4255L9,4255" tabindex="0">
				<title>00:42.55 on 2021-01-31</title>
			</path>
			<line x1="0" y1="4255" x2="481" y2="4255"/>
			<line x1="9" y1="0" x2="9" y2="4471"/>
			<path d="M76,4117L76,4117" tabindex="0">
				<title>00:41.17 on 2021-04-08</title>
			</path>
			<line x1="0" y1="4117" x2="481" y2="4117"/>
			<line x1="76" y1="0" x2="76" y2="4471"/>
		</g>
		<g style="--index: 2;">
			<path d="M8,4259" tabindex="0">
				<title>x356nrej</title>
			</path>
			<rect x="8" y="4259" width="0" height="0"/>
			<path d="M8,4259L8,4259" tabindex="0">
				<title>00:42.59 on 2021-01-30</title>
			</path>
			<line x1="0" y1="4259" x2="481" y2="4259"/>
			<line x1="8" y1="0" x2="8" y2="4471"/>
		</g>
		<g style="--index: 3;">
			<path d="M8,4169L63,4169L63,4123" tabindex="0">
				<title>x7q00668</title>
			</path>
			<rect x="8" y="4123" width="55" height="46"/>
			<path d="M8,4169L8,4169" tabindex="0">
				<title>00:41.69 on 2021-01-30</title>
			</path>
			<line x1="0" y1="4169" x2="481" y2="4169"/>
			<line x1="8" y1="0" x2="8" y2="4471"/>
			<path d="M63,4123L63,4123" tabindex="0">
				<title>00:41.23 on 2021-03-26</title>
			</path>
			<line x1="0" y1="4123" x2="481" y2="4123"/>
			<line x1="63" y1="0" x2="63" y2="4471"/>
		</g>
		<g style="--index: 4;">
			<path d="M8,4357" tabindex="0">
				<title>xkon93k8</title>
			</path>
			<rect x="8" y="4357" width="0" height="0"/>
			<path d="M8,4357L8,4357" tabindex="0">
				<title>00:43.57 on 2021-01-30</title>
			</path>
			<line x1="0" y1="4357" x2="481" y2="4357"/>
			<line x1="8" y1="0" x2="8" y2="4471"/>
		</g>
		<g style="--index: 5;">
			<path d="M481,4071" tabindex="0">
				<title>j2yr9lp8</title>
			</path>
			<rect x="481" y="4071" width="0" height="0"/>
			<path d="M481,4071L481,4071" tabindex="0">
				<title>00:40.71 on 2022-05-18</title>
			</path>
			<line x1="0" y1="4071" x2="481" y2="4071"/>
			<line x1="481" y1="0" x2="481" y2="4471"/>
		</g>
	</g>
</svg>
