<svg xmlns="http://www.w3.org/2000/svg" viewBox="0 0 1683 21581" preserveAspectRatio="none" lang="en" style="color-scheme: dark light;">
	<title>Time by player for leaderboard l_r9gn1qpd-xd144xzd-38dz6v1n.814y45w1</title>
	<style>
		svg {
			background: var(--canvas-background);
			fill: var(--canvas-background);
			stroke: var(--canvas-foreground);
			stroke-linejoin: round;
			stroke-linecap: round;
		}
		g &gt; path[tabindex] {
			vector-effect: non-scaling-stroke;
			fill: none;
			stroke: hsl(calc(var(--index) / var(--count) * 360), 50%, 50%);
			cursor: help;
		}
		g:is(:hover, :focus-within) &gt; path[tabindex] {
			stroke: var(--canvas-foreground);
		}
		g &gt; path[tabindex]:is(:hover, :focus-within) {
			outline: 0;
		}
		g &gt; path[tabindex]:first-of-type {
			stroke-width: 2;
		}
		g &gt; path[tabindex]:first-of-type:is(:hover, :focus-within) {
			stroke-width: 4;
		}
		g &gt; path[tabindex]:first-of-type:not(:last-of-type) {
			stroke-dasharray: 4 8;
		}
		g &gt; rect {
			vector-effect: non-scaling-stroke;
			fill: none;
			stroke: none;
			pointer-events: none;
		}
		g &gt; path[tabindex]:first-of-type:is(:hover, :focus-within) + rect {
			fill: var(--highlighted);
		}
		g &gt; path[tabindex]:first-of-type ~ path[tabindex] {
			stroke-width: 8;
		}
		g &gt; path[tabindex]:first-of-type ~ path[tabindex]:is(:hover, :focus-within) {
			stroke-width: 16;
		}
		g &gt; line {
			vector-effect: non-scaling-stroke;
			fill: none;
			stroke: none;
			stroke-width: 2;
			stroke-dasharray: 4 8;
			pointer-events: none;
		}
		g &gt; path[tabindex]:first-of-type:is(:hover, :focus-within) + rect + path[tabindex] + line,
		g &gt; path[tabindex]:first-of-type:is(:hover, :focus-within) + rect + path[tabindex] + line + line,
		g &gt; path[tabindex]:first-of-type:is(:hover, :focus-within) ~ path[tabindex]:last-of-type + line,
		g &gt; path[tabindex]:first-of-type:is(:hover, :focus-within) ~ path[tabindex]:last-of-type + line + line,
		g &gt; path[tabindex]:first-of-type ~ path[tabindex]:is(:hover, :focus-within) + line,
		g &gt; path[tabindex]:first-of-type ~ path[tabindex]:is(:hover, :focus-within) + line + line {
			stroke: var(--faded);
		}
		@media (prefers-color-scheme: dark) {
			:root {
				--canvas-background: #000;
				--canvas-foreground: #ccc;
				--highlighted: #6663;
				--faded: #9993;
			}
		}
		@media (prefers-color-scheme: light) {
			:root {
				--canvas-background: #fff;
				--canvas-foreground: #333;
				--highlighted: #9993;
				--faded: #6663;
			}
		}
	</style>
	<g transform="scale(1 -1)" transform-origin="center center" style="--count: 12;">
		<g style="--index: 0;">
			<path d="M0,10521L1,10521L1,9942L10,9942L10,9432L16,9432L16,8888" tabindex="0">
				<title>qj2pq1p8</title>
			</path>
			<rect x="0" y="8888" width="16" height="1633"/>
			<path d="M0,10521L0,10521" tabindex="0">
				<title>01:45.21 on 2018-01-17</title>
			</path>
			<line x1="0" y1="10521" x2="1683" y2="10521"/>
			<line x1="0" y1="0" x2="0" y2="21581"/>
			<path d="M1,9942L1,9942" tabindex="0">
				<title>01:39.42 on 2018-01-18</title>
			</path>
			<line x1="0" y1="9942" x2="1683" y2="9942"/>
			<line x1="1" y1="0" x2="1" y2="21581"/>
			<path d="M10,9432L10,9432" tabindex="0">
				<title>01:34.32 on 2018-01-27</title>
			</path>
			<line x1="0" y1="9432" x2="1683" y2="9432"/>
			<line x1="10" y1="0" x2="10" y2="21581"/>
			<path d="M16,8888L16,8888" tabindex="0">
				<title>01:28.88 on 2018-02-02</title>
			</path>
			<line x1="0" y1="8888" x2="1683" y2="8888"/>
			<line x1="16" y1="0" x2="16" y2="21581"/>
		</g>
		<g style="--index: 1;">
			<path d="M10,9601" tabindex="0">
				<title>48grel1x</title>
			</path>
			<rect x="10" y="9601" width="0" height="0"/>
			<path d="M10,9601L10,9601" tabindex="0">
				<title>01:36.01 on 2018-01-27</title>
			</path>
			<line x1="0" y1="9601" x2="1683" y2="9601"/>
			<line x1="10" y1="0" x2="10" y2="21581"/>
		</g>
		<g style="--index: 2;">
			<path d="M177,8783" tabindex="0">
				<title>y8dgoe98</title>
			</path>
			<rect x="177" y="8783" width="0" height="0"/>
			<path d="M177,8783L177,8783" tabindex="0">
				<title>01:27.83 on 2018-07-13</title>
			</path>
			<line x1="0" y1="8783" x2="1683" y2="8783"/>
			<line x1="177" y1="0" x2="177" y2="21581"/>
		</g>
		<g style="--index: 3;">
			<path d="M1000,20864" tabindex="0">
				<title>8rpevwwj</title>
			</path>
			<rect x="1000" y="20864" width="0" height="0"/>
			<path d="M1000,20864L1000,20864" tabindex="0">
				<title>03:28.64 on 2020-10-13</title>
			</path>
			<line x1="0" y1="20864" x2="1683" y2="20864"/>
			<line x1="1000" y1="0" x2="1000" y2="21581"/>
		</g>
		<g style="--index: 4;">
			<path d="M1021,8920L1045,8920L1045,8554L1089,8554L1089,8469" tabindex="0">
				<title>xkon93k8</title>
			</path>
			<rect x="1021" y="8469" width="68" height="451"/>
			<path d="M1021,8920L1021,8920" tabindex="0">
				<title>01:29.20 on 2020-11-03</title>
			</path>
			<line x1="0" y1="8920" x2="1683" y2="8920"/>
			<line x1="1021" y1="0" x2="1021" y2="21581"/>
			<path d="M1045,8554L1045,8554" tabindex="0">
				<title>01:25.54 on 2020-11-27</title>
			</path>
			<line x1="0" y1="8554" x2="1683" y2="8554"/>
			<line x1="1045" y1="0" x2="1045" y2="21581"/>
			<path d="M1089,8469L1089,8469" tabindex="0">
				<title>01:24.69 on 2021-01-10</title>
			</path>
			<line x1="0" y1="8469" x2="1683" y2="8469"/>
			<line x1="1089" y1="0" x2="1089" y2="21581"/>
		</g>
		<g style="--index: 5;">
			<path d="M1086,8526" tabindex="0">
				<title>x356nrej</title>
			</path>
			<rect x="1086" y="8526" width="0" height="0"/>
			<path d="M1086,8526L1086,8526" tabindex="0">
				<title>01:25.26 on 2021-01-07</title>
			</path>
			<line x1="0" y1="8526" x2="1683" y2="8526"/>
			<line x1="1086" y1="0" x2="1086" y2="21581"/>
		</g>
		<g style="--index: 6;">
			<path d="M1086,11174" tabindex="0">
				<title>j0np7or8</title>
			</path>
			<rect x="1086" y="11174" width="0" height="0"/>
			<path d="M1086,11174L1086,11174" tabindex="0">
				<title>01:51.74 on 2021-01-07</title>
			</path>
			<line x1="0" y1="11174" x2="1683" y2="11174"/>
			<line x1="1086" y1="0" x2="1086" y2="21581"/>
		</g>
		<g style="--index: 7;">
			<path d="M1206,19761" tabindex="0">
				<title>x3qy0dkj</title>
			</path>
			<rect x="1206" y="19761" width="0" height="0"/>
			<path d="M1206,19761L1206,19761" tabindex="0">
				<title>03:17.61 on 2021-05-07</title>
			</path>
			<line x1="0" y1="19761" x2="1683" y2="19761"/>
			<line x1="1206" y1="0" x2="1206" y2="21581"/>
		</g>
		<g style="--index: 8;">
			<path d="M1218,20862" tabindex="0">
				<title>j96qp6wj</title>
			</path>
			<rect x="1218" y="20862" width="0" height="0"/>
			<path d="M1218,20862L1218,20862" tabindex="0">
				<title>03:28.62 on 2021-05-19</title>
			</path>
			<line x1="0" y1="20862" x2="1683" y2="20862"/>
			<line x1="1218" y1="0" x2="1218" y2="21581"/>
		</g>
		<g style="--index: 9;">
			<path d="M1368,7516" tabindex="0">
				<title>814zn7l8</title>
			</path>
			<rect x="1368" y="7516" width="0" height="0"/>
			<path d="M1368,7516L1368,7516" tabindex="0">
				<title>01:15.16 on 2021-10-16</title>
			</path>
			<line x1="0" y1="7516" x2="1683" y2="7516"/>
			<line x1="1368" y1="0" x2="1368" y2="21581"/>
		</g>
		<g style="--index: 10;">
			<path d="M1388,21581" tabindex="0">
				<title>xkm0k06j</title>
			</path>
			<rect x="1388" y="21581" width="0" height="0"/>
			<path d="M1388,21581L1388,21581" tabindex="0">
				<title>03:35.81 on 2021-11-05</title>
			</path>
			<line x1="0" y1="21581" x2="1683" y2="21581"/>
			<line x1="1388" y1="0" x2="1388" y2="21581"/>
		</g>
		<g style="--index: 11;">
			<path d="M1683,9530" tabindex="0">
				<title>j4235d5x</title>
			</path>
			<rect x="1683" y="9530" width="0" height="0"/>
			<path d="M1683,9530L1683,9530" tabindex="0">
				<title>01:35.30 on 2022-08-27</title>
			</path>
			<line x1="0" y1="9530" x2="1683" y2="9530"/>
			<line x1="1683" y1="0" x2="1683" y2="21581"/>
		</g>
	</g>
</svg>
