<svg xmlns="http://www.w3.org/2000/svg" viewBox="0 0 1138 20455" preserveAspectRatio="none" lang="en" style="color-scheme: dark light;">
		<title>Time by player for leaderboard l_r9gn1qpd-9kv66g32-onv7r45n.810zdxoq</title>
		<style>
			svg {
				background: var(--canvas-background);
				fill: var(--canvas-background);
				stroke: var(--canvas-foreground);
				stroke-linejoin: round;
				stroke-linecap: round;
			}
			g &gt; path[tabindex] {
				vector-effect: non-scaling-stroke;
				fill: none;
				stroke: hsl(calc(var(--index) / var(--count) * 360), 50%, 50%);
				cursor: help;
			}
			g:is(:hover, :focus-within) &gt; path[tabindex] {
				stroke: var(--canvas-foreground);
			}
			g &gt; path[tabindex]:is(:hover, :focus-within) {
				outline: 0;
			}
			g &gt; path[tabindex]:first-of-type {
				stroke-width: 2;
			}
			g &gt; path[tabindex]:first-of-type:is(:hover, :focus-within) {
				stroke-width: 4;
			}
			g &gt; path[tabindex]:first-of-type:not(:last-of-type) {
				stroke-dasharray: 4 8;
			}
			g &gt; rect {
				vector-effect: non-scaling-stroke;
				fill: none;
				stroke: none;
				pointer-events: none;
			}
			g &gt; path[tabindex]:first-of-type:is(:hover, :focus-within) + rect {
				fill: var(--highlighted);
			}
			g &gt; path[tabindex]:first-of-type ~ path[tabindex] {
				stroke-width: 8;
			}
			g &gt; path[tabindex]:first-of-type ~ path[tabindex]:is(:hover, :focus-within) {
				stroke-width: 16;
			}
			g &gt; line {
				vector-effect: non-scaling-stroke;
				fill: none;
				stroke: none;
				stroke-width: 2;
				stroke-dasharray: 4 8;
				pointer-events: none;
			}
			g &gt; path[tabindex]:first-of-type:is(:hover, :focus-within) + rect + path[tabindex] + line,
			g &gt; path[tabindex]:first-of-type:is(:hover, :focus-within) + rect + path[tabindex] + line + line,
			g &gt; path[tabindex]:first-of-type:is(:hover, :focus-within) ~ path[tabindex]:last-of-type + line,
			g &gt; path[tabindex]:first-of-type:is(:hover, :focus-within) ~ path[tabindex]:last-of-type + line + line,
			g &gt; path[tabindex]:first-of-type ~ path[tabindex]:is(:hover, :focus-within) + line,
			g &gt; path[tabindex]:first-of-type ~ path[tabindex]:is(:hover, :focus-within) + line + line {
				stroke: var(--faded);
			}
			@media (prefers-color-scheme: dark) {
				:root {
					--canvas-background: #000;
					--canvas-foreground: #ccc;
					--highlighted: #6663;
					--faded: #9993;
				}
			}
			@media (prefers-color-scheme: light) {
				:root {
					--canvas-background: #fff;
					--canvas-foreground: #333;
					--highlighted: #9993;
					--faded: #6663;
				}
			}
		</style>
		<g style="--count: 5;">
		<g style="--index: 0;">
			<path d="M0,467" tabindex="0">
				<title>x356nrej</title>
			</path>
			<rect x="0" y="467" width="0" height="0"/>
			<path d="M0,467L0,467" tabindex="0">
				<title>03:19.88 on 2021-02-04</title>
			</path>
			<line x1="0" y1="467" x2="1138" y2="467"/>
			<line x1="0" y1="20455" x2="0" y2="0"/>
		</g>
		<g style="--index: 1;">
			<path d="M8,2020L857,2020L857,3988" tabindex="0">
				<title>xkon93k8</title>
			</path>
			<rect x="8" y="2020" width="849" height="1968"/>
			<path d="M8,2020L8,2020" tabindex="0">
				<title>03:04.35 on 2021-02-12</title>
			</path>
			<line x1="0" y1="2020" x2="1138" y2="2020"/>
			<line x1="8" y1="20455" x2="8" y2="0"/>
			<path d="M857,3988L857,3988" tabindex="0">
				<title>02:44.67 on 2023-06-11</title>
			</path>
			<line x1="0" y1="3988" x2="1138" y2="3988"/>
			<line x1="857" y1="20455" x2="857" y2="0"/>
		</g>
		<g style="--index: 2;">
			<path d="M21,3060" tabindex="0">
				<title>j2yr9lp8</title>
			</path>
			<rect x="21" y="3060" width="0" height="0"/>
			<path d="M21,3060L21,3060" tabindex="0">
				<title>02:53.95 on 2021-02-25</title>
			</path>
			<line x1="0" y1="3060" x2="1138" y2="3060"/>
			<line x1="21" y1="20455" x2="21" y2="0"/>
		</g>
		<g style="--index: 3;">
			<path d="M770,3719L864,3719L864,4919" tabindex="0">
				<title>jn2m23wj</title>
			</path>
			<rect x="770" y="3719" width="94" height="1200"/>
			<path d="M770,3719L770,3719" tabindex="0">
				<title>02:47.36 on 2023-03-16</title>
			</path>
			<line x1="0" y1="3719" x2="1138" y2="3719"/>
			<line x1="770" y1="20455" x2="770" y2="0"/>
			<path d="M864,4919L864,4919" tabindex="0">
				<title>02:35.36 on 2023-06-18</title>
			</path>
			<line x1="0" y1="4919" x2="1138" y2="4919"/>
			<line x1="864" y1="20455" x2="864" y2="0"/>
		</g>
		<g style="--index: 4;">
			<path d="M1038,0L1102,0L1102,668L1134,668L1134,2987L1138,2987L1138,3241" tabindex="0">
				<title>8w3l21qj</title>
			</path>
			<rect x="1038" y="0" width="100" height="3241"/>
			<path d="M1038,0L1038,0" tabindex="0">
				<title>03:24.55 on 2023-12-09</title>
			</path>
			<line x1="0" y1="0" x2="1138" y2="0"/>
			<line x1="1038" y1="20455" x2="1038" y2="0"/>
			<path d="M1102,668L1102,668" tabindex="0">
				<title>03:17.87 on 2024-02-11</title>
			</path>
			<line x1="0" y1="668" x2="1138" y2="668"/>
			<line x1="1102" y1="20455" x2="1102" y2="0"/>
			<path d="M1134,2987L1134,2987" tabindex="0">
				<title>02:54.68 on 2024-03-14</title>
			</path>
			<line x1="0" y1="2987" x2="1138" y2="2987"/>
			<line x1="1134" y1="20455" x2="1134" y2="0"/>
			<path d="M1138,3241L1138,3241" tabindex="0">
				<title>02:52.14 on 2024-03-18</title>
			</path>
			<line x1="0" y1="3241" x2="1138" y2="3241"/>
			<line x1="1138" y1="20455" x2="1138" y2="0"/>
		</g>
	</g>
</svg>
