<svg xmlns="http://www.w3.org/2000/svg" viewBox="0 0 1107 5172" preserveAspectRatio="none" lang="en" style="color-scheme: dark light;">
	<title>Time by player for leaderboard l_rdqo542w-9d8eewld-wl30kw9l.5q86rxr1</title>
	<style>
		svg {
			background: var(--canvas-background);
			fill: var(--canvas-background);
			stroke: var(--canvas-foreground);
			stroke-linejoin: round;
			stroke-linecap: round;
		}
		g &gt; path[tabindex] {
			vector-effect: non-scaling-stroke;
			fill: none;
			stroke: hsl(calc(var(--index) / var(--count) * 360), 50%, 50%);
			cursor: help;
		}
		g:is(:hover, :focus-within) &gt; path[tabindex] {
			stroke: var(--canvas-foreground);
		}
		g &gt; path[tabindex]:is(:hover, :focus-within) {
			outline: 0;
		}
		g &gt; path[tabindex]:first-of-type {
			stroke-width: 2;
		}
		g &gt; path[tabindex]:first-of-type:is(:hover, :focus-within) {
			stroke-width: 4;
		}
		g &gt; path[tabindex]:first-of-type:not(:last-of-type) {
			stroke-dasharray: 4 8;
		}
		g &gt; rect {
			vector-effect: non-scaling-stroke;
			fill: none;
			stroke: none;
			pointer-events: none;
		}
		g &gt; path[tabindex]:first-of-type:is(:hover, :focus-within) + rect {
			fill: var(--highlighted);
		}
		g &gt; path[tabindex]:first-of-type ~ path[tabindex] {
			stroke-width: 8;
		}
		g &gt; path[tabindex]:first-of-type ~ path[tabindex]:is(:hover, :focus-within) {
			stroke-width: 16;
		}
		g &gt; line {
			vector-effect: non-scaling-stroke;
			fill: none;
			stroke: none;
			stroke-width: 2;
			stroke-dasharray: 4 8;
			pointer-events: none;
		}
		g &gt; path[tabindex]:first-of-type:is(:hover, :focus-within) + rect + path[tabindex] + line,
		g &gt; path[tabindex]:first-of-type:is(:hover, :focus-within) + rect + path[tabindex] + line + line,
		g &gt; path[tabindex]:first-of-type:is(:hover, :focus-within) ~ path[tabindex]:last-of-type + line,
		g &gt; path[tabindex]:first-of-type:is(:hover, :focus-within) ~ path[tabindex]:last-of-type + line + line,
		g &gt; path[tabindex]:first-of-type ~ path[tabindex]:is(:hover, :focus-within) + line,
		g &gt; path[tabindex]:first-of-type ~ path[tabindex]:is(:hover, :focus-within) + line + line {
			stroke: var(--faded);
		}
		@media (prefers-color-scheme: dark) {
			:root {
				--canvas-background: #000;
				--canvas-foreground: #ccc;
				--highlighted: #6663;
				--faded: #9993;
			}
		}
		@media (prefers-color-scheme: light) {
			:root {
				--canvas-background: #fff;
				--canvas-foreground: #333;
				--highlighted: #9993;
				--faded: #6663;
			}
		}
	</style>
	<g transform="scale(1 -1)" transform-origin="center center" style="--count: 11;">
		<g style="--index: 0;">
			<path d="M0,2963" tabindex="0">
				<title>x356nrej</title>
			</path>
			<rect x="0" y="2963" width="0" height="0"/>
			<path d="M0,2963L0,2963" tabindex="0">
				<title>00:29.63 on 2020-05-12</title>
			</path>
			<line x1="0" y1="2963" x2="1107" y2="2963"/>
			<line x1="0" y1="0" x2="0" y2="5172"/>
		</g>
		<g style="--index: 1;">
			<path d="M178,3220" tabindex="0">
				<title>xz9wodr8</title>
			</path>
			<rect x="178" y="3220" width="0" height="0"/>
			<path d="M178,3220L178,3220" tabindex="0">
				<title>00:32.20 on 2020-11-06</title>
			</path>
			<line x1="0" y1="3220" x2="1107" y2="3220"/>
			<line x1="178" y1="0" x2="178" y2="5172"/>
		</g>
		<g style="--index: 2;">
			<path d="M178,2919" tabindex="0">
				<title>8e94kq6j</title>
			</path>
			<rect x="178" y="2919" width="0" height="0"/>
			<path d="M178,2919L178,2919" tabindex="0">
				<title>00:29.19 on 2020-11-06</title>
			</path>
			<line x1="0" y1="2919" x2="1107" y2="2919"/>
			<line x1="178" y1="0" x2="178" y2="5172"/>
		</g>
		<g style="--index: 3;">
			<path d="M192,2653L290,2653L290,2590L659,2590L659,2377" tabindex="0">
				<title>j2yr9lp8</title>
			</path>
			<rect x="192" y="2377" width="467" height="276"/>
			<path d="M192,2653L192,2653" tabindex="0">
				<title>00:26.53 on 2020-11-20</title>
			</path>
			<line x1="0" y1="2653" x2="1107" y2="2653"/>
			<line x1="192" y1="0" x2="192" y2="5172"/>
			<path d="M290,2590L290,2590" tabindex="0">
				<title>00:25.90 on 2021-02-26</title>
			</path>
			<line x1="0" y1="2590" x2="1107" y2="2590"/>
			<line x1="290" y1="0" x2="290" y2="5172"/>
			<path d="M659,2377L659,2377" tabindex="0">
				<title>00:23.77 on 2022-03-02</title>
			</path>
			<line x1="0" y1="2377" x2="1107" y2="2377"/>
			<line x1="659" y1="0" x2="659" y2="5172"/>
		</g>
		<g style="--index: 4;">
			<path d="M193,2945L250,2945L250,2689" tabindex="0">
				<title>x7q00668</title>
			</path>
			<rect x="193" y="2689" width="57" height="256"/>
			<path d="M193,2945L193,2945" tabindex="0">
				<title>00:29.45 on 2020-11-21</title>
			</path>
			<line x1="0" y1="2945" x2="1107" y2="2945"/>
			<line x1="193" y1="0" x2="193" y2="5172"/>
			<path d="M250,2689L250,2689" tabindex="0">
				<title>00:26.89 on 2021-01-17</title>
			</path>
			<line x1="0" y1="2689" x2="1107" y2="2689"/>
			<line x1="250" y1="0" x2="250" y2="5172"/>
		</g>
		<g style="--index: 5;">
			<path d="M197,3099" tabindex="0">
				<title>jn3kw0wx</title>
			</path>
			<rect x="197" y="3099" width="0" height="0"/>
			<path d="M197,3099L197,3099" tabindex="0">
				<title>00:30.99 on 2020-11-25</title>
			</path>
			<line x1="0" y1="3099" x2="1107" y2="3099"/>
			<line x1="197" y1="0" x2="197" y2="5172"/>
		</g>
		<g style="--index: 6;">
			<path d="M233,2619" tabindex="0">
				<title>xkon93k8</title>
			</path>
			<rect x="233" y="2619" width="0" height="0"/>
			<path d="M233,2619L233,2619" tabindex="0">
				<title>00:26.19 on 2020-12-31</title>
			</path>
			<line x1="0" y1="2619" x2="1107" y2="2619"/>
			<line x1="233" y1="0" x2="233" y2="5172"/>
		</g>
		<g style="--index: 7;">
			<path d="M300,2950" tabindex="0">
				<title>j0np7or8</title>
			</path>
			<rect x="300" y="2950" width="0" height="0"/>
			<path d="M300,2950L300,2950" tabindex="0">
				<title>00:29.50 on 2021-03-08</title>
			</path>
			<line x1="0" y1="2950" x2="1107" y2="2950"/>
			<line x1="300" y1="0" x2="300" y2="5172"/>
		</g>
		<g style="--index: 8;">
			<path d="M777,2547" tabindex="0">
				<title>xk3m6d68</title>
			</path>
			<rect x="777" y="2547" width="0" height="0"/>
			<path d="M777,2547L777,2547" tabindex="0">
				<title>00:25.47 on 2022-06-28</title>
			</path>
			<line x1="0" y1="2547" x2="1107" y2="2547"/>
			<line x1="777" y1="0" x2="777" y2="5172"/>
		</g>
		<g style="--index: 9;">
			<path d="M1059,2332L1076,2332L1076,2267" tabindex="0">
				<title>jn2m23wj</title>
			</path>
			<rect x="1059" y="2267" width="17" height="65"/>
			<path d="M1059,2332L1059,2332" tabindex="0">
				<title>00:23.32 on 2023-04-06</title>
			</path>
			<line x1="0" y1="2332" x2="1107" y2="2332"/>
			<line x1="1059" y1="0" x2="1059" y2="5172"/>
			<path d="M1076,2267L1076,2267" tabindex="0">
				<title>00:22.67 on 2023-04-23</title>
			</path>
			<line x1="0" y1="2267" x2="1107" y2="2267"/>
			<line x1="1076" y1="0" x2="1076" y2="5172"/>
		</g>
		<g style="--index: 10;">
			<path d="M1107,5172" tabindex="0">
				<title>xz0rz3r8</title>
			</path>
			<rect x="1107" y="5172" width="0" height="0"/>
			<path d="M1107,5172L1107,5172" tabindex="0">
				<title>00:51.72 on 2023-05-24</title>
			</path>
			<line x1="0" y1="5172" x2="1107" y2="5172"/>
			<line x1="1107" y1="0" x2="1107" y2="5172"/>
		</g>
	</g>
</svg>
