<svg xmlns="http://www.w3.org/2000/svg" viewBox="0 0 1539 3404" preserveAspectRatio="none" lang="en" style="color-scheme: dark light;">
	<title>Time by player for leaderboard l_rdqo542w-9d8eewld-wl30kw9l.jqzpyr4l</title>
	<style>
		svg {
			background: var(--canvas-background);
			fill: var(--canvas-background);
			stroke: var(--canvas-foreground);
			stroke-linejoin: round;
			stroke-linecap: round;
		}
		g &gt; path[tabindex] {
			vector-effect: non-scaling-stroke;
			fill: none;
			stroke: hsl(calc(var(--index) / var(--count) * 360), 50%, 50%);
			cursor: help;
		}
		g:is(:hover, :focus-within) &gt; path[tabindex] {
			stroke: var(--canvas-foreground);
		}
		g &gt; path[tabindex]:is(:hover, :focus-within) {
			outline: 0;
		}
		g &gt; path[tabindex]:first-of-type {
			stroke-width: 2;
		}
		g &gt; path[tabindex]:first-of-type:is(:hover, :focus-within) {
			stroke-width: 4;
		}
		g &gt; path[tabindex]:first-of-type:not(:last-of-type) {
			stroke-dasharray: 4 8;
		}
		g &gt; rect {
			vector-effect: non-scaling-stroke;
			fill: none;
			stroke: none;
			pointer-events: none;
		}
		g &gt; path[tabindex]:first-of-type:is(:hover, :focus-within) + rect {
			fill: var(--highlighted);
		}
		g &gt; path[tabindex]:first-of-type ~ path[tabindex] {
			stroke-width: 8;
		}
		g &gt; path[tabindex]:first-of-type ~ path[tabindex]:is(:hover, :focus-within) {
			stroke-width: 16;
		}
		g &gt; line {
			vector-effect: non-scaling-stroke;
			fill: none;
			stroke: none;
			stroke-width: 2;
			stroke-dasharray: 4 8;
			pointer-events: none;
		}
		g &gt; path[tabindex]:first-of-type:is(:hover, :focus-within) + rect + path[tabindex] + line,
		g &gt; path[tabindex]:first-of-type:is(:hover, :focus-within) + rect + path[tabindex] + line + line,
		g &gt; path[tabindex]:first-of-type:is(:hover, :focus-within) ~ path[tabindex]:last-of-type + line,
		g &gt; path[tabindex]:first-of-type:is(:hover, :focus-within) ~ path[tabindex]:last-of-type + line + line,
		g &gt; path[tabindex]:first-of-type ~ path[tabindex]:is(:hover, :focus-within) + line,
		g &gt; path[tabindex]:first-of-type ~ path[tabindex]:is(:hover, :focus-within) + line + line {
			stroke: var(--faded);
		}
		@media (prefers-color-scheme: dark) {
			:root {
				--canvas-background: #000;
				--canvas-foreground: #ccc;
				--highlighted: #6663;
				--faded: #9993;
			}
		}
		@media (prefers-color-scheme: light) {
			:root {
				--canvas-background: #fff;
				--canvas-foreground: #333;
				--highlighted: #9993;
				--faded: #6663;
			}
		}
	</style>
	<g transform="scale(1 -1)" transform-origin="center center" style="--count: 10;">
		<g style="--index: 0;">
			<path d="M0,2655" tabindex="0">
				<title>y8dgoe98</title>
			</path>
			<rect x="0" y="2655" width="0" height="0"/>
			<path d="M0,2655L0,2655" tabindex="0">
				<title>00:26.55 on 2019-08-05</title>
			</path>
			<line x1="0" y1="2655" x2="1539" y2="2655"/>
			<line x1="0" y1="0" x2="0" y2="3404"/>
		</g>
		<g style="--index: 1;">
			<path d="M280,2558" tabindex="0">
				<title>x356nrej</title>
			</path>
			<rect x="280" y="2558" width="0" height="0"/>
			<path d="M280,2558L280,2558" tabindex="0">
				<title>00:25.58 on 2020-05-11</title>
			</path>
			<line x1="0" y1="2558" x2="1539" y2="2558"/>
			<line x1="280" y1="0" x2="280" y2="3404"/>
		</g>
		<g style="--index: 2;">
			<path d="M351,2795L357,2795L357,2407L397,2407L397,2260L413,2260L413,2246L472,2246L472,2187L473,2187L473,2082L1035,2082L1035,2032L1062,2032L1062,1963L1066,1963L1066,1953L1379,1953L1379,1922" tabindex="0">
				<title>xkon93k8</title>
			</path>
			<rect x="351" y="1922" width="1028" height="873"/>
			<path d="M351,2795L351,2795" tabindex="0">
				<title>00:27.95 on 2020-07-21</title>
			</path>
			<line x1="0" y1="2795" x2="1539" y2="2795"/>
			<line x1="351" y1="0" x2="351" y2="3404"/>
			<path d="M357,2407L357,2407" tabindex="0">
				<title>00:24.07 on 2020-07-27</title>
			</path>
			<line x1="0" y1="2407" x2="1539" y2="2407"/>
			<line x1="357" y1="0" x2="357" y2="3404"/>
			<path d="M397,2260L397,2260" tabindex="0">
				<title>00:22.60 on 2020-09-05</title>
			</path>
			<line x1="0" y1="2260" x2="1539" y2="2260"/>
			<line x1="397" y1="0" x2="397" y2="3404"/>
			<path d="M413,2246L413,2246" tabindex="0">
				<title>00:22.46 on 2020-09-21</title>
			</path>
			<line x1="0" y1="2246" x2="1539" y2="2246"/>
			<line x1="413" y1="0" x2="413" y2="3404"/>
			<path d="M472,2187L472,2187" tabindex="0">
				<title>00:21.87 on 2020-11-19</title>
			</path>
			<line x1="0" y1="2187" x2="1539" y2="2187"/>
			<line x1="472" y1="0" x2="472" y2="3404"/>
			<path d="M473,2082L473,2082" tabindex="0">
				<title>00:20.82 on 2020-11-20</title>
			</path>
			<line x1="0" y1="2082" x2="1539" y2="2082"/>
			<line x1="473" y1="0" x2="473" y2="3404"/>
			<path d="M1035,2032L1035,2032" tabindex="0">
				<title>00:20.32 on 2022-06-05</title>
			</path>
			<line x1="0" y1="2032" x2="1539" y2="2032"/>
			<line x1="1035" y1="0" x2="1035" y2="3404"/>
			<path d="M1062,1963L1062,1963" tabindex="0">
				<title>00:19.63 on 2022-07-02</title>
			</path>
			<line x1="0" y1="1963" x2="1539" y2="1963"/>
			<line x1="1062" y1="0" x2="1062" y2="3404"/>
			<path d="M1066,1953L1066,1953" tabindex="0">
				<title>00:19.53 on 2022-07-06</title>
			</path>
			<line x1="0" y1="1953" x2="1539" y2="1953"/>
			<line x1="1066" y1="0" x2="1066" y2="3404"/>
			<path d="M1379,1922L1379,1922" tabindex="0">
				<title>00:19.22 on 2023-05-15</title>
			</path>
			<line x1="0" y1="1922" x2="1539" y2="1922"/>
			<line x1="1379" y1="0" x2="1379" y2="3404"/>
		</g>
		<g style="--index: 3;">
			<path d="M471,2233L472,2233L472,2169L492,2169L492,2138" tabindex="0">
				<title>x7q00668</title>
			</path>
			<rect x="471" y="2138" width="21" height="95"/>
			<path d="M471,2233L471,2233" tabindex="0">
				<title>00:22.33 on 2020-11-18</title>
			</path>
			<line x1="0" y1="2233" x2="1539" y2="2233"/>
			<line x1="471" y1="0" x2="471" y2="3404"/>
			<path d="M472,2169L472,2169" tabindex="0">
				<title>00:21.69 on 2020-11-19</title>
			</path>
			<line x1="0" y1="2169" x2="1539" y2="2169"/>
			<line x1="472" y1="0" x2="472" y2="3404"/>
			<path d="M492,2138L492,2138" tabindex="0">
				<title>00:21.38 on 2020-12-09</title>
			</path>
			<line x1="0" y1="2138" x2="1539" y2="2138"/>
			<line x1="492" y1="0" x2="492" y2="3404"/>
		</g>
		<g style="--index: 4;">
			<path d="M572,2385L581,2385L581,2253" tabindex="0">
				<title>j0np7or8</title>
			</path>
			<rect x="572" y="2253" width="9" height="132"/>
			<path d="M572,2385L572,2385" tabindex="0">
				<title>00:23.85 on 2021-02-27</title>
			</path>
			<line x1="0" y1="2385" x2="1539" y2="2385"/>
			<line x1="572" y1="0" x2="572" y2="3404"/>
			<path d="M581,2253L581,2253" tabindex="0">
				<title>00:22.53 on 2021-03-08</title>
			</path>
			<line x1="0" y1="2253" x2="1539" y2="2253"/>
			<line x1="581" y1="0" x2="581" y2="3404"/>
		</g>
		<g style="--index: 5;">
			<path d="M1034,2034L1055,2034L1055,1968L1062,1968L1062,1955L1066,1955L1066,1946" tabindex="0">
				<title>j2yr9lp8</title>
			</path>
			<rect x="1034" y="1946" width="32" height="88"/>
			<path d="M1034,2034L1034,2034" tabindex="0">
				<title>00:20.34 on 2022-06-04</title>
			</path>
			<line x1="0" y1="2034" x2="1539" y2="2034"/>
			<line x1="1034" y1="0" x2="1034" y2="3404"/>
			<path d="M1055,1968L1055,1968" tabindex="0">
				<title>00:19.68 on 2022-06-25</title>
			</path>
			<line x1="0" y1="1968" x2="1539" y2="1968"/>
			<line x1="1055" y1="0" x2="1055" y2="3404"/>
			<path d="M1062,1955L1062,1955" tabindex="0">
				<title>00:19.55 on 2022-07-02</title>
			</path>
			<line x1="0" y1="1955" x2="1539" y2="1955"/>
			<line x1="1062" y1="0" x2="1062" y2="3404"/>
			<path d="M1066,1946L1066,1946" tabindex="0">
				<title>00:19.46 on 2022-07-06</title>
			</path>
			<line x1="0" y1="1946" x2="1539" y2="1946"/>
			<line x1="1066" y1="0" x2="1066" y2="3404"/>
		</g>
		<g style="--index: 6;">
			<path d="M1041,2103" tabindex="0">
				<title>xk3m6d68</title>
			</path>
			<rect x="1041" y="2103" width="0" height="0"/>
			<path d="M1041,2103L1041,2103" tabindex="0">
				<title>00:21.03 on 2022-06-11</title>
			</path>
			<line x1="0" y1="2103" x2="1539" y2="2103"/>
			<line x1="1041" y1="0" x2="1041" y2="3404"/>
		</g>
		<g style="--index: 7;">
			<path d="M1068,2444" tabindex="0">
				<title>j4235d5x</title>
			</path>
			<rect x="1068" y="2444" width="0" height="0"/>
			<path d="M1068,2444L1068,2444" tabindex="0">
				<title>00:24.44 on 2022-07-08</title>
			</path>
			<line x1="0" y1="2444" x2="1539" y2="2444"/>
			<line x1="1068" y1="0" x2="1068" y2="3404"/>
		</g>
		<g style="--index: 8;">
			<path d="M1366,1930L1379,1930L1379,1905" tabindex="0">
				<title>jn2m23wj</title>
			</path>
			<rect x="1366" y="1905" width="13" height="25"/>
			<path d="M1366,1930L1366,1930" tabindex="0">
				<title>00:19.30 on 2023-05-02</title>
			</path>
			<line x1="0" y1="1930" x2="1539" y2="1930"/>
			<line x1="1366" y1="0" x2="1366" y2="3404"/>
			<path d="M1379,1905L1379,1905" tabindex="0">
				<title>00:19.05 on 2023-05-15</title>
			</path>
			<line x1="0" y1="1905" x2="1539" y2="1905"/>
			<line x1="1379" y1="0" x2="1379" y2="3404"/>
		</g>
		<g style="--index: 9;">
			<path d="M1539,3404" tabindex="0">
				<title>8lr6ggr8</title>
			</path>
			<rect x="1539" y="3404" width="0" height="0"/>
			<path d="M1539,3404L1539,3404" tabindex="0">
				<title>00:34.04 on 2023-10-22</title>
			</path>
			<line x1="0" y1="3404" x2="1539" y2="3404"/>
			<line x1="1539" y1="0" x2="1539" y2="3404"/>
		</g>
	</g>
</svg>
