<svg xmlns="http://www.w3.org/2000/svg" viewBox="0 0 1356 7805" preserveAspectRatio="none" lang="en" style="color-scheme: dark light;">
	<title>Time by player for leaderboard l_rdqo542w-9d8eewld-wl30kw9l.klrp6ejq</title>
	<style>
		svg {
			background: var(--canvas-background);
			fill: var(--canvas-background);
			stroke: var(--canvas-foreground);
			stroke-linejoin: round;
			stroke-linecap: round;
		}
		g &gt; path[tabindex] {
			vector-effect: non-scaling-stroke;
			fill: none;
			stroke: hsl(calc(var(--index) / var(--count) * 360), 50%, 50%);
			cursor: help;
		}
		g:is(:hover, :focus-within) &gt; path[tabindex] {
			stroke: var(--canvas-foreground);
		}
		g &gt; path[tabindex]:is(:hover, :focus-within) {
			outline: 0;
		}
		g &gt; path[tabindex]:first-of-type {
			stroke-width: 2;
		}
		g &gt; path[tabindex]:first-of-type:is(:hover, :focus-within) {
			stroke-width: 4;
		}
		g &gt; path[tabindex]:first-of-type:not(:last-of-type) {
			stroke-dasharray: 4 8;
		}
		g &gt; rect {
			vector-effect: non-scaling-stroke;
			fill: none;
			stroke: none;
			pointer-events: none;
		}
		g &gt; path[tabindex]:first-of-type:is(:hover, :focus-within) + rect {
			fill: var(--highlighted);
		}
		g &gt; path[tabindex]:first-of-type ~ path[tabindex] {
			stroke-width: 8;
		}
		g &gt; path[tabindex]:first-of-type ~ path[tabindex]:is(:hover, :focus-within) {
			stroke-width: 16;
		}
		g &gt; line {
			vector-effect: non-scaling-stroke;
			fill: none;
			stroke: none;
			stroke-width: 2;
			stroke-dasharray: 4 8;
			pointer-events: none;
		}
		g &gt; path[tabindex]:first-of-type:is(:hover, :focus-within) + rect + path[tabindex] + line,
		g &gt; path[tabindex]:first-of-type:is(:hover, :focus-within) + rect + path[tabindex] + line + line,
		g &gt; path[tabindex]:first-of-type:is(:hover, :focus-within) ~ path[tabindex]:last-of-type + line,
		g &gt; path[tabindex]:first-of-type:is(:hover, :focus-within) ~ path[tabindex]:last-of-type + line + line,
		g &gt; path[tabindex]:first-of-type ~ path[tabindex]:is(:hover, :focus-within) + line,
		g &gt; path[tabindex]:first-of-type ~ path[tabindex]:is(:hover, :focus-within) + line + line {
			stroke: var(--faded);
		}
		@media (prefers-color-scheme: dark) {
			:root {
				--canvas-background: #000;
				--canvas-foreground: #ccc;
				--highlighted: #6663;
				--faded: #9993;
			}
		}
		@media (prefers-color-scheme: light) {
			:root {
				--canvas-background: #fff;
				--canvas-foreground: #333;
				--highlighted: #9993;
				--faded: #6663;
			}
		}
	</style>
	<g transform="scale(1 -1)" transform-origin="center center" style="--count: 7;">
		<g style="--index: 0;">
			<path d="M0,7805L385,7805L385,5918" tabindex="0">
				<title>y8dgoe98</title>
			</path>
			<rect x="0" y="5918" width="385" height="1887"/>
			<path d="M0,7805L0,7805" tabindex="0">
				<title>01:18.05 on 2019-08-05</title>
			</path>
			<line x1="0" y1="7805" x2="1356" y2="7805"/>
			<line x1="0" y1="0" x2="0" y2="7805"/>
			<path d="M385,5918L385,5918" tabindex="0">
				<title>00:59.18 on 2020-08-24</title>
			</path>
			<line x1="0" y1="5918" x2="1356" y2="5918"/>
			<line x1="385" y1="0" x2="385" y2="7805"/>
		</g>
		<g style="--index: 1;">
			<path d="M297,6358" tabindex="0">
				<title>x356nrej</title>
			</path>
			<rect x="297" y="6358" width="0" height="0"/>
			<path d="M297,6358L297,6358" tabindex="0">
				<title>01:03.58 on 2020-05-28</title>
			</path>
			<line x1="0" y1="6358" x2="1356" y2="6358"/>
			<line x1="297" y1="0" x2="297" y2="7805"/>
		</g>
		<g style="--index: 2;">
			<path d="M474,7634L536,7634L536,6101L539,6101L539,5985" tabindex="0">
				<title>x7q00668</title>
			</path>
			<rect x="474" y="5985" width="65" height="1649"/>
			<path d="M474,7634L474,7634" tabindex="0">
				<title>01:16.34 on 2020-11-21</title>
			</path>
			<line x1="0" y1="7634" x2="1356" y2="7634"/>
			<line x1="474" y1="0" x2="474" y2="7805"/>
			<path d="M536,6101L536,6101" tabindex="0">
				<title>01:01.01 on 2021-01-22</title>
			</path>
			<line x1="0" y1="6101" x2="1356" y2="6101"/>
			<line x1="536" y1="0" x2="536" y2="7805"/>
			<path d="M539,5985L539,5985" tabindex="0">
				<title>00:59.85 on 2021-01-25</title>
			</path>
			<line x1="0" y1="5985" x2="1356" y2="5985"/>
			<line x1="539" y1="0" x2="539" y2="7805"/>
		</g>
		<g style="--index: 3;">
			<path d="M520,5781" tabindex="0">
				<title>xkon93k8</title>
			</path>
			<rect x="520" y="5781" width="0" height="0"/>
			<path d="M520,5781L520,5781" tabindex="0">
				<title>00:57.81 on 2021-01-06</title>
			</path>
			<line x1="0" y1="5781" x2="1356" y2="5781"/>
			<line x1="520" y1="0" x2="520" y2="7805"/>
		</g>
		<g style="--index: 4;">
			<path d="M567,7038L608,7038L608,6697" tabindex="0">
				<title>j0np7or8</title>
			</path>
			<rect x="567" y="6697" width="41" height="341"/>
			<path d="M567,7038L567,7038" tabindex="0">
				<title>01:10.38 on 2021-02-22</title>
			</path>
			<line x1="0" y1="7038" x2="1356" y2="7038"/>
			<line x1="567" y1="0" x2="567" y2="7805"/>
			<path d="M608,6697L608,6697" tabindex="0">
				<title>01:06.97 on 2021-04-04</title>
			</path>
			<line x1="0" y1="6697" x2="1356" y2="6697"/>
			<line x1="608" y1="0" x2="608" y2="7805"/>
		</g>
		<g style="--index: 5;">
			<path d="M941,5630" tabindex="0">
				<title>j2yr9lp8</title>
			</path>
			<rect x="941" y="5630" width="0" height="0"/>
			<path d="M941,5630L941,5630" tabindex="0">
				<title>00:56.30 on 2022-03-03</title>
			</path>
			<line x1="0" y1="5630" x2="1356" y2="5630"/>
			<line x1="941" y1="0" x2="941" y2="7805"/>
		</g>
		<g style="--index: 6;">
			<path d="M1356,5417" tabindex="0">
				<title>jn2m23wj</title>
			</path>
			<rect x="1356" y="5417" width="0" height="0"/>
			<path d="M1356,5417L1356,5417" tabindex="0">
				<title>00:54.17 on 2023-04-22</title>
			</path>
			<line x1="0" y1="5417" x2="1356" y2="5417"/>
			<line x1="1356" y1="0" x2="1356" y2="7805"/>
		</g>
	</g>
</svg>
