<svg xmlns="http://www.w3.org/2000/svg" viewBox="0 0 1242 3055" preserveAspectRatio="none" lang="en" style="color-scheme: dark light;">
		<title>Time by player for leaderboard l_rdqo542w-9d8eewld-wl30kw9l.gq7jzvnq</title>
		<style>
			svg {
				background: var(--canvas-background);
				fill: var(--canvas-background);
				stroke: var(--canvas-foreground);
				stroke-linejoin: round;
				stroke-linecap: round;
			}
			g &gt; path[tabindex] {
				vector-effect: non-scaling-stroke;
				fill: none;
				stroke: hsl(calc(var(--index) / var(--count) * 360), 50%, 50%);
				cursor: help;
			}
			g:is(:hover, :focus-within) &gt; path[tabindex] {
				stroke: var(--canvas-foreground);
			}
			g &gt; path[tabindex]:is(:hover, :focus-within) {
				outline: 0;
			}
			g &gt; path[tabindex]:first-of-type {
				stroke-width: 2;
			}
			g &gt; path[tabindex]:first-of-type:is(:hover, :focus-within) {
				stroke-width: 4;
			}
			g &gt; path[tabindex]:first-of-type:not(:last-of-type) {
				stroke-dasharray: 4 8;
			}
			g &gt; rect {
				vector-effect: non-scaling-stroke;
				fill: none;
				stroke: none;
				pointer-events: none;
			}
			g &gt; path[tabindex]:first-of-type:is(:hover, :focus-within) + rect {
				fill: var(--highlighted);
			}
			g &gt; path[tabindex]:first-of-type ~ path[tabindex] {
				stroke-width: 8;
			}
			g &gt; path[tabindex]:first-of-type ~ path[tabindex]:is(:hover, :focus-within) {
				stroke-width: 16;
			}
			g &gt; line {
				vector-effect: non-scaling-stroke;
				fill: none;
				stroke: none;
				stroke-width: 2;
				stroke-dasharray: 4 8;
				pointer-events: none;
			}
			g &gt; path[tabindex]:first-of-type:is(:hover, :focus-within) + rect + path[tabindex] + line,
			g &gt; path[tabindex]:first-of-type:is(:hover, :focus-within) + rect + path[tabindex] + line + line,
			g &gt; path[tabindex]:first-of-type:is(:hover, :focus-within) ~ path[tabindex]:last-of-type + line,
			g &gt; path[tabindex]:first-of-type:is(:hover, :focus-within) ~ path[tabindex]:last-of-type + line + line,
			g &gt; path[tabindex]:first-of-type ~ path[tabindex]:is(:hover, :focus-within) + line,
			g &gt; path[tabindex]:first-of-type ~ path[tabindex]:is(:hover, :focus-within) + line + line {
				stroke: var(--faded);
			}
			@media (prefers-color-scheme: dark) {
				:root {
					--canvas-background: #000;
					--canvas-foreground: #ccc;
					--highlighted: #6663;
					--faded: #9993;
				}
			}
			@media (prefers-color-scheme: light) {
				:root {
					--canvas-background: #fff;
					--canvas-foreground: #333;
					--highlighted: #9993;
					--faded: #6663;
				}
			}
		</style>
		<g transform="scale(1 -1)" transform-origin="center center" style="--count: 8;">
		<g style="--index: 0;">
			<path d="M0,3036L94,3036L94,2917L165,2917L165,2596" tabindex="0">
				<title>x356nrej</title>
			</path>
			<rect x="0" y="2596" width="165" height="440"/>
			<path d="M0,3036L0,3036" tabindex="0">
				<title>00:30.36 on 2020-05-28</title>
			</path>
			<line x1="0" y1="3036" x2="1242" y2="3036"/>
			<line x1="0" y1="0" x2="0" y2="3055"/>
			<path d="M94,2917L94,2917" tabindex="0">
				<title>00:29.17 on 2020-08-30</title>
			</path>
			<line x1="0" y1="2917" x2="1242" y2="2917"/>
			<line x1="94" y1="0" x2="94" y2="3055"/>
			<path d="M165,2596L165,2596" tabindex="0">
				<title>00:25.96 on 2020-11-09</title>
			</path>
			<line x1="0" y1="2596" x2="1242" y2="2596"/>
			<line x1="165" y1="0" x2="165" y2="3055"/>
		</g>
		<g style="--index: 1;">
			<path d="M94,2801L177,2801L177,2413L737,2413L737,2060" tabindex="0">
				<title>j2yr9lp8</title>
			</path>
			<rect x="94" y="2060" width="643" height="741"/>
			<path d="M94,2801L94,2801" tabindex="0">
				<title>00:28.01 on 2020-08-30</title>
			</path>
			<line x1="0" y1="2801" x2="1242" y2="2801"/>
			<line x1="94" y1="0" x2="94" y2="3055"/>
			<path d="M177,2413L177,2413" tabindex="0">
				<title>00:24.13 on 2020-11-21</title>
			</path>
			<line x1="0" y1="2413" x2="1242" y2="2413"/>
			<line x1="177" y1="0" x2="177" y2="3055"/>
			<path d="M737,2060L737,2060" tabindex="0">
				<title>00:20.60 on 2022-06-04</title>
			</path>
			<line x1="0" y1="2060" x2="1242" y2="2060"/>
			<line x1="737" y1="0" x2="737" y2="3055"/>
		</g>
		<g style="--index: 2;">
			<path d="M152,2767L171,2767L171,2482L178,2482L178,2402L189,2402L189,2338L206,2338L206,2193" tabindex="0">
				<title>xkon93k8</title>
			</path>
			<rect x="152" y="2193" width="54" height="574"/>
			<path d="M152,2767L152,2767" tabindex="0">
				<title>00:27.67 on 2020-10-27</title>
			</path>
			<line x1="0" y1="2767" x2="1242" y2="2767"/>
			<line x1="152" y1="0" x2="152" y2="3055"/>
			<path d="M171,2482L171,2482" tabindex="0">
				<title>00:24.82 on 2020-11-15</title>
			</path>
			<line x1="0" y1="2482" x2="1242" y2="2482"/>
			<line x1="171" y1="0" x2="171" y2="3055"/>
			<path d="M178,2402L178,2402" tabindex="0">
				<title>00:24.02 on 2020-11-22</title>
			</path>
			<line x1="0" y1="2402" x2="1242" y2="2402"/>
			<line x1="178" y1="0" x2="178" y2="3055"/>
			<path d="M189,2338L189,2338" tabindex="0">
				<title>00:23.38 on 2020-12-03</title>
			</path>
			<line x1="0" y1="2338" x2="1242" y2="2338"/>
			<line x1="189" y1="0" x2="189" y2="3055"/>
			<path d="M206,2193L206,2193" tabindex="0">
				<title>00:21.93 on 2020-12-20</title>
			</path>
			<line x1="0" y1="2193" x2="1242" y2="2193"/>
			<line x1="206" y1="0" x2="206" y2="3055"/>
		</g>
		<g style="--index: 3;">
			<path d="M176,2755L232,2755L232,2492" tabindex="0">
				<title>x7q00668</title>
			</path>
			<rect x="176" y="2492" width="56" height="263"/>
			<path d="M176,2755L176,2755" tabindex="0">
				<title>00:27.55 on 2020-11-20</title>
			</path>
			<line x1="0" y1="2755" x2="1242" y2="2755"/>
			<line x1="176" y1="0" x2="176" y2="3055"/>
			<path d="M232,2492L232,2492" tabindex="0">
				<title>00:24.92 on 2021-01-15</title>
			</path>
			<line x1="0" y1="2492" x2="1242" y2="2492"/>
			<line x1="232" y1="0" x2="232" y2="3055"/>
		</g>
		<g style="--index: 4;">
			<path d="M262,2742" tabindex="0">
				<title>j0np7or8</title>
			</path>
			<rect x="262" y="2742" width="0" height="0"/>
			<path d="M262,2742L262,2742" tabindex="0">
				<title>00:27.42 on 2021-02-14</title>
			</path>
			<line x1="0" y1="2742" x2="1242" y2="2742"/>
			<line x1="262" y1="0" x2="262" y2="3055"/>
		</g>
		<g style="--index: 5;">
			<path d="M926,3055" tabindex="0">
				<title>8g0ezgyx</title>
			</path>
			<rect x="926" y="3055" width="0" height="0"/>
			<path d="M926,3055L926,3055" tabindex="0">
				<title>00:30.55 on 2022-12-10</title>
			</path>
			<line x1="0" y1="3055" x2="1242" y2="3055"/>
			<line x1="926" y1="0" x2="926" y2="3055"/>
		</g>
		<g style="--index: 6;">
			<path d="M1043,2036L1060,2036L1060,1984L1078,1984L1078,1952L1141,1952L1141,1878" tabindex="0">
				<title>jn2m23wj</title>
			</path>
			<rect x="1043" y="1878" width="98" height="158"/>
			<path d="M1043,2036L1043,2036" tabindex="0">
				<title>00:20.36 on 2023-04-06</title>
			</path>
			<line x1="0" y1="2036" x2="1242" y2="2036"/>
			<line x1="1043" y1="0" x2="1043" y2="3055"/>
			<path d="M1060,1984L1060,1984" tabindex="0">
				<title>00:19.84 on 2023-04-23</title>
			</path>
			<line x1="0" y1="1984" x2="1242" y2="1984"/>
			<line x1="1060" y1="0" x2="1060" y2="3055"/>
			<path d="M1078,1952L1078,1952" tabindex="0">
				<title>00:19.52 on 2023-05-11</title>
			</path>
			<line x1="0" y1="1952" x2="1242" y2="1952"/>
			<line x1="1078" y1="0" x2="1078" y2="3055"/>
			<path d="M1141,1878L1141,1878" tabindex="0">
				<title>00:18.78 on 2023-07-13</title>
			</path>
			<line x1="0" y1="1878" x2="1242" y2="1878"/>
			<line x1="1141" y1="0" x2="1141" y2="3055"/>
		</g>
		<g style="--index: 7;">
			<path d="M1242,2205" tabindex="0">
				<title>x3wdlvkj</title>
			</path>
			<rect x="1242" y="2205" width="0" height="0"/>
			<path d="M1242,2205L1242,2205" tabindex="0">
				<title>00:22.05 on 2023-10-22</title>
			</path>
			<line x1="0" y1="2205" x2="1242" y2="2205"/>
			<line x1="1242" y1="0" x2="1242" y2="3055"/>
		</g>
	</g>
</svg>
