<svg xmlns="http://www.w3.org/2000/svg" viewBox="0 0 1039 2429" preserveAspectRatio="none" lang="en" style="color-scheme: dark light;">
	<title>Time by player for leaderboard l_rdqo542w-9d8eewld-wl30kw9l.klrp6e0q</title>
	<style>
		svg {
			background: var(--canvas-background);
			fill: var(--canvas-background);
			stroke: var(--canvas-foreground);
			stroke-linejoin: round;
			stroke-linecap: round;
		}
		g &gt; path[tabindex] {
			vector-effect: non-scaling-stroke;
			fill: none;
			stroke: hsl(calc(var(--index) / var(--count) * 360), 50%, 50%);
			cursor: help;
		}
		g:is(:hover, :focus-within) &gt; path[tabindex] {
			stroke: var(--canvas-foreground);
		}
		g &gt; path[tabindex]:is(:hover, :focus-within) {
			outline: 0;
		}
		g &gt; path[tabindex]:first-of-type {
			stroke-width: 2;
		}
		g &gt; path[tabindex]:first-of-type:is(:hover, :focus-within) {
			stroke-width: 4;
		}
		g &gt; path[tabindex]:first-of-type:not(:last-of-type) {
			stroke-dasharray: 4 8;
		}
		g &gt; rect {
			vector-effect: non-scaling-stroke;
			fill: none;
			stroke: none;
			pointer-events: none;
		}
		g &gt; path[tabindex]:first-of-type:is(:hover, :focus-within) + rect {
			fill: var(--highlighted);
		}
		g &gt; path[tabindex]:first-of-type ~ path[tabindex] {
			stroke-width: 8;
		}
		g &gt; path[tabindex]:first-of-type ~ path[tabindex]:is(:hover, :focus-within) {
			stroke-width: 16;
		}
		g &gt; line {
			vector-effect: non-scaling-stroke;
			fill: none;
			stroke: none;
			stroke-width: 2;
			stroke-dasharray: 4 8;
			pointer-events: none;
		}
		g &gt; path[tabindex]:first-of-type:is(:hover, :focus-within) + rect + path[tabindex] + line,
		g &gt; path[tabindex]:first-of-type:is(:hover, :focus-within) + rect + path[tabindex] + line + line,
		g &gt; path[tabindex]:first-of-type:is(:hover, :focus-within) ~ path[tabindex]:last-of-type + line,
		g &gt; path[tabindex]:first-of-type:is(:hover, :focus-within) ~ path[tabindex]:last-of-type + line + line,
		g &gt; path[tabindex]:first-of-type ~ path[tabindex]:is(:hover, :focus-within) + line,
		g &gt; path[tabindex]:first-of-type ~ path[tabindex]:is(:hover, :focus-within) + line + line {
			stroke: var(--faded);
		}
		@media (prefers-color-scheme: dark) {
			:root {
				--canvas-background: #000;
				--canvas-foreground: #ccc;
				--highlighted: #6663;
				--faded: #9993;
			}
		}
		@media (prefers-color-scheme: light) {
			:root {
				--canvas-background: #fff;
				--canvas-foreground: #333;
				--highlighted: #9993;
				--faded: #6663;
			}
		}
	</style>
	<g transform="scale(1 -1)" transform-origin="center center" style="--count: 7;">
		<g style="--index: 0;">
			<path d="M0,2429" tabindex="0">
				<title>x356nrej</title>
			</path>
			<rect x="0" y="2429" width="0" height="0"/>
			<path d="M0,2429L0,2429" tabindex="0">
				<title>00:24.29 on 2020-05-26</title>
			</path>
			<line x1="0" y1="2429" x2="1039" y2="2429"/>
			<line x1="0" y1="0" x2="0" y2="2429"/>
		</g>
		<g style="--index: 1;">
			<path d="M53,2316L97,2316L97,2269" tabindex="0">
				<title>18vm2258</title>
			</path>
			<rect x="53" y="2269" width="44" height="47"/>
			<path d="M53,2316L53,2316" tabindex="0">
				<title>00:23.16 on 2020-07-18</title>
			</path>
			<line x1="0" y1="2316" x2="1039" y2="2316"/>
			<line x1="53" y1="0" x2="53" y2="2429"/>
			<path d="M97,2269L97,2269" tabindex="0">
				<title>00:22.69 on 2020-08-31</title>
			</path>
			<line x1="0" y1="2269" x2="1039" y2="2269"/>
			<line x1="97" y1="0" x2="97" y2="2429"/>
		</g>
		<g style="--index: 2;">
			<path d="M179,1952L192,1952L192,1864L222,1864L222,1820" tabindex="0">
				<title>xkon93k8</title>
			</path>
			<rect x="179" y="1820" width="43" height="132"/>
			<path d="M179,1952L179,1952" tabindex="0">
				<title>00:19.52 on 2020-11-21</title>
			</path>
			<line x1="0" y1="1952" x2="1039" y2="1952"/>
			<line x1="179" y1="0" x2="179" y2="2429"/>
			<path d="M192,1864L192,1864" tabindex="0">
				<title>00:18.64 on 2020-12-04</title>
			</path>
			<line x1="0" y1="1864" x2="1039" y2="1864"/>
			<line x1="192" y1="0" x2="192" y2="2429"/>
			<path d="M222,1820L222,1820" tabindex="0">
				<title>00:18.20 on 2021-01-03</title>
			</path>
			<line x1="0" y1="1820" x2="1039" y2="1820"/>
			<line x1="222" y1="0" x2="222" y2="2429"/>
		</g>
		<g style="--index: 3;">
			<path d="M179,2311L221,2311L221,1839" tabindex="0">
				<title>x7q00668</title>
			</path>
			<rect x="179" y="1839" width="42" height="472"/>
			<path d="M179,2311L179,2311" tabindex="0">
				<title>00:23.11 on 2020-11-21</title>
			</path>
			<line x1="0" y1="2311" x2="1039" y2="2311"/>
			<line x1="179" y1="0" x2="179" y2="2429"/>
			<path d="M221,1839L221,1839" tabindex="0">
				<title>00:18.39 on 2021-01-02</title>
			</path>
			<line x1="0" y1="1839" x2="1039" y2="1839"/>
			<line x1="221" y1="0" x2="221" y2="2429"/>
		</g>
		<g style="--index: 4;">
			<path d="M264,2337L286,2337L286,2107" tabindex="0">
				<title>j0np7or8</title>
			</path>
			<rect x="264" y="2107" width="22" height="230"/>
			<path d="M264,2337L264,2337" tabindex="0">
				<title>00:23.37 on 2021-02-14</title>
			</path>
			<line x1="0" y1="2337" x2="1039" y2="2337"/>
			<line x1="264" y1="0" x2="264" y2="2429"/>
			<path d="M286,2107L286,2107" tabindex="0">
				<title>00:21.07 on 2021-03-08</title>
			</path>
			<line x1="0" y1="2107" x2="1039" y2="2107"/>
			<line x1="286" y1="0" x2="286" y2="2429"/>
		</g>
		<g style="--index: 5;">
			<path d="M608,1798" tabindex="0">
				<title>j2yr9lp8</title>
			</path>
			<rect x="608" y="1798" width="0" height="0"/>
			<path d="M608,1798L608,1798" tabindex="0">
				<title>00:17.98 on 2022-01-24</title>
			</path>
			<line x1="0" y1="1798" x2="1039" y2="1798"/>
			<line x1="608" y1="0" x2="608" y2="2429"/>
		</g>
		<g style="--index: 6;">
			<path d="M1039,1762" tabindex="0">
				<title>jn2m23wj</title>
			</path>
			<rect x="1039" y="1762" width="0" height="0"/>
			<path d="M1039,1762L1039,1762" tabindex="0">
				<title>00:17.62 on 2023-03-31</title>
			</path>
			<line x1="0" y1="1762" x2="1039" y2="1762"/>
			<line x1="1039" y1="0" x2="1039" y2="2429"/>
		</g>
	</g>
</svg>
