<svg xmlns="http://www.w3.org/2000/svg" viewBox="0 0 1321 19000" preserveAspectRatio="none" lang="en" style="color-scheme: dark light;">
		<title>Time by player for leaderboard l_rdqo542w-9d8eewld-wl30kw9l.jqzpyrgl</title>
		<style>
			svg {
				background: var(--canvas-background);
				fill: var(--canvas-background);
				stroke: var(--canvas-foreground);
				stroke-linejoin: round;
				stroke-linecap: round;
			}
			g &gt; path[tabindex] {
				vector-effect: non-scaling-stroke;
				fill: none;
				stroke: hsl(calc(var(--index) / var(--count) * 360), 50%, 50%);
				cursor: help;
			}
			g:is(:hover, :focus-within) &gt; path[tabindex] {
				stroke: var(--canvas-foreground);
			}
			g &gt; path[tabindex]:is(:hover, :focus-within) {
				outline: 0;
			}
			g &gt; path[tabindex]:first-of-type {
				stroke-width: 2;
			}
			g &gt; path[tabindex]:first-of-type:is(:hover, :focus-within) {
				stroke-width: 4;
			}
			g &gt; path[tabindex]:first-of-type:not(:last-of-type) {
				stroke-dasharray: 4 8;
			}
			g &gt; rect {
				vector-effect: non-scaling-stroke;
				fill: none;
				stroke: none;
				pointer-events: none;
			}
			g &gt; path[tabindex]:first-of-type:is(:hover, :focus-within) + rect {
				fill: var(--highlighted);
			}
			g &gt; path[tabindex]:first-of-type ~ path[tabindex] {
				stroke-width: 8;
			}
			g &gt; path[tabindex]:first-of-type ~ path[tabindex]:is(:hover, :focus-within) {
				stroke-width: 16;
			}
			g &gt; line {
				vector-effect: non-scaling-stroke;
				fill: none;
				stroke: none;
				stroke-width: 2;
				stroke-dasharray: 4 8;
				pointer-events: none;
			}
			g &gt; path[tabindex]:first-of-type:is(:hover, :focus-within) + rect + path[tabindex] + line,
			g &gt; path[tabindex]:first-of-type:is(:hover, :focus-within) + rect + path[tabindex] + line + line,
			g &gt; path[tabindex]:first-of-type:is(:hover, :focus-within) ~ path[tabindex]:last-of-type + line,
			g &gt; path[tabindex]:first-of-type:is(:hover, :focus-within) ~ path[tabindex]:last-of-type + line + line,
			g &gt; path[tabindex]:first-of-type ~ path[tabindex]:is(:hover, :focus-within) + line,
			g &gt; path[tabindex]:first-of-type ~ path[tabindex]:is(:hover, :focus-within) + line + line {
				stroke: var(--faded);
			}
			@media (prefers-color-scheme: dark) {
				:root {
					--canvas-background: #000;
					--canvas-foreground: #ccc;
					--highlighted: #6663;
					--faded: #9993;
				}
			}
			@media (prefers-color-scheme: light) {
				:root {
					--canvas-background: #fff;
					--canvas-foreground: #333;
					--highlighted: #9993;
					--faded: #6663;
				}
			}
		</style>
		<g style="--count: 9;">
		<g style="--index: 0;">
			<path d="M0,1308" tabindex="0">
				<title>x356nrej</title>
			</path>
			<rect x="0" y="1308" width="0" height="0"/>
			<path d="M0,1308L0,1308" tabindex="0">
				<title>02:56.92 on 2020-05-12</title>
			</path>
			<line x1="0" y1="1308" x2="1321" y2="1308"/>
			<line x1="0" y1="19000" x2="0" y2="0"/>
		</g>
		<g style="--index: 1;">
			<path d="M182,1597L227,1597L227,1834" tabindex="0">
				<title>xkon93k8</title>
			</path>
			<rect x="182" y="1597" width="45" height="237"/>
			<path d="M182,1597L182,1597" tabindex="0">
				<title>02:54.03 on 2020-11-10</title>
			</path>
			<line x1="0" y1="1597" x2="1321" y2="1597"/>
			<line x1="182" y1="19000" x2="182" y2="0"/>
			<path d="M227,1834L227,1834" tabindex="0">
				<title>02:51.66 on 2020-12-25</title>
			</path>
			<line x1="0" y1="1834" x2="1321" y2="1834"/>
			<line x1="227" y1="19000" x2="227" y2="0"/>
		</g>
		<g style="--index: 2;">
			<path d="M195,1509" tabindex="0">
				<title>x7q00668</title>
			</path>
			<rect x="195" y="1509" width="0" height="0"/>
			<path d="M195,1509L195,1509" tabindex="0">
				<title>02:54.91 on 2020-11-23</title>
			</path>
			<line x1="0" y1="1509" x2="1321" y2="1509"/>
			<line x1="195" y1="19000" x2="195" y2="0"/>
		</g>
		<g style="--index: 3;">
			<path d="M242,1381" tabindex="0">
				<title>j0np7or8</title>
			</path>
			<rect x="242" y="1381" width="0" height="0"/>
			<path d="M242,1381L242,1381" tabindex="0">
				<title>02:56.19 on 2021-01-09</title>
			</path>
			<line x1="0" y1="1381" x2="1321" y2="1381"/>
			<line x1="242" y1="19000" x2="242" y2="0"/>
		</g>
		<g style="--index: 4;">
			<path d="M331,2031" tabindex="0">
				<title>j2yr9lp8</title>
			</path>
			<rect x="331" y="2031" width="0" height="0"/>
			<path d="M331,2031L331,2031" tabindex="0">
				<title>02:49.69 on 2021-04-08</title>
			</path>
			<line x1="0" y1="2031" x2="1321" y2="2031"/>
			<line x1="331" y1="19000" x2="331" y2="0"/>
		</g>
		<g style="--index: 5;">
			<path d="M400,0" tabindex="0">
				<title>x7mk3z6x</title>
			</path>
			<rect x="400" y="0" width="0" height="0"/>
			<path d="M400,0L400,0" tabindex="0">
				<title>03:10.00 on 2021-06-16</title>
			</path>
			<line x1="0" y1="0" x2="1321" y2="0"/>
			<line x1="400" y1="19000" x2="400" y2="0"/>
		</g>
		<g style="--index: 6;">
			<path d="M787,1209" tabindex="0">
				<title>j4235d5x</title>
			</path>
			<rect x="787" y="1209" width="0" height="0"/>
			<path d="M787,1209L787,1209" tabindex="0">
				<title>02:57.91 on 2022-07-08</title>
			</path>
			<line x1="0" y1="1209" x2="1321" y2="1209"/>
			<line x1="787" y1="19000" x2="787" y2="0"/>
		</g>
		<g style="--index: 7;">
			<path d="M824,17" tabindex="0">
				<title>xk39ok68</title>
			</path>
			<rect x="824" y="17" width="0" height="0"/>
			<path d="M824,17L824,17" tabindex="0">
				<title>03:09.83 on 2022-08-14</title>
			</path>
			<line x1="0" y1="17" x2="1321" y2="17"/>
			<line x1="824" y1="19000" x2="824" y2="0"/>
		</g>
		<g style="--index: 8;">
			<path d="M1321,2371" tabindex="0">
				<title>jn2m23wj</title>
			</path>
			<rect x="1321" y="2371" width="0" height="0"/>
			<path d="M1321,2371L1321,2371" tabindex="0">
				<title>02:46.29 on 2023-12-24</title>
			</path>
			<line x1="0" y1="2371" x2="1321" y2="2371"/>
			<line x1="1321" y1="19000" x2="1321" y2="0"/>
		</g>
	</g>
</svg>
