<svg xmlns="http://www.w3.org/2000/svg" viewBox="0 0 344 19185" preserveAspectRatio="none" lang="en" style="color-scheme: dark light;">
		<title>Time by player for leaderboard l_rdqo542w-9d8eewld-wl30kw9l.810dx3wl</title>
		<style>
			svg {
				background: var(--canvas-background);
				fill: var(--canvas-background);
				stroke: var(--canvas-foreground);
				stroke-linejoin: round;
				stroke-linecap: round;
			}
			g &gt; path[tabindex] {
				vector-effect: non-scaling-stroke;
				fill: none;
				stroke: hsl(calc(var(--index) / var(--count) * 360), 50%, 50%);
				cursor: help;
			}
			g:is(:hover, :focus-within) &gt; path[tabindex] {
				stroke: var(--canvas-foreground);
			}
			g &gt; path[tabindex]:is(:hover, :focus-within) {
				outline: 0;
			}
			g &gt; path[tabindex]:first-of-type {
				stroke-width: 2;
			}
			g &gt; path[tabindex]:first-of-type:is(:hover, :focus-within) {
				stroke-width: 4;
			}
			g &gt; path[tabindex]:first-of-type:not(:last-of-type) {
				stroke-dasharray: 4 8;
			}
			g &gt; rect {
				vector-effect: non-scaling-stroke;
				fill: none;
				stroke: none;
				pointer-events: none;
			}
			g &gt; path[tabindex]:first-of-type:is(:hover, :focus-within) + rect {
				fill: var(--highlighted);
			}
			g &gt; path[tabindex]:first-of-type ~ path[tabindex] {
				stroke-width: 8;
			}
			g &gt; path[tabindex]:first-of-type ~ path[tabindex]:is(:hover, :focus-within) {
				stroke-width: 16;
			}
			g &gt; line {
				vector-effect: non-scaling-stroke;
				fill: none;
				stroke: none;
				stroke-width: 2;
				stroke-dasharray: 4 8;
				pointer-events: none;
			}
			g &gt; path[tabindex]:first-of-type:is(:hover, :focus-within) + rect + path[tabindex] + line,
			g &gt; path[tabindex]:first-of-type:is(:hover, :focus-within) + rect + path[tabindex] + line + line,
			g &gt; path[tabindex]:first-of-type:is(:hover, :focus-within) ~ path[tabindex]:last-of-type + line,
			g &gt; path[tabindex]:first-of-type:is(:hover, :focus-within) ~ path[tabindex]:last-of-type + line + line,
			g &gt; path[tabindex]:first-of-type ~ path[tabindex]:is(:hover, :focus-within) + line,
			g &gt; path[tabindex]:first-of-type ~ path[tabindex]:is(:hover, :focus-within) + line + line {
				stroke: var(--faded);
			}
			@media (prefers-color-scheme: dark) {
				:root {
					--canvas-background: #000;
					--canvas-foreground: #ccc;
					--highlighted: #6663;
					--faded: #9993;
				}
			}
			@media (prefers-color-scheme: light) {
				:root {
					--canvas-background: #fff;
					--canvas-foreground: #333;
					--highlighted: #9993;
					--faded: #6663;
				}
			}
		</style>
		<g transform="scale(1 -1)" transform-origin="center center" style="--count: 7;">
		<g style="--index: 0;">
			<path d="M0,19042" tabindex="0">
				<title>jm3y0go8</title>
			</path>
			<rect x="0" y="19042" width="0" height="0"/>
			<path d="M0,19042L0,19042" tabindex="0">
				<title>03:10.42 on 2022-12-26</title>
			</path>
			<line x1="0" y1="19042" x2="344" y2="19042"/>
			<line x1="0" y1="0" x2="0" y2="19185"/>
		</g>
		<g style="--index: 1;">
			<path d="M48,18756L78,18756L78,18576" tabindex="0">
				<title>joovynnj</title>
			</path>
			<rect x="48" y="18576" width="30" height="180"/>
			<path d="M48,18756L48,18756" tabindex="0">
				<title>03:07.56 on 2023-02-12</title>
			</path>
			<line x1="0" y1="18756" x2="344" y2="18756"/>
			<line x1="48" y1="0" x2="48" y2="19185"/>
			<path d="M78,18576L78,18576" tabindex="0">
				<title>03:05.76 on 2023-03-14</title>
			</path>
			<line x1="0" y1="18576" x2="344" y2="18576"/>
			<line x1="78" y1="0" x2="78" y2="19185"/>
		</g>
		<g style="--index: 2;">
			<path d="M56,19185L57,19185L57,18995" tabindex="0">
				<title>8640og3j</title>
			</path>
			<rect x="56" y="18995" width="1" height="190"/>
			<path d="M56,19185L56,19185" tabindex="0">
				<title>03:11.85 on 2023-02-20</title>
			</path>
			<line x1="0" y1="19185" x2="344" y2="19185"/>
			<line x1="56" y1="0" x2="56" y2="19185"/>
			<path d="M57,18995L57,18995" tabindex="0">
				<title>03:09.95 on 2023-02-21</title>
			</path>
			<line x1="0" y1="18995" x2="344" y2="18995"/>
			<line x1="57" y1="0" x2="57" y2="19185"/>
		</g>
		<g style="--index: 3;">
			<path d="M64,18687" tabindex="0">
				<title>8q6k30oj</title>
			</path>
			<rect x="64" y="18687" width="0" height="0"/>
			<path d="M64,18687L64,18687" tabindex="0">
				<title>03:06.87 on 2023-02-28</title>
			</path>
			<line x1="0" y1="18687" x2="344" y2="18687"/>
			<line x1="64" y1="0" x2="64" y2="19185"/>
		</g>
		<g style="--index: 4;">
			<path d="M94,17842L95,17842L95,17499" tabindex="0">
				<title>8wlq9g3j</title>
			</path>
			<rect x="94" y="17499" width="1" height="343"/>
			<path d="M94,17842L94,17842" tabindex="0">
				<title>02:58.42 on 2023-03-30</title>
			</path>
			<line x1="0" y1="17842" x2="344" y2="17842"/>
			<line x1="94" y1="0" x2="94" y2="19185"/>
			<path d="M95,17499L95,17499" tabindex="0">
				<title>02:54.99 on 2023-03-31</title>
			</path>
			<line x1="0" y1="17499" x2="344" y2="17499"/>
			<line x1="95" y1="0" x2="95" y2="19185"/>
		</g>
		<g style="--index: 5;">
			<path d="M167,17468" tabindex="0">
				<title>xkon93k8</title>
			</path>
			<rect x="167" y="17468" width="0" height="0"/>
			<path d="M167,17468L167,17468" tabindex="0">
				<title>02:54.68 on 2023-06-11</title>
			</path>
			<line x1="0" y1="17468" x2="344" y2="17468"/>
			<line x1="167" y1="0" x2="167" y2="19185"/>
		</g>
		<g style="--index: 6;">
			<path d="M344,17261" tabindex="0">
				<title>jn2m23wj</title>
			</path>
			<rect x="344" y="17261" width="0" height="0"/>
			<path d="M344,17261L344,17261" tabindex="0">
				<title>02:52.61 on 2023-12-05</title>
			</path>
			<line x1="0" y1="17261" x2="344" y2="17261"/>
			<line x1="344" y1="0" x2="344" y2="19185"/>
		</g>
	</g>
</svg>
