<svg xmlns="http://www.w3.org/2000/svg" viewBox="0 0 1356 7805" preserveAspectRatio="none" lang="en" style="color-scheme: dark light;">
		<title>Time by player for leaderboard l_rdqo542w-9d8eewld-wl30kw9l.klrp6ejq</title>
		<style>
			svg {
				background: var(--canvas-background);
				fill: var(--canvas-background);
				stroke: var(--canvas-foreground);
				stroke-linejoin: round;
				stroke-linecap: round;
			}
			g &gt; path[tabindex] {
				vector-effect: non-scaling-stroke;
				fill: none;
				stroke: hsl(calc(var(--index) / var(--count) * 360), 50%, 50%);
				cursor: help;
			}
			g:is(:hover, :focus-within) &gt; path[tabindex] {
				stroke: var(--canvas-foreground);
			}
			g &gt; path[tabindex]:is(:hover, :focus-within) {
				outline: 0;
			}
			g &gt; path[tabindex]:first-of-type {
				stroke-width: 2;
			}
			g &gt; path[tabindex]:first-of-type:is(:hover, :focus-within) {
				stroke-width: 4;
			}
			g &gt; path[tabindex]:first-of-type:not(:last-of-type) {
				stroke-dasharray: 4 8;
			}
			g &gt; rect {
				vector-effect: non-scaling-stroke;
				fill: none;
				stroke: none;
				pointer-events: none;
			}
			g &gt; path[tabindex]:first-of-type:is(:hover, :focus-within) + rect {
				fill: var(--highlighted);
			}
			g &gt; path[tabindex]:first-of-type ~ path[tabindex] {
				stroke-width: 8;
			}
			g &gt; path[tabindex]:first-of-type ~ path[tabindex]:is(:hover, :focus-within) {
				stroke-width: 16;
			}
			g &gt; line {
				vector-effect: non-scaling-stroke;
				fill: none;
				stroke: none;
				stroke-width: 2;
				stroke-dasharray: 4 8;
				pointer-events: none;
			}
			g &gt; path[tabindex]:first-of-type:is(:hover, :focus-within) + rect + path[tabindex] + line,
			g &gt; path[tabindex]:first-of-type:is(:hover, :focus-within) + rect + path[tabindex] + line + line,
			g &gt; path[tabindex]:first-of-type:is(:hover, :focus-within) ~ path[tabindex]:last-of-type + line,
			g &gt; path[tabindex]:first-of-type:is(:hover, :focus-within) ~ path[tabindex]:last-of-type + line + line,
			g &gt; path[tabindex]:first-of-type ~ path[tabindex]:is(:hover, :focus-within) + line,
			g &gt; path[tabindex]:first-of-type ~ path[tabindex]:is(:hover, :focus-within) + line + line {
				stroke: var(--faded);
			}
			@media (prefers-color-scheme: dark) {
				:root {
					--canvas-background: #000;
					--canvas-foreground: #ccc;
					--highlighted: #6663;
					--faded: #9993;
				}
			}
			@media (prefers-color-scheme: light) {
				:root {
					--canvas-background: #fff;
					--canvas-foreground: #333;
					--highlighted: #9993;
					--faded: #6663;
				}
			}
		</style>
		<g style="--count: 7;">
		<g style="--index: 0;">
			<path d="M0,0L385,0L385,1887" tabindex="0">
				<title>y8dgoe98</title>
			</path>
			<rect x="0" y="0" width="385" height="1887"/>
			<path d="M0,0L0,0" tabindex="0">
				<title>01:18.05 on 2019-08-05</title>
			</path>
			<line x1="0" y1="0" x2="1356" y2="0"/>
			<line x1="0" y1="7805" x2="0" y2="0"/>
			<path d="M385,1887L385,1887" tabindex="0">
				<title>00:59.18 on 2020-08-24</title>
			</path>
			<line x1="0" y1="1887" x2="1356" y2="1887"/>
			<line x1="385" y1="7805" x2="385" y2="0"/>
		</g>
		<g style="--index: 1;">
			<path d="M297,1447" tabindex="0">
				<title>x356nrej</title>
			</path>
			<rect x="297" y="1447" width="0" height="0"/>
			<path d="M297,1447L297,1447" tabindex="0">
				<title>01:03.58 on 2020-05-28</title>
			</path>
			<line x1="0" y1="1447" x2="1356" y2="1447"/>
			<line x1="297" y1="7805" x2="297" y2="0"/>
		</g>
		<g style="--index: 2;">
			<path d="M474,171L536,171L536,1704L539,1704L539,1820" tabindex="0">
				<title>x7q00668</title>
			</path>
			<rect x="474" y="171" width="65" height="1649"/>
			<path d="M474,171L474,171" tabindex="0">
				<title>01:16.34 on 2020-11-21</title>
			</path>
			<line x1="0" y1="171" x2="1356" y2="171"/>
			<line x1="474" y1="7805" x2="474" y2="0"/>
			<path d="M536,1704L536,1704" tabindex="0">
				<title>01:01.01 on 2021-01-22</title>
			</path>
			<line x1="0" y1="1704" x2="1356" y2="1704"/>
			<line x1="536" y1="7805" x2="536" y2="0"/>
			<path d="M539,1820L539,1820" tabindex="0">
				<title>00:59.85 on 2021-01-25</title>
			</path>
			<line x1="0" y1="1820" x2="1356" y2="1820"/>
			<line x1="539" y1="7805" x2="539" y2="0"/>
		</g>
		<g style="--index: 3;">
			<path d="M520,2024" tabindex="0">
				<title>xkon93k8</title>
			</path>
			<rect x="520" y="2024" width="0" height="0"/>
			<path d="M520,2024L520,2024" tabindex="0">
				<title>00:57.81 on 2021-01-06</title>
			</path>
			<line x1="0" y1="2024" x2="1356" y2="2024"/>
			<line x1="520" y1="7805" x2="520" y2="0"/>
		</g>
		<g style="--index: 4;">
			<path d="M567,767L608,767L608,1108" tabindex="0">
				<title>j0np7or8</title>
			</path>
			<rect x="567" y="767" width="41" height="341"/>
			<path d="M567,767L567,767" tabindex="0">
				<title>01:10.38 on 2021-02-22</title>
			</path>
			<line x1="0" y1="767" x2="1356" y2="767"/>
			<line x1="567" y1="7805" x2="567" y2="0"/>
			<path d="M608,1108L608,1108" tabindex="0">
				<title>01:06.97 on 2021-04-04</title>
			</path>
			<line x1="0" y1="1108" x2="1356" y2="1108"/>
			<line x1="608" y1="7805" x2="608" y2="0"/>
		</g>
		<g style="--index: 5;">
			<path d="M941,2175" tabindex="0">
				<title>j2yr9lp8</title>
			</path>
			<rect x="941" y="2175" width="0" height="0"/>
			<path d="M941,2175L941,2175" tabindex="0">
				<title>00:56.30 on 2022-03-03</title>
			</path>
			<line x1="0" y1="2175" x2="1356" y2="2175"/>
			<line x1="941" y1="7805" x2="941" y2="0"/>
		</g>
		<g style="--index: 6;">
			<path d="M1356,2388" tabindex="0">
				<title>jn2m23wj</title>
			</path>
			<rect x="1356" y="2388" width="0" height="0"/>
			<path d="M1356,2388L1356,2388" tabindex="0">
				<title>00:54.17 on 2023-04-22</title>
			</path>
			<line x1="0" y1="2388" x2="1356" y2="2388"/>
			<line x1="1356" y1="7805" x2="1356" y2="0"/>
		</g>
	</g>
</svg>
