<svg xmlns="http://www.w3.org/2000/svg" viewBox="0 0 1351 2683" preserveAspectRatio="none" lang="en" style="color-scheme: dark light;">
		<title>Time by player for leaderboard l_rdqo542w-9d8eewld-wl30kw9l.21dzoj3l</title>
		<style>
			svg {
				background: var(--canvas-background);
				fill: var(--canvas-background);
				stroke: var(--canvas-foreground);
				stroke-linejoin: round;
				stroke-linecap: round;
			}
			g &gt; path[tabindex] {
				vector-effect: non-scaling-stroke;
				fill: none;
				stroke: hsl(calc(var(--index) / var(--count) * 360), 50%, 50%);
				cursor: help;
			}
			g:is(:hover, :focus-within) &gt; path[tabindex] {
				stroke: var(--canvas-foreground);
			}
			g &gt; path[tabindex]:is(:hover, :focus-within) {
				outline: 0;
			}
			g &gt; path[tabindex]:first-of-type {
				stroke-width: 2;
			}
			g &gt; path[tabindex]:first-of-type:is(:hover, :focus-within) {
				stroke-width: 4;
			}
			g &gt; path[tabindex]:first-of-type:not(:last-of-type) {
				stroke-dasharray: 4 8;
			}
			g &gt; rect {
				vector-effect: non-scaling-stroke;
				fill: none;
				stroke: none;
				pointer-events: none;
			}
			g &gt; path[tabindex]:first-of-type:is(:hover, :focus-within) + rect {
				fill: var(--highlighted);
			}
			g &gt; path[tabindex]:first-of-type ~ path[tabindex] {
				stroke-width: 8;
			}
			g &gt; path[tabindex]:first-of-type ~ path[tabindex]:is(:hover, :focus-within) {
				stroke-width: 16;
			}
			g &gt; line {
				vector-effect: non-scaling-stroke;
				fill: none;
				stroke: none;
				stroke-width: 2;
				stroke-dasharray: 4 8;
				pointer-events: none;
			}
			g &gt; path[tabindex]:first-of-type:is(:hover, :focus-within) + rect + path[tabindex] + line,
			g &gt; path[tabindex]:first-of-type:is(:hover, :focus-within) + rect + path[tabindex] + line + line,
			g &gt; path[tabindex]:first-of-type:is(:hover, :focus-within) ~ path[tabindex]:last-of-type + line,
			g &gt; path[tabindex]:first-of-type:is(:hover, :focus-within) ~ path[tabindex]:last-of-type + line + line,
			g &gt; path[tabindex]:first-of-type ~ path[tabindex]:is(:hover, :focus-within) + line,
			g &gt; path[tabindex]:first-of-type ~ path[tabindex]:is(:hover, :focus-within) + line + line {
				stroke: var(--faded);
			}
			@media (prefers-color-scheme: dark) {
				:root {
					--canvas-background: #000;
					--canvas-foreground: #ccc;
					--highlighted: #6663;
					--faded: #9993;
				}
			}
			@media (prefers-color-scheme: light) {
				:root {
					--canvas-background: #fff;
					--canvas-foreground: #333;
					--highlighted: #9993;
					--faded: #6663;
				}
			}
		</style>
		<g transform="scale(1 -1)" transform-origin="center center" style="--count: 9;">
		<g style="--index: 0;">
			<path d="M0,2239" tabindex="0">
				<title>y8dgoe98</title>
			</path>
			<rect x="0" y="2239" width="0" height="0"/>
			<path d="M0,2239L0,2239" tabindex="0">
				<title>00:22.39 on 2019-08-05</title>
			</path>
			<line x1="0" y1="2239" x2="1351" y2="2239"/>
			<line x1="0" y1="0" x2="0" y2="2683"/>
		</g>
		<g style="--index: 1;">
			<path d="M276,2336L297,2336L297,2147" tabindex="0">
				<title>x356nrej</title>
			</path>
			<rect x="276" y="2147" width="21" height="189"/>
			<path d="M276,2336L276,2336" tabindex="0">
				<title>00:23.36 on 2020-05-07</title>
			</path>
			<line x1="0" y1="2336" x2="1351" y2="2336"/>
			<line x1="276" y1="0" x2="276" y2="2683"/>
			<path d="M297,2147L297,2147" tabindex="0">
				<title>00:21.47 on 2020-05-28</title>
			</path>
			<line x1="0" y1="2147" x2="1351" y2="2147"/>
			<line x1="297" y1="0" x2="297" y2="2683"/>
		</g>
		<g style="--index: 2;">
			<path d="M474,2651L492,2651L492,1987" tabindex="0">
				<title>x7q00668</title>
			</path>
			<rect x="474" y="1987" width="18" height="664"/>
			<path d="M474,2651L474,2651" tabindex="0">
				<title>00:26.51 on 2020-11-21</title>
			</path>
			<line x1="0" y1="2651" x2="1351" y2="2651"/>
			<line x1="474" y1="0" x2="474" y2="2683"/>
			<path d="M492,1987L492,1987" tabindex="0">
				<title>00:19.87 on 2020-12-09</title>
			</path>
			<line x1="0" y1="1987" x2="1351" y2="1987"/>
			<line x1="492" y1="0" x2="492" y2="2683"/>
		</g>
		<g style="--index: 3;">
			<path d="M478,2683" tabindex="0">
				<title>jn3kw0wx</title>
			</path>
			<rect x="478" y="2683" width="0" height="0"/>
			<path d="M478,2683L478,2683" tabindex="0">
				<title>00:26.83 on 2020-11-25</title>
			</path>
			<line x1="0" y1="2683" x2="1351" y2="2683"/>
			<line x1="478" y1="0" x2="478" y2="2683"/>
		</g>
		<g style="--index: 4;">
			<path d="M487,2052L514,2052L514,1914" tabindex="0">
				<title>xkon93k8</title>
			</path>
			<rect x="487" y="1914" width="27" height="138"/>
			<path d="M487,2052L487,2052" tabindex="0">
				<title>00:20.52 on 2020-12-04</title>
			</path>
			<line x1="0" y1="2052" x2="1351" y2="2052"/>
			<line x1="487" y1="0" x2="487" y2="2683"/>
			<path d="M514,1914L514,1914" tabindex="0">
				<title>00:19.14 on 2020-12-31</title>
			</path>
			<line x1="0" y1="1914" x2="1351" y2="1914"/>
			<line x1="514" y1="0" x2="514" y2="2683"/>
		</g>
		<g style="--index: 5;">
			<path d="M581,2070" tabindex="0">
				<title>j0np7or8</title>
			</path>
			<rect x="581" y="2070" width="0" height="0"/>
			<path d="M581,2070L581,2070" tabindex="0">
				<title>00:20.70 on 2021-03-08</title>
			</path>
			<line x1="0" y1="2070" x2="1351" y2="2070"/>
			<line x1="581" y1="0" x2="581" y2="2683"/>
		</g>
		<g style="--index: 6;">
			<path d="M941,1871L1063,1871L1063,1828" tabindex="0">
				<title>j2yr9lp8</title>
			</path>
			<rect x="941" y="1828" width="122" height="43"/>
			<path d="M941,1871L941,1871" tabindex="0">
				<title>00:18.71 on 2022-03-03</title>
			</path>
			<line x1="0" y1="1871" x2="1351" y2="1871"/>
			<line x1="941" y1="0" x2="941" y2="2683"/>
			<path d="M1063,1828L1063,1828" tabindex="0">
				<title>00:18.28 on 2022-07-03</title>
			</path>
			<line x1="0" y1="1828" x2="1351" y2="1828"/>
			<line x1="1063" y1="0" x2="1063" y2="2683"/>
		</g>
		<g style="--index: 7;">
			<path d="M1053,1872L1062,1872L1062,1854" tabindex="0">
				<title>xk3m6d68</title>
			</path>
			<rect x="1053" y="1854" width="9" height="18"/>
			<path d="M1053,1872L1053,1872" tabindex="0">
				<title>00:18.72 on 2022-06-23</title>
			</path>
			<line x1="0" y1="1872" x2="1351" y2="1872"/>
			<line x1="1053" y1="0" x2="1053" y2="2683"/>
			<path d="M1062,1854L1062,1854" tabindex="0">
				<title>00:18.54 on 2022-07-02</title>
			</path>
			<line x1="0" y1="1854" x2="1351" y2="1854"/>
			<line x1="1062" y1="0" x2="1062" y2="2683"/>
		</g>
		<g style="--index: 8;">
			<path d="M1351,1776" tabindex="0">
				<title>jn2m23wj</title>
			</path>
			<rect x="1351" y="1776" width="0" height="0"/>
			<path d="M1351,1776L1351,1776" tabindex="0">
				<title>00:17.76 on 2023-04-17</title>
			</path>
			<line x1="0" y1="1776" x2="1351" y2="1776"/>
			<line x1="1351" y1="0" x2="1351" y2="2683"/>
		</g>
	</g>
</svg>
