<svg xmlns="http://www.w3.org/2000/svg" viewBox="0 0 1629 41519" preserveAspectRatio="none" lang="en" style="color-scheme: dark light;">
		<title>Time by player for leaderboard l_rdqo542w-9d8eewld-wl30kw9l.21g8owxl</title>
		<style>
			svg {
				background: var(--canvas-background);
				fill: var(--canvas-background);
				stroke: var(--canvas-foreground);
				stroke-linejoin: round;
				stroke-linecap: round;
			}
			g &gt; path[tabindex] {
				vector-effect: non-scaling-stroke;
				fill: none;
				stroke: hsl(calc(var(--index) / var(--count) * 360), 50%, 50%);
				cursor: help;
			}
			g:is(:hover, :focus-within) &gt; path[tabindex] {
				stroke: var(--canvas-foreground);
			}
			g &gt; path[tabindex]:is(:hover, :focus-within) {
				outline: 0;
			}
			g &gt; path[tabindex]:first-of-type {
				stroke-width: 2;
			}
			g &gt; path[tabindex]:first-of-type:is(:hover, :focus-within) {
				stroke-width: 4;
			}
			g &gt; path[tabindex]:first-of-type:not(:last-of-type) {
				stroke-dasharray: 4 8;
			}
			g &gt; rect {
				vector-effect: non-scaling-stroke;
				fill: none;
				stroke: none;
				pointer-events: none;
			}
			g &gt; path[tabindex]:first-of-type:is(:hover, :focus-within) + rect {
				fill: var(--highlighted);
			}
			g &gt; path[tabindex]:first-of-type ~ path[tabindex] {
				stroke-width: 8;
			}
			g &gt; path[tabindex]:first-of-type ~ path[tabindex]:is(:hover, :focus-within) {
				stroke-width: 16;
			}
			g &gt; line {
				vector-effect: non-scaling-stroke;
				fill: none;
				stroke: none;
				stroke-width: 2;
				stroke-dasharray: 4 8;
				pointer-events: none;
			}
			g &gt; path[tabindex]:first-of-type:is(:hover, :focus-within) + rect + path[tabindex] + line,
			g &gt; path[tabindex]:first-of-type:is(:hover, :focus-within) + rect + path[tabindex] + line + line,
			g &gt; path[tabindex]:first-of-type:is(:hover, :focus-within) ~ path[tabindex]:last-of-type + line,
			g &gt; path[tabindex]:first-of-type:is(:hover, :focus-within) ~ path[tabindex]:last-of-type + line + line,
			g &gt; path[tabindex]:first-of-type ~ path[tabindex]:is(:hover, :focus-within) + line,
			g &gt; path[tabindex]:first-of-type ~ path[tabindex]:is(:hover, :focus-within) + line + line {
				stroke: var(--faded);
			}
			@media (prefers-color-scheme: dark) {
				:root {
					--canvas-background: #000;
					--canvas-foreground: #ccc;
					--highlighted: #6663;
					--faded: #9993;
				}
			}
			@media (prefers-color-scheme: light) {
				:root {
					--canvas-background: #fff;
					--canvas-foreground: #333;
					--highlighted: #9993;
					--faded: #6663;
				}
			}
		</style>
		<g transform="scale(1 -1)" transform-origin="center center" style="--count: 7;">
		<g style="--index: 0;">
			<path d="M0,38750" tabindex="0">
				<title>y8dgoe98</title>
			</path>
			<rect x="0" y="38750" width="0" height="0"/>
			<path d="M0,38750L0,38750" tabindex="0">
				<title>06:27.50 on 2019-08-09</title>
			</path>
			<line x1="0" y1="38750" x2="1629" y2="38750"/>
			<line x1="0" y1="0" x2="0" y2="41519"/>
		</g>
		<g style="--index: 1;">
			<path d="M297,36185" tabindex="0">
				<title>x356nrej</title>
			</path>
			<rect x="297" y="36185" width="0" height="0"/>
			<path d="M297,36185L297,36185" tabindex="0">
				<title>06:01.85 on 2020-06-01</title>
			</path>
			<line x1="0" y1="36185" x2="1629" y2="36185"/>
			<line x1="297" y1="0" x2="297" y2="41519"/>
		</g>
		<g style="--index: 2;">
			<path d="M450,34507L493,34507L493,28188" tabindex="0">
				<title>xkon93k8</title>
			</path>
			<rect x="450" y="28188" width="43" height="6319"/>
			<path d="M450,34507L450,34507" tabindex="0">
				<title>05:45.07 on 2020-11-01</title>
			</path>
			<line x1="0" y1="34507" x2="1629" y2="34507"/>
			<line x1="450" y1="0" x2="450" y2="41519"/>
			<path d="M493,28188L493,28188" tabindex="0">
				<title>04:41.88 on 2020-12-14</title>
			</path>
			<line x1="0" y1="28188" x2="1629" y2="28188"/>
			<line x1="493" y1="0" x2="493" y2="41519"/>
		</g>
		<g style="--index: 3;">
			<path d="M469,33724L483,33724L483,29802L588,29802L588,25502" tabindex="0">
				<title>x7q00668</title>
			</path>
			<rect x="469" y="25502" width="119" height="8222"/>
			<path d="M469,33724L469,33724" tabindex="0">
				<title>05:37.24 on 2020-11-20</title>
			</path>
			<line x1="0" y1="33724" x2="1629" y2="33724"/>
			<line x1="469" y1="0" x2="469" y2="41519"/>
			<path d="M483,29802L483,29802" tabindex="0">
				<title>04:58.02 on 2020-12-04</title>
			</path>
			<line x1="0" y1="29802" x2="1629" y2="29802"/>
			<line x1="483" y1="0" x2="483" y2="41519"/>
			<path d="M588,25502L588,25502" tabindex="0">
				<title>04:15.02 on 2021-03-19</title>
			</path>
			<line x1="0" y1="25502" x2="1629" y2="25502"/>
			<line x1="588" y1="0" x2="588" y2="41519"/>
		</g>
		<g style="--index: 4;">
			<path d="M515,41519L568,41519L568,37286" tabindex="0">
				<title>j0np7or8</title>
			</path>
			<rect x="515" y="37286" width="53" height="4233"/>
			<path d="M515,41519L515,41519" tabindex="0">
				<title>06:55.19 on 2021-01-05</title>
			</path>
			<line x1="0" y1="41519" x2="1629" y2="41519"/>
			<line x1="515" y1="0" x2="515" y2="41519"/>
			<path d="M568,37286L568,37286" tabindex="0">
				<title>06:12.86 on 2021-02-27</title>
			</path>
			<line x1="0" y1="37286" x2="1629" y2="37286"/>
			<line x1="568" y1="0" x2="568" y2="41519"/>
		</g>
		<g style="--index: 5;">
			<path d="M586,26404L1030,26404L1030,24311" tabindex="0">
				<title>j2yr9lp8</title>
			</path>
			<rect x="586" y="24311" width="444" height="2093"/>
			<path d="M586,26404L586,26404" tabindex="0">
				<title>04:24.04 on 2021-03-17</title>
			</path>
			<line x1="0" y1="26404" x2="1629" y2="26404"/>
			<line x1="586" y1="0" x2="586" y2="41519"/>
			<path d="M1030,24311L1030,24311" tabindex="0">
				<title>04:03.11 on 2022-06-04</title>
			</path>
			<line x1="0" y1="24311" x2="1629" y2="24311"/>
			<line x1="1030" y1="0" x2="1030" y2="41519"/>
		</g>
		<g style="--index: 6;">
			<path d="M1629,23342" tabindex="0">
				<title>jn2m23wj</title>
			</path>
			<rect x="1629" y="23342" width="0" height="0"/>
			<path d="M1629,23342L1629,23342" tabindex="0">
				<title>03:53.42 on 2024-01-24</title>
			</path>
			<line x1="0" y1="23342" x2="1629" y2="23342"/>
			<line x1="1629" y1="0" x2="1629" y2="41519"/>
		</g>
	</g>
</svg>
