<svg xmlns="http://www.w3.org/2000/svg" viewBox="0 0 223 6413" preserveAspectRatio="none" lang="en" style="color-scheme: dark light;">
	<title>Time by player for leaderboard rkl9qwrk-6njkg4el.lr3x560l</title>
	<style>
		svg {
			background: var(--canvas-background);
			fill: var(--canvas-background);
			stroke: var(--canvas-foreground);
			stroke-linejoin: round;
			stroke-linecap: round;
		}
		g &gt; path[tabindex] {
			vector-effect: non-scaling-stroke;
			fill: none;
			stroke: hsl(calc(var(--index) / var(--count) * 360), 50%, 50%);
			cursor: help;
		}
		g:is(:hover, :focus-within) &gt; path[tabindex] {
			stroke: var(--canvas-foreground);
		}
		g &gt; path[tabindex]:is(:hover, :focus-within) {
			outline: 0;
		}
		g &gt; path[tabindex]:first-of-type {
			stroke-width: 2;
		}
		g &gt; path[tabindex]:first-of-type:is(:hover, :focus-within) {
			stroke-width: 4;
		}
		g &gt; path[tabindex]:first-of-type:not(:last-of-type) {
			stroke-dasharray: 4 8;
		}
		g &gt; rect {
			vector-effect: non-scaling-stroke;
			fill: none;
			stroke: none;
			pointer-events: none;
		}
		g &gt; path[tabindex]:first-of-type:is(:hover, :focus-within) + rect {
			fill: var(--highlighted);
		}
		g &gt; path[tabindex]:first-of-type ~ path[tabindex] {
			stroke-width: 8;
		}
		g &gt; path[tabindex]:first-of-type ~ path[tabindex]:is(:hover, :focus-within) {
			stroke-width: 16;
		}
		g &gt; line {
			vector-effect: non-scaling-stroke;
			fill: none;
			stroke: none;
			stroke-width: 2;
			stroke-dasharray: 4 8;
			pointer-events: none;
		}
		g &gt; path[tabindex]:first-of-type:is(:hover, :focus-within) + rect + path[tabindex] + line,
		g &gt; path[tabindex]:first-of-type:is(:hover, :focus-within) + rect + path[tabindex] + line + line,
		g &gt; path[tabindex]:first-of-type:is(:hover, :focus-within) ~ path[tabindex]:last-of-type + line,
		g &gt; path[tabindex]:first-of-type:is(:hover, :focus-within) ~ path[tabindex]:last-of-type + line + line,
		g &gt; path[tabindex]:first-of-type ~ path[tabindex]:is(:hover, :focus-within) + line,
		g &gt; path[tabindex]:first-of-type ~ path[tabindex]:is(:hover, :focus-within) + line + line {
			stroke: var(--faded);
		}
		@media (prefers-color-scheme: dark) {
			:root {
				--canvas-background: #000;
				--canvas-foreground: #ccc;
				--highlighted: #6663;
				--faded: #9993;
			}
		}
		@media (prefers-color-scheme: light) {
			:root {
				--canvas-background: #fff;
				--canvas-foreground: #333;
				--highlighted: #9993;
				--faded: #6663;
			}
		}
	</style>
	<g transform="scale(1 -1)" transform-origin="center center" style="--count: 10;">
		<g style="--index: 0;">
			<path d="M0,5821" tabindex="0">
				<title>xz1nv0ej</title>
			</path>
			<rect x="0" y="5821" width="0" height="0"/>
			<path d="M0,5821L0,5821" tabindex="0">
				<title>00:58.21 on 2023-07-19</title>
			</path>
			<line x1="0" y1="5821" x2="223" y2="5821"/>
			<line x1="0" y1="0" x2="0" y2="6413"/>
		</g>
		<g style="--index: 1;">
			<path d="M3,3728L12,3728L12,2991" tabindex="0">
				<title>x3wdlvkj</title>
			</path>
			<rect x="3" y="2991" width="9" height="737"/>
			<path d="M3,3728L3,3728" tabindex="0">
				<title>00:37.28 on 2023-07-22</title>
			</path>
			<line x1="0" y1="3728" x2="223" y2="3728"/>
			<line x1="3" y1="0" x2="3" y2="6413"/>
			<path d="M12,2991L12,2991" tabindex="0">
				<title>00:29.91 on 2023-07-31</title>
			</path>
			<line x1="0" y1="2991" x2="223" y2="2991"/>
			<line x1="12" y1="0" x2="12" y2="6413"/>
		</g>
		<g style="--index: 2;">
			<path d="M7,3304" tabindex="0">
				<title>8v23g7yj</title>
			</path>
			<rect x="7" y="3304" width="0" height="0"/>
			<path d="M7,3304L7,3304" tabindex="0">
				<title>00:33.04 on 2023-07-26</title>
			</path>
			<line x1="0" y1="3304" x2="223" y2="3304"/>
			<line x1="7" y1="0" x2="7" y2="6413"/>
		</g>
		<g style="--index: 3;">
			<path d="M10,3625" tabindex="0">
				<title>j0w34198</title>
			</path>
			<rect x="10" y="3625" width="0" height="0"/>
			<path d="M10,3625L10,3625" tabindex="0">
				<title>00:36.25 on 2023-07-29</title>
			</path>
			<line x1="0" y1="3625" x2="223" y2="3625"/>
			<line x1="10" y1="0" x2="10" y2="6413"/>
		</g>
		<g style="--index: 4;">
			<path d="M13,2556" tabindex="0">
				<title>xkon93k8</title>
			</path>
			<rect x="13" y="2556" width="0" height="0"/>
			<path d="M13,2556L13,2556" tabindex="0">
				<title>00:25.56 on 2023-08-01</title>
			</path>
			<line x1="0" y1="2556" x2="223" y2="2556"/>
			<line x1="13" y1="0" x2="13" y2="6413"/>
		</g>
		<g style="--index: 5;">
			<path d="M29,3486L31,3486L31,3379L32,3379L32,3163" tabindex="0">
				<title>8ew371p8</title>
			</path>
			<rect x="29" y="3163" width="3" height="323"/>
			<path d="M29,3486L29,3486" tabindex="0">
				<title>00:34.86 on 2023-08-17</title>
			</path>
			<line x1="0" y1="3486" x2="223" y2="3486"/>
			<line x1="29" y1="0" x2="29" y2="6413"/>
			<path d="M31,3379L31,3379" tabindex="0">
				<title>00:33.79 on 2023-08-19</title>
			</path>
			<line x1="0" y1="3379" x2="223" y2="3379"/>
			<line x1="31" y1="0" x2="31" y2="6413"/>
			<path d="M32,3163L32,3163" tabindex="0">
				<title>00:31.63 on 2023-08-20</title>
			</path>
			<line x1="0" y1="3163" x2="223" y2="3163"/>
			<line x1="32" y1="0" x2="32" y2="6413"/>
		</g>
		<g style="--index: 6;">
			<path d="M37,6413L44,6413L44,5224" tabindex="0">
				<title>8w3l21qj</title>
			</path>
			<rect x="37" y="5224" width="7" height="1189"/>
			<path d="M37,6413L37,6413" tabindex="0">
				<title>01:04.13 on 2023-08-25</title>
			</path>
			<line x1="0" y1="6413" x2="223" y2="6413"/>
			<line x1="37" y1="0" x2="37" y2="6413"/>
			<path d="M44,5224L44,5224" tabindex="0">
				<title>00:52.24 on 2023-09-01</title>
			</path>
			<line x1="0" y1="5224" x2="223" y2="5224"/>
			<line x1="44" y1="0" x2="44" y2="6413"/>
		</g>
		<g style="--index: 7;">
			<path d="M97,3806" tabindex="0">
				<title>jmz9wwnx</title>
			</path>
			<rect x="97" y="3806" width="0" height="0"/>
			<path d="M97,3806L97,3806" tabindex="0">
				<title>00:38.06 on 2023-10-24</title>
			</path>
			<line x1="0" y1="3806" x2="223" y2="3806"/>
			<line x1="97" y1="0" x2="97" y2="6413"/>
		</g>
		<g style="--index: 8;">
			<path d="M114,4056" tabindex="0">
				<title>j59ry5qx</title>
			</path>
			<rect x="114" y="4056" width="0" height="0"/>
			<path d="M114,4056L114,4056" tabindex="0">
				<title>00:40.56 on 2023-11-10</title>
			</path>
			<line x1="0" y1="4056" x2="223" y2="4056"/>
			<line x1="114" y1="0" x2="114" y2="6413"/>
		</g>
		<g style="--index: 9;">
			<path d="M223,4022" tabindex="0">
				<title>8rmd2ywj</title>
			</path>
			<rect x="223" y="4022" width="0" height="0"/>
			<path d="M223,4022L223,4022" tabindex="0">
				<title>00:40.22 on 2024-02-27</title>
			</path>
			<line x1="0" y1="4022" x2="223" y2="4022"/>
			<line x1="223" y1="0" x2="223" y2="6413"/>
		</g>
	</g>
</svg>
