<svg xmlns="http://www.w3.org/2000/svg" viewBox="0 0 874 6145" preserveAspectRatio="none" lang="en" style="color-scheme: dark light;">
	<title>Time by player for leaderboard rkl9qwrk-6njkg4el.z19p2o8l</title>
	<style>
		svg {
			background: var(--canvas-background);
			fill: var(--canvas-background);
			stroke: var(--canvas-foreground);
			stroke-linejoin: round;
			stroke-linecap: round;
		}
		g &gt; path[tabindex] {
			vector-effect: non-scaling-stroke;
			fill: none;
			stroke: hsl(calc(var(--index) / var(--count) * 360), 50%, 50%);
			cursor: help;
		}
		g:is(:hover, :focus-within) &gt; path[tabindex] {
			stroke: var(--canvas-foreground);
		}
		g &gt; path[tabindex]:is(:hover, :focus-within) {
			outline: 0;
		}
		g &gt; path[tabindex]:first-of-type {
			stroke-width: 2;
		}
		g &gt; path[tabindex]:first-of-type:is(:hover, :focus-within) {
			stroke-width: 4;
		}
		g &gt; path[tabindex]:first-of-type:not(:last-of-type) {
			stroke-dasharray: 4 8;
		}
		g &gt; rect {
			vector-effect: non-scaling-stroke;
			fill: none;
			stroke: none;
			pointer-events: none;
		}
		g &gt; path[tabindex]:first-of-type:is(:hover, :focus-within) + rect {
			fill: var(--highlighted);
		}
		g &gt; path[tabindex]:first-of-type ~ path[tabindex] {
			stroke-width: 8;
		}
		g &gt; path[tabindex]:first-of-type ~ path[tabindex]:is(:hover, :focus-within) {
			stroke-width: 16;
		}
		g &gt; line {
			vector-effect: non-scaling-stroke;
			fill: none;
			stroke: none;
			stroke-width: 2;
			stroke-dasharray: 4 8;
			pointer-events: none;
		}
		g &gt; path[tabindex]:first-of-type:is(:hover, :focus-within) + rect + path[tabindex] + line,
		g &gt; path[tabindex]:first-of-type:is(:hover, :focus-within) + rect + path[tabindex] + line + line,
		g &gt; path[tabindex]:first-of-type:is(:hover, :focus-within) ~ path[tabindex]:last-of-type + line,
		g &gt; path[tabindex]:first-of-type:is(:hover, :focus-within) ~ path[tabindex]:last-of-type + line + line,
		g &gt; path[tabindex]:first-of-type ~ path[tabindex]:is(:hover, :focus-within) + line,
		g &gt; path[tabindex]:first-of-type ~ path[tabindex]:is(:hover, :focus-within) + line + line {
			stroke: var(--faded);
		}
		@media (prefers-color-scheme: dark) {
			:root {
				--canvas-background: #000;
				--canvas-foreground: #ccc;
				--highlighted: #6663;
				--faded: #9993;
			}
		}
		@media (prefers-color-scheme: light) {
			:root {
				--canvas-background: #fff;
				--canvas-foreground: #333;
				--highlighted: #9993;
				--faded: #6663;
			}
		}
	</style>
	<g transform="scale(1 -1)" transform-origin="center center" style="--count: 11;">
		<g style="--index: 0;">
			<path d="M0,6145" tabindex="0">
				<title>j42m66lx</title>
			</path>
			<rect x="0" y="6145" width="0" height="0"/>
			<path d="M0,6145L0,6145" tabindex="0">
				<title>01:01.45 on 2021-03-30</title>
			</path>
			<line x1="0" y1="6145" x2="874" y2="6145"/>
			<line x1="0" y1="0" x2="0" y2="6145"/>
		</g>
		<g style="--index: 1;">
			<path d="M0,3514" tabindex="0">
				<title>0jmw6wex</title>
			</path>
			<rect x="0" y="3514" width="0" height="0"/>
			<path d="M0,3514L0,3514" tabindex="0">
				<title>00:35.14 on 2021-03-30</title>
			</path>
			<line x1="0" y1="3514" x2="874" y2="3514"/>
			<line x1="0" y1="0" x2="0" y2="6145"/>
		</g>
		<g style="--index: 2;">
			<path d="M1,4470" tabindex="0">
				<title>8en1p568</title>
			</path>
			<rect x="1" y="4470" width="0" height="0"/>
			<path d="M1,4470L1,4470" tabindex="0">
				<title>00:44.70 on 2021-03-31</title>
			</path>
			<line x1="0" y1="4470" x2="874" y2="4470"/>
			<line x1="1" y1="0" x2="1" y2="6145"/>
		</g>
		<g style="--index: 3;">
			<path d="M1,3381" tabindex="0">
				<title>xkon93k8</title>
			</path>
			<rect x="1" y="3381" width="0" height="0"/>
			<path d="M1,3381L1,3381" tabindex="0">
				<title>00:33.81 on 2021-03-31</title>
			</path>
			<line x1="0" y1="3381" x2="874" y2="3381"/>
			<line x1="1" y1="0" x2="1" y2="6145"/>
		</g>
		<g style="--index: 4;">
			<path d="M1,3471" tabindex="0">
				<title>x7q00668</title>
			</path>
			<rect x="1" y="3471" width="0" height="0"/>
			<path d="M1,3471L1,3471" tabindex="0">
				<title>00:34.71 on 2021-03-31</title>
			</path>
			<line x1="0" y1="3471" x2="874" y2="3471"/>
			<line x1="1" y1="0" x2="1" y2="6145"/>
		</g>
		<g style="--index: 5;">
			<path d="M31,4987" tabindex="0">
				<title>j96025rj</title>
			</path>
			<rect x="31" y="4987" width="0" height="0"/>
			<path d="M31,4987L31,4987" tabindex="0">
				<title>00:49.87 on 2021-04-30</title>
			</path>
			<line x1="0" y1="4987" x2="874" y2="4987"/>
			<line x1="31" y1="0" x2="31" y2="6145"/>
		</g>
		<g style="--index: 6;">
			<path d="M133,3453" tabindex="0">
				<title>x356nrej</title>
			</path>
			<rect x="133" y="3453" width="0" height="0"/>
			<path d="M133,3453L133,3453" tabindex="0">
				<title>00:34.53 on 2021-08-10</title>
			</path>
			<line x1="0" y1="3453" x2="874" y2="3453"/>
			<line x1="133" y1="0" x2="133" y2="6145"/>
		</g>
		<g style="--index: 7;">
			<path d="M586,5163" tabindex="0">
				<title>8w07d2vj</title>
			</path>
			<rect x="586" y="5163" width="0" height="0"/>
			<path d="M586,5163L586,5163" tabindex="0">
				<title>00:51.63 on 2022-11-06</title>
			</path>
			<line x1="0" y1="5163" x2="874" y2="5163"/>
			<line x1="586" y1="0" x2="586" y2="6145"/>
		</g>
		<g style="--index: 8;">
			<path d="M586,5957" tabindex="0">
				<title>x76ye56j</title>
			</path>
			<rect x="586" y="5957" width="0" height="0"/>
			<path d="M586,5957L586,5957" tabindex="0">
				<title>00:59.57 on 2022-11-06</title>
			</path>
			<line x1="0" y1="5957" x2="874" y2="5957"/>
			<line x1="586" y1="0" x2="586" y2="6145"/>
		</g>
		<g style="--index: 9;">
			<path d="M719,4408" tabindex="0">
				<title>x7w44nr8</title>
			</path>
			<rect x="719" y="4408" width="0" height="0"/>
			<path d="M719,4408L719,4408" tabindex="0">
				<title>00:44.08 on 2023-03-19</title>
			</path>
			<line x1="0" y1="4408" x2="874" y2="4408"/>
			<line x1="719" y1="0" x2="719" y2="6145"/>
		</g>
		<g style="--index: 10;">
			<path d="M874,4419" tabindex="0">
				<title>j40p60d8</title>
			</path>
			<rect x="874" y="4419" width="0" height="0"/>
			<path d="M874,4419L874,4419" tabindex="0">
				<title>00:44.19 on 2023-08-21</title>
			</path>
			<line x1="0" y1="4419" x2="874" y2="4419"/>
			<line x1="874" y1="0" x2="874" y2="6145"/>
		</g>
	</g>
</svg>
