<svg xmlns="http://www.w3.org/2000/svg" viewBox="0 0 514 360146" preserveAspectRatio="none" lang="en" style="color-scheme: dark light;">
	<title>Time by player for leaderboard xd17x94d-9l71pv4l.21gpn081</title>
	<style>
		svg {
			background: var(--canvas-background);
			fill: var(--canvas-background);
			stroke: var(--canvas-foreground);
			stroke-linejoin: round;
			stroke-linecap: round;
		}
		g &gt; path[tabindex] {
			vector-effect: non-scaling-stroke;
			fill: none;
			stroke: hsl(calc(var(--index) / var(--count) * 360), 50%, 50%);
			cursor: help;
		}
		g:is(:hover, :focus-within) &gt; path[tabindex] {
			stroke: var(--canvas-foreground);
		}
		g &gt; path[tabindex]:is(:hover, :focus-within) {
			outline: 0;
		}
		g &gt; path[tabindex]:first-of-type {
			stroke-width: 2;
		}
		g &gt; path[tabindex]:first-of-type:is(:hover, :focus-within) {
			stroke-width: 4;
		}
		g &gt; path[tabindex]:first-of-type:not(:last-of-type) {
			stroke-dasharray: 4 8;
		}
		g &gt; rect {
			vector-effect: non-scaling-stroke;
			fill: none;
			stroke: none;
			pointer-events: none;
		}
		g &gt; path[tabindex]:first-of-type:is(:hover, :focus-within) + rect {
			fill: var(--highlighted);
		}
		g &gt; path[tabindex]:first-of-type ~ path[tabindex] {
			stroke-width: 8;
		}
		g &gt; path[tabindex]:first-of-type ~ path[tabindex]:is(:hover, :focus-within) {
			stroke-width: 16;
		}
		g &gt; line {
			vector-effect: non-scaling-stroke;
			fill: none;
			stroke: none;
			stroke-width: 2;
			stroke-dasharray: 4 8;
			pointer-events: none;
		}
		g &gt; path[tabindex]:first-of-type:is(:hover, :focus-within) + rect + path[tabindex] + line,
		g &gt; path[tabindex]:first-of-type:is(:hover, :focus-within) + rect + path[tabindex] + line + line,
		g &gt; path[tabindex]:first-of-type:is(:hover, :focus-within) ~ path[tabindex]:last-of-type + line,
		g &gt; path[tabindex]:first-of-type:is(:hover, :focus-within) ~ path[tabindex]:last-of-type + line + line,
		g &gt; path[tabindex]:first-of-type ~ path[tabindex]:is(:hover, :focus-within) + line,
		g &gt; path[tabindex]:first-of-type ~ path[tabindex]:is(:hover, :focus-within) + line + line {
			stroke: var(--faded);
		}
		@media (prefers-color-scheme: dark) {
			:root {
				--canvas-background: #000;
				--canvas-foreground: #ccc;
				--highlighted: #6663;
				--faded: #9993;
			}
		}
		@media (prefers-color-scheme: light) {
			:root {
				--canvas-background: #fff;
				--canvas-foreground: #333;
				--highlighted: #9993;
				--faded: #6663;
			}
		}
	</style>
	<g transform="scale(1 -1)" transform-origin="center center" style="--count: 68;">
		<g style="--index: 0;">
			<path d="M0,82629" tabindex="0">
				<title>x356nrej</title>
			</path>
			<rect x="0" y="82629" width="0" height="0"/>
			<path d="M0,82629L0,82629" tabindex="0">
				<title>13:46.29 on 2022-11-12</title>
			</path>
			<line x1="0" y1="82629" x2="514" y2="82629"/>
			<line x1="0" y1="0" x2="0" y2="360146"/>
		</g>
		<g style="--index: 1;">
			<path d="M1,94450" tabindex="0">
				<title>jnzen32j</title>
			</path>
			<rect x="1" y="94450" width="0" height="0"/>
			<path d="M1,94450L1,94450" tabindex="0">
				<title>15:44.50 on 2022-11-13</title>
			</path>
			<line x1="0" y1="94450" x2="514" y2="94450"/>
			<line x1="1" y1="0" x2="1" y2="360146"/>
		</g>
		<g style="--index: 2;">
			<path d="M2,71093L181,71093L181,66676L184,66676L184,65502" tabindex="0">
				<title>0jmw6wex</title>
			</path>
			<rect x="2" y="65502" width="182" height="5591"/>
			<path d="M2,71093L2,71093" tabindex="0">
				<title>11:50.93 on 2022-11-14</title>
			</path>
			<line x1="0" y1="71093" x2="514" y2="71093"/>
			<line x1="2" y1="0" x2="2" y2="360146"/>
			<path d="M181,66676L181,66676" tabindex="0">
				<title>11:06.76 on 2023-05-12</title>
			</path>
			<line x1="0" y1="66676" x2="514" y2="66676"/>
			<line x1="181" y1="0" x2="181" y2="360146"/>
			<path d="M184,65502L184,65502" tabindex="0">
				<title>10:55.02 on 2023-05-15</title>
			</path>
			<line x1="0" y1="65502" x2="514" y2="65502"/>
			<line x1="184" y1="0" x2="184" y2="360146"/>
		</g>
		<g style="--index: 3;">
			<path d="M15,114669L22,114669L22,112908L24,112908L24,96887" tabindex="0">
				<title>j5v07yg8</title>
			</path>
			<rect x="15" y="96887" width="9" height="17782"/>
			<path d="M15,114669L15,114669" tabindex="0">
				<title>19:06.69 on 2022-11-27</title>
			</path>
			<line x1="0" y1="114669" x2="514" y2="114669"/>
			<line x1="15" y1="0" x2="15" y2="360146"/>
			<path d="M22,112908L22,112908" tabindex="0">
				<title>18:49.08 on 2022-12-04</title>
			</path>
			<line x1="0" y1="112908" x2="514" y2="112908"/>
			<line x1="22" y1="0" x2="22" y2="360146"/>
			<path d="M24,96887L24,96887" tabindex="0">
				<title>16:08.87 on 2022-12-06</title>
			</path>
			<line x1="0" y1="96887" x2="514" y2="96887"/>
			<line x1="24" y1="0" x2="24" y2="360146"/>
		</g>
		<g style="--index: 4;">
			<path d="M20,205241" tabindex="0">
				<title>j4rp9rv8</title>
			</path>
			<rect x="20" y="205241" width="0" height="0"/>
			<path d="M20,205241L20,205241" tabindex="0">
				<title>34:12.41 on 2022-12-02</title>
			</path>
			<line x1="0" y1="205241" x2="514" y2="205241"/>
			<line x1="20" y1="0" x2="20" y2="360146"/>
		</g>
		<g style="--index: 5;">
			<path d="M21,251713L28,251713L28,129256" tabindex="0">
				<title>8d0yd3gx</title>
			</path>
			<rect x="21" y="129256" width="7" height="122457"/>
			<path d="M21,251713L21,251713" tabindex="0">
				<title>41:57.13 on 2022-12-03</title>
			</path>
			<line x1="0" y1="251713" x2="514" y2="251713"/>
			<line x1="21" y1="0" x2="21" y2="360146"/>
			<path d="M28,129256L28,129256" tabindex="0">
				<title>21:32.56 on 2022-12-10</title>
			</path>
			<line x1="0" y1="129256" x2="514" y2="129256"/>
			<line x1="28" y1="0" x2="28" y2="360146"/>
		</g>
		<g style="--index: 6;">
			<path d="M25,82430" tabindex="0">
				<title>j4235d5x</title>
			</path>
			<rect x="25" y="82430" width="0" height="0"/>
			<path d="M25,82430L25,82430" tabindex="0">
				<title>13:44.30 on 2022-12-07</title>
			</path>
			<line x1="0" y1="82430" x2="514" y2="82430"/>
			<line x1="25" y1="0" x2="25" y2="360146"/>
		</g>
		<g style="--index: 7;">
			<path d="M27,132366" tabindex="0">
				<title>xzlq2908</title>
			</path>
			<rect x="27" y="132366" width="0" height="0"/>
			<path d="M27,132366L27,132366" tabindex="0">
				<title>22:03.66 on 2022-12-09</title>
			</path>
			<line x1="0" y1="132366" x2="514" y2="132366"/>
			<line x1="27" y1="0" x2="27" y2="360146"/>
		</g>
		<g style="--index: 8;">
			<path d="M28,275542" tabindex="0">
				<title>8g0zk42x</title>
			</path>
			<rect x="28" y="275542" width="0" height="0"/>
			<path d="M28,275542L28,275542" tabindex="0">
				<title>45:55.42 on 2022-12-10</title>
			</path>
			<line x1="0" y1="275542" x2="514" y2="275542"/>
			<line x1="28" y1="0" x2="28" y2="360146"/>
		</g>
		<g style="--index: 9;">
			<path d="M29,125351" tabindex="0">
				<title>8lonqn28</title>
			</path>
			<rect x="29" y="125351" width="0" height="0"/>
			<path d="M29,125351L29,125351" tabindex="0">
				<title>20:53.51 on 2022-12-11</title>
			</path>
			<line x1="0" y1="125351" x2="514" y2="125351"/>
			<line x1="29" y1="0" x2="29" y2="360146"/>
		</g>
		<g style="--index: 10;">
			<path d="M32,172587" tabindex="0">
				<title>jp672g58</title>
			</path>
			<rect x="32" y="172587" width="0" height="0"/>
			<path d="M32,172587L32,172587" tabindex="0">
				<title>28:45.87 on 2022-12-14</title>
			</path>
			<line x1="0" y1="172587" x2="514" y2="172587"/>
			<line x1="32" y1="0" x2="32" y2="360146"/>
		</g>
		<g style="--index: 11;">
			<path d="M37,176876" tabindex="0">
				<title>8qoz5eoj</title>
			</path>
			<rect x="37" y="176876" width="0" height="0"/>
			<path d="M37,176876L37,176876" tabindex="0">
				<title>29:28.76 on 2022-12-19</title>
			</path>
			<line x1="0" y1="176876" x2="514" y2="176876"/>
			<line x1="37" y1="0" x2="37" y2="360146"/>
		</g>
		<g style="--index: 12;">
			<path d="M38,98008" tabindex="0">
				<title>86r57mp8</title>
			</path>
			<rect x="38" y="98008" width="0" height="0"/>
			<path d="M38,98008L38,98008" tabindex="0">
				<title>16:20.08 on 2022-12-20</title>
			</path>
			<line x1="0" y1="98008" x2="514" y2="98008"/>
			<line x1="38" y1="0" x2="38" y2="360146"/>
		</g>
		<g style="--index: 13;">
			<path d="M68,119083" tabindex="0">
				<title>jmz4n7ox</title>
			</path>
			<rect x="68" y="119083" width="0" height="0"/>
			<path d="M68,119083L68,119083" tabindex="0">
				<title>19:50.83 on 2023-01-19</title>
			</path>
			<line x1="0" y1="119083" x2="514" y2="119083"/>
			<line x1="68" y1="0" x2="68" y2="360146"/>
		</g>
		<g style="--index: 14;">
			<path d="M70,234830L71,234830L71,148688L78,148688L78,85124L110,85124L110,83329L115,83329L115,82437L161,82437L161,79170" tabindex="0">
				<title>810y31qx</title>
			</path>
			<rect x="70" y="79170" width="91" height="155660"/>
			<path d="M70,234830L70,234830" tabindex="0">
				<title>39:08.30 on 2023-01-21</title>
			</path>
			<line x1="0" y1="234830" x2="514" y2="234830"/>
			<line x1="70" y1="0" x2="70" y2="360146"/>
			<path d="M71,148688L71,148688" tabindex="0">
				<title>24:46.88 on 2023-01-22</title>
			</path>
			<line x1="0" y1="148688" x2="514" y2="148688"/>
			<line x1="71" y1="0" x2="71" y2="360146"/>
			<path d="M78,85124L78,85124" tabindex="0">
				<title>14:11.24 on 2023-01-29</title>
			</path>
			<line x1="0" y1="85124" x2="514" y2="85124"/>
			<line x1="78" y1="0" x2="78" y2="360146"/>
			<path d="M110,83329L110,83329" tabindex="0">
				<title>13:53.29 on 2023-03-02</title>
			</path>
			<line x1="0" y1="83329" x2="514" y2="83329"/>
			<line x1="110" y1="0" x2="110" y2="360146"/>
			<path d="M115,82437L115,82437" tabindex="0">
				<title>13:44.37 on 2023-03-07</title>
			</path>
			<line x1="0" y1="82437" x2="514" y2="82437"/>
			<line x1="115" y1="0" x2="115" y2="360146"/>
			<path d="M161,79170L161,79170" tabindex="0">
				<title>13:11.70 on 2023-04-22</title>
			</path>
			<line x1="0" y1="79170" x2="514" y2="79170"/>
			<line x1="161" y1="0" x2="161" y2="360146"/>
		</g>
		<g style="--index: 15;">
			<path d="M72,132593" tabindex="0">
				<title>j20rw5lx</title>
			</path>
			<rect x="72" y="132593" width="0" height="0"/>
			<path d="M72,132593L72,132593" tabindex="0">
				<title>22:05.93 on 2023-01-23</title>
			</path>
			<line x1="0" y1="132593" x2="514" y2="132593"/>
			<line x1="72" y1="0" x2="72" y2="360146"/>
		</g>
		<g style="--index: 16;">
			<path d="M73,79731L74,79731L74,75406" tabindex="0">
				<title>jongn6l8</title>
			</path>
			<rect x="73" y="75406" width="1" height="4325"/>
			<path d="M73,79731L73,79731" tabindex="0">
				<title>13:17.31 on 2023-01-24</title>
			</path>
			<line x1="0" y1="79731" x2="514" y2="79731"/>
			<line x1="73" y1="0" x2="73" y2="360146"/>
			<path d="M74,75406L74,75406" tabindex="0">
				<title>12:34.06 on 2023-01-25</title>
			</path>
			<line x1="0" y1="75406" x2="514" y2="75406"/>
			<line x1="74" y1="0" x2="74" y2="360146"/>
		</g>
		<g style="--index: 17;">
			<path d="M78,80779L262,80779L262,77349L263,77349L263,70340" tabindex="0">
				<title>x3wdlvkj</title>
			</path>
			<rect x="78" y="70340" width="185" height="10439"/>
			<path d="M78,80779L78,80779" tabindex="0">
				<title>13:27.79 on 2023-01-29</title>
			</path>
			<line x1="0" y1="80779" x2="514" y2="80779"/>
			<line x1="78" y1="0" x2="78" y2="360146"/>
			<path d="M262,77349L262,77349" tabindex="0">
				<title>12:53.49 on 2023-08-01</title>
			</path>
			<line x1="0" y1="77349" x2="514" y2="77349"/>
			<line x1="262" y1="0" x2="262" y2="360146"/>
			<path d="M263,70340L263,70340" tabindex="0">
				<title>11:43.40 on 2023-08-02</title>
			</path>
			<line x1="0" y1="70340" x2="514" y2="70340"/>
			<line x1="263" y1="0" x2="263" y2="360146"/>
		</g>
		<g style="--index: 18;">
			<path d="M121,117439" tabindex="0">
				<title>jnplq5q8</title>
			</path>
			<rect x="121" y="117439" width="0" height="0"/>
			<path d="M121,117439L121,117439" tabindex="0">
				<title>19:34.39 on 2023-03-13</title>
			</path>
			<line x1="0" y1="117439" x2="514" y2="117439"/>
			<line x1="121" y1="0" x2="121" y2="360146"/>
		</g>
		<g style="--index: 19;">
			<path d="M122,164353" tabindex="0">
				<title>xyoeokzj</title>
			</path>
			<rect x="122" y="164353" width="0" height="0"/>
			<path d="M122,164353L122,164353" tabindex="0">
				<title>27:23.53 on 2023-03-14</title>
			</path>
			<line x1="0" y1="164353" x2="514" y2="164353"/>
			<line x1="122" y1="0" x2="122" y2="360146"/>
		</g>
		<g style="--index: 20;">
			<path d="M125,137345" tabindex="0">
				<title>810zqr3x</title>
			</path>
			<rect x="125" y="137345" width="0" height="0"/>
			<path d="M125,137345L125,137345" tabindex="0">
				<title>22:53.45 on 2023-03-17</title>
			</path>
			<line x1="0" y1="137345" x2="514" y2="137345"/>
			<line x1="125" y1="0" x2="125" y2="360146"/>
		</g>
		<g style="--index: 21;">
			<path d="M131,146809L132,146809L132,134601L140,134601L140,123335" tabindex="0">
				<title>j20z7nox</title>
			</path>
			<rect x="131" y="123335" width="9" height="23474"/>
			<path d="M131,146809L131,146809" tabindex="0">
				<title>24:28.09 on 2023-03-23</title>
			</path>
			<line x1="0" y1="146809" x2="514" y2="146809"/>
			<line x1="131" y1="0" x2="131" y2="360146"/>
			<path d="M132,134601L132,134601" tabindex="0">
				<title>22:26.01 on 2023-03-24</title>
			</path>
			<line x1="0" y1="134601" x2="514" y2="134601"/>
			<line x1="132" y1="0" x2="132" y2="360146"/>
			<path d="M140,123335L140,123335" tabindex="0">
				<title>20:33.35 on 2023-04-01</title>
			</path>
			<line x1="0" y1="123335" x2="514" y2="123335"/>
			<line x1="140" y1="0" x2="140" y2="360146"/>
		</g>
		<g style="--index: 22;">
			<path d="M135,68754L149,68754L149,68085L165,68085L165,67329L220,67329L220,61208" tabindex="0">
				<title>jn2m23wj</title>
			</path>
			<rect x="135" y="61208" width="85" height="7546"/>
			<path d="M135,68754L135,68754" tabindex="0">
				<title>11:27.54 on 2023-03-27</title>
			</path>
			<line x1="0" y1="68754" x2="514" y2="68754"/>
			<line x1="135" y1="0" x2="135" y2="360146"/>
			<path d="M149,68085L149,68085" tabindex="0">
				<title>11:20.85 on 2023-04-10</title>
			</path>
			<line x1="0" y1="68085" x2="514" y2="68085"/>
			<line x1="149" y1="0" x2="149" y2="360146"/>
			<path d="M165,67329L165,67329" tabindex="0">
				<title>11:13.29 on 2023-04-26</title>
			</path>
			<line x1="0" y1="67329" x2="514" y2="67329"/>
			<line x1="165" y1="0" x2="165" y2="360146"/>
			<path d="M220,61208L220,61208" tabindex="0">
				<title>10:12.08 on 2023-06-20</title>
			</path>
			<line x1="0" y1="61208" x2="514" y2="61208"/>
			<line x1="220" y1="0" x2="220" y2="360146"/>
		</g>
		<g style="--index: 23;">
			<path d="M139,142227" tabindex="0">
				<title>x3wkwd6j</title>
			</path>
			<rect x="139" y="142227" width="0" height="0"/>
			<path d="M139,142227L139,142227" tabindex="0">
				<title>23:42.27 on 2023-03-31</title>
			</path>
			<line x1="0" y1="142227" x2="514" y2="142227"/>
			<line x1="139" y1="0" x2="139" y2="360146"/>
		</g>
		<g style="--index: 24;">
			<path d="M149,147529" tabindex="0">
				<title>81071rrx</title>
			</path>
			<rect x="149" y="147529" width="0" height="0"/>
			<path d="M149,147529L149,147529" tabindex="0">
				<title>24:35.29 on 2023-04-10</title>
			</path>
			<line x1="0" y1="147529" x2="514" y2="147529"/>
			<line x1="149" y1="0" x2="149" y2="360146"/>
		</g>
		<g style="--index: 25;">
			<path d="M151,112170" tabindex="0">
				<title>j9pmw1nx</title>
			</path>
			<rect x="151" y="112170" width="0" height="0"/>
			<path d="M151,112170L151,112170" tabindex="0">
				<title>18:41.70 on 2023-04-12</title>
			</path>
			<line x1="0" y1="112170" x2="514" y2="112170"/>
			<line x1="151" y1="0" x2="151" y2="360146"/>
		</g>
		<g style="--index: 26;">
			<path d="M158,127424" tabindex="0">
				<title>8ewdk0d8</title>
			</path>
			<rect x="158" y="127424" width="0" height="0"/>
			<path d="M158,127424L158,127424" tabindex="0">
				<title>21:14.24 on 2023-04-19</title>
			</path>
			<line x1="0" y1="127424" x2="514" y2="127424"/>
			<line x1="158" y1="0" x2="158" y2="360146"/>
		</g>
		<g style="--index: 27;">
			<path d="M162,72507L163,72507L163,71403L164,71403L164,67698" tabindex="0">
				<title>8ek6z678</title>
			</path>
			<rect x="162" y="67698" width="2" height="4809"/>
			<path d="M162,72507L162,72507" tabindex="0">
				<title>12:05.07 on 2023-04-23</title>
			</path>
			<line x1="0" y1="72507" x2="514" y2="72507"/>
			<line x1="162" y1="0" x2="162" y2="360146"/>
			<path d="M163,71403L163,71403" tabindex="0">
				<title>11:54.03 on 2023-04-24</title>
			</path>
			<line x1="0" y1="71403" x2="514" y2="71403"/>
			<line x1="163" y1="0" x2="163" y2="360146"/>
			<path d="M164,67698L164,67698" tabindex="0">
				<title>11:16.98 on 2023-04-25</title>
			</path>
			<line x1="0" y1="67698" x2="514" y2="67698"/>
			<line x1="164" y1="0" x2="164" y2="360146"/>
		</g>
		<g style="--index: 28;">
			<path d="M169,136306" tabindex="0">
				<title>8d0owkox</title>
			</path>
			<rect x="169" y="136306" width="0" height="0"/>
			<path d="M169,136306L169,136306" tabindex="0">
				<title>22:43.06 on 2023-04-30</title>
			</path>
			<line x1="0" y1="136306" x2="514" y2="136306"/>
			<line x1="169" y1="0" x2="169" y2="360146"/>
		</g>
		<g style="--index: 29;">
			<path d="M175,91579" tabindex="0">
				<title>8w3k2rvj</title>
			</path>
			<rect x="175" y="91579" width="0" height="0"/>
			<path d="M175,91579L175,91579" tabindex="0">
				<title>15:15.79 on 2023-05-06</title>
			</path>
			<line x1="0" y1="91579" x2="514" y2="91579"/>
			<line x1="175" y1="0" x2="175" y2="360146"/>
		</g>
		<g style="--index: 30;">
			<path d="M198,102256L211,102256L211,89456" tabindex="0">
				<title>jon0gdl8</title>
			</path>
			<rect x="198" y="89456" width="13" height="12800"/>
			<path d="M198,102256L198,102256" tabindex="0">
				<title>17:02.56 on 2023-05-29</title>
			</path>
			<line x1="0" y1="102256" x2="514" y2="102256"/>
			<line x1="198" y1="0" x2="198" y2="360146"/>
			<path d="M211,89456L211,89456" tabindex="0">
				<title>14:54.56 on 2023-06-11</title>
			</path>
			<line x1="0" y1="89456" x2="514" y2="89456"/>
			<line x1="211" y1="0" x2="211" y2="360146"/>
		</g>
		<g style="--index: 31;">
			<path d="M204,201748" tabindex="0">
				<title>8rl93o68</title>
			</path>
			<rect x="204" y="201748" width="0" height="0"/>
			<path d="M204,201748L204,201748" tabindex="0">
				<title>33:37.48 on 2023-06-04</title>
			</path>
			<line x1="0" y1="201748" x2="514" y2="201748"/>
			<line x1="204" y1="0" x2="204" y2="360146"/>
		</g>
		<g style="--index: 32;">
			<path d="M208,144300" tabindex="0">
				<title>j06ygprj</title>
			</path>
			<rect x="208" y="144300" width="0" height="0"/>
			<path d="M208,144300L208,144300" tabindex="0">
				<title>24:03.00 on 2023-06-08</title>
			</path>
			<line x1="0" y1="144300" x2="514" y2="144300"/>
			<line x1="208" y1="0" x2="208" y2="360146"/>
		</g>
		<g style="--index: 33;">
			<path d="M216,196244" tabindex="0">
				<title>j0grn39x</title>
			</path>
			<rect x="216" y="196244" width="0" height="0"/>
			<path d="M216,196244L216,196244" tabindex="0">
				<title>32:42.44 on 2023-06-16</title>
			</path>
			<line x1="0" y1="196244" x2="514" y2="196244"/>
			<line x1="216" y1="0" x2="216" y2="360146"/>
		</g>
		<g style="--index: 34;">
			<path d="M218,179888" tabindex="0">
				<title>8lom3o78</title>
			</path>
			<rect x="218" y="179888" width="0" height="0"/>
			<path d="M218,179888L218,179888" tabindex="0">
				<title>29:58.88 on 2023-06-18</title>
			</path>
			<line x1="0" y1="179888" x2="514" y2="179888"/>
			<line x1="218" y1="0" x2="218" y2="360146"/>
		</g>
		<g style="--index: 35;">
			<path d="M222,96449L250,96449L250,88301" tabindex="0">
				<title>j9pwdpox</title>
			</path>
			<rect x="222" y="88301" width="28" height="8148"/>
			<path d="M222,96449L222,96449" tabindex="0">
				<title>16:04.49 on 2023-06-22</title>
			</path>
			<line x1="0" y1="96449" x2="514" y2="96449"/>
			<line x1="222" y1="0" x2="222" y2="360146"/>
			<path d="M250,88301L250,88301" tabindex="0">
				<title>14:43.01 on 2023-07-20</title>
			</path>
			<line x1="0" y1="88301" x2="514" y2="88301"/>
			<line x1="250" y1="0" x2="250" y2="360146"/>
		</g>
		<g style="--index: 36;">
			<path d="M225,227446" tabindex="0">
				<title>j9pwg57x</title>
			</path>
			<rect x="225" y="227446" width="0" height="0"/>
			<path d="M225,227446L225,227446" tabindex="0">
				<title>37:54.46 on 2023-06-25</title>
			</path>
			<line x1="0" y1="227446" x2="514" y2="227446"/>
			<line x1="225" y1="0" x2="225" y2="360146"/>
		</g>
		<g style="--index: 37;">
			<path d="M231,221292" tabindex="0">
				<title>xz1nv0ej</title>
			</path>
			<rect x="231" y="221292" width="0" height="0"/>
			<path d="M231,221292L231,221292" tabindex="0">
				<title>36:52.92 on 2023-07-01</title>
			</path>
			<line x1="0" y1="221292" x2="514" y2="221292"/>
			<line x1="231" y1="0" x2="231" y2="360146"/>
		</g>
		<g style="--index: 38;">
			<path d="M236,134462" tabindex="0">
				<title>xz2mepnx</title>
			</path>
			<rect x="236" y="134462" width="0" height="0"/>
			<path d="M236,134462L236,134462" tabindex="0">
				<title>22:24.62 on 2023-07-06</title>
			</path>
			<line x1="0" y1="134462" x2="514" y2="134462"/>
			<line x1="236" y1="0" x2="236" y2="360146"/>
		</g>
		<g style="--index: 39;">
			<path d="M236,119956" tabindex="0">
				<title>j06yr3mj</title>
			</path>
			<rect x="236" y="119956" width="0" height="0"/>
			<path d="M236,119956L236,119956" tabindex="0">
				<title>19:59.56 on 2023-07-06</title>
			</path>
			<line x1="0" y1="119956" x2="514" y2="119956"/>
			<line x1="236" y1="0" x2="236" y2="360146"/>
		</g>
		<g style="--index: 40;">
			<path d="M249,200968" tabindex="0">
				<title>x76q50rj</title>
			</path>
			<rect x="249" y="200968" width="0" height="0"/>
			<path d="M249,200968L249,200968" tabindex="0">
				<title>33:29.68 on 2023-07-19</title>
			</path>
			<line x1="0" y1="200968" x2="514" y2="200968"/>
			<line x1="249" y1="0" x2="249" y2="360146"/>
		</g>
		<g style="--index: 41;">
			<path d="M255,135899" tabindex="0">
				<title>j5qowvnj</title>
			</path>
			<rect x="255" y="135899" width="0" height="0"/>
			<path d="M255,135899L255,135899" tabindex="0">
				<title>22:38.99 on 2023-07-25</title>
			</path>
			<line x1="0" y1="135899" x2="514" y2="135899"/>
			<line x1="255" y1="0" x2="255" y2="360146"/>
		</g>
		<g style="--index: 42;">
			<path d="M256,360146" tabindex="0">
				<title>8w3l21qj</title>
			</path>
			<rect x="256" y="360146" width="0" height="0"/>
			<path d="M256,360146L256,360146" tabindex="0">
				<title>60:01.46 on 2023-07-26</title>
			</path>
			<line x1="0" y1="360146" x2="514" y2="360146"/>
			<line x1="256" y1="0" x2="256" y2="360146"/>
		</g>
		<g style="--index: 43;">
			<path d="M261,240144" tabindex="0">
				<title>j2qwgooj</title>
			</path>
			<rect x="261" y="240144" width="0" height="0"/>
			<path d="M261,240144L261,240144" tabindex="0">
				<title>40:01.44 on 2023-07-31</title>
			</path>
			<line x1="0" y1="240144" x2="514" y2="240144"/>
			<line x1="261" y1="0" x2="261" y2="360146"/>
		</g>
		<g style="--index: 44;">
			<path d="M267,91406L270,91406L270,86393L273,86393L273,83257" tabindex="0">
				<title>8rm224qj</title>
			</path>
			<rect x="267" y="83257" width="6" height="8149"/>
			<path d="M267,91406L267,91406" tabindex="0">
				<title>15:14.06 on 2023-08-06</title>
			</path>
			<line x1="0" y1="91406" x2="514" y2="91406"/>
			<line x1="267" y1="0" x2="267" y2="360146"/>
			<path d="M270,86393L270,86393" tabindex="0">
				<title>14:23.93 on 2023-08-09</title>
			</path>
			<line x1="0" y1="86393" x2="514" y2="86393"/>
			<line x1="270" y1="0" x2="270" y2="360146"/>
			<path d="M273,83257L273,83257" tabindex="0">
				<title>13:52.57 on 2023-08-12</title>
			</path>
			<line x1="0" y1="83257" x2="514" y2="83257"/>
			<line x1="273" y1="0" x2="273" y2="360146"/>
		</g>
		<g style="--index: 45;">
			<path d="M269,112336" tabindex="0">
				<title>jok21g78</title>
			</path>
			<rect x="269" y="112336" width="0" height="0"/>
			<path d="M269,112336L269,112336" tabindex="0">
				<title>18:43.36 on 2023-08-08</title>
			</path>
			<line x1="0" y1="112336" x2="514" y2="112336"/>
			<line x1="269" y1="0" x2="269" y2="360146"/>
		</g>
		<g style="--index: 46;">
			<path d="M276,210766" tabindex="0">
				<title>8v6vem5x</title>
			</path>
			<rect x="276" y="210766" width="0" height="0"/>
			<path d="M276,210766L276,210766" tabindex="0">
				<title>35:07.66 on 2023-08-15</title>
			</path>
			<line x1="0" y1="210766" x2="514" y2="210766"/>
			<line x1="276" y1="0" x2="276" y2="360146"/>
		</g>
		<g style="--index: 47;">
			<path d="M283,144505" tabindex="0">
				<title>x363wmex</title>
			</path>
			<rect x="283" y="144505" width="0" height="0"/>
			<path d="M283,144505L283,144505" tabindex="0">
				<title>24:05.05 on 2023-08-22</title>
			</path>
			<line x1="0" y1="144505" x2="514" y2="144505"/>
			<line x1="283" y1="0" x2="283" y2="360146"/>
		</g>
		<g style="--index: 48;">
			<path d="M319,92058" tabindex="0">
				<title>xkpp4kkj</title>
			</path>
			<rect x="319" y="92058" width="0" height="0"/>
			<path d="M319,92058L319,92058" tabindex="0">
				<title>15:20.58 on 2023-09-27</title>
			</path>
			<line x1="0" y1="92058" x2="514" y2="92058"/>
			<line x1="319" y1="0" x2="319" y2="360146"/>
		</g>
		<g style="--index: 49;">
			<path d="M323,136874" tabindex="0">
				<title>jokkd308</title>
			</path>
			<rect x="323" y="136874" width="0" height="0"/>
			<path d="M323,136874L323,136874" tabindex="0">
				<title>22:48.74 on 2023-10-01</title>
			</path>
			<line x1="0" y1="136874" x2="514" y2="136874"/>
			<line x1="323" y1="0" x2="323" y2="360146"/>
		</g>
		<g style="--index: 50;">
			<path d="M323,151247L326,151247L326,125551L333,125551L333,105006" tabindex="0">
				<title>8lr4w0r8</title>
			</path>
			<rect x="323" y="105006" width="10" height="46241"/>
			<path d="M323,151247L323,151247" tabindex="0">
				<title>25:12.47 on 2023-10-01</title>
			</path>
			<line x1="0" y1="151247" x2="514" y2="151247"/>
			<line x1="323" y1="0" x2="323" y2="360146"/>
			<path d="M326,125551L326,125551" tabindex="0">
				<title>20:55.51 on 2023-10-04</title>
			</path>
			<line x1="0" y1="125551" x2="514" y2="125551"/>
			<line x1="326" y1="0" x2="326" y2="360146"/>
			<path d="M333,105006L333,105006" tabindex="0">
				<title>17:30.06 on 2023-10-11</title>
			</path>
			<line x1="0" y1="105006" x2="514" y2="105006"/>
			<line x1="333" y1="0" x2="333" y2="360146"/>
		</g>
		<g style="--index: 51;">
			<path d="M328,96809L340,96809L340,90268" tabindex="0">
				<title>xk42q99j</title>
			</path>
			<rect x="328" y="90268" width="12" height="6541"/>
			<path d="M328,96809L328,96809" tabindex="0">
				<title>16:08.09 on 2023-10-06</title>
			</path>
			<line x1="0" y1="96809" x2="514" y2="96809"/>
			<line x1="328" y1="0" x2="328" y2="360146"/>
			<path d="M340,90268L340,90268" tabindex="0">
				<title>15:02.68 on 2023-10-18</title>
			</path>
			<line x1="0" y1="90268" x2="514" y2="90268"/>
			<line x1="340" y1="0" x2="340" y2="360146"/>
		</g>
		<g style="--index: 52;">
			<path d="M330,128989" tabindex="0">
				<title>8v0rgvnx</title>
			</path>
			<rect x="330" y="128989" width="0" height="0"/>
			<path d="M330,128989L330,128989" tabindex="0">
				<title>21:29.89 on 2023-10-08</title>
			</path>
			<line x1="0" y1="128989" x2="514" y2="128989"/>
			<line x1="330" y1="0" x2="330" y2="360146"/>
		</g>
		<g style="--index: 53;">
			<path d="M337,85317" tabindex="0">
				<title>j4vwv75j</title>
			</path>
			<rect x="337" y="85317" width="0" height="0"/>
			<path d="M337,85317L337,85317" tabindex="0">
				<title>14:13.17 on 2023-10-15</title>
			</path>
			<line x1="0" y1="85317" x2="514" y2="85317"/>
			<line x1="337" y1="0" x2="337" y2="360146"/>
		</g>
		<g style="--index: 54;">
			<path d="M343,88754L357,88754L357,81171" tabindex="0">
				<title>81mpp0p8</title>
			</path>
			<rect x="343" y="81171" width="14" height="7583"/>
			<path d="M343,88754L343,88754" tabindex="0">
				<title>14:47.54 on 2023-10-21</title>
			</path>
			<line x1="0" y1="88754" x2="514" y2="88754"/>
			<line x1="343" y1="0" x2="343" y2="360146"/>
			<path d="M357,81171L357,81171" tabindex="0">
				<title>13:31.71 on 2023-11-04</title>
			</path>
			<line x1="0" y1="81171" x2="514" y2="81171"/>
			<line x1="357" y1="0" x2="357" y2="360146"/>
		</g>
		<g style="--index: 55;">
			<path d="M349,96459L356,96459L356,89928" tabindex="0">
				<title>jng132q8</title>
			</path>
			<rect x="349" y="89928" width="7" height="6531"/>
			<path d="M349,96459L349,96459" tabindex="0">
				<title>16:04.59 on 2023-10-27</title>
			</path>
			<line x1="0" y1="96459" x2="514" y2="96459"/>
			<line x1="349" y1="0" x2="349" y2="360146"/>
			<path d="M356,89928L356,89928" tabindex="0">
				<title>14:59.28 on 2023-11-03</title>
			</path>
			<line x1="0" y1="89928" x2="514" y2="89928"/>
			<line x1="356" y1="0" x2="356" y2="360146"/>
		</g>
		<g style="--index: 56;">
			<path d="M365,135487" tabindex="0">
				<title>8lrz1248</title>
			</path>
			<rect x="365" y="135487" width="0" height="0"/>
			<path d="M365,135487L365,135487" tabindex="0">
				<title>22:34.87 on 2023-11-12</title>
			</path>
			<line x1="0" y1="135487" x2="514" y2="135487"/>
			<line x1="365" y1="0" x2="365" y2="360146"/>
		</g>
		<g style="--index: 57;">
			<path d="M370,168388" tabindex="0">
				<title>j40z14l8</title>
			</path>
			<rect x="370" y="168388" width="0" height="0"/>
			<path d="M370,168388L370,168388" tabindex="0">
				<title>28:03.88 on 2023-11-17</title>
			</path>
			<line x1="0" y1="168388" x2="514" y2="168388"/>
			<line x1="370" y1="0" x2="370" y2="360146"/>
		</g>
		<g style="--index: 58;">
			<path d="M378,133577" tabindex="0">
				<title>j9kl94v8</title>
			</path>
			<rect x="378" y="133577" width="0" height="0"/>
			<path d="M378,133577L378,133577" tabindex="0">
				<title>22:15.77 on 2023-11-25</title>
			</path>
			<line x1="0" y1="133577" x2="514" y2="133577"/>
			<line x1="378" y1="0" x2="378" y2="360146"/>
		</g>
		<g style="--index: 59;">
			<path d="M385,81521L395,81521L395,77658" tabindex="0">
				<title>j59g63gx</title>
			</path>
			<rect x="385" y="77658" width="10" height="3863"/>
			<path d="M385,81521L385,81521" tabindex="0">
				<title>13:35.21 on 2023-12-02</title>
			</path>
			<line x1="0" y1="81521" x2="514" y2="81521"/>
			<line x1="385" y1="0" x2="385" y2="360146"/>
			<path d="M395,77658L395,77658" tabindex="0">
				<title>12:56.58 on 2023-12-12</title>
			</path>
			<line x1="0" y1="77658" x2="514" y2="77658"/>
			<line x1="395" y1="0" x2="395" y2="360146"/>
		</g>
		<g style="--index: 60;">
			<path d="M391,166896L395,166896L395,104257L487,104257L487,92365" tabindex="0">
				<title>8v0mryvx</title>
			</path>
			<rect x="391" y="92365" width="96" height="74531"/>
			<path d="M391,166896L391,166896" tabindex="0">
				<title>27:48.96 on 2023-12-08</title>
			</path>
			<line x1="0" y1="166896" x2="514" y2="166896"/>
			<line x1="391" y1="0" x2="391" y2="360146"/>
			<path d="M395,104257L395,104257" tabindex="0">
				<title>17:22.57 on 2023-12-12</title>
			</path>
			<line x1="0" y1="104257" x2="514" y2="104257"/>
			<line x1="395" y1="0" x2="395" y2="360146"/>
			<path d="M487,92365L487,92365" tabindex="0">
				<title>15:23.65 on 2024-03-13</title>
			</path>
			<line x1="0" y1="92365" x2="514" y2="92365"/>
			<line x1="487" y1="0" x2="487" y2="360146"/>
		</g>
		<g style="--index: 61;">
			<path d="M434,153496" tabindex="0">
				<title>8dpky5g8</title>
			</path>
			<rect x="434" y="153496" width="0" height="0"/>
			<path d="M434,153496L434,153496" tabindex="0">
				<title>25:34.96 on 2024-01-20</title>
			</path>
			<line x1="0" y1="153496" x2="514" y2="153496"/>
			<line x1="434" y1="0" x2="434" y2="360146"/>
		</g>
		<g style="--index: 62;">
			<path d="M479,129735" tabindex="0">
				<title>86r1y938</title>
			</path>
			<rect x="479" y="129735" width="0" height="0"/>
			<path d="M479,129735L479,129735" tabindex="0">
				<title>21:37.35 on 2024-03-05</title>
			</path>
			<line x1="0" y1="129735" x2="514" y2="129735"/>
			<line x1="479" y1="0" x2="479" y2="360146"/>
		</g>
		<g style="--index: 63;">
			<path d="M496,92951" tabindex="0">
				<title>86rz9rw8</title>
			</path>
			<rect x="496" y="92951" width="0" height="0"/>
			<path d="M496,92951L496,92951" tabindex="0">
				<title>15:29.51 on 2024-03-22</title>
			</path>
			<line x1="0" y1="92951" x2="514" y2="92951"/>
			<line x1="496" y1="0" x2="496" y2="360146"/>
		</g>
		<g style="--index: 64;">
			<path d="M497,88292" tabindex="0">
				<title>jokeyme8</title>
			</path>
			<rect x="497" y="88292" width="0" height="0"/>
			<path d="M497,88292L497,88292" tabindex="0">
				<title>14:42.92 on 2024-03-23</title>
			</path>
			<line x1="0" y1="88292" x2="514" y2="88292"/>
			<line x1="497" y1="0" x2="497" y2="360146"/>
		</g>
		<g style="--index: 65;">
			<path d="M497,181361L498,181361L498,162159" tabindex="0">
				<title>j59z4mgx</title>
			</path>
			<rect x="497" y="162159" width="1" height="19202"/>
			<path d="M497,181361L497,181361" tabindex="0">
				<title>30:13.61 on 2024-03-23</title>
			</path>
			<line x1="0" y1="181361" x2="514" y2="181361"/>
			<line x1="497" y1="0" x2="497" y2="360146"/>
			<path d="M498,162159L498,162159" tabindex="0">
				<title>27:01.59 on 2024-03-24</title>
			</path>
			<line x1="0" y1="162159" x2="514" y2="162159"/>
			<line x1="498" y1="0" x2="498" y2="360146"/>
		</g>
		<g style="--index: 66;">
			<path d="M501,176299" tabindex="0">
				<title>xkp5mm2j</title>
			</path>
			<rect x="501" y="176299" width="0" height="0"/>
			<path d="M501,176299L501,176299" tabindex="0">
				<title>29:22.99 on 2024-03-27</title>
			</path>
			<line x1="0" y1="176299" x2="514" y2="176299"/>
			<line x1="501" y1="0" x2="501" y2="360146"/>
		</g>
		<g style="--index: 67;">
			<path d="M514,141513" tabindex="0">
				<title>j9k9v1v8</title>
			</path>
			<rect x="514" y="141513" width="0" height="0"/>
			<path d="M514,141513L514,141513" tabindex="0">
				<title>23:35.13 on 2024-04-09</title>
			</path>
			<line x1="0" y1="141513" x2="514" y2="141513"/>
			<line x1="514" y1="0" x2="514" y2="360146"/>
		</g>
	</g>
</svg>
