<svg xmlns="http://www.w3.org/2000/svg" viewBox="0 0 1051 145349" preserveAspectRatio="none" lang="en" style="color-scheme: dark light;">
	<title>Time by player for leaderboard xd17x94d-9l71pv4l.81wrgm5l</title>
	<style>
		svg {
			background: var(--canvas-background);
			fill: var(--canvas-background);
			stroke: var(--canvas-foreground);
			stroke-linejoin: round;
			stroke-linecap: round;
		}
		g &gt; path[tabindex] {
			vector-effect: non-scaling-stroke;
			fill: none;
			stroke: hsl(calc(var(--index) / var(--count) * 360), 50%, 50%);
			cursor: help;
		}
		g:is(:hover, :focus-within) &gt; path[tabindex] {
			stroke: var(--canvas-foreground);
		}
		g &gt; path[tabindex]:is(:hover, :focus-within) {
			outline: 0;
		}
		g &gt; path[tabindex]:first-of-type {
			stroke-width: 2;
		}
		g &gt; path[tabindex]:first-of-type:is(:hover, :focus-within) {
			stroke-width: 4;
		}
		g &gt; path[tabindex]:first-of-type:not(:last-of-type) {
			stroke-dasharray: 4 8;
		}
		g &gt; rect {
			vector-effect: non-scaling-stroke;
			fill: none;
			stroke: none;
			pointer-events: none;
		}
		g &gt; path[tabindex]:first-of-type:is(:hover, :focus-within) + rect {
			fill: var(--highlighted);
		}
		g &gt; path[tabindex]:first-of-type ~ path[tabindex] {
			stroke-width: 8;
		}
		g &gt; path[tabindex]:first-of-type ~ path[tabindex]:is(:hover, :focus-within) {
			stroke-width: 16;
		}
		g &gt; line {
			vector-effect: non-scaling-stroke;
			fill: none;
			stroke: none;
			stroke-width: 2;
			stroke-dasharray: 4 8;
			pointer-events: none;
		}
		g &gt; path[tabindex]:first-of-type:is(:hover, :focus-within) + rect + path[tabindex] + line,
		g &gt; path[tabindex]:first-of-type:is(:hover, :focus-within) + rect + path[tabindex] + line + line,
		g &gt; path[tabindex]:first-of-type:is(:hover, :focus-within) ~ path[tabindex]:last-of-type + line,
		g &gt; path[tabindex]:first-of-type:is(:hover, :focus-within) ~ path[tabindex]:last-of-type + line + line,
		g &gt; path[tabindex]:first-of-type ~ path[tabindex]:is(:hover, :focus-within) + line,
		g &gt; path[tabindex]:first-of-type ~ path[tabindex]:is(:hover, :focus-within) + line + line {
			stroke: var(--faded);
		}
		@media (prefers-color-scheme: dark) {
			:root {
				--canvas-background: #000;
				--canvas-foreground: #ccc;
				--highlighted: #6663;
				--faded: #9993;
			}
		}
		@media (prefers-color-scheme: light) {
			:root {
				--canvas-background: #fff;
				--canvas-foreground: #333;
				--highlighted: #9993;
				--faded: #6663;
			}
		}
	</style>
	<g transform="scale(1 -1)" transform-origin="center center" style="--count: 6;">
		<g style="--index: 0;">
			<path d="M0,145349" tabindex="0">
				<title>18qg9ndx</title>
			</path>
			<rect x="0" y="145349" width="0" height="0"/>
			<path d="M0,145349L0,145349" tabindex="0">
				<title>24:13.49 on 2018-09-30</title>
			</path>
			<line x1="0" y1="145349" x2="1051" y2="145349"/>
			<line x1="0" y1="0" x2="0" y2="145349"/>
		</g>
		<g style="--index: 1;">
			<path d="M109,112855" tabindex="0">
				<title>y8dgoe98</title>
			</path>
			<rect x="109" y="112855" width="0" height="0"/>
			<path d="M109,112855L109,112855" tabindex="0">
				<title>18:48.55 on 2019-01-17</title>
			</path>
			<line x1="0" y1="112855" x2="1051" y2="112855"/>
			<line x1="109" y1="0" x2="109" y2="145349"/>
		</g>
		<g style="--index: 2;">
			<path d="M199,108188" tabindex="0">
				<title>qj2pq1p8</title>
			</path>
			<rect x="199" y="108188" width="0" height="0"/>
			<path d="M199,108188L199,108188" tabindex="0">
				<title>18:01.88 on 2019-04-17</title>
			</path>
			<line x1="0" y1="108188" x2="1051" y2="108188"/>
			<line x1="199" y1="0" x2="199" y2="145349"/>
		</g>
		<g style="--index: 3;">
			<path d="M262,116069L291,116069L291,107952L293,107952L293,101016L789,101016L789,84633" tabindex="0">
				<title>0jmw6wex</title>
			</path>
			<rect x="262" y="84633" width="527" height="31436"/>
			<path d="M262,116069L262,116069" tabindex="0">
				<title>19:20.69 on 2019-06-19</title>
			</path>
			<line x1="0" y1="116069" x2="1051" y2="116069"/>
			<line x1="262" y1="0" x2="262" y2="145349"/>
			<path d="M291,107952L291,107952" tabindex="0">
				<title>17:59.52 on 2019-07-18</title>
			</path>
			<line x1="0" y1="107952" x2="1051" y2="107952"/>
			<line x1="291" y1="0" x2="291" y2="145349"/>
			<path d="M293,101016L293,101016" tabindex="0">
				<title>16:50.16 on 2019-07-20</title>
			</path>
			<line x1="0" y1="101016" x2="1051" y2="101016"/>
			<line x1="293" y1="0" x2="293" y2="145349"/>
			<path d="M789,84633L789,84633" tabindex="0">
				<title>14:06.33 on 2020-11-27</title>
			</path>
			<line x1="0" y1="84633" x2="1051" y2="84633"/>
			<line x1="789" y1="0" x2="789" y2="145349"/>
		</g>
		<g style="--index: 4;">
			<path d="M1049,92303" tabindex="0">
				<title>jnzen32j</title>
			</path>
			<rect x="1049" y="92303" width="0" height="0"/>
			<path d="M1049,92303L1049,92303" tabindex="0">
				<title>15:23.03 on 2021-08-14</title>
			</path>
			<line x1="0" y1="92303" x2="1051" y2="92303"/>
			<line x1="1049" y1="0" x2="1049" y2="145349"/>
		</g>
		<g style="--index: 5;">
			<path d="M1051,83467" tabindex="0">
				<title>x356nrej</title>
			</path>
			<rect x="1051" y="83467" width="0" height="0"/>
			<path d="M1051,83467L1051,83467" tabindex="0">
				<title>13:54.67 on 2021-08-16</title>
			</path>
			<line x1="0" y1="83467" x2="1051" y2="83467"/>
			<line x1="1051" y1="0" x2="1051" y2="145349"/>
		</g>
	</g>
</svg>
