<svg xmlns="http://www.w3.org/2000/svg" viewBox="0 0 501 360146" preserveAspectRatio="none" lang="en" style="color-scheme: dark light;">
		<title>Time by player for leaderboard xd17x94d-9l71pv4l.21gpn081</title>
		<style>
			svg {
				background: var(--canvas-background);
				fill: var(--canvas-background);
				stroke: var(--canvas-foreground);
				stroke-linejoin: round;
				stroke-linecap: round;
			}
			g &gt; path[tabindex] {
				vector-effect: non-scaling-stroke;
				fill: none;
				stroke: hsl(calc(var(--index) / var(--count) * 360), 50%, 50%);
				cursor: help;
			}
			g:is(:hover, :focus-within) &gt; path[tabindex] {
				stroke: var(--canvas-foreground);
			}
			g &gt; path[tabindex]:is(:hover, :focus-within) {
				outline: 0;
			}
			g &gt; path[tabindex]:first-of-type {
				stroke-width: 2;
			}
			g &gt; path[tabindex]:first-of-type:is(:hover, :focus-within) {
				stroke-width: 4;
			}
			g &gt; path[tabindex]:first-of-type:not(:last-of-type) {
				stroke-dasharray: 4 8;
			}
			g &gt; rect {
				vector-effect: non-scaling-stroke;
				fill: none;
				stroke: none;
				pointer-events: none;
			}
			g &gt; path[tabindex]:first-of-type:is(:hover, :focus-within) + rect {
				fill: var(--highlighted);
			}
			g &gt; path[tabindex]:first-of-type ~ path[tabindex] {
				stroke-width: 8;
			}
			g &gt; path[tabindex]:first-of-type ~ path[tabindex]:is(:hover, :focus-within) {
				stroke-width: 16;
			}
			g &gt; line {
				vector-effect: non-scaling-stroke;
				fill: none;
				stroke: none;
				stroke-width: 2;
				stroke-dasharray: 4 8;
				pointer-events: none;
			}
			g &gt; path[tabindex]:first-of-type:is(:hover, :focus-within) + rect + path[tabindex] + line,
			g &gt; path[tabindex]:first-of-type:is(:hover, :focus-within) + rect + path[tabindex] + line + line,
			g &gt; path[tabindex]:first-of-type:is(:hover, :focus-within) ~ path[tabindex]:last-of-type + line,
			g &gt; path[tabindex]:first-of-type:is(:hover, :focus-within) ~ path[tabindex]:last-of-type + line + line,
			g &gt; path[tabindex]:first-of-type ~ path[tabindex]:is(:hover, :focus-within) + line,
			g &gt; path[tabindex]:first-of-type ~ path[tabindex]:is(:hover, :focus-within) + line + line {
				stroke: var(--faded);
			}
			@media (prefers-color-scheme: dark) {
				:root {
					--canvas-background: #000;
					--canvas-foreground: #ccc;
					--highlighted: #6663;
					--faded: #9993;
				}
			}
			@media (prefers-color-scheme: light) {
				:root {
					--canvas-background: #fff;
					--canvas-foreground: #333;
					--highlighted: #9993;
					--faded: #6663;
				}
			}
		</style>
		<g style="--count: 66;">
		<g style="--index: 0;">
			<path d="M0,277517" tabindex="0">
				<title>x356nrej</title>
			</path>
			<rect x="0" y="277517" width="0" height="0"/>
			<path d="M0,277517L0,277517" tabindex="0">
				<title>13:46.29 on 2022-11-12</title>
			</path>
			<line x1="0" y1="277517" x2="501" y2="277517"/>
			<line x1="0" y1="360146" x2="0" y2="0"/>
		</g>
		<g style="--index: 1;">
			<path d="M1,265696" tabindex="0">
				<title>jnzen32j</title>
			</path>
			<rect x="1" y="265696" width="0" height="0"/>
			<path d="M1,265696L1,265696" tabindex="0">
				<title>15:44.50 on 2022-11-13</title>
			</path>
			<line x1="0" y1="265696" x2="501" y2="265696"/>
			<line x1="1" y1="360146" x2="1" y2="0"/>
		</g>
		<g style="--index: 2;">
			<path d="M2,289053L181,289053L181,293470L184,293470L184,294644" tabindex="0">
				<title>0jmw6wex</title>
			</path>
			<rect x="2" y="289053" width="182" height="5591"/>
			<path d="M2,289053L2,289053" tabindex="0">
				<title>11:50.93 on 2022-11-14</title>
			</path>
			<line x1="0" y1="289053" x2="501" y2="289053"/>
			<line x1="2" y1="360146" x2="2" y2="0"/>
			<path d="M181,293470L181,293470" tabindex="0">
				<title>11:06.76 on 2023-05-12</title>
			</path>
			<line x1="0" y1="293470" x2="501" y2="293470"/>
			<line x1="181" y1="360146" x2="181" y2="0"/>
			<path d="M184,294644L184,294644" tabindex="0">
				<title>10:55.02 on 2023-05-15</title>
			</path>
			<line x1="0" y1="294644" x2="501" y2="294644"/>
			<line x1="184" y1="360146" x2="184" y2="0"/>
		</g>
		<g style="--index: 3;">
			<path d="M15,245477L22,245477L22,247238L24,247238L24,263259" tabindex="0">
				<title>j5v07yg8</title>
			</path>
			<rect x="15" y="245477" width="9" height="17782"/>
			<path d="M15,245477L15,245477" tabindex="0">
				<title>19:06.69 on 2022-11-27</title>
			</path>
			<line x1="0" y1="245477" x2="501" y2="245477"/>
			<line x1="15" y1="360146" x2="15" y2="0"/>
			<path d="M22,247238L22,247238" tabindex="0">
				<title>18:49.08 on 2022-12-04</title>
			</path>
			<line x1="0" y1="247238" x2="501" y2="247238"/>
			<line x1="22" y1="360146" x2="22" y2="0"/>
			<path d="M24,263259L24,263259" tabindex="0">
				<title>16:08.87 on 2022-12-06</title>
			</path>
			<line x1="0" y1="263259" x2="501" y2="263259"/>
			<line x1="24" y1="360146" x2="24" y2="0"/>
		</g>
		<g style="--index: 4;">
			<path d="M20,154905" tabindex="0">
				<title>j4rp9rv8</title>
			</path>
			<rect x="20" y="154905" width="0" height="0"/>
			<path d="M20,154905L20,154905" tabindex="0">
				<title>34:12.41 on 2022-12-02</title>
			</path>
			<line x1="0" y1="154905" x2="501" y2="154905"/>
			<line x1="20" y1="360146" x2="20" y2="0"/>
		</g>
		<g style="--index: 5;">
			<path d="M21,108433L28,108433L28,230890L38,230890L38,262138" tabindex="0">
				<title>8d0yd3gx</title>
			</path>
			<rect x="21" y="108433" width="17" height="153705"/>
			<path d="M21,108433L21,108433" tabindex="0">
				<title>41:57.13 on 2022-12-03</title>
			</path>
			<line x1="0" y1="108433" x2="501" y2="108433"/>
			<line x1="21" y1="360146" x2="21" y2="0"/>
			<path d="M28,230890L28,230890" tabindex="0">
				<title>21:32.56 on 2022-12-10</title>
			</path>
			<line x1="0" y1="230890" x2="501" y2="230890"/>
			<line x1="28" y1="360146" x2="28" y2="0"/>
			<path d="M38,262138L38,262138" tabindex="0">
				<title>16:20.08 on 2022-12-20</title>
			</path>
			<line x1="0" y1="262138" x2="501" y2="262138"/>
			<line x1="38" y1="360146" x2="38" y2="0"/>
		</g>
		<g style="--index: 6;">
			<path d="M25,277716" tabindex="0">
				<title>j4235d5x</title>
			</path>
			<rect x="25" y="277716" width="0" height="0"/>
			<path d="M25,277716L25,277716" tabindex="0">
				<title>13:44.30 on 2022-12-07</title>
			</path>
			<line x1="0" y1="277716" x2="501" y2="277716"/>
			<line x1="25" y1="360146" x2="25" y2="0"/>
		</g>
		<g style="--index: 7;">
			<path d="M27,227780" tabindex="0">
				<title>xzlq2908</title>
			</path>
			<rect x="27" y="227780" width="0" height="0"/>
			<path d="M27,227780L27,227780" tabindex="0">
				<title>22:03.66 on 2022-12-09</title>
			</path>
			<line x1="0" y1="227780" x2="501" y2="227780"/>
			<line x1="27" y1="360146" x2="27" y2="0"/>
		</g>
		<g style="--index: 8;">
			<path d="M28,84604" tabindex="0">
				<title>8g0zk42x</title>
			</path>
			<rect x="28" y="84604" width="0" height="0"/>
			<path d="M28,84604L28,84604" tabindex="0">
				<title>45:55.42 on 2022-12-10</title>
			</path>
			<line x1="0" y1="84604" x2="501" y2="84604"/>
			<line x1="28" y1="360146" x2="28" y2="0"/>
		</g>
		<g style="--index: 9;">
			<path d="M29,234795" tabindex="0">
				<title>8lonqn28</title>
			</path>
			<rect x="29" y="234795" width="0" height="0"/>
			<path d="M29,234795L29,234795" tabindex="0">
				<title>20:53.51 on 2022-12-11</title>
			</path>
			<line x1="0" y1="234795" x2="501" y2="234795"/>
			<line x1="29" y1="360146" x2="29" y2="0"/>
		</g>
		<g style="--index: 10;">
			<path d="M32,187559" tabindex="0">
				<title>jp672g58</title>
			</path>
			<rect x="32" y="187559" width="0" height="0"/>
			<path d="M32,187559L32,187559" tabindex="0">
				<title>28:45.87 on 2022-12-14</title>
			</path>
			<line x1="0" y1="187559" x2="501" y2="187559"/>
			<line x1="32" y1="360146" x2="32" y2="0"/>
		</g>
		<g style="--index: 11;">
			<path d="M37,183270" tabindex="0">
				<title>8qoz5eoj</title>
			</path>
			<rect x="37" y="183270" width="0" height="0"/>
			<path d="M37,183270L37,183270" tabindex="0">
				<title>29:28.76 on 2022-12-19</title>
			</path>
			<line x1="0" y1="183270" x2="501" y2="183270"/>
			<line x1="37" y1="360146" x2="37" y2="0"/>
		</g>
		<g style="--index: 12;">
			<path d="M68,241063" tabindex="0">
				<title>jmz4n7ox</title>
			</path>
			<rect x="68" y="241063" width="0" height="0"/>
			<path d="M68,241063L68,241063" tabindex="0">
				<title>19:50.83 on 2023-01-19</title>
			</path>
			<line x1="0" y1="241063" x2="501" y2="241063"/>
			<line x1="68" y1="360146" x2="68" y2="0"/>
		</g>
		<g style="--index: 13;">
			<path d="M70,125316L71,125316L71,211458L78,211458L78,275022L110,275022L110,276817L115,276817L115,277709L161,277709L161,280976" tabindex="0">
				<title>810y31qx</title>
			</path>
			<rect x="70" y="125316" width="91" height="155660"/>
			<path d="M70,125316L70,125316" tabindex="0">
				<title>39:08.30 on 2023-01-21</title>
			</path>
			<line x1="0" y1="125316" x2="501" y2="125316"/>
			<line x1="70" y1="360146" x2="70" y2="0"/>
			<path d="M71,211458L71,211458" tabindex="0">
				<title>24:46.88 on 2023-01-22</title>
			</path>
			<line x1="0" y1="211458" x2="501" y2="211458"/>
			<line x1="71" y1="360146" x2="71" y2="0"/>
			<path d="M78,275022L78,275022" tabindex="0">
				<title>14:11.24 on 2023-01-29</title>
			</path>
			<line x1="0" y1="275022" x2="501" y2="275022"/>
			<line x1="78" y1="360146" x2="78" y2="0"/>
			<path d="M110,276817L110,276817" tabindex="0">
				<title>13:53.29 on 2023-03-02</title>
			</path>
			<line x1="0" y1="276817" x2="501" y2="276817"/>
			<line x1="110" y1="360146" x2="110" y2="0"/>
			<path d="M115,277709L115,277709" tabindex="0">
				<title>13:44.37 on 2023-03-07</title>
			</path>
			<line x1="0" y1="277709" x2="501" y2="277709"/>
			<line x1="115" y1="360146" x2="115" y2="0"/>
			<path d="M161,280976L161,280976" tabindex="0">
				<title>13:11.70 on 2023-04-22</title>
			</path>
			<line x1="0" y1="280976" x2="501" y2="280976"/>
			<line x1="161" y1="360146" x2="161" y2="0"/>
		</g>
		<g style="--index: 14;">
			<path d="M72,227553" tabindex="0">
				<title>j20rw5lx</title>
			</path>
			<rect x="72" y="227553" width="0" height="0"/>
			<path d="M72,227553L72,227553" tabindex="0">
				<title>22:05.93 on 2023-01-23</title>
			</path>
			<line x1="0" y1="227553" x2="501" y2="227553"/>
			<line x1="72" y1="360146" x2="72" y2="0"/>
		</g>
		<g style="--index: 15;">
			<path d="M73,280415L74,280415L74,284740" tabindex="0">
				<title>jongn6l8</title>
			</path>
			<rect x="73" y="280415" width="1" height="4325"/>
			<path d="M73,280415L73,280415" tabindex="0">
				<title>13:17.31 on 2023-01-24</title>
			</path>
			<line x1="0" y1="280415" x2="501" y2="280415"/>
			<line x1="73" y1="360146" x2="73" y2="0"/>
			<path d="M74,284740L74,284740" tabindex="0">
				<title>12:34.06 on 2023-01-25</title>
			</path>
			<line x1="0" y1="284740" x2="501" y2="284740"/>
			<line x1="74" y1="360146" x2="74" y2="0"/>
		</g>
		<g style="--index: 16;">
			<path d="M78,279367L262,279367L262,282797L263,282797L263,289806" tabindex="0">
				<title>x3wdlvkj</title>
			</path>
			<rect x="78" y="279367" width="185" height="10439"/>
			<path d="M78,279367L78,279367" tabindex="0">
				<title>13:27.79 on 2023-01-29</title>
			</path>
			<line x1="0" y1="279367" x2="501" y2="279367"/>
			<line x1="78" y1="360146" x2="78" y2="0"/>
			<path d="M262,282797L262,282797" tabindex="0">
				<title>12:53.49 on 2023-08-01</title>
			</path>
			<line x1="0" y1="282797" x2="501" y2="282797"/>
			<line x1="262" y1="360146" x2="262" y2="0"/>
			<path d="M263,289806L263,289806" tabindex="0">
				<title>11:43.40 on 2023-08-02</title>
			</path>
			<line x1="0" y1="289806" x2="501" y2="289806"/>
			<line x1="263" y1="360146" x2="263" y2="0"/>
		</g>
		<g style="--index: 17;">
			<path d="M121,242707" tabindex="0">
				<title>jnplq5q8</title>
			</path>
			<rect x="121" y="242707" width="0" height="0"/>
			<path d="M121,242707L121,242707" tabindex="0">
				<title>19:34.39 on 2023-03-13</title>
			</path>
			<line x1="0" y1="242707" x2="501" y2="242707"/>
			<line x1="121" y1="360146" x2="121" y2="0"/>
		</g>
		<g style="--index: 18;">
			<path d="M122,195793" tabindex="0">
				<title>xyoeokzj</title>
			</path>
			<rect x="122" y="195793" width="0" height="0"/>
			<path d="M122,195793L122,195793" tabindex="0">
				<title>27:23.53 on 2023-03-14</title>
			</path>
			<line x1="0" y1="195793" x2="501" y2="195793"/>
			<line x1="122" y1="360146" x2="122" y2="0"/>
		</g>
		<g style="--index: 19;">
			<path d="M125,222801" tabindex="0">
				<title>810zqr3x</title>
			</path>
			<rect x="125" y="222801" width="0" height="0"/>
			<path d="M125,222801L125,222801" tabindex="0">
				<title>22:53.45 on 2023-03-17</title>
			</path>
			<line x1="0" y1="222801" x2="501" y2="222801"/>
			<line x1="125" y1="360146" x2="125" y2="0"/>
		</g>
		<g style="--index: 20;">
			<path d="M131,213337L132,213337L132,225545L140,225545L140,236811" tabindex="0">
				<title>j20z7nox</title>
			</path>
			<rect x="131" y="213337" width="9" height="23474"/>
			<path d="M131,213337L131,213337" tabindex="0">
				<title>24:28.09 on 2023-03-23</title>
			</path>
			<line x1="0" y1="213337" x2="501" y2="213337"/>
			<line x1="131" y1="360146" x2="131" y2="0"/>
			<path d="M132,225545L132,225545" tabindex="0">
				<title>22:26.01 on 2023-03-24</title>
			</path>
			<line x1="0" y1="225545" x2="501" y2="225545"/>
			<line x1="132" y1="360146" x2="132" y2="0"/>
			<path d="M140,236811L140,236811" tabindex="0">
				<title>20:33.35 on 2023-04-01</title>
			</path>
			<line x1="0" y1="236811" x2="501" y2="236811"/>
			<line x1="140" y1="360146" x2="140" y2="0"/>
		</g>
		<g style="--index: 21;">
			<path d="M135,291392L149,291392L149,292061L165,292061L165,292817L220,292817L220,298938" tabindex="0">
				<title>jn2m23wj</title>
			</path>
			<rect x="135" y="291392" width="85" height="7546"/>
			<path d="M135,291392L135,291392" tabindex="0">
				<title>11:27.54 on 2023-03-27</title>
			</path>
			<line x1="0" y1="291392" x2="501" y2="291392"/>
			<line x1="135" y1="360146" x2="135" y2="0"/>
			<path d="M149,292061L149,292061" tabindex="0">
				<title>11:20.85 on 2023-04-10</title>
			</path>
			<line x1="0" y1="292061" x2="501" y2="292061"/>
			<line x1="149" y1="360146" x2="149" y2="0"/>
			<path d="M165,292817L165,292817" tabindex="0">
				<title>11:13.29 on 2023-04-26</title>
			</path>
			<line x1="0" y1="292817" x2="501" y2="292817"/>
			<line x1="165" y1="360146" x2="165" y2="0"/>
			<path d="M220,298938L220,298938" tabindex="0">
				<title>10:12.08 on 2023-06-20</title>
			</path>
			<line x1="0" y1="298938" x2="501" y2="298938"/>
			<line x1="220" y1="360146" x2="220" y2="0"/>
		</g>
		<g style="--index: 22;">
			<path d="M139,217919" tabindex="0">
				<title>x3wkwd6j</title>
			</path>
			<rect x="139" y="217919" width="0" height="0"/>
			<path d="M139,217919L139,217919" tabindex="0">
				<title>23:42.27 on 2023-03-31</title>
			</path>
			<line x1="0" y1="217919" x2="501" y2="217919"/>
			<line x1="139" y1="360146" x2="139" y2="0"/>
		</g>
		<g style="--index: 23;">
			<path d="M149,212617" tabindex="0">
				<title>81071rrx</title>
			</path>
			<rect x="149" y="212617" width="0" height="0"/>
			<path d="M149,212617L149,212617" tabindex="0">
				<title>24:35.29 on 2023-04-10</title>
			</path>
			<line x1="0" y1="212617" x2="501" y2="212617"/>
			<line x1="149" y1="360146" x2="149" y2="0"/>
		</g>
		<g style="--index: 24;">
			<path d="M151,247976" tabindex="0">
				<title>j9pmw1nx</title>
			</path>
			<rect x="151" y="247976" width="0" height="0"/>
			<path d="M151,247976L151,247976" tabindex="0">
				<title>18:41.70 on 2023-04-12</title>
			</path>
			<line x1="0" y1="247976" x2="501" y2="247976"/>
			<line x1="151" y1="360146" x2="151" y2="0"/>
		</g>
		<g style="--index: 25;">
			<path d="M158,232722" tabindex="0">
				<title>8ewdk0d8</title>
			</path>
			<rect x="158" y="232722" width="0" height="0"/>
			<path d="M158,232722L158,232722" tabindex="0">
				<title>21:14.24 on 2023-04-19</title>
			</path>
			<line x1="0" y1="232722" x2="501" y2="232722"/>
			<line x1="158" y1="360146" x2="158" y2="0"/>
		</g>
		<g style="--index: 26;">
			<path d="M162,287639L163,287639L163,288743L164,288743L164,292448" tabindex="0">
				<title>8ek6z678</title>
			</path>
			<rect x="162" y="287639" width="2" height="4809"/>
			<path d="M162,287639L162,287639" tabindex="0">
				<title>12:05.07 on 2023-04-23</title>
			</path>
			<line x1="0" y1="287639" x2="501" y2="287639"/>
			<line x1="162" y1="360146" x2="162" y2="0"/>
			<path d="M163,288743L163,288743" tabindex="0">
				<title>11:54.03 on 2023-04-24</title>
			</path>
			<line x1="0" y1="288743" x2="501" y2="288743"/>
			<line x1="163" y1="360146" x2="163" y2="0"/>
			<path d="M164,292448L164,292448" tabindex="0">
				<title>11:16.98 on 2023-04-25</title>
			</path>
			<line x1="0" y1="292448" x2="501" y2="292448"/>
			<line x1="164" y1="360146" x2="164" y2="0"/>
		</g>
		<g style="--index: 27;">
			<path d="M169,223840" tabindex="0">
				<title>8d0owkox</title>
			</path>
			<rect x="169" y="223840" width="0" height="0"/>
			<path d="M169,223840L169,223840" tabindex="0">
				<title>22:43.06 on 2023-04-30</title>
			</path>
			<line x1="0" y1="223840" x2="501" y2="223840"/>
			<line x1="169" y1="360146" x2="169" y2="0"/>
		</g>
		<g style="--index: 28;">
			<path d="M175,268567" tabindex="0">
				<title>8w3k2rvj</title>
			</path>
			<rect x="175" y="268567" width="0" height="0"/>
			<path d="M175,268567L175,268567" tabindex="0">
				<title>15:15.79 on 2023-05-06</title>
			</path>
			<line x1="0" y1="268567" x2="501" y2="268567"/>
			<line x1="175" y1="360146" x2="175" y2="0"/>
		</g>
		<g style="--index: 29;">
			<path d="M198,257890L211,257890L211,270690" tabindex="0">
				<title>jon0gdl8</title>
			</path>
			<rect x="198" y="257890" width="13" height="12800"/>
			<path d="M198,257890L198,257890" tabindex="0">
				<title>17:02.56 on 2023-05-29</title>
			</path>
			<line x1="0" y1="257890" x2="501" y2="257890"/>
			<line x1="198" y1="360146" x2="198" y2="0"/>
			<path d="M211,270690L211,270690" tabindex="0">
				<title>14:54.56 on 2023-06-11</title>
			</path>
			<line x1="0" y1="270690" x2="501" y2="270690"/>
			<line x1="211" y1="360146" x2="211" y2="0"/>
		</g>
		<g style="--index: 30;">
			<path d="M204,158398" tabindex="0">
				<title>8rl93o68</title>
			</path>
			<rect x="204" y="158398" width="0" height="0"/>
			<path d="M204,158398L204,158398" tabindex="0">
				<title>33:37.48 on 2023-06-04</title>
			</path>
			<line x1="0" y1="158398" x2="501" y2="158398"/>
			<line x1="204" y1="360146" x2="204" y2="0"/>
		</g>
		<g style="--index: 31;">
			<path d="M208,215846" tabindex="0">
				<title>j06ygprj</title>
			</path>
			<rect x="208" y="215846" width="0" height="0"/>
			<path d="M208,215846L208,215846" tabindex="0">
				<title>24:03.00 on 2023-06-08</title>
			</path>
			<line x1="0" y1="215846" x2="501" y2="215846"/>
			<line x1="208" y1="360146" x2="208" y2="0"/>
		</g>
		<g style="--index: 32;">
			<path d="M216,163902" tabindex="0">
				<title>j0grn39x</title>
			</path>
			<rect x="216" y="163902" width="0" height="0"/>
			<path d="M216,163902L216,163902" tabindex="0">
				<title>32:42.44 on 2023-06-16</title>
			</path>
			<line x1="0" y1="163902" x2="501" y2="163902"/>
			<line x1="216" y1="360146" x2="216" y2="0"/>
		</g>
		<g style="--index: 33;">
			<path d="M218,180258" tabindex="0">
				<title>8lom3o78</title>
			</path>
			<rect x="218" y="180258" width="0" height="0"/>
			<path d="M218,180258L218,180258" tabindex="0">
				<title>29:58.88 on 2023-06-18</title>
			</path>
			<line x1="0" y1="180258" x2="501" y2="180258"/>
			<line x1="218" y1="360146" x2="218" y2="0"/>
		</g>
		<g style="--index: 34;">
			<path d="M222,263697L250,263697L250,271845" tabindex="0">
				<title>j9pwdpox</title>
			</path>
			<rect x="222" y="263697" width="28" height="8148"/>
			<path d="M222,263697L222,263697" tabindex="0">
				<title>16:04.49 on 2023-06-22</title>
			</path>
			<line x1="0" y1="263697" x2="501" y2="263697"/>
			<line x1="222" y1="360146" x2="222" y2="0"/>
			<path d="M250,271845L250,271845" tabindex="0">
				<title>14:43.01 on 2023-07-20</title>
			</path>
			<line x1="0" y1="271845" x2="501" y2="271845"/>
			<line x1="250" y1="360146" x2="250" y2="0"/>
		</g>
		<g style="--index: 35;">
			<path d="M225,132700" tabindex="0">
				<title>j9pwg57x</title>
			</path>
			<rect x="225" y="132700" width="0" height="0"/>
			<path d="M225,132700L225,132700" tabindex="0">
				<title>37:54.46 on 2023-06-25</title>
			</path>
			<line x1="0" y1="132700" x2="501" y2="132700"/>
			<line x1="225" y1="360146" x2="225" y2="0"/>
		</g>
		<g style="--index: 36;">
			<path d="M231,138854" tabindex="0">
				<title>xz1nv0ej</title>
			</path>
			<rect x="231" y="138854" width="0" height="0"/>
			<path d="M231,138854L231,138854" tabindex="0">
				<title>36:52.92 on 2023-07-01</title>
			</path>
			<line x1="0" y1="138854" x2="501" y2="138854"/>
			<line x1="231" y1="360146" x2="231" y2="0"/>
		</g>
		<g style="--index: 37;">
			<path d="M236,225684" tabindex="0">
				<title>xz2mepnx</title>
			</path>
			<rect x="236" y="225684" width="0" height="0"/>
			<path d="M236,225684L236,225684" tabindex="0">
				<title>22:24.62 on 2023-07-06</title>
			</path>
			<line x1="0" y1="225684" x2="501" y2="225684"/>
			<line x1="236" y1="360146" x2="236" y2="0"/>
		</g>
		<g style="--index: 38;">
			<path d="M236,240190" tabindex="0">
				<title>j06yr3mj</title>
			</path>
			<rect x="236" y="240190" width="0" height="0"/>
			<path d="M236,240190L236,240190" tabindex="0">
				<title>19:59.56 on 2023-07-06</title>
			</path>
			<line x1="0" y1="240190" x2="501" y2="240190"/>
			<line x1="236" y1="360146" x2="236" y2="0"/>
		</g>
		<g style="--index: 39;">
			<path d="M249,159178" tabindex="0">
				<title>x76q50rj</title>
			</path>
			<rect x="249" y="159178" width="0" height="0"/>
			<path d="M249,159178L249,159178" tabindex="0">
				<title>33:29.68 on 2023-07-19</title>
			</path>
			<line x1="0" y1="159178" x2="501" y2="159178"/>
			<line x1="249" y1="360146" x2="249" y2="0"/>
		</g>
		<g style="--index: 40;">
			<path d="M255,224247" tabindex="0">
				<title>j5qowvnj</title>
			</path>
			<rect x="255" y="224247" width="0" height="0"/>
			<path d="M255,224247L255,224247" tabindex="0">
				<title>22:38.99 on 2023-07-25</title>
			</path>
			<line x1="0" y1="224247" x2="501" y2="224247"/>
			<line x1="255" y1="360146" x2="255" y2="0"/>
		</g>
		<g style="--index: 41;">
			<path d="M256,0" tabindex="0">
				<title>8w3l21qj</title>
			</path>
			<rect x="256" y="0" width="0" height="0"/>
			<path d="M256,0L256,0" tabindex="0">
				<title>60:01.46 on 2023-07-26</title>
			</path>
			<line x1="0" y1="0" x2="501" y2="0"/>
			<line x1="256" y1="360146" x2="256" y2="0"/>
		</g>
		<g style="--index: 42;">
			<path d="M261,120002" tabindex="0">
				<title>j2qwgooj</title>
			</path>
			<rect x="261" y="120002" width="0" height="0"/>
			<path d="M261,120002L261,120002" tabindex="0">
				<title>40:01.44 on 2023-07-31</title>
			</path>
			<line x1="0" y1="120002" x2="501" y2="120002"/>
			<line x1="261" y1="360146" x2="261" y2="0"/>
		</g>
		<g style="--index: 43;">
			<path d="M267,268740L270,268740L270,273753L273,273753L273,276889" tabindex="0">
				<title>8rm224qj</title>
			</path>
			<rect x="267" y="268740" width="6" height="8149"/>
			<path d="M267,268740L267,268740" tabindex="0">
				<title>15:14.06 on 2023-08-06</title>
			</path>
			<line x1="0" y1="268740" x2="501" y2="268740"/>
			<line x1="267" y1="360146" x2="267" y2="0"/>
			<path d="M270,273753L270,273753" tabindex="0">
				<title>14:23.93 on 2023-08-09</title>
			</path>
			<line x1="0" y1="273753" x2="501" y2="273753"/>
			<line x1="270" y1="360146" x2="270" y2="0"/>
			<path d="M273,276889L273,276889" tabindex="0">
				<title>13:52.57 on 2023-08-12</title>
			</path>
			<line x1="0" y1="276889" x2="501" y2="276889"/>
			<line x1="273" y1="360146" x2="273" y2="0"/>
		</g>
		<g style="--index: 44;">
			<path d="M269,247810" tabindex="0">
				<title>jok21g78</title>
			</path>
			<rect x="269" y="247810" width="0" height="0"/>
			<path d="M269,247810L269,247810" tabindex="0">
				<title>18:43.36 on 2023-08-08</title>
			</path>
			<line x1="0" y1="247810" x2="501" y2="247810"/>
			<line x1="269" y1="360146" x2="269" y2="0"/>
		</g>
		<g style="--index: 45;">
			<path d="M276,149380" tabindex="0">
				<title>8v6vem5x</title>
			</path>
			<rect x="276" y="149380" width="0" height="0"/>
			<path d="M276,149380L276,149380" tabindex="0">
				<title>35:07.66 on 2023-08-15</title>
			</path>
			<line x1="0" y1="149380" x2="501" y2="149380"/>
			<line x1="276" y1="360146" x2="276" y2="0"/>
		</g>
		<g style="--index: 46;">
			<path d="M283,215641" tabindex="0">
				<title>x363wmex</title>
			</path>
			<rect x="283" y="215641" width="0" height="0"/>
			<path d="M283,215641L283,215641" tabindex="0">
				<title>24:05.05 on 2023-08-22</title>
			</path>
			<line x1="0" y1="215641" x2="501" y2="215641"/>
			<line x1="283" y1="360146" x2="283" y2="0"/>
		</g>
		<g style="--index: 47;">
			<path d="M319,268088" tabindex="0">
				<title>xkpp4kkj</title>
			</path>
			<rect x="319" y="268088" width="0" height="0"/>
			<path d="M319,268088L319,268088" tabindex="0">
				<title>15:20.58 on 2023-09-27</title>
			</path>
			<line x1="0" y1="268088" x2="501" y2="268088"/>
			<line x1="319" y1="360146" x2="319" y2="0"/>
		</g>
		<g style="--index: 48;">
			<path d="M323,223272" tabindex="0">
				<title>jokkd308</title>
			</path>
			<rect x="323" y="223272" width="0" height="0"/>
			<path d="M323,223272L323,223272" tabindex="0">
				<title>22:48.74 on 2023-10-01</title>
			</path>
			<line x1="0" y1="223272" x2="501" y2="223272"/>
			<line x1="323" y1="360146" x2="323" y2="0"/>
		</g>
		<g style="--index: 49;">
			<path d="M323,208899L326,208899L326,234595L333,234595L333,255140" tabindex="0">
				<title>8lr4w0r8</title>
			</path>
			<rect x="323" y="208899" width="10" height="46241"/>
			<path d="M323,208899L323,208899" tabindex="0">
				<title>25:12.47 on 2023-10-01</title>
			</path>
			<line x1="0" y1="208899" x2="501" y2="208899"/>
			<line x1="323" y1="360146" x2="323" y2="0"/>
			<path d="M326,234595L326,234595" tabindex="0">
				<title>20:55.51 on 2023-10-04</title>
			</path>
			<line x1="0" y1="234595" x2="501" y2="234595"/>
			<line x1="326" y1="360146" x2="326" y2="0"/>
			<path d="M333,255140L333,255140" tabindex="0">
				<title>17:30.06 on 2023-10-11</title>
			</path>
			<line x1="0" y1="255140" x2="501" y2="255140"/>
			<line x1="333" y1="360146" x2="333" y2="0"/>
		</g>
		<g style="--index: 50;">
			<path d="M328,263337L340,263337L340,269878" tabindex="0">
				<title>xk42q99j</title>
			</path>
			<rect x="328" y="263337" width="12" height="6541"/>
			<path d="M328,263337L328,263337" tabindex="0">
				<title>16:08.09 on 2023-10-06</title>
			</path>
			<line x1="0" y1="263337" x2="501" y2="263337"/>
			<line x1="328" y1="360146" x2="328" y2="0"/>
			<path d="M340,269878L340,269878" tabindex="0">
				<title>15:02.68 on 2023-10-18</title>
			</path>
			<line x1="0" y1="269878" x2="501" y2="269878"/>
			<line x1="340" y1="360146" x2="340" y2="0"/>
		</g>
		<g style="--index: 51;">
			<path d="M330,231157" tabindex="0">
				<title>8v0rgvnx</title>
			</path>
			<rect x="330" y="231157" width="0" height="0"/>
			<path d="M330,231157L330,231157" tabindex="0">
				<title>21:29.89 on 2023-10-08</title>
			</path>
			<line x1="0" y1="231157" x2="501" y2="231157"/>
			<line x1="330" y1="360146" x2="330" y2="0"/>
		</g>
		<g style="--index: 52;">
			<path d="M337,274829" tabindex="0">
				<title>j4vwv75j</title>
			</path>
			<rect x="337" y="274829" width="0" height="0"/>
			<path d="M337,274829L337,274829" tabindex="0">
				<title>14:13.17 on 2023-10-15</title>
			</path>
			<line x1="0" y1="274829" x2="501" y2="274829"/>
			<line x1="337" y1="360146" x2="337" y2="0"/>
		</g>
		<g style="--index: 53;">
			<path d="M343,271392L357,271392L357,278975" tabindex="0">
				<title>81mpp0p8</title>
			</path>
			<rect x="343" y="271392" width="14" height="7583"/>
			<path d="M343,271392L343,271392" tabindex="0">
				<title>14:47.54 on 2023-10-21</title>
			</path>
			<line x1="0" y1="271392" x2="501" y2="271392"/>
			<line x1="343" y1="360146" x2="343" y2="0"/>
			<path d="M357,278975L357,278975" tabindex="0">
				<title>13:31.71 on 2023-11-04</title>
			</path>
			<line x1="0" y1="278975" x2="501" y2="278975"/>
			<line x1="357" y1="360146" x2="357" y2="0"/>
		</g>
		<g style="--index: 54;">
			<path d="M349,263687L356,263687L356,270218" tabindex="0">
				<title>jng132q8</title>
			</path>
			<rect x="349" y="263687" width="7" height="6531"/>
			<path d="M349,263687L349,263687" tabindex="0">
				<title>16:04.59 on 2023-10-27</title>
			</path>
			<line x1="0" y1="263687" x2="501" y2="263687"/>
			<line x1="349" y1="360146" x2="349" y2="0"/>
			<path d="M356,270218L356,270218" tabindex="0">
				<title>14:59.28 on 2023-11-03</title>
			</path>
			<line x1="0" y1="270218" x2="501" y2="270218"/>
			<line x1="356" y1="360146" x2="356" y2="0"/>
		</g>
		<g style="--index: 55;">
			<path d="M365,224659" tabindex="0">
				<title>8lrz1248</title>
			</path>
			<rect x="365" y="224659" width="0" height="0"/>
			<path d="M365,224659L365,224659" tabindex="0">
				<title>22:34.87 on 2023-11-12</title>
			</path>
			<line x1="0" y1="224659" x2="501" y2="224659"/>
			<line x1="365" y1="360146" x2="365" y2="0"/>
		</g>
		<g style="--index: 56;">
			<path d="M370,191758" tabindex="0">
				<title>j40z14l8</title>
			</path>
			<rect x="370" y="191758" width="0" height="0"/>
			<path d="M370,191758L370,191758" tabindex="0">
				<title>28:03.88 on 2023-11-17</title>
			</path>
			<line x1="0" y1="191758" x2="501" y2="191758"/>
			<line x1="370" y1="360146" x2="370" y2="0"/>
		</g>
		<g style="--index: 57;">
			<path d="M378,226569" tabindex="0">
				<title>j9kl94v8</title>
			</path>
			<rect x="378" y="226569" width="0" height="0"/>
			<path d="M378,226569L378,226569" tabindex="0">
				<title>22:15.77 on 2023-11-25</title>
			</path>
			<line x1="0" y1="226569" x2="501" y2="226569"/>
			<line x1="378" y1="360146" x2="378" y2="0"/>
		</g>
		<g style="--index: 58;">
			<path d="M385,278625L395,278625L395,282488" tabindex="0">
				<title>j59g63gx</title>
			</path>
			<rect x="385" y="278625" width="10" height="3863"/>
			<path d="M385,278625L385,278625" tabindex="0">
				<title>13:35.21 on 2023-12-02</title>
			</path>
			<line x1="0" y1="278625" x2="501" y2="278625"/>
			<line x1="385" y1="360146" x2="385" y2="0"/>
			<path d="M395,282488L395,282488" tabindex="0">
				<title>12:56.58 on 2023-12-12</title>
			</path>
			<line x1="0" y1="282488" x2="501" y2="282488"/>
			<line x1="395" y1="360146" x2="395" y2="0"/>
		</g>
		<g style="--index: 59;">
			<path d="M391,193250L395,193250L395,255889L487,255889L487,267781" tabindex="0">
				<title>8v0mryvx</title>
			</path>
			<rect x="391" y="193250" width="96" height="74531"/>
			<path d="M391,193250L391,193250" tabindex="0">
				<title>27:48.96 on 2023-12-08</title>
			</path>
			<line x1="0" y1="193250" x2="501" y2="193250"/>
			<line x1="391" y1="360146" x2="391" y2="0"/>
			<path d="M395,255889L395,255889" tabindex="0">
				<title>17:22.57 on 2023-12-12</title>
			</path>
			<line x1="0" y1="255889" x2="501" y2="255889"/>
			<line x1="395" y1="360146" x2="395" y2="0"/>
			<path d="M487,267781L487,267781" tabindex="0">
				<title>15:23.65 on 2024-03-13</title>
			</path>
			<line x1="0" y1="267781" x2="501" y2="267781"/>
			<line x1="487" y1="360146" x2="487" y2="0"/>
		</g>
		<g style="--index: 60;">
			<path d="M434,206650" tabindex="0">
				<title>8dpky5g8</title>
			</path>
			<rect x="434" y="206650" width="0" height="0"/>
			<path d="M434,206650L434,206650" tabindex="0">
				<title>25:34.96 on 2024-01-20</title>
			</path>
			<line x1="0" y1="206650" x2="501" y2="206650"/>
			<line x1="434" y1="360146" x2="434" y2="0"/>
		</g>
		<g style="--index: 61;">
			<path d="M479,230411" tabindex="0">
				<title>86r1y938</title>
			</path>
			<rect x="479" y="230411" width="0" height="0"/>
			<path d="M479,230411L479,230411" tabindex="0">
				<title>21:37.35 on 2024-03-05</title>
			</path>
			<line x1="0" y1="230411" x2="501" y2="230411"/>
			<line x1="479" y1="360146" x2="479" y2="0"/>
		</g>
		<g style="--index: 62;">
			<path d="M496,267195" tabindex="0">
				<title>86rz9rw8</title>
			</path>
			<rect x="496" y="267195" width="0" height="0"/>
			<path d="M496,267195L496,267195" tabindex="0">
				<title>15:29.51 on 2024-03-22</title>
			</path>
			<line x1="0" y1="267195" x2="501" y2="267195"/>
			<line x1="496" y1="360146" x2="496" y2="0"/>
		</g>
		<g style="--index: 63;">
			<path d="M497,271854" tabindex="0">
				<title>jokeyme8</title>
			</path>
			<rect x="497" y="271854" width="0" height="0"/>
			<path d="M497,271854L497,271854" tabindex="0">
				<title>14:42.92 on 2024-03-23</title>
			</path>
			<line x1="0" y1="271854" x2="501" y2="271854"/>
			<line x1="497" y1="360146" x2="497" y2="0"/>
		</g>
		<g style="--index: 64;">
			<path d="M497,178785L498,178785L498,197987" tabindex="0">
				<title>j59z4mgx</title>
			</path>
			<rect x="497" y="178785" width="1" height="19202"/>
			<path d="M497,178785L497,178785" tabindex="0">
				<title>30:13.61 on 2024-03-23</title>
			</path>
			<line x1="0" y1="178785" x2="501" y2="178785"/>
			<line x1="497" y1="360146" x2="497" y2="0"/>
			<path d="M498,197987L498,197987" tabindex="0">
				<title>27:01.59 on 2024-03-24</title>
			</path>
			<line x1="0" y1="197987" x2="501" y2="197987"/>
			<line x1="498" y1="360146" x2="498" y2="0"/>
		</g>
		<g style="--index: 65;">
			<path d="M501,183847" tabindex="0">
				<title>xkp5mm2j</title>
			</path>
			<rect x="501" y="183847" width="0" height="0"/>
			<path d="M501,183847L501,183847" tabindex="0">
				<title>29:22.99 on 2024-03-27</title>
			</path>
			<line x1="0" y1="183847" x2="501" y2="183847"/>
			<line x1="501" y1="360146" x2="501" y2="0"/>
		</g>
	</g>
</svg>
